<svg width="64" height="64" viewBox="0 0 64 64" fill="none" xmlns="http://www.w3.org/2000/svg">
<rect width="64" height="64" rx="4" fill="#FAFAF9"/>
<g clip-path="url(#clip0_9236_14)">
<path d="M20.1592 37.7546C21.4491 36.9517 22.9582 36.5686 24.4768 36.6583C24.6993 36.673 25.0199 36.6965 25.2293 36.7452H25.2294L25.2294 36.745C26.985 36.9567 28.7746 38.0824 29.8595 39.4554C31.0844 41.0057 31.6334 42.9801 31.3833 44.9367C31.2826 45.7207 31.0548 46.4778 30.7132 47.1804C30.7064 47.1944 30.6996 47.2084 30.6927 47.2223C30.6664 47.2756 30.6393 47.3287 30.6116 47.3815C30.2949 47.9845 29.8928 48.5441 29.414 49.0417C29.3015 49.158 28.9341 49.5301 28.8092 49.5917C28.6934 49.7071 28.4548 49.8783 28.3129 49.9758C27.5144 50.5286 26.6129 50.9166 25.6615 51.1168C25.4543 51.1591 25.2453 51.1923 25.0351 51.2161C24.9083 51.2307 24.6932 51.2462 24.5807 51.2736H23.7073C23.5691 51.2347 23.253 51.2236 23.0995 51.2013C22.8828 51.1697 22.678 51.1289 22.4647 51.0807C20.5612 50.6383 18.911 49.4638 17.875 47.8136C16.8376 46.1656 16.4999 44.1749 16.9361 42.2791C17.3644 40.4046 18.524 38.7769 20.1592 37.7546Z" fill="#7700EE"/>
<path fill-rule="evenodd" clip-rule="evenodd" d="M24.5717 12.0034C24.8412 12.0468 25.1668 12.045 25.451 12.0818C25.6095 12.1023 25.7762 12.1276 25.9481 12.1575C26.0024 12.1669 26.0573 12.1769 26.1125 12.1872C26.9628 12.3466 27.9123 12.6123 28.6129 12.955C31.331 14.1566 33.4492 16.3964 34.4906 19.1697C35.0341 20.6186 35.2664 22.1649 35.1724 23.7087C35.1679 23.7766 35.1464 24.1471 35.1252 24.281C35.1217 24.3033 35.1182 24.319 35.1148 24.3258C35.0311 25.5808 34.4184 27.3222 33.8031 28.397C33.7432 28.5014 33.5121 28.9286 33.4452 28.9895C33.2897 29.28 32.8866 29.8019 32.6745 30.0587C31.2938 31.7307 29.45 32.9622 27.3723 33.5998C25.3095 34.2358 23.1046 34.256 21.0305 33.6578C21.0308 33.6584 21.0306 33.6584 21.0295 33.6576C19.3066 33.22 17.519 32.1068 16.2662 30.8703C14.7347 29.3475 13.6831 27.4127 13.2405 25.3034C13.1662 24.9522 13.0544 24.315 13.0528 23.9639L13.0529 23.9642C13.0529 23.9641 13.0529 23.964 13.0529 23.9639C12.6056 19.7625 15.0327 15.2735 18.8088 13.3406L18.8638 13.3104C19.0293 13.2204 19.1974 13.1352 19.3679 13.0547C19.3868 13.0457 19.4058 13.0368 19.4248 13.028C20.4317 12.5599 21.5174 12.2542 22.6139 12.0999C22.9042 12.059 23.232 12.0536 23.5141 12.0197C23.5242 12.0184 23.5342 12.0172 23.5442 12.0159C23.574 12.012 23.6033 12.0079 23.632 12.0032L23.651 12H24.5515L24.5717 12.0034ZM24.101 15.9859C23.6119 15.9861 23.1187 16.0368 22.6286 16.1406C19.3587 16.8332 17.0192 19.7055 17.0142 23.0334C17.0093 26.3613 19.3403 29.2404 22.6081 29.9425C25.8759 30.6447 29.1923 28.979 30.5667 25.9454C31.3049 24.316 31.3826 22.502 30.8454 20.8588C30.8392 20.8397 30.8328 20.8206 30.8264 20.8016C30.7046 20.4394 30.5528 20.0858 30.3715 19.7446C30.362 19.7266 30.3523 19.7087 30.3426 19.6908C30.3135 19.6371 30.2837 19.5838 30.2531 19.5308C30.2429 19.5131 30.2326 19.4954 30.2223 19.4778C30.0462 19.1786 29.8466 18.89 29.6239 18.6149C29.6108 18.5987 29.5976 18.5826 29.5844 18.5666C29.5712 18.5505 29.5579 18.5346 29.5445 18.5187C29.104 17.9936 28.5963 17.5431 28.0406 17.1739C28.0179 17.1588 27.995 17.1438 27.9721 17.129C26.8928 16.4297 25.6381 16.0338 24.3452 15.99C24.3248 15.9893 24.3046 15.9887 24.2842 15.9882C24.2232 15.9866 24.1621 15.9859 24.101 15.9859Z" fill="#7700EE"/>
<path d="M51.7956 14.8674C50.6216 14.904 49.7595 15.1597 49.2092 15.6347C48.6588 16.0731 48.3103 16.7307 48.1635 17.6075C48.0168 18.4478 47.9434 19.5621 47.9434 20.9505V43.474C47.9434 44.4605 47.9251 45.3556 47.8884 46.1593C47.8884 46.9266 47.8517 47.5476 47.7783 48.0226C48.402 47.9495 49.0807 47.913 49.8145 47.913C50.5849 47.8765 51.2453 47.8399 51.7956 47.8034V50.8175H38.2578V48.4062C39.4685 48.3331 40.3306 48.0774 40.8443 47.639C41.3946 47.2006 41.7431 46.5429 41.8899 45.6661C42.0366 44.7893 42.11 43.675 42.11 42.3232V19.5256C42.11 18.7218 42.1284 17.9546 42.165 17.2239C42.2017 16.4567 42.2384 15.7991 42.2751 15.251C41.6514 15.2876 40.9727 15.3241 40.2389 15.3607C39.5052 15.3972 38.8448 15.4337 38.2578 15.4703V12.4561H51.7956V14.8674Z" fill="#7700EE"/>
</g>
<defs>
<clipPath id="clip0_9236_14">
<rect width="38.83" height="39.2815" fill="white" transform="translate(13 12)"/>
</clipPath>
</defs>
</svg>
