<svg width="64" height="64" viewBox="0 0 64 64" fill="none" xmlns="http://www.w3.org/2000/svg">
<rect width="64" height="64" rx="4" fill="#FAFAF9"/>
<path d="M28.1592 37.7546C29.4491 36.9517 30.9582 36.5686 32.4768 36.6583C32.6993 36.673 33.0199 36.6965 33.2293 36.7452H33.2294L33.2294 36.745C34.985 36.9567 36.7746 38.0824 37.8595 39.4554C39.0844 41.0057 39.6334 42.9801 39.3833 44.9367C39.2826 45.7207 39.0548 46.4778 38.7132 47.1804C38.7064 47.1944 38.6996 47.2084 38.6927 47.2223C38.6664 47.2756 38.6393 47.3287 38.6116 47.3815C38.2949 47.9845 37.8928 48.5441 37.414 49.0417C37.3015 49.158 36.9341 49.5301 36.8092 49.5917C36.6934 49.7071 36.4548 49.8783 36.3129 49.9758C35.5144 50.5286 34.6129 50.9166 33.6615 51.1168C33.4543 51.1591 33.2453 51.1923 33.0351 51.2161C32.9083 51.2307 32.6932 51.2462 32.5807 51.2736H31.7073C31.5691 51.2347 31.253 51.2236 31.0995 51.2013C30.8828 51.1697 30.678 51.1289 30.4647 51.0807C28.5612 50.6383 26.911 49.4638 25.875 47.8136C24.8376 46.1656 24.4999 44.1749 24.9361 42.2791C25.3644 40.4046 26.524 38.7769 28.1592 37.7546Z" fill="#7700EE"/>
<path fill-rule="evenodd" clip-rule="evenodd" d="M32.5717 12.0034C32.8412 12.0468 33.1668 12.045 33.451 12.0818C33.6095 12.1023 33.7762 12.1276 33.9481 12.1575C34.0024 12.1669 34.0573 12.1769 34.1125 12.1872C34.9628 12.3466 35.9123 12.6123 36.6129 12.955C39.331 14.1566 41.4492 16.3964 42.4906 19.1697C43.0341 20.6186 43.2664 22.1649 43.1724 23.7087C43.1679 23.7766 43.1464 24.1471 43.1252 24.281C43.1217 24.3033 43.1182 24.319 43.1148 24.3258C43.0311 25.5808 42.4184 27.3222 41.8031 28.397C41.7432 28.5014 41.5121 28.9286 41.4452 28.9895C41.2897 29.28 40.8866 29.8019 40.6745 30.0587C39.2938 31.7307 37.45 32.9622 35.3723 33.5998C33.3095 34.2358 31.1046 34.256 29.0305 33.6578C29.0308 33.6584 29.0306 33.6584 29.0295 33.6576C27.3066 33.22 25.519 32.1068 24.2662 30.8703C22.7347 29.3475 21.6831 27.4127 21.2405 25.3034C21.1662 24.9522 21.0544 24.315 21.0528 23.9639L21.0529 23.9642C21.0529 23.9641 21.0529 23.964 21.0529 23.9639C20.6056 19.7625 23.0327 15.2735 26.8088 13.3406L26.8638 13.3104C27.0293 13.2204 27.1974 13.1352 27.3679 13.0547C27.3868 13.0457 27.4058 13.0368 27.4248 13.028C28.4317 12.5599 29.5174 12.2542 30.6139 12.0999C30.9042 12.059 31.232 12.0536 31.5141 12.0197C31.5242 12.0184 31.5342 12.0172 31.5442 12.0159C31.574 12.012 31.6033 12.0079 31.632 12.0032L31.651 12H32.5515L32.5717 12.0034ZM32.101 15.9859C31.6119 15.9861 31.1187 16.0368 30.6286 16.1406C27.3587 16.8332 25.0192 19.7055 25.0142 23.0334C25.0093 26.3613 27.3403 29.2404 30.6081 29.9425C33.8759 30.6447 37.1923 28.979 38.5667 25.9454C39.3049 24.316 39.3826 22.502 38.8454 20.8588C38.8392 20.8397 38.8328 20.8206 38.8264 20.8016C38.7046 20.4394 38.5528 20.0858 38.3715 19.7446C38.362 19.7266 38.3523 19.7087 38.3426 19.6908C38.3135 19.6371 38.2837 19.5838 38.2531 19.5308C38.2429 19.5131 38.2326 19.4954 38.2223 19.4778C38.0462 19.1786 37.8466 18.89 37.6239 18.6149C37.6108 18.5987 37.5976 18.5826 37.5844 18.5666C37.5712 18.5505 37.5579 18.5346 37.5445 18.5187C37.104 17.9936 36.5963 17.5431 36.0406 17.1739C36.0179 17.1588 35.995 17.1438 35.9721 17.129C34.8928 16.4297 33.6381 16.0338 32.3452 15.99C32.3248 15.9893 32.3046 15.9887 32.2842 15.9882C32.2232 15.9866 32.1621 15.9859 32.101 15.9859Z" fill="#7700EE"/>
</svg>
