<svg width="4785" height="664" viewBox="0 0 4785 664" fill="none" xmlns="http://www.w3.org/2000/svg">
<path d="M116.963 159.419C157.988 156.698 204.131 168.14 233.16 198.624C243.156 209.105 246.035 211.906 236.039 223.707C230.721 229.988 211.768 249.911 205.77 254.071C196.933 260.272 192.095 250.751 186.457 246.31C175.221 237.349 164.905 231.388 150.67 228.188C127.879 223.067 75.4182 222.787 84.135 259.152C87.0539 271.314 106.047 278.675 116.683 282.475C170.743 301.718 240.677 309.119 245.236 382.089C252.833 504.545 96.4504 517.027 21.0382 457.139C15.9601 453.098 0.325824 439.977 0.00594157 433.976C-0.114014 431.496 1.60535 428.815 3.08481 426.895C8.92266 419.054 22.1178 407.892 29.5951 400.451C34.5532 395.531 37.792 388.01 46.8287 391.81C71.9795 419.814 117.403 432.256 153.509 422.334C182.699 414.293 185.498 385.209 159.547 370.527C112.405 343.924 29.9149 349.684 16.5598 279.555C3.08481 208.785 49.0679 163.939 116.963 159.419Z" fill="black"/>
<path d="M399.275 373.033L472.048 173.806C473.848 172.686 475.527 171.966 477.686 171.726C484.004 170.966 500.198 171.006 506.596 171.726C510.114 172.126 512.713 173.086 514.633 176.207L584.567 372.073C586.686 372.513 585.766 371.153 586.246 369.953C610.917 305.184 632.669 239.295 657.74 174.646C659.659 173.006 661.858 172.006 664.417 171.686C676.653 170.206 706.802 170.526 719.357 171.686C726.395 172.326 729.953 177.327 727.994 184.248L607.878 488.289C605.439 490.049 603 491.129 600.001 491.49C593.644 492.21 579.489 492.13 573.011 491.49C568.813 491.089 565.934 490.249 563.495 486.569L492.201 301.704L420.907 486.529C419.028 489.329 416.549 490.889 413.23 491.329C407.112 492.21 391.718 492.05 385.36 491.449C380.682 491.009 378.003 490.089 375.524 485.889C339.457 391.076 299.752 297.623 263.885 202.73C260.366 193.449 248.291 173.166 265.045 171.606C278.4 170.366 305.67 170.366 319.025 171.606C321.784 171.846 324.862 172.126 326.662 174.566L399.355 372.913L399.275 373.033Z" fill="black"/>
<path d="M892.877 159.405C1035.94 150.924 1115.55 314.226 1032.47 427.161C959.452 526.415 804.909 508.252 754.607 396.357C707.105 290.663 775.8 166.326 892.877 159.365V159.405ZM896.715 232.615C785.876 240.896 789.595 407.519 894.516 415.32C1028.59 425.281 1025.39 223.054 896.715 232.615Z" fill="black"/>
<path d="M1149.3 203.081C1158.38 191.399 1168.7 181.358 1182.13 174.797C1210.92 160.675 1261.26 159.995 1286.41 181.918C1295.53 189.879 1293.21 191.519 1288.37 201.16C1283.05 211.762 1273.98 229.644 1267.5 239.006C1259.66 250.367 1253.22 242.246 1245.23 238.526C1226.23 229.644 1198.64 232.205 1180.77 242.726C1160.78 254.488 1150.98 276.291 1149.3 298.894C1145.02 356.742 1153.54 420.19 1149.3 478.078C1148.78 485.439 1147.34 490.12 1139.15 491.04C1127.83 492.32 1098.52 492.32 1087.17 491.04C1081.29 490.4 1077.77 488.119 1077.05 481.919L1077.29 178.757C1077.93 175.117 1080.53 171.956 1084.33 171.356C1101.92 172.557 1121.91 169.596 1139.19 171.236C1143.58 171.676 1149.26 174.437 1149.26 179.478V203.081H1149.3Z" fill="black"/>
<path d="M1557.83 464.572C1505.45 500.617 1429.99 501.257 1377.17 465.772C1327.35 432.287 1300.8 375.84 1303.72 315.752C1309.4 199.296 1428.67 126.566 1535.07 173.892L1557.83 186.294V59.5568C1557.83 57.8365 1561.94 54.6361 1563.58 53.756C1570.94 49.9955 1609.89 35.4335 1617.24 34.2733C1623.76 33.2332 1627.04 35.0734 1629 41.3143L1628.6 479.014C1627.24 483.694 1623.56 485.215 1618.96 485.735C1607.73 486.975 1579.26 486.935 1568.06 485.615C1564.46 485.175 1557.87 482.774 1557.87 478.494V464.532L1557.83 464.572ZM1460.42 232.74C1349.7 240.701 1353.34 407.644 1458.22 415.445C1592.09 425.367 1589.53 223.459 1460.42 232.74Z" fill="black"/>
<path d="M3406.77 663.278C3368.9 663.278 3338.34 658.974 3315.1 650.366C3292.28 642.188 3275.71 631.428 3265.39 618.086C3255.49 605.174 3250.54 591.401 3250.54 576.768C3250.54 565.147 3253.12 554.387 3258.28 544.488C3263.88 534.588 3271.2 525.765 3280.23 518.018C3289.26 510.711 3288.41 491.957 3279.86 484.102C3278.62 482.965 3277.45 481.788 3276.36 480.573C3268.61 471.535 3264.74 460.56 3264.74 447.648C3264.74 433.875 3270.12 420.318 3280.88 406.975C3292.39 393.247 3295.81 360.198 3284.85 346.026C3283.93 344.844 3283.04 343.641 3282.17 342.415C3270.55 326.06 3264.52 306.692 3264.09 284.312C3263.66 258.488 3270.12 235.892 3283.46 216.524C3297.23 197.156 3314.67 182.092 3335.76 171.332C3357.28 160.572 3379.66 155.192 3402.9 155.192C3416.24 155.192 3430.01 157.129 3444.22 161.002C3449.93 162.388 3455.44 164.121 3460.73 166.203C3472.69 170.904 3487.25 166.232 3493.85 155.209C3496.26 151.189 3498.87 147.309 3501.67 143.571C3509.42 133.242 3518.46 125.064 3528.79 119.038C3539.55 113.013 3550.74 110 3562.36 110C3574.84 110 3584.31 113.228 3590.77 119.684C3597.22 126.14 3600.45 134.748 3600.45 145.508C3600.45 148.951 3599.37 153.255 3597.22 158.42C3595.5 163.154 3592.27 167.243 3587.54 170.686C3582.8 174.129 3576.35 175.851 3568.17 175.851C3561.28 175.851 3555.04 173.699 3549.45 169.395C3541.4 162.017 3530.4 154.135 3522.71 161.886C3520.74 163.874 3518.89 166.162 3517.17 168.749C3513.85 173.848 3511.22 179.023 3509.26 184.273C3506.8 190.886 3509.55 197.982 3514.29 203.212C3521.63 211.312 3527.54 220.484 3532.02 230.727C3538.47 244.069 3541.7 258.488 3541.7 273.982C3541.7 298.515 3535.03 320.25 3521.69 339.187C3508.78 358.125 3491.77 372.974 3470.69 383.734C3449.6 394.494 3426.78 399.874 3402.25 399.874C3394.93 399.874 3388.05 399.443 3381.59 398.582C3375.14 397.291 3368.04 396.646 3360.29 396.646C3346.52 396.646 3335.11 399.874 3326.07 406.33C3317.46 412.786 3314.24 420.533 3316.39 429.571C3318.54 439.04 3327.58 445.281 3343.5 448.294C3359.43 451.306 3382.45 453.458 3412.58 454.75C3445.72 456.041 3474.13 460.13 3497.8 467.016C3521.9 473.472 3540.41 483.586 3553.32 497.359C3566.66 511.132 3573.34 529.854 3573.34 553.526C3573.34 571.172 3568.39 586.882 3558.49 600.655C3549.02 614.427 3536.11 625.833 3519.75 634.871C3503.83 644.34 3485.96 651.442 3466.17 656.176C3446.37 660.911 3426.57 663.278 3406.77 663.278ZM3412.58 631.643C3447.44 631.643 3474.34 625.187 3493.28 612.276C3512.65 599.364 3522.33 584.73 3522.33 568.375C3522.33 554.602 3517.6 543.842 3508.13 536.095C3498.66 528.778 3485.32 523.398 3468.1 519.955C3451.32 516.942 3431.52 515.221 3408.71 514.79C3397.52 513.929 3386.11 513.284 3374.49 512.853C3365.98 512.538 3357.93 511.876 3350.34 510.868C3345.12 510.174 3339.71 511.223 3335.7 514.637C3328.85 520.468 3323.27 527.19 3318.97 534.804C3313.8 544.703 3311.01 555.032 3310.58 565.792C3310.58 585.591 3319.83 601.516 3338.34 613.567C3356.84 625.618 3381.59 631.643 3412.58 631.643ZM3404.19 369.531C3418.82 369.531 3430.87 365.872 3440.34 358.555C3450.24 350.808 3457.56 340.694 3462.29 328.212C3467.46 315.3 3470.04 301.312 3470.04 286.248C3470.04 268.602 3467.46 252.032 3462.29 236.537C3457.13 221.043 3449.6 208.561 3439.7 199.093C3429.8 189.624 3417.1 184.889 3401.61 184.889C3380.52 184.889 3364.16 193.282 3352.54 210.068C3340.92 226.853 3335.11 247.082 3335.11 270.754C3335.11 289.692 3337.69 306.692 3342.86 321.756C3348.45 336.39 3356.41 348.011 3366.74 356.619C3377.07 365.227 3389.56 369.531 3404.19 369.531Z" fill="black"/>
<path d="M3713.98 498.65C3683.85 498.65 3656.74 491.764 3632.63 477.991C3608.96 463.788 3590.24 443.99 3576.47 418.596C3562.69 392.772 3555.81 362.429 3555.81 327.567C3555.81 297.439 3562.48 269.248 3575.82 242.993C3589.59 216.739 3608.75 195.649 3633.28 179.725C3657.81 163.369 3686.22 155.192 3718.5 155.192C3736.58 155.192 3753.58 157.989 3769.5 163.585C3785.86 169.18 3800.28 178.003 3812.76 190.054C3825.67 201.675 3835.78 216.954 3843.1 235.892C3848.55 249.674 3851.97 265.724 3853.36 284.041C3854.19 294.92 3845.33 303.832 3834.42 304.022L3651.64 307.21C3640.73 307.401 3631.92 316.306 3632.5 327.2C3633.64 348.606 3636.7 368.096 3641.67 385.671C3648.56 408.482 3659.53 426.128 3674.6 438.61C3689.66 451.091 3709.25 457.332 3733.35 457.332C3744.97 457.332 3757.24 455.395 3770.15 451.522C3783.49 447.218 3795.97 441.192 3807.59 433.445C3815.32 428.475 3822.26 422.884 3828.39 416.674C3833.93 411.068 3842.97 410.073 3848.92 415.249C3854.08 419.748 3855.15 427.419 3851.01 432.879C3839.8 447.69 3827.26 459.715 3813.4 468.953C3796.62 479.713 3779.4 487.245 3761.75 491.549C3744.54 496.283 3728.61 498.65 3713.98 498.65ZM3639.74 251.079C3636.2 262.879 3645.75 273.982 3658.07 273.982H3763.7C3774.75 273.982 3783.9 264.983 3782.42 254.037C3781.26 245.484 3779.32 237.499 3776.6 230.081C3772.3 216.739 3765.41 206.194 3755.94 198.447C3746.48 190.7 3734.42 186.826 3719.79 186.826C3696.98 186.826 3678.26 194.143 3663.62 208.777C3653.1 218.986 3645.14 233.087 3639.74 251.079Z" fill="black"/>
<path d="M3870.22 488.321C3862.74 488.321 3856.67 482.251 3856.67 474.763C3856.67 467.275 3862.84 461.555 3870.12 459.803C3876.1 458.364 3880.65 455.819 3883.78 452.167C3888.95 446.142 3891.96 437.749 3892.82 426.989C3894.11 416.229 3894.76 403.747 3894.76 389.544L3895.4 255.26C3895.4 248.373 3895.4 241.056 3895.4 233.309C3896.05 221.059 3886.35 210.069 3874.1 210.713C3872.64 210.713 3871.2 210.721 3869.78 210.736C3860.22 210.838 3852.15 203.277 3852.15 193.716C3852.15 184.563 3859.57 177.188 3868.72 176.9C3880.33 176.535 3889.87 175.755 3897.34 174.56C3908.53 172.408 3916.92 170.041 3922.52 167.458C3925.45 166.2 3928.03 164.89 3930.25 163.529C3934.27 161.07 3938.72 159.065 3943.43 159.065H3948.32C3954.58 159.065 3959.96 163.778 3959.96 170.041C3960.39 173.484 3960.61 177.142 3960.61 181.016C3961.3 187.241 3968.65 190.465 3973.8 186.895C3979.86 182.693 3986.22 178.796 3992.89 175.205C4004.08 169.18 4015.7 164.445 4027.75 161.002C4040.23 157.129 4052.07 155.192 4063.26 155.192C4101.56 155.192 4129.11 166.813 4145.9 190.054C4163.11 213.296 4171.72 249.664 4171.72 299.16V408.266C4171.72 416.014 4171.5 423.976 4171.07 432.154C4171.01 433.246 4170.95 434.342 4170.88 435.443C4170.2 446.235 4178.98 455.395 4189.8 455.395C4190.58 455.349 4191.36 455.303 4192.13 455.257C4201.69 454.684 4209.81 462.248 4209.81 471.823C4209.81 480.934 4202.42 488.321 4193.31 488.321H4079.4C4071.91 488.321 4065.84 482.251 4065.84 474.763C4065.84 467.275 4072.02 461.555 4079.3 459.803C4085.27 458.364 4089.83 455.819 4092.96 452.167C4098.12 446.142 4101.13 437.749 4101.99 426.989C4103.29 416.229 4103.93 403.747 4103.93 389.544V299.16C4103.5 265.159 4097.91 239.55 4087.15 222.334C4076.82 205.118 4060.03 196.725 4036.79 197.156C4023.02 197.156 4009.46 200.599 3996.12 207.485C3985.33 213.051 3975.96 219.601 3967.98 227.134C3964.36 230.562 3962.55 235.43 3962.55 240.42C3962.55 242.489 3962.55 244.638 3962.55 246.867C3962.55 251.601 3962.55 256.551 3962.55 261.716V408.266C3962.55 416.014 3962.33 423.976 3961.9 432.154C3961.84 433.246 3961.77 434.342 3961.7 435.443C3961.03 446.235 3969.81 455.395 3980.62 455.395C3981.41 455.349 3982.18 455.303 3982.96 455.257C3992.51 454.684 4000.64 462.248 4000.64 471.823C4000.64 480.934 3993.25 488.321 3984.14 488.321H3870.22Z" fill="black"/>
<path d="M4359.06 498.65C4330.23 498.65 4303.76 492.194 4279.66 479.282C4255.55 465.94 4236.18 447.002 4221.55 422.47C4207.35 397.937 4200.25 368.239 4200.25 333.377C4200.25 310.135 4204.34 287.97 4212.51 266.88C4220.69 245.36 4232.1 226.208 4246.73 209.422C4261.79 192.637 4279.44 179.509 4299.67 170.041C4320.33 160.141 4343.14 155.192 4368.1 155.192C4393.5 155.192 4415.23 159.065 4433.31 166.813C4451.38 174.56 4465.16 184.674 4474.63 197.156C4484.53 209.637 4489.47 223.195 4489.47 237.828C4489.47 248.158 4486.46 257.196 4480.44 264.944C4474.41 272.691 4465.8 276.564 4454.61 276.564C4442.13 276.995 4433.31 273.336 4428.14 265.589C4422.98 257.412 4420.4 249.88 4420.4 242.993C4420.4 239.12 4421.04 234.816 4422.33 230.081C4422.6 228.992 4422.92 227.932 4423.29 226.9C4425.8 219.877 4428.16 211.838 4423.61 205.929C4420.63 202.052 4416.97 198.912 4412.65 196.51C4404.9 192.206 4396.94 189.409 4388.76 188.117C4380.58 186.826 4373.7 186.181 4368.1 186.181C4341.85 186.611 4319.68 198.017 4301.61 220.397C4283.96 242.348 4275.14 274.197 4275.14 315.946C4275.14 342.631 4279.01 366.518 4286.76 387.607C4294.93 408.697 4306.77 425.482 4322.26 437.964C4337.76 450.446 4356.27 456.902 4377.79 457.332C4397.15 457.332 4415.88 452.382 4433.95 442.483C4447.19 434.918 4458.58 425.968 4468.13 415.634C4473.72 409.577 4483.21 408.437 4489.42 413.867C4494.64 418.438 4495.78 426.186 4491.66 431.778C4480.84 446.502 4468.7 458.463 4455.26 467.661C4439.33 478.852 4422.98 486.814 4406.19 491.549C4389.84 496.283 4374.13 498.65 4359.06 498.65Z" fill="black"/>
<path d="M4645.33 498.65C4615.2 498.65 4588.09 491.764 4563.99 477.991C4540.31 463.788 4521.59 443.99 4507.82 418.596C4494.05 392.772 4487.16 362.429 4487.16 327.567C4487.16 297.439 4493.83 269.248 4507.17 242.993C4520.95 216.739 4540.1 195.649 4564.63 179.725C4589.16 163.369 4617.57 155.192 4649.85 155.192C4667.93 155.192 4684.93 157.989 4700.85 163.585C4717.21 169.18 4731.63 178.003 4744.11 190.054C4757.02 201.675 4767.13 216.954 4774.45 235.892C4779.9 249.674 4783.32 265.724 4784.71 284.041C4785.54 294.92 4776.68 303.832 4765.77 304.022L4582.99 307.21C4572.08 307.401 4563.27 316.306 4563.85 327.2C4564.99 348.606 4568.05 368.096 4573.02 385.671C4579.91 408.482 4590.89 426.128 4605.95 438.61C4621.01 451.091 4640.6 457.332 4664.7 457.332C4676.32 457.332 4688.59 455.395 4701.5 451.522C4714.84 447.218 4727.32 441.192 4738.94 433.445C4746.67 428.475 4753.61 422.884 4759.75 416.674C4765.29 411.068 4774.33 410.073 4780.27 415.249C4785.43 419.748 4786.5 427.419 4782.36 432.879C4771.15 447.69 4758.61 459.715 4744.75 468.953C4727.97 479.713 4710.75 487.245 4693.11 491.549C4675.89 496.283 4659.96 498.65 4645.33 498.65ZM4571.09 251.079C4567.55 262.879 4577.1 273.982 4589.42 273.982H4695.06C4706.1 273.982 4715.25 264.983 4713.77 254.037C4712.61 245.484 4710.67 237.499 4707.95 230.081C4703.65 216.739 4696.76 206.194 4687.29 198.447C4677.83 190.7 4665.78 186.826 4651.14 186.826C4628.33 186.826 4609.61 194.143 4594.97 208.777C4584.46 218.986 4576.49 233.087 4571.09 251.079Z" fill="black"/>
<path d="M1947.82 50.9333C1947.82 58.7247 1941.56 64.8473 1933.94 66.4723C1927.01 67.9499 1921.52 70.4434 1917.47 73.953C1911.02 79.1178 1906.93 86.865 1905.21 97.1946C1903.49 107.094 1902.63 120.221 1902.63 136.576V401.917C1902.63 413.538 1902.41 424.083 1901.98 433.551C1901.98 444.619 1911.58 454.302 1922.65 454.218C1923.29 454.213 1923.93 454.21 1924.58 454.21C1926.26 454.13 1927.91 454.05 1929.5 453.969C1939.42 453.471 1947.82 461.336 1947.82 471.264C1947.82 480.743 1940.13 488.427 1930.65 488.427H1803.63C1795.55 488.427 1789 481.876 1789 473.794C1789 466.056 1795.08 459.884 1802.65 458.275C1809.91 456.734 1815.47 454.303 1819.34 450.982C1825.8 445.818 1829.89 438.071 1831.61 427.741C1833.33 417.411 1834.19 404.284 1834.19 388.359V119.79C1834.19 110.322 1834.41 101.283 1834.84 92.6754C1834.85 92.4747 1834.86 92.2747 1834.87 92.0754C1835.44 80.0514 1825.51 70.0571 1813.48 70.6627C1813.07 70.6834 1812.66 70.7042 1812.24 70.725C1810.55 70.8094 1808.9 70.8938 1807.28 70.9782C1797.37 71.4938 1789 63.6291 1789 53.708C1789 44.2089 1796.7 36.5083 1806.2 36.5083H1933.39C1941.36 36.5083 1947.82 42.9666 1947.82 50.9333Z" fill="black"/>
<path d="M1967.75 488.427C1960.26 488.427 1954.19 482.357 1954.19 474.87C1954.19 467.382 1960.37 461.662 1967.65 459.909C1973.62 458.471 1978.18 455.926 1981.31 452.274C1986.47 446.248 1989.48 437.855 1990.34 427.095C1991.63 416.335 1992.28 403.854 1992.28 389.651L1992.93 255.366C1992.93 248.48 1992.93 241.163 1992.93 233.416C1993.57 221.166 1983.87 210.175 1971.62 210.82C1970.17 210.82 1968.73 210.827 1967.3 210.843C1957.74 210.945 1949.67 203.383 1949.67 193.823C1949.67 184.669 1957.1 177.295 1966.24 177.007C1977.86 176.641 1987.4 175.861 1994.86 174.666C2006.05 172.514 2014.45 170.147 2020.04 167.565C2022.98 166.306 2025.56 164.997 2027.78 163.636C2031.79 161.176 2036.24 159.172 2040.95 159.172H2045.84C2052.1 159.172 2057.49 163.885 2057.49 170.147C2057.92 173.59 2058.13 177.249 2058.13 181.122C2058.82 187.347 2066.18 190.572 2071.32 187.001C2077.38 182.799 2083.74 178.903 2090.41 175.312C2101.6 169.286 2113.22 164.552 2125.27 161.109C2137.76 157.235 2149.59 155.298 2160.78 155.298C2199.09 155.298 2226.63 166.919 2243.42 190.161C2260.63 213.402 2269.24 249.771 2269.24 299.267V408.373C2269.24 416.12 2269.03 424.083 2268.6 432.26C2268.54 433.352 2268.47 434.449 2268.4 435.55C2267.72 446.341 2276.51 455.502 2287.32 455.502C2288.1 455.455 2288.88 455.409 2289.65 455.363C2299.21 454.79 2307.33 462.354 2307.33 471.929C2307.33 481.041 2299.95 488.427 2290.83 488.427H2176.92C2169.43 488.427 2163.36 482.357 2163.36 474.87C2163.36 467.382 2169.54 461.662 2176.82 459.909C2182.8 458.471 2187.35 455.926 2190.48 452.274C2195.64 446.248 2198.66 437.855 2199.52 427.095C2200.81 416.335 2201.45 403.854 2201.45 389.651V299.267C2201.02 265.265 2195.43 239.657 2184.67 222.441C2174.34 205.225 2157.55 196.832 2134.31 197.262C2120.54 197.262 2106.98 200.705 2093.64 207.592C2082.86 213.158 2073.48 219.707 2065.51 227.241C2061.88 230.668 2060.07 235.537 2060.07 240.527C2060.07 242.596 2060.07 244.744 2060.07 246.973C2060.07 251.708 2060.07 256.657 2060.07 261.822V408.373C2060.07 416.12 2059.85 424.083 2059.42 432.26C2059.36 433.352 2059.3 434.449 2059.23 435.55C2058.55 446.341 2067.33 455.502 2078.15 455.502C2078.93 455.455 2079.71 455.409 2080.48 455.363C2090.04 454.79 2098.16 462.354 2098.16 471.929C2098.16 481.041 2090.77 488.427 2081.66 488.427H1967.75Z" fill="black"/>
<path d="M2419.26 498.757C2408.5 498.757 2397.53 497.25 2386.34 494.238C2375.58 491.655 2365.68 486.275 2356.64 478.098C2347.6 469.49 2340.5 457.223 2335.34 441.298C2330.17 425.374 2327.59 404.284 2327.59 378.03L2328.73 221.928C2328.81 210.825 2319.84 201.781 2308.73 201.781H2299.52C2289.35 201.781 2281.1 193.538 2281.1 183.37C2281.1 173.467 2289.11 165.517 2298.44 162.172C2304.44 160.017 2310.5 156.865 2316.61 152.716C2328.66 144.538 2339.21 133.563 2348.25 119.79C2354.76 109.86 2359.83 99.3691 2363.44 88.3192C2365.89 80.8028 2372.61 75.2442 2380.52 75.2442C2389.79 75.2442 2397.31 82.7627 2397.31 92.0372V145.628C2397.31 156.674 2406.27 165.628 2417.31 165.628H2479.84C2489.17 165.628 2496.73 173.192 2496.73 182.523C2496.73 191.768 2489.3 199.296 2480.06 199.416L2416.91 200.236C2406.02 200.377 2397.25 209.199 2397.17 220.084L2396.02 372.865C2396.02 389.22 2397.31 403.639 2399.9 416.12C2402.91 428.171 2407.64 437.64 2414.1 444.526C2420.98 450.982 2430.24 454.21 2441.86 454.21C2451.76 454.21 2461.87 451.198 2472.2 445.172C2479.23 441.236 2485.98 435.647 2492.46 428.405C2498.28 421.903 2508.31 420.559 2514.85 426.33C2520.36 431.19 2521.42 439.434 2516.95 445.266C2509.14 455.476 2501.32 463.837 2493.51 470.35C2483.18 478.958 2473.28 485.199 2463.81 489.073C2454.34 493.377 2445.73 495.959 2437.99 496.82C2430.24 498.111 2424 498.757 2419.26 498.757Z" fill="black"/>
<path d="M2655.22 498.757C2625.09 498.757 2597.98 491.87 2573.87 478.098C2550.2 463.894 2531.48 444.096 2517.71 418.703C2503.93 392.879 2497.05 362.535 2497.05 327.673C2497.05 297.545 2503.72 269.354 2517.06 243.1C2530.83 216.845 2549.99 195.756 2574.52 179.831C2599.05 163.476 2627.46 155.298 2659.74 155.298C2677.82 155.298 2694.82 158.096 2710.74 163.691C2727.1 169.286 2741.51 178.11 2754 190.161C2766.91 201.781 2777.02 217.061 2784.34 235.998C2789.79 249.781 2793.21 265.83 2794.6 284.148C2795.42 295.026 2786.57 303.939 2775.66 304.129L2592.88 307.317C2581.97 307.507 2573.16 316.413 2573.74 327.307C2574.88 348.713 2577.94 368.203 2582.91 385.777C2589.8 408.588 2600.77 426.235 2615.84 438.716C2630.9 451.198 2650.48 457.438 2674.59 457.438C2686.21 457.438 2698.47 455.502 2711.39 451.628C2724.73 447.324 2737.21 441.298 2748.83 433.551C2756.56 428.581 2763.5 422.991 2769.63 416.781C2775.17 411.175 2784.21 410.179 2790.16 415.356C2795.32 419.854 2796.39 427.526 2792.25 432.986C2781.04 447.797 2768.5 459.821 2754.64 469.059C2737.86 479.819 2720.64 487.351 2702.99 491.655C2685.78 496.39 2669.85 498.757 2655.22 498.757ZM2580.98 251.186C2577.43 262.985 2586.99 274.089 2599.31 274.089H2704.94C2715.99 274.089 2725.14 265.09 2723.66 254.144C2722.5 245.59 2720.56 237.605 2717.84 230.188C2713.54 216.845 2706.65 206.301 2697.18 198.553C2687.71 190.806 2675.66 186.933 2661.03 186.933C2638.22 186.933 2619.5 194.25 2604.86 208.883C2594.34 219.092 2586.38 233.193 2580.98 251.186Z" fill="black"/>
<path d="M2804.2 473.869C2804.2 466.382 2810.38 460.662 2817.66 458.909C2823.63 457.47 2828.19 454.925 2831.32 451.273C2836.48 445.248 2839.49 436.855 2840.35 426.095C2841.65 415.335 2842.29 402.853 2842.29 388.65V96.8398C2842.29 89.523 2842.29 82.2062 2842.29 74.8894C2842.32 74.4471 2842.34 74.0033 2842.37 73.5582C2843.08 61.3645 2833.18 51.0059 2820.99 51.6479C2819.53 51.6479 2818.1 51.6547 2816.7 51.6684C2807.13 51.7615 2799.04 44.1825 2799.04 34.6155C2799.04 25.4814 2806.45 18.1211 2815.57 17.8379C2827.32 17.4735 2837.09 16.6923 2844.87 15.4944C2856.49 13.3424 2865.32 10.9751 2871.34 8.39276C2874.61 7.08638 2877.43 5.72492 2879.82 4.30839C2883.77 1.95882 2888.13 0 2892.73 0C2902.31 0 2910.08 7.76662 2910.08 17.3472V407.373C2910.08 415.12 2909.86 423.082 2909.43 431.26C2909.37 432.352 2909.31 433.448 2909.24 434.549C2908.56 445.341 2917.34 454.501 2928.16 454.501C2928.94 454.455 2929.72 454.409 2930.49 454.363C2940.05 453.79 2948.17 461.354 2948.17 470.929C2948.17 480.04 2940.78 487.427 2931.67 487.427H2817.76C2810.27 487.427 2804.2 481.357 2804.2 473.869Z" fill="black"/>
<path d="M2954.61 473.869C2954.61 466.382 2960.78 460.662 2968.06 458.909C2974.04 457.47 2978.59 454.925 2981.72 451.273C2986.89 445.248 2989.9 436.855 2990.76 426.095C2992.05 415.335 2992.7 402.853 2992.7 388.65V96.8398C2992.7 89.523 2992.7 82.2062 2992.7 74.8894C2992.72 74.4471 2992.75 74.0033 2992.77 73.5582C2993.48 61.3645 2983.59 51.0059 2971.39 51.6479C2969.94 51.6479 2968.51 51.6547 2967.11 51.6684C2957.54 51.7615 2949.44 44.1825 2949.44 34.6155C2949.44 25.4814 2956.85 18.1211 2965.98 17.8379C2977.73 17.4735 2987.49 16.6923 2995.28 15.4944C3006.9 13.3424 3015.72 10.9751 3021.75 8.39276C3025.02 7.08638 3027.84 5.72492 3030.23 4.30839C3034.18 1.95882 3038.54 0 3043.14 0C3052.72 0 3060.49 7.76662 3060.49 17.3472V407.373C3060.49 415.12 3060.27 423.082 3059.84 431.26C3059.78 432.352 3059.71 433.448 3059.64 434.549C3058.97 445.341 3067.75 454.501 3078.56 454.501C3079.35 454.455 3080.12 454.409 3080.9 454.363C3090.45 453.79 3098.58 461.354 3098.58 470.929C3098.58 480.04 3091.19 487.427 3082.08 487.427H2968.16C2960.68 487.427 2954.61 481.357 2954.61 473.869Z" fill="black"/>
<path d="M3106.21 473.868C3106.21 466.381 3112.38 460.661 3119.66 458.908C3125.64 457.469 3130.19 454.924 3133.32 451.272C3138.49 445.247 3141.5 436.854 3142.36 426.094C3143.65 415.334 3144.3 402.852 3144.3 388.649V255.01C3144.3 247.694 3144.51 240.377 3144.94 233.06C3144.97 232.618 3144.99 232.174 3145.02 231.729C3145.73 219.535 3135.83 209.176 3123.64 209.818C3121.95 209.818 3120.3 209.828 3118.67 209.846C3109.11 209.953 3101.04 202.382 3101.04 192.822C3101.04 183.668 3108.47 176.292 3117.61 176.007C3129.35 175.643 3139.1 174.862 3146.88 173.665C3158.5 171.513 3167.32 169.146 3173.35 166.563C3176.61 165.257 3179.44 163.896 3181.82 162.479C3185.78 160.129 3190.14 158.171 3194.74 158.171C3204.32 158.171 3212.08 165.937 3212.08 175.518V407.372C3212.08 415.119 3211.87 423.081 3211.44 431.259C3211.38 432.351 3211.31 433.447 3211.24 434.548C3210.56 445.34 3219.35 454.5 3230.16 454.5C3230.95 454.454 3231.72 454.408 3232.49 454.362C3242.05 453.789 3250.17 461.353 3250.17 470.928C3250.17 480.039 3242.79 487.426 3233.68 487.426H3119.76C3112.28 487.426 3106.21 481.356 3106.21 473.868ZM3174.64 98.7756C3163.45 98.7756 3153.98 94.6868 3146.23 86.5092C3138.49 77.9012 3134.61 67.5717 3134.61 55.5205C3134.61 43.4693 3138.7 33.3549 3146.88 25.1774C3155.06 16.5694 3164.31 12.2654 3174.64 12.2654C3185.83 12.2654 3195.08 16.5694 3202.4 25.1774C3210.15 33.3549 3214.02 43.4693 3214.02 55.5205C3214.02 67.5717 3210.15 77.9012 3202.4 86.5092C3195.08 94.6868 3185.83 98.7756 3174.64 98.7756Z" fill="black"/>
</svg>
