<svg preserveAspectRatio="none" width="100%" height="100%" overflow="visible" style="display: block;" viewBox="0 0 846 495" fill="none" xmlns="http://www.w3.org/2000/svg">
<g id="Group 2117761395">
<path id="Vector 5568" d="M345.009 13.9228L15.0117 204.447C8.3424 208.298 8.34566 217.925 15.0175 221.771L477.005 488.085C484.428 492.365 493.57 492.361 500.991 488.077L830.988 297.553C837.658 293.702 837.654 284.075 830.982 280.229L368.995 13.9148C361.572 9.63545 352.43 9.6385 345.009 13.9228Z" fill="var(--fill-0, #EEE8FF)" stroke="var(--stroke-0, #7700EE)"/>
<path id="Rectangle 34628416" d="M10 206V214M836 281.5V289.5" stroke="var(--stroke-0, #85889C)"/>
<path id="Vector 5569" d="M345.009 6.92281L15.0117 197.447C8.3424 201.298 8.34566 210.925 15.0175 214.771L477.005 481.085C484.428 485.365 493.57 485.361 500.991 481.077L830.988 290.553C837.658 286.702 837.654 277.075 830.982 273.229L368.995 6.91476C361.572 2.63545 352.43 2.6385 345.009 6.92281Z" fill="var(--fill-0, #F9F9F9)" stroke="var(--stroke-0, #7700EE)"/>
<g id="Group 2117761363">
<path id="Vector 5547" d="M425.609 41L74.003 244" stroke="var(--stroke-0, #DCDDE4)" stroke-linecap="round" stroke-dasharray="3 8"/>
<path id="Vector 5562" d="M390.609 21L39.003 224" stroke="var(--stroke-0, #7700EE)" stroke-linecap="round" stroke-dasharray="3 8"/>
<path id="Vector 5563" d="M459.609 61L108.003 264" stroke="var(--stroke-0, #7700EE)" stroke-linecap="round" stroke-dasharray="3 8"/>
<path id="Vector 5564" d="M529.609 101L178.003 304" stroke="var(--stroke-0, #7700EE)" stroke-linecap="round" stroke-dasharray="3 8"/>
<path id="Vector 5565" d="M599.609 141L248.003 344" stroke="var(--stroke-0, #7700EE)" stroke-linecap="round" stroke-dasharray="3 8"/>
<path id="Vector 5566" d="M668.609 181L317.003 384" stroke="var(--stroke-0, #7700EE)" stroke-linecap="round" stroke-dasharray="3 8"/>
<path id="Vector 5567" d="M739.609 221L388.003 424" stroke="var(--stroke-0, #7700EE)" stroke-linecap="round" stroke-dasharray="3 8"/>
<path id="Vector 5568_2" d="M807.609 261L456.003 464" stroke="var(--stroke-0, #7700EE)" stroke-linecap="round" stroke-dasharray="3 8"/>
<path id="Vector 5548" d="M495.937 80L142.599 284" stroke="var(--stroke-0, #DCDDE4)" stroke-linecap="round" stroke-dasharray="3 8"/>
<path id="Vector 5549" d="M566 120.055L213.599 323" stroke="var(--stroke-0, #DCDDE4)" stroke-linecap="round" stroke-dasharray="3 8"/>
<path id="Vector 5550" d="M636.938 160L283.599 364" stroke="var(--stroke-0, #DCDDE4)" stroke-linecap="round" stroke-dasharray="3 8"/>
<path id="Vector 5551" d="M705.938 199L352.599 403" stroke="var(--stroke-0, #DCDDE4)" stroke-linecap="round" stroke-dasharray="3 8"/>
<path id="Vector 5552" d="M774.938 241L421.599 445" stroke="var(--stroke-0, #DCDDE4)" stroke-linecap="round" stroke-dasharray="3 8"/>
<path id="Vector 5553" d="M75.2734 164L560.248 444" stroke="var(--stroke-0, #DCDDE4)" stroke-linecap="round" stroke-dasharray="3 8"/>
<path id="Vector 5557" d="M41 183L525.974 463" stroke="var(--stroke-0, #7700EE)" stroke-linecap="round" stroke-dasharray="3 8"/>
<path id="Vector 5558" d="M109 143L593.974 423" stroke="var(--stroke-0, #7700EE)" stroke-linecap="round" stroke-dasharray="3 8"/>
<path id="Vector 5559" d="M177 103L661.974 383" stroke="var(--stroke-0, #7700EE)" stroke-linecap="round" stroke-dasharray="3 8"/>
<path id="Vector 5560" d="M248 63L732.974 343" stroke="var(--stroke-0, #7700EE)" stroke-linecap="round" stroke-dasharray="3 8"/>
<path id="Vector 5561" d="M317 23L801.974 303" stroke="var(--stroke-0, #7700EE)" stroke-linecap="round" stroke-dasharray="3 8"/>
<path id="Vector 5554" d="M144.273 122L628.382 401.5" stroke="var(--stroke-0, #DCDDE4)" stroke-linecap="round" stroke-dasharray="3 8"/>
<path id="Vector 5555" d="M214.273 83L698.382 362.5" stroke="var(--stroke-0, #DCDDE4)" stroke-linecap="round" stroke-dasharray="3 8"/>
<path id="Vector 5556" d="M283.273 44L766.516 323" stroke="var(--stroke-0, #DCDDE4)" stroke-linecap="round" stroke-dasharray="3 8"/>
</g>
<circle id="Ellipse 2924" cx="527" cy="223" r="4" fill="var(--fill-0, black)"/>
</g>
</svg>
