<svg preserveAspectRatio="none" width="100%" height="100%" overflow="visible" style="display: block;" viewBox="0 0 24 24" fill="none" xmlns="http://www.w3.org/2000/svg">
<g id="text-font">
<path id="Vector" d="M14 19L11.1069 10.7479C9.76348 6.91597 9.09177 5 8 5C6.90823 5 6.23652 6.91597 4.89309 10.7479L2 19M4.5 12H11.5" stroke="var(--stroke-0, black)" stroke-width="1.5" stroke-linecap="round" stroke-linejoin="round"/>
<path id="Vector_2" d="M21.9712 13.9421V18.4421M21.9712 13.9421C22.0184 13.119 22.0202 12.492 21.9214 11.9802C21.6884 10.7738 20.4278 10.0468 19.208 9.89892C18.0405 9.7574 17.1035 10.0579 16.1555 11.4392M21.9712 13.9421H19.1276C18.6907 13.9421 18.2501 13.9632 17.8292 14.0802C15.2565 14.7954 15.4451 18.4032 18.0253 18.8479C18.3119 18.8973 18.6045 18.9185 18.8947 18.9055C19.5723 18.8753 20.1975 18.5479 20.7341 18.133C21.3625 17.6469 21.9712 16.9684 21.9712 15.9421V13.9421Z" stroke="var(--stroke-0, black)" stroke-width="1.5" stroke-linecap="round" stroke-linejoin="round"/>
</g>
</svg>
