<svg width="828" height="810" viewBox="0 0 828 810" fill="none" xmlns="http://www.w3.org/2000/svg">
<g opacity="0.35">
<path d="M335.734 314.686L5.73627 505.211C-0.93299 509.061 -0.929732 518.689 5.74211 522.535L467.729 788.849C475.153 793.128 484.295 793.125 491.715 788.841L821.713 598.317C828.382 594.466 828.379 584.839 821.707 580.993L359.72 314.678C352.296 310.399 343.155 310.402 335.734 314.686Z" fill="#8C4AFF" stroke="#4D0099"/>
<path d="M0.724609 506.764V514.764M826.725 582.264V590.264" stroke="#4D0099"/>
<path d="M335.734 307.686L5.73627 498.211C-0.93299 502.061 -0.929732 511.689 5.74211 515.535L467.729 781.849C475.153 786.128 484.295 786.125 491.715 781.841L821.713 591.317C828.382 587.466 828.379 577.839 821.707 573.993L359.72 307.678C352.296 303.399 343.155 303.402 335.734 307.686Z" fill="#A684FF" stroke="#4D0099"/>
<path d="M416.334 341.764L64.7277 544.764" stroke="#F9F9F9" stroke-linecap="round" stroke-dasharray="3 8"/>
<path d="M381.334 321.764L29.7277 524.764" stroke="white" stroke-opacity="0.25" stroke-linecap="round" stroke-dasharray="3 8"/>
<path d="M450.334 361.764L98.7277 564.764" stroke="white" stroke-opacity="0.25" stroke-linecap="round" stroke-dasharray="3 8"/>
<path d="M520.334 401.764L168.728 604.764" stroke="white" stroke-opacity="0.25" stroke-linecap="round" stroke-dasharray="3 8"/>
<path d="M590.334 441.764L238.728 644.764" stroke="white" stroke-opacity="0.25" stroke-linecap="round" stroke-dasharray="3 8"/>
<path d="M659.334 481.764L307.728 684.764" stroke="white" stroke-opacity="0.25" stroke-linecap="round" stroke-dasharray="3 8"/>
<path d="M730.334 521.764L378.728 724.764" stroke="white" stroke-opacity="0.25" stroke-linecap="round" stroke-dasharray="3 8"/>
<path d="M798.334 561.764L446.728 764.764" stroke="white" stroke-opacity="0.25" stroke-linecap="round" stroke-dasharray="3 8"/>
<path d="M486.662 380.764L133.324 584.764" stroke="#F9F9F9" stroke-linecap="round" stroke-dasharray="3 8"/>
<path d="M557.662 419.764L204.324 623.764" stroke="#F9F9F9" stroke-linecap="round" stroke-dasharray="3 8"/>
<path d="M627.662 460.764L274.324 664.764" stroke="#F9F9F9" stroke-linecap="round" stroke-dasharray="3 8"/>
<path d="M696.662 499.764L343.324 703.764" stroke="#F9F9F9" stroke-linecap="round" stroke-dasharray="3 8"/>
<path d="M765.662 541.764L412.324 745.764" stroke="#F9F9F9" stroke-linecap="round" stroke-dasharray="3 8"/>
<path d="M65.998 464.764L550.972 744.764" stroke="#F9F9F9" stroke-linecap="round" stroke-dasharray="3 8"/>
<path d="M31.7246 483.764L516.699 763.764" stroke="white" stroke-opacity="0.25" stroke-linecap="round" stroke-dasharray="3 8"/>
<path d="M99.7246 443.764L584.699 723.764" stroke="white" stroke-opacity="0.25" stroke-linecap="round" stroke-dasharray="3 8"/>
<path d="M167.725 403.764L652.699 683.764" stroke="white" stroke-opacity="0.25" stroke-linecap="round" stroke-dasharray="3 8"/>
<path d="M238.725 363.764L723.699 643.764" stroke="white" stroke-opacity="0.25" stroke-linecap="round" stroke-dasharray="3 8"/>
<path d="M307.725 323.764L792.699 603.764" stroke="white" stroke-opacity="0.25" stroke-linecap="round" stroke-dasharray="3 8"/>
<path d="M134.998 422.764L619.106 702.264" stroke="#F9F9F9" stroke-linecap="round" stroke-dasharray="3 8"/>
<path d="M204.998 383.764L689.106 663.264" stroke="#F9F9F9" stroke-linecap="round" stroke-dasharray="3 8"/>
<path d="M273.998 344.764L757.24 623.764" stroke="#F9F9F9" stroke-linecap="round" stroke-dasharray="3 8"/>
<path d="M335.734 289.686L5.73627 480.211C-0.93299 484.061 -0.929732 493.689 5.74211 497.535L467.729 763.849C475.153 768.128 484.295 768.125 491.715 763.841L821.713 573.317C828.382 569.466 828.379 559.839 821.707 555.993L359.72 289.678C352.296 285.399 343.155 285.402 335.734 289.686Z" fill="#EEE8FF" stroke="#7700EE"/>
<path d="M0.724609 481.764V489.764M826.725 557.264V565.264" stroke="#7700EE"/>
<path d="M335.734 282.686L5.73627 473.211C-0.93299 477.061 -0.929732 486.689 5.74211 490.535L467.729 756.849C475.153 761.128 484.295 761.125 491.715 756.841L821.713 566.317C828.382 562.466 828.379 552.839 821.707 548.993L359.72 282.678C352.296 278.399 343.155 278.402 335.734 282.686Z" fill="#F9F9F9" stroke="#7700EE"/>
<path d="M416.35 316.764L64.7433 519.764" stroke="#DCDDE4" stroke-linecap="round" stroke-dasharray="3 8"/>
<path d="M381.35 296.764L29.7433 499.764" stroke="#7700EE" stroke-linecap="round" stroke-dasharray="3 8"/>
<path d="M450.35 336.764L98.7433 539.764" stroke="#7700EE" stroke-linecap="round" stroke-dasharray="3 8"/>
<path d="M520.35 376.764L168.743 579.764" stroke="#7700EE" stroke-linecap="round" stroke-dasharray="3 8"/>
<path d="M590.35 416.764L238.743 619.764" stroke="#7700EE" stroke-linecap="round" stroke-dasharray="3 8"/>
<path d="M659.35 456.764L307.743 659.764" stroke="#7700EE" stroke-linecap="round" stroke-dasharray="3 8"/>
<path d="M730.35 496.764L378.743 699.764" stroke="#7700EE" stroke-linecap="round" stroke-dasharray="3 8"/>
<path d="M798.35 536.764L446.743 739.764" stroke="#7700EE" stroke-linecap="round" stroke-dasharray="3 8"/>
<path d="M486.678 355.764L133.339 559.764" stroke="#DCDDE4" stroke-linecap="round" stroke-dasharray="3 8"/>
<path d="M557.678 394.764L204.339 598.764" stroke="#DCDDE4" stroke-linecap="round" stroke-dasharray="3 8"/>
<path d="M627.678 435.764L274.339 639.764" stroke="#DCDDE4" stroke-linecap="round" stroke-dasharray="3 8"/>
<path d="M696.678 474.764L343.339 678.764" stroke="#DCDDE4" stroke-linecap="round" stroke-dasharray="3 8"/>
<path d="M765.678 516.764L412.339 720.764" stroke="#DCDDE4" stroke-linecap="round" stroke-dasharray="3 8"/>
<path d="M66.0137 439.764L550.988 719.764" stroke="#DCDDE4" stroke-linecap="round" stroke-dasharray="3 8"/>
<path d="M31.7402 458.764L516.714 738.764" stroke="#7700EE" stroke-linecap="round" stroke-dasharray="3 8"/>
<path d="M99.7402 418.764L584.714 698.764" stroke="#7700EE" stroke-linecap="round" stroke-dasharray="3 8"/>
<path d="M167.74 378.764L652.714 658.764" stroke="#7700EE" stroke-linecap="round" stroke-dasharray="3 8"/>
<path d="M238.74 338.764L723.714 618.764" stroke="#7700EE" stroke-linecap="round" stroke-dasharray="3 8"/>
<path d="M307.74 298.764L792.714 578.764" stroke="#7700EE" stroke-linecap="round" stroke-dasharray="3 8"/>
<path d="M135.014 397.764L619.122 677.264" stroke="#DCDDE4" stroke-linecap="round" stroke-dasharray="3 8"/>
<path d="M205.014 358.764L689.122 638.264" stroke="#DCDDE4" stroke-linecap="round" stroke-dasharray="3 8"/>
<path d="M274.014 319.764L757.256 598.764" stroke="#DCDDE4" stroke-linecap="round" stroke-dasharray="3 8"/>
</g>
<path d="M335.509 264.923L5.51166 455.447C-1.1576 459.298 -1.15434 468.925 5.5175 472.771L467.505 739.085C474.928 743.365 484.07 743.361 491.491 739.077L821.488 548.553C828.158 544.702 828.154 535.075 821.482 531.229L359.495 264.915C352.072 260.635 342.93 260.639 335.509 264.923Z" fill="#EEE8FF" stroke="#7700EE"/>
<path d="M0.5 457V465M826.5 532.5V540.5" stroke="#7700EE"/>
<path d="M335.509 257.923L5.51166 448.447C-1.1576 452.298 -1.15434 461.925 5.5175 465.771L467.505 732.085C474.928 736.365 484.07 736.361 491.491 732.077L821.488 541.553C828.158 537.702 828.154 528.075 821.482 524.229L359.495 257.915C352.072 253.635 342.93 253.639 335.509 257.923Z" fill="#F9F9F9" stroke="#7700EE"/>
<path d="M416.109 292L64.5031 495" stroke="#DCDDE4" stroke-linecap="round" stroke-dasharray="3 8"/>
<path d="M381.109 272L29.5031 475" stroke="#7700EE" stroke-linecap="round" stroke-dasharray="3 8"/>
<path d="M450.109 312L98.5031 515" stroke="#7700EE" stroke-linecap="round" stroke-dasharray="3 8"/>
<path d="M520.109 352L168.503 555" stroke="#7700EE" stroke-linecap="round" stroke-dasharray="3 8"/>
<path d="M590.109 392L238.503 595" stroke="#7700EE" stroke-linecap="round" stroke-dasharray="3 8"/>
<path d="M659.109 432L307.503 635" stroke="#7700EE" stroke-linecap="round" stroke-dasharray="3 8"/>
<path d="M730.109 472L378.503 675" stroke="#7700EE" stroke-linecap="round" stroke-dasharray="3 8"/>
<path d="M798.109 512L446.503 715" stroke="#7700EE" stroke-linecap="round" stroke-dasharray="3 8"/>
<path d="M485.438 332L132.099 536" stroke="#DCDDE4" stroke-linecap="round" stroke-dasharray="3 8"/>
<path d="M554.438 372L201.099 576" stroke="#DCDDE4" stroke-linecap="round" stroke-dasharray="3 8"/>
<path d="M625.438 413L272.099 617" stroke="#DCDDE4" stroke-linecap="round" stroke-dasharray="3 8"/>
<path d="M694.438 452L341.099 656" stroke="#DCDDE4" stroke-linecap="round" stroke-dasharray="3 8"/>
<path d="M765.438 492L412.099 696" stroke="#DCDDE4" stroke-linecap="round" stroke-dasharray="3 8"/>
<path d="M65.7734 415L550.748 695" stroke="#DCDDE4" stroke-linecap="round" stroke-dasharray="3 8"/>
<path d="M31.5 434L516.474 714" stroke="#7700EE" stroke-linecap="round" stroke-dasharray="3 8"/>
<path d="M100.5 395L585.474 675" stroke="#7700EE" stroke-linecap="round" stroke-dasharray="3 8"/>
<path d="M167.5 354L652.474 634" stroke="#7700EE" stroke-linecap="round" stroke-dasharray="3 8"/>
<path d="M238.5 314L723.474 594" stroke="#7700EE" stroke-linecap="round" stroke-dasharray="3 8"/>
<path d="M307.5 274L792.474 554" stroke="#7700EE" stroke-linecap="round" stroke-dasharray="3 8"/>
<path d="M134.773 373L618.882 652.5" stroke="#DCDDE4" stroke-linecap="round" stroke-dasharray="3 8"/>
<path d="M204.773 334L688.882 613.5" stroke="#DCDDE4" stroke-linecap="round" stroke-dasharray="3 8"/>
<path d="M273.773 295L757.016 574" stroke="#DCDDE4" stroke-linecap="round" stroke-dasharray="3 8"/>
<path d="M725.225 515.158L794.831 555.345C796.069 556.059 796.831 557.38 796.831 558.809V574.071C796.831 577.151 793.498 579.075 790.831 577.535L782.226 572.567" stroke="black" stroke-linecap="round"/>
<path d="M382.999 271L308.225 314.171" stroke="black" stroke-linecap="round"/>
<path d="M134.499 454.662L63.7246 413.8" stroke="black" stroke-linecap="round"/>
<rect x="644.725" y="397" width="159" height="33" rx="16.5" fill="#7700EE"/>
<path d="M663.917 418V409.684H660.907V408.2H668.551V409.684H665.541V418H663.917ZM669.898 418V408.2H675.932V409.684H671.522V412.288H675.414V413.744H671.522V416.516H675.974V418H669.898ZM677.134 418L680.662 413.002L677.176 408.2H679.122L681.572 411.7L684.022 408.2H685.954L682.482 413.002L685.996 418H684.036L681.572 414.332L679.094 418H677.134ZM689.333 418V409.684H686.323V408.2H693.967V409.684H690.957V418H689.333ZM703.185 418.168C702.196 418.168 701.314 417.953 700.539 417.524C699.774 417.085 699.172 416.488 698.733 415.732C698.295 414.967 698.075 414.094 698.075 413.114C698.075 412.115 698.295 411.238 698.733 410.482C699.172 409.717 699.774 409.119 700.539 408.69C701.314 408.251 702.196 408.032 703.185 408.032C703.755 408.032 704.287 408.121 704.781 408.298C705.285 408.475 705.738 408.718 706.139 409.026C706.541 409.325 706.867 409.675 707.119 410.076L705.803 410.916C705.626 410.645 705.397 410.403 705.117 410.188C704.837 409.973 704.529 409.81 704.193 409.698C703.867 409.577 703.531 409.516 703.185 409.516C702.513 409.516 701.916 409.67 701.393 409.978C700.88 410.286 700.474 410.711 700.175 411.252C699.877 411.784 699.727 412.405 699.727 413.114C699.727 413.805 699.872 414.421 700.161 414.962C700.46 415.503 700.871 415.928 701.393 416.236C701.925 416.544 702.537 416.698 703.227 416.698C703.759 416.698 704.235 416.591 704.655 416.376C705.075 416.161 705.407 415.863 705.649 415.48C705.901 415.097 706.037 414.659 706.055 414.164H703.717V412.848H707.623V413.94C707.605 414.808 707.404 415.559 707.021 416.194C706.648 416.829 706.13 417.319 705.467 417.664C704.805 418 704.044 418.168 703.185 418.168ZM709.191 418V408.2H715.225V409.684H710.815V412.288H714.707V413.744H710.815V416.516H715.267V418H709.191ZM717.449 418V408.2H719.129L724.337 415.284V408.2H725.961V418H724.337L719.073 410.832V418H717.449ZM728.291 418V408.2H734.325V409.684H729.915V412.288H733.807V413.744H729.915V416.516H734.367V418H728.291ZM736.549 418V408.2H740.007C740.679 408.2 741.271 408.331 741.785 408.592C742.298 408.853 742.699 409.217 742.989 409.684C743.278 410.141 743.423 410.673 743.423 411.28C743.423 411.924 743.245 412.493 742.891 412.988C742.536 413.473 742.069 413.833 741.491 414.066L743.815 418H741.981L739.881 414.374C739.825 414.383 739.764 414.388 739.699 414.388C739.643 414.388 739.582 414.388 739.517 414.388H738.173V418H736.549ZM738.173 412.89H740.077C740.394 412.89 740.674 412.82 740.917 412.68C741.169 412.54 741.369 412.349 741.519 412.106C741.677 411.863 741.757 411.588 741.757 411.28C741.757 410.813 741.589 410.431 741.253 410.132C740.917 409.833 740.483 409.684 739.951 409.684H738.173V412.89ZM744.481 418L748.387 408.2H750.109L754.029 418H752.307L751.341 415.592H747.155L746.203 418H744.481ZM747.701 414.15H750.795L749.255 410.23L747.701 414.15ZM756.858 418V409.684H753.848V408.2H761.492V409.684H758.482V418H756.858ZM762.84 418V408.2H764.464V418H762.84ZM771.145 418.168C770.174 418.168 769.316 417.953 768.569 417.524C767.822 417.095 767.234 416.497 766.805 415.732C766.385 414.967 766.175 414.089 766.175 413.1C766.175 412.111 766.385 411.238 766.805 410.482C767.234 409.717 767.818 409.119 768.555 408.69C769.292 408.251 770.142 408.032 771.103 408.032C772.074 408.032 772.928 408.251 773.665 408.69C774.412 409.119 774.99 409.717 775.401 410.482C775.821 411.238 776.031 412.111 776.031 413.1C776.031 414.089 775.821 414.967 775.401 415.732C774.99 416.497 774.416 417.095 773.679 417.524C772.951 417.953 772.106 418.168 771.145 418.168ZM771.145 416.684C771.78 416.684 772.34 416.53 772.825 416.222C773.31 415.914 773.688 415.494 773.959 414.962C774.239 414.421 774.379 413.8 774.379 413.1C774.379 412.409 774.239 411.793 773.959 411.252C773.679 410.711 773.292 410.291 772.797 409.992C772.312 409.684 771.747 409.53 771.103 409.53C770.468 409.53 769.904 409.684 769.409 409.992C768.924 410.291 768.536 410.711 768.247 411.252C767.967 411.784 767.827 412.4 767.827 413.1C767.827 413.8 767.967 414.421 768.247 414.962C768.536 415.494 768.928 415.914 769.423 416.222C769.927 416.53 770.501 416.684 771.145 416.684ZM777.756 418V408.2H779.436L784.644 415.284V408.2H786.268V418H784.644L779.38 410.832V418H777.756Z" fill="#F9F9F9"/>
<foreignObject x="687.225" y="422" width="74" height="74"><div xmlns="http://www.w3.org/1999/xhtml" style="backdrop-filter:blur(4px);clip-path:url(#bgblur_0_8653_27510_clip_path);height:100%;width:100%"></div></foreignObject><g data-figma-bg-blur-radius="8">
<rect x="695.225" y="430" width="58" height="58" rx="16" fill="#4D4F60" fill-opacity="0.05"/>
<path d="M723.225 467C719.475 467 717.6 467 716.286 466.045C715.861 465.737 715.488 465.363 715.18 464.939C714.225 463.625 714.225 461.75 714.225 458C714.225 454.25 714.225 452.375 715.18 451.061C715.488 450.637 715.861 450.263 716.286 449.955C717.6 449 719.475 449 723.225 449H723.725C726.998 449 728.635 449 729.837 449.737C730.51 450.149 731.076 450.715 731.488 451.388C732.225 452.59 732.225 454.227 732.225 457.5" stroke="#1F1F1F" stroke-width="1.5" stroke-linecap="round" stroke-linejoin="round"/>
<path d="M729.631 461.404C729.844 460.865 730.605 460.865 730.818 461.404L730.854 461.497C731.373 462.811 732.413 463.852 733.728 464.37L733.821 464.407C734.359 464.619 734.359 465.381 733.821 465.593L733.728 465.63C732.413 466.148 731.373 467.189 730.854 468.503L730.818 468.596C730.605 469.134 729.844 469.134 729.631 468.596L729.595 468.503C729.076 467.189 728.036 466.148 726.721 465.63L726.628 465.593C726.09 465.381 726.09 464.619 726.628 464.407L726.721 464.37C728.036 463.852 729.076 462.811 729.595 461.497L729.631 461.404Z" stroke="#1F1F1F" stroke-width="1.5" stroke-linecap="round" stroke-linejoin="round"/>
<path d="M723.225 454H719.225V455M723.225 454H727.225V455M723.225 454V462M723.225 462H722.225M723.225 462H724.225" stroke="#1F1F1F" stroke-width="1.5" stroke-linecap="round" stroke-linejoin="round"/>
</g>
<path d="M724.225 512.333C722.752 512.333 721.558 513.527 721.558 515C721.558 516.473 722.752 517.667 724.225 517.667C725.697 517.667 726.891 516.473 726.891 515C726.891 513.527 725.697 512.333 724.225 512.333ZM724.225 488L723.725 488L723.725 515L724.225 515L724.725 515L724.725 488L724.225 488Z" fill="black"/>
<path d="M411.225 495.437C426.884 486.396 591.509 391.35 591.509 391.35" stroke="black"/>
<rect x="346.725" y="377" width="130" height="33" rx="16.5" fill="#7700EE"/>
<path d="M363.887 398V388.2H367.345C368.017 388.2 368.609 388.331 369.123 388.592C369.636 388.853 370.037 389.217 370.327 389.684C370.616 390.141 370.761 390.673 370.761 391.28C370.761 391.924 370.583 392.493 370.229 392.988C369.874 393.473 369.407 393.833 368.829 394.066L371.153 398H369.319L367.219 394.374C367.163 394.383 367.102 394.388 367.037 394.388C366.981 394.388 366.92 394.388 366.855 394.388H365.511V398H363.887ZM365.511 392.89H367.415C367.732 392.89 368.012 392.82 368.255 392.68C368.507 392.54 368.707 392.349 368.857 392.106C369.015 391.863 369.095 391.588 369.095 391.28C369.095 390.813 368.927 390.431 368.591 390.132C368.255 389.833 367.821 389.684 367.289 389.684H365.511V392.89ZM372.801 398V388.2H374.425V398H372.801ZM379.972 398.168C379.459 398.168 378.987 398.107 378.558 397.986C378.138 397.865 377.765 397.697 377.438 397.482C377.121 397.267 376.855 397.029 376.64 396.768C376.435 396.497 376.29 396.217 376.206 395.928L377.802 395.438C377.923 395.783 378.161 396.087 378.516 396.348C378.871 396.609 379.309 396.745 379.832 396.754C380.439 396.754 380.919 396.628 381.274 396.376C381.629 396.124 381.806 395.793 381.806 395.382C381.806 395.009 381.657 394.705 381.358 394.472C381.059 394.229 380.658 394.043 380.154 393.912L378.95 393.604C378.493 393.483 378.077 393.305 377.704 393.072C377.34 392.839 377.051 392.545 376.836 392.19C376.631 391.835 376.528 391.415 376.528 390.93C376.528 390.015 376.827 389.306 377.424 388.802C378.021 388.289 378.875 388.032 379.986 388.032C380.611 388.032 381.157 388.13 381.624 388.326C382.1 388.513 382.492 388.774 382.8 389.11C383.108 389.437 383.337 389.81 383.486 390.23L381.918 390.734C381.778 390.361 381.535 390.053 381.19 389.81C380.845 389.567 380.415 389.446 379.902 389.446C379.37 389.446 378.95 389.572 378.642 389.824C378.343 390.076 378.194 390.426 378.194 390.874C378.194 391.238 378.311 391.523 378.544 391.728C378.787 391.924 379.113 392.073 379.524 392.176L380.728 392.47C381.605 392.685 382.287 393.053 382.772 393.576C383.257 394.099 383.5 394.677 383.5 395.312C383.5 395.872 383.365 396.367 383.094 396.796C382.823 397.225 382.422 397.561 381.89 397.804C381.367 398.047 380.728 398.168 379.972 398.168ZM385.297 398V388.2H386.893V392.33L390.799 388.2H392.885L388.713 392.61L393.053 398H391.051L387.649 393.744L386.893 394.556V398H385.297ZM400.903 398.168C400.39 398.168 399.919 398.107 399.489 397.986C399.069 397.865 398.696 397.697 398.369 397.482C398.052 397.267 397.786 397.029 397.571 396.768C397.366 396.497 397.221 396.217 397.137 395.928L398.733 395.438C398.855 395.783 399.093 396.087 399.447 396.348C399.802 396.609 400.241 396.745 400.763 396.754C401.37 396.754 401.851 396.628 402.205 396.376C402.56 396.124 402.737 395.793 402.737 395.382C402.737 395.009 402.588 394.705 402.289 394.472C401.991 394.229 401.589 394.043 401.085 393.912L399.881 393.604C399.424 393.483 399.009 393.305 398.635 393.072C398.271 392.839 397.982 392.545 397.767 392.19C397.562 391.835 397.459 391.415 397.459 390.93C397.459 390.015 397.758 389.306 398.355 388.802C398.953 388.289 399.807 388.032 400.917 388.032C401.543 388.032 402.089 388.13 402.555 388.326C403.031 388.513 403.423 388.774 403.731 389.11C404.039 389.437 404.268 389.81 404.417 390.23L402.849 390.734C402.709 390.361 402.467 390.053 402.121 389.81C401.776 389.567 401.347 389.446 400.833 389.446C400.301 389.446 399.881 389.572 399.573 389.824C399.275 390.076 399.125 390.426 399.125 390.874C399.125 391.238 399.242 391.523 399.475 391.728C399.718 391.924 400.045 392.073 400.455 392.176L401.659 392.47C402.537 392.685 403.218 393.053 403.703 393.576C404.189 394.099 404.431 394.677 404.431 395.312C404.431 395.872 404.296 396.367 404.025 396.796C403.755 397.225 403.353 397.561 402.821 397.804C402.299 398.047 401.659 398.168 400.903 398.168ZM410.47 398.168C409.528 398.168 408.688 397.953 407.95 397.524C407.222 397.085 406.648 396.488 406.228 395.732C405.818 394.967 405.612 394.089 405.612 393.1C405.612 392.111 405.818 391.238 406.228 390.482C406.648 389.717 407.222 389.119 407.95 388.69C408.678 388.251 409.514 388.032 410.456 388.032C411.091 388.032 411.688 388.149 412.248 388.382C412.808 388.606 413.303 388.919 413.732 389.32C414.171 389.721 414.507 390.188 414.74 390.72L413.256 391.322C413.088 390.967 412.86 390.655 412.57 390.384C412.29 390.104 411.968 389.889 411.604 389.74C411.24 389.591 410.858 389.516 410.456 389.516C409.84 389.516 409.29 389.67 408.804 389.978C408.328 390.286 407.95 390.711 407.67 391.252C407.4 391.784 407.264 392.4 407.264 393.1C407.264 393.8 407.4 394.421 407.67 394.962C407.95 395.503 408.333 395.928 408.818 396.236C409.313 396.544 409.873 396.698 410.498 396.698C410.909 396.698 411.292 396.619 411.646 396.46C412.01 396.292 412.332 396.063 412.612 395.774C412.902 395.485 413.13 395.149 413.298 394.766L414.782 395.368C414.549 395.919 414.218 396.409 413.788 396.838C413.359 397.258 412.86 397.585 412.29 397.818C411.721 398.051 411.114 398.168 410.47 398.168ZM420.7 398.168C419.729 398.168 418.87 397.953 418.124 397.524C417.377 397.095 416.789 396.497 416.36 395.732C415.94 394.967 415.73 394.089 415.73 393.1C415.73 392.111 415.94 391.238 416.36 390.482C416.789 389.717 417.372 389.119 418.11 388.69C418.847 388.251 419.696 388.032 420.658 388.032C421.628 388.032 422.482 388.251 423.22 388.69C423.966 389.119 424.545 389.717 424.956 390.482C425.376 391.238 425.586 392.111 425.586 393.1C425.586 394.089 425.376 394.967 424.956 395.732C424.545 396.497 423.971 397.095 423.234 397.524C422.506 397.953 421.661 398.168 420.7 398.168ZM420.7 396.684C421.334 396.684 421.894 396.53 422.38 396.222C422.865 395.914 423.243 395.494 423.514 394.962C423.794 394.421 423.934 393.8 423.934 393.1C423.934 392.409 423.794 391.793 423.514 391.252C423.234 390.711 422.846 390.291 422.352 389.992C421.866 389.684 421.302 389.53 420.658 389.53C420.023 389.53 419.458 389.684 418.964 389.992C418.478 390.291 418.091 390.711 417.802 391.252C417.522 391.784 417.382 392.4 417.382 393.1C417.382 393.8 417.522 394.421 417.802 394.962C418.091 395.494 418.483 395.914 418.978 396.222C419.482 396.53 420.056 396.684 420.7 396.684ZM427.31 398V388.2H430.768C431.44 388.2 432.033 388.331 432.546 388.592C433.06 388.853 433.461 389.217 433.75 389.684C434.04 390.141 434.184 390.673 434.184 391.28C434.184 391.924 434.007 392.493 433.652 392.988C433.298 393.473 432.831 393.833 432.252 394.066L434.576 398H432.742L430.642 394.374C430.586 394.383 430.526 394.388 430.46 394.388C430.404 394.388 430.344 394.388 430.278 394.388H428.934V398H427.31ZM428.934 392.89H430.838C431.156 392.89 431.436 392.82 431.678 392.68C431.93 392.54 432.131 392.349 432.28 392.106C432.439 391.863 432.518 391.588 432.518 391.28C432.518 390.813 432.35 390.431 432.014 390.132C431.678 389.833 431.244 389.684 430.712 389.684H428.934V392.89ZM436.225 398V388.2H437.849V398H436.225ZM440.176 398V388.2H441.856L447.064 395.284V388.2H448.688V398H447.064L441.8 390.832V398H440.176ZM455.511 398.168C454.522 398.168 453.64 397.953 452.865 397.524C452.1 397.085 451.498 396.488 451.059 395.732C450.621 394.967 450.401 394.094 450.401 393.114C450.401 392.115 450.621 391.238 451.059 390.482C451.498 389.717 452.1 389.119 452.865 388.69C453.64 388.251 454.522 388.032 455.511 388.032C456.081 388.032 456.613 388.121 457.107 388.298C457.611 388.475 458.064 388.718 458.465 389.026C458.867 389.325 459.193 389.675 459.445 390.076L458.129 390.916C457.952 390.645 457.723 390.403 457.443 390.188C457.163 389.973 456.855 389.81 456.519 389.698C456.193 389.577 455.857 389.516 455.511 389.516C454.839 389.516 454.242 389.67 453.719 389.978C453.206 390.286 452.8 390.711 452.501 391.252C452.203 391.784 452.053 392.405 452.053 393.114C452.053 393.805 452.198 394.421 452.487 394.962C452.786 395.503 453.197 395.928 453.719 396.236C454.251 396.544 454.863 396.698 455.553 396.698C456.085 396.698 456.561 396.591 456.981 396.376C457.401 396.161 457.733 395.863 457.975 395.48C458.227 395.097 458.363 394.659 458.381 394.164H456.043V392.848H459.949V393.94C459.931 394.808 459.73 395.559 459.347 396.194C458.974 396.829 458.456 397.319 457.793 397.664C457.131 398 456.37 398.168 455.511 398.168Z" fill="#F9F9F9"/>
<foreignObject x="374.725" y="402" width="74" height="74"><div xmlns="http://www.w3.org/1999/xhtml" style="backdrop-filter:blur(4px);clip-path:url(#bgblur_1_8653_27510_clip_path);height:100%;width:100%"></div></foreignObject><g data-figma-bg-blur-radius="8">
<rect x="382.725" y="410" width="58" height="58" rx="16" fill="#4D4F60" fill-opacity="0.05"/>
<path d="M404.669 435.041H410.553M401.725 445L407.222 439.586C407.434 439.378 407.764 439.354 408.003 439.531L412.249 442.671C412.499 442.856 412.848 442.82 413.055 442.588L421.01 433.703M417.833 433H420.655C421.203 433 421.651 433.441 421.662 433.992L421.725 437.065" stroke="#1F1F1F" stroke-width="1.5" stroke-linecap="round" stroke-linejoin="round"/>
</g>
<path d="M411.725 492.333C410.252 492.333 409.058 493.527 409.058 495C409.058 496.473 410.252 497.667 411.725 497.667C413.197 497.667 414.391 496.473 414.391 495C414.391 493.527 413.197 492.333 411.725 492.333ZM411.725 468L411.225 468L411.225 495L411.725 495L412.225 495L412.225 468L411.725 468Z" fill="black"/>
<rect x="54.5" y="336" width="160" height="33" rx="16.5" fill="#7700EE"/>
<path d="M75.904 357.168C74.9613 357.168 74.1213 356.953 73.384 356.524C72.656 356.085 72.082 355.488 71.662 354.732C71.2513 353.967 71.046 353.089 71.046 352.1C71.046 351.111 71.2513 350.238 71.662 349.482C72.082 348.717 72.656 348.119 73.384 347.69C74.112 347.251 74.9473 347.032 75.89 347.032C76.5247 347.032 77.122 347.149 77.682 347.382C78.242 347.606 78.7367 347.919 79.166 348.32C79.6047 348.721 79.9407 349.188 80.174 349.72L78.69 350.322C78.522 349.967 78.2933 349.655 78.004 349.384C77.724 349.104 77.402 348.889 77.038 348.74C76.674 348.591 76.2913 348.516 75.89 348.516C75.274 348.516 74.7233 348.67 74.238 348.978C73.762 349.286 73.384 349.711 73.104 350.252C72.8333 350.784 72.698 351.4 72.698 352.1C72.698 352.8 72.8333 353.421 73.104 353.962C73.384 354.503 73.7667 354.928 74.252 355.236C74.7467 355.544 75.3067 355.698 75.932 355.698C76.3427 355.698 76.7253 355.619 77.08 355.46C77.444 355.292 77.766 355.063 78.046 354.774C78.3353 354.485 78.564 354.149 78.732 353.766L80.216 354.368C79.9827 354.919 79.6513 355.409 79.222 355.838C78.7927 356.258 78.2933 356.585 77.724 356.818C77.1547 357.051 76.548 357.168 75.904 357.168ZM86.1332 357.168C85.1625 357.168 84.3039 356.953 83.5572 356.524C82.8105 356.095 82.2225 355.497 81.7932 354.732C81.3732 353.967 81.1632 353.089 81.1632 352.1C81.1632 351.111 81.3732 350.238 81.7932 349.482C82.2225 348.717 82.8059 348.119 83.5432 347.69C84.2805 347.251 85.1299 347.032 86.0912 347.032C87.0619 347.032 87.9159 347.251 88.6532 347.69C89.3999 348.119 89.9785 348.717 90.3892 349.482C90.8092 350.238 91.0192 351.111 91.0192 352.1C91.0192 353.089 90.8092 353.967 90.3892 354.732C89.9785 355.497 89.4045 356.095 88.6672 356.524C87.9392 356.953 87.0945 357.168 86.1332 357.168ZM86.1332 355.684C86.7679 355.684 87.3279 355.53 87.8132 355.222C88.2985 354.914 88.6765 354.494 88.9472 353.962C89.2272 353.421 89.3672 352.8 89.3672 352.1C89.3672 351.409 89.2272 350.793 88.9472 350.252C88.6672 349.711 88.2799 349.291 87.7852 348.992C87.2999 348.684 86.7352 348.53 86.0912 348.53C85.4565 348.53 84.8919 348.684 84.3972 348.992C83.9119 349.291 83.5245 349.711 83.2352 350.252C82.9552 350.784 82.8152 351.4 82.8152 352.1C82.8152 352.8 82.9552 353.421 83.2352 353.962C83.5245 354.494 83.9165 354.914 84.4112 355.222C84.9152 355.53 85.4892 355.684 86.1332 355.684ZM92.744 357V347.2H94.48L97.56 351.736L100.612 347.2H102.362V357H100.738V349.762L97.546 354.48L94.368 349.79V357H92.744ZM104.68 357V347.2H108.138C108.81 347.2 109.402 347.335 109.916 347.606C110.429 347.877 110.83 348.255 111.12 348.74C111.409 349.216 111.554 349.771 111.554 350.406C111.554 351.022 111.418 351.573 111.148 352.058C110.877 352.543 110.499 352.926 110.014 353.206C109.538 353.477 108.982 353.612 108.348 353.612H106.304V357H104.68ZM106.304 352.114H108.32C108.786 352.114 109.169 351.955 109.468 351.638C109.766 351.321 109.916 350.91 109.916 350.406C109.916 349.893 109.748 349.477 109.412 349.16C109.076 348.843 108.642 348.684 108.11 348.684H106.304V352.114ZM116.73 357.196C115.955 357.196 115.274 357.042 114.686 356.734C114.107 356.417 113.655 355.973 113.328 355.404C113.011 354.835 112.852 354.172 112.852 353.416V347.2H114.476V353.416C114.476 353.873 114.569 354.275 114.756 354.62C114.952 354.956 115.223 355.222 115.568 355.418C115.913 355.605 116.31 355.698 116.758 355.698C117.215 355.698 117.617 355.605 117.962 355.418C118.317 355.222 118.587 354.956 118.774 354.62C118.961 354.275 119.054 353.873 119.054 353.416V347.2H120.678V353.416C120.678 354.172 120.515 354.835 120.188 355.404C119.871 355.973 119.413 356.417 118.816 356.734C118.228 357.042 117.533 357.196 116.73 357.196ZM124.674 357V348.684H121.664V347.2H129.308V348.684H126.298V357H124.674ZM130.656 357V347.2H136.69V348.684H132.28V351.288H136.172V352.744H132.28V355.516H136.732V357H130.656ZM138.914 357V347.2H142.372C143.044 347.2 143.637 347.331 144.15 347.592C144.663 347.853 145.065 348.217 145.354 348.684C145.643 349.141 145.788 349.673 145.788 350.28C145.788 350.924 145.611 351.493 145.256 351.988C144.901 352.473 144.435 352.833 143.856 353.066L146.18 357H144.346L142.246 353.374C142.19 353.383 142.129 353.388 142.064 353.388C142.008 353.388 141.947 353.388 141.882 353.388H140.538V357H138.914ZM140.538 351.89H142.442C142.759 351.89 143.039 351.82 143.282 351.68C143.534 351.54 143.735 351.349 143.884 351.106C144.043 350.863 144.122 350.588 144.122 350.28C144.122 349.813 143.954 349.431 143.618 349.132C143.282 348.833 142.848 348.684 142.316 348.684H140.538V351.89ZM154.131 357L150.169 347.2H151.891L155.013 355.096L158.135 347.2H159.871L155.909 357H154.131ZM161.158 357V347.2H162.782V357H161.158ZM168.329 357.168C167.816 357.168 167.345 357.107 166.915 356.986C166.495 356.865 166.122 356.697 165.795 356.482C165.478 356.267 165.212 356.029 164.997 355.768C164.792 355.497 164.647 355.217 164.563 354.928L166.159 354.438C166.281 354.783 166.519 355.087 166.873 355.348C167.228 355.609 167.667 355.745 168.189 355.754C168.796 355.754 169.277 355.628 169.631 355.376C169.986 355.124 170.163 354.793 170.163 354.382C170.163 354.009 170.014 353.705 169.715 353.472C169.417 353.229 169.015 353.043 168.511 352.912L167.307 352.604C166.85 352.483 166.435 352.305 166.061 352.072C165.697 351.839 165.408 351.545 165.193 351.19C164.988 350.835 164.885 350.415 164.885 349.93C164.885 349.015 165.184 348.306 165.781 347.802C166.379 347.289 167.233 347.032 168.343 347.032C168.969 347.032 169.515 347.13 169.981 347.326C170.457 347.513 170.849 347.774 171.157 348.11C171.465 348.437 171.694 348.81 171.843 349.23L170.275 349.734C170.135 349.361 169.893 349.053 169.547 348.81C169.202 348.567 168.773 348.446 168.259 348.446C167.727 348.446 167.307 348.572 166.999 348.824C166.701 349.076 166.551 349.426 166.551 349.874C166.551 350.238 166.668 350.523 166.901 350.728C167.144 350.924 167.471 351.073 167.881 351.176L169.085 351.47C169.963 351.685 170.644 352.053 171.129 352.576C171.615 353.099 171.857 353.677 171.857 354.312C171.857 354.872 171.722 355.367 171.451 355.796C171.181 356.225 170.779 356.561 170.247 356.804C169.725 357.047 169.085 357.168 168.329 357.168ZM173.654 357V347.2H175.278V357H173.654ZM181.959 357.168C180.989 357.168 180.13 356.953 179.383 356.524C178.637 356.095 178.049 355.497 177.619 354.732C177.199 353.967 176.989 353.089 176.989 352.1C176.989 351.111 177.199 350.238 177.619 349.482C178.049 348.717 178.632 348.119 179.369 347.69C180.107 347.251 180.956 347.032 181.917 347.032C182.888 347.032 183.742 347.251 184.479 347.69C185.226 348.119 185.805 348.717 186.215 349.482C186.635 350.238 186.845 351.111 186.845 352.1C186.845 353.089 186.635 353.967 186.215 354.732C185.805 355.497 185.231 356.095 184.493 356.524C183.765 356.953 182.921 357.168 181.959 357.168ZM181.959 355.684C182.594 355.684 183.154 355.53 183.639 355.222C184.125 354.914 184.503 354.494 184.773 353.962C185.053 353.421 185.193 352.8 185.193 352.1C185.193 351.409 185.053 350.793 184.773 350.252C184.493 349.711 184.106 349.291 183.611 348.992C183.126 348.684 182.561 348.53 181.917 348.53C181.283 348.53 180.718 348.684 180.223 348.992C179.738 349.291 179.351 349.711 179.061 350.252C178.781 350.784 178.641 351.4 178.641 352.1C178.641 352.8 178.781 353.421 179.061 353.962C179.351 354.494 179.743 354.914 180.237 355.222C180.741 355.53 181.315 355.684 181.959 355.684ZM188.57 357V347.2H190.25L195.458 354.284V347.2H197.082V357H195.458L190.194 349.832V357H188.57Z" fill="#F9F9F9"/>
<foreignObject x="97.5" y="361" width="74" height="74"><div xmlns="http://www.w3.org/1999/xhtml" style="backdrop-filter:blur(4px);clip-path:url(#bgblur_2_8653_27510_clip_path);height:100%;width:100%"></div></foreignObject><g data-figma-bg-blur-radius="8">
<rect x="105.5" y="369" width="58" height="58" rx="16" fill="#4D4F60" fill-opacity="0.05"/>
<path d="M144.5 398C144.5 398 141.5 405 134.5 405C127.5 405 124.5 398 124.5 398C124.5 398 127.5 391 134.5 391C141 391 144.5 398 144.5 398Z" stroke="#1F1F1F" stroke-width="1.5" stroke-linejoin="round"/>
<path d="M134.177 394.677C134.327 394.441 134.673 394.441 134.823 394.677L135.259 395.362C135.74 396.118 136.382 396.76 137.138 397.241L137.823 397.677C138.059 397.827 138.059 398.173 137.823 398.323L137.138 398.759C136.382 399.24 135.74 399.882 135.259 400.638L134.823 401.323C134.673 401.559 134.327 401.559 134.177 401.323L133.741 400.638C133.26 399.882 132.618 399.24 131.862 398.759L131.177 398.323C130.941 398.173 130.941 397.827 131.177 397.677L131.862 397.241C132.618 396.76 133.26 396.118 133.741 395.362L134.177 394.677Z" stroke="#1F1F1F" stroke-width="1.5" stroke-linejoin="round"/>
</g>
<path d="M134.5 451.333C133.027 451.333 131.833 452.527 131.833 454C131.833 455.473 133.027 456.667 134.5 456.667C135.973 456.667 137.167 455.473 137.167 454C137.167 452.527 135.973 451.333 134.5 451.333ZM134.5 427L134 427L134 454L134.5 454L135 454L135 427L134.5 427Z" fill="black"/>
<rect x="402.5" y="536" width="160" height="33" rx="16.5" fill="#7700EE"/>
<path d="M423.904 557.168C422.961 557.168 422.121 556.953 421.384 556.524C420.656 556.085 420.082 555.488 419.662 554.732C419.251 553.967 419.046 553.089 419.046 552.1C419.046 551.111 419.251 550.238 419.662 549.482C420.082 548.717 420.656 548.119 421.384 547.69C422.112 547.251 422.947 547.032 423.89 547.032C424.525 547.032 425.122 547.149 425.682 547.382C426.242 547.606 426.737 547.919 427.166 548.32C427.605 548.721 427.941 549.188 428.174 549.72L426.69 550.322C426.522 549.967 426.293 549.655 426.004 549.384C425.724 549.104 425.402 548.889 425.038 548.74C424.674 548.591 424.291 548.516 423.89 548.516C423.274 548.516 422.723 548.67 422.238 548.978C421.762 549.286 421.384 549.711 421.104 550.252C420.833 550.784 420.698 551.4 420.698 552.1C420.698 552.8 420.833 553.421 421.104 553.962C421.384 554.503 421.767 554.928 422.252 555.236C422.747 555.544 423.307 555.698 423.932 555.698C424.343 555.698 424.725 555.619 425.08 555.46C425.444 555.292 425.766 555.063 426.046 554.774C426.335 554.485 426.564 554.149 426.732 553.766L428.216 554.368C427.983 554.919 427.651 555.409 427.222 555.838C426.793 556.258 426.293 556.585 425.724 556.818C425.155 557.051 424.548 557.168 423.904 557.168ZM434.133 557.168C433.163 557.168 432.304 556.953 431.557 556.524C430.811 556.095 430.223 555.497 429.793 554.732C429.373 553.967 429.163 553.089 429.163 552.1C429.163 551.111 429.373 550.238 429.793 549.482C430.223 548.717 430.806 548.119 431.543 547.69C432.281 547.251 433.13 547.032 434.091 547.032C435.062 547.032 435.916 547.251 436.653 547.69C437.4 548.119 437.979 548.717 438.389 549.482C438.809 550.238 439.019 551.111 439.019 552.1C439.019 553.089 438.809 553.967 438.389 554.732C437.979 555.497 437.405 556.095 436.667 556.524C435.939 556.953 435.095 557.168 434.133 557.168ZM434.133 555.684C434.768 555.684 435.328 555.53 435.813 555.222C436.299 554.914 436.677 554.494 436.947 553.962C437.227 553.421 437.367 552.8 437.367 552.1C437.367 551.409 437.227 550.793 436.947 550.252C436.667 549.711 436.28 549.291 435.785 548.992C435.3 548.684 434.735 548.53 434.091 548.53C433.457 548.53 432.892 548.684 432.397 548.992C431.912 549.291 431.525 549.711 431.235 550.252C430.955 550.784 430.815 551.4 430.815 552.1C430.815 552.8 430.955 553.421 431.235 553.962C431.525 554.494 431.917 554.914 432.411 555.222C432.915 555.53 433.489 555.684 434.133 555.684ZM440.744 557V547.2H442.424L447.632 554.284V547.2H449.256V557H447.632L442.368 549.832V557H440.744ZM454.806 557.168C454.292 557.168 453.821 557.107 453.392 556.986C452.972 556.865 452.598 556.697 452.272 556.482C451.954 556.267 451.688 556.029 451.474 555.768C451.268 555.497 451.124 555.217 451.04 554.928L452.636 554.438C452.757 554.783 452.995 555.087 453.35 555.348C453.704 555.609 454.143 555.745 454.666 555.754C455.272 555.754 455.753 555.628 456.108 555.376C456.462 555.124 456.64 554.793 456.64 554.382C456.64 554.009 456.49 553.705 456.192 553.472C455.893 553.229 455.492 553.043 454.988 552.912L453.784 552.604C453.326 552.483 452.911 552.305 452.538 552.072C452.174 551.839 451.884 551.545 451.67 551.19C451.464 550.835 451.362 550.415 451.362 549.93C451.362 549.015 451.66 548.306 452.258 547.802C452.855 547.289 453.709 547.032 454.82 547.032C455.445 547.032 455.991 547.13 456.458 547.326C456.934 547.513 457.326 547.774 457.634 548.11C457.942 548.437 458.17 548.81 458.32 549.23L456.752 549.734C456.612 549.361 456.369 549.053 456.024 548.81C455.678 548.567 455.249 548.446 454.736 548.446C454.204 548.446 453.784 548.572 453.476 548.824C453.177 549.076 453.028 549.426 453.028 549.874C453.028 550.238 453.144 550.523 453.378 550.728C453.62 550.924 453.947 551.073 454.358 551.176L455.562 551.47C456.439 551.685 457.12 552.053 457.606 552.576C458.091 553.099 458.334 553.677 458.334 554.312C458.334 554.872 458.198 555.367 457.928 555.796C457.657 556.225 457.256 556.561 456.724 556.804C456.201 557.047 455.562 557.168 454.806 557.168ZM460.131 557V547.2H466.165V548.684H461.755V551.288H465.647V552.744H461.755V555.516H466.207V557H460.131ZM468.389 557V547.2H470.069L475.277 554.284V547.2H476.901V557H475.277L470.013 549.832V557H468.389ZM481.26 557V548.684H478.25V547.2H485.894V548.684H482.884V557H481.26ZM494.861 557.168C493.918 557.168 493.078 556.953 492.341 556.524C491.613 556.085 491.039 555.488 490.619 554.732C490.208 553.967 490.003 553.089 490.003 552.1C490.003 551.111 490.208 550.238 490.619 549.482C491.039 548.717 491.613 548.119 492.341 547.69C493.069 547.251 493.904 547.032 494.847 547.032C495.482 547.032 496.079 547.149 496.639 547.382C497.199 547.606 497.694 547.919 498.123 548.32C498.562 548.721 498.898 549.188 499.131 549.72L497.647 550.322C497.479 549.967 497.25 549.655 496.961 549.384C496.681 549.104 496.359 548.889 495.995 548.74C495.631 548.591 495.248 548.516 494.847 548.516C494.231 548.516 493.68 548.67 493.195 548.978C492.719 549.286 492.341 549.711 492.061 550.252C491.79 550.784 491.655 551.4 491.655 552.1C491.655 552.8 491.79 553.421 492.061 553.962C492.341 554.503 492.724 554.928 493.209 555.236C493.704 555.544 494.264 555.698 494.889 555.698C495.3 555.698 495.682 555.619 496.037 555.46C496.401 555.292 496.723 555.063 497.003 554.774C497.292 554.485 497.521 554.149 497.689 553.766L499.173 554.368C498.94 554.919 498.608 555.409 498.179 555.838C497.75 556.258 497.25 556.585 496.681 556.818C496.112 557.051 495.505 557.168 494.861 557.168ZM500.736 557V547.2H502.36V551.232H507.288V547.2H508.912V557H507.288V552.716H502.36V557H500.736ZM511.236 557V547.2H517.27V548.684H512.86V551.288H516.752V552.744H512.86V555.516H517.312V557H511.236ZM523.736 557.168C522.793 557.168 521.953 556.953 521.216 556.524C520.488 556.085 519.914 555.488 519.494 554.732C519.083 553.967 518.878 553.089 518.878 552.1C518.878 551.111 519.083 550.238 519.494 549.482C519.914 548.717 520.488 548.119 521.216 547.69C521.944 547.251 522.779 547.032 523.722 547.032C524.357 547.032 524.954 547.149 525.514 547.382C526.074 547.606 526.569 547.919 526.998 548.32C527.437 548.721 527.773 549.188 528.006 549.72L526.522 550.322C526.354 549.967 526.125 549.655 525.836 549.384C525.556 549.104 525.234 548.889 524.87 548.74C524.506 548.591 524.123 548.516 523.722 548.516C523.106 548.516 522.555 548.67 522.07 548.978C521.594 549.286 521.216 549.711 520.936 550.252C520.665 550.784 520.53 551.4 520.53 552.1C520.53 552.8 520.665 553.421 520.936 553.962C521.216 554.503 521.599 554.928 522.084 555.236C522.579 555.544 523.139 555.698 523.764 555.698C524.175 555.698 524.557 555.619 524.912 555.46C525.276 555.292 525.598 555.063 525.878 554.774C526.167 554.485 526.396 554.149 526.564 553.766L528.048 554.368C527.815 554.919 527.483 555.409 527.054 555.838C526.625 556.258 526.125 556.585 525.556 556.818C524.987 557.051 524.38 557.168 523.736 557.168ZM529.611 557V547.2H531.207V551.33L535.113 547.2H537.199L533.027 551.61L537.367 557H535.365L531.963 552.744L531.207 553.556V557H529.611ZM541.841 557.168C541.328 557.168 540.856 557.107 540.427 556.986C540.007 556.865 539.634 556.697 539.307 556.482C538.99 556.267 538.724 556.029 538.509 555.768C538.304 555.497 538.159 555.217 538.075 554.928L539.671 554.438C539.792 554.783 540.03 555.087 540.385 555.348C540.74 555.609 541.178 555.745 541.701 555.754C542.308 555.754 542.788 555.628 543.143 555.376C543.498 555.124 543.675 554.793 543.675 554.382C543.675 554.009 543.526 553.705 543.227 553.472C542.928 553.229 542.527 553.043 542.023 552.912L540.819 552.604C540.362 552.483 539.946 552.305 539.573 552.072C539.209 551.839 538.92 551.545 538.705 551.19C538.5 550.835 538.397 550.415 538.397 549.93C538.397 549.015 538.696 548.306 539.293 547.802C539.89 547.289 540.744 547.032 541.855 547.032C542.48 547.032 543.026 547.13 543.493 547.326C543.969 547.513 544.361 547.774 544.669 548.11C544.977 548.437 545.206 548.81 545.355 549.23L543.787 549.734C543.647 549.361 543.404 549.053 543.059 548.81C542.714 548.567 542.284 548.446 541.771 548.446C541.239 548.446 540.819 548.572 540.511 548.824C540.212 549.076 540.063 549.426 540.063 549.874C540.063 550.238 540.18 550.523 540.413 550.728C540.656 550.924 540.982 551.073 541.393 551.176L542.597 551.47C543.474 551.685 544.156 552.053 544.641 552.576C545.126 553.099 545.369 553.677 545.369 554.312C545.369 554.872 545.234 555.367 544.963 555.796C544.692 556.225 544.291 556.561 543.759 556.804C543.236 557.047 542.597 557.168 541.841 557.168Z" fill="#F9F9F9"/>
<foreignObject x="445.5" y="561" width="74" height="74"><div xmlns="http://www.w3.org/1999/xhtml" style="backdrop-filter:blur(4px);clip-path:url(#bgblur_3_8653_27510_clip_path);height:100%;width:100%"></div></foreignObject><g data-figma-bg-blur-radius="8">
<rect x="453.5" y="569" width="58" height="58" rx="16" fill="#4D4F60" fill-opacity="0.05"/>
<path d="M480.227 588C476.966 588 475.335 588 474.203 588.798C473.879 589.026 473.591 589.298 473.348 589.603C472.5 590.669 472.5 592.203 472.5 595.273V597.818C472.5 600.781 472.5 602.263 472.969 603.446C473.723 605.349 475.317 606.849 477.338 607.559C478.596 608 480.17 608 483.318 608C485.117 608 486.017 608 486.735 607.748C487.89 607.342 488.801 606.485 489.232 605.398C489.5 604.722 489.5 603.875 489.5 602.182V601.5" stroke="#1F1F1F" stroke-width="1.5" stroke-linecap="round" stroke-linejoin="round"/>
<path d="M485.5 593.5C485.5 593.5 486 593.5 486.5 594.5C486.5 594.5 488.088 592 489.5 591.5" stroke="#1F1F1F" stroke-width="1.5" stroke-linecap="round" stroke-linejoin="round"/>
<path d="M492.5 593C492.5 595.761 490.261 598 487.5 598C484.739 598 482.5 595.761 482.5 593C482.5 590.239 484.739 588 487.5 588C490.261 588 492.5 590.239 492.5 593Z" stroke="#1F1F1F" stroke-width="1.5" stroke-linecap="round"/>
<path d="M472.5 598C472.5 599.841 473.992 601.333 475.833 601.333C476.499 601.333 477.284 601.217 477.931 601.39C478.507 601.544 478.956 601.993 479.11 602.569C479.283 603.216 479.167 604.001 479.167 604.667C479.167 606.508 480.659 608 482.5 608" stroke="#1F1F1F" stroke-width="1.5" stroke-linecap="round" stroke-linejoin="round"/>
</g>
<path d="M482.5 651.333C481.027 651.333 479.833 652.527 479.833 654C479.833 655.473 481.027 656.667 482.5 656.667C483.973 656.667 485.167 655.473 485.167 654C485.167 652.527 483.973 651.333 482.5 651.333ZM482.5 627L482 627L482 654L482.5 654L483 654L483 627L482.5 627Z" fill="black"/>
<rect x="196.725" y="196" width="223" height="33" rx="16.5" fill="#7700EE"/>
<path d="M213.887 217V207.2H217.345C218.017 207.2 218.609 207.331 219.123 207.592C219.636 207.853 220.037 208.217 220.327 208.684C220.616 209.141 220.761 209.673 220.761 210.28C220.761 210.924 220.583 211.493 220.229 211.988C219.874 212.473 219.407 212.833 218.829 213.066L221.153 217H219.319L217.219 213.374C217.163 213.383 217.102 213.388 217.037 213.388C216.981 213.388 216.92 213.388 216.855 213.388H215.511V217H213.887ZM215.511 211.89H217.415C217.732 211.89 218.012 211.82 218.255 211.68C218.507 211.54 218.707 211.349 218.857 211.106C219.015 210.863 219.095 210.588 219.095 210.28C219.095 209.813 218.927 209.431 218.591 209.132C218.255 208.833 217.821 208.684 217.289 208.684H215.511V211.89ZM222.801 217V207.2H228.835V208.684H224.425V211.288H228.317V212.744H224.425V215.516H228.877V217H222.801ZM231.058 217V207.2H232.682V217H231.058ZM235.01 217V207.2H236.69L241.898 214.284V207.2H243.522V217H241.898L236.634 209.832V217H235.01ZM245.851 217V207.2H251.941V208.684H247.475V211.428H251.297V212.912H247.475V217H245.851ZM257.903 217.168C256.932 217.168 256.073 216.953 255.327 216.524C254.58 216.095 253.992 215.497 253.563 214.732C253.143 213.967 252.933 213.089 252.933 212.1C252.933 211.111 253.143 210.238 253.563 209.482C253.992 208.717 254.575 208.119 255.313 207.69C256.05 207.251 256.899 207.032 257.861 207.032C258.831 207.032 259.685 207.251 260.423 207.69C261.169 208.119 261.748 208.717 262.159 209.482C262.579 210.238 262.789 211.111 262.789 212.1C262.789 213.089 262.579 213.967 262.159 214.732C261.748 215.497 261.174 216.095 260.437 216.524C259.709 216.953 258.864 217.168 257.903 217.168ZM257.903 215.684C258.537 215.684 259.097 215.53 259.583 215.222C260.068 214.914 260.446 214.494 260.717 213.962C260.997 213.421 261.137 212.8 261.137 212.1C261.137 211.409 260.997 210.793 260.717 210.252C260.437 209.711 260.049 209.291 259.555 208.992C259.069 208.684 258.505 208.53 257.861 208.53C257.226 208.53 256.661 208.684 256.167 208.992C255.681 209.291 255.294 209.711 255.005 210.252C254.725 210.784 254.585 211.4 254.585 212.1C254.585 212.8 254.725 213.421 255.005 213.962C255.294 214.494 255.686 214.914 256.181 215.222C256.685 215.53 257.259 215.684 257.903 215.684ZM264.514 217V207.2H267.972C268.644 207.2 269.236 207.331 269.75 207.592C270.263 207.853 270.664 208.217 270.954 208.684C271.243 209.141 271.388 209.673 271.388 210.28C271.388 210.924 271.21 211.493 270.856 211.988C270.501 212.473 270.034 212.833 269.456 213.066L271.78 217H269.946L267.846 213.374C267.79 213.383 267.729 213.388 267.664 213.388C267.608 213.388 267.547 213.388 267.482 213.388H266.138V217H264.514ZM266.138 211.89H268.042C268.359 211.89 268.639 211.82 268.882 211.68C269.134 211.54 269.334 211.349 269.484 211.106C269.642 210.863 269.722 210.588 269.722 210.28C269.722 209.813 269.554 209.431 269.218 209.132C268.882 208.833 268.448 208.684 267.916 208.684H266.138V211.89ZM277.67 217.168C276.727 217.168 275.887 216.953 275.15 216.524C274.422 216.085 273.848 215.488 273.428 214.732C273.017 213.967 272.812 213.089 272.812 212.1C272.812 211.111 273.017 210.238 273.428 209.482C273.848 208.717 274.422 208.119 275.15 207.69C275.878 207.251 276.713 207.032 277.656 207.032C278.29 207.032 278.888 207.149 279.448 207.382C280.008 207.606 280.502 207.919 280.932 208.32C281.37 208.721 281.706 209.188 281.94 209.72L280.456 210.322C280.288 209.967 280.059 209.655 279.77 209.384C279.49 209.104 279.168 208.889 278.804 208.74C278.44 208.591 278.057 208.516 277.656 208.516C277.04 208.516 276.489 208.67 276.004 208.978C275.528 209.286 275.15 209.711 274.87 210.252C274.599 210.784 274.464 211.4 274.464 212.1C274.464 212.8 274.599 213.421 274.87 213.962C275.15 214.503 275.532 214.928 276.018 215.236C276.512 215.544 277.072 215.698 277.698 215.698C278.108 215.698 278.491 215.619 278.846 215.46C279.21 215.292 279.532 215.063 279.812 214.774C280.101 214.485 280.33 214.149 280.498 213.766L281.982 214.368C281.748 214.919 281.417 215.409 280.988 215.838C280.558 216.258 280.059 216.585 279.49 216.818C278.92 217.051 278.314 217.168 277.67 217.168ZM283.545 217V207.2H289.579V208.684H285.169V211.288H289.061V212.744H285.169V215.516H289.621V217H283.545ZM291.803 217V207.2H293.539L296.619 211.736L299.671 207.2H301.421V217H299.797V209.762L296.605 214.48L293.427 209.79V217H291.803ZM303.738 217V207.2H309.772V208.684H305.362V211.288H309.254V212.744H305.362V215.516H309.814V217H303.738ZM311.996 217V207.2H313.676L318.884 214.284V207.2H320.508V217H318.884L313.62 209.832V217H311.996ZM324.868 217V208.684H321.858V207.2H329.502V208.684H326.492V217H324.868ZM334.226 217V207.2H335.85V215.516H340.288V217H334.226ZM341.65 217V207.2H347.684V208.684H343.274V211.288H347.166V212.744H343.274V215.516H347.726V217H341.65ZM348.872 217L352.778 207.2H354.5L358.42 217H356.698L355.732 214.592H351.546L350.594 217H348.872ZM352.092 213.15H355.186L353.646 209.23L352.092 213.15ZM359.697 217V207.2H363.155C363.827 207.2 364.42 207.331 364.933 207.592C365.446 207.853 365.848 208.217 366.137 208.684C366.426 209.141 366.571 209.673 366.571 210.28C366.571 210.924 366.394 211.493 366.039 211.988C365.684 212.473 365.218 212.833 364.639 213.066L366.963 217H365.129L363.029 213.374C362.973 213.383 362.912 213.388 362.847 213.388C362.791 213.388 362.73 213.388 362.665 213.388H361.321V217H359.697ZM361.321 211.89H363.225C363.542 211.89 363.822 211.82 364.065 211.68C364.317 211.54 364.518 211.349 364.667 211.106C364.826 210.863 364.905 210.588 364.905 210.28C364.905 209.813 364.737 209.431 364.401 209.132C364.065 208.833 363.631 208.684 363.099 208.684H361.321V211.89ZM368.611 217V207.2H370.291L375.499 214.284V207.2H377.123V217H375.499L370.235 209.832V217H368.611ZM379.453 217V207.2H381.077V217H379.453ZM383.404 217V207.2H385.084L390.292 214.284V207.2H391.916V217H390.292L385.028 209.832V217H383.404ZM398.74 217.168C397.751 217.168 396.869 216.953 396.094 216.524C395.329 216.085 394.727 215.488 394.288 214.732C393.849 213.967 393.63 213.094 393.63 212.114C393.63 211.115 393.849 210.238 394.288 209.482C394.727 208.717 395.329 208.119 396.094 207.69C396.869 207.251 397.751 207.032 398.74 207.032C399.309 207.032 399.841 207.121 400.336 207.298C400.84 207.475 401.293 207.718 401.694 208.026C402.095 208.325 402.422 208.675 402.674 209.076L401.358 209.916C401.181 209.645 400.952 209.403 400.672 209.188C400.392 208.973 400.084 208.81 399.748 208.698C399.421 208.577 399.085 208.516 398.74 208.516C398.068 208.516 397.471 208.67 396.948 208.978C396.435 209.286 396.029 209.711 395.73 210.252C395.431 210.784 395.282 211.405 395.282 212.114C395.282 212.805 395.427 213.421 395.716 213.962C396.015 214.503 396.425 214.928 396.948 215.236C397.48 215.544 398.091 215.698 398.782 215.698C399.314 215.698 399.79 215.591 400.21 215.376C400.63 215.161 400.961 214.863 401.204 214.48C401.456 214.097 401.591 213.659 401.61 213.164H399.272V211.848H403.178V212.94C403.159 213.808 402.959 214.559 402.576 215.194C402.203 215.829 401.685 216.319 401.022 216.664C400.359 217 399.599 217.168 398.74 217.168Z" fill="#F9F9F9"/>
<foreignObject x="271.225" y="221" width="74" height="74"><div xmlns="http://www.w3.org/1999/xhtml" style="backdrop-filter:blur(4px);clip-path:url(#bgblur_4_8653_27510_clip_path);height:100%;width:100%"></div></foreignObject><g data-figma-bg-blur-radius="8">
<rect x="279.225" y="229" width="58" height="58" rx="16" fill="#4D4F60" fill-opacity="0.05"/>
<path d="M298.678 255C299.955 250.943 303.755 248 308.244 248C313.442 248 317.716 251.947 318.219 257L316.219 256.593" stroke="#1F1F1F" stroke-width="1.5" stroke-linecap="round" stroke-linejoin="round"/>
<path d="M317.766 261C316.488 265.057 312.689 268 308.2 268C303.002 268 298.728 264.053 298.225 259L300.225 259.407" stroke="#1F1F1F" stroke-width="1.5" stroke-linecap="round" stroke-linejoin="round"/>
<path d="M305.232 259.526V261.518C305.232 261.844 305.388 262.155 305.664 262.328C306.508 262.856 307.15 263.011 308.236 263.044C309.237 263.071 309.864 262.914 310.798 262.33C311.079 262.154 311.239 261.841 311.239 261.509V259.526M313.242 257.013V260.028M303.28 256.842C303.641 256.078 305.884 254.748 307.931 254.091C308.129 254.027 308.341 254.033 308.536 254.105C310.346 254.767 312.359 255.77 313.09 256.583C313.472 257.008 313.099 257.55 312.637 257.885C311.701 258.566 310.667 259.096 308.58 259.898C308.359 259.982 308.113 259.985 307.891 259.903C305.751 259.108 303.749 258.082 303.296 257.18C303.243 257.073 303.229 256.949 303.28 256.842Z" stroke="#1F1F1F" stroke-width="1.5" stroke-linecap="round" stroke-linejoin="round"/>
</g>
<path d="M308.225 311.333C306.752 311.333 305.558 312.527 305.558 314C305.558 315.473 306.752 316.667 308.225 316.667C309.697 316.667 310.891 315.473 310.891 314C310.891 312.527 309.697 311.333 308.225 311.333ZM308.225 287L307.725 287L307.725 314L308.225 314L308.725 314L308.725 287L308.225 287Z" fill="black"/>
<circle cx="597.725" cy="602" r="3" fill="black"/>
<path d="M482.684 655.218L584.053 596.842C585.29 596.13 586.813 596.131 588.049 596.845L654.867 635.422C656.105 636.136 656.867 637.457 656.867 638.886L656.867 654.072C656.867 657.151 653.534 659.076 650.867 657.536L643.225 653.124" stroke="black"/>
<defs>
<clipPath id="bgblur_0_8653_27510_clip_path" transform="translate(-687.225 -422)"><rect x="695.225" y="430" width="58" height="58" rx="16"/>
</clipPath><clipPath id="bgblur_1_8653_27510_clip_path" transform="translate(-374.725 -402)"><rect x="382.725" y="410" width="58" height="58" rx="16"/>
</clipPath><clipPath id="bgblur_2_8653_27510_clip_path" transform="translate(-97.5 -361)"><rect x="105.5" y="369" width="58" height="58" rx="16"/>
</clipPath><clipPath id="bgblur_3_8653_27510_clip_path" transform="translate(-445.5 -561)"><rect x="453.5" y="569" width="58" height="58" rx="16"/>
</clipPath><clipPath id="bgblur_4_8653_27510_clip_path" transform="translate(-271.225 -221)"><rect x="279.225" y="229" width="58" height="58" rx="16"/>
</clipPath></defs>
</svg>
