<svg width="1278.985" height="159.871" viewBox="0 0 1278.985 159.871" fill="currentColor" xmlns="http://www.w3.org/2000/svg" role="img" aria-label="Sword Intelligence">
<svg x="0.000" y="1.400" width="448.088" height="125.876" viewBox="0 0 448.091 125.874" overflow="visible"><g id="Group">
<path id="Vector" d="M428.525 118.302C414.126 128.206 393.385 128.382 378.864 118.632C365.168 109.432 357.87 93.9227 358.672 77.4131C360.233 45.4161 393.022 25.4331 422.271 38.4363L428.525 41.8438V7.02189C428.525 6.54924 429.658 5.6699 430.108 5.42808C432.131 4.39486 442.837 0.393863 444.859 0.0751023C446.651 -0.210683 447.552 0.294937 448.091 2.00965L447.981 122.27C447.607 123.556 446.596 123.974 445.332 124.117C442.243 124.458 434.417 124.447 431.339 124.084C430.35 123.963 428.536 123.304 428.536 122.128V118.291L428.525 118.302ZM401.749 54.6052C371.313 56.7925 372.313 102.661 401.145 104.805C437.945 107.53 437.242 52.0551 401.749 54.6052Z" fill="var(--fill-0, black)"/>
<path id="Vector_2" d="M111.578 91.5773L131.584 36.8384C132.078 36.5307 132.54 36.3328 133.133 36.2669C134.87 36.058 139.322 36.069 141.081 36.2669C142.048 36.3768 142.762 36.6406 143.29 37.4979L162.515 91.3135C163.097 91.4344 162.844 91.0607 162.976 90.731C169.758 72.9353 175.738 54.8319 182.63 37.0693C183.157 36.6186 183.762 36.3438 184.465 36.2559C187.829 35.8492 196.117 35.9371 199.568 36.2559C201.503 36.4317 202.481 37.8057 201.942 39.7073L168.923 123.245C168.252 123.728 167.582 124.025 166.757 124.124C165.01 124.322 161.119 124.3 159.338 124.124C158.184 124.014 157.392 123.783 156.722 122.772L137.123 71.979L117.525 122.761C117.008 123.53 116.327 123.959 115.415 124.08C113.733 124.322 109.501 124.278 107.753 124.113C106.467 123.992 105.731 123.739 105.049 122.585C95.1346 96.5346 84.2197 70.8579 74.36 44.7855C73.3927 42.2354 70.0732 36.6626 74.6788 36.2339C78.35 35.8931 85.8465 35.8931 89.5178 36.2339C90.2762 36.2998 91.1226 36.3768 91.6172 37.0473L111.6 91.5444L111.578 91.5773Z" fill="var(--fill-0, black)"/>
<path id="Vector_3" d="M243.01 34.483C282.339 32.1527 304.224 77.021 281.383 108.051C261.312 135.321 218.828 130.331 205 99.5871C191.942 70.5469 210.826 36.3846 243.01 34.472V34.483ZM244.065 54.5979C213.596 56.8732 214.618 102.654 243.461 104.797C280.317 107.534 279.437 51.9709 244.065 54.5979Z" fill="var(--fill-0, black)"/>
<path id="Vector_4" d="M32.1528 34.4951C43.4304 33.7477 56.115 36.8913 64.0951 45.267C66.843 48.1469 67.6345 48.9163 64.8865 52.1589C63.4246 53.8846 58.2144 59.3585 56.5657 60.5016C54.1365 62.2053 52.8065 59.5893 51.2566 58.3692C48.1679 55.907 45.332 54.2693 41.4189 53.3899C35.1536 51.983 20.7323 51.906 23.1285 61.8975C23.9309 65.239 29.152 67.2615 32.0758 68.3057C46.9368 73.5928 66.1616 75.6262 67.4146 95.6752C69.5031 129.321 26.514 132.75 5.78334 116.296C4.38738 115.186 0.0895681 111.58 0.00163332 109.931C-0.0313422 109.25 0.441307 108.514 0.848005 107.986C2.45281 105.832 6.08012 102.765 8.1356 100.72C9.49859 99.3684 10.3889 97.302 12.8731 98.3462C19.787 106.04 32.2737 109.459 42.1993 106.733C50.2234 104.524 50.9928 96.5325 43.8591 92.4986C30.8997 85.1891 8.22353 86.7719 4.55226 67.5033C0.848005 48.0589 13.4886 35.7372 32.1528 34.4951Z" fill="var(--fill-0, black)"/>
<path id="Vector_5" d="M321.631 45.0022C324.126 41.7926 326.962 39.0337 330.655 37.231C338.57 33.3509 352.408 33.1641 359.322 39.1876C361.828 41.3749 361.191 41.8256 359.861 44.4746C358.399 47.3874 355.904 52.3007 354.123 54.8728C351.969 57.9944 350.199 55.7631 348.001 54.7409C342.779 52.3007 335.195 53.0042 330.282 55.895C324.786 59.1266 322.093 65.1171 321.631 71.3274C320.455 87.2215 322.796 104.654 321.631 120.559C321.488 122.582 321.093 123.868 318.839 124.121C315.729 124.473 307.672 124.473 304.55 124.121C302.934 123.945 301.967 123.318 301.769 121.615L301.835 38.3192C302.011 37.319 302.725 36.4506 303.769 36.2857C308.606 36.6155 314.102 35.8021 318.85 36.2528C320.059 36.3737 321.62 37.1321 321.62 38.5171V45.0022H321.631Z" fill="var(--fill-0, black)"/>
</g></svg>
<svg x="499.020" y="3.270" width="48.122" height="121.360" viewBox="0 0 48.1224 121.36" overflow="visible"><g id="Group">
<path id="Vector" d="M4.8276 119.693C2.70618 119.693 1.63994 119.088 1.63994 117.89C1.63994 116.912 2.56327 116.253 4.3989 115.923L9.29029 115.263C12.2691 114.824 14.2146 114.23 15.127 113.461C16.0503 112.702 16.5119 111.163 16.5119 108.866V12.4685C16.5119 10.1712 16.0503 8.64339 15.127 7.87397C14.2036 7.11553 12.2581 6.51099 9.29029 6.07132L4.3989 5.41181C2.55227 5.08206 1.63994 4.43355 1.63994 3.44429C1.63994 2.24619 2.70618 1.64164 4.8276 1.64164H43.2771C45.3985 1.64164 46.4647 2.24619 46.4647 3.44429C46.4647 4.42256 45.5414 5.08206 43.7058 5.41181L38.8254 6.07132C35.8466 6.51099 33.901 7.11553 32.9887 7.87397C32.0654 8.64339 31.6037 10.1712 31.6037 12.4685V108.877C31.6037 111.174 32.0654 112.702 32.9887 113.472C33.912 114.241 35.8576 114.835 38.8254 115.274L43.7058 115.934C45.5414 116.264 46.4647 116.912 46.4647 117.901C46.4647 119.11 45.3985 119.704 43.2771 119.704H4.8276V119.693Z" fill="var(--fill-0, black)"/>
<path id="Vector_2" d="M43.286 121.349H4.83653C0.472763 121.349 8.65656e-05 118.931 8.65656e-05 117.897C8.65656e-05 116.589 0.714557 114.908 4.12203 114.303L9.07936 113.633C12.6737 113.105 13.7729 112.457 14.0916 112.193C14.3335 111.995 14.8721 111.28 14.8721 108.873V12.4756C14.8721 10.0684 14.3225 9.34299 14.0806 9.14513C13.7729 8.89232 12.6627 8.24381 9.05739 7.70522L4.18798 7.0567C0.714554 6.44116 8.65656e-05 4.75943 8.65656e-05 3.45141C8.65656e-05 2.41818 0.472763 0 4.83653 0H43.286C47.6497 0 48.1224 2.41818 48.1224 3.45141C48.1224 4.75943 47.4079 6.43017 44.0004 7.04571L39.0431 7.71621C35.4488 8.24381 34.3386 8.89232 34.0309 9.15613C33.8 9.35398 33.2504 10.0684 33.2504 12.4756V108.884C33.2504 111.291 33.8 112.006 34.0309 112.204C34.3386 112.468 35.4488 113.116 39.0651 113.644L43.9345 114.303C47.5948 114.952 48.1224 116.831 48.1224 117.908C48.1224 118.986 47.6497 121.36 43.286 121.36V121.349ZM3.48452 117.897C3.71534 117.963 4.13302 118.051 4.84749 118.051H43.297C44.0115 118.051 44.4181 117.974 44.649 117.908C44.4401 117.81 44.0664 117.667 43.4289 117.557L38.6144 116.908C35.2399 116.414 33.1185 115.721 31.9314 114.743C30.6014 113.644 29.9529 111.731 29.9529 108.884V12.4756C29.9529 9.63976 30.6014 7.71621 31.9314 6.61703C33.1185 5.63877 35.229 4.94629 38.5815 4.45166L43.4838 3.79215C44.0774 3.68224 44.4401 3.55033 44.638 3.45141C44.4072 3.38546 43.9894 3.30852 43.275 3.30852H4.82552C4.12204 3.30852 3.70434 3.38546 3.47351 3.45141C3.68236 3.55033 4.0561 3.69323 4.69363 3.80315L9.50806 4.45166C12.8826 4.94629 14.993 5.63877 16.1801 6.61703C17.5101 7.7272 18.1586 9.63976 18.1586 12.4756V108.884C18.1586 111.72 17.5101 113.644 16.1801 114.743C14.993 115.732 12.8825 116.414 9.53003 116.908L4.62768 117.568C4.03412 117.678 3.67137 117.81 3.47351 117.908L3.48452 117.897Z" fill="var(--fill-0, black)"/>
</g></svg>
<svg x="551.000" y="36.720" width="97.630" height="87.912" viewBox="0 0 97.6296 87.9121" overflow="visible"><g id="Group">
<path id="Vector" d="M4.82759 86.2543C2.70616 86.2543 1.63996 85.6498 1.63996 84.4517C1.63996 83.4734 2.56329 82.8139 4.39892 82.4842L6.94901 82.1544C9.9278 81.7148 11.8734 81.0333 12.7857 80.11C13.709 79.1866 14.1707 77.5709 14.1707 75.2736V20.1829C14.1707 18.2154 13.775 16.8744 13.0055 16.1709C12.2251 15.4565 10.8401 14.9948 8.86161 14.775L4.39892 14.2804C2.55229 14.1704 1.63996 13.5659 1.63996 12.4777C1.63996 11.6094 2.77212 11.0048 5.03644 10.6751C9.42218 10.1255 12.7857 9.25713 15.1269 8.04804C17.4682 6.84994 19.9084 5.36606 22.4585 3.61837C23.7335 2.62911 24.7998 2.14547 25.6462 2.14547C26.9212 2.14547 27.5587 2.80498 27.5587 4.113V11.4885C27.5587 12.4667 28.0204 13.1042 28.9437 13.368C29.867 13.6428 30.8892 13.3461 32.0214 12.4667C37.6822 8.31184 42.6725 5.47597 47.0033 3.93713C51.3231 2.40928 55.8848 1.63985 60.7102 1.63985C67.0854 1.63985 72.1856 3.36556 76.0108 6.80597C79.836 10.2464 81.7485 15.3026 81.7485 21.9746V75.2626C81.7485 77.5599 82.2102 79.1757 83.1335 80.099C84.0568 81.0333 86.0024 81.6598 88.9702 81.9895L93.6417 82.4842C95.2025 82.704 95.983 83.3635 95.983 84.4517C95.983 85.6608 95.1366 86.2543 93.4329 86.2543H57.7424C55.7528 86.2543 54.7635 85.6498 54.7635 84.4517C54.7635 83.3635 55.544 82.704 57.1048 82.4842L60.0836 82.1544C63.0624 81.8247 65.008 81.1762 65.9203 80.1869C66.8436 79.2086 67.3053 77.5599 67.3053 75.2626V23.7772C67.3053 18.4243 66.0302 14.6541 63.4801 12.4667C60.93 10.2794 57.3247 9.19118 52.6421 9.19118C47.9596 9.19118 44.0355 10.2024 40.4302 12.2249C36.8139 14.2474 33.956 16.9294 31.8236 20.2599C29.7021 23.5904 28.636 27.2836 28.636 31.3286V75.2736C28.636 77.5709 29.0976 79.2086 30.0209 80.1979C30.9442 81.1762 32.8898 81.7807 35.8576 82.0005L41.5953 82.4952C43.1562 82.715 43.9366 83.3195 43.9366 84.2978C43.9366 85.6058 42.8704 86.2653 40.7489 86.2653H4.84959L4.82759 86.2543Z" fill="var(--fill-0, black)"/>
<path id="Vector_2" d="M93.4198 87.901H57.7293C53.5524 87.901 53.1017 85.4828 53.1017 84.4496C53.1017 83.5263 53.4644 81.3279 56.8609 80.8553L59.8837 80.5255C63.3571 80.1408 64.4123 79.3824 64.7091 79.0636C65.3247 78.4151 65.6434 77.0961 65.6434 75.2715V23.7861C65.6434 18.9608 64.5552 15.5753 62.3898 13.7287C60.1584 11.8161 56.8719 10.8489 52.629 10.8489C48.3862 10.8489 44.5721 11.7941 41.2196 13.6737C37.867 15.5533 35.163 18.0704 33.2065 21.1591C31.2609 24.2148 30.2827 27.6333 30.2827 31.3375V75.2825C30.2827 77.1071 30.6014 78.4261 31.2169 79.0746C31.5027 79.3824 32.525 80.1079 35.9764 80.3607L41.7361 80.8553C45.2206 81.3389 45.5833 83.4274 45.5833 84.2957C45.5833 85.3839 45.1106 87.912 40.7468 87.912H4.84751C0.483751 87.912 0.0111084 85.4938 0.0111084 84.4606C0.0111084 83.1526 0.725578 81.4708 4.13305 80.8663L6.76008 80.5255C10.2665 80.0089 11.3437 79.2505 11.6405 78.9537C12.223 78.3712 12.5418 77.0631 12.5418 75.2825V20.1918C12.5418 18.1254 12.0581 17.5318 11.9043 17.3889C11.6185 17.1251 10.8161 16.6525 8.69466 16.4217L4.23197 15.927C0.417803 15.7072 0.000105788 13.4429 0.000105788 12.4866C0.000105788 9.74968 3.61643 9.22208 4.81454 9.04621C9.02441 8.5186 12.234 7.69422 14.3884 6.58406C16.6527 5.41893 19.06 3.96802 21.5441 2.2643C23.061 1.09918 24.424 0.494629 25.6661 0.494629C27.8644 0.494629 29.2274 1.87959 29.2274 4.11092V11.4864C29.2274 11.6403 29.2494 11.7172 29.2604 11.7282C29.2604 11.7282 29.3153 11.7502 29.4253 11.7832C29.9199 11.926 30.6454 11.4534 31.0301 11.1566C36.8228 6.90282 42.0109 3.95703 46.4626 2.38521C50.9473 0.8024 55.7398 0 60.7191 0C67.4791 0 72.9969 1.87959 77.1189 5.58381C81.2848 9.34299 83.3953 14.8499 83.3953 21.9725V75.2605C83.3953 77.0412 83.714 78.3492 84.2965 78.9317C84.5933 79.2285 85.6486 79.954 89.155 80.3387L93.8155 80.8333C97.2559 81.3169 97.6296 83.5153 97.6296 84.4386C97.6296 85.252 97.3219 87.89 93.4308 87.89L93.4198 87.901ZM56.3993 84.4166C56.5202 84.4826 56.8939 84.6035 57.7403 84.6035H93.4308C93.9474 84.6035 94.2112 84.5265 94.3211 84.4936V84.3836C94.3211 84.3836 94.0903 84.2188 93.4088 84.1198L88.7922 83.6362C85.3408 83.2515 83.1754 82.5041 81.9553 81.273C80.7023 80.0199 80.0977 78.0524 80.0977 75.2715V21.9835C80.0977 15.8391 78.35 11.1456 74.9095 8.04596C71.4141 4.90232 66.6437 3.30851 60.7191 3.30851C56.1135 3.30851 51.6947 4.04496 47.5728 5.50686C43.4179 6.97976 38.5265 9.77166 33.0196 13.8056C31.4808 14.9927 29.9419 15.3884 28.491 14.9598C26.8642 14.4871 25.9299 13.2231 25.9299 11.4974V4.12191C25.9299 3.97901 25.9188 3.88009 25.9079 3.82513C25.8639 3.82513 25.787 3.80314 25.6661 3.80314C25.5012 3.80314 24.8527 3.88009 23.4897 4.9353C20.8187 6.77092 18.2905 8.29877 15.9053 9.51885C13.3772 10.8269 9.89277 11.7392 5.26521 12.3108C4.69363 12.3987 4.26494 12.4866 3.94617 12.5746C4.10006 12.5965 4.28694 12.6185 4.51777 12.6295L9.06838 13.1241C11.4316 13.3879 13.0914 13.9815 14.1356 14.9378C15.2898 15.993 15.8394 17.6967 15.8394 20.1699V75.2605C15.8394 78.0304 15.2348 79.9979 13.9817 81.262C12.7726 82.4821 10.6182 83.2845 7.21075 83.7791L4.63867 84.1089C4.04511 84.2188 3.69336 84.3507 3.4955 84.4496C3.72633 84.5155 4.14405 84.6035 4.85852 84.6035H40.7578C41.7801 84.6035 42.1758 84.4166 42.2857 84.3617C42.1648 84.2957 41.901 84.1968 41.3844 84.1198L35.7346 83.6362C32.2721 83.3834 30.0738 82.6469 28.8317 81.3169C27.6006 80.0089 27.007 78.0304 27.007 75.2715V31.3265C27.007 26.9847 28.1612 22.9618 30.4475 19.3785C32.7118 15.8281 35.8006 12.9373 39.6367 10.7939C43.4839 8.63951 47.8696 7.55133 52.662 7.55133C57.7183 7.55133 61.7303 8.7934 64.5662 11.2226C67.4901 13.7287 68.963 17.9495 68.963 23.7861V75.2715C68.963 78.0304 68.3694 79.9979 67.1383 81.3169C65.9072 82.625 63.7308 83.4164 60.2684 83.8011L57.2896 84.1308C56.5971 84.2298 56.4102 84.4166 56.4102 84.4166H56.3993Z" fill="var(--fill-0, black)"/>
</g></svg>
<svg x="641.740" y="14.560" width="53.233" height="111.522" viewBox="0 0 53.2336 111.522" overflow="visible"><g id="Group">
<path id="Vector" d="M30.7496 109.873C25.7923 109.873 21.7253 108.532 18.5377 105.861C15.3501 103.179 13.7563 98.7824 13.7563 92.66V31.337C13.7563 30.029 12.9099 29.3695 11.2061 29.3695H5.05067C2.78635 29.3695 1.65423 28.71 1.65423 27.402C1.65423 26.5336 2.29175 25.7642 3.5668 25.1047C8.23833 22.5876 11.9865 19.8836 14.8224 16.9928C17.6583 14.102 20.1315 10.1339 22.2529 5.1107C23.2422 2.81343 24.4513 1.67029 25.8692 1.67029C27.4301 1.67029 28.2105 2.54963 28.2105 4.29732V22.4997C28.2105 24.0275 29.1998 24.7969 31.1893 24.7969H44.9951C47.2594 24.7969 48.3915 25.5663 48.3915 27.0942C48.3915 28.6221 47.2594 29.3915 44.9951 29.3915H31.1893C29.1998 29.3915 28.2105 30.1609 28.2105 31.6888V92.8468C28.2105 95.254 28.7052 97.1336 29.6944 98.5076C30.6837 99.8706 32.5303 100.552 35.2233 100.552C38.2021 100.552 40.6423 99.4089 42.5548 97.1116C44.4674 94.8144 45.7095 91.0991 46.2701 85.966C46.5559 84.4381 47.4682 83.6687 49.0291 83.6687C50.7328 83.6687 51.5792 84.4821 51.5792 86.1309C51.1505 94.5506 48.9191 100.618 44.8851 104.333C40.8511 108.048 36.1356 109.906 30.7606 109.906L30.7496 109.873Z" fill="var(--fill-0, black)"/>
<path id="Vector_2" d="M30.7442 111.522C25.4132 111.522 20.9505 110.038 17.466 107.115C13.9047 104.125 12.1021 99.2555 12.1021 92.6495V31.3265C12.1021 31.2056 12.0801 31.1396 12.0801 31.1286C12.0581 31.1286 11.8273 31.0077 11.2007 31.0077H5.04527C0.483658 31.0077 5.40856e-05 28.4796 5.40856e-05 27.3914C5.40856e-05 26.3033 0.483682 24.8194 2.80296 23.6323C7.27664 21.2251 10.9259 18.598 13.6409 15.8281C16.3119 13.0912 18.6972 9.26605 20.7307 4.45166C22.0057 1.49488 23.7314 0 25.8638 0C28.326 0 29.8539 1.63777 29.8539 4.27579V22.4781C29.8539 22.8079 29.8539 23.1266 31.1839 23.1266H44.9897C49.5403 23.1266 50.0349 25.8856 50.0349 27.0727C50.0349 28.2598 49.5403 31.0187 44.9897 31.0187H31.1839C29.8539 31.0187 29.8539 31.3375 29.8539 31.6672V92.8253C29.8539 94.8698 30.2496 96.4416 31.03 97.5078C31.6895 98.4201 33.0965 98.8818 35.2179 98.8818C37.7021 98.8818 39.6806 97.9475 41.2854 96.0349C42.9782 94.0014 44.0993 90.55 44.6269 85.7576L44.6489 85.6367C45.0776 83.3175 46.6714 81.9875 49.0347 81.9875C51.6287 81.9875 53.2336 83.5593 53.2336 86.0984C52.7829 95.0017 50.3537 101.509 46.0119 105.51C41.6811 109.5 36.5479 111.522 30.7662 111.522H30.7442ZM25.8638 3.31951C24.9185 3.31951 24.0832 5.03422 23.7644 5.77067C21.577 10.9588 18.961 15.1246 15.9932 18.1584C13.0474 21.1701 9.12329 23.995 4.33084 26.5781C3.46249 27.0287 3.28661 27.3585 3.28661 27.4244C3.26462 27.4354 3.61632 27.7432 5.03427 27.7432H11.1897C14.2894 27.7432 15.3886 29.6118 15.3886 31.3595V92.6824C15.3886 98.2663 16.7956 102.278 19.5765 104.619C22.4454 107.027 26.1936 108.247 30.7332 108.247C35.7345 108.247 39.9884 106.565 43.7476 103.114C47.4408 99.7172 49.5073 93.9795 49.914 86.0434C49.914 85.4719 49.881 85.318 49.0127 85.318C48.2652 85.318 48.0234 85.5048 47.8805 86.2083C47.265 91.6932 45.9349 95.6062 43.8025 98.1673C41.5712 100.849 38.6803 102.201 35.2069 102.201C31.9643 102.201 29.656 101.278 28.348 99.4644C27.1499 97.8266 26.5453 95.5953 26.5453 92.8363V31.6782C26.5453 30.7549 26.8751 27.7322 31.1729 27.7322H44.9787C46.7264 27.7322 46.7264 27.2815 46.7264 27.0837C46.7264 26.8858 46.7264 26.4352 44.9787 26.4352H31.1729C26.8861 26.4352 26.5453 23.4124 26.5453 22.4891V4.28678C26.5453 3.30852 26.3585 3.30852 25.8528 3.30852L25.8638 3.31951Z" fill="var(--fill-0, black)"/>
</g></svg>
<svg x="696.590" y="36.720" width="68.512" height="89.374" viewBox="0 0 68.5122 89.374" overflow="visible"><g id="Group">
<path id="Vector" d="M37.5464 87.7357C30.7535 87.7357 24.653 85.988 19.278 82.4926C13.892 78.9972 9.61614 74.051 6.42851 67.6538C3.24087 61.2566 1.64701 53.8591 1.64701 45.4394C1.64701 37.0198 3.27381 29.2046 6.5274 22.6535C9.78098 16.0915 14.2437 10.9583 19.9155 7.24311C25.5763 3.5279 31.8856 1.67029 38.8214 1.67029C47.1752 1.67029 53.9353 4.3193 59.1124 9.61733C64.2786 14.9153 66.8617 23.5329 66.8617 35.4369C66.8617 39.0422 65.0919 40.8449 61.5526 40.8449H21.1905C18.3547 40.8449 16.9367 42.0979 16.9367 44.615C16.9367 56.2004 19.1351 64.8948 23.5208 70.6875C27.9066 76.4801 33.5014 79.382 40.3053 79.382C45.6913 79.382 50.0771 77.9091 53.4736 74.9523C56.8701 72.0065 59.64 67.0272 61.7614 60.0365C62.1901 58.8384 63.1024 58.2338 64.5204 58.2338C66.2131 58.2338 66.8506 59.333 66.433 61.5094C64.1686 71.2371 60.5523 78.041 55.595 81.921C50.6377 85.8011 44.6142 87.7357 37.5354 87.7357H37.5464ZM20.553 36.745H42.0091C48.8021 36.745 52.2095 34.008 52.2095 28.5451C52.2095 21.4444 51.0774 15.8716 48.8131 11.8267C46.5487 7.7817 43.1522 5.75922 38.6126 5.75922C33.0947 5.75922 28.4452 8.22137 24.6969 13.1347C20.9377 18.059 18.4975 25.0497 17.3653 34.1179C17.0796 35.8656 18.1458 36.745 20.553 36.745Z" fill="var(--fill-0, black)"/>
<path id="Vector_2" d="M37.5592 89.3739C30.4694 89.3739 24.0172 87.5163 18.3894 83.867C12.7836 80.2288 8.26588 75.0187 4.95733 68.3797C1.67077 61.7846 0 54.0684 0 45.4289C0 36.7894 1.70378 28.6555 5.05629 21.9066C8.43079 15.1137 13.1243 9.71671 19.0159 5.84761C24.9296 1.96752 31.5906 0 38.8232 0C47.5947 0 54.8164 2.84686 60.2903 8.45265C65.7423 14.0475 68.5122 23.1266 68.5122 35.4264C68.5122 39.911 65.9731 42.4831 61.5543 42.4831H21.1923C18.7851 42.4831 18.5872 43.4834 18.5872 44.6045C18.5872 55.7721 20.6867 64.2028 24.8416 69.6767C28.9306 75.0846 33.9978 77.7117 40.3071 77.7117C45.2535 77.7117 49.3205 76.3597 52.3982 73.6887C55.5418 70.9627 58.1689 66.1923 60.1914 59.5313C60.8728 57.5858 62.4117 56.5525 64.5331 56.5525C66.083 56.5525 66.9623 57.2121 67.413 57.7616C68.1934 58.7069 68.4023 60.0259 68.0616 61.7956C65.7093 71.919 61.8621 79.0966 56.619 83.1965C51.3869 87.2855 44.9677 89.3629 37.5482 89.3629L37.5592 89.3739ZM38.8342 3.29752C32.2501 3.29752 26.1936 5.07819 20.8296 8.60654C15.4326 12.1459 11.1238 17.1142 8.0131 23.3685C4.88042 29.6667 3.29755 37.0862 3.29755 45.4289C3.29755 53.7716 4.84741 60.7734 7.90314 66.9068C10.9369 73.0072 15.0699 77.7776 20.1811 81.0971C25.2593 84.4056 31.107 86.0764 37.5482 86.0764C43.9894 86.0764 49.958 84.2408 54.5855 80.6025C59.2131 76.9752 62.6646 70.4241 64.8299 61.1141C64.9838 60.3007 64.8849 59.96 64.8629 59.883C64.8409 59.894 64.731 59.8611 64.5221 59.8611C63.6318 59.8611 63.456 60.1798 63.3131 60.5645C61.1257 67.7641 58.1798 73.0402 54.5525 76.1838C50.8593 79.3934 46.0669 81.0202 40.3071 81.0202C32.9976 81.0202 26.9081 77.8765 22.2145 71.6772C17.62 65.6207 15.2897 56.5196 15.2897 44.6155C15.2897 41.1751 17.4441 39.1966 21.1923 39.1966H61.5543C64.1924 39.1966 65.2146 38.1414 65.2146 35.4374C65.2146 24.028 62.7634 15.7292 57.927 10.7609C53.1016 5.81464 46.6714 3.30851 38.8232 3.30851L38.8342 3.29752ZM42.0219 38.3832H20.5658C18.6532 38.3832 17.3122 37.9105 16.4878 36.9323C16.0151 36.3717 15.4985 35.3824 15.7513 33.8436C16.9055 24.5775 19.4776 17.257 23.4017 12.1239C27.4687 6.7929 32.5908 4.09992 38.6254 4.09992C43.7695 4.09992 47.6937 6.43017 50.2548 11.0137C52.651 15.2895 53.86 21.1921 53.86 28.5456C53.86 33.0412 51.8046 38.3942 42.0109 38.3942L42.0219 38.3832ZM19.0049 34.8109C19.0049 34.8109 19.3127 35.0966 20.5658 35.0966H42.0219C49.5953 35.0966 50.5735 31.6013 50.5735 28.5456C50.5735 21.7637 49.4963 16.4107 47.3859 12.6295C45.4184 9.11216 42.5494 7.40844 38.6254 7.40844C33.6021 7.40844 29.4802 9.60679 26.0177 14.1354C22.4564 18.7959 20.1041 25.5888 19.0159 34.3272C18.961 34.7009 19.0049 34.8109 19.0049 34.8109Z" fill="var(--fill-0, black)"/>
</g></svg>
<svg x="763.300" y="0.000" width="46.221" height="124.624" viewBox="0 0 46.2207 124.625" overflow="visible"><g id="Group">
<path id="Vector" d="M4.19716 122.967C2.49342 122.967 1.64704 122.362 1.64704 121.164C1.64704 120.076 2.42747 119.417 3.98831 119.197L6.96712 118.867C9.94591 118.537 12.1333 117.889 13.5512 116.899C14.9692 115.921 15.6726 114.272 15.6726 111.975V18.0396C15.6726 16.0721 15.2769 14.7091 14.5075 13.9397C13.7271 13.1703 12.3421 12.7416 10.3636 12.6317L5.47218 12.137C3.91134 11.9172 3.13098 11.2687 3.13098 10.1695C3.13098 9.07033 3.91134 8.42182 5.47218 8.20198C9.44024 7.54248 12.8368 6.78405 15.6726 5.90471C18.4976 5.03636 20.8388 4.15702 22.6854 3.27768C24.9498 2.1895 26.6425 1.63991 27.7857 1.63991C29.3465 1.63991 30.127 2.51925 30.127 4.26694V111.986C30.127 114.283 30.5886 115.899 31.5119 116.822C32.4352 117.757 34.3807 118.383 37.3485 118.713L42.2399 119.208C43.8008 119.427 44.5812 120.087 44.5812 121.175C44.5812 122.384 43.7348 122.978 42.0311 122.978H4.21916L4.19716 122.967Z" fill="var(--fill-0, black)"/>
<path id="Vector_2" d="M42.0109 124.614H4.19892C0.307805 124.614 2.51122e-05 121.975 2.51122e-05 121.162C2.51122e-05 120.239 0.362737 118.04 3.75922 117.568L6.78198 117.238C9.46399 116.941 11.4316 116.37 12.6077 115.556C13.564 114.897 14.0256 113.732 14.0256 111.995V18.0375C14.0256 16.004 13.553 15.3116 13.3441 15.1137C13.0803 14.8499 12.3109 14.3883 10.2664 14.2783L5.30911 13.7837C1.85767 13.3001 1.48396 11.1017 1.48396 10.1784C1.48396 9.25511 1.84668 7.05676 5.24316 6.58411C9.07931 5.94659 12.4428 5.19915 15.1798 4.3418C17.9167 3.48444 20.214 2.63807 21.9727 1.8027C24.5118 0.571625 26.3585 5.39517e-05 27.7764 5.39517e-05C30.2386 5.39517e-05 31.7665 1.63782 31.7665 4.27584V111.995C31.7665 113.776 32.0853 115.084 32.6678 115.666C32.9646 115.963 34.0198 116.688 37.5262 117.073L42.3956 117.568C45.847 118.051 46.2207 120.25 46.2207 121.173C46.2207 121.986 45.9129 124.625 42.0218 124.625L42.0109 124.614ZM3.29758 121.195C3.4075 121.239 3.66032 121.316 4.19892 121.316H42.0109C42.7583 121.316 42.9672 121.173 42.9672 121.173C42.9452 121.195 42.9122 121.239 42.9012 121.272L44.4841 120.635L42.9012 121.096C42.9012 121.096 42.7803 120.942 41.9889 120.832L37.1635 120.349C33.701 119.964 31.5357 119.217 30.3156 117.985C29.0625 116.732 28.4579 114.765 28.4579 111.995V4.26485C28.4579 3.28659 28.2711 3.28659 27.7654 3.28659C27.2598 3.28659 26.0507 3.47345 23.3797 4.75948C21.4671 5.6718 19.0379 6.58411 16.136 7.47444C13.2452 8.36478 9.74982 9.15618 5.7268 9.82668C4.94638 9.9366 4.75951 10.1235 4.75951 10.1235L4.78152 10.2334C4.78152 10.2334 5.0123 10.3982 5.69379 10.4972L10.5192 10.9808C12.8605 11.1127 14.5642 11.6953 15.6524 12.7615C16.7736 13.8607 17.3122 15.5864 17.3122 18.0375V111.984C17.3122 114.842 16.3559 116.952 14.4763 118.26C12.8165 119.414 10.4093 120.151 7.13372 120.514L4.15498 120.843C3.46249 120.942 3.27557 121.129 3.27557 121.129V121.206L3.29758 121.195Z" fill="var(--fill-0, black)"/>
</g></svg>
<svg x="811.500" y="0.000" width="46.232" height="124.624" viewBox="0 0 46.2318 124.625" overflow="visible"><g id="Group">
<path id="Vector" d="M4.19721 122.967C2.49347 122.967 1.64709 122.362 1.64709 121.164C1.64709 120.076 2.42752 119.417 3.98836 119.197L6.96711 118.867C9.9459 118.537 12.1333 117.889 13.5512 116.899C14.9692 115.921 15.6727 114.272 15.6727 111.975V18.0396C15.6727 16.0721 15.2769 14.7091 14.5075 13.9397C13.7271 13.1703 12.3422 12.7416 10.3636 12.6317L5.47223 12.137C3.91139 11.9172 3.13096 11.2687 3.13096 10.1695C3.13096 9.07033 3.91139 8.42182 5.47223 8.20198C9.44029 7.54248 12.8368 6.78405 15.6727 5.90471C18.4976 5.03636 20.8388 4.15702 22.6854 3.27768C24.9498 2.1895 26.6425 1.63991 27.7857 1.63991C29.3465 1.63991 30.1269 2.51925 30.1269 4.26694V111.986C30.1269 114.283 30.5886 115.899 31.5119 116.822C32.4352 117.757 34.3808 118.383 37.3486 118.713L42.24 119.208C43.8008 119.427 44.5812 120.087 44.5812 121.175C44.5812 122.384 43.7349 122.978 42.0311 122.978H4.21915L4.19721 122.967Z" fill="var(--fill-0, black)"/>
<path id="Vector_2" d="M42.0109 124.614H4.19897C0.307857 124.614 7.70066e-05 121.975 7.70066e-05 121.162C7.70066e-05 120.239 0.362789 118.04 3.75927 117.568L6.78203 117.238C9.46404 116.941 11.4316 116.381 12.6077 115.556C13.564 114.897 14.0257 113.721 14.0257 111.995V18.0375C14.0257 16.004 13.553 15.3116 13.3441 15.1137C13.0803 14.8499 12.3109 14.3883 10.2664 14.2783L5.30909 13.7837C1.85765 13.3001 1.48395 11.1017 1.48395 10.1784C1.48395 9.25511 1.84666 7.05676 5.24314 6.58411C9.0793 5.94659 12.4429 5.19915 15.1908 4.3418C17.9388 3.49543 20.2251 2.63807 21.9838 1.8027C24.5229 0.571625 26.3695 5.39517e-05 27.7874 5.39517e-05C30.2496 5.39517e-05 31.7775 1.63782 31.7775 4.27584V111.995C31.7775 113.776 32.0962 115.084 32.6788 115.666C32.9756 115.963 34.0308 116.688 37.5372 117.073L42.4066 117.568C45.858 118.051 46.2318 120.25 46.2318 121.173C46.2318 121.986 45.924 124.625 42.0329 124.625L42.0109 124.614ZM3.29763 121.195C3.40755 121.239 3.66037 121.316 4.19897 121.316H42.0109C42.5385 121.316 42.7913 121.239 42.9012 121.195V121.085C42.9012 121.085 42.6704 120.92 41.9889 120.821L37.1635 120.338C33.7011 119.953 31.5356 119.206 30.3155 117.974C29.0625 116.721 28.4579 114.754 28.4579 111.973V4.26485C28.4579 3.28659 28.2711 3.28659 27.7655 3.28659C27.2599 3.28659 26.0507 3.47345 23.3797 4.75948C21.4671 5.6718 19.0379 6.58411 16.1361 7.47444C13.2452 8.36478 9.74979 9.15618 5.71578 9.82668C4.93536 9.9366 4.74856 10.1235 4.74856 10.1235L4.7705 10.2334C4.7705 10.2334 5.00135 10.3982 5.68284 10.4972L10.5083 10.9808C12.8495 11.1127 14.5533 11.6953 15.6415 12.7505C16.7626 13.8497 17.3012 15.5754 17.3012 18.0265V111.973C17.3012 114.831 16.3449 116.941 14.4653 118.249C12.8055 119.403 10.3983 120.14 7.12277 120.503L4.14396 120.832C3.45147 120.931 3.26462 121.118 3.26462 121.118V121.195H3.29763Z" fill="var(--fill-0, black)"/>
</g></svg>
<svg x="859.240" y="4.910" width="45.144" height="119.700" viewBox="0 0 45.1435 119.7" overflow="visible"><g id="Group">
<path id="Vector" d="M4.83463 118.05C2.7132 118.05 1.64703 117.445 1.64703 116.247C1.64703 115.269 2.57029 114.609 4.40593 114.279L6.95605 113.95C10.4954 113.51 12.7597 112.829 13.76 111.905C14.7493 110.982 15.2439 109.366 15.2439 107.069V51.9783C15.2439 50.0107 14.8482 48.6697 14.0788 47.9663C13.2984 47.2518 11.9134 46.7901 9.93486 46.5703L5.47218 46.0757C3.62555 45.9658 2.71321 45.3612 2.71321 44.273C2.71321 43.4047 3.8454 42.8001 6.10972 42.4704C10.4955 41.9208 14.0348 41.0525 16.7278 39.8434C19.4208 38.6453 22.0369 37.1614 24.587 35.4137C25.8621 34.4244 26.9282 33.9408 27.7746 33.9408C29.0497 33.9408 29.6872 34.6003 29.6872 35.9083V107.069C29.6872 109.366 30.1159 111.004 30.9623 111.993C31.8086 112.971 33.4354 113.576 35.8427 113.796L41.1517 114.29C42.7126 114.51 43.493 115.115 43.493 116.093C43.493 117.401 42.4268 118.061 40.3053 118.061H4.82363L4.83463 118.05ZM22.6854 18.8601C19.7066 18.8601 17.2005 18.0357 15.145 16.398C13.0895 14.7602 12.0673 12.6828 12.0673 10.1656C12.0673 7.64853 13.0895 5.60407 15.145 4.02125C17.2005 2.43844 19.7066 1.64703 22.6854 1.64703C25.6642 1.64703 28.1373 2.43844 30.1159 4.02125C32.0944 5.60407 33.0947 7.65952 33.0947 10.1656C33.0947 12.6718 32.1054 14.7602 30.1159 16.398C28.1264 18.0357 25.6532 18.8601 22.6854 18.8601Z" fill="var(--fill-0, black)"/>
<path id="Vector_2" d="M40.3181 119.7H4.83639C0.472629 119.7 2.00386e-05 117.282 2.00386e-05 116.249C2.00386e-05 114.941 0.71449 113.259 4.12196 112.654L6.74896 112.314C11.0688 111.786 12.2999 111.006 12.6296 110.698C13.2562 110.104 13.5969 108.851 13.5969 107.06V51.969C13.5969 49.9026 13.1133 49.309 12.9594 49.1661C12.6736 48.9023 11.8712 48.4297 9.74978 48.1988L5.2871 47.7042C1.47292 47.4844 1.05519 45.2201 1.05519 44.2638C1.05519 41.5268 4.67152 40.9992 5.86963 40.8234C10.1125 40.2958 13.531 39.4604 16.0591 38.3282C18.6532 37.1741 21.2032 35.7342 23.6544 34.0525C25.1603 32.8873 26.5343 32.2828 27.7764 32.2828C29.9747 32.2828 31.3377 33.6677 31.3377 35.8991V107.06C31.3377 109.401 31.8104 110.434 32.2171 110.896C32.5359 111.258 33.4372 111.907 35.9983 112.138L41.3073 112.632C44.7698 113.116 45.1435 115.205 45.1435 116.073C45.1435 117.161 44.6709 119.689 40.3071 119.689L40.3181 119.7ZM3.48442 116.249C3.71525 116.315 4.13293 116.403 4.8474 116.403H40.3291C41.3514 116.403 41.7471 116.216 41.846 116.161C41.7251 116.095 41.4723 115.996 40.9447 115.919L35.7125 115.435C32.8436 115.172 30.8871 114.402 29.733 113.072C28.6008 111.764 28.0512 109.808 28.0512 107.071V35.9101C28.0512 35.7672 28.0402 35.6682 28.0292 35.6133C27.9853 35.6133 27.9083 35.5913 27.7984 35.5913C27.6335 35.5913 26.974 35.6682 25.622 36.7235C22.929 38.5701 20.203 40.1089 17.4221 41.351C14.5972 42.615 10.8709 43.5383 6.33127 44.1099C5.75969 44.1978 5.33106 44.2858 5.0123 44.3737C5.16619 44.3957 5.353 44.4177 5.58383 44.4287L10.1345 44.9233C12.4977 45.1871 14.1575 45.7807 15.2127 46.7369C16.3559 47.7921 16.9164 49.4959 16.9164 51.969V107.06C16.9164 109.819 16.246 111.852 14.916 113.094C13.6299 114.303 11.1787 115.084 7.18866 115.578L4.64955 115.908C4.05599 116.018 3.70428 116.15 3.50642 116.249H3.48442ZM22.6871 20.5106C19.3456 20.5106 16.4548 19.5653 14.1135 17.6967C11.6623 15.7402 10.4093 13.2121 10.4093 10.1784C10.4093 7.14466 11.6624 4.62755 14.1355 2.72597C16.4768 0.923327 19.3566 1.99571e-05 22.6871 1.99571e-05C26.0177 1.99571e-05 28.8756 0.923327 31.1509 2.73697C33.5361 4.64953 34.7452 7.14466 34.7452 10.1784C34.7452 13.2121 33.5471 15.7182 31.1729 17.6748C28.8866 19.5543 26.0397 20.5106 22.6871 20.5106ZM22.6871 3.28655C20.0601 3.28655 17.9277 3.95705 16.158 5.32003C14.5202 6.58408 13.7178 8.16689 13.7178 10.1674C13.7178 12.1679 14.5202 13.7837 16.18 15.1137C17.9497 16.5206 20.0821 17.2131 22.6871 17.2131C25.2922 17.2131 27.3807 16.5316 29.0734 15.1357C30.6672 13.8166 31.4477 12.1899 31.4477 10.1784C31.4477 8.16689 30.6782 6.58408 29.0954 5.32003C27.3917 3.96804 25.2922 3.30854 22.6871 3.30854V3.28655Z" fill="var(--fill-0, black)"/>
</g></svg>
<svg x="897.580" y="23.270" width="84.033" height="136.605" viewBox="0 0 84.0327 136.606" overflow="visible"><g id="Group">
<path id="Vector" d="M36.5017 134.957C25.7407 134.957 17.244 133.286 11.0116 129.956C4.77923 126.614 1.66854 122.602 1.66854 117.909C1.66854 115.941 2.02031 114.161 2.73478 112.578C3.43826 110.995 4.96609 109.159 7.29636 107.082C9.63762 105.005 13.21 102.323 18.0244 99.047C19.7281 97.8489 20.5745 96.7277 20.5745 95.6835C20.5745 94.6393 19.7281 93.8589 18.0244 93.3093C12.9242 91.6715 9.87946 89.5611 8.89019 87.0001C7.90092 84.428 9.09901 82.0538 12.5065 79.8664L27.8072 69.699C29.5109 68.6109 29.434 67.6766 27.5983 66.9071C21.7946 64.7198 17.1891 61.3343 13.7926 56.7398C10.3961 52.1452 8.69234 47.2319 8.69234 41.9778C8.69234 36.7238 10.1103 32.415 12.9462 28.3701C15.7821 24.3251 19.5963 21.1045 24.4217 18.6973C29.2361 16.2901 34.6221 15.092 40.5687 15.092C43.9652 15.092 47.2188 15.5317 50.3405 16.4C52.319 16.9496 53.5281 16.455 53.9568 14.9271C55.2318 10.7723 57.6061 7.51871 61.0685 5.16648C64.5419 2.81424 67.9714 1.63812 71.3679 1.63812C74.7643 1.63812 77.2815 2.37457 79.337 3.84747C81.3924 5.32036 82.4147 7.15598 82.4147 9.34334C82.4147 11.2009 81.7002 12.6738 80.2932 13.773C78.8753 14.8722 77.1056 15.4108 74.9842 15.4108C73.1375 15.4108 71.7965 15.136 70.9502 14.5864C70.1038 14.0368 69.3234 13.4982 68.6089 12.9486C67.8944 12.399 66.7622 12.1243 65.2124 12.1243C61.8159 12.1243 59.6835 13.5422 58.8371 16.3891C58.4085 17.4882 58.4414 18.4115 58.947 19.181C59.4417 19.9504 60.1891 20.7088 61.1784 21.4782C64.5749 23.9953 67.2349 27.0511 69.1475 30.6563C71.0601 34.2616 72.0163 38.2516 72.0163 42.6264C72.0163 47.8694 70.6314 52.5739 67.8725 56.7288C65.1135 60.8837 61.3542 64.1592 56.6168 66.5664C51.8683 68.9736 46.5263 70.1717 40.5797 70.1717C38.0296 70.1717 35.8312 70.5784 33.9956 71.4028C32.149 72.2271 30.3133 73.4032 28.4667 74.9311L24.8504 78.0418C23.0037 79.7895 22.4761 81.4602 23.2565 83.043C24.037 84.6258 25.9825 85.4172 29.0932 85.4172H47.3616C57.5621 85.4172 65.6301 87.3628 71.5767 91.2319C77.5233 95.112 80.5021 100.443 80.5021 107.214C80.5021 112.567 78.5125 117.326 74.5555 121.481C70.5874 125.636 65.3114 128.912 58.7272 131.319C52.1431 133.726 44.7456 134.924 36.5237 134.924L36.5017 134.957ZM39.0518 131.352C44.152 131.352 48.8236 130.472 53.0774 128.725C57.3313 126.977 60.6838 124.548 63.1679 121.426C65.6411 118.316 66.8832 114.787 66.8832 110.852C66.8832 105.939 65.0036 102.136 61.2554 99.4537C57.4961 96.7717 52.231 95.4417 45.4271 95.4417H40.5467C36.15 95.4417 32.8634 95.7715 30.665 96.42C28.4667 97.0795 26.3782 98.2226 24.3997 99.8604C20.0029 103.466 17.244 106.368 16.1118 108.555C14.9797 110.742 14.4081 112.985 14.4081 115.282C14.4081 120.096 16.5625 123.976 20.8823 126.922C25.2021 129.868 31.2586 131.352 39.0408 131.352H39.0518ZM40.3269 66.0937C45.4271 66.0937 49.4611 63.9613 52.4399 59.6965C55.4187 55.4318 56.9026 49.6391 56.9026 42.3186C56.9026 34.9981 55.3747 29.5022 52.33 25.1825C49.2852 20.8627 45.2842 18.7083 40.3269 18.7083C35.3696 18.7083 31.3685 20.8627 28.3238 25.1825C25.279 29.5022 23.7512 35.2069 23.7512 42.3186C23.7512 49.4302 25.2351 55.4318 28.2139 59.6965C31.1927 63.9613 35.2267 66.0937 40.3269 66.0937Z" fill="var(--fill-0, black)"/>
<path id="Vector_2" d="M36.493 136.606C25.5011 136.606 16.6637 134.858 10.2225 131.406C3.44054 127.779 4.16047e-05 123.24 4.16047e-05 117.898C4.16047e-05 115.699 0.40678 113.677 1.20918 111.896C2.01159 110.082 3.64934 108.104 6.18846 105.851C8.5627 103.74 12.234 100.992 17.0814 97.6837C18.5213 96.6725 18.906 95.947 18.906 95.6832C18.906 95.5733 18.5543 95.2106 17.4991 94.8698C11.8493 93.0562 8.51877 90.671 7.33165 87.5823C6.43032 85.2521 6.44131 81.7897 11.5855 78.4702L26.7872 68.3687C20.8296 66.0934 15.9822 62.5101 12.4318 57.7177C8.83748 52.8594 7.01284 47.5614 7.01284 41.9776C7.01284 36.3937 8.54073 31.7332 11.5635 27.4245C14.5423 23.1707 18.6093 19.7412 23.6545 17.2241C28.6778 14.718 34.3606 13.443 40.538 13.443C44.0664 13.443 47.5068 13.9046 50.7494 14.8169C52.1234 15.2016 52.2224 14.8499 52.3323 14.4872C53.7282 9.9366 56.3442 6.36428 60.1145 3.8032C63.8407 1.2751 67.6219 5.95957e-05 71.3372 5.95957e-05C75.0524 5.95957e-05 77.9323 0.846423 80.2625 2.51717C82.7577 4.31982 84.0327 6.61709 84.0327 9.35404C84.0327 11.7063 83.0765 13.6848 81.2628 15.0807C79.5591 16.3997 77.4267 17.0593 74.9425 17.0593C72.7551 17.0593 71.1393 16.7075 70.0071 15.9711C69.1168 15.3995 68.2924 14.8169 67.556 14.2564C67.3691 14.1135 66.7646 13.7837 65.1707 13.7837C61.7413 13.7837 60.807 15.4325 60.3783 16.8724L60.3343 16.9933C60.0045 17.8507 60.2024 18.1584 60.2904 18.2793C60.6861 18.8949 61.3016 19.5214 62.148 20.1699C65.7093 22.8079 68.5452 26.0835 70.5677 29.8866C72.6012 33.7227 73.6235 38.0095 73.6235 42.6261C73.6235 48.1769 72.1396 53.2331 69.2047 57.6408C66.2919 62.0155 62.3019 65.5109 57.3225 68.039C52.3652 70.5561 46.7154 71.8201 40.538 71.8201C38.2297 71.8201 36.2402 72.1829 34.6244 72.9083C32.9206 73.6668 31.1949 74.7769 29.4802 76.1949L25.8859 79.2945C24.0612 81.0312 24.5229 81.9655 24.6988 82.3173C25.2923 83.5264 27.3917 83.7792 29.0625 83.7792H47.3309C57.8062 83.7792 66.2479 85.8236 72.4473 89.8686C78.8666 94.0565 82.1201 99.9041 82.1201 107.236C82.1201 112.995 79.9657 118.183 75.7119 122.635C71.5899 126.955 66.0501 130.406 59.2571 132.879C52.5191 135.341 44.8578 136.584 36.493 136.584V136.606ZM40.527 16.7515C34.8662 16.7515 29.6781 17.9056 25.1165 20.1809C20.5768 22.4452 16.9165 25.5229 14.2565 29.326C11.6404 33.0632 10.3104 37.328 10.3104 41.9885C10.3104 46.649 11.9152 51.4854 15.0809 55.7612C18.2685 60.07 22.6653 63.3015 28.1392 65.368C29.711 66.0275 30.5354 66.9068 30.6343 68.028C30.7332 69.1491 30.0738 70.1824 28.6668 71.0837L13.3882 81.2291C9.39813 83.8012 10.1345 85.6807 10.3984 86.3952C11.1788 88.4397 13.9817 90.2753 18.4993 91.7372C21.5551 92.7155 22.1926 94.4302 22.1926 95.6832C22.1926 97.31 21.1264 98.8489 18.95 100.388C14.1906 103.63 10.6402 106.29 8.36489 108.313C6.21049 110.225 4.81449 111.885 4.20994 113.248C3.59439 114.611 3.28666 116.172 3.28666 117.909C3.28666 121.986 6.05656 125.449 11.7613 128.505C17.7189 131.692 26.0398 133.308 36.471 133.308C44.4511 133.308 51.7277 132.132 58.103 129.802C64.4123 127.493 69.5345 124.328 73.3047 120.371C76.9979 116.502 78.8006 112.204 78.8006 107.247C78.8006 101.003 76.1296 96.2328 70.6227 92.6385C64.9728 88.9563 57.1247 87.0877 47.309 87.0877H29.0405C25.2484 87.0877 22.7861 85.9775 21.7199 83.7902C20.9395 82.2183 20.6428 79.7342 23.6545 76.8654L27.3258 73.6997C29.2934 72.062 31.2828 70.7979 33.2614 69.9186C35.3059 69.0063 37.7461 68.5446 40.516 68.5446C46.1768 68.5446 51.321 67.3905 55.8167 65.1152C60.2794 62.8509 63.8627 59.7292 66.4458 55.8381C69.0069 51.98 70.3149 47.5394 70.3149 42.648C70.3149 38.5701 69.4136 34.7999 67.6439 31.4475C65.8632 28.084 63.3351 25.1822 60.1475 22.8189C58.9823 21.9286 58.1029 21.0163 57.5094 20.093C56.9708 19.2686 56.4761 17.8616 57.2236 15.8831C57.982 13.41 59.9716 10.5082 65.1597 10.5082C67.1053 10.5082 68.5452 10.8929 69.5675 11.6733C70.227 12.1789 70.9744 12.7065 71.7878 13.2341C72.1066 13.443 72.953 13.7947 74.9315 13.7947C76.7012 13.7947 78.1081 13.366 79.2403 12.4977C80.2515 11.7173 80.7242 10.728 80.7242 9.37602C80.7242 7.73825 79.9438 6.37527 78.3279 5.22114C76.5693 3.95709 74.217 3.31957 71.3261 3.31957C68.2814 3.31957 65.1268 4.40775 61.9501 6.56213C58.7735 8.71652 56.6631 11.6183 55.4869 15.4325C55.2451 16.3008 54.091 19.1807 49.8591 18.0155C46.8913 17.1802 43.7586 16.7625 40.527 16.7625V16.7515ZM39.0431 133C30.9531 133 24.5229 131.417 19.9503 128.285C15.1798 125.02 12.7506 120.645 12.7506 115.282C12.7506 112.72 13.3881 110.203 14.6302 107.796C15.8723 105.389 18.7192 102.377 23.3358 98.596C25.4792 96.8264 27.7765 95.5623 30.1727 94.8479C32.5359 94.1444 35.9214 93.7927 40.527 93.7927H45.4184C52.5301 93.7927 58.1799 95.2436 62.2029 98.1124C66.4018 101.113 68.5232 105.389 68.5232 110.852C68.5232 115.15 67.1492 119.052 64.4452 122.459C61.7962 125.779 58.1799 128.406 53.6953 130.252C49.2655 132.077 44.3302 133 39.0431 133ZM40.527 97.0902C36.3061 97.0902 33.1514 97.3979 31.118 98.0025C29.1504 98.596 27.2269 99.6403 25.4242 101.135C21.2143 104.587 18.5763 107.334 17.5541 109.313C16.5428 111.248 16.0372 113.248 16.0372 115.282C16.0372 119.546 17.9168 122.91 21.7969 125.559C25.8199 128.307 31.6126 129.692 39.0321 129.692C43.8905 129.692 48.3972 128.856 52.4312 127.197C56.3992 125.57 59.5649 123.273 61.8622 120.404C64.1265 117.557 65.2257 114.435 65.2257 110.852C65.2257 106.466 63.6099 103.169 60.2904 100.794C56.8389 98.3322 51.8376 97.0902 45.4184 97.0902H40.527ZM40.3182 67.7422C34.6684 67.7422 30.1397 65.357 26.8532 60.6415C23.6985 56.1129 22.0937 49.9576 22.0937 42.3183C22.0937 34.679 23.7315 28.8094 26.9631 24.2369C30.3156 19.4774 34.8113 17.0593 40.3182 17.0593C45.8251 17.0593 50.3097 19.4774 53.6622 24.2369C56.8938 28.8204 58.5316 34.9099 58.5316 42.3183C58.5316 49.7267 56.9269 56.1129 53.7722 60.6415C50.4856 65.357 45.957 67.7422 40.3072 67.7422H40.3182ZM40.3182 20.3568C35.8885 20.3568 32.4041 22.2474 29.6671 26.1384C26.8312 30.1504 25.4022 35.5913 25.4022 42.3183C25.4022 49.0452 26.8092 54.7939 29.5681 58.751C32.2392 62.5761 35.7565 64.4447 40.3291 64.4447C44.9017 64.4447 48.4192 62.5871 51.0902 58.751C53.8491 54.7939 55.2561 49.2651 55.2561 42.3183C55.2561 35.3715 53.8161 30.1504 50.9912 26.1384C48.2433 22.2474 44.7589 20.3568 40.3401 20.3568H40.3182Z" fill="var(--fill-0, black)"/>
</g></svg>
<svg x="977.540" y="36.720" width="68.501" height="89.374" viewBox="0 0 68.5011 89.374" overflow="visible"><g id="Group">
<path id="Vector" d="M37.5464 87.7357C30.7535 87.7357 24.653 85.988 19.278 82.4926C13.892 78.9972 9.61615 74.051 6.42851 67.6538C3.24088 61.2566 1.64702 53.8591 1.64702 45.4394C1.64702 37.0198 3.27383 29.2046 6.53841 22.6535C9.79199 16.0915 14.2547 10.9583 19.9155 7.24311C25.5763 3.5279 31.8856 1.67029 38.8214 1.67029C47.1753 1.67029 53.9353 4.3193 59.1124 9.61733C64.2786 14.9153 66.8617 23.5329 66.8617 35.4369C66.8617 39.0422 65.092 40.8449 61.5526 40.8449H21.1906C18.3547 40.8449 16.9367 42.0979 16.9367 44.615C16.9367 56.2004 19.1351 64.8948 23.5208 70.6875C27.9066 76.4801 33.5014 79.382 40.3054 79.382C45.6804 79.382 50.0771 77.9091 53.4736 74.9523C56.8701 72.0065 59.64 67.0272 61.7614 60.0365C62.1901 58.8384 63.1024 58.2338 64.5204 58.2338C66.2241 58.2338 66.8616 59.333 66.433 61.5094C64.1686 71.2371 60.5523 78.041 55.595 81.921C50.6377 85.8011 44.6142 87.7357 37.5354 87.7357H37.5464ZM20.553 36.745H42.0091C48.8021 36.745 52.2095 34.008 52.2095 28.5451C52.2095 21.4444 51.0774 15.8716 48.8131 11.8267C46.5487 7.7817 43.1522 5.75922 38.6126 5.75922C33.0947 5.75922 28.4452 8.22137 24.697 13.1347C20.9377 18.059 18.4976 25.0497 17.3654 34.1179C17.0796 35.8656 18.1458 36.745 20.553 36.745Z" fill="var(--fill-0, black)"/>
<path id="Vector_2" d="M37.5591 89.3739C30.4584 89.3739 24.0172 87.5163 18.3893 83.867C12.7835 80.2288 8.26582 75.0187 4.95727 68.3797C1.67071 61.7846 5.8107e-06 54.0684 5.8107e-06 45.4289C5.8107e-06 36.7894 1.70371 28.6555 5.05623 21.9066C8.43072 15.1137 13.1242 9.71671 19.0049 5.84761C24.9185 1.96752 31.5796 0 38.8122 0C47.5837 0 54.8053 2.84686 60.2792 8.45265C65.7312 14.0475 68.5011 23.1266 68.5011 35.4264C68.5011 39.911 65.9621 42.4831 61.5433 42.4831H21.1812C18.785 42.4831 18.5872 43.4834 18.5872 44.6045C18.5872 55.7721 20.6866 64.2028 24.8415 69.6767C28.9415 75.0846 33.9978 77.7117 40.3071 77.7117C45.2534 77.7117 49.3204 76.3597 52.3981 73.6887C55.5418 70.9627 58.1688 66.1923 60.1804 59.5313C60.8728 57.5858 62.4007 56.5525 64.5221 56.5525C66.0719 56.5525 66.9513 57.2121 67.4019 57.7726C68.1824 58.7179 68.3912 60.0369 68.0505 61.8066C65.6982 71.93 61.8511 79.1076 56.6189 83.1965C51.3868 87.2855 44.9676 89.3629 37.5481 89.3629L37.5591 89.3739ZM38.8341 3.29752C32.25 3.29752 26.1935 5.07819 20.8295 8.60654C15.4325 12.1459 11.1237 17.1142 8.02404 23.3685C4.89136 29.6667 3.30849 37.0862 3.30849 45.4289C3.30849 53.7716 4.85835 60.7734 7.91408 66.9068C10.9478 73.0072 15.0808 77.7776 20.192 81.0971C25.2702 84.4056 31.1179 86.0764 37.5591 86.0764C44.0003 86.0764 49.9579 84.2408 54.5965 80.6025C59.224 76.9862 62.6755 70.4241 64.8409 61.1141C64.9948 60.3117 64.9068 59.96 64.8738 59.883C64.8518 59.894 64.7419 59.8611 64.5331 59.8611C63.6427 59.8611 63.4559 60.1798 63.324 60.5645C61.1476 67.7531 58.1908 73.0292 54.5635 76.1838C50.8702 79.3934 46.0778 81.0202 40.3181 81.0202C33.0085 81.0202 26.919 77.8765 22.2255 71.6772C17.6309 65.6207 15.3116 56.5196 15.3116 44.6155C15.3116 41.1751 17.466 39.1966 21.2032 39.1966H61.5653C64.2033 39.1966 65.2256 38.1414 65.2256 35.4374C65.2256 24.028 62.7744 15.7292 57.938 10.7609C53.1126 5.81464 46.6823 3.30851 38.8341 3.30851V3.29752ZM42.0218 38.3832H20.5657C18.6531 38.3832 17.3122 37.9105 16.4878 36.9323C16.0151 36.3717 15.4985 35.3824 15.7513 33.8436C16.9054 24.5775 19.4775 17.2461 23.4016 12.1239C27.4686 6.7929 32.5908 4.09992 38.6253 4.09992C43.7695 4.09992 47.6936 6.43017 50.2547 11.0137C52.6509 15.2895 53.86 21.1921 53.86 28.5456C53.86 33.0412 51.8045 38.3942 42.0108 38.3942L42.0218 38.3832ZM18.9939 34.8109C18.9939 34.8109 19.3016 35.0966 20.5547 35.0966H42.0108C49.5842 35.0966 50.5625 31.6013 50.5625 28.5456C50.5625 21.7637 49.4853 16.4107 47.3748 12.6295C45.4073 9.11216 42.5384 7.40844 38.6143 7.40844C33.591 7.40844 29.4691 9.60679 26.0067 14.1354C22.4453 18.7959 20.0931 25.5888 19.0049 34.3272C18.9499 34.7009 18.9939 34.8109 18.9939 34.8109Z" fill="var(--fill-0, black)"/>
</g></svg>
<svg x="1047.050" y="36.720" width="97.630" height="87.912" viewBox="0 0 97.6296 87.9121" overflow="visible"><g id="Group">
<path id="Vector" d="M4.84177 86.2543C2.72035 86.2543 1.65418 85.6498 1.65418 84.4517C1.65418 83.4734 2.57751 82.8139 4.41314 82.4842L6.96319 82.1544C9.94198 81.7148 11.8875 81.0333 12.8109 80.11C13.7342 79.1866 14.1958 77.5709 14.1958 75.2736V20.1829C14.1958 18.2154 13.8001 16.8744 13.0307 16.1709C12.2503 15.4565 10.8653 14.9948 8.88677 14.775L4.42408 14.2804C2.57745 14.1704 1.66518 13.5659 1.66518 12.4777C1.66518 11.6094 2.7973 11.0048 5.06162 10.6751C9.44737 10.1255 12.8109 9.25713 15.1521 8.04804C17.4934 6.84994 19.9336 5.36606 22.4837 3.61837C23.7588 2.62911 24.825 2.14547 25.6713 2.14547C26.9464 2.14547 27.5839 2.80498 27.5839 4.113V11.4885C27.5839 12.4667 28.0456 13.1042 28.9689 13.368C29.8922 13.6428 30.9144 13.3461 32.0466 12.4667C37.7074 8.31184 42.6977 5.47597 47.0285 3.93713C51.3483 2.40928 55.9099 1.63985 60.7244 1.63985C67.0996 1.63985 72.1998 3.36556 76.025 6.80597C79.8501 10.2464 81.7627 15.3026 81.7627 21.9746V75.2626C81.7627 77.5599 82.2244 79.1757 83.1477 80.099C84.071 81.0333 86.0166 81.6598 88.9844 81.9895L93.6559 82.4842C95.2168 82.704 95.9972 83.3635 95.9972 84.4517C95.9972 85.6608 95.1508 86.2543 93.447 86.2543H57.7565C55.767 86.2543 54.7777 85.6498 54.7777 84.4517C54.7777 83.3635 55.5582 82.704 57.119 82.4842L60.0978 82.1544C63.0766 81.8247 65.0222 81.1762 65.9455 80.1869C66.8688 79.2086 67.3305 77.5599 67.3305 75.2626V23.7772C67.3305 18.4243 66.0554 14.6541 63.5053 12.4667C60.9551 10.2794 57.3498 9.19118 52.6673 9.19118C47.9848 9.19118 44.0607 10.2024 40.4554 12.2249C36.8391 14.2474 33.9702 16.9294 31.8487 20.2599C29.7273 23.5904 28.6612 27.2836 28.6612 31.3286V75.2736C28.6612 77.5709 29.1228 79.2086 30.0461 80.1979C30.9694 81.1762 32.9149 81.7807 35.8827 82.0005L41.6205 82.4952C43.1814 82.715 43.9618 83.3195 43.9618 84.2978C43.9618 85.6058 42.8955 86.2653 40.7741 86.2653H4.87478L4.84177 86.2543Z" fill="var(--fill-0, black)"/>
<path id="Vector_2" d="M93.4306 87.901H57.7401C53.5632 87.901 53.1126 85.4828 53.1126 84.4496C53.1126 83.5263 53.4753 81.3279 56.8718 80.8553L59.8946 80.5255C63.379 80.1408 64.4232 79.3824 64.72 79.0636C65.3245 78.4151 65.6543 77.0961 65.6543 75.2715V23.7861C65.6543 18.9608 64.5551 15.5753 62.4007 13.7287C60.1694 11.8161 56.8828 10.8489 52.64 10.8489C48.3971 10.8489 44.5829 11.7941 41.2304 13.6737C37.8779 15.5533 35.1739 18.0704 33.2173 21.1591C31.2718 24.2148 30.2825 27.6333 30.2825 31.3375V75.2825C30.2825 77.1071 30.6013 78.4261 31.2168 79.0746C31.5026 79.3824 32.5249 80.1079 35.9763 80.3607L41.736 80.8553C45.2204 81.3389 45.5832 83.4274 45.5832 84.2957C45.5832 85.3839 45.1105 87.912 40.7468 87.912H4.84738C0.483615 87.912 0.0110061 85.4938 0.0110061 84.4606C0.0110061 83.1526 0.725476 81.4708 4.13295 80.8663L6.75995 80.5255C10.2663 80.0089 11.3436 79.2505 11.6403 78.9537C12.2229 78.3712 12.5417 77.0631 12.5417 75.2825V20.1918C12.5417 18.1364 12.0581 17.5318 11.9042 17.3889C11.6184 17.1251 10.8159 16.6525 8.69452 16.4217L4.23184 15.927C0.417667 15.7072 3.54741e-06 13.4429 3.54741e-06 12.4866C3.54741e-06 9.74968 3.61633 9.22208 4.81444 9.04621C9.02431 8.5186 12.2339 7.69422 14.3883 6.58406C16.6416 5.42993 19.0488 3.96802 21.544 2.2643C23.0499 1.09918 24.4239 0.494629 25.6659 0.494629C27.8643 0.494629 29.2273 1.87959 29.2273 4.11092V11.4864C29.2273 11.6403 29.2493 11.7172 29.2603 11.7282C29.2603 11.7282 29.3153 11.7502 29.4252 11.7832C29.9308 11.937 30.6452 11.4534 31.03 11.1566C36.8227 6.90282 42.0109 3.95703 46.4626 2.38521C50.9472 0.8024 55.7396 0 60.7189 0C67.4789 0 72.9968 1.87959 77.1188 5.58381C81.2847 9.332 83.3951 14.8499 83.3951 21.9725V75.2605C83.3951 77.0412 83.7139 78.3492 84.2965 78.9317C84.5932 79.2285 85.6485 79.954 89.1549 80.3387L93.8154 80.8333C97.2669 81.3169 97.6296 83.5153 97.6296 84.4386C97.6296 85.252 97.3217 87.89 93.4306 87.89V87.901ZM56.4102 84.4166C56.5311 84.4826 56.9048 84.6035 57.7511 84.6035H93.4416C94.1891 84.6035 94.3979 84.4606 94.3979 84.4606C94.3759 84.4826 94.343 84.5265 94.332 84.5595L95.9148 83.922L94.332 84.3836C94.332 84.3836 94.2112 84.2298 93.4198 84.1198L88.8031 83.6362C85.3517 83.2515 83.1863 82.5041 81.9662 81.273C80.7131 80.0199 80.1085 78.0524 80.1085 75.2715V21.9835C80.1085 15.8391 78.3608 11.1456 74.9204 8.04596C71.425 4.90232 66.6546 3.30851 60.7299 3.30851C56.1244 3.30851 51.7056 4.04496 47.5837 5.50686C43.4288 6.97976 38.5374 9.77166 33.0305 13.8056C31.4916 14.9927 29.9528 15.3884 28.5018 14.9598C26.8751 14.4871 25.9407 13.2231 25.9407 11.4974V4.12191C25.9407 3.97901 25.9298 3.88009 25.9188 3.82513C25.8748 3.82513 25.7979 3.80314 25.6879 3.80314C25.5231 3.80314 24.8746 3.88009 23.5116 4.9353C20.8296 6.78191 18.3014 8.29877 15.9272 9.51885C13.3991 10.8269 9.91465 11.7392 5.28708 12.3108C4.7155 12.3987 4.28681 12.4866 3.96804 12.5746C4.12193 12.5965 4.30881 12.6185 4.53964 12.6295L9.09028 13.1241C11.4535 13.3879 13.1133 13.9815 14.1575 14.9378C15.3116 15.993 15.8612 17.6967 15.8612 20.1699V75.2605C15.8612 78.0304 15.2567 79.9979 14.0036 81.262C12.7945 82.4821 10.6401 83.2845 7.23266 83.7791L4.64953 84.1089C4.05597 84.2188 3.70426 84.3507 3.5064 84.4496C3.73723 84.5155 4.15491 84.6035 4.86938 84.6035H40.7687C41.791 84.6035 42.1867 84.4166 42.2966 84.3617C42.1757 84.2957 41.9119 84.1968 41.3953 84.1198L35.7455 83.6362C32.2831 83.3834 30.0847 82.6469 28.8426 81.3169C27.6115 80.0089 27.018 78.0304 27.018 75.2715V31.3265C27.018 26.9847 28.1721 22.9618 30.4694 19.3785C32.7227 15.8281 35.8224 12.9373 39.6586 10.7939C43.5057 8.63951 47.8805 7.55133 52.6839 7.55133C57.7402 7.55133 61.7522 8.7934 64.5881 11.2226C67.5119 13.7287 68.9848 17.9495 68.9848 23.7861V75.2715C68.9848 78.0194 68.3912 79.9979 67.1602 81.3169C65.9291 82.625 63.7527 83.4164 60.2902 83.8011L57.3115 84.1308C56.619 84.2298 56.4321 84.4166 56.4321 84.4166H56.4102Z" fill="var(--fill-0, black)"/>
</g></svg>
<svg x="1141.730" y="36.720" width="65.680" height="89.385" viewBox="0 0 65.6802 89.385" overflow="visible"><g id="Group">
<path id="Vector" d="M34.9892 87.727C28.7568 87.727 23.129 86.1112 18.1058 82.8906C13.0715 79.67 9.0814 75.0535 6.10261 69.041C3.12382 63.0285 1.63985 55.8729 1.63985 47.5631C1.63985 38.2751 3.44258 30.1852 7.05889 23.2933C10.6752 16.4125 15.5886 11.0815 21.821 7.31135C28.0534 3.54118 34.9892 1.6506 42.6395 1.6506C49.1467 1.6506 54.2469 2.62886 57.9402 4.60737C59.3581 5.3768 60.0615 6.5749 60.0615 8.21267L60.4902 28.2177C60.4902 29.8554 59.6439 30.6798 57.9402 30.6798C56.3793 30.6798 55.39 29.9653 54.9613 28.5474C52.9718 22.5349 51.0592 17.8854 49.2236 14.6099C47.377 11.3343 45.4644 9.05903 43.4859 7.80597C41.4964 6.55291 39.309 5.92639 36.9018 5.92639C34.0659 5.92639 31.131 7.17945 28.0863 9.69656C25.0416 12.2137 22.4915 16.2806 20.436 21.9084C18.3805 27.5362 17.3582 34.9446 17.3582 44.1227C17.3582 55.8179 19.3039 64.6223 23.195 70.5249C27.0861 76.4275 32.1533 79.3843 38.3857 79.3843C43.343 79.3843 47.4868 77.8014 50.8174 74.6248C54.1479 71.4592 57.0168 65.7215 59.4241 57.4117C59.8527 56.2136 60.6991 55.6091 61.9741 55.6091C63.6669 55.6091 64.3044 56.6973 63.8867 58.8846C62.3258 66.5349 60.1715 72.4704 57.4016 76.6693C54.6426 80.8791 51.378 83.781 47.6298 85.3638C43.8706 86.9466 39.6607 87.738 34.9892 87.738V87.727Z" fill="var(--fill-0, black)"/>
<path id="Vector_2" d="M34.9871 89.3739C28.458 89.3739 22.4784 87.6592 17.2133 84.2737C11.9592 80.9103 7.71637 76.0189 4.62766 69.7646C1.54994 63.5543 0 56.0799 0 47.5503C0 38.0314 1.8907 29.6118 5.60595 22.5221C9.34318 15.3994 14.5093 9.80464 20.9725 5.89158C27.4357 1.97852 34.7233 0 42.6484 0C49.4084 0 54.8164 1.05521 58.7185 3.14364C60.686 4.20984 61.7082 5.95753 61.7082 8.19984L62.1369 28.1719C62.1369 30.7439 60.5322 32.3157 57.9381 32.3157C55.6408 32.3157 54.014 31.1396 53.3875 29.0072C51.4529 23.1706 49.5732 18.5761 47.7925 15.4104C46.0998 12.3877 44.3521 10.2993 42.6154 9.1891C40.8787 8.08993 39.0211 7.56232 36.9107 7.56232C34.4815 7.56232 31.8764 8.70547 29.1504 10.9588C26.3475 13.278 23.9403 17.1471 22.0057 22.4671C20.0272 27.8861 19.0269 35.1736 19.0269 44.1209C19.0269 55.4314 20.8955 64.0159 24.5998 69.6107C28.2051 75.0736 32.7228 77.7227 38.4166 77.7227C42.9782 77.7227 46.6715 76.3157 49.7052 73.4249C52.8049 70.4791 55.5418 64.9283 57.8611 56.9483C58.5536 54.9807 60.0155 53.9585 61.994 53.9585C63.5439 53.9585 64.4232 54.618 64.8739 55.1676C65.6543 56.1129 65.8631 57.4319 65.5224 59.2016C63.9286 67.0387 61.6643 73.227 58.8064 77.5798C55.8825 82.0424 52.3432 85.1751 48.2982 86.8788C44.3522 88.5385 39.8894 89.3849 35.02 89.3849L34.9871 89.3739ZM42.6374 3.29752C35.3278 3.29752 28.6118 5.12216 22.6652 8.71646C16.7296 12.3108 11.9591 17.4659 8.50768 24.0609C5.03425 30.678 3.27555 38.581 3.27555 47.5613C3.27555 55.5743 4.71551 62.554 7.56239 68.3137C10.3873 74.0294 14.2345 78.4701 18.9719 81.5148C23.6984 84.5485 29.0845 86.0874 34.9651 86.0874C39.3948 86.0874 43.4288 85.3289 46.9681 83.8451C50.3976 82.3941 53.4424 79.6792 56.0035 75.7661C58.6306 71.7541 60.7299 65.9615 62.2468 58.553C62.4117 57.7067 62.3128 57.3549 62.2908 57.278C62.2689 57.278 62.1699 57.256 61.961 57.256C61.3785 57.256 61.1587 57.4099 60.9609 57.9595C58.4767 66.544 55.5088 72.4136 51.9365 75.8211C48.3092 79.2835 43.7476 81.0312 38.3726 81.0312C31.5796 81.0312 26.0068 77.7996 21.8079 71.4354C17.7519 65.291 15.6964 56.1019 15.6964 44.1319C15.6964 34.7999 16.7626 27.1386 18.873 21.346C21.0165 15.4654 23.7535 11.1237 27.018 8.43067C30.3486 5.68274 33.6681 4.28678 36.8777 4.28678C39.5817 4.28678 42.0989 5.01224 44.3412 6.43017C46.5835 7.84811 48.639 10.2663 50.6285 13.8166C52.5081 17.1691 54.4756 21.9505 56.4871 28.0399C56.685 28.7104 56.9598 29.0402 57.8941 29.0402C58.7625 29.0402 58.7954 28.8863 58.7954 28.2268L58.3668 8.2548C58.3668 7.1886 57.9931 6.54009 57.1027 6.06745C53.6843 4.24282 48.8038 3.31951 42.5934 3.31951L42.6374 3.29752Z" fill="var(--fill-0, black)"/>
</g></svg>
<svg x="1210.480" y="36.720" width="68.501" height="89.374" viewBox="0 0 68.5012 89.374" overflow="visible"><g id="Group">
<path id="Vector" d="M37.5464 87.7357C30.7535 87.7357 24.653 85.988 19.278 82.4926C13.892 78.9972 9.61608 74.051 6.42844 67.6538C3.24081 61.2566 1.64701 53.8591 1.64701 45.4394C1.64701 37.0198 3.27375 29.2046 6.53833 22.6535C9.79192 16.0915 14.2547 10.9583 19.9155 7.24311C25.5763 3.5279 31.8855 1.67029 38.8214 1.67029C47.1752 1.67029 53.9352 4.3193 59.1124 9.61733C64.2786 14.9153 66.8616 23.5329 66.8616 35.4369C66.8616 39.0422 65.0919 40.8449 61.5526 40.8449H21.1905C18.3546 40.8449 16.9367 42.0979 16.9367 44.615C16.9367 56.2004 19.1351 64.8948 23.5208 70.6875C27.9066 76.4801 33.5014 79.382 40.3054 79.382C45.6804 79.382 50.0771 77.9091 53.4736 74.9523C56.8701 72.0065 59.6399 67.0272 61.7613 60.0365C62.19 58.8384 63.1024 58.2338 64.5203 58.2338C66.224 58.2338 66.8616 59.333 66.4329 61.5094C64.1686 71.2371 60.5523 78.041 55.5949 81.921C50.6376 85.8011 44.6142 87.7357 37.5354 87.7357H37.5464ZM20.5529 36.745H42.009C48.802 36.745 52.2095 34.008 52.2095 28.5451C52.2095 21.4444 51.0774 15.8716 48.8131 11.8267C46.5487 7.7817 43.1522 5.75922 38.6126 5.75922C33.0947 5.75922 28.4451 8.22137 24.6969 13.1347C20.9377 18.059 18.4976 25.0497 17.3654 34.1179C17.0796 35.8656 18.1457 36.745 20.5529 36.745Z" fill="var(--fill-0, black)"/>
<path id="Vector_2" d="M37.5592 89.3739C30.4694 89.3739 24.0172 87.5163 18.3893 83.867C12.7835 80.2288 8.26588 75.0187 4.95733 68.3797C1.67077 61.7846 0 54.0684 0 45.4289C0 36.7894 1.70371 28.6555 5.05622 21.9066C8.43072 15.1137 13.1243 9.71671 19.0049 5.84761C24.9186 1.96752 31.5796 0 38.8123 0C47.5838 0 54.8053 2.84686 60.2792 8.45265C65.7312 14.0475 68.5011 23.1266 68.5011 35.4264C68.5011 39.911 65.962 42.4831 61.5433 42.4831H21.1813C18.7851 42.4831 18.5762 43.4834 18.5762 44.6045C18.5762 55.7721 20.6756 64.2028 24.8305 69.6767C28.9305 75.0846 33.9868 77.7117 40.2961 77.7117C45.2425 77.7117 49.3094 76.3597 52.3872 73.6887C55.5308 70.9627 58.1578 66.1923 60.1693 59.5313C60.8508 57.5858 62.3896 56.5525 64.5111 56.5525C66.0609 56.5525 66.9404 57.2121 67.3911 57.7726C68.1715 58.7179 68.3803 60.0369 68.0395 61.8066C65.6873 71.93 61.8401 79.1076 56.608 83.2075C51.3759 87.2965 44.9567 89.3739 37.5372 89.3739H37.5592ZM38.8341 3.29752C32.25 3.29752 26.1935 5.07819 20.8295 8.60654C15.4325 12.1459 11.1238 17.1142 8.0241 23.3685C4.89142 29.6667 3.30856 37.0862 3.30856 45.4289C3.30856 53.7716 4.85834 60.7734 7.91407 66.9068C10.9478 73.0072 15.0808 77.7776 20.192 81.0971C25.2702 84.4056 31.118 86.0764 37.5592 86.0764C44.0004 86.0764 49.958 84.2408 54.5965 80.6025C59.2241 76.9862 62.6755 70.4241 64.8409 61.1141C64.9948 60.3117 64.9069 59.96 64.8739 59.883C64.8519 59.894 64.7419 59.8611 64.5331 59.8611C63.6427 59.8611 63.4669 60.1798 63.324 60.5645C61.1476 67.7531 58.1908 73.0292 54.5635 76.1838C50.8703 79.3934 46.0779 81.0202 40.3071 81.0202C32.9976 81.0202 26.908 77.8765 22.2145 71.6772C17.6199 65.6207 15.2897 56.5196 15.2897 44.6155C15.2897 41.1751 17.4441 39.1966 21.1923 39.1966H61.5543C64.1924 39.1966 65.2146 38.1414 65.2146 35.4374C65.2146 24.028 62.7634 15.7292 57.927 10.7609C53.1015 5.81464 46.6713 3.30851 38.8231 3.30851L38.8341 3.29752ZM42.0218 38.3832H20.5657C18.6531 38.3832 17.3122 37.9105 16.4878 36.9323C16.0151 36.3717 15.4985 35.3824 15.7513 33.8436C16.9054 24.5775 19.4776 17.2461 23.4017 12.1239C27.4687 6.7929 32.5908 4.09992 38.6254 4.09992C43.7695 4.09992 47.6936 6.43017 50.2547 11.0137C52.6509 15.2895 53.86 21.1921 53.86 28.5456C53.86 33.0412 51.8045 38.3942 42.0108 38.3942L42.0218 38.3832ZM18.9939 34.7999C18.9939 34.7999 19.3016 35.0857 20.5547 35.0857H42.0108C49.5842 35.0857 50.5625 31.5903 50.5625 28.5346C50.5625 21.7527 49.4853 16.3997 47.3748 12.6185C45.4073 9.10117 42.5384 7.39745 38.6144 7.39745C33.5911 7.39745 29.4582 9.59579 26.0067 14.1244C22.4454 18.7849 20.0931 25.5778 19.0049 34.3162C18.95 34.69 18.9939 34.7999 18.9939 34.7999Z" fill="var(--fill-0, black)"/>
</g></svg>
</svg>