<svg xmlns="http://www.w3.org/2000/svg" viewBox="0 0 24 24" fill="none">
  <path d="M14.0449 3.67969V6.40432M18.586 5.49611L16.7696 7.31253M20.4024 10.0372H17.6778" stroke="currentColor" stroke-width="1.6" stroke-linecap="round" stroke-linejoin="round"/>
  <path d="M9.64768 6.14296L9.28198 5.32014C9.04287 4.78215 8.92331 4.51313 8.74451 4.30727C8.52042 4.04927 8.22834 3.85946 7.90157 3.75947C7.64083 3.67969 7.34646 3.67969 6.75771 3.67969C5.89646 3.67969 5.46582 3.67969 5.10433 3.84525C4.67851 4.04027 4.29394 4.46373 4.14072 4.90632C4.01065 5.28203 4.0479 5.66815 4.12242 6.44038C4.91559 14.6601 9.42204 19.1666 17.6418 19.9597C18.414 20.0343 18.8001 20.0715 19.1758 19.9415C19.6184 19.7883 20.0419 19.4036 20.2369 18.9779C20.4025 18.6163 20.4025 18.1857 20.4025 17.3245C20.4025 16.7357 20.4025 16.4413 20.3227 16.1806C20.2227 15.8538 20.0329 15.5617 19.7749 15.3377C19.569 15.1588 19.3 15.0393 18.762 14.8002L17.9392 14.4344C17.3565 14.1755 17.0653 14.0461 16.7692 14.0179C16.4859 13.991 16.2003 14.0307 15.9351 14.134C15.658 14.2419 15.413 14.446 14.9232 14.8541C14.4356 15.2605 14.1919 15.4636 13.894 15.5724C13.63 15.6689 13.2808 15.7047 13.0027 15.6636C12.689 15.6174 12.4486 15.4891 11.9682 15.2322C10.4732 14.4334 9.64884 13.609 8.84991 12.114C8.59314 11.6335 8.46476 11.3932 8.41852 11.0795C8.37753 10.8013 8.41326 10.4522 8.50973 10.1882C8.61856 9.89029 8.82171 9.6465 9.22803 9.15892C9.6362 8.66911 9.8403 8.4242 9.9482 8.14709C10.0515 7.88192 10.0912 7.59626 10.0643 7.31297C10.0361 7.01693 9.90663 6.72561 9.64768 6.14296Z" stroke="currentColor" stroke-width="1.6" stroke-linecap="round"/>
</svg>
