<svg preserveAspectRatio="none" width="100%" height="100%" overflow="visible" style="display: block;" viewBox="0 0 32 32" fill="none" xmlns="http://www.w3.org/2000/svg">
<g id="agreement-03">
<path id="Vector" d="M12 29.3333C12.4798 29.3333 14.2544 28.5234 16.0659 26.9037M16.0659 26.9037C17.6104 25.5225 19.1817 23.5523 20 20.9935C21.7777 15.4337 11.1111 20.9935 14.6667 25.6267C15.1041 26.1967 15.5753 26.6134 16.0659 26.9037ZM16.0659 26.9037C18.2028 28.1678 20.7081 27.0319 22.4055 25.7258C22.9243 25.3266 23.1836 25.127 23.3384 25.1891C23.4933 25.2513 23.5837 25.6085 23.7648 26.3229C24.3441 28.6091 26.0553 30.4546 28 27.4806" stroke="var(--stroke-0, black)" stroke-width="1.5" stroke-linecap="round" stroke-linejoin="round"/>
<path id="Vector_2" d="M26.6667 17.3333V10.521C26.6667 8.23516 26.6667 7.09225 26.3093 6.17945C25.7351 4.71199 24.5203 3.55447 22.9803 3.00713C22.0224 2.66667 20.8231 2.66667 18.4243 2.66667C14.2264 2.66667 12.1275 2.66667 10.4511 3.26248C7.75619 4.22031 5.63041 6.24597 4.62525 8.81403C4 10.4115 4 12.4115 4 16.4117V19.8479C4 23.9915 4 26.0632 5.13027 27.502C5.45411 27.9141 5.83816 28.2801 6.27076 28.5888C6.76021 28.9379 7.31948 29.1739 8 29.3333" stroke="var(--stroke-0, black)" stroke-width="1.5" stroke-linecap="round" stroke-linejoin="round"/>
<path id="Vector_3" d="M4 16C4 13.5453 5.98984 11.5556 8.44444 11.5556C9.33216 11.5556 10.3787 11.7111 11.2418 11.4798C12.0087 11.2743 12.6077 10.6754 12.8132 9.90848C13.0444 9.04539 12.8889 7.99883 12.8889 7.11111C12.8889 4.65651 14.8788 2.66667 17.3333 2.66667" stroke="var(--stroke-0, black)" stroke-width="1.5" stroke-linecap="round" stroke-linejoin="round"/>
</g>
</svg>
