<svg preserveAspectRatio="none" width="100%" height="100%" overflow="visible" style="display: block;" viewBox="0 0 32 32" fill="none" xmlns="http://www.w3.org/2000/svg">
<g id="file-validation">
<path id="Vector" d="M12.9671 2.66406C8.61882 2.66406 6.44468 2.66406 4.93482 3.72785C4.50222 4.03264 4.11817 4.39409 3.79433 4.80125C2.66406 6.22229 2.66406 8.26854 2.66406 12.361V15.755C2.66406 19.7059 2.66406 21.6813 3.28932 23.259C4.29448 25.7955 6.42025 27.7962 9.11521 28.7422C10.7916 29.3307 12.8905 29.3307 17.0883 29.3307C19.4871 29.3307 20.6865 29.3307 21.6443 28.9945C23.1843 28.4539 24.399 27.3106 24.9734 25.8613C25.3307 24.9597 25.3307 23.8309 25.3307 21.5731V20.6641" stroke="var(--stroke-0, black)" stroke-width="1.5" stroke-linecap="round" stroke-linejoin="round"/>
<path id="Vector_2" d="M20 10.0026C20 10.0026 20.6667 10.0026 21.3333 11.3359C21.3333 11.3359 23.4509 8.0026 25.3333 7.33594" stroke="var(--stroke-0, black)" stroke-width="1.5" stroke-linecap="round" stroke-linejoin="round"/>
<path id="Vector_3" d="M29.3333 9.33073C29.3333 13.0126 26.3485 15.9974 22.6667 15.9974C18.9848 15.9974 16 13.0126 16 9.33073C16 5.64884 18.9848 2.66406 22.6667 2.66406C26.3485 2.66406 29.3333 5.64884 29.3333 9.33073Z" stroke="var(--stroke-0, black)" stroke-width="1.5" stroke-linecap="round"/>
<path id="Vector_4" d="M2.66406 16C2.66406 18.4545 4.6539 20.4444 7.1085 20.4444C7.99622 20.4444 9.04278 20.2889 9.90589 20.5201C10.6728 20.7256 11.2717 21.3247 11.4772 22.0915C11.7085 22.9547 11.553 24.0012 11.553 24.8889C11.553 27.3435 13.5429 29.3333 15.9974 29.3333" stroke="var(--stroke-0, black)" stroke-width="1.5" stroke-linecap="round" stroke-linejoin="round"/>
</g>
</svg>
