<svg preserveAspectRatio="none" width="100%" height="100%" overflow="visible" style="display: block;" viewBox="0 0 32 32" fill="none" xmlns="http://www.w3.org/2000/svg">
<g id="security">
<path id="Vector" d="M24.9451 4.65785C22.422 3.40249 19.3345 2.66406 16 2.66406C12.6655 2.66406 9.578 3.40249 7.05488 4.65786C5.81757 5.27348 5.19892 5.58129 4.59947 6.54912C4 7.51694 4 8.45404 4 10.3282V14.9802C4 22.558 10.0565 26.7712 13.564 28.5758C14.5423 29.0791 15.0313 29.3307 16 29.3307C16.9687 29.3307 17.4577 29.0791 18.4359 28.5758C21.9435 26.7712 28 22.558 28 14.9802V10.3283C28 8.45405 28 7.51694 27.4005 6.54912C26.8011 5.58129 26.1824 5.27348 24.9451 4.65785Z" stroke="var(--stroke-0, black)" stroke-width="1.5" stroke-linecap="round" stroke-linejoin="round"/>
<path id="Vector_2" d="M15.9974 12.0026V13.3359M14.6641 12.6693C14.6641 13.0229 14.8046 13.362 15.0546 13.612C15.3046 13.8622 15.6438 14.0026 15.9974 14.0026C16.351 14.0026 16.6902 13.8622 16.9402 13.612C17.1902 13.362 17.3307 13.0229 17.3307 12.6693C17.3307 12.3157 17.1902 11.9765 16.9402 11.7265C16.6902 11.4764 16.351 11.3359 15.9974 11.3359C15.6438 11.3359 15.3046 11.4764 15.0546 11.7265C14.8046 11.9765 14.6641 12.3157 14.6641 12.6693Z" stroke="var(--stroke-0, black)" stroke-width="1.5" stroke-linecap="round" stroke-linejoin="round"/>
<path id="Vector_3" d="M17 18.6668H15L16 14.0001L17 18.6668Z" stroke="var(--stroke-0, black)" stroke-width="1.5" stroke-linecap="round" stroke-linejoin="round"/>
</g>
</svg>
