<svg preserveAspectRatio="none" width="100%" height="100%" overflow="visible" style="display: block;" viewBox="0 0 45.1066 45" fill="none" xmlns="http://www.w3.org/2000/svg">
<g id="Group 2117761304">
<path id="Vector" d="M22.018 20.1996C23.4144 19.8887 24.7971 20.7736 25.0995 22.1719C25.4021 23.5701 24.5088 24.9474 23.1087 25.2414C21.7206 25.533 20.3576 24.649 20.0577 23.2626C19.7578 21.8763 20.6335 20.508 22.018 20.1996Z" fill="var(--fill-0, black)"/>
<path id="Vector_2" d="M42.2827 17.9522C43.104 17.775 43.9572 18.0532 44.5161 18.6805C45.0745 19.3077 45.2529 20.1871 44.9824 20.9824C44.7119 21.7777 44.0342 22.366 43.2088 22.5224C41.9548 22.7601 40.7431 21.9454 40.4894 20.6945C40.2363 19.4437 41.0356 18.2214 42.2827 17.9522Z" fill="var(--fill-0, black)"/>
<path id="Vector_3" d="M12.7733 2.36594C14.0373 2.24327 15.1669 3.15495 15.3139 4.41641C15.4609 5.67782 14.5712 6.82483 13.3129 6.99616C12.477 7.10992 11.6449 6.76326 11.1371 6.0897C10.6292 5.41613 10.5248 4.52079 10.8642 3.74847C11.2035 2.97614 11.9337 2.44744 12.7733 2.36594Z" fill="var(--fill-0, black)"/>
<path id="Vector_4" d="M17.5878 40.3725C18.8408 40.1536 20.0381 40.9797 20.2781 42.2289C20.5182 43.4781 19.7124 44.6891 18.4674 44.9503C17.6431 45.1232 16.7897 44.838 16.2349 44.2044C15.6801 43.5706 15.5103 42.6869 15.7907 41.8928C16.0711 41.0986 16.7581 40.5174 17.5878 40.3725Z" fill="var(--fill-0, black)"/>
<path id="Vector_5" d="M35.6128 35.6636C36.8587 35.3473 38.1248 36.099 38.444 37.3439C38.7626 38.5887 38.0136 39.8568 36.7695 40.1783C35.5219 40.5008 34.2493 39.749 33.929 38.5005C33.6093 37.2519 34.364 35.9808 35.6128 35.6636Z" fill="var(--fill-0, black)"/>
<path id="Vector_6" d="M39.0864 8.67673C40.3549 8.60039 41.4508 9.55586 41.5475 10.8233C41.6442 12.0907 40.7065 13.2014 39.4409 13.3187C38.6039 13.3963 37.7902 13.0165 37.3117 12.3251C36.8333 11.6338 36.7649 10.7382 37.1327 9.98222C37.5005 9.22617 38.2471 8.72718 39.0864 8.67673Z" fill="var(--fill-0, black)"/>
<path id="Vector_7" d="M2.11695 18.2518C3.39591 18.1355 4.5274 19.0772 4.64533 20.356C4.76325 21.6348 3.82308 22.7675 2.54441 22.887C1.26343 23.0068 0.128285 22.0646 0.0101262 20.7835C-0.108033 19.5023 0.835678 18.3684 2.11695 18.2518Z" fill="var(--fill-0, black)"/>
<path id="Vector_8" d="M5.46815 8.98285C6.75011 8.87639 7.87518 9.83041 7.97967 11.1126C8.08421 12.3946 7.12852 13.5183 5.8462 13.6209C4.56666 13.7233 3.44589 12.77 3.34163 11.4906C3.23731 10.2112 4.18884 9.08908 5.46815 8.98285Z" fill="var(--fill-0, black)"/>
<path id="Vector_9" d="M3.28812 27.727C4.54617 27.5949 5.67911 28.4924 5.83839 29.7473C5.99773 31.0021 5.12497 32.1542 3.87382 32.3407C3.04004 32.4649 2.2043 32.1284 1.68944 31.4609C1.17452 30.7934 1.06105 29.8997 1.39282 29.1247C1.72465 28.3497 2.44977 27.815 3.28812 27.727Z" fill="var(--fill-0, black)"/>
<path id="Vector_10" d="M22.1964 0.0308364C23.4563 -0.175189 24.6465 0.673356 24.8626 1.93152C25.0787 3.18968 24.2397 4.38668 22.9833 4.61287C21.7126 4.84154 20.499 3.99091 20.2804 2.71844C20.0619 1.44591 20.9222 0.239179 22.1964 0.0308364Z" fill="var(--fill-0, black)"/>
<path id="Vector_11" d="M8.88054 35.8479C10.147 35.6703 11.319 36.5491 11.5036 37.8145C11.6882 39.0799 10.816 40.2568 9.55162 40.4484C8.27723 40.6415 7.08904 39.761 6.903 38.4855C6.71696 37.2101 7.60413 36.0268 8.88054 35.8479Z" fill="var(--fill-0, black)"/>
<path id="Vector_12" d="M41.2303 27.4517C42.4884 27.1908 43.7198 28.0012 43.9775 29.2601C44.2353 30.519 43.422 31.7482 42.1623 32.0033C40.9071 32.2574 39.6827 31.4474 39.4261 30.1926C39.1689 28.9378 39.9757 27.7116 41.2303 27.4517Z" fill="var(--fill-0, black)"/>
<path id="Vector_13" d="M26.9981 40.2995C28.2512 40.0315 29.4843 40.8307 29.7513 42.0842C30.0184 43.3376 29.2185 44.57 27.9647 44.8362C26.7125 45.1021 25.4816 44.3029 25.2147 43.0509C24.9479 41.7988 25.7462 40.5673 26.9981 40.2995Z" fill="var(--fill-0, black)"/>
<path id="Vector_14" d="M31.2284 2.30557C32.0346 2.10001 32.8901 2.34432 33.4664 2.94508C34.0427 3.5459 34.2513 4.41031 34.012 5.20777C33.7734 6.00529 33.1235 6.61259 32.3121 6.79748C31.0789 7.07834 29.8492 6.31581 29.5527 5.08654C29.2561 3.85723 30.0027 2.61789 31.2284 2.30557Z" fill="var(--fill-0, black)"/>
<path id="Vector_15" d="M25.4821 33.8933C26.2323 33.7611 26.9951 34.0458 27.4752 34.6372C27.9553 35.2285 28.0772 36.0336 27.7937 36.7406C27.5103 37.4476 26.866 37.9455 26.1103 38.0414C24.9802 38.1848 23.942 37.4003 23.7715 36.274C23.6008 35.1476 24.3601 34.0909 25.4821 33.8933Z" fill="var(--fill-0, black)"/>
<path id="Vector_16" d="M9.43042 25.5598C10.55 25.3217 11.6533 26.0266 11.9078 27.1425C12.1623 28.2584 11.4737 29.3719 10.3616 29.6427C9.62753 29.8214 8.85417 29.591 8.33774 29.0396C7.82132 28.4883 7.64193 27.7015 7.86823 26.9808C8.09453 26.26 8.69152 25.717 9.43042 25.5598Z" fill="var(--fill-0, black)"/>
<path id="Vector_17" d="M22.3097 7.00424C23.4471 6.8628 24.4863 7.66379 24.6391 8.79974C24.7919 9.93569 24.0014 10.9828 22.867 11.1471C22.123 11.2547 21.3786 10.9546 20.9172 10.3611C20.456 9.76749 20.349 8.97194 20.637 8.27758C20.925 7.58322 21.5637 7.09703 22.3097 7.00424Z" fill="var(--fill-0, black)"/>
<path id="Vector_18" d="M28.1971 8.55846C29.3078 8.2648 30.4465 8.92348 30.7459 10.0324C31.0454 11.1413 30.3926 12.2838 29.2852 12.589C28.1698 12.8964 27.017 12.2378 26.7154 11.1207C26.4138 10.0035 27.0784 8.85426 28.1971 8.55846Z" fill="var(--fill-0, black)"/>
<path id="Vector_19" d="M15.9089 8.60081C17.0444 8.43782 18.0986 9.22172 18.2694 10.3561C18.4402 11.4904 17.6635 12.5499 16.5304 12.7285C15.3862 12.9088 14.314 12.1229 14.1416 10.9775C13.9691 9.8321 14.7624 8.76536 15.9089 8.60081Z" fill="var(--fill-0, black)"/>
<path id="Vector_20" d="M8.6639 19.2335C9.78879 19.0148 10.8796 19.7442 11.1072 20.8673C11.3348 21.9904 10.6139 23.0869 9.49258 23.3232C8.35877 23.5622 7.24749 22.8315 7.01737 21.6959C6.78731 20.5603 7.52656 19.4548 8.6639 19.2335Z" fill="var(--fill-0, black)"/>
<path id="Vector_21" d="M34.9544 25.3312C35.6332 25.2098 36.3277 25.4314 36.8108 25.9235C37.2932 26.4156 37.5018 27.1144 37.3674 27.7906C37.2069 28.5999 36.5837 29.2384 35.7786 29.4191C35.0407 29.5845 34.2715 29.3379 33.7676 28.7745C33.2637 28.2111 33.1038 27.4191 33.3506 26.7045C33.5967 25.9898 34.2107 25.4644 34.9544 25.3312Z" fill="var(--fill-0, black)"/>
<path id="Vector_22" d="M33.5537 12.8154C34.6901 12.7463 35.6713 13.6013 35.7587 14.736C35.8462 15.8708 35.0069 16.8658 33.8734 16.9711C33.1239 17.0408 32.3953 16.7011 31.9672 16.0824C31.5386 15.4636 31.4772 14.6621 31.8056 13.9852C32.1346 13.3082 32.803 12.8611 33.5537 12.8154Z" fill="var(--fill-0, black)"/>
<path id="Vector_23" d="M31.3604 30.7965C32.4841 30.6362 33.529 31.4065 33.708 32.5273C33.887 33.6482 33.134 34.7055 32.0161 34.9031C31.2764 35.0338 30.5241 34.7555 30.0474 34.1749C29.5707 33.5944 29.4438 32.8018 29.7161 32.1017C29.9883 31.4015 30.6167 30.9026 31.3604 30.7965Z" fill="var(--fill-0, black)"/>
<path id="Vector_24" d="M19.2477 33.9582C20.3698 33.7965 21.4147 34.5636 21.5965 35.6827C21.7783 36.8017 21.0301 37.8601 19.9144 38.062C19.1747 38.1958 18.4204 37.9199 17.9416 37.3405C17.4627 36.7611 17.3339 35.9683 17.6047 35.2671C17.8755 34.5659 18.5037 34.0654 19.2477 33.9582Z" fill="var(--fill-0, black)"/>
<path id="Vector_25" d="M35.7071 18.9886C36.8238 18.8012 37.8849 19.542 38.0934 20.6547C38.3025 21.7673 37.5826 22.8425 36.474 23.0728C35.7378 23.2258 34.9761 22.9691 34.4826 22.4015C33.9891 21.834 33.8409 21.0443 34.0951 20.3364C34.3488 19.6286 34.9657 19.1132 35.7071 18.9886Z" fill="var(--fill-0, black)"/>
<path id="Vector_26" d="M10.7945 13.0582C11.9055 12.7741 13.0361 13.446 13.3176 14.5577C13.5992 15.6693 12.9246 16.7984 11.8123 17.0773C10.7037 17.3552 9.57917 16.6834 9.2986 15.5754C9.01803 14.4675 9.68713 13.3415 10.7945 13.0582Z" fill="var(--fill-0, black)"/>
<path id="Vector_27" d="M13.4045 30.961C14.536 30.8303 15.5601 31.6395 15.6945 32.7707C15.8289 33.9018 15.023 34.9285 13.8923 35.0666C12.7564 35.2053 11.7239 34.3949 11.5889 33.2585C11.4539 32.1222 12.2677 31.0923 13.4045 30.961Z" fill="var(--fill-0, black)"/>
<path id="Vector_28" d="M27.6923 16.4959C28.6997 16.3183 29.6589 16.9942 29.8309 18.0025C30.003 19.0108 29.3218 19.9665 28.3128 20.133C27.3114 20.2982 26.3647 19.6235 26.194 18.623C26.0233 17.6225 26.6928 16.6721 27.6923 16.4959Z" fill="var(--fill-0, black)"/>
<path id="Vector_29" d="M22.1226 13.8836C22.7683 13.7268 23.4483 13.9298 23.9023 14.4149C24.3563 14.9 24.5139 15.592 24.3147 16.2258C24.1156 16.8597 23.5904 17.3371 22.9406 17.4753C21.9557 17.6848 20.9851 17.0644 20.7615 16.0826C20.5379 15.1008 21.1441 14.1214 22.1226 13.8836Z" fill="var(--fill-0, black)"/>
<path id="Vector_30" d="M25.3015 27.2819C25.9521 27.1598 26.6183 27.3968 27.0456 27.9024C27.473 28.408 27.5957 29.1043 27.3669 29.7256C27.138 30.3468 26.593 30.7972 25.9397 30.9048C24.9452 31.0685 24.0042 30.4016 23.8293 29.409C23.6544 28.4164 24.3109 27.4679 25.3015 27.2819Z" fill="var(--fill-0, black)"/>
<path id="Vector_31" d="M16.4835 16.6412C17.4517 16.331 18.4878 16.8661 18.7954 17.8351C19.1031 18.8042 18.5654 19.8389 17.5956 20.1441C16.6292 20.4482 15.5991 19.9129 15.2925 18.9473C14.9859 17.9817 15.5187 16.9502 16.4835 16.6412Z" fill="var(--fill-0, black)"/>
<path id="Vector_32" d="M15.2481 22.5371C16.2262 22.2625 17.2409 22.8361 17.5101 23.8156C17.7793 24.7952 17.2003 25.8068 16.2192 26.0707C15.2458 26.3325 14.2437 25.7588 13.9765 24.7868C13.7093 23.8148 14.2776 22.8095 15.2481 22.5371Z" fill="var(--fill-0, black)"/>
<path id="Vector_33" d="M29.1296 22.3716C30.127 22.2143 31.063 22.8934 31.2234 23.89C31.3833 24.8866 30.7073 25.825 29.7111 25.9881C28.7108 26.1519 27.7676 25.4722 27.6068 24.4714C27.4459 23.4706 28.1284 22.5295 29.1296 22.3716Z" fill="var(--fill-0, black)"/>
<path id="Vector_34" d="M19.2102 27.3372C20.1938 27.1217 21.1664 27.7424 21.3854 28.7252C21.6043 29.7081 20.9871 30.6829 20.0051 30.9054C19.018 31.1289 18.0372 30.508 17.8172 29.5201C17.5971 28.5323 18.2216 27.5537 19.2102 27.3372Z" fill="var(--fill-0, black)"/>
</g>
</svg>
