<svg preserveAspectRatio="none" width="100%" height="100%" overflow="visible" style="display: block;" viewBox="0 0 74.6497 21.7694" fill="none" xmlns="http://www.w3.org/2000/svg">
<g id="Group 2117761316">
<path id="Subtract" d="M29.2391 0.323382C32.1301 0.417849 36.1299 -0.287568 37.9481 2.60561C38.9249 4.16648 38.9315 6.51754 38.2147 8.18178C37.5808 9.65415 36.3599 10.3726 34.9335 10.9083C36.6408 11.5195 37.0893 12.7043 37.5419 14.2726C38.0161 15.9175 38.2316 18.2567 38.9628 19.7335C39.2069 19.8839 39.3757 19.9853 39.5946 20.1691C39.5976 20.6038 39.586 21.0007 39.5682 21.4347C39.1925 21.4795 36.5677 21.5159 36.3397 21.383C35.9085 21.1284 35.4128 18.4131 35.2235 17.7492C34.9034 16.6154 34.6828 15.3806 34.3475 14.2335C34.1648 13.608 34.0753 12.9051 33.7733 12.3107C33.5076 11.7878 33.1522 11.6892 32.6434 11.5226C32.5699 12.9119 32.6431 14.4621 32.6171 15.8683C32.6267 16.9156 32.5945 17.9644 32.6356 19.0109C32.6594 19.6138 33.0316 19.8303 33.4491 20.1828C33.4682 20.6349 33.4652 20.9795 33.4481 21.4318C32.9606 21.4864 32.0351 21.4642 31.5194 21.463C30.5742 21.4609 29.5646 21.4801 28.6239 21.4445C28.6043 21.3025 28.5893 21.1597 28.579 21.0167C28.5192 20.0545 28.6945 20.2734 29.1727 19.714C29.5961 19.2187 29.4483 17.0679 29.4481 16.3624L29.4462 11.2374V5.69252C29.446 4.70946 29.4616 3.70903 29.4227 2.7267C29.3982 2.10616 29.0225 1.84228 28.5741 1.4601C28.5733 1.2607 28.5747 1.06082 28.578 0.861468C28.5814 0.702293 28.5761 0.442457 28.6913 0.332171C28.8661 0.322942 29.0616 0.317619 29.2391 0.323382ZM32.622 1.98061C32.6063 3.51371 32.6023 5.04711 32.6102 6.58022C32.6107 7.66478 32.5847 8.89738 32.6298 9.97182C33.3605 9.82916 34.0724 9.71478 34.6239 9.16225C35.6655 7.72018 35.8419 4.20699 34.7401 2.69838C34.3711 2.19292 33.233 1.98234 32.622 1.98061Z" fill="var(--fill-0, black)"/>
<path id="Vector" d="M6.29705 0.362231C7.1121 0.298561 8.08407 0.324118 8.9174 0.321745C9.60043 0.319718 10.5362 0.294359 11.1992 0.35447C11.2291 0.77485 11.2355 0.968777 11.209 1.39539C10.9923 1.66356 10.4373 2.26091 10.4023 2.56878C10.3415 3.10375 10.3634 3.8753 10.3627 4.42382L10.3611 8.29335L10.3605 15.2457C10.3608 16.5 10.3417 17.7846 10.391 19.0376C10.4132 19.6019 10.8007 19.8584 11.2049 20.2104C11.2341 20.6665 11.2318 20.9458 11.2107 21.4024C10.7613 21.4888 9.95212 21.4667 9.46287 21.4653C8.9175 21.4682 6.80186 21.5191 6.43094 21.3973C6.24887 21.2026 6.31058 20.5715 6.31829 20.2911C6.74069 19.814 7.16027 19.6102 7.1785 18.8817C7.19827 18.0923 7.19061 17.3041 7.19036 16.5145L7.18878 11.1603C6.1919 11.1325 5.13959 11.148 4.13817 11.1489L4.13387 16.3612C4.13205 17.2681 4.1104 18.2272 4.15942 19.1329C4.18961 19.691 4.56324 19.9212 4.96795 20.2486C5.00293 20.6882 4.99769 20.9458 4.98134 21.3827C4.41219 21.5034 0.659439 21.5049 0.0485961 21.4192C0.00220111 21.0177 0.0114891 20.7342 0.0467671 20.3341C0.208384 20.1045 0.456911 19.8807 0.635722 19.6525C0.91597 19.295 0.888449 19.0467 0.887856 18.6155C0.886719 17.8122 0.88499 17.0085 0.885089 16.2051L0.886423 10.3267L0.886769 5.22602C0.886719 4.49653 0.923874 3.07167 0.840274 2.39334C0.68686 2.15162 0.222564 1.60513 0.0222601 1.34313C0.011736 1.12326 -0.0438487 0.603317 0.0759679 0.427236C0.135605 0.33969 0.231062 0.350812 0.348112 0.332373C1.60671 0.31606 3.80002 0.269939 4.98252 0.356398C5.00016 0.740692 4.99463 0.983014 4.97368 1.36469C4.77594 1.5946 4.22414 2.17203 4.18694 2.42963C4.09469 3.06771 4.1318 4.046 4.13244 4.6995L4.14015 9.21212C5.15061 9.20639 6.16112 9.20638 7.17164 9.21217C7.18873 7.94371 7.19614 6.67515 7.19397 5.40655C7.19525 4.61275 7.2037 3.82528 7.17712 3.03098C7.14826 2.16753 6.90942 1.98463 6.27961 1.42109C6.26671 1.01445 6.27214 0.765903 6.29705 0.362231Z" fill="var(--fill-0, black)"/>
<path id="Vector_2" d="M40.0359 0.326527C41.0236 0.281543 42.0642 0.348773 43.0573 0.323216C43.6309 0.308435 44.2767 0.313329 44.8459 0.359994C44.8548 0.707559 44.8479 1.09452 44.8489 1.4451C44.4808 1.74773 44.0198 2.1996 43.9892 2.70269C43.9427 3.46944 43.96 4.24906 43.96 5.01839L43.9615 9.36851L43.9625 14.3235C43.9595 15.3535 43.9343 16.3645 43.9951 17.4068C44.044 18.5761 44.6241 19.908 46.0031 19.7546C47.2477 19.6162 47.7003 18.5006 47.7946 17.4094C47.8925 16.2831 47.8692 15.1638 47.8697 14.0492L47.8717 8.90987L47.8712 4.8692C47.8712 4.13808 47.8905 3.35965 47.8342 2.63264C47.7936 2.10608 47.3826 1.77393 46.9922 1.46591C46.9695 1.12502 46.9117 0.708202 47.056 0.402853C47.2457 0.275068 50.2132 0.303936 50.6144 0.35164C50.7182 0.432413 50.6875 0.442152 50.7152 0.61418C50.7295 0.918491 50.7157 1.16378 50.6989 1.46863C50.483 1.67334 49.9543 2.13346 49.9148 2.40604C49.7932 3.24704 49.8609 4.49598 49.8609 5.3527L49.857 13.3403C49.857 14.7353 49.9217 16.2621 49.7823 17.6336C49.6065 19.3674 48.4004 21.1647 46.6291 21.5561C45.465 21.8133 44.0099 21.7393 42.96 21.0969C42.0365 20.5287 41.3576 19.6362 41.0567 18.5939C40.6921 17.3566 40.7954 15.4476 40.7973 14.105L40.8023 6.61918C40.8033 5.33071 40.8304 4.02819 40.7637 2.74297C40.7128 1.75396 39.3136 1.44065 40.0359 0.326527Z" fill="var(--fill-0, black)"/>
<path id="Vector_3" d="M61.315 0.0152993C62.2429 -0.0710606 63.0428 0.234338 63.9391 0.27952C65.6027 0.363408 67.3107 0.326037 68.9768 0.30048C69.5603 0.291532 70.7407 -0.168889 71.2407 0.114512C71.3939 0.430983 71.3993 4.48847 71.2348 4.7167C70.9146 4.8871 70.424 4.82535 70.0549 4.8085C69.7372 3.88138 69.8469 2.86528 69.0687 2.0126C68.6576 1.92767 68.2446 1.93924 67.8261 1.93796C67.7727 5.41519 67.8211 9.01013 67.8201 12.499L67.8192 16.6914C67.8192 17.3362 67.7401 19.0141 67.9575 19.5319C68.0519 19.6811 68.2564 19.8484 68.3893 19.9879C68.7851 20.4029 68.6843 20.8622 68.6576 21.4052C68.2065 21.4916 64.2237 21.4884 63.7637 21.4176C63.7192 20.8985 63.7187 20.6374 63.8304 20.1306C64.3245 19.836 64.5552 19.6396 64.5863 19.0243C64.6199 18.371 64.6031 17.7154 64.6002 17.0612L64.5957 13.6787L64.5918 1.93721L63.7049 1.93791C63.024 2.32423 62.8778 2.68316 62.731 3.43905C62.6426 3.89324 62.5838 4.34877 62.5205 4.80711C62.2799 4.81917 62.0388 4.8257 61.7982 4.82669C61.5922 4.82674 61.4252 4.84167 61.2848 4.70132C61.1109 4.19943 61.1208 0.514724 61.315 0.0152993Z" fill="var(--fill-0, black)"/>
<path id="Vector_4" d="M55.4797 0.126551C56.3745 0.104998 56.9486 0.430665 57.7614 0.776599C58.1453 0.6064 59.0614 0.3752 59.4023 0.696467C59.4601 0.893113 59.4438 1.07166 59.4433 1.27479C59.4369 2.69209 59.4517 4.11117 59.4463 5.52822C59.4453 5.75176 59.2333 5.78428 59.0609 5.78631C58.8316 5.78898 58.2244 5.88266 58.132 5.60588C57.7723 4.52824 57.7006 3.43462 57.0361 2.46272C55.9871 0.928259 54.3779 1.9976 54.1427 3.47061C53.9115 5.27611 55.2465 6.87725 56.3997 8.10814C57.4847 9.25727 58.6409 10.4409 59.4641 11.797C61.1207 14.527 61.1113 19.0365 58.3286 21.0538C57.3701 21.749 56.3325 21.8737 55.1976 21.698C54.6472 21.577 54.1259 21.3986 53.5928 21.2199C53.0201 21.4926 52.5493 21.5052 51.9366 21.3952C51.7498 19.7333 51.9475 17.6239 51.9168 15.9243C51.904 15.2082 52.6372 15.3826 53.1664 15.4451C53.5864 16.7202 53.5587 18.9916 54.8102 19.8118C56.6883 21.0425 58.09 19.158 58.1201 17.397C58.1997 12.6766 52.3996 10.9503 51.8185 6.38945C51.4746 3.68728 52.4366 0.586082 55.4797 0.126551Z" fill="var(--fill-0, black)"/>
<path id="Vector_5" d="M17.8976 0.020762C18.9981 -0.101289 20.4686 0.40036 21.6928 0.328187C23.2045 0.239059 24.8318 0.486918 26.3347 0.175191C26.8346 0.07153 27.2716 0.011419 27.784 0.0223931C27.8474 0.534027 27.8719 4.29674 27.7596 4.71089C27.5541 4.88964 26.9743 4.82864 26.6792 4.82192C26.0613 3.73681 26.5453 1.87846 24.878 1.93655C24.7211 1.94203 24.5588 1.93724 24.4009 1.93946C24.3467 5.75838 24.3972 9.70068 24.3966 13.5295L24.3933 16.6915C24.3914 17.4156 24.3337 18.9385 24.5067 19.5529C24.6782 19.8887 25.0123 19.9199 25.184 20.2555C25.2986 20.4795 25.2757 21.1633 25.1987 21.3942C25.059 21.4567 24.3431 21.4777 24.1889 21.463C23.716 21.4181 20.6024 21.5443 20.4028 21.4051C20.1332 20.8798 20.2682 20.2862 20.7307 19.9147C21.4011 19.3763 21.2047 18.0663 21.2036 17.2722L21.2054 13.7511C21.2081 9.83153 21.2436 5.85824 21.1977 1.94288C20.7461 1.9274 20.3443 1.88449 19.9429 2.14066C19.3267 2.5339 19.1561 4.07004 19.01 4.81391C18.7114 4.82429 18.1005 4.87773 17.8606 4.73605C17.7194 4.40327 17.7565 0.491169 17.8976 0.020762Z" fill="var(--fill-0, black)"/>
<path id="Vector_6" d="M12.189 0.334407C12.7816 0.293871 13.7542 0.319478 14.3667 0.320022C15.1896 0.320763 16.2273 0.284924 17.0207 0.348297C17.0439 0.67861 17.0351 1.0851 17.0366 1.42154C16.7413 1.69204 16.2223 2.13462 16.1975 2.54368C16.1477 3.36496 16.1662 4.24082 16.1658 5.06388L16.1659 10.0482L16.1622 15.9732C16.1619 16.9987 16.1439 18.0563 16.193 19.0835C16.2326 19.9128 17.0201 19.9036 17.0552 20.6593C17.0643 20.855 17.0654 21.2818 16.9335 21.4219C16.4153 21.4932 12.5979 21.5197 12.1884 21.4068C12.0501 21.208 12.0985 20.6032 12.1056 20.3374C12.2245 20.1403 12.699 19.6491 12.8901 19.424C13.0184 18.8988 12.9771 17.1177 12.9762 16.4806L12.9705 11.5129L12.9755 5.56865C12.9761 4.81721 13.0182 3.06149 12.9243 2.38979C12.7481 2.1186 12.3338 1.67098 12.108 1.4125C12.0993 1.12519 12.0616 0.575048 12.189 0.334407Z" fill="var(--fill-0, black)"/>
<path id="Subtract_2" d="M73.3066 0.12463C73.8984 -0.00367681 74.4845 0.367236 74.621 0.957638C74.7574 1.54822 74.394 2.13912 73.8056 2.28381C73.4179 2.37903 73.0094 2.25815 72.7353 1.9674C72.4615 1.67644 72.3652 1.26021 72.4833 0.878536C72.6019 0.497204 72.9166 0.209355 73.3066 0.12463ZM73.3388 0.367794C71.7823 1.32081 73.2999 2.26128 73.8739 2.04162C73.9677 1.92431 73.9502 1.9801 73.9394 1.83264C73.8316 1.66978 73.6291 1.38757 73.4316 1.3424C73.3164 1.52964 73.3434 1.70915 73.2401 1.7965C73.1915 1.76045 73.1598 1.74703 73.1444 1.68908C73.137 1.45113 73.0998 0.947704 73.162 0.742794C73.3117 0.60756 73.6868 0.564795 73.8642 0.702755C74.0731 1.02109 73.7559 1.45516 74.081 1.73791L74.1659 1.72424C74.6338 0.95491 74.1886 0.341743 73.3388 0.367794Z" fill="var(--fill-0, black)"/>
</g>
</svg>
