<svg width="168" height="21" viewBox="0 0 168 21" fill="none" xmlns="http://www.w3.org/2000/svg">
<g clip-path="url(#clip0_8069_5872)">
<path d="M56.2926 15.721C54.4012 17.0218 51.6768 17.0449 49.7695 15.7643C47.9705 14.5558 47.0118 12.5186 47.1172 10.35C47.3223 6.14716 51.6291 3.52234 55.4711 5.23035L56.2926 5.67793V1.10398C56.2926 1.0419 56.4413 0.926397 56.5005 0.894634C56.7662 0.758917 58.1725 0.233376 58.4381 0.191506C58.6735 0.153967 58.7919 0.220381 58.8626 0.445613L58.8482 16.2422C58.7991 16.4111 58.6663 16.466 58.5002 16.4847C58.0945 16.5295 57.0665 16.528 56.6622 16.4804C56.5323 16.4645 56.2941 16.3779 56.2941 16.2234V15.7195L56.2926 15.721ZM52.7755 7.35417C48.7776 7.64149 48.909 13.6664 52.6961 13.948C57.53 14.306 57.4376 7.01921 52.7755 7.35417Z" fill="black"/>
<path d="M14.6519 12.2084L17.2797 5.01825C17.3446 4.97782 17.4053 4.95184 17.4832 4.94317C17.7114 4.91574 18.2961 4.91718 18.5271 4.94317C18.6542 4.95761 18.748 4.99226 18.8173 5.10488L21.3425 12.1737C21.4191 12.1896 21.3858 12.1405 21.4032 12.0972C22.294 9.75967 23.0794 7.38174 23.9847 5.04857C24.054 4.98937 24.1334 4.95328 24.2258 4.94173C24.6676 4.88831 25.7563 4.89986 26.2096 4.94173C26.4637 4.96483 26.5922 5.1453 26.5215 5.39508L22.1843 16.3679C22.0962 16.4315 22.0081 16.4704 21.8998 16.4834C21.6703 16.5094 21.1592 16.5065 20.9253 16.4834C20.7737 16.469 20.6697 16.4387 20.5816 16.3058L18.0073 9.63406L15.433 16.3044C15.3652 16.4055 15.2757 16.4618 15.1558 16.4777C14.9349 16.5094 14.379 16.5036 14.1495 16.482C13.9806 16.4661 13.8838 16.4329 13.7943 16.2813C12.492 12.8595 11.0583 9.4868 9.7632 6.06211C9.63614 5.72715 9.20011 4.99515 9.80507 4.93884C10.2873 4.89408 11.272 4.89408 11.7542 4.93884C11.8538 4.9475 11.965 4.95761 12.03 5.04568L14.6548 12.204L14.6519 12.2084Z" fill="black"/>
<path d="M31.9244 4.71165C37.0904 4.40557 39.965 10.2991 36.9648 14.375C34.3284 17.957 28.7481 17.3015 26.9318 13.2632C25.2165 9.44874 27.697 4.96143 31.9244 4.71021V4.71165ZM32.0631 7.3538C28.0608 7.65266 28.1951 13.6661 31.9836 13.9476C36.8247 14.3071 36.7092 7.00873 32.0631 7.3538Z" fill="black"/>
<path d="M4.22335 4.71419C5.7047 4.61601 7.37085 5.02893 8.41906 6.12911C8.78001 6.50738 8.88396 6.60845 8.52301 7.03437C8.33099 7.26104 7.64662 7.98005 7.43005 8.13021C7.11097 8.35399 6.93627 8.01037 6.73269 7.85011C6.32698 7.5267 5.95448 7.31157 5.44048 7.19607C4.61751 7.01127 2.72324 7.00116 3.03799 8.31357C3.14338 8.75248 3.82919 9.01814 4.21325 9.1553C6.16527 9.84977 8.69049 10.1169 8.85509 12.7504C9.12941 17.1698 3.48268 17.6203 0.759657 15.4589C0.576294 15.3131 0.011765 14.8395 0.000214541 14.623C-0.00411688 14.5334 0.0579669 14.4367 0.111388 14.3674C0.322184 14.0844 0.79864 13.6816 1.06863 13.4131C1.24766 13.2355 1.36461 12.964 1.69091 13.1012C2.59907 14.1118 4.23923 14.5609 5.54299 14.2028C6.59697 13.9126 6.69804 12.863 5.76101 12.3331C4.05876 11.373 1.08018 11.5809 0.597951 9.0499C0.111388 6.49583 1.77177 4.87734 4.22335 4.71419Z" fill="black"/>
<path d="M42.2496 6.09104C42.5773 5.66945 42.9498 5.30706 43.435 5.07028C44.4745 4.56062 46.2922 4.53608 47.2004 5.32728C47.5296 5.61459 47.4459 5.67379 47.2712 6.02174C47.0791 6.40435 46.7514 7.04972 46.5175 7.38757C46.2345 7.79761 46.002 7.50452 45.7133 7.37025C45.0275 7.04972 44.0312 7.14213 43.3859 7.52184C42.664 7.94632 42.3102 8.73319 42.2496 9.54893C42.0951 11.6367 42.4026 13.9265 42.2496 16.0157C42.2308 16.2813 42.1788 16.4503 41.8829 16.4835C41.4743 16.5297 40.4159 16.5297 40.0059 16.4835C39.7937 16.4604 39.6666 16.3781 39.6406 16.1543L39.6493 5.21322C39.6724 5.08183 39.7662 4.96777 39.9034 4.94611C40.5387 4.98943 41.2606 4.88259 41.8843 4.94178C42.0431 4.95766 42.2481 5.05729 42.2481 5.2392V6.09104H42.2496Z" fill="black"/>
<path d="M66.1843 16.1567C65.9057 16.1567 65.7656 16.0773 65.7656 15.92C65.7656 15.7915 65.8869 15.7048 66.128 15.6615L66.7705 15.5749C67.1618 15.5171 67.4173 15.4392 67.5372 15.3381C67.6585 15.2385 67.7191 15.0364 67.7191 14.7346V2.07253C67.7191 1.77078 67.6585 1.57009 67.5372 1.46902C67.4159 1.3694 67.1603 1.28999 66.7705 1.23224L66.128 1.14561C65.8855 1.1023 65.7656 1.01711 65.7656 0.887173C65.7656 0.729799 65.9057 0.650391 66.1843 0.650391H71.2348C71.5134 0.650391 71.6535 0.729799 71.6535 0.887173C71.6535 1.01567 71.5322 1.1023 71.2911 1.14561L70.65 1.23224C70.2588 1.28999 70.0032 1.3694 69.8834 1.46902C69.7621 1.57009 69.7014 1.77078 69.7014 2.07253V14.7361C69.7014 15.0378 69.7621 15.2385 69.8834 15.3396C70.0046 15.4406 70.2602 15.5186 70.65 15.5763L71.2911 15.663C71.5322 15.7063 71.6535 15.7915 71.6535 15.9214C71.6535 16.0802 71.5134 16.1582 71.2348 16.1582H66.1843V16.1567Z" fill="black"/>
<path d="M71.2326 16.3711H66.1822C65.609 16.3711 65.5469 16.0535 65.5469 15.9178C65.5469 15.746 65.6407 15.5251 66.0883 15.4457L66.7395 15.3576C67.2116 15.2883 67.356 15.2031 67.3978 15.1685C67.4296 15.1425 67.5003 15.0486 67.5003 14.7324V2.07035C67.5003 1.75416 67.4282 1.65887 67.3964 1.63288C67.356 1.59967 67.2101 1.51449 66.7366 1.44374L66.097 1.35856C65.6407 1.2777 65.5469 1.0568 65.5469 0.884992C65.5469 0.749276 65.609 0.431641 66.1822 0.431641H71.2326C71.8058 0.431641 71.8679 0.749276 71.8679 0.884992C71.8679 1.0568 71.774 1.27626 71.3264 1.35711L70.6753 1.44518C70.2032 1.51449 70.0573 1.59967 70.0169 1.63432C69.9866 1.66031 69.9144 1.75416 69.9144 2.07035V14.7339C69.9144 15.0501 69.9866 15.1439 70.0169 15.1699C70.0573 15.2046 70.2032 15.2897 70.6782 15.359L71.3178 15.4457C71.7986 15.5308 71.8679 15.7777 71.8679 15.9192C71.8679 16.0607 71.8058 16.3726 71.2326 16.3726V16.3711ZM66.0046 15.9178C66.0349 15.9264 66.0897 15.938 66.1836 15.938H71.234C71.3279 15.938 71.3813 15.9279 71.4116 15.9192C71.3842 15.9062 71.3351 15.8875 71.2514 15.873L70.619 15.7878C70.1757 15.7229 69.8971 15.6319 69.7411 15.5034C69.5664 15.359 69.4813 15.1078 69.4813 14.7339V2.07035C69.4813 1.69785 69.5664 1.44518 69.7411 1.30081C69.8971 1.17231 70.1743 1.08135 70.6146 1.01638L71.2586 0.92975C71.3365 0.915312 71.3842 0.897986 71.4102 0.884992C71.3799 0.87633 71.325 0.866223 71.2311 0.866223H66.1807C66.0883 0.866223 66.0334 0.87633 66.0031 0.884992C66.0306 0.897986 66.0796 0.916756 66.1634 0.931194L66.7958 1.01638C67.239 1.08135 67.5162 1.17231 67.6722 1.30081C67.8469 1.44663 67.932 1.69785 67.932 2.07035V14.7339C67.932 15.1064 67.8469 15.359 67.6722 15.5034C67.5162 15.6334 67.239 15.7229 66.7987 15.7878L66.1547 15.8745C66.0768 15.8889 66.0291 15.9062 66.0031 15.9192L66.0046 15.9178Z" fill="black"/>
<path d="M73.0125 16.1446C72.7338 16.1446 72.5938 16.0652 72.5938 15.9078C72.5938 15.7793 72.715 15.6927 72.9561 15.6494L73.2911 15.6061C73.6824 15.5483 73.9379 15.4588 74.0578 15.3375C74.179 15.2162 74.2397 15.004 74.2397 14.7023V7.46596C74.2397 7.20752 74.1877 7.03137 74.0866 6.93897C73.9841 6.84512 73.8022 6.78448 73.5423 6.75561L72.9561 6.69064C72.7136 6.6762 72.5938 6.59679 72.5938 6.45385C72.5938 6.3398 72.7425 6.26039 73.0399 6.21707C73.616 6.14488 74.0578 6.03082 74.3653 5.87201C74.6728 5.71463 74.9934 5.51972 75.3283 5.29016C75.4958 5.16021 75.6359 5.09669 75.747 5.09669C75.9145 5.09669 75.9982 5.18332 75.9982 5.35513V6.32391C75.9982 6.45241 76.0589 6.53615 76.1802 6.5708C76.3014 6.6069 76.4357 6.56791 76.5844 6.45241C77.328 5.90666 77.9835 5.53416 78.5523 5.33203C79.1198 5.13134 79.7189 5.03027 80.3528 5.03027C81.1902 5.03027 81.8601 5.25695 82.3626 5.70886C82.865 6.16076 83.1162 6.82491 83.1162 7.70129V14.7008C83.1162 15.0026 83.1769 15.2148 83.2981 15.3361C83.4194 15.4588 83.675 15.5411 84.0648 15.5844L84.6784 15.6494C84.8834 15.6783 84.986 15.7649 84.986 15.9078C84.986 16.0666 84.8748 16.1446 84.651 16.1446H79.9629C79.7016 16.1446 79.5717 16.0652 79.5717 15.9078C79.5717 15.7649 79.6742 15.6783 79.8792 15.6494L80.2705 15.6061C80.6618 15.5628 80.9173 15.4776 81.0371 15.3476C81.1584 15.2191 81.2191 15.0026 81.2191 14.7008V7.93808C81.2191 7.23495 81.0516 6.73973 80.7166 6.45241C80.3816 6.1651 79.9081 6.02216 79.293 6.02216C78.678 6.02216 78.1625 6.15499 77.6889 6.42065C77.2139 6.68631 76.8385 7.03859 76.5584 7.47606C76.2798 7.91353 76.1397 8.39865 76.1397 8.92996V14.7023C76.1397 15.004 76.2004 15.2191 76.3217 15.3491C76.4429 15.4776 76.6985 15.557 77.0883 15.5859L77.842 15.6508C78.047 15.6797 78.1495 15.7591 78.1495 15.8876C78.1495 16.0594 78.0095 16.1461 77.7308 16.1461H73.0153L73.0125 16.1446Z" fill="black"/>
<path d="M84.6459 16.3644H79.9579C79.4092 16.3644 79.35 16.0468 79.35 15.911C79.35 15.7898 79.3977 15.501 79.8438 15.4389L80.2409 15.3956C80.6971 15.3451 80.8357 15.2454 80.8747 15.2036C80.9556 15.1184 80.9974 14.9451 80.9974 14.7055V7.94273C80.9974 7.30891 80.8545 6.86422 80.57 6.62166C80.277 6.37044 79.8453 6.24338 79.2879 6.24338C78.7306 6.24338 78.2296 6.36755 77.7893 6.61444C77.3489 6.86133 76.9937 7.19196 76.7367 7.59766C76.4812 7.99904 76.3527 8.44806 76.3527 8.93462V14.7069C76.3527 14.9466 76.3946 15.1198 76.4754 15.205C76.513 15.2454 76.6472 15.3407 77.1006 15.3739L77.8571 15.4389C78.3148 15.5024 78.3625 15.7768 78.3625 15.8908C78.3625 16.0338 78.3004 16.3658 77.7272 16.3658H73.0117C72.4385 16.3658 72.3764 16.0482 72.3764 15.9125C72.3764 15.7407 72.4703 15.5198 72.9179 15.4404L73.2629 15.3956C73.7235 15.3277 73.865 15.2281 73.904 15.1891C73.9805 15.1126 74.0224 14.9408 74.0224 14.7069V7.47061C74.0224 7.19918 73.9589 7.12121 73.9386 7.10244C73.9011 7.06779 73.7957 7.00571 73.5171 6.97539L72.9309 6.91042C72.4299 6.88154 72.375 6.58412 72.375 6.45851C72.375 6.09901 72.85 6.0297 73.0074 6.0066C73.5604 5.9373 73.982 5.82902 74.2649 5.68319C74.5624 5.53015 74.8786 5.33957 75.2049 5.11578C75.4041 4.96274 75.5831 4.88333 75.7463 4.88333C76.0351 4.88333 76.2141 5.06525 76.2141 5.35834V6.32713C76.2141 6.34734 76.217 6.35745 76.2184 6.35889C76.2184 6.35889 76.2256 6.36178 76.2401 6.36611C76.305 6.38488 76.4003 6.32279 76.4509 6.28381C77.2118 5.72506 77.8932 5.33813 78.478 5.13166C79.067 4.92376 79.6966 4.81836 80.3506 4.81836C81.2385 4.81836 81.9633 5.06525 82.5048 5.55181C83.052 6.04559 83.3292 6.76893 83.3292 7.70451V14.704C83.3292 14.9379 83.371 15.1097 83.4476 15.1863C83.4865 15.2252 83.6252 15.3205 84.0857 15.3711L84.6979 15.436C85.1498 15.4996 85.1989 15.7883 85.1989 15.9096C85.1989 16.0164 85.1585 16.3629 84.6474 16.3629L84.6459 16.3644ZM79.7832 15.9067C79.7991 15.9154 79.8481 15.9312 79.9593 15.9312H84.6474C84.7152 15.9312 84.7499 15.9211 84.7643 15.9168V15.9024C84.7643 15.9024 84.734 15.8807 84.6445 15.8677L84.0381 15.8042C83.5847 15.7537 83.3003 15.6555 83.14 15.4938C82.9754 15.3292 82.896 15.0707 82.896 14.7055V7.70595C82.896 6.89887 82.6665 6.28237 82.2145 5.87522C81.7554 5.46229 81.1288 5.25294 80.3506 5.25294C79.7456 5.25294 79.1652 5.34968 78.6238 5.5417C78.078 5.73517 77.4355 6.10189 76.7122 6.63177C76.5101 6.7877 76.3079 6.83967 76.1174 6.78336C75.9037 6.72128 75.7809 6.55524 75.7809 6.32857V5.35978C75.7809 5.34101 75.7795 5.32802 75.7781 5.3208C75.7723 5.3208 75.7622 5.31791 75.7463 5.31791C75.7246 5.31791 75.6395 5.32802 75.4604 5.46662C75.1096 5.70774 74.7775 5.90842 74.4642 6.06869C74.1321 6.2405 73.6744 6.36033 73.0666 6.43541C72.9915 6.44696 72.9352 6.45851 72.8933 6.47006C72.9135 6.47295 72.9381 6.47584 72.9684 6.47728L73.5661 6.54225C73.8766 6.5769 74.0946 6.65487 74.2317 6.78048C74.3833 6.91908 74.4555 7.14287 74.4555 7.46772V14.704C74.4555 15.0679 74.3761 15.3263 74.2115 15.4923C74.0527 15.6526 73.7697 15.758 73.3221 15.823L72.9843 15.8663C72.9063 15.8807 72.8601 15.898 72.8341 15.911C72.8644 15.9197 72.9193 15.9312 73.0132 15.9312H77.7286C77.8629 15.9312 77.9149 15.9067 77.9293 15.8995C77.9134 15.8908 77.8788 15.8778 77.8109 15.8677L77.0688 15.8042C76.614 15.771 76.3253 15.6743 76.1621 15.4996C76.0004 15.3277 75.9224 15.0679 75.9224 14.7055V8.93318C75.9224 8.36288 76.074 7.83445 76.3743 7.36377C76.6718 6.89742 77.0775 6.51771 77.5814 6.23617C78.0867 5.95318 78.6628 5.81025 79.2923 5.81025C79.9564 5.81025 80.4834 5.9734 80.8559 6.29247C81.24 6.62166 81.4335 7.17608 81.4335 7.94273V14.7055C81.4335 15.0679 81.3555 15.3263 81.1938 15.4996C81.0321 15.6714 80.7462 15.7753 80.2914 15.8259L79.9001 15.8692C79.8092 15.8822 79.7846 15.9067 79.7846 15.9067H79.7832Z" fill="black"/>
<path d="M88.3374 16.3455C87.6862 16.3455 87.152 16.1694 86.7333 15.8185C86.3146 15.4663 86.1053 14.8887 86.1053 14.0845V6.02962C86.1053 5.8578 85.9941 5.77118 85.7703 5.77118H84.9618C84.6643 5.77118 84.5156 5.68455 84.5156 5.51274C84.5156 5.39868 84.5994 5.29761 84.7668 5.21098C85.3805 4.88035 85.8728 4.52518 86.2453 4.14546C86.6178 3.76574 86.9427 3.24453 87.2213 2.58472C87.3513 2.28297 87.5101 2.13281 87.6963 2.13281C87.9013 2.13281 88.0039 2.24832 88.0039 2.47788V4.8688C88.0039 5.06949 88.1338 5.17056 88.3951 5.17056H90.2086C90.506 5.17056 90.6547 5.27162 90.6547 5.47231C90.6547 5.673 90.506 5.77406 90.2086 5.77406H88.3951C88.1338 5.77406 88.0039 5.87513 88.0039 6.07582V14.1091C88.0039 14.4253 88.0688 14.6722 88.1988 14.8526C88.3287 15.0317 88.5713 15.1212 88.925 15.1212C89.3163 15.1212 89.6368 14.971 89.888 14.6693C90.1393 14.3675 90.3024 13.8795 90.376 13.2053C90.4136 13.0046 90.5334 12.9035 90.7384 12.9035C90.9622 12.9035 91.0734 13.0104 91.0734 13.2269C91.0171 14.3329 90.724 15.1299 90.1941 15.6179C89.6642 16.1059 89.0448 16.3499 88.3388 16.3499L88.3374 16.3455Z" fill="black"/>
<path d="M88.3352 16.5628C87.635 16.5628 87.0488 16.3679 86.5911 15.9838C86.1233 15.5911 85.8865 14.9515 85.8865 14.0838V6.02888C85.8865 6.013 85.8836 6.00433 85.8836 6.00289C85.8807 6.00289 85.8504 5.98701 85.7681 5.98701H84.9596C84.3604 5.98701 84.2969 5.65494 84.2969 5.512C84.2969 5.36906 84.3604 5.17415 84.665 5.01822C85.2527 4.70203 85.732 4.35696 86.0886 3.99313C86.4395 3.63362 86.7528 3.13118 87.0199 2.4988C87.1874 2.11042 87.4141 1.91406 87.6941 1.91406C88.0176 1.91406 88.2183 2.12919 88.2183 2.4757V4.86662C88.2183 4.90994 88.2183 4.95181 88.393 4.95181H90.2064C90.8041 4.95181 90.8691 5.3142 90.8691 5.47013C90.8691 5.62606 90.8041 5.98845 90.2064 5.98845H88.393C88.2183 5.98845 88.2183 6.03032 88.2183 6.07364V14.1069C88.2183 14.3755 88.2702 14.5819 88.3727 14.722C88.4594 14.8418 88.6442 14.9024 88.9228 14.9024C89.2491 14.9024 89.509 14.7797 89.7198 14.5285C89.9422 14.2614 90.0894 13.808 90.1587 13.1786L90.1616 13.1627C90.2179 12.858 90.4273 12.6833 90.7377 12.6833C91.0784 12.6833 91.2892 12.8898 91.2892 13.2233C91.23 14.3928 90.911 15.2475 90.3407 15.7731C89.7718 16.2972 89.0975 16.5628 88.3381 16.5628H88.3352ZM87.6941 2.35009C87.57 2.35009 87.4603 2.57532 87.4184 2.67206C87.1311 3.35353 86.7874 3.90072 86.3976 4.29921C86.0107 4.69481 85.4952 5.06587 84.8657 5.40516C84.7517 5.46435 84.7286 5.50767 84.7286 5.51633C84.7257 5.51778 84.7719 5.5582 84.9581 5.5582H85.7667C86.1738 5.5582 86.3182 5.80365 86.3182 6.03321V14.0881C86.3182 14.8216 86.503 15.3486 86.8683 15.6561C87.2451 15.9723 87.7375 16.1326 88.3338 16.1326C88.9907 16.1326 89.5494 15.9117 90.0432 15.4583C90.5283 15.0122 90.7998 14.2585 90.8532 13.2161C90.8532 13.141 90.8489 13.1208 90.7348 13.1208C90.6366 13.1208 90.6049 13.1453 90.5861 13.2377C90.5052 13.9582 90.3305 14.4722 90.0504 14.8086C89.7574 15.1609 89.3776 15.3385 88.9214 15.3385C88.4955 15.3385 88.1923 15.2172 88.0205 14.979C87.8631 14.7638 87.7837 14.4707 87.7837 14.1084V6.07508C87.7837 5.9538 87.827 5.55676 88.3915 5.55676H90.2049C90.4345 5.55676 90.4345 5.49756 90.4345 5.47157C90.4345 5.44559 90.4345 5.38639 90.2049 5.38639H88.3915C87.8284 5.38639 87.7837 4.98935 87.7837 4.86807V2.47714C87.7837 2.34864 87.7591 2.34864 87.6927 2.34864L87.6941 2.35009Z" fill="black"/>
<path d="M96.4342 16.342C95.542 16.342 94.7406 16.1125 94.0346 15.6533C93.3272 15.1942 92.7655 14.5445 92.3468 13.7042C91.9281 12.8639 91.7188 11.8922 91.7188 10.7863C91.7188 9.68035 91.9324 8.65382 92.3598 7.79331C92.7872 6.93137 93.3734 6.25712 94.1184 5.76911C94.8619 5.28111 95.6907 5.03711 96.6017 5.03711C97.699 5.03711 98.5869 5.38506 99.267 6.08097C99.9456 6.77688 100.285 7.90882 100.285 9.47245C100.285 9.94601 100.052 10.1828 99.5875 10.1828H94.2858C93.9133 10.1828 93.7271 10.3474 93.7271 10.678C93.7271 12.1998 94.0159 13.3418 94.5919 14.1027C95.168 14.8636 95.9029 15.2447 96.7966 15.2447C97.5041 15.2447 98.0802 15.0513 98.5263 14.6629C98.9724 14.276 99.3363 13.6219 99.6149 12.7037C99.6712 12.5463 99.7911 12.4669 99.9773 12.4669C100.2 12.4669 100.283 12.6113 100.229 12.8971C99.9311 14.1749 99.4561 15.0686 98.805 15.5783C98.1538 16.0879 97.3626 16.342 96.4328 16.342H96.4342ZM94.2021 9.64426H97.0204C97.9127 9.64426 98.3603 9.28475 98.3603 8.56719C98.3603 7.6345 98.2116 6.90249 97.9141 6.37118C97.6167 5.83986 97.1706 5.5742 96.5743 5.5742C95.8495 5.5742 95.2388 5.89761 94.7464 6.54299C94.2526 7.18981 93.9321 8.10806 93.7834 9.29919C93.7459 9.52876 93.8859 9.64426 94.2021 9.64426Z" fill="black"/>
<path d="M96.4335 16.5579C95.5022 16.5579 94.6547 16.3139 93.9155 15.8345C93.1792 15.3566 92.5857 14.6723 92.1512 13.8002C91.7195 12.9339 91.5 11.9204 91.5 10.7856C91.5 9.65074 91.7238 8.58233 92.1642 7.69584C92.6074 6.80358 93.2239 6.09467 93.9978 5.58646C94.7746 5.0768 95.6495 4.81836 96.5995 4.81836C97.7517 4.81836 98.7003 5.1923 99.4193 5.92864C100.135 6.66353 100.499 7.8561 100.499 9.47171C100.499 10.0608 100.166 10.3986 99.5853 10.3986H94.2837C93.9675 10.3986 93.9415 10.53 93.9415 10.6773C93.9415 12.1442 94.2173 13.2516 94.763 13.9706C95.3001 14.6809 95.9657 15.026 96.7944 15.026C97.4442 15.026 97.9784 14.8484 98.3826 14.4976C98.7956 14.1395 99.1406 13.5129 99.4063 12.638C99.4958 12.3824 99.6979 12.2467 99.9766 12.2467C100.18 12.2467 100.296 12.3333 100.355 12.4055C100.457 12.5297 100.485 12.7029 100.44 12.9354C100.131 14.2651 99.6258 15.2079 98.9371 15.7464C98.2498 16.2835 97.4066 16.5564 96.4321 16.5564L96.4335 16.5579ZM96.601 5.2515C95.7361 5.2515 94.9406 5.48539 94.236 5.94885C93.5271 6.41375 92.9611 7.06635 92.5525 7.88787C92.1411 8.71516 91.9331 9.68972 91.9331 10.7856C91.9331 11.8814 92.1367 12.8011 92.5381 13.6067C92.9366 14.408 93.4795 15.0347 94.1508 15.4707C94.8179 15.9053 95.586 16.1247 96.4321 16.1247C97.2781 16.1247 98.0621 15.8836 98.67 15.4057C99.2778 14.9293 99.7312 14.0688 100.016 12.8459C100.036 12.739 100.023 12.6943 100.02 12.6842C100.017 12.6856 100.003 12.6813 99.9752 12.6813C99.8582 12.6813 99.8351 12.7231 99.8163 12.7737C99.529 13.7194 99.1421 14.4124 98.6656 14.8253C98.1805 15.2469 97.551 15.4606 96.7944 15.4606C95.8343 15.4606 95.0344 15.0476 94.4179 14.2333C93.8144 13.4378 93.5083 12.2424 93.5083 10.6787C93.5083 10.2268 93.7913 9.96693 94.2837 9.96693H99.5853C99.9318 9.96693 100.066 9.82833 100.066 9.47316C100.066 7.9745 99.7441 6.88443 99.1089 6.23183C98.475 5.58213 97.6304 5.25294 96.5995 5.25294L96.601 5.2515ZM97.0197 9.86009H94.2014C93.9501 9.86009 93.774 9.79801 93.6657 9.66951C93.6036 9.59588 93.5358 9.46594 93.569 9.2638C93.7206 8.04668 94.0584 7.08512 94.5739 6.41087C95.1081 5.71062 95.7809 5.35689 96.5735 5.35689C97.2492 5.35689 97.7647 5.66298 98.1011 6.26504C98.4158 6.82668 98.5747 7.602 98.5747 8.5679C98.5747 9.15841 98.3047 9.86154 97.0182 9.86154L97.0197 9.86009ZM93.9963 9.39086C93.9963 9.39086 94.0368 9.4284 94.2014 9.4284H97.0197C98.0145 9.4284 98.143 8.96927 98.143 8.5679C98.143 7.67707 98.0015 6.97395 97.7243 6.47728C97.4658 6.01527 97.089 5.79148 96.5735 5.79148C95.9137 5.79148 95.3723 6.08024 94.9175 6.67508C94.4497 7.28725 94.1407 8.17951 93.9978 9.32733C93.9906 9.37642 93.9963 9.39086 93.9963 9.39086Z" fill="black"/>
<path d="M100.819 16.1485C100.596 16.1485 100.484 16.0691 100.484 15.9117C100.484 15.7688 100.587 15.6822 100.792 15.6533L101.183 15.61C101.574 15.5667 101.862 15.4815 102.048 15.3515C102.234 15.2231 102.327 15.0065 102.327 14.7047V2.36606C102.327 2.10762 102.275 1.92859 102.174 1.82752C102.071 1.72645 101.889 1.67015 101.629 1.65571L100.987 1.59074C100.782 1.56186 100.679 1.47668 100.679 1.3323C100.679 1.18792 100.782 1.10274 100.987 1.07386C101.508 0.987232 101.954 0.88761 102.327 0.772107C102.698 0.658047 103.005 0.542543 103.248 0.42704C103.545 0.284104 103.768 0.211914 103.918 0.211914C104.123 0.211914 104.225 0.327418 104.225 0.556981V14.7062C104.225 15.0079 104.286 15.2202 104.407 15.3414C104.528 15.4642 104.784 15.5465 105.174 15.5898L105.816 15.6547C106.021 15.6836 106.124 15.7702 106.124 15.9132C106.124 16.072 106.013 16.15 105.789 16.15H100.822L100.819 16.1485Z" fill="black"/>
<path d="M105.784 16.3683H100.817C100.306 16.3683 100.266 16.0218 100.266 15.915C100.266 15.7937 100.313 15.5049 100.759 15.4428L101.156 15.3995C101.509 15.3605 101.767 15.2855 101.922 15.1786C102.047 15.092 102.108 14.9389 102.108 14.7108V2.36927C102.108 2.10217 102.046 2.01121 102.018 1.98522C101.984 1.95057 101.883 1.88993 101.614 1.87549L100.963 1.81052C100.51 1.74699 100.461 1.45823 100.461 1.33695C100.461 1.21568 100.508 0.926916 100.954 0.864833C101.458 0.781093 101.9 0.682915 102.26 0.570299C102.619 0.457683 102.921 0.346511 103.152 0.236782C103.485 0.0750773 103.728 0 103.914 0C104.238 0 104.438 0.215125 104.438 0.561636V14.7108C104.438 14.9447 104.48 15.1165 104.557 15.1931C104.596 15.232 104.734 15.3273 105.195 15.3779L105.834 15.4428C106.288 15.5064 106.337 15.7951 106.337 15.9164C106.337 16.0232 106.296 16.3697 105.785 16.3697L105.784 16.3683ZM100.699 15.9193C100.713 15.9251 100.746 15.9352 100.817 15.9352H105.784C105.882 15.9352 105.909 15.9164 105.909 15.9164C105.907 15.9193 105.902 15.9251 105.901 15.9294L106.109 15.8456L105.901 15.9063C105.901 15.9063 105.885 15.8861 105.781 15.8716L105.147 15.8081C104.692 15.7576 104.408 15.6594 104.248 15.4977C104.083 15.3331 104.004 15.0747 104.004 14.7108V0.560192C104.004 0.431695 103.979 0.431695 103.913 0.431695C103.846 0.431695 103.687 0.456239 103.337 0.625163C103.085 0.744998 102.766 0.864833 102.385 0.981781C102.005 1.09873 101.546 1.20268 101.018 1.29075C100.915 1.30519 100.891 1.32974 100.891 1.32974L100.894 1.34417C100.894 1.34417 100.924 1.36583 101.014 1.37882L101.647 1.44235C101.955 1.45968 102.179 1.5362 102.322 1.67625C102.469 1.82063 102.54 2.0473 102.54 2.36927V14.7094C102.54 15.0848 102.414 15.362 102.167 15.5338C101.949 15.6854 101.633 15.7821 101.203 15.8298L100.811 15.8731C100.72 15.8861 100.696 15.9106 100.696 15.9106V15.9207L100.699 15.9193Z" fill="black"/>
<path d="M107.147 16.1485C106.924 16.1485 106.812 16.0691 106.812 15.9117C106.812 15.7688 106.915 15.6822 107.12 15.6533L107.511 15.61C107.903 15.5667 108.19 15.4815 108.376 15.3515C108.562 15.2231 108.655 15.0065 108.655 14.7047V2.36606C108.655 2.10762 108.603 1.92859 108.502 1.82752C108.399 1.72645 108.217 1.67015 107.957 1.65571L107.315 1.59074C107.11 1.56186 107.007 1.47668 107.007 1.3323C107.007 1.18792 107.11 1.10274 107.315 1.07386C107.836 0.987232 108.282 0.88761 108.655 0.772107C109.026 0.658047 109.333 0.542543 109.576 0.42704C109.873 0.284104 110.096 0.211914 110.246 0.211914C110.451 0.211914 110.553 0.327418 110.553 0.556981V14.7062C110.553 15.0079 110.614 15.2202 110.735 15.3414C110.857 15.4642 111.112 15.5465 111.502 15.5898L112.144 15.6547C112.35 15.6836 112.452 15.7702 112.452 15.9132C112.452 16.072 112.341 16.15 112.117 16.15H107.15L107.147 16.1485Z" fill="black"/>
<path d="M112.112 16.3683H107.145C106.634 16.3683 106.594 16.0218 106.594 15.915C106.594 15.7937 106.641 15.5049 107.088 15.4428L107.485 15.3995C107.837 15.3605 108.095 15.2869 108.25 15.1786C108.375 15.092 108.436 14.9375 108.436 14.7108V2.36927C108.436 2.10217 108.374 2.01121 108.347 1.98522C108.312 1.95057 108.211 1.88993 107.942 1.87549L107.291 1.81052C106.838 1.74699 106.789 1.45823 106.789 1.33695C106.789 1.21568 106.836 0.926916 107.282 0.864833C107.786 0.781093 108.228 0.682915 108.589 0.570299C108.95 0.459127 109.25 0.346511 109.481 0.236782C109.815 0.0750773 110.057 0 110.244 0C110.567 0 110.768 0.215125 110.768 0.561636V14.7108C110.768 14.9447 110.81 15.1165 110.886 15.1931C110.925 15.232 111.064 15.3273 111.524 15.3779L112.164 15.4428C112.617 15.5064 112.666 15.7951 112.666 15.9164C112.666 16.0232 112.626 16.3697 112.115 16.3697L112.112 16.3683ZM107.027 15.9193C107.041 15.9251 107.075 15.9352 107.145 15.9352H112.112C112.181 15.9352 112.214 15.9251 112.229 15.9193V15.9048C112.229 15.9048 112.199 15.8832 112.109 15.8702L111.475 15.8067C111.02 15.7561 110.736 15.658 110.576 15.4963C110.411 15.3317 110.332 15.0732 110.332 14.7079V0.560192C110.332 0.431695 110.307 0.431695 110.241 0.431695C110.174 0.431695 110.016 0.456239 109.665 0.625163C109.414 0.744998 109.094 0.864833 108.713 0.981781C108.334 1.09873 107.874 1.20268 107.345 1.29075C107.242 1.30519 107.217 1.32974 107.217 1.32974L107.22 1.34417C107.22 1.34417 107.251 1.36583 107.34 1.37882L107.974 1.44235C108.282 1.45968 108.505 1.5362 108.648 1.6748C108.796 1.81918 108.866 2.04586 108.866 2.36782V14.7079C108.866 15.0833 108.741 15.3605 108.494 15.5323C108.276 15.6839 107.96 15.7807 107.529 15.8283L107.138 15.8716C107.047 15.8846 107.023 15.9092 107.023 15.9092V15.9193H107.027Z" fill="black"/>
<path d="M113.505 16.1531C113.226 16.1531 113.086 16.0737 113.086 15.9163C113.086 15.7878 113.207 15.7012 113.448 15.6578L113.783 15.6145C114.248 15.5568 114.546 15.4673 114.677 15.346C114.807 15.2247 114.872 15.0125 114.872 14.7107V7.47442C114.872 7.21598 114.82 7.03984 114.719 6.94743C114.616 6.85359 114.434 6.79295 114.175 6.76407L113.588 6.6991C113.346 6.68466 113.226 6.60525 113.226 6.46232C113.226 6.34826 113.375 6.26885 113.672 6.22554C114.248 6.15335 114.713 6.03929 115.067 5.88047C115.421 5.7231 115.764 5.52818 116.099 5.29862C116.267 5.16868 116.407 5.10515 116.518 5.10515C116.685 5.10515 116.769 5.19178 116.769 5.36359V14.7107C116.769 15.0125 116.825 15.2276 116.937 15.3575C117.048 15.486 117.261 15.5654 117.578 15.5943L118.275 15.6593C118.48 15.6882 118.583 15.7676 118.583 15.8961C118.583 16.0679 118.442 16.1545 118.164 16.1545H113.503L113.505 16.1531ZM115.849 3.12426C115.458 3.12426 115.129 3.01598 114.859 2.80085C114.589 2.58573 114.455 2.31285 114.455 1.98222C114.455 1.65159 114.589 1.38305 114.859 1.17514C115.129 0.967235 115.458 0.863281 115.849 0.863281C116.241 0.863281 116.566 0.967235 116.825 1.17514C117.085 1.38305 117.217 1.65304 117.217 1.98222C117.217 2.31141 117.087 2.58573 116.825 2.80085C116.564 3.01598 116.239 3.12426 115.849 3.12426Z" fill="black"/>
<path d="M118.163 16.3675H113.502C112.929 16.3675 112.867 16.0498 112.867 15.9141C112.867 15.7423 112.961 15.5214 113.409 15.442L113.754 15.3972C114.321 15.3279 114.483 15.2254 114.526 15.185C114.608 15.107 114.653 14.9424 114.653 14.7071V7.47079C114.653 7.19936 114.59 7.1214 114.569 7.10263C114.532 7.06798 114.426 7.00589 114.148 6.97557L113.562 6.9106C113.061 6.88173 113.006 6.5843 113.006 6.45869C113.006 6.09919 113.481 6.02989 113.638 6.00679C114.195 5.93748 114.645 5.82775 114.977 5.67904C115.317 5.52745 115.652 5.33831 115.974 5.11741C116.172 4.96437 116.353 4.88496 116.516 4.88496C116.804 4.88496 116.983 5.06687 116.983 5.35997V14.7071C116.983 15.0146 117.046 15.1503 117.099 15.211C117.141 15.2586 117.259 15.3438 117.596 15.3741L118.293 15.4391C118.748 15.5026 118.797 15.7769 118.797 15.891C118.797 16.0339 118.735 16.366 118.162 16.366L118.163 16.3675ZM113.325 15.9141C113.355 15.9228 113.41 15.9343 113.504 15.9343H118.165C118.299 15.9343 118.351 15.9098 118.364 15.9026C118.348 15.8939 118.315 15.8809 118.245 15.8708L117.558 15.8073C117.181 15.7726 116.924 15.6715 116.773 15.4968C116.624 15.325 116.552 15.068 116.552 14.7085V5.36141C116.552 5.34264 116.55 5.32965 116.549 5.32243C116.543 5.32243 116.533 5.31954 116.519 5.31954C116.497 5.31954 116.41 5.32965 116.233 5.46825C115.879 5.71081 115.521 5.91294 115.156 6.07609C114.785 6.24212 114.295 6.3634 113.699 6.43848C113.624 6.45003 113.567 6.46158 113.526 6.47313C113.546 6.47602 113.57 6.47891 113.601 6.48035L114.198 6.54532C114.509 6.57997 114.727 6.65794 114.865 6.78355C115.016 6.92215 115.089 7.14594 115.089 7.47079V14.7071C115.089 15.0695 115.001 15.3366 114.826 15.4997C114.658 15.6586 114.336 15.7611 113.811 15.826L113.478 15.8693C113.4 15.8838 113.354 15.9011 113.328 15.9141H113.325ZM115.847 3.33865C115.408 3.33865 115.029 3.21449 114.721 2.96904C114.399 2.71205 114.234 2.37997 114.234 1.98149C114.234 1.583 114.399 1.25237 114.724 1.00259C115.031 0.76581 115.41 0.644531 115.847 0.644531C116.285 0.644531 116.66 0.76581 116.959 1.00404C117.272 1.25526 117.431 1.583 117.431 1.98149C117.431 2.37997 117.274 2.70916 116.962 2.96615C116.662 3.21304 116.288 3.33865 115.847 3.33865ZM115.847 1.07623C115.502 1.07623 115.222 1.1643 114.99 1.34333C114.774 1.50936 114.669 1.71727 114.669 1.98004C114.669 2.24281 114.774 2.45505 114.992 2.62975C115.225 2.81456 115.505 2.90551 115.847 2.90551C116.189 2.90551 116.464 2.816 116.686 2.63264C116.895 2.45938 116.998 2.2457 116.998 1.98149C116.998 1.71727 116.897 1.50936 116.689 1.34333C116.465 1.16574 116.189 1.07911 115.847 1.07911V1.07623Z" fill="black"/>
<path d="M122.693 20.7803C121.279 20.7803 120.163 20.5609 119.344 20.1234C118.526 19.6845 118.117 19.1575 118.117 18.541C118.117 18.2826 118.163 18.0487 118.257 17.8408C118.35 17.6329 118.55 17.3918 118.856 17.1189C119.164 16.846 119.633 16.4937 120.266 16.0635C120.489 15.9061 120.601 15.7588 120.601 15.6217C120.601 15.4845 120.489 15.382 120.266 15.3098C119.596 15.0947 119.196 14.8175 119.066 14.4811C118.936 14.1432 119.093 13.8314 119.541 13.544L121.551 12.2085C121.774 12.0656 121.764 11.9429 121.523 11.8418C120.761 11.5545 120.156 11.1098 119.71 10.5063C119.264 9.90279 119.04 9.25742 119.04 8.56728C119.04 7.87715 119.226 7.31118 119.599 6.77986C119.971 6.24855 120.472 5.82552 121.106 5.50932C121.738 5.19313 122.446 5.03576 123.227 5.03576C123.673 5.03576 124.1 5.09351 124.51 5.20757C124.77 5.27976 124.929 5.21479 124.985 5.0141C125.153 4.46835 125.465 4.04099 125.92 3.73201C126.376 3.42304 126.826 3.26855 127.272 3.26855C127.719 3.26855 128.049 3.36529 128.319 3.55876C128.589 3.75223 128.723 3.99334 128.723 4.28066C128.723 4.52466 128.63 4.71813 128.445 4.8625C128.258 5.00688 128.026 5.07763 127.747 5.07763C127.505 5.07763 127.329 5.04153 127.218 4.96935C127.106 4.89716 127.004 4.82641 126.91 4.75422C126.816 4.68203 126.667 4.64594 126.464 4.64594C126.018 4.64594 125.738 4.83219 125.626 5.20613C125.57 5.35051 125.574 5.47179 125.641 5.57285C125.706 5.67392 125.804 5.77354 125.934 5.8746C126.38 6.20523 126.73 6.60661 126.981 7.08017C127.232 7.55374 127.358 8.07784 127.358 8.65247C127.358 9.34116 127.176 9.9591 126.813 10.5049C126.451 11.0506 125.957 11.4809 125.335 11.7971C124.711 12.1132 124.009 12.2706 123.228 12.2706C122.893 12.2706 122.605 12.324 122.363 12.4323C122.121 12.5406 121.88 12.6951 121.637 12.8958L121.162 13.3044C120.92 13.5339 120.85 13.7534 120.953 13.9613C121.055 14.1692 121.311 14.2732 121.719 14.2732H124.119C125.459 14.2732 126.519 14.5287 127.3 15.0369C128.081 15.5466 128.472 16.2468 128.472 17.1362C128.472 17.8393 128.211 18.4645 127.691 19.0103C127.17 19.556 126.477 19.9863 125.612 20.3024C124.747 20.6186 123.775 20.776 122.696 20.776L122.693 20.7803ZM123.028 20.3068C123.698 20.3068 124.311 20.1913 124.87 19.9617C125.429 19.7321 125.869 19.4131 126.195 19.003C126.52 18.5944 126.683 18.131 126.683 17.6141C126.683 16.9687 126.436 16.4692 125.944 16.1169C125.45 15.7646 124.759 15.5899 123.865 15.5899H123.224C122.646 15.5899 122.215 15.6332 121.926 15.7184C121.637 15.805 121.363 15.9552 121.103 16.1703C120.525 16.6439 120.163 17.025 120.014 17.3124C119.866 17.5997 119.791 17.8942 119.791 18.196C119.791 18.8283 120.074 19.338 120.641 19.7249C121.208 20.1119 122.004 20.3068 123.026 20.3068H123.028ZM123.195 11.735C123.865 11.735 124.395 11.4549 124.786 10.8947C125.177 10.3345 125.372 9.57361 125.372 8.61204C125.372 7.65047 125.172 6.92858 124.772 6.36116C124.372 5.79375 123.846 5.51077 123.195 5.51077C122.544 5.51077 122.018 5.79375 121.618 6.36116C121.218 6.92858 121.018 7.6779 121.018 8.61204C121.018 9.54618 121.213 10.3345 121.604 10.8947C121.995 11.4549 122.525 11.735 123.195 11.735Z" fill="black"/>
<path d="M122.692 21.0001C121.248 21.0001 120.087 20.7706 119.241 20.3172C118.35 19.8408 117.898 19.2445 117.898 18.5428C117.898 18.254 117.952 17.9884 118.057 17.7545C118.163 17.5162 118.378 17.2564 118.711 16.9604C119.023 16.6832 119.505 16.3222 120.142 15.8876C120.331 15.7548 120.382 15.6595 120.382 15.6249C120.382 15.6104 120.336 15.5628 120.197 15.518C119.455 15.2798 119.017 14.9665 118.861 14.5608C118.743 14.2547 118.745 13.7999 119.42 13.3639L121.417 12.037C120.634 11.7382 119.998 11.2675 119.531 10.638C119.059 9.99985 118.82 9.30394 118.82 8.57049C118.82 7.83705 119.02 7.22488 119.417 6.65891C119.809 6.10016 120.343 5.6497 121.006 5.31907C121.665 4.98988 122.412 4.8224 123.223 4.8224C123.687 4.8224 124.139 4.88304 124.565 5.00288C124.745 5.05341 124.758 5.00721 124.772 4.95956C124.956 4.36183 125.299 3.8926 125.795 3.55619C126.284 3.22412 126.781 3.05664 127.269 3.05664C127.757 3.05664 128.135 3.16781 128.441 3.38727C128.769 3.62405 128.936 3.92581 128.936 4.28531C128.936 4.59428 128.811 4.85417 128.573 5.03753C128.349 5.21078 128.069 5.29741 127.742 5.29741C127.455 5.29741 127.243 5.25121 127.094 5.15447C126.977 5.0794 126.869 5.00288 126.772 4.92924C126.748 4.91047 126.668 4.86716 126.459 4.86716C126.008 4.86716 125.886 5.08373 125.829 5.27287L125.824 5.28875C125.78 5.40136 125.806 5.44179 125.818 5.45767C125.87 5.53852 125.951 5.62082 126.062 5.706C126.53 6.05252 126.902 6.48277 127.168 6.98232C127.435 7.4862 127.569 8.04928 127.569 8.65568C127.569 9.38479 127.374 10.0489 126.989 10.6279C126.606 11.2025 126.082 11.6617 125.428 11.9937C124.777 12.3244 124.035 12.4904 123.223 12.4904C122.92 12.4904 122.659 12.538 122.446 12.6333C122.223 12.733 121.996 12.8788 121.771 13.065L121.299 13.4722C121.059 13.7003 121.12 13.823 121.143 13.8692C121.221 14.028 121.496 14.0612 121.716 14.0612H124.115C125.491 14.0612 126.6 14.3298 127.415 14.8611C128.258 15.4112 128.685 16.1793 128.685 17.1423C128.685 17.8989 128.402 18.5803 127.843 19.1651C127.302 19.7325 126.574 20.1858 125.682 20.5107C124.797 20.8341 123.791 20.9972 122.692 20.9972V21.0001ZM123.222 5.25698C122.478 5.25698 121.797 5.40858 121.198 5.70745C120.601 6.00487 120.12 6.40913 119.771 6.90869C119.427 7.39958 119.253 7.95977 119.253 8.57194C119.253 9.18411 119.464 9.81938 119.879 10.381C120.298 10.947 120.876 11.3715 121.595 11.6429C121.801 11.7295 121.909 11.845 121.922 11.9923C121.935 12.1396 121.849 12.2753 121.664 12.3937L119.657 13.7263C119.133 14.0641 119.23 14.311 119.264 14.4049C119.367 14.6734 119.735 14.9145 120.328 15.1066C120.73 15.2351 120.813 15.4603 120.813 15.6249C120.813 15.8386 120.673 16.0407 120.388 16.2428C119.762 16.6687 119.296 17.0181 118.997 17.2838C118.714 17.535 118.531 17.753 118.451 17.9321C118.371 18.1111 118.33 18.3161 118.33 18.5442C118.33 19.0799 118.694 19.5347 119.443 19.9361C120.226 20.3547 121.319 20.567 122.689 20.567C123.737 20.567 124.693 20.4125 125.53 20.1064C126.359 19.8032 127.032 19.3874 127.527 18.8676C128.012 18.3594 128.249 17.7949 128.249 17.1437C128.249 16.3237 127.898 15.6971 127.175 15.2249C126.433 14.7413 125.402 14.4958 124.113 14.4958H121.713C121.215 14.4958 120.891 14.35 120.751 14.0627C120.649 13.8562 120.61 13.5299 121.006 13.1531L121.488 12.7373C121.746 12.5222 122.008 12.3561 122.267 12.2406C122.536 12.1208 122.856 12.0601 123.22 12.0601C123.964 12.0601 124.64 11.9085 125.23 11.6097C125.816 11.3123 126.287 10.9022 126.626 10.3911C126.963 9.88435 127.134 9.30105 127.134 8.65857C127.134 8.12292 127.016 7.6277 126.784 7.18734C126.55 6.74554 126.218 6.36438 125.799 6.05396C125.646 5.93701 125.53 5.81718 125.452 5.6959C125.382 5.58761 125.317 5.40281 125.415 5.14292C125.515 4.81807 125.776 4.43691 126.457 4.43691C126.713 4.43691 126.902 4.48744 127.036 4.58995C127.123 4.65637 127.221 4.72567 127.328 4.79497C127.37 4.8224 127.481 4.8686 127.741 4.8686C127.973 4.8686 128.158 4.8123 128.307 4.69824C128.44 4.59573 128.502 4.46578 128.502 4.2882C128.502 4.07307 128.399 3.89404 128.187 3.74244C127.956 3.57641 127.647 3.49267 127.267 3.49267C126.867 3.49267 126.453 3.6356 126.036 3.91859C125.618 4.20157 125.341 4.58273 125.187 5.08373C125.155 5.19779 125.003 5.57606 124.448 5.42302C124.058 5.31329 123.646 5.25843 123.222 5.25843V5.25698ZM123.027 20.5266C121.964 20.5266 121.12 20.3187 120.519 19.9072C119.892 19.4784 119.573 18.9037 119.573 18.1992C119.573 17.8628 119.657 17.5321 119.82 17.2159C119.983 16.8997 120.357 16.5041 120.964 16.0075C121.245 15.775 121.547 15.609 121.862 15.5151C122.172 15.4227 122.617 15.3765 123.222 15.3765H123.864C124.798 15.3765 125.541 15.5671 126.069 15.944C126.62 16.3381 126.899 16.8997 126.899 17.6173C126.899 18.1818 126.719 18.6944 126.363 19.142C126.016 19.578 125.541 19.9231 124.951 20.1656C124.37 20.4053 123.721 20.5266 123.027 20.5266ZM123.222 15.8097C122.667 15.8097 122.253 15.8501 121.986 15.9295C121.727 16.0075 121.475 16.1446 121.238 16.341C120.685 16.7944 120.338 17.1553 120.204 17.4152C120.071 17.6693 120.005 17.9321 120.005 18.1992C120.005 18.7594 120.252 19.2012 120.762 19.5491C121.29 19.9101 122.051 20.092 123.025 20.092C123.664 20.092 124.256 19.9823 124.785 19.7642C125.307 19.5506 125.722 19.2488 126.024 18.872C126.322 18.498 126.466 18.088 126.466 17.6173C126.466 17.0412 126.254 16.6081 125.818 16.2962C125.364 15.9728 124.707 15.8097 123.864 15.8097H123.222ZM123.194 11.9548C122.452 11.9548 121.857 11.6414 121.426 11.0221C121.011 10.4272 120.8 9.61869 120.8 8.61525C120.8 7.61181 121.016 6.84083 121.44 6.24021C121.88 5.61505 122.471 5.29741 123.194 5.29741C123.918 5.29741 124.507 5.61505 124.947 6.24021C125.372 6.84227 125.587 7.64213 125.587 8.61525C125.587 9.58837 125.376 10.4272 124.962 11.0221C124.53 11.6414 123.935 11.9548 123.193 11.9548H123.194ZM123.194 5.73055C122.612 5.73055 122.155 5.97888 121.795 6.48999C121.423 7.01697 121.235 7.73165 121.235 8.61525C121.235 9.49885 121.42 10.254 121.782 10.7737C122.133 11.2762 122.595 11.5216 123.196 11.5216C123.796 11.5216 124.258 11.2776 124.609 10.7737C124.972 10.254 125.156 9.52773 125.156 8.61525C125.156 7.70277 124.967 7.01697 124.596 6.48999C124.235 5.97888 123.778 5.73055 123.197 5.73055H123.194Z" fill="black"/>
<path d="M133.34 16.342C132.448 16.342 131.647 16.1125 130.941 15.6533C130.233 15.1942 129.672 14.5445 129.253 13.7042C128.834 12.8639 128.625 11.8922 128.625 10.7863C128.625 9.68035 128.839 8.65382 129.267 7.79331C129.695 6.93137 130.281 6.25712 131.025 5.76911C131.768 5.28111 132.597 5.03711 133.508 5.03711C134.605 5.03711 135.493 5.38506 136.173 6.08097C136.852 6.77688 137.191 7.90882 137.191 9.47245C137.191 9.94601 136.959 10.1828 136.494 10.1828H131.192C130.82 10.1828 130.633 10.3474 130.633 10.678C130.633 12.1998 130.922 13.3418 131.498 14.1027C132.074 14.8636 132.809 15.2447 133.703 15.2447C134.409 15.2447 134.986 15.0513 135.433 14.6629C135.879 14.276 136.243 13.6219 136.521 12.7037C136.577 12.5463 136.697 12.4669 136.884 12.4669C137.107 12.4669 137.191 12.6113 137.135 12.8971C136.837 14.1749 136.362 15.0686 135.711 15.5783C135.06 16.0879 134.269 16.342 133.339 16.342H133.34ZM131.108 9.64426H133.927C134.819 9.64426 135.267 9.28475 135.267 8.56719C135.267 7.6345 135.118 6.90249 134.82 6.37118C134.523 5.83986 134.077 5.5742 133.481 5.5742C132.756 5.5742 132.145 5.89761 131.653 6.54299C131.159 7.18981 130.838 8.10806 130.69 9.29919C130.652 9.52876 130.792 9.64426 131.108 9.64426Z" fill="black"/>
<path d="M133.34 16.5579C132.407 16.5579 131.561 16.3139 130.822 15.8345C130.085 15.3566 129.492 14.6723 129.057 13.8002C128.626 12.9339 128.406 11.9204 128.406 10.7856C128.406 9.65074 128.63 8.58233 129.07 7.69584C129.514 6.80358 130.13 6.09467 130.903 5.58646C131.679 5.0768 132.554 4.81836 133.504 4.81836C134.656 4.81836 135.605 5.1923 136.324 5.92864C137.04 6.66353 137.404 7.8561 137.404 9.47171C137.404 10.0608 137.071 10.3986 136.49 10.3986H131.188C130.874 10.3986 130.848 10.53 130.848 10.6773C130.848 12.1442 131.123 13.2516 131.669 13.9706C132.208 14.6809 132.872 15.026 133.701 15.026C134.35 15.026 134.885 14.8484 135.289 14.4976C135.702 14.1395 136.047 13.5129 136.311 12.638C136.402 12.3824 136.603 12.2467 136.881 12.2467C137.085 12.2467 137.2 12.3333 137.26 12.4069C137.362 12.5311 137.39 12.7044 137.345 12.9368C137.036 14.2666 136.531 15.2094 135.843 15.7464C135.156 16.2835 134.313 16.5564 133.338 16.5564L133.34 16.5579ZM133.507 5.2515C132.642 5.2515 131.847 5.48539 131.142 5.94885C130.433 6.41375 129.867 7.06635 129.46 7.88787C129.049 8.71516 128.841 9.68972 128.841 10.7856C128.841 11.8814 129.044 12.8011 129.446 13.6067C129.844 14.408 130.387 15.0347 131.059 15.4707C131.726 15.9053 132.494 16.1247 133.34 16.1247C134.186 16.1247 134.968 15.8836 135.578 15.4057C136.185 14.9307 136.639 14.0688 136.923 12.8459C136.943 12.7405 136.932 12.6943 136.928 12.6842C136.925 12.6856 136.91 12.6813 136.883 12.6813C136.766 12.6813 136.741 12.7231 136.724 12.7737C136.438 13.7179 136.05 14.4109 135.573 14.8253C135.088 15.2469 134.459 15.4606 133.702 15.4606C132.742 15.4606 131.942 15.0476 131.326 14.2333C130.722 13.4378 130.417 12.2424 130.417 10.6787C130.417 10.2268 130.7 9.96693 131.191 9.96693H136.493C136.84 9.96693 136.974 9.82833 136.974 9.47316C136.974 7.9745 136.652 6.88443 136.017 6.23183C135.383 5.58213 134.538 5.25294 133.507 5.25294V5.2515ZM133.926 9.86009H131.108C130.856 9.86009 130.68 9.79801 130.572 9.66951C130.51 9.59588 130.442 9.46594 130.475 9.2638C130.627 8.04668 130.965 7.08367 131.48 6.41087C132.014 5.71062 132.687 5.35689 133.48 5.35689C134.155 5.35689 134.671 5.66298 135.007 6.26504C135.322 6.82668 135.481 7.602 135.481 8.5679C135.481 9.15841 135.211 9.86154 133.924 9.86154L133.926 9.86009ZM130.901 9.39086C130.901 9.39086 130.942 9.4284 131.106 9.4284H133.924C134.919 9.4284 135.048 8.96927 135.048 8.5679C135.048 7.67707 134.906 6.97395 134.629 6.47728C134.371 6.01527 133.994 5.79148 133.478 5.79148C132.819 5.79148 132.277 6.08024 131.822 6.67508C131.355 7.28725 131.046 8.17951 130.903 9.32733C130.895 9.37642 130.901 9.39086 130.901 9.39086Z" fill="black"/>
<path d="M138.169 16.1446C137.89 16.1446 137.75 16.0652 137.75 15.9078C137.75 15.7793 137.871 15.6927 138.112 15.6494L138.447 15.6061C138.839 15.5483 139.094 15.4588 139.215 15.3375C139.337 15.2162 139.397 15.004 139.397 14.7023V7.46596C139.397 7.20752 139.345 7.03137 139.244 6.93897C139.142 6.84512 138.96 6.78448 138.7 6.75561L138.114 6.69064C137.871 6.6762 137.751 6.59679 137.751 6.45385C137.751 6.3398 137.9 6.26039 138.198 6.21707C138.774 6.14488 139.215 6.03082 139.523 5.87201C139.831 5.71463 140.151 5.51972 140.486 5.29016C140.653 5.16021 140.794 5.09669 140.905 5.09669C141.072 5.09669 141.156 5.18332 141.156 5.35513V6.32391C141.156 6.45241 141.217 6.53615 141.338 6.5708C141.459 6.6069 141.593 6.56791 141.742 6.45241C142.486 5.90666 143.141 5.53416 143.71 5.33203C144.277 5.13134 144.877 5.03027 145.509 5.03027C146.346 5.03027 147.016 5.25695 147.519 5.70886C148.021 6.16076 148.272 6.82491 148.272 7.70129V14.7008C148.272 15.0026 148.333 15.2148 148.454 15.3361C148.576 15.4588 148.831 15.5411 149.221 15.5844L149.835 15.6494C150.04 15.6783 150.142 15.7649 150.142 15.9078C150.142 16.0666 150.031 16.1446 149.807 16.1446H145.119C144.858 16.1446 144.728 16.0652 144.728 15.9078C144.728 15.7649 144.83 15.6783 145.035 15.6494L145.427 15.6061C145.818 15.5628 146.074 15.4776 146.195 15.3476C146.316 15.2191 146.377 15.0026 146.377 14.7008V7.93808C146.377 7.23495 146.209 6.73973 145.874 6.45241C145.539 6.1651 145.066 6.02216 144.451 6.02216C143.836 6.02216 143.32 6.15499 142.847 6.42065C142.372 6.68631 141.995 7.03859 141.716 7.47606C141.437 7.91353 141.297 8.39865 141.297 8.92996V14.7023C141.297 15.004 141.358 15.2191 141.479 15.3491C141.601 15.4776 141.856 15.557 142.246 15.5859L143 15.6508C143.205 15.6797 143.307 15.7591 143.307 15.8876C143.307 16.0594 143.167 16.1461 142.889 16.1461H138.173L138.169 16.1446Z" fill="black"/>
<path d="M149.804 16.3644H145.116C144.567 16.3644 144.508 16.0468 144.508 15.911C144.508 15.7898 144.555 15.501 145.002 15.4389L145.399 15.3956C145.856 15.3451 145.993 15.2454 146.032 15.2036C146.112 15.1184 146.155 14.9451 146.155 14.7055V7.94273C146.155 7.30891 146.011 6.86422 145.728 6.62166C145.435 6.37044 145.003 6.24338 144.446 6.24338C143.888 6.24338 143.387 6.36755 142.947 6.61444C142.507 6.86133 142.151 7.19196 141.894 7.59766C141.639 7.99904 141.509 8.44806 141.509 8.93462V14.7069C141.509 14.9466 141.551 15.1198 141.632 15.205C141.669 15.2454 141.803 15.3407 142.257 15.3739L143.013 15.4389C143.471 15.5024 143.519 15.7768 143.519 15.8908C143.519 16.0338 143.457 16.3658 142.883 16.3658H138.168C137.595 16.3658 137.533 16.0482 137.533 15.9125C137.533 15.7407 137.627 15.5198 138.074 15.4404L138.419 15.3956C138.88 15.3277 139.021 15.2281 139.06 15.1891C139.137 15.1126 139.179 14.9408 139.179 14.7069V7.47061C139.179 7.20062 139.115 7.12121 139.095 7.10244C139.057 7.06779 138.952 7.00571 138.673 6.97539L138.087 6.91042C137.586 6.88154 137.531 6.58412 137.531 6.45851C137.531 6.09901 138.006 6.0297 138.164 6.0066C138.717 5.9373 139.138 5.82902 139.421 5.68319C139.717 5.53159 140.033 5.33957 140.361 5.11578C140.559 4.96274 140.739 4.88333 140.903 4.88333C141.191 4.88333 141.37 5.06525 141.37 5.35834V6.32713C141.37 6.34734 141.373 6.35745 141.375 6.35889C141.375 6.35889 141.382 6.36178 141.396 6.36611C141.463 6.38632 141.557 6.32279 141.607 6.28381C142.368 5.72506 143.049 5.33813 143.634 5.13166C144.223 4.92376 144.853 4.81836 145.507 4.81836C146.395 4.81836 147.12 5.06525 147.661 5.55181C148.208 6.04414 148.485 6.76893 148.485 7.70451V14.704C148.485 14.9379 148.527 15.1097 148.604 15.1863C148.643 15.2252 148.781 15.3205 149.242 15.3711L149.854 15.436C150.308 15.4996 150.355 15.7883 150.355 15.9096C150.355 16.0164 150.315 16.3629 149.804 16.3629V16.3644ZM144.941 15.9067C144.957 15.9154 145.006 15.9312 145.117 15.9312H149.805C149.903 15.9312 149.931 15.9125 149.931 15.9125C149.928 15.9154 149.923 15.9211 149.922 15.9255L150.13 15.8417L149.922 15.9024C149.922 15.9024 149.906 15.8822 149.802 15.8677L149.196 15.8042C148.742 15.7537 148.458 15.6555 148.298 15.4938C148.133 15.3292 148.054 15.0707 148.054 14.7055V7.70595C148.054 6.89887 147.824 6.28237 147.372 5.87522C146.913 5.46229 146.286 5.25294 145.508 5.25294C144.903 5.25294 144.323 5.34968 143.781 5.5417C143.236 5.73517 142.593 6.10189 141.87 6.63177C141.668 6.7877 141.466 6.83967 141.275 6.78336C141.061 6.72128 140.939 6.55524 140.939 6.32857V5.35978C140.939 5.34101 140.937 5.32802 140.936 5.3208C140.93 5.3208 140.92 5.31791 140.905 5.31791C140.884 5.31791 140.799 5.32802 140.62 5.46662C140.267 5.70918 139.935 5.90842 139.623 6.06869C139.291 6.2405 138.834 6.36033 138.226 6.43541C138.151 6.44696 138.094 6.45851 138.052 6.47006C138.073 6.47295 138.097 6.47584 138.128 6.47728L138.725 6.54225C139.036 6.5769 139.254 6.65487 139.391 6.78048C139.542 6.91908 139.615 7.14287 139.615 7.46772V14.704C139.615 15.0679 139.535 15.3263 139.371 15.4923C139.212 15.6526 138.929 15.758 138.481 15.823L138.142 15.8663C138.064 15.8807 138.018 15.898 137.992 15.911C138.022 15.9197 138.077 15.9312 138.171 15.9312H142.886C143.021 15.9312 143.073 15.9067 143.087 15.8995C143.071 15.8908 143.036 15.8778 142.969 15.8677L142.227 15.8042C141.772 15.771 141.483 15.6743 141.32 15.4996C141.158 15.3277 141.08 15.0679 141.08 14.7055V8.93318C141.08 8.36288 141.232 7.83445 141.533 7.36377C141.829 6.89742 142.237 6.51771 142.741 6.23617C143.246 5.95318 143.82 5.81025 144.451 5.81025C145.116 5.81025 145.643 5.9734 146.015 6.29247C146.399 6.62166 146.593 7.17608 146.593 7.94273V14.7055C146.593 15.0664 146.515 15.3263 146.353 15.4996C146.191 15.6714 145.905 15.7753 145.451 15.8259L145.059 15.8692C144.968 15.8822 144.944 15.9067 144.944 15.9067H144.941Z" fill="black"/>
<path d="M154.568 16.3435C153.749 16.3435 153.01 16.1312 152.35 15.7082C151.689 15.2852 151.165 14.6788 150.774 13.889C150.382 13.0993 150.188 12.1594 150.188 11.0678C150.188 9.84783 150.424 8.7852 150.899 7.87994C151.374 6.97613 152.02 6.27589 152.838 5.78066C153.657 5.28544 154.568 5.03711 155.573 5.03711C156.428 5.03711 157.098 5.16561 157.583 5.42549C157.769 5.52656 157.861 5.68393 157.861 5.89906L157.918 8.52676C157.918 8.74189 157.806 8.85017 157.583 8.85017C157.378 8.85017 157.248 8.75633 157.191 8.57008C156.93 7.78032 156.679 7.1696 156.438 6.73934C156.195 6.30909 155.944 6.01023 155.684 5.84563C155.423 5.68104 155.135 5.59875 154.819 5.59875C154.447 5.59875 154.061 5.76334 153.661 6.09397C153.261 6.4246 152.926 6.9588 152.656 7.69802C152.386 8.43725 152.252 9.41037 152.252 10.6159C152.252 12.1521 152.508 13.3086 153.019 14.0839C153.53 14.8592 154.196 15.2476 155.014 15.2476C155.665 15.2476 156.21 15.0397 156.647 14.6225C157.085 14.2067 157.461 13.453 157.778 12.3615C157.834 12.2041 157.945 12.1247 158.113 12.1247C158.335 12.1247 158.419 12.2676 158.364 12.555C158.159 13.5598 157.876 14.3395 157.512 14.891C157.15 15.444 156.721 15.8251 156.228 16.0331C155.735 16.241 155.182 16.3449 154.568 16.3449V16.3435Z" fill="black"/>
<path d="M154.564 16.5579C153.707 16.5579 152.921 16.3326 152.23 15.8879C151.54 15.4461 150.982 14.8036 150.577 13.9821C150.172 13.1664 149.969 12.1846 149.969 11.0642C149.969 9.81389 150.217 8.70794 150.705 7.7767C151.196 6.84112 151.875 6.10622 152.724 5.59223C153.573 5.07824 154.53 4.81836 155.571 4.81836C156.459 4.81836 157.169 4.95696 157.682 5.23128C157.94 5.37133 158.074 5.6009 158.074 5.89543L158.131 8.51881C158.131 8.85665 157.92 9.06312 157.579 9.06312C157.277 9.06312 157.064 8.90863 156.981 8.62853C156.727 7.86188 156.48 7.25837 156.246 6.84256C156.024 6.44552 155.795 6.1712 155.566 6.02537C155.338 5.88099 155.094 5.81169 154.817 5.81169C154.498 5.81169 154.156 5.96185 153.798 6.25782C153.43 6.56246 153.113 7.07068 152.859 7.76948C152.599 8.48127 152.468 9.4385 152.468 10.6138C152.468 12.0994 152.713 13.227 153.2 13.9619C153.674 14.6795 154.267 15.0274 155.015 15.0274C155.614 15.0274 156.099 14.8426 156.498 14.4629C156.905 14.076 157.264 13.3469 157.569 12.2987C157.66 12.0402 157.852 11.9059 158.112 11.9059C158.315 11.9059 158.431 11.9926 158.49 12.0648C158.593 12.1889 158.62 12.3622 158.575 12.5946C158.366 13.6241 158.069 14.4369 157.693 15.0087C157.309 15.5948 156.844 16.0063 156.313 16.2301C155.795 16.4481 155.208 16.5593 154.569 16.5593L154.564 16.5579ZM155.569 5.2515C154.609 5.2515 153.727 5.49117 152.946 5.96329C152.166 6.43541 151.54 7.11255 151.086 7.97883C150.63 8.84799 150.399 9.88608 150.399 11.0657C150.399 12.1182 150.588 13.035 150.962 13.7915C151.333 14.5423 151.838 15.1256 152.461 15.5255C153.082 15.924 153.789 16.1262 154.562 16.1262C155.143 16.1262 155.673 16.0265 156.138 15.8316C156.589 15.641 156.989 15.2844 157.325 14.7704C157.67 14.2435 157.946 13.4826 158.145 12.5095C158.167 12.3983 158.154 12.3521 158.151 12.342C158.148 12.342 158.135 12.3391 158.107 12.3391C158.031 12.3391 158.002 12.3593 157.976 12.4315C157.65 13.5591 157.26 14.3301 156.791 14.7777C156.314 15.2325 155.715 15.462 155.009 15.462C154.117 15.462 153.385 15.0375 152.833 14.2016C152.301 13.3945 152.031 12.1875 152.031 10.6152C152.031 9.38941 152.171 8.38309 152.448 7.62221C152.729 6.84978 153.089 6.27948 153.518 5.92575C153.955 5.5648 154.391 5.38144 154.813 5.38144C155.168 5.38144 155.499 5.47673 155.793 5.66298C156.088 5.84923 156.358 6.16686 156.619 6.63321C156.866 7.07357 157.124 7.70162 157.388 8.50148C157.414 8.58955 157.451 8.63287 157.573 8.63287C157.687 8.63287 157.692 8.61265 157.692 8.52603L157.635 5.90265C157.635 5.7626 157.586 5.67742 157.469 5.61533C157.02 5.37566 156.379 5.25439 155.564 5.25439L155.569 5.2515Z" fill="black"/>
<path d="M163.934 16.342C163.042 16.342 162.241 16.1125 161.535 15.6533C160.827 15.1942 160.266 14.5445 159.847 13.7042C159.428 12.8639 159.219 11.8922 159.219 10.7863C159.219 9.68035 159.432 8.65382 159.861 7.79331C160.289 6.93137 160.875 6.25712 161.618 5.76911C162.362 5.28111 163.191 5.03711 164.102 5.03711C165.199 5.03711 166.087 5.38506 166.767 6.08097C167.446 6.77688 167.785 7.90882 167.785 9.47245C167.785 9.94601 167.552 10.1828 167.088 10.1828H161.786C161.413 10.1828 161.227 10.3474 161.227 10.678C161.227 12.1998 161.516 13.3418 162.092 14.1027C162.668 14.8636 163.403 15.2447 164.297 15.2447C165.003 15.2447 165.58 15.0513 166.026 14.6629C166.472 14.276 166.836 13.6219 167.115 12.7037C167.171 12.5463 167.291 12.4669 167.477 12.4669C167.701 12.4669 167.785 12.6113 167.729 12.8971C167.431 14.1749 166.956 15.0686 166.305 15.5783C165.654 16.0879 164.863 16.342 163.933 16.342H163.934ZM161.702 9.64426H164.52C165.413 9.64426 165.86 9.28475 165.86 8.56719C165.86 7.6345 165.712 6.90249 165.414 6.37118C165.117 5.83986 164.671 5.5742 164.074 5.5742C163.349 5.5742 162.739 5.89761 162.246 6.54299C161.753 7.18981 161.432 8.10806 161.283 9.29919C161.246 9.52876 161.386 9.64426 161.702 9.64426Z" fill="black"/>
<path d="M163.933 16.5579C163.002 16.5579 162.155 16.3139 161.415 15.8345C160.679 15.3566 160.086 14.6723 159.651 13.8002C159.219 12.9339 159 11.9204 159 10.7856C159 9.65074 159.224 8.58233 159.664 7.69584C160.107 6.80358 160.724 6.09467 161.496 5.58646C162.273 5.0768 163.148 4.81836 164.098 4.81836C165.25 4.81836 166.199 5.1923 166.918 5.92864C167.634 6.66353 167.998 7.8561 167.998 9.47171C167.998 10.0608 167.664 10.3986 167.084 10.3986H161.782C161.467 10.3986 161.44 10.53 161.44 10.6773C161.44 12.1442 161.716 13.2516 162.262 13.9706C162.8 14.6809 163.464 15.026 164.293 15.026C164.943 15.026 165.477 14.8484 165.881 14.4976C166.294 14.1395 166.639 13.5129 166.903 12.638C166.993 12.3824 167.195 12.2467 167.474 12.2467C167.677 12.2467 167.793 12.3333 167.852 12.4069C167.955 12.5311 167.982 12.7044 167.937 12.9368C167.628 14.2666 167.123 15.2094 166.436 15.7479C165.748 16.285 164.905 16.5579 163.931 16.5579H163.933ZM164.101 5.2515C163.236 5.2515 162.441 5.48539 161.736 5.94885C161.027 6.41375 160.461 7.06635 160.054 7.88787C159.643 8.71516 159.435 9.68972 159.435 10.7856C159.435 11.8814 159.638 12.8011 160.04 13.6067C160.438 14.408 160.981 15.0347 161.652 15.4707C162.319 15.9053 163.087 16.1247 163.933 16.1247C164.78 16.1247 165.562 15.8836 166.171 15.4057C166.779 14.9307 167.233 14.0688 167.517 12.8459C167.537 12.7405 167.526 12.6943 167.521 12.6842C167.518 12.6856 167.504 12.6813 167.477 12.6813C167.36 12.6813 167.337 12.7231 167.318 12.7737C167.032 13.7179 166.644 14.4109 166.167 14.8253C165.682 15.2469 165.052 15.4606 164.294 15.4606C163.334 15.4606 162.534 15.0476 161.918 14.2333C161.314 13.4378 161.008 12.2424 161.008 10.6787C161.008 10.2268 161.291 9.96693 161.784 9.96693H167.085C167.432 9.96693 167.566 9.82833 167.566 9.47316C167.566 7.9745 167.244 6.88443 166.609 6.23183C165.975 5.58213 165.13 5.25294 164.1 5.25294L164.101 5.2515ZM164.52 9.86009H161.701C161.45 9.86009 161.274 9.79801 161.166 9.66951C161.104 9.59588 161.036 9.46594 161.069 9.2638C161.221 8.04668 161.558 7.08367 162.074 6.41087C162.608 5.71062 163.281 5.35689 164.074 5.35689C164.749 5.35689 165.265 5.66298 165.601 6.26504C165.916 6.82668 166.075 7.602 166.075 8.5679C166.075 9.15841 165.805 9.86154 164.518 9.86154L164.52 9.86009ZM161.495 9.38941C161.495 9.38941 161.535 9.42695 161.7 9.42695H164.518C165.513 9.42695 165.642 8.96783 165.642 8.56645C165.642 7.67563 165.5 6.9725 165.223 6.47584C164.964 6.01382 164.588 5.79003 164.072 5.79003C163.412 5.79003 162.869 6.07879 162.416 6.67364C161.948 7.2858 161.639 8.17807 161.496 9.32589C161.489 9.37498 161.495 9.38941 161.495 9.38941Z" fill="black"/>
</g>
<defs>
<clipPath id="clip0_8069_5872">
<rect width="168" height="21.0089" fill="white"/>
</clipPath>
</defs>
</svg>
