<svg width="268.17" height="29.7" xmlns="http://www.w3.org/2000/svg" viewBox="0 10.77 268.17 29.7" fill="none">
<g transform="translate(0,10.77)"><g id="Leaf">
<path id="Vector_13" d="M16.28 9.01115C16.28 9.53403 16.4921 10.0072 16.8347 10.3497C17.1772 10.6922 17.6504 10.9039 18.1728 10.9039C18.6951 10.9039 19.1686 10.6922 19.5115 10.3497C19.8545 10.0072 20.0667 9.53403 20.0667 9.01115C20.0667 8.48881 19.8545 8.0153 19.5115 7.6724C19.1686 7.3295 18.6951 7.11719 18.1728 7.11719C17.6504 7.11719 17.1772 7.3295 16.8347 7.6724C16.4921 8.0153 16.28 8.48881 16.28 9.01115Z" fill="var(--fill-0, black)"/>
<path id="Vector_14" d="M8.8761 7.1144C8.8761 8.49931 9.15318 9.81925 9.65471 11.0223C10.1562 12.2253 10.8822 13.3115 11.78 14.2288C12.6778 13.3115 13.4037 12.2253 13.9052 11.0223C14.4068 9.81925 14.6839 8.49931 14.6839 7.1144C14.6839 5.72947 14.4068 4.40952 13.9052 3.20649C13.4037 2.00344 12.6778 0.917314 11.78 0C10.8822 0.917314 10.1562 2.00344 9.65471 3.20649C9.15318 4.40952 8.8761 5.72947 8.8761 7.1144Z" fill="var(--fill-0, black)"/>
<path id="Vector_15" d="M15.8072 16.5937C14.3961 18.5155 13.4358 20.6296 12.9063 22.8103C12.3767 24.9908 12.2778 27.2378 12.5894 29.4258C14.7703 29.0675 16.8847 28.3 18.8067 27.1416C20.7287 25.9832 22.4582 24.4338 23.8693 22.5118C25.2805 20.5899 26.2406 18.4758 26.7703 16.2952C27.2999 14.1146 27.3987 11.8675 27.087 9.67969C24.9062 10.0379 22.7917 10.8054 20.8697 11.9639C18.9477 13.1223 17.2182 14.6717 15.8072 16.5937Z" fill="var(--fill-0, black)"/>
<path id="Vector_16" d="M8.6044 13.3814C7.5444 11.9095 6.2453 10.7146 4.80173 9.81253C3.35814 8.9104 1.77008 8.30101 0.132123 8C-0.101642 9.64894 -0.0271059 11.3483 0.370875 13.0034C0.768853 14.6585 1.49027 16.2693 2.55027 17.7413C3.5001 19.0603 4.64208 20.1559 5.90796 21.0178C7.17386 21.8798 8.56367 22.508 10.0091 22.8919V25.8839V28.8758C10.0091 29.0276 10.0709 29.1651 10.1706 29.2647C10.2704 29.3645 10.4083 29.4261 10.5606 29.4261C10.7123 29.4261 10.8498 29.3645 10.9495 29.2647C11.0491 29.1651 11.1109 29.0276 11.1109 28.8758V25.6768V22.4776C11.1114 22.4521 11.1114 22.4241 11.1113 22.3944C11.1111 22.3646 11.1109 22.333 11.1109 22.3004C11.2314 20.7749 11.0903 19.2204 10.6768 17.7096C10.2634 16.1986 9.57674 14.7316 8.6044 13.3814Z" fill="var(--fill-0, black)"/>
</g></g>
<g transform="translate(33.45,13.22)"><g id="Wordmark">
<path id="Vector" d="M4.38 16.972C4.38 18.6832 4.93518 20.2466 5.9488 21.3821C6.96242 22.5177 8.4343 23.2255 10.2675 23.2255C12.0298 23.2255 13.502 22.5532 14.5336 21.4354C15.5654 20.3175 16.1564 18.7542 16.1564 16.972C16.1564 15.189 15.5654 13.6254 14.5336 12.5074C13.502 11.3894 12.0298 10.7171 10.2675 10.7171C8.4343 10.7171 6.96242 11.4248 5.9488 12.5606C4.93518 13.6963 4.38 15.26 4.38 16.972ZM20.1491 26.7302H18.0202H15.8913V25.5586V24.3871C15.219 25.2529 14.3785 25.9661 13.3598 26.4627C12.3411 26.9592 11.144 27.2394 9.75835 27.2394C7.02861 27.2394 4.58911 26.1647 2.83191 24.3438C1.07489 22.523 0 19.9562 0 16.972C0 13.9871 1.07489 11.4198 2.83191 9.59886C4.58911 7.77788 7.02861 6.70312 9.75835 6.70312C11.144 6.70312 12.3411 6.98857 13.3598 7.49049C14.3785 7.99241 15.219 8.7108 15.8913 9.57669V8.39452V7.21233H18.0202H20.1491V16.9712V26.7302Z" fill="var(--fill-0, black)"/>
<path id="Vector_2" d="M37.6771 11.0903H33.939H30.2009V15.3382V19.5862C30.2009 20.9002 30.547 21.812 31.1071 22.395C31.6672 22.9782 32.4412 23.2328 33.2973 23.2328C33.9589 23.2328 34.6514 23.0853 35.3237 22.8458C35.996 22.6065 36.6481 22.2754 37.2289 21.9081L38.0743 23.6093L38.9195 25.3106C38.1352 25.8403 37.2491 26.3244 36.2535 26.6759C35.2577 27.0276 34.1526 27.2467 32.9298 27.2467C30.7193 27.2467 28.9674 26.6506 27.7679 25.4051C26.5686 24.1597 25.9218 22.2648 25.9218 19.667V15.3786V11.0903H23.9765H22.0312V9.15495V7.21965H23.9765H25.9218V3.61374V0.0078125H28.0613H30.2009V3.61372V7.21965H33.939H37.6771V9.15495V11.0903Z" fill="var(--fill-0, black)"/>
<path id="Vector_3" d="M44.8981 9.54758C45.6825 8.4271 46.6757 7.719 47.7199 7.29103C48.7639 6.86304 49.8588 6.71517 50.8468 6.71517C53.1693 6.71517 55.1507 7.51512 56.5515 8.88542C57.9523 10.2557 58.7724 12.1964 58.7724 14.4778V20.6099V26.7422H56.6328H54.4934V21.3128V15.8833C54.4934 14.2438 54.0706 12.9655 53.2914 12.0971C52.5121 11.2287 51.3765 10.7703 49.9503 10.7703C48.5753 10.7703 47.3122 11.2234 46.3929 12.0943C45.4737 12.9651 44.8981 14.2536 44.8981 15.9244V21.3333V26.7422H42.7594H40.6205V13.3711V0H42.7594H44.8981V4.77379V9.54758Z" fill="var(--fill-0, black)"/>
<path id="Vector_4" d="M66.1014 15.3012H71.1642H76.2269C75.993 13.7828 75.4327 12.5807 74.5922 11.7583C73.7519 10.9358 72.6315 10.493 71.2769 10.493C69.7592 10.493 68.5774 10.9819 67.7189 11.8274C66.8606 12.6729 66.3255 13.875 66.1014 15.3012ZM80.587 16.9506C80.587 17.2259 80.5767 17.5007 80.5614 17.7678C80.5461 18.035 80.5259 18.2945 80.5061 18.5392H73.2938H66.0816C66.3665 20.2915 67.1254 21.5344 68.1594 22.3391C69.1934 23.1438 70.5025 23.5106 71.8883 23.5106C72.8654 23.5106 73.8739 23.3169 74.8394 22.9629C75.8046 22.6088 76.7269 22.0944 77.5318 21.4524L78.5907 22.9708L79.6495 24.4892C78.458 25.5076 77.1901 26.1952 75.8506 26.628C74.5111 27.0609 73.1002 27.2393 71.623 27.2393C68.6991 27.2393 66.2036 26.2206 64.4389 24.4276C62.6743 22.6348 61.6406 20.0675 61.6406 16.9704C61.6406 13.9147 62.6335 11.3479 64.3446 9.54495C66.0556 7.74207 68.4849 6.70312 71.3577 6.70312C74.0875 6.70312 76.3896 7.74207 78.0121 9.54247C79.6345 11.3429 80.577 13.9048 80.587 16.9506Z" fill="var(--fill-0, black)"/>
<path id="Vector_5" d="M101.761 14.4658V20.5979V26.7301H99.6224H97.4835V21.3007V15.8713C97.4835 14.231 97.0609 12.9524 96.2815 12.0838C95.5021 11.2152 94.3659 10.7568 92.9392 10.7568C91.5641 10.7568 90.301 11.2103 89.3817 12.0815C88.4625 12.9527 87.8869 14.2417 87.8869 15.9125V21.3212V26.7301H85.7482H83.6093V16.972V7.21375H85.7283H87.8472V8.40516V9.59657C88.6308 8.44557 89.6287 7.72221 90.6803 7.2866C91.7318 6.85099 92.837 6.70312 93.8355 6.70312C96.1581 6.70312 98.1395 7.50307 99.5403 8.87339C100.941 10.2437 101.761 12.1843 101.761 14.4658Z" fill="var(--fill-0, black)"/>
<path id="Vector_6" d="M108.932 16.972C108.932 18.6832 109.487 20.2466 110.501 21.3821C111.514 22.5177 112.986 23.2255 114.819 23.2255C116.581 23.2255 118.054 22.5532 119.085 21.4354C120.117 20.3175 120.708 18.7542 120.708 16.972C120.708 15.189 120.117 13.6254 119.085 12.5074C118.054 11.3894 116.581 10.7171 114.819 10.7171C112.986 10.7171 111.514 11.4248 110.501 12.5606C109.487 13.6963 108.932 15.26 108.932 16.972ZM124.701 26.7302H122.572H120.443V25.5586V24.3871C119.771 25.2529 118.93 25.9661 117.912 26.4627C116.893 26.9592 115.696 27.2394 114.31 27.2394C111.58 27.2394 109.141 26.1647 107.384 24.3438C105.626 22.523 104.552 19.9562 104.552 16.972C104.552 13.9871 105.626 11.4198 107.384 9.59886C109.141 7.77788 111.58 6.70312 114.31 6.70312C115.696 6.70312 116.893 6.98857 117.912 7.49049C118.93 7.99241 119.771 8.7108 120.443 9.57669V8.39452V7.21233H122.572H124.701V16.9712V26.7302Z" fill="var(--fill-0, black)"/>
<path id="Vector_7" d="M131.406 10.8922C132.16 9.62915 133.209 8.7225 134.398 8.13157C135.588 7.54066 136.917 7.2655 138.231 7.2655C140.636 7.2655 142.652 8.00906 144.069 9.34603C145.485 10.683 146.299 12.6134 146.299 14.987V20.8645V26.7422H145.138H143.978V21.2213V15.7004C143.978 13.7651 143.416 12.2066 142.367 11.1321C141.318 10.0575 139.78 9.46677 137.823 9.46677C136.021 9.46677 134.416 10.1135 133.262 11.2314C132.109 12.3492 131.406 13.9381 131.406 15.8224V21.2822V26.7422H130.245H129.084V13.3711V0H130.245H131.406V5.44608V10.8922Z" fill="var(--fill-0, black)"/>
<path id="Vector_8" d="M151.963 15.999H158.818H165.674C165.5 14.012 164.737 12.3412 163.566 11.1671C162.394 9.99312 160.814 9.31587 159.012 9.31587C157.067 9.31587 155.415 10.0137 154.197 11.198C152.976 12.3823 152.187 14.0531 151.963 15.999ZM168.038 17.0373C168.038 17.2104 168.033 17.3784 168.024 17.5388C168.017 17.6994 168.007 17.8521 167.995 17.9947H159.959H151.922C152.095 20.2258 152.966 21.9832 154.285 23.1826C155.604 24.3823 157.372 25.024 159.338 25.024C160.672 25.024 161.87 24.7591 162.944 24.2853C164.019 23.8116 164.971 23.1292 165.816 22.2938L166.437 23.0888L167.06 23.8838C165.847 25.1155 164.574 25.9049 163.257 26.3862C161.941 26.8676 160.582 27.0409 159.195 27.0409C156.395 27.0409 153.984 26.0322 152.277 24.2925C150.568 22.5529 149.56 20.0825 149.56 17.1593C149.56 14.2666 150.583 11.7912 152.282 10.039C153.979 8.28684 156.354 7.25781 159.054 7.25781C161.61 7.25781 163.84 8.27158 165.439 10.0009C167.038 11.7302 168.007 14.1751 168.038 17.0373Z" fill="var(--fill-0, black)"/>
<path id="Vector_9" d="M172.493 17.1592C172.493 19.3187 173.272 21.2437 174.596 22.6289C175.922 24.0142 177.79 24.8594 179.971 24.8594C182.141 24.8594 184.004 24.0344 185.326 22.6593C186.647 21.2841 187.428 19.3592 187.428 17.1592C187.428 14.9594 186.647 13.0291 185.326 11.6487C184.004 10.2683 182.141 9.43783 179.971 9.43783C177.77 9.43783 175.901 10.2835 174.581 11.6715C173.262 13.0596 172.493 14.9899 172.493 17.1592ZM189.607 26.7346H188.456H187.305V24.8907V23.0469C186.53 24.2489 185.501 25.2474 184.23 25.9454C182.96 26.6435 181.446 27.041 179.705 27.041C177.016 27.041 174.622 25.9966 172.901 24.2393C171.18 22.4821 170.131 20.0117 170.131 17.1592C170.131 14.3069 171.18 11.8316 172.901 10.0693C174.622 8.30704 177.016 7.25781 179.705 7.25781C181.446 7.25781 182.96 7.65992 184.23 8.36023C185.501 9.06053 186.53 10.0591 187.305 11.2519V9.40732V7.56275H188.456H189.607V17.1487V26.7346Z" fill="var(--fill-0, black)"/>
<path id="Vector_10" d="M196.681 26.7423H195.518H194.357V13.3712V0H195.518H196.681V13.3712V26.7423Z" fill="var(--fill-0, black)"/>
<path id="Vector_11" d="M214.494 9.68456H210.073H205.651V14.9105V20.1364C205.651 21.7555 206.079 22.937 206.826 23.7136C207.572 24.4903 208.637 24.8624 209.911 24.8624C210.736 24.8624 211.525 24.7198 212.248 24.4652C212.972 24.2106 213.628 23.844 214.188 23.3957L214.738 24.2617L215.288 25.1275C214.606 25.6978 213.791 26.1764 212.86 26.5126C211.926 26.8487 210.877 27.0423 209.726 27.0423C207.73 27.0423 206.13 26.487 205.03 25.3512C203.93 24.2152 203.329 22.4987 203.329 20.1762V14.9304V9.68456H201.13H198.928V8.62506V7.56557H201.13H203.329V3.78669V0.0078125H204.49H205.651V3.78669V7.56557H210.073H214.494V8.62506V9.68456Z" fill="var(--fill-0, black)"/>
<path id="Vector_12" d="M219.824 10.8922C220.577 9.62915 221.626 8.7225 222.816 8.13157C224.004 7.54066 225.335 7.2655 226.649 7.2655C229.052 7.2655 231.07 8.00906 232.486 9.34603C233.901 10.683 234.716 12.6134 234.716 14.987V20.8645V26.7422H233.555H232.392V21.2213V15.7004C232.392 13.7651 231.832 12.2066 230.783 11.1321C229.736 10.0575 228.197 9.46677 226.241 9.46677C224.439 9.46677 222.833 10.1135 221.681 11.2314C220.527 12.3492 219.824 13.9381 219.824 15.8224V21.2822V26.7422H218.661H217.5V13.3711V0H218.661H219.824V5.44608V10.8922Z" fill="var(--fill-0, black)"/>
</g></g>
</svg>