<svg preserveAspectRatio="none" width="152.627" height="43.8688" overflow="visible" style="display: block;" viewBox="0 0 152.627 43.8688" fill="none" xmlns="http://www.w3.org/2000/svg">
<g id="Group">
<path id="Vector" fill-rule="evenodd" clip-rule="evenodd" d="M0 21.9344C0 9.81564 9.81564 0 21.9344 0C34.0531 0 43.8688 9.81564 43.8688 21.9344C43.8688 34.0531 34.0531 43.8688 21.9344 43.8688C9.81564 43.8688 0 34.0531 0 21.9344ZM40.4873 21.9344C40.4873 11.6984 32.1704 3.38155 21.9344 3.38155C11.6984 3.38155 3.38155 11.6984 3.38155 21.9344C3.38155 23.8536 3.67584 25.709 4.22237 27.4545H9.19416L12.8316 13.7455C13.0693 12.8681 13.7638 12.3198 14.6229 12.3198C15.4821 12.3198 16.1766 12.8499 16.396 13.6725L20.4538 28.5879L25.6267 8.68237C25.8643 7.84154 26.5589 7.31147 27.418 7.31147C28.277 7.31147 28.9717 7.84154 29.191 8.66408L34.1993 27.4545H39.65C40.1948 25.7107 40.4873 23.8555 40.4873 21.9344ZM5.79981 31.0737C8.9931 36.6816 15.0269 40.4873 21.9344 40.4873C28.8492 40.4873 34.8866 36.6926 38.0781 31.0737H32.7736C31.9145 31.0737 31.2382 30.5436 31.0006 29.6846L27.418 16.2498L22.2634 36.0821C22.0624 36.9411 21.3312 37.4713 20.4721 37.4713C19.613 37.4713 18.9184 36.9411 18.6991 36.1186L14.6229 21.1484L12.3381 29.7028C12.1187 30.5436 11.4424 31.0737 10.5651 31.0737H5.79981ZM58.2997 21.8046L52.4232 12.7951H49.3707V31.0737H53.0264V19.8981L56.8101 25.4439C57.1208 25.9009 57.6874 26.1751 58.2906 26.1751C58.8938 26.1751 59.497 25.8826 59.8077 25.4074L63.5549 19.9018V31.0737H67.2106V12.7951H64.1764L58.2997 21.8046ZM96.3468 18.6369C95.3159 17.6298 93.8243 17.0723 92.2158 17.0723C88.2676 17.0723 85.5441 20.3258 85.5441 24.274C85.5441 28.2222 88.1762 31.421 92.2158 31.421C93.9559 31.421 95.5974 30.7611 96.6393 29.5182V31.0737H100.002V12.7951H96.3468V18.6369ZM92.8738 28.0943C90.8084 28.0943 89.2729 26.5406 89.2729 24.2375C89.2729 21.7334 91.0094 20.399 92.8738 20.399C94.7382 20.399 96.4016 21.7334 96.4016 24.274C96.4016 26.632 94.8479 28.0943 92.8738 28.0943ZM106.217 12.7951L112.093 21.8046L117.971 12.7951H121.004V31.0737H117.349V19.9018L113.601 25.4074C113.291 25.8826 112.688 26.1751 112.085 26.1751C111.482 26.1751 110.915 25.9009 110.604 25.4439L106.82 19.8981V31.0737H103.165V12.7951H106.217ZM148.971 12.7951V18.6369C147.94 17.6298 146.448 17.0723 144.84 17.0723C140.892 17.0723 138.168 20.3258 138.168 24.274C138.168 28.2222 140.8 31.421 144.84 31.421C146.58 31.421 148.222 30.7611 149.263 29.5182V31.0737H152.627V12.7951H148.971ZM145.498 28.0943C143.432 28.0943 141.897 26.5406 141.897 24.2375C141.897 21.7334 143.634 20.399 145.498 20.399C147.363 20.399 149.025 21.7334 149.025 24.274C149.025 26.632 147.473 28.0943 145.498 28.0943ZM130.181 17.0723C126.323 17.0723 123.016 20.0883 123.016 24.2375C123.016 28.3867 126.416 31.421 130.51 31.421C132.612 31.421 134.403 30.7081 135.993 29.3372L134.439 26.8696C133.471 27.6373 132.173 28.2588 130.619 28.2588C128.623 28.2588 127.156 27.3174 126.707 25.4622H136.358C136.523 24.8224 136.596 24.1461 136.596 23.4515C136.596 19.8689 133.983 17.0723 130.181 17.0723ZM130.071 20.0334C131.57 20.0334 133.001 21.0168 133.065 22.8849H126.707C127.112 21.1886 128.329 20.0334 130.069 20.0334H130.071ZM69.2213 24.201C69.2213 20.1796 72.548 17.0723 76.551 17.0723C80.5723 17.0723 83.8807 20.198 83.8807 24.2375C83.8807 28.277 80.7551 31.421 76.5327 31.421C72.3103 31.421 69.2213 28.2222 69.2213 24.201ZM72.9501 24.2375C72.9501 26.5954 74.5769 28.0395 76.5327 28.0395C78.7444 28.0395 80.1519 26.2481 80.1519 24.2375C80.1519 22.2269 78.7079 20.4355 76.551 20.4355C74.3941 20.4355 72.9501 22.0806 72.9501 24.2375Z" fill="var(--fill-0, black)"/>
</g>
</svg>
