<svg preserveAspectRatio="none" width="175.479" height="28.5958" overflow="visible" style="display: block;" viewBox="0 0 175.479 28.5958" fill="none" xmlns="http://www.w3.org/2000/svg">
<g id="Group 1410119479">
<path id="Vector" fill-rule="evenodd" clip-rule="evenodd" d="M58.1769 0V24.3667L38.8581 0H37.0808V28.2368H39.1841V3.9542L58.5029 28.2368H60.2802V0H58.1769Z" fill="var(--fill-0, black)"/>
<path id="Vector_2" fill-rule="evenodd" clip-rule="evenodd" d="M66.8533 17.8585H79.9252C79.8411 14.0305 77.4223 11.6958 73.6259 11.6958C69.5981 11.6958 67.2213 14.3145 66.8533 17.8585ZM80.9769 26.0088C79.3153 27.744 76.6967 28.5958 74.2779 28.5958C68.5464 28.5958 64.6343 24.8835 64.6343 19.152C64.6343 13.8728 67.8628 9.71875 73.8362 9.71875C78.516 9.71875 82.0601 12.9368 82.0601 17.9006C82.0601 18.5841 82.018 19.11 81.9444 19.5937H66.9795C67.1372 23.9581 70.0398 26.6187 74.3936 26.6187C76.8544 26.6187 79.0313 25.6933 80.2828 24.3998L80.9769 26.0088Z" fill="var(--fill-0, black)"/>
<path id="Vector_3" fill-rule="evenodd" clip-rule="evenodd" d="M94.6586 18.8777L101.873 28.2374H99.2964L93.0811 20.2133L86.8659 28.2374H84.405L91.6299 18.9619L84.8152 10.0859H87.3917L93.1653 17.5947L99.0124 10.0859H101.473L94.6586 18.8777Z" fill="var(--fill-0, black)"/>
<path id="Vector_4" fill-rule="evenodd" clip-rule="evenodd" d="M105.312 5.04688H107.405V10.0843H114.714V12.0614H107.405V21.0214C107.405 24.5655 108.582 26.5005 111.485 26.5005C112.694 26.5005 113.746 26.0168 114.387 25.533L115.071 27.1946C114.23 27.8782 112.736 28.4776 111.001 28.4776C106.963 28.4776 105.312 25.9747 105.312 21.3369V5.04688Z" fill="var(--fill-0, black)"/>
<path id="Vector_5" fill-rule="evenodd" clip-rule="evenodd" d="M119.951 17.8585H133.023C132.939 14.0305 130.52 11.6958 126.734 11.6958C122.696 11.6958 120.319 14.3145 119.951 17.8585ZM134.075 26.0088C132.424 27.744 129.795 28.5958 127.376 28.5958C121.644 28.5958 117.732 24.8835 117.732 19.152C117.732 13.8728 120.961 9.71875 126.934 9.71875C131.614 9.71875 135.158 12.9368 135.158 17.9006C135.158 18.5841 135.126 19.11 135.042 19.5937H120.077C120.235 23.9581 123.138 26.6187 127.502 26.6187C129.963 26.6187 132.14 25.6933 133.391 24.3998L134.075 26.0088Z" fill="var(--fill-0, black)"/>
<path id="Vector_6" fill-rule="evenodd" clip-rule="evenodd" d="M155.15 25.6512C153.615 27.5863 150.954 28.5958 148.283 28.5958C142.677 28.5958 138.681 24.8835 138.681 19.152C138.681 13.8728 142.562 9.71875 147.725 9.71875C150.544 9.71875 153.047 10.3182 154.782 11.9693L153.772 13.6729C152.163 12.2112 150.144 11.6958 148.041 11.6958C144.213 11.6958 140.9 14.8403 140.9 19.152C140.9 23.7477 144.213 26.6187 148.451 26.6187C150.786 26.6187 152.847 25.5671 154.098 24.1158L155.15 25.6512Z" fill="var(--fill-0, black)"/>
<path id="Vector_7" fill-rule="evenodd" clip-rule="evenodd" d="M159.262 0H161.366V12.5462C162.775 10.9792 165.393 9.7593 167.896 9.7593C172.818 9.7593 175.479 12.2202 175.479 17.9096V28.2368H173.386V18.2356C173.386 13.8818 171.44 11.7364 167.412 11.7364C164.952 11.7364 162.533 13.072 161.366 14.5233V28.2368H159.262V0Z" fill="var(--fill-0, black)"/>
<path id="Vector_8" fill-rule="evenodd" clip-rule="evenodd" d="M0 3.71323V23.4001C0.0315495 23.3791 0.0525824 23.358 0.0841319 23.3265L11.9047 13.4725C14.0395 11.6952 14.7441 8.25635 13.4927 5.78498L10.6427 0.179688H3.53354C1.57747 0.179688 0 1.76768 0 3.71323Z" fill="var(--fill-0, black)"/>
<path id="Vector_9" fill-rule="evenodd" clip-rule="evenodd" d="M24.7138 0.179688H13.4507L15.4698 4.13389C16.7213 6.60526 19.4661 7.17315 21.5904 5.39586L26.9118 0.957907C26.3123 0.474149 25.5446 0.179688 24.7138 0.179688Z" fill="var(--fill-0, black)"/>
<path id="Vector_10" fill-rule="evenodd" clip-rule="evenodd" d="M21.1804 15.3686L27.2589 27.3258C27.8689 26.6949 28.2475 25.8325 28.2475 24.886V3.70581C28.2475 3.51651 28.2264 3.32722 28.1949 3.14844L22.7579 7.68104C20.6335 9.45833 19.9184 12.8972 21.1804 15.3686Z" fill="var(--fill-0, black)"/>
<path id="Vector_11" fill-rule="evenodd" clip-rule="evenodd" d="M24.987 28.403L19.203 17.0241C17.941 14.5528 15.2067 13.9849 13.0719 15.7622L0.862213 25.9421C0.683433 26.0894 0.515169 26.2576 0.357422 26.4364C0.925312 27.6037 2.13471 28.424 3.5334 28.424H24.7136C24.8083 28.424 24.8924 28.4135 24.987 28.403Z" fill="var(--fill-0, black)"/>
</g>
</svg>
