<svg preserveAspectRatio="none" width="204.287" height="44.9054" overflow="visible" style="display: block;" viewBox="0 0 204.287 44.9054" fill="none" xmlns="http://www.w3.org/2000/svg">
<g id="_Shadow">
<path id="Vector" d="M53.9912 14.8159H56.0323C56.5779 14.8145 57.1125 14.9696 57.5726 15.2628C58.0326 15.5394 58.3864 15.9624 58.5773 16.464L63.5913 27.9625C63.69 28.211 63.7622 28.4691 63.8068 28.7327C63.8543 29.0053 63.8892 29.3 63.9146 29.6106C63.9168 29.0442 64.0321 28.4839 64.2537 27.9625L69.2677 16.445C69.4783 15.9495 69.8355 15.5303 70.2914 15.2438C70.7441 14.9498 71.2729 14.7944 71.8127 14.7969H73.8506L65.6482 33.6199H62.1936L53.9912 14.8159Z" fill="var(--fill-0, black)"/>
<path id="Vector_2" d="M92.2838 22.6258C92.2907 23.0123 92.2083 23.3952 92.0429 23.7446C91.8924 24.0565 91.6899 24.3406 91.4439 24.5845C91.2129 24.8114 90.9421 24.994 90.6452 25.1233C90.3832 25.2424 90.0994 25.306 89.8117 25.3103H76.738C76.8405 26.026 77.084 26.7144 77.4542 27.3355C77.8193 27.9491 78.2854 28.4967 78.8329 28.9551C79.3886 29.4189 80.0187 29.7853 80.6965 30.039C81.897 30.4917 83.209 30.5582 84.4491 30.2291C84.9522 30.0927 85.4374 29.8969 85.8943 29.646C86.1136 29.5207 86.3479 29.4238 86.5916 29.3576C86.8384 29.2971 87.0918 29.2673 87.3459 29.2688C87.7029 29.2645 88.0566 29.338 88.3823 29.4843C88.7105 29.6414 89.0079 29.8561 89.2602 30.1182L89.9416 30.7996C89.0479 31.7521 87.9766 32.5208 86.7881 33.0626C85.5582 33.6246 84.2197 33.9091 82.8676 33.8961C81.5777 33.9033 80.3002 33.6444 79.115 33.1355C76.7905 32.1506 74.9401 30.3002 73.9553 27.9757C73.4532 26.7889 73.1946 25.5134 73.1946 24.2247C73.1946 22.9361 73.4532 21.6606 73.9553 20.4738C74.9406 18.1492 76.789 16.2973 79.1118 15.3077C80.2971 14.7988 81.5745 14.5398 82.8644 14.547C83.9516 14.5427 85.0309 14.7305 86.0528 15.1017C87.0461 15.4609 87.9766 15.9743 88.8102 16.623C89.6351 17.2705 90.3518 18.0451 90.9336 18.9176C91.518 19.7994 91.9468 20.775 92.2014 21.8017C92.2374 21.9361 92.2555 22.0747 92.2553 22.2138C92.268 22.3564 92.2711 22.4927 92.2838 22.6258ZM78.0818 21.8556H88.6137C88.3764 21.2944 88.0628 20.7686 87.6819 20.2931C86.919 19.3416 85.8893 18.6397 84.7248 18.2774C83.4605 17.8825 82.1036 17.8981 80.8487 18.3218C80.2247 18.5356 79.6385 18.8469 79.1118 19.2441C78.0593 20.0456 77.2907 21.1629 76.9186 22.4325C77.0365 22.2838 77.1778 22.1553 77.337 22.0521C77.5589 21.911 77.8192 21.8423 78.0818 21.8556Z" fill="var(--fill-0, black)"/>
<path id="Vector_3" d="M97.678 14.8165C97.774 14.9532 97.8608 15.0961 97.9379 15.2443C98.0102 15.3987 98.0727 15.5575 98.1249 15.7197C98.1859 15.9135 98.2158 16.1156 98.2137 16.3187V17.6277C98.442 17.1791 98.7454 16.7729 99.1106 16.4265C99.4998 16.0504 99.9329 15.7227 100.401 15.4503C100.887 15.1665 101.406 14.944 101.947 14.7879C102.498 14.6277 103.069 14.5466 103.643 14.5471C104.581 14.5405 105.511 14.717 106.381 15.0668L106.115 16.5881C106.048 17.0413 105.823 17.4564 105.481 17.7608C105.134 18.0474 104.695 18.1973 104.245 18.1823C104.209 18.1881 104.173 18.1881 104.137 18.1823C104.116 18.1777 104.095 18.1777 104.074 18.1823C104.03 18.1848 103.985 18.1848 103.941 18.1823C103.882 18.1823 103.776 18.1823 103.624 18.1823C102.934 18.1791 102.248 18.2861 101.592 18.4993C100.994 18.6868 100.427 18.9612 99.9093 19.3138C99.4529 19.6203 99.0548 20.0056 98.7334 20.4516C98.4571 20.8223 98.2843 21.2599 98.2327 21.7194V33.6458H94.6671V14.8165H97.678Z" fill="var(--fill-0, black)"/>
<path id="Vector_4" d="M107.886 17.577C108.014 17.3861 108.157 17.2059 108.314 17.0382C108.485 16.8591 108.665 16.6888 108.853 16.528C109.093 16.3263 109.344 16.138 109.604 15.9638C110.322 15.5065 111.099 15.1513 111.915 14.9084C112.812 14.6537 113.742 14.5299 114.675 14.5408C115.584 14.5227 116.491 14.65 117.36 14.9179C118.073 15.1408 118.739 15.4956 119.322 15.9638C119.859 16.4042 120.308 16.9418 120.646 17.5485C120.996 18.1788 121.267 18.8493 121.455 19.5452C121.654 20.2907 121.789 21.0521 121.857 21.8208C121.927 22.6163 121.965 23.4055 121.965 24.2296V33.6141H119.062C118.897 33.4073 118.768 33.175 118.678 32.9264C118.579 32.6663 118.527 32.3903 118.526 32.1118V31.6364C118.164 31.9924 117.757 32.2993 117.315 32.5492C116.383 33.0941 115.371 33.4908 114.317 33.725C113.858 33.8301 113.39 33.8864 112.919 33.893C112.04 33.9035 111.165 33.7675 110.33 33.4905C109.591 33.2472 108.908 32.857 108.324 32.3432C107.768 31.8482 107.327 31.2369 107.034 30.5525C106.722 29.8149 106.566 29.0206 106.577 28.2198C106.564 27.353 106.742 26.4939 107.097 25.7033C107.458 24.9468 108.003 24.293 108.682 23.8017C109.491 23.225 110.404 22.8086 111.37 22.5751C112.621 22.2688 113.907 22.1239 115.195 22.1441C115.601 22.1441 115.991 22.1441 116.368 22.1821C116.745 22.2202 117.081 22.2297 117.379 22.2519C117.677 22.2741 117.924 22.2994 118.124 22.3248C118.246 22.336 118.368 22.354 118.488 22.3786C118.468 21.6333 118.332 20.8956 118.086 20.1918C117.906 19.6845 117.615 19.2234 117.236 18.8416C116.904 18.5211 116.498 18.2872 116.054 18.1602C115.15 17.9227 114.203 17.9108 113.293 18.1253C112.99 18.2144 112.694 18.3278 112.409 18.4645C112.152 18.5912 111.899 18.7022 111.648 18.8036C111.326 18.9164 110.985 18.968 110.644 18.9557C110.336 18.9579 110.03 18.9042 109.741 18.7972C109.443 18.6803 109.163 18.5235 108.907 18.3313L107.886 17.577ZM112.9 30.4923C113.351 30.4882 113.801 30.4457 114.244 30.3655C114.735 30.2794 115.22 30.163 115.696 30.0169C116.192 29.8649 116.678 29.685 117.154 29.4781C117.63 29.273 118.093 29.0369 118.539 28.7713V25.6178C118.417 25.6007 118.294 25.5922 118.171 25.5924L117.404 25.5639L116.38 25.5385C116.006 25.5385 115.62 25.5385 115.227 25.5385C114.532 25.5359 113.838 25.5846 113.151 25.6843C112.577 25.761 112.017 25.9178 111.487 26.1502C111.055 26.3356 110.674 26.6214 110.374 26.9838C110.105 27.3385 109.967 27.7749 109.981 28.2198C109.97 28.5846 110.047 28.9468 110.206 29.2752C110.355 29.5588 110.573 29.7999 110.84 29.9757C111.123 30.1635 111.438 30.2968 111.769 30.3687C112.14 30.4519 112.52 30.4933 112.9 30.4923Z" fill="var(--fill-0, black)"/>
<path id="Vector_5" d="M139.232 33.6188C139.123 33.489 139.032 33.3451 138.962 33.1909C138.893 33.036 138.833 32.8773 138.782 32.7155C138.72 32.5219 138.69 32.3197 138.693 32.1165V31.9897C138.346 32.3426 137.957 32.6522 137.536 32.912C137.149 33.1513 136.738 33.35 136.31 33.5047C135.899 33.6532 135.474 33.7594 135.042 33.8217C134.627 33.8787 134.209 33.9083 133.79 33.9104C132.517 33.9218 131.256 33.6625 130.091 33.1497C128.975 32.6602 127.969 31.9522 127.131 31.0675C126.297 30.1722 125.64 29.1268 125.195 27.9868C124.252 25.5738 124.252 22.8947 125.195 20.4817C125.644 19.3404 126.307 18.295 127.147 17.4011C127.984 16.5188 128.99 15.8129 130.104 15.3251C131.66 14.6456 133.374 14.4129 135.055 14.6532C135.486 14.7183 135.911 14.8244 136.322 14.9701C136.747 15.1135 137.154 15.3038 137.536 15.5375C137.957 15.7973 138.346 16.1069 138.693 16.4598V7.95313H142.24V33.6251L139.232 33.6188ZM133.787 18.0191C132.972 18.0093 132.165 18.1781 131.422 18.5135C130.721 18.8292 130.09 19.283 129.568 19.8478C129.044 20.4206 128.636 21.0888 128.364 21.816C127.794 23.3777 127.794 25.0908 128.364 26.6525C128.637 27.3812 129.048 28.0504 129.575 28.6239C130.098 29.1877 130.728 29.6414 131.429 29.9582C132.172 30.291 132.979 30.4587 133.793 30.4494C135.633 30.4409 137.396 29.7076 138.699 28.4083V20.0602C137.394 18.7644 135.633 18.0317 133.793 18.0191H133.787Z" fill="var(--fill-0, black)"/>
<path id="Vector_6" d="M144.946 10.0901C144.943 9.76337 145.007 9.43946 145.136 9.13931C145.384 8.56041 145.848 8.10104 146.43 7.85888C147.032 7.60954 147.709 7.60954 148.312 7.85888C148.6 7.98177 148.861 8.15816 149.082 8.37866C149.3 8.60143 149.476 8.86252 149.599 9.14882C149.848 9.75053 149.848 10.4266 149.599 11.0283C149.477 11.3158 149.3 11.5773 149.079 11.7984C148.859 12.02 148.597 12.1965 148.309 12.3182C148.011 12.4437 147.691 12.5084 147.368 12.5084C147.044 12.5084 146.724 12.4437 146.426 12.3182C146.138 12.1965 145.877 12.02 145.656 11.7984C145.435 11.578 145.26 11.3163 145.14 11.0283C145.011 10.7323 144.945 10.4129 144.946 10.0901ZM149.12 14.8188V33.6228H145.574V14.8188H149.12Z" fill="var(--fill-0, black)"/>
<path id="Vector_7" d="M168.412 17.1807C168.244 17.6379 167.941 18.0335 167.544 18.3153C167.007 18.6178 166.393 18.7546 165.779 18.7083C165.97 19.153 166.12 19.6146 166.226 20.087C166.338 20.5703 166.395 21.0647 166.397 21.5608C166.403 22.5 166.214 23.4304 165.842 24.2928C165.129 25.9742 163.79 27.3128 162.108 28.0263C161.246 28.3981 160.316 28.587 159.376 28.581C158.295 28.5897 157.226 28.3466 156.255 27.871C155.929 28.0553 155.642 28.3019 155.412 28.5968C155.323 28.7283 155.267 28.8796 155.25 29.0374C155.25 29.1176 155.268 29.1968 155.304 29.2687L155.377 29.3416C155.533 29.4821 155.725 29.5774 155.931 29.6174C156.243 29.7045 156.561 29.768 156.882 29.8075C157.247 29.8551 157.643 29.8868 158.074 29.9058C158.505 29.9248 158.917 29.9311 159.31 29.9311C160.109 29.9311 160.923 29.9692 161.744 30.0389C162.519 30.1014 163.283 30.2578 164.02 30.5048C164.929 30.7847 165.73 31.338 166.314 32.0895C166.851 32.8439 167.127 33.7532 167.1 34.6789C167.11 35.3958 166.958 36.1056 166.653 36.7548C166.348 37.3844 165.9 37.9337 165.344 38.3585C164.718 38.834 164.007 39.1868 163.249 39.3981C162.335 39.6548 161.388 39.7786 160.438 39.7657C159.607 39.7665 158.777 39.7008 157.957 39.5692C157.152 39.4361 156.373 39.2681 155.621 39.0653C154.866 38.8625 154.141 38.6343 153.434 38.3776C152.727 38.1208 152.068 37.8736 151.447 37.6327L151.878 36.4347C152.03 36.0043 152.34 35.6482 152.746 35.4395C153.18 35.1948 153.671 35.068 154.169 35.0719C154.477 35.0725 154.783 35.1087 155.082 35.1796C155.364 35.2465 155.639 35.3366 155.906 35.449L156.499 35.6741C156.771 35.7755 157.11 35.8769 157.51 35.991C157.956 36.108 158.407 36.2011 158.863 36.2699C159.388 36.3486 159.917 36.3878 160.448 36.3872C160.767 36.3807 161.084 36.35 161.399 36.2953C161.763 36.24 162.12 36.1444 162.463 36.01C162.782 35.8898 163.074 35.7102 163.326 35.4807C163.439 35.3816 163.529 35.2591 163.59 35.1218C163.651 34.9845 163.682 34.8356 163.68 34.6852C163.691 34.4895 163.648 34.2945 163.557 34.1211C163.391 33.9296 163.169 33.7945 162.923 33.7344C162.381 33.5596 161.818 33.4531 161.25 33.4175C160.616 33.3699 159.982 33.3319 159.297 33.3097C158.613 33.2875 157.941 33.2527 157.256 33.2115C156.599 33.1719 155.946 33.0786 155.304 32.9325C154.717 32.8029 154.153 32.5895 153.627 32.2987C153.123 32.0023 152.705 31.5782 152.416 31.0689C152.195 30.6841 152.085 30.2451 152.1 29.8012C152.132 29.2207 152.348 28.6656 152.718 28.2165C153.226 27.5783 153.877 27.069 154.619 26.7301C153.915 26.087 153.351 25.3059 152.962 24.4354C152.56 23.5384 152.356 22.5657 152.363 21.583C152.357 20.6437 152.545 19.7135 152.917 18.851C153.624 17.1665 154.957 15.8222 156.635 15.1016C158.204 14.437 159.962 14.3672 161.579 14.9051C162.268 15.1388 162.917 15.4765 163.503 15.9066C163.805 15.738 164.124 15.5999 164.454 15.4946C164.933 15.3513 165.431 15.285 165.931 15.2981C166.366 15.3022 166.801 15.3414 167.23 15.4153C167.773 15.5064 168.309 15.6345 168.834 15.7988L168.412 17.1807ZM155.748 21.5608C155.744 22.0449 155.842 22.5245 156.036 22.968C156.409 23.8309 157.097 24.5191 157.96 24.8918C158.405 25.0821 158.883 25.1801 159.367 25.1801C159.851 25.1801 160.329 25.0821 160.774 24.8918C161.635 24.5167 162.323 23.8293 162.698 22.968C162.886 22.5233 162.983 22.0453 162.983 21.5624C162.983 21.0795 162.886 20.6015 162.698 20.1567C162.324 19.2939 161.636 18.6052 160.774 18.2298C160.329 18.0415 159.85 17.9445 159.367 17.9445C158.884 17.9445 158.405 18.0415 157.96 18.2298C157.096 18.6025 156.407 19.2921 156.036 20.1567C155.842 20.5991 155.743 21.0776 155.748 21.5608Z" fill="var(--fill-0, black)"/>
<path id="Vector_8" d="M184.621 18.2118C184.831 17.5939 185.169 17.0271 185.613 16.5479C186.043 16.0862 186.546 15.6985 187.102 15.4005C187.659 15.101 188.256 14.8812 188.874 14.7476C189.489 14.6122 190.117 14.5431 190.747 14.5416C191.77 14.5108 192.782 14.7584 193.676 15.2579C194.471 15.7265 195.142 16.3785 195.634 17.1595C196.154 17.9873 196.527 18.8987 196.737 19.8535C196.97 20.8735 197.087 21.9165 197.086 22.9627V33.6182H193.47V22.9785C193.466 22.4241 193.427 21.8704 193.352 21.3209C193.282 20.7614 193.131 20.2149 192.905 19.6982C192.696 19.2259 192.383 18.8067 191.989 18.4717C191.563 18.1319 191.029 17.9575 190.484 17.9804C189.897 17.9766 189.313 18.0643 188.753 18.2403C188.24 18.3995 187.754 18.638 187.315 18.9471C186.916 19.2252 186.572 19.5744 186.3 19.9771C186.052 20.3406 185.906 20.7644 185.879 21.2037V33.615H182.244V22.9785C182.241 22.424 182.202 21.8703 182.126 21.3209C182.057 20.7611 181.907 20.2144 181.679 19.6982C181.47 19.2269 181.158 18.8079 180.767 18.4717C180.337 18.131 179.799 17.9566 179.252 17.9804C178.666 17.9764 178.083 18.0641 177.524 18.2403C177.01 18.3995 176.523 18.638 176.082 18.9471C175.69 19.2254 175.35 19.5722 175.081 19.9708C174.832 20.3338 174.687 20.758 174.662 21.1973V33.6087H171.116V14.811H174.124C174.22 14.9477 174.306 15.0907 174.383 15.2389C174.458 15.3925 174.522 15.5514 174.574 15.7143C174.633 15.9084 174.663 16.1103 174.662 16.3133V17.0676C174.871 16.6452 175.156 16.2648 175.502 15.9457C175.852 15.6299 176.245 15.3653 176.669 15.1597C177.107 14.947 177.57 14.7905 178.047 14.6938C178.536 14.5923 179.034 14.5413 179.534 14.5416C180.19 14.5298 180.845 14.6142 181.477 14.792C181.999 14.9472 182.488 15.1988 182.919 15.5336C183.326 15.8528 183.672 16.2438 183.939 16.6873C184.225 17.167 184.454 17.6787 184.621 18.2118Z" fill="var(--fill-0, black)"/>
<path id="Vector_9" d="M12.9984 22.4546C11.1402 20.1762 9.52358 17.7109 8.17461 15.0985C7.9274 14.5882 7.67701 14.0716 7.45833 13.5487C6.90825 12.2834 6.49597 10.9626 6.2286 9.60913C5.9934 8.43181 5.92512 7.22724 6.02576 6.03089C6.17197 4.44934 6.69942 2.92681 7.56292 1.59375C5.98139 2.57626 2.01649 6.73766 1.58862 7.5617C0.499688 9.26114 -0.0524959 11.249 0.00393084 13.2666C0.0356247 15.6088 0.770922 18.0207 1.85485 20.3502C2.17179 21.057 2.54261 21.7542 2.9261 22.4356C3.69717 23.7849 4.54368 25.0895 5.46161 26.3435C6.39024 27.6112 7.32838 28.7903 8.18411 29.7886C10.3472 32.2337 12.6577 34.5443 15.1029 36.7074C17.7159 35.3544 20.1811 33.7335 22.459 31.8709C19.0447 29.0055 15.8798 25.8555 12.9984 22.4546Z" fill="var(--fill-0, black)"/>
<path id="Vector_10" d="M29.7961 36.7266C28.7977 37.5823 27.6314 38.5204 26.351 39.4491C28.11 39.0439 29.7953 38.367 31.3459 37.4428C30.8293 37.2242 30.3127 36.9833 29.7961 36.7266Z" fill="var(--fill-0, black)"/>
<path id="Vector_11" d="M15.0934 8.17563C16.0918 7.31989 17.2581 6.38176 18.5385 5.45313C16.7794 5.85833 15.0942 6.53519 13.5436 7.45935C14.0665 7.67803 14.5831 7.92842 15.0934 8.17563Z" fill="var(--fill-0, black)"/>
<path id="Vector_12" d="M7.56279 1.58897C6.69929 2.92203 6.17184 4.44456 6.02563 6.02611C7.21845 5.92653 8.41929 5.99158 9.59436 6.21944C12.6905 3.76047 16.4294 2.24533 20.3639 1.8552C18.0439 0.771269 15.6225 0.0359716 13.2804 0.00427773C11.2585 -0.0547127 9.26582 0.497575 7.56279 1.58897Z" fill="var(--fill-0, black)"/>
<path id="Vector_13" d="M37.5927 38.9206C36.8201 38.9073 36.0502 38.8267 35.2917 38.6797C32.1981 41.1384 28.4633 42.6565 24.5316 43.0534C26.8516 44.1342 29.2857 44.8695 31.6152 44.9012C33.638 44.9596 35.6315 44.4074 37.3359 43.3165C38.6417 41.4149 38.8414 39.0695 38.8604 38.8794C38.4389 38.9156 38.0157 38.9294 37.5927 38.9206Z" fill="var(--fill-0, black)"/>
<path id="Vector_14" d="M24.5318 1.85544C19.1761 1.31235 13.8199 2.88168 9.60403 6.22919C8.35345 7.22146 7.22091 8.35401 6.22864 9.60459C6.496 10.9581 6.90829 12.2789 7.45836 13.5441C8.66514 11.5162 10.2702 9.75381 12.1767 8.36315C14.0832 6.97249 16.2516 5.98243 18.5512 5.45269C19.8058 4.53405 21.1115 3.68751 22.4622 2.91718C23.1405 2.54003 23.8251 2.18189 24.5318 1.85544Z" fill="var(--fill-0, black)"/>
<path id="Vector_15" d="M43.044 20.3698C42.6466 16.4383 41.1285 12.7036 38.6703 9.60977C37.6769 8.35912 36.5433 7.22659 35.2917 6.23438C33.9382 6.50174 32.6174 6.91402 31.3522 7.4641C33.3801 8.67088 35.1425 10.2759 36.5332 12.1824C37.9238 14.0889 38.9139 16.2574 39.4436 18.5569C40.3623 19.8115 41.2088 21.1173 41.9791 22.468C42.3626 23.1462 42.7239 23.8435 43.0535 24.5503C43.1201 23.8657 43.155 23.1684 43.155 22.468C43.155 21.7675 43.1074 21.0544 43.044 20.3698Z" fill="var(--fill-0, black)"/>
<path id="Vector_16" d="M31.3523 37.4446C29.8016 38.3688 28.1164 39.0456 26.3573 39.4508C25.1034 40.3687 23.7987 41.2153 22.4495 41.9863C21.7681 42.3698 21.0708 42.7311 20.364 43.0607C21.0486 43.1273 21.7459 43.1653 22.4495 43.1653C23.1531 43.1653 23.8472 43.1273 24.5318 43.0607C28.4689 42.6668 32.2097 41.1485 35.3077 38.687C36.5535 37.6889 37.6817 36.5523 38.6704 35.2989C38.4004 33.9457 37.9872 32.6251 37.4375 31.3594C35.9461 33.8618 33.8547 35.9532 31.3523 37.4446Z" fill="var(--fill-0, black)"/>
<path id="Vector_17" d="M7.45824 31.3555C6.53409 29.8048 5.85722 28.1196 5.45202 26.3606C4.5341 25.1066 3.68758 23.8019 2.91652 22.4527C2.53936 21.7713 2.18122 21.074 1.85477 20.3672C1.31168 25.723 2.88101 31.0792 6.22852 35.295C7.22158 36.5459 8.35403 37.6794 9.60392 38.6736C10.9571 38.4037 12.2778 37.9904 13.5435 37.4407C11.041 35.9493 8.94962 33.8579 7.45824 31.3555Z" fill="var(--fill-0, black)"/>
<path id="Vector_18" d="M22.4495 31.8869C20.1717 33.7495 17.7064 35.3704 15.0934 36.7234C14.5831 36.9801 14.0665 37.221 13.5436 37.4397C12.2779 37.9893 10.9572 38.4026 9.60401 38.6726C8.42559 38.8719 7.22822 38.9357 6.03528 38.8627C4.45456 38.7194 2.93209 38.1952 1.59814 37.3351C2.16863 38.3588 6.1684 42.517 7.56927 43.3094C9.2687 44.3983 11.2566 44.9505 13.2742 44.8941C15.6163 44.8624 18.0282 44.1271 20.3577 43.0463C21.0645 42.7294 21.7618 42.3554 22.4432 41.9719C23.7924 41.2008 25.0971 40.3543 26.351 39.4364C27.6188 38.5078 28.7978 37.5696 29.7962 36.7139C32.2434 34.552 34.5561 32.2425 36.7213 29.7983C35.3691 27.1858 33.7482 24.7215 31.8848 22.4453C29.5743 25.4023 25.882 29.0979 22.4495 31.8869Z" fill="var(--fill-0, black)"/>
<path id="Vector_19" d="M43.3103 7.56354C41.9647 6.72821 40.448 6.20712 38.8731 6.03906C38.9632 7.23133 38.895 8.43026 38.6703 9.60462C41.1301 12.6976 42.6483 16.4327 43.044 20.3647C44.1248 18.0447 44.8601 15.6106 44.8918 13.2811C44.9517 11.2596 44.4005 9.26693 43.3103 7.56354Z" fill="var(--fill-0, black)"/>
<path id="Vector_20" d="M36.7212 15.0967C37.5769 16.0951 38.5151 17.2614 39.4437 18.5418C39.0385 16.7827 38.3616 15.0975 37.4375 13.5469C37.2188 14.0698 36.9779 14.5864 36.7212 15.0967Z" fill="var(--fill-0, black)"/>
<path id="Vector_21" d="M8.17465 29.7967C7.31892 28.7983 6.38078 27.632 5.45215 26.3516C5.85735 28.1107 6.53421 29.7959 7.45837 31.3465C7.67706 30.8299 7.92744 30.3133 8.17465 29.7967Z" fill="var(--fill-0, black)"/>
<path id="Vector_22" d="M6.2286 35.2991C3.76883 32.2062 2.25056 28.471 1.85485 24.5391C0.770922 26.8591 0.0356247 29.2805 0.00393084 31.6226C-0.0524959 33.6402 0.499688 35.6281 1.58862 37.3275C2.92257 38.1877 4.44504 38.7118 6.02576 38.8552C5.91271 37.6664 5.9811 36.4673 6.2286 35.2991Z" fill="var(--fill-0, black)"/>
<path id="Vector_23" d="M44.892 31.6206C44.8603 29.2784 44.125 26.8665 43.0442 24.537C42.7273 23.8302 42.3533 23.133 41.9698 22.4547C41.1995 21.104 40.3529 19.7982 39.4343 18.5437C38.5057 17.2759 37.5675 16.0969 36.7118 15.0986C34.5498 12.6535 32.2403 10.343 29.7962 8.17981C27.1865 9.52838 24.7244 11.145 22.4496 13.0036C25.3464 15.2222 29.6314 19.5769 31.8848 22.442C33.7375 24.7283 35.3577 27.1936 36.7213 29.8014C36.978 30.3116 37.2189 30.8282 37.4376 31.3512C37.9877 32.6189 38.401 33.9417 38.6705 35.2971C38.884 36.4739 38.9478 37.673 38.8606 38.8658C38.8416 39.0686 38.642 41.4013 37.3362 43.3029C39.1459 41.9179 41.9254 39.1827 43.3105 37.3255C44.4356 35.8232 44.9205 33.7599 44.892 31.6206Z" fill="var(--fill-0, black)"/>
<path id="Vector_24" d="M7.45837 31.3543C7.67706 30.8314 7.91793 30.3148 8.17465 29.8045C7.31892 28.8061 6.38078 27.6398 5.45215 26.3594C5.85735 28.1185 6.53421 29.8037 7.45837 31.3543Z" fill="var(--fill-0, black)"/>
<path id="Vector_25" d="M1.85485 24.5391C0.770922 26.8591 0.0356247 29.2805 0.00393085 31.6226C-0.0524959 33.6402 0.499688 35.6281 1.58862 37.3275C2.92257 38.1877 4.44504 38.7118 6.02576 38.8552C5.90829 37.6627 5.97348 36.4593 6.2191 35.2864C3.76498 32.1959 2.25017 28.4656 1.85485 24.5391Z" fill="var(--fill-0, black)"/>
<path id="Vector_26" d="M37.3362 1.5948C35.6253 0.518524 33.6363 -0.032436 31.6155 0.0101023C29.2733 0.0417962 26.8614 0.777094 24.5319 1.86102C23.8251 2.18747 23.1405 2.54561 22.4496 2.93228C21.0989 3.7026 19.7931 4.54914 18.5386 5.46778C17.2708 6.39641 16.1013 7.34406 15.0935 8.19029C12.6135 10.3126 10.3004 12.6225 8.17468 15.0995C9.52365 17.712 11.1403 20.1772 12.9985 22.4557C15.2456 19.4321 19.7271 15.2041 22.4496 13.0046C24.7244 11.146 27.1866 9.52935 29.7962 8.18078C30.3065 7.92406 30.8231 7.68319 31.3461 7.4645C32.6113 6.91442 33.9321 6.50214 35.2856 6.23478C36.4629 6.00806 37.6653 5.93984 38.8607 6.03194C40.4362 6.19924 41.9532 6.72155 43.2978 7.55958C41.6307 5.10331 38.5216 2.35228 37.3362 1.5948Z" fill="var(--fill-0, black)"/>
<path id="Vector_27" d="M0.954746 31.6338C0.976298 30.4208 1.17052 29.217 1.53157 28.0588C1.70386 27.5067 1.90486 26.964 2.13376 26.4329C2.01015 25.799 1.91824 25.1651 1.85485 24.5313C0.770922 26.8576 0.0356247 29.279 0.00393084 31.6212C-0.0524959 33.6388 0.499688 35.6266 1.58862 37.3261C2.14351 37.6859 2.73403 37.9875 3.3508 38.2262C2.96414 37.6842 2.59649 37.1105 2.27955 36.6415C1.45234 35.4054 0.932561 33.4974 0.954746 31.6338Z" fill="var(--fill-0, black)"/>
<path id="Vector_28" d="M37.7385 39.8777C37.9635 39.8777 38.347 39.8777 38.7179 39.846C38.8193 39.3136 38.8541 38.9459 38.8605 38.8699C38.4391 38.9093 38.0159 38.9262 37.5927 38.9206C36.8202 38.9073 36.0503 38.8267 35.2917 38.6797C34.9526 38.9491 34.6008 39.2058 34.2458 39.4562C34.7086 39.5513 35.428 39.6717 35.5421 39.6907C36.2676 39.8156 37.0024 39.8782 37.7385 39.8777Z" fill="var(--fill-0, black)"/>
<path id="Vector_29" d="M44.892 13.2851C44.9484 11.2675 44.3962 9.27967 43.3073 7.58024C42.7051 7.20868 42.0682 6.89661 41.4056 6.64844C41.4056 6.64844 42.1219 7.52636 42.6195 8.28067C43.5703 9.70689 43.9633 11.4279 43.938 13.2883C43.8919 14.4988 43.6993 15.6992 43.3643 16.8634C43.207 17.4075 43.0045 17.9376 42.759 18.4481C42.8815 19.0819 42.9766 19.7222 43.0442 20.3687C44.125 18.0487 44.8603 15.6273 44.892 13.2851Z" fill="var(--fill-0, black)"/>
<path id="Vector_30" d="M10.1967 6.98034C13.1468 4.63425 16.709 3.18539 20.4592 2.80625L20.8332 2.77139C21.2705 2.72702 22.2847 2.60024 23.1405 2.5432C23.5937 2.30232 24.0533 2.07096 24.5192 1.85544C19.1634 1.31235 13.8072 2.88168 9.59136 6.22919C8.34504 7.22319 7.21677 8.35678 6.22864 9.60776C6.30153 10.0071 6.39662 10.4033 6.50437 10.8026C6.78328 10.4445 7.03366 10.1307 7.25235 9.8518C8.13213 8.79565 9.11884 7.83337 10.1967 6.98034Z" fill="var(--fill-0, black)"/>
<path id="Vector_31" d="M42.3818 23.3004V23.189L42.3405 23.1094L42.3818 23.3004Z" fill="var(--fill-0, black)"/>
<path id="Vector_32" d="M43.1455 22.4553C43.1455 21.7517 43.1107 21.0544 43.0441 20.3698C42.7606 17.6156 41.9285 14.946 40.5971 12.5183C39.2657 10.0906 37.4618 7.95402 35.2918 6.23438C34.8988 6.30727 34.5058 6.39918 34.1128 6.50377C34.4583 6.77 34.791 7.05842 35.0414 7.25809C36.1009 8.13737 37.0664 9.1241 37.9224 10.2024C40.2832 13.1437 41.7329 16.7107 42.0933 20.4649C42.1218 20.7819 42.3057 22.3666 42.3722 23.1938C42.6067 23.6343 42.8318 24.0844 43.0441 24.5376C43.1075 23.853 43.1455 23.1462 43.1455 22.4553Z" fill="var(--fill-0, black)"/>
<path id="Vector_33" d="M31.8403 38.2593C33.9259 37.0144 35.7468 35.3723 37.1998 33.426C37.4502 33.0901 37.6815 32.7541 37.8812 32.4752C37.7449 32.0949 37.5991 31.7177 37.4375 31.3438C36.2307 33.3716 34.6256 35.1341 32.7191 36.5247C30.8126 37.9154 28.6442 38.9055 26.3446 39.4352C25.6537 39.936 24.9311 40.4304 24.1799 40.909L26.7503 40.3195C28.5412 39.8936 30.2574 39.199 31.8403 38.2593Z" fill="var(--fill-0, black)"/>
<path id="Vector_34" d="M6.63753 31.8426C7.88244 33.9281 9.52458 35.749 11.4708 37.202C11.81 37.4651 12.1364 37.6774 12.4217 37.8771C12.7925 37.7408 13.1633 37.5982 13.5309 37.4397C11.5031 36.233 9.74062 34.6279 8.34996 32.7214C6.95931 30.8149 5.96924 28.6465 5.4395 26.3469C4.95142 25.6718 4.46333 24.9619 3.99426 24.2266C4.10202 24.8256 4.3112 25.6972 4.55524 26.7621C4.98896 28.551 5.69101 30.2639 6.63753 31.8426Z" fill="var(--fill-0, black)"/>
<path id="Vector_35" d="M5.0749 5.95799C4.96174 7.23751 5.0311 8.52662 5.28091 9.78661C5.56241 11.2018 5.99377 12.583 6.56768 13.9068C6.79587 14.4393 7.04625 14.9812 7.31248 15.5105C8.69295 18.1924 10.3546 20.7199 12.2694 23.0505C14.2661 25.5416 18.1486 29.4843 20.9218 31.8677L21.6825 32.5016C21.9424 32.3019 22.1928 32.1023 22.44 31.9058C19.0307 29.0285 15.8722 25.8668 12.9984 22.4546C11.1401 20.1762 9.52353 17.7109 8.17456 15.0985C7.92734 14.5882 7.67696 14.0716 7.45828 13.5487C6.9082 12.2834 6.49592 10.9626 6.22855 9.60913C5.99335 8.43181 5.92507 7.22724 6.02571 6.03089C6.17192 4.44934 6.69937 2.92681 7.56286 1.59375C6.92802 2.02985 6.33016 2.51747 5.77533 3.05167C5.52637 3.64007 5.34868 4.25614 5.24604 4.88674C5.17079 5.24068 5.11367 5.59823 5.0749 5.95799Z" fill="var(--fill-0, black)"/>
<path id="Vector_36" d="M15.7083 8.90974C16.6591 8.10471 17.8255 7.1539 19.0964 6.23161C20.3218 5.33819 21.5969 4.51495 22.9155 3.76582C23.5874 3.3855 24.2688 3.03687 24.9344 2.7231C27.378 1.5948 29.6314 0.992612 31.6281 0.960918C33.4613 0.9221 35.2658 1.42004 36.8196 2.39348C38.0046 3.24097 39.1091 4.19582 40.1189 5.24593C40.5738 5.67831 41.0035 6.13652 41.4057 6.61827C42.0698 6.87081 42.7068 7.18934 43.3073 7.56909C41.6307 5.10331 38.5216 2.35228 37.3362 1.5948C35.6253 0.518524 33.6363 -0.032436 31.6155 0.0101023C29.2733 0.0417962 26.8614 0.777094 24.5319 1.86102C23.8251 2.18747 23.1405 2.54561 22.4496 2.93228C21.0989 3.7026 19.7931 4.54914 18.5386 5.46778C17.2708 6.39641 16.1013 7.34406 15.0935 8.19029C12.6135 10.3126 10.3004 12.6225 8.17468 15.0995C8.32364 15.3975 8.47577 15.6891 8.63424 15.9806C8.87195 15.7239 9.10331 15.4672 9.31249 15.2263C11.2958 12.9754 13.4329 10.8648 15.7083 8.90974Z" fill="var(--fill-0, black)"/>
<path id="Vector_37" d="M5.94654 39.8197H5.97824C7.24968 39.9002 8.52619 39.831 9.7815 39.6137C11.1967 39.3321 12.5779 38.9008 13.9017 38.3269C14.4342 38.0987 14.973 37.8483 15.5054 37.5852C18.1855 36.2055 20.7128 34.5472 23.0454 32.6378C26.1672 30.1023 30.0624 26.2991 31.8689 23.9918C32.0802 23.7086 32.2767 23.4424 32.4585 23.1931C32.2651 22.9427 32.0718 22.6986 31.8816 22.4609C29.5711 25.4116 25.8788 29.1166 22.4464 31.8962C20.1685 33.7588 17.7032 35.3797 15.0902 36.7327C14.5799 36.9894 14.0633 37.2303 13.5404 37.449C12.2756 37.9973 10.956 38.4095 9.60401 38.6787C8.42559 38.878 7.22822 38.9418 6.03528 38.8688C4.45456 38.7255 2.93209 38.2013 1.59814 37.3412C2.06053 38.0183 2.58009 38.6545 3.15114 39.2428C3.71425 39.4196 4.28801 39.5603 4.86895 39.6644C5.2778 39.7246 5.57572 39.7816 5.94654 39.8197Z" fill="var(--fill-0, black)"/>
<path id="Vector_38" d="M13.2679 0.954747C14.4801 0.985766 15.6826 1.17978 16.843 1.53157C17.4415 1.6845 18.0291 1.8772 18.602 2.1084C19.1809 1.99853 19.7683 1.91401 20.3642 1.85485C18.0442 0.770922 15.6228 0.0356247 13.2806 0.00393085C11.263 -0.0524959 9.27513 0.499689 7.5757 1.58862C7.23429 2.11578 6.94554 2.67523 6.71362 3.25889C7.12881 2.98632 7.66444 2.65671 8.26662 2.27955C9.77303 1.36949 11.5085 0.909775 13.2679 0.954747Z" fill="var(--fill-0, black)"/>
<path id="Vector_39" d="M43.0442 24.537C42.7272 23.8302 42.3532 23.133 41.9697 22.4547C41.1994 21.104 40.3529 19.7982 39.4342 18.5437C38.5056 17.2759 37.5675 16.0969 36.7117 15.0986C34.5497 12.6535 32.2402 10.343 29.7961 8.17981C29.4792 8.33194 29.1844 8.49675 28.8833 8.65522C29.1147 8.85172 29.3714 9.07358 29.6567 9.32396C31.8848 11.3386 34.0009 13.4737 35.9954 15.7198C36.9463 16.8386 37.8527 17.9764 38.6672 19.1015C39.5598 20.3282 40.3841 21.6032 41.1362 22.9206C41.5133 23.5925 41.862 24.2708 42.1757 24.9395C43.3136 27.3831 43.9062 29.6334 43.9348 31.6333C43.9601 33.6965 43.4689 35.5221 42.5402 36.7708C41.6581 37.9096 40.6941 38.9827 39.6561 39.9814C39.3043 40.3174 38.8637 40.7009 38.3883 41.0875C38.1431 41.8743 37.7855 42.6216 37.3266 43.3061C39.1363 41.9211 41.9159 39.1859 43.3009 37.3287C44.426 35.8137 44.9109 33.7504 44.8856 31.6238C44.8602 29.2784 44.1249 26.857 43.0442 24.537Z" fill="var(--fill-0, black)"/>
<path id="Vector_40" d="M31.3523 37.4428C30.8293 37.2242 30.3127 36.9833 29.8024 36.7266C29.5362 36.9548 29.2573 37.1893 28.9689 37.427C29.4041 37.6383 29.8394 37.8401 30.2747 38.0324C30.6423 37.8485 31.0004 37.652 31.3523 37.4428Z" fill="var(--fill-0, black)"/>
<path id="Vector_41" d="M37.8908 38.9159H37.596C37.2569 38.9159 36.9146 38.8906 36.5723 38.8557C36.1476 38.8145 35.7229 38.7543 35.3046 38.6719C34.9623 38.9444 34.6136 39.2012 34.2555 39.4515L35.1239 39.6132L35.5549 39.6892H35.6025C35.761 39.7146 35.9194 39.74 36.0779 39.759L36.5406 39.8097H36.623C36.7688 39.8097 36.9178 39.835 37.0604 39.8414H37.1428C37.2918 39.8414 37.4407 39.8414 37.5897 39.8414H37.7608C38.0778 39.8414 38.3947 39.8414 38.7116 39.8065C38.7116 39.7621 38.7116 39.7209 38.7338 39.6797C38.756 39.6385 38.7655 39.5181 38.7782 39.4389C38.8099 39.2392 38.8353 39.0364 38.8543 38.8335C38.5437 38.8937 38.2204 38.9127 37.8908 38.9159Z" fill="var(--fill-0, black)"/>
<path id="Vector_42" d="M201.871 32.0184H201.507V32.6523H200.841V30.2816H201.919C202.109 30.2774 202.298 30.313 202.474 30.3862C202.624 30.4487 202.752 30.5557 202.839 30.6928C202.927 30.8299 202.971 30.9905 202.965 31.1532C202.97 31.3108 202.928 31.4662 202.844 31.6001C202.762 31.7291 202.644 31.8323 202.505 31.898L203.012 32.6396H202.299L201.871 32.0184ZM202.188 30.9028C202.097 30.8356 201.984 30.8041 201.871 30.814H201.501V31.5018H201.894C202.007 31.5118 202.119 31.4802 202.211 31.4131C202.246 31.3813 202.274 31.3421 202.292 31.2982C202.31 31.2543 202.318 31.2069 202.315 31.1595C202.317 31.1087 202.306 31.0583 202.284 31.0125C202.262 30.9667 202.229 30.9269 202.188 30.8964V30.9028Z" fill="var(--fill-0, black)"/>
<path id="Vector_43" d="M201.834 33.8359C201.348 33.8359 200.874 33.692 200.471 33.4225C200.067 33.1529 199.753 32.7698 199.567 32.3216C199.382 31.8733 199.333 31.3801 199.428 30.9042C199.522 30.4284 199.756 29.9913 200.099 29.6482C200.442 29.3051 200.879 29.0715 201.355 28.9768C201.831 28.8822 202.324 28.9308 202.772 29.1164C203.221 29.3021 203.604 29.6165 203.873 30.0199C204.143 30.4233 204.287 30.8976 204.287 31.3828C204.287 32.0334 204.028 32.6574 203.568 33.1174C203.108 33.5774 202.484 33.8359 201.834 33.8359ZM201.834 29.2783C201.417 29.2783 201.009 29.402 200.662 29.6337C200.316 29.8655 200.046 30.1948 199.886 30.5801C199.727 30.9654 199.685 31.3894 199.767 31.7983C199.848 32.2072 200.049 32.5828 200.344 32.8774C200.639 33.172 201.015 33.3725 201.424 33.4535C201.833 33.5345 202.257 33.4923 202.642 33.3323C203.027 33.1722 203.356 32.9016 203.588 32.5546C203.819 32.2076 203.942 31.7998 203.941 31.3828C203.94 30.8246 203.717 30.2898 203.322 29.8954C202.927 29.501 202.392 29.2792 201.834 29.2783Z" fill="var(--fill-0, black)"/>
</g>
</svg>
