<svg viewBox="230 478 40 40" fill="none" xmlns="http://www.w3.org/2000/svg">
<rect x="230" y="478" width="40" height="40" rx="20" stroke="black" stroke-opacity="0.24" stroke-linecap="round"/>
<path d="M239.578 494.833C239.578 494.833 244.242 489.625 249.995 489.625C255.748 489.625 260.411 494.833 260.411 494.833" stroke="black" stroke-width="1.5" stroke-linecap="round"/>
<path d="M259.936 500.086C260.253 500.53 260.411 500.752 260.411 501.081C260.411 501.409 260.253 501.631 259.936 502.076C258.513 504.071 254.879 508.372 249.995 508.372C245.11 508.372 241.476 504.071 240.053 502.076C239.736 501.631 239.578 501.409 239.578 501.081C239.578 500.752 239.736 500.53 240.053 500.086C241.476 498.091 245.11 493.789 249.995 493.789C254.879 493.789 258.513 498.091 259.936 500.086Z" stroke="black" stroke-width="1.5"/>
<path d="M253.125 501.086C253.125 499.36 251.726 497.961 250 497.961C248.274 497.961 246.875 499.36 246.875 501.086C246.875 502.812 248.274 504.211 250 504.211C251.726 504.211 253.125 502.812 253.125 501.086Z" stroke="black" stroke-width="1.5"/>
</svg>
