<svg viewBox="230 292 40 40" fill="none" xmlns="http://www.w3.org/2000/svg">
<rect x="230" y="292" width="40" height="40" rx="20" stroke="black" stroke-opacity="0.24" stroke-linecap="round"/>
<path d="M254.161 303.625H245.828C242.882 303.625 241.409 303.625 240.493 304.54C239.578 305.456 239.578 306.929 239.578 309.875V311.958C239.578 314.905 239.578 316.378 240.493 317.293C241.409 318.208 242.882 318.208 245.828 318.208H254.161C257.108 318.208 258.581 318.208 259.496 317.293C260.411 316.378 260.411 314.905 260.411 311.958V309.875C260.411 306.929 260.411 305.456 259.496 304.54C258.581 303.625 257.108 303.625 254.161 303.625Z" stroke="black" stroke-width="1.5" stroke-linecap="round" stroke-linejoin="round"/>
<path d="M252.078 322.378H254.161M252.078 322.378C251.215 322.378 250.516 321.678 250.516 320.815V318.211H249.995M252.078 322.378H247.911M249.995 318.211H249.474V320.815C249.474 321.678 248.774 322.378 247.911 322.378M249.995 318.211V322.378M247.911 322.378H245.828" stroke="black" stroke-width="1.5" stroke-linecap="round" stroke-linejoin="round"/>
<path d="M247.922 307.789V314.039" stroke="black" stroke-width="1.5" stroke-linecap="round" stroke-linejoin="round"/>
<path d="M252.078 307.789V314.039" stroke="black" stroke-width="1.5" stroke-linecap="round" stroke-linejoin="round"/>
</svg>
