<svg width="727" height="802" viewBox="574 84 727 802" fill="none" xmlns="http://www.w3.org/2000/svg">
<g>
<path d="M834.484 439.654V114.127C834.484 102.955 846.574 95.9696 856.253 101.549L1267.26 338.485C1278.06 344.706 1284.71 356.215 1284.71 368.672V694.561C1284.71 705.737 1272.61 712.722 1262.93 707.134L851.906 469.829C841.125 463.605 834.484 452.103 834.484 439.654Z" fill="#8C4AFF" stroke="#7700EE" stroke-linecap="round"/>
<path d="M831.094 108.231L843.079 100.766M1279.12 706.157L1268.81 712.545" stroke="#7700EE" stroke-linecap="round"/>
<path d="M826.016 444.951V119.424C826.016 108.252 838.106 101.266 847.784 106.846L1258.8 343.782C1269.59 350.003 1276.24 361.512 1276.24 373.969V699.858C1276.24 711.034 1264.14 718.019 1254.46 712.431L843.437 475.126C832.657 468.902 826.016 457.399 826.016 444.951Z" fill="#A684FF" stroke="#7700EE" stroke-linecap="round"/>
<path d="M831.82 144.164L1271.88 398.23" stroke="#7700EE" stroke-linecap="round" stroke-dasharray="4.36 11.61"/>
<path d="M831.82 190.625L1271.88 444.691" stroke="#7700EE" stroke-linecap="round" stroke-dasharray="4.36 11.61"/>
<path d="M831.82 237.078L1271.88 491.144" stroke="#7700EE" stroke-linecap="round" stroke-dasharray="4.36 11.61"/>
<path d="M831.82 283.539L1271.88 537.605" stroke="#7700EE" stroke-linecap="round" stroke-dasharray="4.36 11.61"/>
<path d="M831.82 329.992L1271.88 584.058" stroke="#7700EE" stroke-linecap="round" stroke-dasharray="4.36 11.61"/>
<path d="M831.82 376.453L1271.88 630.519" stroke="#7700EE" stroke-linecap="round" stroke-dasharray="4.36 11.61"/>
<path d="M831.82 422.906L1271.88 676.972" stroke="#7700EE" stroke-linecap="round" stroke-dasharray="4.36 11.61"/>
<path d="M862.312 119.484V532.523" stroke="#7700EE" stroke-linecap="round" stroke-dasharray="4.36 11.61"/>
<path d="M909.492 146.344V559.382" stroke="#7700EE" stroke-linecap="round" stroke-dasharray="4.36 11.61"/>
<path d="M955.953 172.477V585.515" stroke="#7700EE" stroke-linecap="round" stroke-dasharray="4.36 11.61"/>
<path d="M1002.41 200.055V613.093" stroke="#7700EE" stroke-linecap="round" stroke-dasharray="4.36 11.61"/>
<path d="M1048.87 226.188V639.226" stroke="#7700EE" stroke-linecap="round" stroke-dasharray="4.36 11.61"/>
<path d="M1095.33 253.773V666.812" stroke="#7700EE" stroke-linecap="round" stroke-dasharray="4.36 11.61"/>
<path d="M1141.78 279.914V692.953" stroke="#7700EE" stroke-linecap="round" stroke-dasharray="4.36 11.61"/>
<path d="M1188.23 307.492V720.531" stroke="#7700EE" stroke-linecap="round" stroke-dasharray="4.36 11.61"/>
<path d="M1233.98 332.898L1233.98 698.753" stroke="#7700EE" stroke-linecap="round" stroke-dasharray="4.36 11.61"/>
<path d="M783.469 467.654V142.127C783.469 130.955 795.559 123.97 805.238 129.549L1216.25 366.485C1227.04 372.706 1233.69 384.215 1233.69 396.672V722.561C1233.69 733.737 1221.59 740.722 1211.91 735.134L800.89 497.829C790.11 491.605 783.469 480.103 783.469 467.654Z" fill="#EEE8FF" stroke="#7700EE" stroke-linecap="round"/>
<path d="M775 472.943V147.416C775 136.244 787.09 129.259 796.769 134.838L1207.78 371.774C1218.57 377.995 1225.22 389.504 1225.22 401.961V727.85C1225.22 739.026 1213.12 746.011 1203.44 740.423L792.422 503.118C781.641 496.894 775 485.392 775 472.943Z" fill="#EEE8FF" stroke="#7700EE" stroke-linecap="round"/>
<path d="M862.828 172.898V585.937" stroke="#7700EE" stroke-linecap="round" stroke-dasharray="4.36 11.61"/>
<path d="M818.547 148.938V561.976" stroke="#7700EE" stroke-linecap="round" stroke-dasharray="4.36 11.61"/>
<path d="M909.281 199.023V612.062" stroke="#7700EE" stroke-linecap="round" stroke-dasharray="4.36 11.61"/>
<path d="M955.742 226.609V639.648" stroke="#7700EE" stroke-linecap="round" stroke-dasharray="4.36 11.61"/>
<path d="M1002.2 252.742V665.781" stroke="#7700EE" stroke-linecap="round" stroke-dasharray="4.36 11.61"/>
<path d="M1048.66 280.32V693.359" stroke="#7700EE" stroke-linecap="round" stroke-dasharray="4.36 11.61"/>
<path d="M1095.11 306.461V719.5" stroke="#7700EE" stroke-linecap="round" stroke-dasharray="4.36 11.61"/>
<path d="M1141.58 334.047V747.085" stroke="#7700EE" stroke-linecap="round" stroke-dasharray="4.36 11.61"/>
<path d="M1187.31 359.453L1187.31 731.115" stroke="#7700EE" stroke-linecap="round" stroke-dasharray="4.36 11.61"/>
<path d="M785.156 175.078L1225.21 429.144" stroke="#7700EE" stroke-linecap="round" stroke-dasharray="4.36 11.61"/>
<path d="M785.156 221.531L1225.21 475.597" stroke="#7700EE" stroke-linecap="round" stroke-dasharray="4.36 11.61"/>
<path d="M785.156 267.992L1225.21 522.058" stroke="#7700EE" stroke-linecap="round" stroke-dasharray="4.36 11.61"/>
<path d="M785.156 314.445L1225.21 568.511" stroke="#7700EE" stroke-linecap="round" stroke-dasharray="4.36 11.61"/>
<path d="M785.156 360.906L1225.21 614.972" stroke="#7700EE" stroke-linecap="round" stroke-dasharray="4.36 11.61"/>
<path d="M785.156 407.359L1225.21 661.425" stroke="#7700EE" stroke-linecap="round" stroke-dasharray="4.36 11.61"/>
<path d="M785.156 453.82L1225.21 707.886" stroke="#7700EE" stroke-linecap="round" stroke-dasharray="4.36 11.61"/>
<path d="M780.078 136.239L792.064 128.773M1228.11 734.165L1217.8 740.553" stroke="#7700EE" stroke-linecap="round"/>
<path d="M739.469 499.654V174.127C739.469 162.955 751.559 155.97 761.238 161.549L1172.25 398.485C1183.04 404.706 1189.69 416.215 1189.69 428.672V754.561C1189.69 765.737 1177.59 772.722 1167.91 767.134L756.89 529.829C746.11 523.605 739.469 512.103 739.469 499.654Z" fill="#EEE8FF" stroke="#7700EE" stroke-linecap="round"/>
<path d="M731 504.943V179.416C731 168.244 743.09 161.259 752.769 166.838L1163.78 403.774C1174.57 409.995 1181.22 421.504 1181.22 433.961V759.85C1181.22 771.026 1169.12 778.011 1159.44 772.423L748.422 535.118C737.641 528.894 731 517.392 731 504.943Z" fill="#EEE8FF" stroke="#7700EE" stroke-linecap="round"/>
<path d="M818.828 204.898V617.937" stroke="#7700EE" stroke-linecap="round" stroke-dasharray="4.36 11.61"/>
<path d="M774.547 180.938V593.976" stroke="#7700EE" stroke-linecap="round" stroke-dasharray="4.36 11.61"/>
<path d="M865.281 231.023V644.062" stroke="#7700EE" stroke-linecap="round" stroke-dasharray="4.36 11.61"/>
<path d="M911.742 258.609V671.648" stroke="#7700EE" stroke-linecap="round" stroke-dasharray="4.36 11.61"/>
<path d="M958.203 284.742V697.781" stroke="#7700EE" stroke-linecap="round" stroke-dasharray="4.36 11.61"/>
<path d="M1004.66 312.32V725.359" stroke="#7700EE" stroke-linecap="round" stroke-dasharray="4.36 11.61"/>
<path d="M1051.11 338.461V751.5" stroke="#7700EE" stroke-linecap="round" stroke-dasharray="4.36 11.61"/>
<path d="M1097.58 366.047V779.085" stroke="#7700EE" stroke-linecap="round" stroke-dasharray="4.36 11.61"/>
<path d="M1143.31 391.453L1143.31 763.115" stroke="#7700EE" stroke-linecap="round" stroke-dasharray="4.36 11.61"/>
<path d="M741.156 207.078L1181.21 461.144" stroke="#7700EE" stroke-linecap="round" stroke-dasharray="4.36 11.61"/>
<path d="M741.156 253.531L1181.21 507.597" stroke="#7700EE" stroke-linecap="round" stroke-dasharray="4.36 11.61"/>
<path d="M741.156 299.992L1181.21 554.058" stroke="#7700EE" stroke-linecap="round" stroke-dasharray="4.36 11.61"/>
<path d="M741.156 346.445L1181.21 600.511" stroke="#7700EE" stroke-linecap="round" stroke-dasharray="4.36 11.61"/>
<path d="M741.156 392.906L1181.21 646.972" stroke="#7700EE" stroke-linecap="round" stroke-dasharray="4.36 11.61"/>
<path d="M741.156 439.359L1181.21 693.425" stroke="#7700EE" stroke-linecap="round" stroke-dasharray="4.36 11.61"/>
<path d="M741.156 485.82L1181.21 739.886" stroke="#7700EE" stroke-linecap="round" stroke-dasharray="4.36 11.61"/>
<path d="M736.078 168.239L748.064 160.773M1184.11 766.165L1173.8 772.553" stroke="#7700EE" stroke-linecap="round"/>
<path d="M694.438 529.654V204.127C694.438 192.955 706.528 185.97 716.206 191.549L1127.22 428.485C1138.01 434.706 1144.66 446.215 1144.66 458.672V784.561C1144.66 795.737 1132.56 802.722 1122.88 797.134L711.859 559.829C701.079 553.605 694.438 542.103 694.438 529.654Z" fill="#A684FF" stroke="#7700EE" stroke-linecap="round"/>
<path d="M685.969 534.951V209.424C685.969 198.252 698.059 191.266 707.738 196.846L1118.75 433.782C1129.54 440.003 1136.19 451.512 1136.19 463.969V789.858C1136.19 801.034 1124.09 808.019 1114.41 802.431L703.39 565.126C692.61 558.902 685.969 547.399 685.969 534.951Z" fill="#D2C2FF" stroke="#7700EE" stroke-linecap="round"/>
<path d="M773.805 234.891V647.929" stroke="#7700EE" stroke-linecap="round" stroke-dasharray="4.36 11.61"/>
<path d="M820.266 261.031V674.07" stroke="#7700EE" stroke-linecap="round" stroke-dasharray="4.36 11.61"/>
<path d="M866.719 288.617V701.656" stroke="#7700EE" stroke-linecap="round" stroke-dasharray="4.36 11.61"/>
<path d="M913.172 314.742V727.781" stroke="#7700EE" stroke-linecap="round" stroke-dasharray="4.36 11.61"/>
<path d="M959.633 342.328V755.367" stroke="#7700EE" stroke-linecap="round" stroke-dasharray="4.36 11.61"/>
<path d="M1006.09 368.461V781.5" stroke="#7700EE" stroke-linecap="round" stroke-dasharray="4.36 11.61"/>
<path d="M1052.55 396.039V809.078" stroke="#7700EE" stroke-linecap="round" stroke-dasharray="4.36 11.61"/>
<path d="M1098.28 421.445L1098.28 793.107" stroke="#7700EE" stroke-linecap="round" stroke-dasharray="4.36 11.61"/>
<path d="M722.266 208.031V621.07" stroke="#7700EE" stroke-linecap="round" stroke-dasharray="4.36 11.61"/>
<path d="M696.133 237.07L1136.19 491.136" stroke="#7700EE" stroke-linecap="round" stroke-dasharray="4.36 11.61"/>
<path d="M696.133 283.531L1136.19 537.597" stroke="#7700EE" stroke-linecap="round" stroke-dasharray="4.36 11.61"/>
<path d="M696.133 329.984L1136.19 584.05" stroke="#7700EE" stroke-linecap="round" stroke-dasharray="4.36 11.61"/>
<path d="M696.133 376.445L1136.19 630.511" stroke="#7700EE" stroke-linecap="round" stroke-dasharray="4.36 11.61"/>
<path d="M696.133 422.898L1136.19 676.964" stroke="#7700EE" stroke-linecap="round" stroke-dasharray="4.36 11.61"/>
<path d="M696.133 469.359L1136.19 723.425" stroke="#7700EE" stroke-linecap="round" stroke-dasharray="4.36 11.61"/>
<path d="M696.133 515.812L1136.19 769.878" stroke="#7700EE" stroke-linecap="round" stroke-dasharray="4.36 11.61"/>
<path d="M691.773 198.075L703.759 190.609M1139.8 796.001L1129.49 802.389" stroke="#7700EE" stroke-linecap="round"/>
<g filter="url(#filter3_f_8715_882)">
<path d="M670 547.068V221.541C670 210.369 682.09 203.384 691.769 208.963L1102.78 445.899C1113.57 452.12 1120.22 463.629 1120.22 476.086V801.975C1120.22 813.151 1108.12 820.136 1098.44 814.548L687.422 577.243C676.641 571.019 670 559.517 670 547.068Z" fill="#D8C2FF"/>
<path d="M670 547.068V221.541C670 210.369 682.09 203.384 691.769 208.963L1102.78 445.899C1113.57 452.12 1120.22 463.629 1120.22 476.086V801.975C1120.22 813.151 1108.12 820.136 1098.44 814.548L687.422 577.243C676.641 571.019 670 559.517 670 547.068Z" stroke="#D7C2FF" stroke-linecap="round"/>
</g>
<path d="M648.469 564.654V239.127C648.469 227.955 660.559 220.97 670.238 226.549L1081.25 463.485C1092.04 469.706 1098.69 481.215 1098.69 493.672V819.561C1098.69 830.737 1086.59 837.722 1076.91 832.134L665.89 594.829C655.11 588.605 648.469 577.103 648.469 564.654Z" fill="#EEE8FF" stroke="#7700EE" stroke-linecap="round"/>
<path d="M645.078 233.239L657.064 225.773M1093.11 831.165L1082.8 837.553" stroke="#7700EE" stroke-linecap="round"/>
<path d="M640 569.943V244.416C640 233.244 652.09 226.259 661.769 231.838L1072.78 468.774C1083.57 474.995 1090.22 486.504 1090.22 498.961V824.85C1090.22 836.026 1078.12 843.011 1068.44 837.423L657.422 600.118C646.641 593.894 640 582.392 640 569.943Z" fill="#EEE8FF" stroke="#7700EE" stroke-linecap="round"/>
<path d="M676.297 243.039V656.078" stroke="#7700EE" stroke-linecap="round" stroke-dasharray="4.36 11.61"/>
<path d="M723.484 269.898V682.937" stroke="#7700EE" stroke-linecap="round" stroke-dasharray="4.36 11.61"/>
<path d="M769.938 296.023V709.062" stroke="#7700EE" stroke-linecap="round" stroke-dasharray="4.36 11.61"/>
<path d="M816.391 323.609V736.648" stroke="#7700EE" stroke-linecap="round" stroke-dasharray="4.36 11.61"/>
<path d="M862.852 349.742V762.781" stroke="#7700EE" stroke-linecap="round" stroke-dasharray="4.36 11.61"/>
<path d="M909.312 377.32V790.359" stroke="#7700EE" stroke-linecap="round" stroke-dasharray="4.36 11.61"/>
<path d="M955.766 403.461V816.5" stroke="#7700EE" stroke-linecap="round" stroke-dasharray="4.36 11.61"/>
<path d="M1002.22 431.047V844.085" stroke="#7700EE" stroke-linecap="round" stroke-dasharray="4.36 11.61"/>
<path d="M1047.95 456.453L1047.95 828.115" stroke="#7700EE" stroke-linecap="round" stroke-dasharray="4.36 11.61"/>
<path d="M645.805 270.625L1085.86 524.691" stroke="#7700EE" stroke-linecap="round" stroke-dasharray="4.36 11.61"/>
<path d="M645.805 317.078L1085.86 571.144" stroke="#7700EE" stroke-linecap="round" stroke-dasharray="4.36 11.61"/>
<path d="M645.805 363.539L1085.86 617.605" stroke="#7700EE" stroke-linecap="round" stroke-dasharray="4.36 11.61"/>
<path d="M645.805 409.992L1085.86 664.058" stroke="#7700EE" stroke-linecap="round" stroke-dasharray="4.36 11.61"/>
<path d="M645.805 456.453L1085.86 710.519" stroke="#7700EE" stroke-linecap="round" stroke-dasharray="4.36 11.61"/>
<path d="M645.805 502.906L1085.86 756.972" stroke="#7700EE" stroke-linecap="round" stroke-dasharray="4.36 11.61"/>
<path d="M645.805 549.367L1085.86 803.433" stroke="#7700EE" stroke-linecap="round" stroke-dasharray="4.36 11.61"/>
<path d="M598.469 594.654V269.127C598.469 257.955 610.559 250.97 620.238 256.549L1031.25 493.485C1042.04 499.706 1048.69 511.215 1048.69 523.672V849.561C1048.69 860.737 1036.59 867.722 1026.91 862.134L615.89 624.829C605.11 618.605 598.469 607.103 598.469 594.654Z" fill="#EEE8FF" stroke="#7700EE" stroke-linecap="round"/>
<path d="M595.078 263.239L607.064 255.773M1043.11 861.165L1032.8 867.553" stroke="#7700EE" stroke-linecap="round"/>
<path d="M590 599.951V274.424C590 263.252 602.09 256.266 611.769 261.846L1022.78 498.782C1033.57 505.003 1040.22 516.512 1040.22 528.969V854.858C1040.22 866.034 1028.12 873.019 1018.44 867.431L607.422 630.126C596.641 623.902 590 612.399 590 599.951Z" fill="#8C4AFF" stroke="#7700EE" stroke-linecap="round"/>
<path d="M930.938 769.756V501.344C930.938 490.188 942.996 483.201 952.675 488.748L1007.22 520.014C1018.06 526.223 1024.74 537.756 1024.74 550.244V818.886C1024.74 830.062 1012.64 837.047 1002.96 831.459L948.359 799.931C937.578 793.707 930.938 782.204 930.938 769.756Z" fill="#EEE8FF" stroke="#7700EE" stroke-linecap="round"/>
<path d="M927.547 495.528L939.533 488.062M1019.16 830.49L1008.85 836.878" stroke="#7700EE" stroke-linecap="round"/>
<path d="M922.469 775.053V506.641C922.469 495.485 934.527 488.498 944.206 494.045L998.755 525.31C1009.59 531.52 1016.27 543.052 1016.27 555.54V824.182C1016.27 835.358 1004.17 842.343 994.495 836.755L939.89 805.228C929.11 799.004 922.469 787.501 922.469 775.053Z" fill="#F9F9F9" stroke="#7700EE" stroke-linecap="round"/>
<path d="M935.523 761.409V751.026C935.523 739.877 947.57 732.888 957.248 738.423L989.278 756.738C1000.13 762.943 1006.83 774.485 1006.83 786.985V797.547C1006.83 808.723 994.726 815.708 985.048 810.12L952.945 791.584C942.164 785.36 935.523 773.858 935.523 761.409Z" fill="#EEE8FF" stroke="#7700EE" stroke-linecap="round"/>
<path d="M935.523 694.62V684.237C935.523 673.088 947.57 666.099 957.248 671.634L989.278 689.949C1000.13 696.154 1006.83 707.696 1006.83 720.196V730.758C1006.83 741.934 994.726 748.919 985.048 743.331L952.945 724.795C942.164 718.571 935.523 707.069 935.523 694.62Z" fill="#EEE8FF" stroke="#7700EE" stroke-linecap="round"/>
<path d="M935.523 627.839V617.456C935.523 606.306 947.57 599.318 957.248 604.852L989.278 623.168C1000.13 629.373 1006.83 640.915 1006.83 653.415V663.977C1006.83 675.153 994.726 682.138 985.048 676.55L952.945 658.014C942.164 651.79 935.523 640.287 935.523 627.839Z" fill="#EEE8FF" stroke="#7700EE" stroke-linecap="round"/>
<path d="M931.898 745.239L943.884 737.773M1001 809.152L990.697 815.54" stroke="#7700EE" stroke-linecap="round"/>
<path d="M926.812 766.706V756.323C926.812 745.173 938.859 738.185 948.537 743.72L980.566 762.035C991.417 768.24 998.113 779.782 998.113 792.282V802.844C998.113 814.02 986.015 821.005 976.336 815.416L944.234 796.881C933.453 790.657 926.812 779.154 926.812 766.706Z" fill="#A684FF" stroke="#7700EE" stroke-linecap="round"/>
<path d="M604.281 321.511V311.048C604.281 299.917 616.293 292.927 625.971 298.426L629.642 300.511C640.54 306.704 647.273 318.272 647.273 330.806V341.303C647.273 352.48 635.174 359.465 625.495 353.876L621.702 351.686C610.922 345.462 604.281 333.959 604.281 321.511Z" fill="#EEE8FF" stroke="#7700EE" stroke-linecap="round"/>
<path d="M794.469 459.136V421.516C794.469 410.355 806.538 403.368 816.216 408.926L903.389 458.983C914.209 465.196 920.881 476.722 920.881 489.199V527.092C920.881 538.268 908.783 545.253 899.104 539.665L811.89 489.311C801.11 483.086 794.469 471.584 794.469 459.136Z" fill="#EEE8FF" stroke="#7700EE" stroke-linecap="round"/>
<path d="M655.094 377.839V340.219C655.094 329.058 667.163 322.071 676.841 327.629L764.014 377.686C774.834 383.9 781.506 395.425 781.506 407.902V445.795C781.506 456.971 769.408 463.956 759.729 458.368L672.515 408.014C661.735 401.789 655.094 390.287 655.094 377.839Z" fill="#EEE8FF" stroke="#7700EE" stroke-linecap="round"/>
<path d="M659.453 610.478V452.042C659.453 440.874 671.537 433.888 681.216 439.461L899.855 565.359C910.656 571.578 917.312 583.091 917.312 595.554V754.325C917.312 765.501 905.213 772.486 895.535 766.897L676.875 640.653C666.094 634.428 659.453 622.926 659.453 610.478Z" fill="#EEE8FF" stroke="#7700EE" stroke-linecap="round"/>
<path d="M656.062 446.161L668.048 438.695M911.725 765.921L901.418 772.309" stroke="#7700EE" stroke-linecap="round"/>
<path d="M650.984 615.774V457.339C650.984 446.171 663.068 439.185 672.747 444.758L891.386 570.655C902.186 576.874 908.842 588.388 908.842 600.85V759.621C908.842 770.797 896.744 777.782 887.065 772.194L668.406 645.95C657.625 639.725 650.984 628.223 650.984 615.774Z" fill="#F9F9F9" stroke="#7700EE" stroke-linecap="round"/>
<path d="M604.281 394.097V383.634C604.281 372.503 616.293 365.512 625.971 371.012L629.642 373.097C640.54 379.289 647.273 390.858 647.273 403.392V413.889C647.273 425.066 635.174 432.051 625.495 426.462L621.702 424.272C610.922 418.048 604.281 406.545 604.281 394.097Z" fill="#EEE8FF" stroke="#7700EE" stroke-linecap="round"/>
<path d="M604.281 469.597V459.134C604.281 448.003 616.293 441.012 625.971 446.512L629.642 448.597C640.54 454.789 647.273 466.358 647.273 478.892V489.389C647.273 500.566 635.174 507.551 625.495 501.962L621.702 499.772C610.922 493.548 604.281 482.045 604.281 469.597Z" fill="#EEE8FF" stroke="#7700EE" stroke-linecap="round"/>
<path d="M881.439 743.927L832.941 715.925C829.796 714.11 827.859 710.755 827.859 707.124V682.442V671.394C827.859 666.936 832.675 664.14 836.546 666.351L885.026 694.034C888.194 695.843 890.149 699.211 890.149 702.86V738.898C890.149 743.368 885.31 746.162 881.439 743.927Z" fill="#EEE8FF" stroke="#7700EE" stroke-linecap="round"/>
<path d="M829.408 667.222L822.857 671.448C822.155 671.901 821.979 672.853 822.474 673.527L877.391 748.439C877.838 749.049 878.679 749.214 879.324 748.816L885.562 744.969C886.281 744.526 886.471 743.565 885.975 742.881L831.371 667.589C830.918 666.965 830.056 666.804 829.408 667.222Z" fill="#EEE8FF"/>
<path d="M821.562 672.284L830.564 666.477M886.894 744.148L878.183 749.52" stroke="#7700EE" stroke-linecap="round"/>
<path d="M819.391 712.429V676.699C819.391 672.241 824.206 669.445 828.078 671.656L876.557 699.339C879.725 701.148 881.68 704.516 881.68 708.164V744.202C881.68 748.672 876.841 751.466 872.969 749.231L824.472 721.23C821.328 719.414 819.391 716.06 819.391 712.429Z" fill="#A684FF" stroke="#7700EE" stroke-linecap="round"/>
<path d="M880.812 704.133L889.473 699.133" stroke="#7700EE" stroke-linecap="round"/>
<path d="M803.048 698.929L754.55 670.928C751.406 669.112 749.469 665.757 749.469 662.127V549.973V538.925C749.469 534.467 754.284 531.672 758.156 533.882L806.636 561.566C809.804 563.375 811.759 566.743 811.759 570.391V693.9C811.759 698.371 806.919 701.165 803.048 698.929Z" fill="#EEE8FF" stroke="#7700EE" stroke-linecap="round"/>
<path d="M750.612 535.007L744.127 539.191C743.566 539.553 743.324 540.251 743.542 540.883L799.202 702.798C799.505 703.678 800.545 704.05 801.337 703.562L807.517 699.751C808.094 699.395 808.348 698.688 808.129 698.046L752.773 535.759C752.468 534.865 751.405 534.495 750.612 535.007Z" fill="#EEE8FF"/>
<path d="M743.172 539.807L752.173 534M808.503 699.143L799.792 704.515" stroke="#7700EE" stroke-linecap="round"/>
<path d="M740.992 667.416V544.214C740.992 539.756 745.808 536.961 749.679 539.171L798.158 566.854C801.326 568.663 803.282 572.031 803.282 575.679V699.189C803.282 703.659 798.442 706.453 794.571 704.218L746.073 676.217C742.929 674.401 740.992 671.046 740.992 667.416Z" fill="#A684FF" stroke="#7700EE" stroke-linecap="round"/>
<path d="M802.422 571.656L811.082 566.656" stroke="#7700EE" stroke-linecap="round"/>
<path d="M726.095 653.922L677.597 625.92C674.453 624.105 672.516 620.75 672.516 617.119V561.223V550.175C672.516 545.717 677.331 542.922 681.203 545.132L729.682 572.816C732.85 574.625 734.806 577.993 734.806 581.641V648.893C734.806 653.363 729.966 656.157 726.095 653.922Z" fill="#EEE8FF" stroke="#7700EE" stroke-linecap="round"/>
<path d="M673.885 546.108L667.339 550.331C666.709 550.738 666.492 551.558 666.839 552.223L722.125 658.117C722.515 658.864 723.457 659.123 724.174 658.681L730.412 654.834C731.058 654.436 731.288 653.606 730.939 652.932L675.962 546.661C675.568 545.9 674.605 545.644 673.885 546.108Z" fill="#EEE8FF"/>
<path d="M666.227 551.049L675.228 545.242M731.558 654.128L722.847 659.499" stroke="#7700EE" stroke-linecap="round"/>
<path d="M664.047 622.416V555.472C664.047 551.014 668.862 548.219 672.734 550.429L721.213 578.112C724.381 579.921 726.336 583.289 726.336 586.937V654.189C726.336 658.66 721.497 661.454 717.625 659.218L669.128 631.217C665.984 629.402 664.047 626.047 664.047 622.416Z" fill="#A684FF" stroke="#7700EE" stroke-linecap="round"/>
<path d="M725.469 582.906L734.129 577.906" stroke="#7700EE" stroke-linecap="round"/>
<circle cx="842.807" cy="130.807" r="5.80722" fill="#4D0099"/>
<circle cx="886.354" cy="155.495" r="5.80722" fill="#4D0099"/>
<circle cx="933.339" cy="179.393" r="5.80722" fill="#4D0099"/>
<circle cx="977.823" cy="207.753" r="5.80722" fill="#4D0099"/>
<circle cx="1024.28" cy="233.885" r="5.80722" fill="#4D0099"/>
<circle cx="1070.74" cy="260.026" r="5.80722" fill="#4D0099"/>
<circle cx="1118.65" cy="287.604" r="5.80722" fill="#4D0099"/>
<circle cx="1163.66" cy="312.284" r="5.80722" fill="#4D0099"/>
<circle cx="1208.67" cy="341.323" r="5.80722" fill="#4D0099"/>
<circle cx="1254.81" cy="412.807" r="5.80722" fill="#4D0099"/>
<circle cx="1254.81" cy="367.807" r="5.80722" fill="#4D0099"/>
<circle cx="1254.81" cy="460.721" r="5.80722" fill="#4D0099"/>
<circle cx="1254.81" cy="504.268" r="5.80722" fill="#4D0099"/>
<circle cx="1254.81" cy="553.635" r="5.80722" fill="#4D0099"/>
<circle cx="1254.81" cy="598.635" r="5.80722" fill="#4D0099"/>
<circle cx="1254.81" cy="643.643" r="5.80722" fill="#4D0099"/>
<circle cx="1254.81" cy="685.807" r="5.80722" fill="#4D0099"/>
</g>
<defs>
<filter id="filter3_f_8715_882" x="629.5" y="166.5" width="531.222" height="690.516" filterUnits="userSpaceOnUse" color-interpolation-filters="sRGB">
<feFlood flood-opacity="0" result="BackgroundImageFix"/>
<feBlend mode="normal" in="SourceGraphic" in2="BackgroundImageFix" result="shape"/>
<feGaussianBlur stdDeviation="20" result="effect1_foregroundBlur_8715_882"/>
</filter>
</defs>
</svg>
