<svg width="308" height="542" viewBox="0 0 308 542" fill="none" xmlns="http://www.w3.org/2000/svg">
<rect x="0.75" y="0.75" width="306" height="540" rx="40" stroke="black" stroke-width="1.5" stroke-linecap="round" stroke-dasharray="0.01 8"/>
<foreignObject x="-31.25" y="-31.25" width="370" height="294"><div xmlns="http://www.w3.org/1999/xhtml" style="backdrop-filter:blur(20px);clip-path:url(#bgblur_0_8305_595_clip_path);height:100%;width:100%"></div></foreignObject><g filter="url(#filter0_n_8305_595)" data-figma-bg-blur-radius="40">
<rect x="8.75" y="8.75" width="290" height="214" rx="40" fill="#EDE7FE"/>
<path d="M92.2616 119.966C90.4883 119.966 88.639 119.738 86.7136 119.282C84.7883 118.877 82.9896 118.193 81.3176 117.23C79.6963 116.267 78.3536 114.975 77.2896 113.354C76.2763 111.733 75.7696 109.731 75.7696 107.35C75.7696 105.07 76.327 102.993 77.4416 101.118C78.5563 99.1927 79.975 97.47 81.6976 95.95C83.471 94.3793 85.3456 92.986 87.3216 91.77C83.471 89.4393 80.7603 87.134 79.1896 84.854C77.619 82.5233 76.8336 80.2687 76.8336 78.09C76.8336 75.7087 77.2896 73.6567 78.2016 71.934C79.1643 70.1607 80.431 68.7167 82.0016 67.602C83.5723 66.4873 85.295 65.6767 87.1696 65.17C89.095 64.6127 91.0203 64.334 92.9456 64.334C95.5296 64.334 97.9363 64.8153 100.166 65.778C102.446 66.69 104.27 68.058 105.638 69.882C107.056 71.706 107.766 73.9353 107.766 76.57C107.766 78.546 107.284 80.37 106.322 82.042C105.41 83.714 104.168 85.2087 102.598 86.526C101.078 87.7927 99.3803 88.9073 97.5056 89.87C99.7856 91.1873 101.888 92.7073 103.814 94.43C105.739 96.102 107.284 97.926 108.45 99.902C109.615 101.878 110.198 103.955 110.198 106.134C110.198 109.326 109.362 111.961 107.69 114.038C106.018 116.065 103.814 117.559 101.078 118.522C98.3416 119.485 95.403 119.966 92.2616 119.966ZM92.4136 116.926C95.707 116.977 98.2403 116.166 100.014 114.494C101.838 112.822 102.75 110.517 102.75 107.578C102.75 104.943 101.812 102.385 99.9376 99.902C98.1136 97.3687 94.871 95.114 90.2096 93.138C87.423 95.1647 85.3963 97.3433 84.1296 99.674C82.9136 102.005 82.255 104.107 82.1536 105.982C81.951 109.225 82.787 111.859 84.6616 113.886C86.587 115.862 89.171 116.875 92.4136 116.926ZM94.8456 88.35C97.075 86.83 98.7723 85.1073 99.9376 83.182C101.154 81.2567 101.787 79.3567 101.838 77.482C101.939 74.1887 101.179 71.6807 99.5576 69.958C97.9363 68.2353 95.783 67.3487 93.0976 67.298C91.1216 67.2473 89.4496 67.678 88.0816 68.59C86.7136 69.4513 85.675 70.5913 84.9656 72.01C84.2563 73.378 83.9016 74.8473 83.9016 76.418C83.9016 79.2047 84.9403 81.6367 87.0176 83.714C89.1456 85.7407 91.755 87.286 94.8456 88.35ZM131.745 119.966C128.503 119.966 125.741 119.434 123.461 118.37C121.181 117.255 119.433 115.887 118.217 114.266C117.001 112.645 116.393 111.099 116.393 109.63C116.393 108.465 116.697 107.502 117.305 106.742C117.913 105.931 118.775 105.501 119.889 105.45C120.801 105.399 121.511 105.577 122.017 105.982C122.575 106.337 122.955 106.793 123.157 107.35C123.36 107.907 123.461 108.414 123.461 108.87C123.461 109.377 123.385 109.883 123.233 110.39C123.081 110.897 122.879 111.378 122.625 111.834C122.828 113.05 123.461 114.063 124.525 114.874C125.589 115.634 126.805 116.191 128.173 116.546C129.592 116.901 130.884 117.053 132.049 117.002C134.532 116.901 136.533 116.242 138.053 115.026C139.573 113.759 140.688 112.163 141.397 110.238C142.157 108.313 142.537 106.286 142.537 104.158C142.537 102.739 142.411 101.169 142.157 99.446C141.955 97.7233 141.448 96.102 140.637 94.582C139.877 93.0113 138.712 91.7193 137.141 90.706C135.571 89.6927 133.443 89.186 130.757 89.186C129.896 89.186 128.832 89.2873 127.565 89.49C126.349 89.6927 125.108 89.9967 123.841 90.402C122.625 90.8073 121.587 91.2887 120.725 91.846L118.597 89.87L118.445 65.55H138.129C141.017 65.55 142.993 65.17 144.057 64.41C145.172 63.5993 145.729 62.3327 145.729 60.61H147.781L147.325 70.642L121.941 71.174V87.894C123.157 87.3873 124.728 86.906 126.653 86.45C128.629 85.994 130.732 85.766 132.961 85.766C136.103 85.766 138.763 86.2727 140.941 87.286C143.171 88.2487 144.969 89.566 146.337 91.238C147.756 92.8593 148.795 94.6833 149.453 96.71C150.112 98.686 150.441 100.713 150.441 102.79C150.441 106.539 149.555 109.706 147.781 112.29C146.059 114.823 143.779 116.749 140.941 118.066C138.104 119.333 135.039 119.966 131.745 119.966ZM156.515 118.75V116.242C158.441 116.141 159.758 115.71 160.467 114.95C161.177 114.139 161.557 113.05 161.607 111.682C161.709 110.263 161.759 108.667 161.759 106.894V74.062C161.759 73.0487 161.785 72.086 161.835 71.174C161.886 70.2113 161.937 69.35 161.987 68.59C161.075 68.6407 160.163 68.6913 159.251 68.742C158.339 68.7927 157.427 68.8433 156.515 68.894V65.55H173.615V68.058C171.741 68.1087 170.423 68.5393 169.663 69.35C168.954 70.1607 168.549 71.25 168.447 72.618C168.397 73.986 168.371 75.582 168.371 77.406V89.87H174.071L183.571 74.898C184.23 73.8847 185.041 72.77 186.003 71.554C186.966 70.338 187.954 69.3247 188.967 68.514C188.207 68.5647 187.422 68.59 186.611 68.59C185.851 68.59 185.091 68.6153 184.331 68.666V65.55H200.671V68.058C198.543 68.21 196.643 68.5647 194.971 69.122C193.299 69.6793 191.703 70.6673 190.183 72.086C188.663 73.454 187.042 75.5313 185.319 78.318L177.871 90.174C179.341 91.0353 180.531 92.0487 181.443 93.214C182.355 94.3287 183.267 95.4687 184.179 96.634L192.691 107.958C194.617 110.491 196.187 112.366 197.403 113.582C198.67 114.747 199.785 115.482 200.747 115.786C201.761 116.09 202.799 116.242 203.863 116.242V118.75H194.591C194.085 118.75 193.401 118.395 192.539 117.686C191.729 116.977 190.842 116.065 189.879 114.95C188.917 113.785 187.929 112.569 186.915 111.302L177.795 98.99C176.833 97.7233 175.87 96.5327 174.907 95.418C173.945 94.2527 173.007 93.3913 172.095 92.834L168.371 92.91V109.706C168.371 111.074 168.346 112.265 168.295 113.278C168.295 114.241 168.245 115.051 168.143 115.71C169.055 115.659 169.967 115.609 170.879 115.558C171.791 115.507 172.703 115.457 173.615 115.406V118.75H156.515Z" fill="black"/>
<rect x="236.25" y="83.75" width="24" height="24" rx="12" transform="rotate(180 236.25 83.75)" fill="#4D4F60" fill-opacity="0.1"/>
<path d="M224.25 76.4141L224.25 67.0794" stroke="black" stroke-width="1.5" stroke-linecap="round" stroke-linejoin="round"/>
<path d="M219.579 71.75L228.914 71.75" stroke="black" stroke-width="1.5" stroke-linecap="round" stroke-linejoin="round"/>
<path d="M82.0341 178.75V168.95H85.4921C86.1641 168.95 86.7567 169.085 87.2701 169.356C87.7834 169.627 88.1847 170.005 88.4741 170.49C88.7634 170.966 88.9081 171.521 88.9081 172.156C88.9081 172.772 88.7727 173.323 88.5021 173.808C88.2314 174.293 87.8534 174.676 87.3681 174.956C86.8921 175.227 86.3367 175.362 85.7021 175.362H83.6581V178.75H82.0341ZM83.6581 173.864H85.6741C86.1407 173.864 86.5234 173.705 86.8221 173.388C87.1207 173.071 87.2701 172.66 87.2701 172.156C87.2701 171.643 87.1021 171.227 86.7661 170.91C86.4301 170.593 85.9961 170.434 85.4641 170.434H83.6581V173.864ZM90.3466 178.75V168.95H91.9706V172.982H96.8986V168.95H98.5226V178.75H96.8986V174.466H91.9706V178.75H90.3466ZM103.283 178.75V174.634L99.7966 168.95H101.659L104.095 172.996L106.531 168.95H108.393L104.907 174.62V178.75H103.283ZM112.885 178.918C112.372 178.918 111.9 178.857 111.471 178.736C111.051 178.615 110.678 178.447 110.351 178.232C110.034 178.017 109.768 177.779 109.553 177.518C109.348 177.247 109.203 176.967 109.119 176.678L110.715 176.188C110.836 176.533 111.074 176.837 111.429 177.098C111.784 177.359 112.222 177.495 112.745 177.504C113.352 177.504 113.832 177.378 114.187 177.126C114.542 176.874 114.719 176.543 114.719 176.132C114.719 175.759 114.57 175.455 114.271 175.222C113.972 174.979 113.571 174.793 113.067 174.662L111.863 174.354C111.406 174.233 110.99 174.055 110.617 173.822C110.253 173.589 109.964 173.295 109.749 172.94C109.544 172.585 109.441 172.165 109.441 171.68C109.441 170.765 109.74 170.056 110.337 169.552C110.934 169.039 111.788 168.782 112.899 168.782C113.524 168.782 114.07 168.88 114.537 169.076C115.013 169.263 115.405 169.524 115.713 169.86C116.021 170.187 116.25 170.56 116.399 170.98L114.831 171.484C114.691 171.111 114.448 170.803 114.103 170.56C113.758 170.317 113.328 170.196 112.815 170.196C112.283 170.196 111.863 170.322 111.555 170.574C111.256 170.826 111.107 171.176 111.107 171.624C111.107 171.988 111.224 172.273 111.457 172.478C111.7 172.674 112.026 172.823 112.437 172.926L113.641 173.22C114.518 173.435 115.2 173.803 115.685 174.326C116.17 174.849 116.413 175.427 116.413 176.062C116.413 176.622 116.278 177.117 116.007 177.546C115.736 177.975 115.335 178.311 114.803 178.554C114.28 178.797 113.641 178.918 112.885 178.918ZM118.21 178.75V168.95H119.834V178.75H118.21ZM126.403 178.918C125.46 178.918 124.62 178.703 123.883 178.274C123.155 177.835 122.581 177.238 122.161 176.482C121.75 175.717 121.545 174.839 121.545 173.85C121.545 172.861 121.75 171.988 122.161 171.232C122.581 170.467 123.155 169.869 123.883 169.44C124.611 169.001 125.446 168.782 126.389 168.782C127.024 168.782 127.621 168.899 128.181 169.132C128.741 169.356 129.236 169.669 129.665 170.07C130.104 170.471 130.44 170.938 130.673 171.47L129.189 172.072C129.021 171.717 128.792 171.405 128.503 171.134C128.223 170.854 127.901 170.639 127.537 170.49C127.173 170.341 126.79 170.266 126.389 170.266C125.773 170.266 125.222 170.42 124.737 170.728C124.261 171.036 123.883 171.461 123.603 172.002C123.332 172.534 123.197 173.15 123.197 173.85C123.197 174.55 123.332 175.171 123.603 175.712C123.883 176.253 124.266 176.678 124.751 176.986C125.246 177.294 125.806 177.448 126.431 177.448C126.842 177.448 127.224 177.369 127.579 177.21C127.943 177.042 128.265 176.813 128.545 176.524C128.834 176.235 129.063 175.899 129.231 175.516L130.715 176.118C130.482 176.669 130.15 177.159 129.721 177.588C129.292 178.008 128.792 178.335 128.223 178.568C127.654 178.801 127.047 178.918 126.403 178.918ZM132.278 178.75V168.95H133.902V178.75H132.278ZM135.193 178.75L139.099 168.95H140.821L144.741 178.75H143.019L142.053 176.342H137.867L136.915 178.75H135.193ZM138.413 174.9H141.507L139.967 170.98L138.413 174.9ZM146.018 178.75V168.95H147.698L152.906 176.034V168.95H154.53V178.75H152.906L147.642 171.582V178.75H146.018ZM160.237 178.75V168.95H161.861V178.75H160.237ZM164.188 178.75V168.95H165.868L171.076 176.034V168.95H172.7V178.75H171.076L165.812 171.582V178.75H164.188ZM177.956 178.75L173.994 168.95H175.716L178.838 176.846L181.96 168.95H183.696L179.734 178.75H177.956ZM184.983 178.75V168.95H191.017V170.434H186.607V173.038H190.499V174.494H186.607V177.266H191.059V178.75H184.983ZM196.461 178.918C195.948 178.918 195.476 178.857 195.047 178.736C194.627 178.615 194.254 178.447 193.927 178.232C193.61 178.017 193.344 177.779 193.129 177.518C192.924 177.247 192.779 176.967 192.695 176.678L194.291 176.188C194.412 176.533 194.65 176.837 195.005 177.098C195.36 177.359 195.798 177.495 196.321 177.504C196.928 177.504 197.408 177.378 197.763 177.126C198.118 176.874 198.295 176.543 198.295 176.132C198.295 175.759 198.146 175.455 197.847 175.222C197.548 174.979 197.147 174.793 196.643 174.662L195.439 174.354C194.982 174.233 194.566 174.055 194.193 173.822C193.829 173.589 193.54 173.295 193.325 172.94C193.12 172.585 193.017 172.165 193.017 171.68C193.017 170.765 193.316 170.056 193.913 169.552C194.51 169.039 195.364 168.782 196.475 168.782C197.1 168.782 197.646 168.88 198.113 169.076C198.589 169.263 198.981 169.524 199.289 169.86C199.597 170.187 199.826 170.56 199.975 170.98L198.407 171.484C198.267 171.111 198.024 170.803 197.679 170.56C197.334 170.317 196.904 170.196 196.391 170.196C195.859 170.196 195.439 170.322 195.131 170.574C194.832 170.826 194.683 171.176 194.683 171.624C194.683 171.988 194.8 172.273 195.033 172.478C195.276 172.674 195.602 172.823 196.013 172.926L197.217 173.22C198.094 173.435 198.776 173.803 199.261 174.326C199.746 174.849 199.989 175.427 199.989 176.062C199.989 176.622 199.854 177.117 199.583 177.546C199.312 177.975 198.911 178.311 198.379 178.554C197.856 178.797 197.217 178.918 196.461 178.918ZM203.816 178.75V170.434H200.806V168.95H208.45V170.434H205.44V178.75H203.816ZM209.798 178.75V168.95H215.832V170.434H211.422V173.038H215.314V174.494H211.422V177.266H215.874V178.75H209.798ZM218.056 178.75V168.95H221.136C222.097 168.95 222.946 169.16 223.684 169.58C224.43 169.991 225.014 170.565 225.434 171.302C225.863 172.039 226.078 172.889 226.078 173.85C226.078 174.802 225.863 175.647 225.434 176.384C225.014 177.121 224.43 177.7 223.684 178.12C222.946 178.54 222.097 178.75 221.136 178.75H218.056ZM219.68 177.238H221.136C221.593 177.238 222.022 177.154 222.424 176.986C222.825 176.809 223.175 176.566 223.474 176.258C223.772 175.95 224.006 175.591 224.174 175.18C224.342 174.769 224.426 174.326 224.426 173.85C224.426 173.374 224.342 172.931 224.174 172.52C224.006 172.109 223.772 171.75 223.474 171.442C223.175 171.134 222.825 170.896 222.424 170.728C222.022 170.551 221.593 170.462 221.136 170.462H219.68V177.238Z" fill="black"/>
</g>
<rect x="8.75" y="238.75" width="290" height="64" rx="32" fill="#EDE7FE"/>
<rect x="16.75" y="246.75" width="48" height="48" rx="24" fill="white"/>
<path d="M40.7474 260.747C40.7474 258.906 39.255 257.414 37.4141 257.414C35.5731 257.414 34.0807 258.906 34.0807 260.747C31.8716 260.747 30.0807 262.538 30.0807 264.747C30.0807 265.506 30.2917 266.215 30.6581 266.819C28.8104 267.172 27.4141 268.797 27.4141 270.747C27.4141 272.698 28.8104 274.323 30.6581 274.676C30.2917 275.28 30.0807 275.989 30.0807 276.747C30.0807 278.957 31.8716 280.747 34.0807 280.747C34.0807 282.588 35.5731 284.081 37.4141 284.081C39.255 284.081 40.7474 282.588 40.7474 280.747" stroke="black" stroke-width="1.5" stroke-linecap="round" stroke-linejoin="round"/>
<path d="M40.75 280.747C40.75 282.588 42.2424 284.081 44.0833 284.081C45.9243 284.081 47.4167 282.588 47.4167 280.747C49.6259 280.747 51.4167 278.957 51.4167 276.747C51.4167 275.989 51.2057 275.28 50.8393 274.676C52.6869 274.323 54.0833 272.698 54.0833 270.747C54.0833 268.797 52.6869 267.172 50.8393 266.819C51.2057 266.215 51.4167 265.506 51.4167 264.747C51.4167 262.538 49.6259 260.747 47.4167 260.747C47.4167 258.906 45.9243 257.414 44.0833 257.414C42.2424 257.414 40.75 258.906 40.75 260.747" stroke="black" stroke-width="1.5" stroke-linecap="round" stroke-linejoin="round"/>
<path d="M38.7353 264.086V266.725M34.0859 268.753H36.8219M44.7834 268.753H47.5193M44.7834 272.717H47.5193M34.0859 272.717H36.8219M38.7353 274.778V277.417M42.7693 274.778V277.417M42.7549 264.086V266.725M38.1553 274.709H43.4501C44.1863 274.709 44.7834 274.112 44.7834 273.376V268.058C44.7834 267.322 44.1863 266.725 43.4501 266.725H38.1553C37.4189 266.725 36.8219 267.322 36.8219 268.058V273.376C36.8219 274.112 37.4189 274.709 38.1553 274.709Z" stroke="black" stroke-width="1.5" stroke-linecap="round"/>
<path d="M85.65 275.446C84.8753 275.446 84.194 275.292 83.606 274.984C83.0273 274.667 82.5747 274.223 82.248 273.654C81.9307 273.085 81.772 272.422 81.772 271.666V265.45H83.396V271.666C83.396 272.123 83.4893 272.525 83.676 272.87C83.872 273.206 84.1427 273.472 84.488 273.668C84.8333 273.855 85.23 273.948 85.678 273.948C86.1353 273.948 86.5367 273.855 86.882 273.668C87.2367 273.472 87.5073 273.206 87.694 272.87C87.8807 272.525 87.974 272.123 87.974 271.666V265.45H89.598V271.666C89.598 272.422 89.4347 273.085 89.108 273.654C88.7907 274.223 88.3333 274.667 87.736 274.984C87.148 275.292 86.4527 275.446 85.65 275.446ZM91.7831 275.25V265.45H93.4631L98.6711 272.534V265.45H100.295V275.25H98.6711L93.4071 268.082V275.25H91.7831ZM102.625 275.25V265.45H104.249V275.25H102.625ZM106.576 275.25V265.45H112.666V266.934H108.2V269.678H112.022V271.162H108.2V275.25H106.576ZM114.273 275.25V265.45H115.897V275.25H114.273ZM118.225 275.25V265.45H124.258V266.934H119.849V269.538H123.741V270.994H119.849V273.766H124.301V275.25H118.225ZM126.482 275.25V265.45H129.562C130.524 265.45 131.373 265.66 132.11 266.08C132.857 266.491 133.44 267.065 133.86 267.802C134.29 268.539 134.504 269.389 134.504 270.35C134.504 271.302 134.29 272.147 133.86 272.884C133.44 273.621 132.857 274.2 132.11 274.62C131.373 275.04 130.524 275.25 129.562 275.25H126.482ZM128.106 273.738H129.562C130.02 273.738 130.449 273.654 130.85 273.486C131.252 273.309 131.602 273.066 131.9 272.758C132.199 272.45 132.432 272.091 132.6 271.68C132.768 271.269 132.852 270.826 132.852 270.35C132.852 269.874 132.768 269.431 132.6 269.02C132.432 268.609 132.199 268.25 131.9 267.942C131.602 267.634 131.252 267.396 130.85 267.228C130.449 267.051 130.02 266.962 129.562 266.962H128.106V273.738ZM143.836 275.418C142.893 275.418 142.053 275.203 141.316 274.774C140.588 274.335 140.014 273.738 139.594 272.982C139.183 272.217 138.978 271.339 138.978 270.35C138.978 269.361 139.183 268.488 139.594 267.732C140.014 266.967 140.588 266.369 141.316 265.94C142.044 265.501 142.879 265.282 143.822 265.282C144.456 265.282 145.054 265.399 145.614 265.632C146.174 265.856 146.668 266.169 147.098 266.57C147.536 266.971 147.872 267.438 148.106 267.97L146.622 268.572C146.454 268.217 146.225 267.905 145.936 267.634C145.656 267.354 145.334 267.139 144.97 266.99C144.606 266.841 144.223 266.766 143.822 266.766C143.206 266.766 142.655 266.92 142.17 267.228C141.694 267.536 141.316 267.961 141.036 268.502C140.765 269.034 140.63 269.65 140.63 270.35C140.63 271.05 140.765 271.671 141.036 272.212C141.316 272.753 141.698 273.178 142.184 273.486C142.678 273.794 143.238 273.948 143.864 273.948C144.274 273.948 144.657 273.869 145.012 273.71C145.376 273.542 145.698 273.313 145.978 273.024C146.267 272.735 146.496 272.399 146.664 272.016L148.148 272.618C147.914 273.169 147.583 273.659 147.154 274.088C146.724 274.508 146.225 274.835 145.656 275.068C145.086 275.301 144.48 275.418 143.836 275.418ZM149.711 275.25V265.45H151.335V273.766H155.773V275.25H149.711ZM157.135 275.25V265.45H158.759V275.25H157.135ZM161.086 275.25V265.45H162.766L167.974 272.534V265.45H169.598V275.25H167.974L162.71 268.082V275.25H161.086ZM171.928 275.25V265.45H173.552V275.25H171.928ZM180.121 275.418C179.178 275.418 178.338 275.203 177.601 274.774C176.873 274.335 176.299 273.738 175.879 272.982C175.468 272.217 175.263 271.339 175.263 270.35C175.263 269.361 175.468 268.488 175.879 267.732C176.299 266.967 176.873 266.369 177.601 265.94C178.329 265.501 179.164 265.282 180.107 265.282C180.741 265.282 181.339 265.399 181.899 265.632C182.459 265.856 182.953 266.169 183.383 266.57C183.821 266.971 184.157 267.438 184.391 267.97L182.907 268.572C182.739 268.217 182.51 267.905 182.221 267.634C181.941 267.354 181.619 267.139 181.255 266.99C180.891 266.841 180.508 266.766 180.107 266.766C179.491 266.766 178.94 266.92 178.455 267.228C177.979 267.536 177.601 267.961 177.321 268.502C177.05 269.034 176.915 269.65 176.915 270.35C176.915 271.05 177.05 271.671 177.321 272.212C177.601 272.753 177.983 273.178 178.469 273.486C178.963 273.794 179.523 273.948 180.149 273.948C180.559 273.948 180.942 273.869 181.297 273.71C181.661 273.542 181.983 273.313 182.263 273.024C182.552 272.735 182.781 272.399 182.949 272.016L184.433 272.618C184.199 273.169 183.868 273.659 183.439 274.088C183.009 274.508 182.51 274.835 181.941 275.068C181.371 275.301 180.765 275.418 180.121 275.418ZM184.96 275.25L188.866 265.45H190.588L194.508 275.25H192.786L191.82 272.842H187.634L186.682 275.25H184.96ZM188.18 271.4H191.274L189.734 267.48L188.18 271.4ZM195.785 275.25V265.45H197.409V273.766H201.847V275.25H195.785ZM206.586 275.25V265.45H208.322L211.402 269.986L214.454 265.45H216.204V275.25H214.58V268.012L211.388 272.73L208.21 268.04V275.25H206.586ZM218.521 275.25V265.45H224.555V266.934H220.145V269.538H224.037V270.994H220.145V273.766H224.597V275.25H218.521ZM226.779 275.25V265.45H228.515L231.595 269.986L234.647 265.45H236.397V275.25H234.773V268.012L231.581 272.73L228.403 268.04V275.25H226.779ZM243.069 275.418C242.098 275.418 241.239 275.203 240.493 274.774C239.746 274.345 239.158 273.747 238.729 272.982C238.309 272.217 238.099 271.339 238.099 270.35C238.099 269.361 238.309 268.488 238.729 267.732C239.158 266.967 239.741 266.369 240.479 265.94C241.216 265.501 242.065 265.282 243.027 265.282C243.997 265.282 244.851 265.501 245.589 265.94C246.335 266.369 246.914 266.967 247.325 267.732C247.745 268.488 247.955 269.361 247.955 270.35C247.955 271.339 247.745 272.217 247.325 272.982C246.914 273.747 246.34 274.345 245.603 274.774C244.875 275.203 244.03 275.418 243.069 275.418ZM243.069 273.934C243.703 273.934 244.263 273.78 244.749 273.472C245.234 273.164 245.612 272.744 245.883 272.212C246.163 271.671 246.303 271.05 246.303 270.35C246.303 269.659 246.163 269.043 245.883 268.502C245.603 267.961 245.215 267.541 244.721 267.242C244.235 266.934 243.671 266.78 243.027 266.78C242.392 266.78 241.827 266.934 241.333 267.242C240.847 267.541 240.46 267.961 240.171 268.502C239.891 269.034 239.751 269.65 239.751 270.35C239.751 271.05 239.891 271.671 240.171 272.212C240.46 272.744 240.852 273.164 241.347 273.472C241.851 273.78 242.425 273.934 243.069 273.934ZM249.68 275.25V265.45H253.138C253.81 265.45 254.402 265.581 254.916 265.842C255.429 266.103 255.83 266.467 256.12 266.934C256.409 267.391 256.554 267.923 256.554 268.53C256.554 269.174 256.376 269.743 256.022 270.238C255.667 270.723 255.2 271.083 254.622 271.316L256.946 275.25H255.112L253.012 271.624C252.956 271.633 252.895 271.638 252.83 271.638C252.774 271.638 252.713 271.638 252.648 271.638H251.304V275.25H249.68ZM251.304 270.14H253.208C253.525 270.14 253.805 270.07 254.048 269.93C254.3 269.79 254.5 269.599 254.65 269.356C254.808 269.113 254.888 268.838 254.888 268.53C254.888 268.063 254.72 267.681 254.384 267.382C254.048 267.083 253.614 266.934 253.082 266.934H251.304V270.14ZM261.03 275.25V271.134L257.544 265.45H259.406L261.842 269.496L264.278 265.45H266.14L262.654 271.12V275.25H261.03Z" fill="black"/>
<rect x="8.75" y="318.75" width="290" height="214" rx="40" fill="#EDE7FE"/>
<foreignObject x="-31.25" y="278.75" width="370" height="294"><div xmlns="http://www.w3.org/1999/xhtml" style="backdrop-filter:blur(20px);clip-path:url(#bgblur_1_8305_595_clip_path);height:100%;width:100%"></div></foreignObject><g filter="url(#filter1_n_8305_595)" data-figma-bg-blur-radius="40">
<path d="M75.5737 428.75V426.242C77.347 426.141 78.6897 425.735 79.6017 425.026C80.5644 424.317 81.223 423.329 81.5777 422.062C81.983 420.795 82.1857 419.301 82.1857 417.578L81.9577 381.706L72.8377 387.558L71.3177 385.354L86.1377 374.334H88.7217L88.7977 420.466C88.7977 421.429 88.7724 422.366 88.7217 423.278C88.7217 424.19 88.671 425.001 88.5697 425.71C89.6337 425.659 90.6977 425.609 91.7617 425.558C92.8257 425.507 93.8897 425.457 94.9537 425.406V428.75H75.5737ZM127.045 420.466C127.045 421.479 127.02 422.442 126.969 423.354C126.969 424.266 126.893 425.102 126.741 425.862C127.755 425.811 128.743 425.786 129.705 425.786C130.668 425.735 131.631 425.685 132.593 425.634V428.75H113.517V426.242H114.049C115.772 426.09 117.064 425.609 117.925 424.798C118.787 423.987 119.369 422.898 119.673 421.53C119.977 420.162 120.129 418.541 120.129 416.666V414.082H97.0253V410.358L124.537 374.334H127.045V409.522L134.721 409.598V414.082H127.045V420.466ZM119.977 385.126L102.041 409.142L120.129 409.37V385.126H119.977ZM168.617 429.51C166.387 424.443 164.133 419.402 161.853 414.386C159.573 409.319 157.343 404.202 155.165 399.034C154.455 397.413 153.746 395.791 153.037 394.17C152.378 392.498 151.719 390.826 151.061 389.154C150.453 387.482 149.819 385.81 149.161 384.138C149.161 384.695 149.135 385.253 149.085 385.81C149.085 386.367 149.085 386.925 149.085 387.482C149.034 389.306 148.958 391.51 148.857 394.094C148.806 396.627 148.73 399.363 148.629 402.302C148.527 405.19 148.451 408.103 148.401 411.042C148.35 413.93 148.299 416.666 148.249 419.25C148.198 420.365 148.147 421.479 148.097 422.594C148.097 423.709 148.046 424.747 147.945 425.71C148.907 425.659 149.845 425.609 150.757 425.558C151.719 425.507 152.682 425.457 153.645 425.406V428.75H139.129V426.242C140.699 426.191 141.839 425.862 142.549 425.254C143.309 424.595 143.79 423.734 143.993 422.67C144.195 421.606 144.322 420.466 144.373 419.25L145.817 384.594C145.867 383.581 145.893 382.567 145.893 381.554C145.943 380.541 145.994 379.553 146.045 378.59C145.133 378.641 144.221 378.691 143.309 378.742C142.397 378.742 141.485 378.767 140.573 378.818V375.55H152.201L165.273 405.722C165.931 407.242 166.565 408.762 167.173 410.282C167.831 411.802 168.49 413.322 169.149 414.842C169.858 416.362 170.542 417.907 171.201 419.478H171.353C171.91 418.11 172.569 416.489 173.329 414.614C174.089 412.689 174.722 411.042 175.229 409.674C177.458 404.101 179.763 398.527 182.145 392.954C184.577 387.33 186.958 381.529 189.289 375.55H200.537V378.058C199.27 378.007 198.231 378.261 197.421 378.818C196.61 379.325 196.027 380.186 195.673 381.402C195.318 382.618 195.191 384.265 195.293 386.342L197.269 420.922C197.37 421.783 197.421 422.619 197.421 423.43C197.421 424.241 197.421 424.975 197.421 425.634C198.333 425.583 199.245 425.558 200.157 425.558C201.119 425.507 202.057 425.457 202.969 425.406V428.75H185.945V426.242C187.515 426.191 188.681 425.811 189.441 425.102C190.201 424.393 190.657 423.379 190.809 422.062C191.011 420.745 191.062 419.123 190.961 417.198L189.441 392.118C189.39 391.307 189.339 390.497 189.289 389.686C189.238 388.875 189.187 388.065 189.137 387.254C189.086 386.443 189.035 385.633 188.985 384.822C188.833 385.177 188.655 385.557 188.453 385.962C188.301 386.367 188.149 386.798 187.997 387.254L170.897 429.51H168.617Z" fill="black"/>
<rect x="237.75" y="393.75" width="24" height="24" rx="12" transform="rotate(180 237.75 393.75)" fill="#4D4F60" fill-opacity="0.1"/>
<path d="M225.75 386.414L225.75 377.079" stroke="black" stroke-width="1.5" stroke-linecap="round" stroke-linejoin="round"/>
<path d="M221.079 381.75L230.414 381.75" stroke="black" stroke-width="1.5" stroke-linecap="round" stroke-linejoin="round"/>
<path d="M87.9645 488.918C87.0219 488.918 86.1819 488.703 85.4445 488.274C84.7165 487.835 84.1425 487.238 83.7225 486.482C83.3119 485.717 83.1065 484.839 83.1065 483.85C83.1065 482.861 83.3119 481.988 83.7225 481.232C84.1425 480.467 84.7165 479.869 85.4445 479.44C86.1725 479.001 87.0079 478.782 87.9505 478.782C88.5852 478.782 89.1825 478.899 89.7425 479.132C90.3025 479.356 90.7972 479.669 91.2265 480.07C91.6652 480.471 92.0012 480.938 92.2345 481.47L90.7505 482.072C90.5825 481.717 90.3539 481.405 90.0645 481.134C89.7845 480.854 89.4625 480.639 89.0985 480.49C88.7345 480.341 88.3519 480.266 87.9505 480.266C87.3345 480.266 86.7839 480.42 86.2985 480.728C85.8225 481.036 85.4445 481.461 85.1645 482.002C84.8939 482.534 84.7585 483.15 84.7585 483.85C84.7585 484.55 84.8939 485.171 85.1645 485.712C85.4445 486.253 85.8272 486.678 86.3125 486.986C86.8072 487.294 87.3672 487.448 87.9925 487.448C88.4032 487.448 88.7859 487.369 89.1405 487.21C89.5045 487.042 89.8265 486.813 90.1065 486.524C90.3959 486.235 90.6245 485.899 90.7925 485.516L92.2765 486.118C92.0432 486.669 91.7119 487.159 91.2825 487.588C90.8532 488.008 90.3539 488.335 89.7845 488.568C89.2152 488.801 88.6085 488.918 87.9645 488.918ZM92.8037 488.75L96.7097 478.95H98.4317L102.352 488.75H100.63L99.6637 486.342H95.4777L94.5257 488.75H92.8037ZM96.0237 484.9H99.1177L97.5777 480.98L96.0237 484.9ZM103.629 488.75V478.95H107.087C107.759 478.95 108.351 479.081 108.865 479.342C109.378 479.603 109.779 479.967 110.069 480.434C110.358 480.891 110.503 481.423 110.503 482.03C110.503 482.674 110.325 483.243 109.971 483.738C109.616 484.223 109.149 484.583 108.571 484.816L110.895 488.75H109.061L106.961 485.124C106.905 485.133 106.844 485.138 106.779 485.138C106.723 485.138 106.662 485.138 106.597 485.138H105.253V488.75H103.629ZM105.253 483.64H107.157C107.474 483.64 107.754 483.57 107.997 483.43C108.249 483.29 108.449 483.099 108.599 482.856C108.757 482.613 108.837 482.338 108.837 482.03C108.837 481.563 108.669 481.181 108.333 480.882C107.997 480.583 107.563 480.434 107.031 480.434H105.253V483.64ZM112.543 488.75V478.95H118.577V480.434H114.167V483.038H118.059V484.494H114.167V487.266H118.619V488.75H112.543ZM124.178 488.75V478.95H125.802V488.75H124.178ZM128.129 488.75V478.95H129.809L135.017 486.034V478.95H136.641V488.75H135.017L129.753 481.582V488.75H128.129ZM141.001 488.75V480.434H137.991V478.95H145.635V480.434H142.625V488.75H141.001ZM146.982 488.75V478.95H153.016V480.434H148.606V483.038H152.498V484.494H148.606V487.266H153.058V488.75H146.982ZM155.24 488.75V478.95H158.698C159.37 478.95 159.963 479.081 160.476 479.342C160.989 479.603 161.391 479.967 161.68 480.434C161.969 480.891 162.114 481.423 162.114 482.03C162.114 482.674 161.937 483.243 161.582 483.738C161.227 484.223 160.761 484.583 160.182 484.816L162.506 488.75H160.672L158.572 485.124C158.516 485.133 158.455 485.138 158.39 485.138C158.334 485.138 158.273 485.138 158.208 485.138H156.864V488.75H155.24ZM156.864 483.64H158.768C159.085 483.64 159.365 483.57 159.608 483.43C159.86 483.29 160.061 483.099 160.21 482.856C160.369 482.613 160.448 482.338 160.448 482.03C160.448 481.563 160.28 481.181 159.944 480.882C159.608 480.583 159.174 480.434 158.642 480.434H156.864V483.64ZM163.173 488.75L167.079 478.95H168.801L172.721 488.75H170.999L170.033 486.342H165.847L164.895 488.75H163.173ZM166.393 484.9H169.487L167.947 480.98L166.393 484.9ZM177.912 488.918C176.969 488.918 176.129 488.703 175.392 488.274C174.664 487.835 174.09 487.238 173.67 486.482C173.259 485.717 173.054 484.839 173.054 483.85C173.054 482.861 173.259 481.988 173.67 481.232C174.09 480.467 174.664 479.869 175.392 479.44C176.12 479.001 176.955 478.782 177.898 478.782C178.532 478.782 179.13 478.899 179.69 479.132C180.25 479.356 180.744 479.669 181.174 480.07C181.612 480.471 181.948 480.938 182.182 481.47L180.698 482.072C180.53 481.717 180.301 481.405 180.012 481.134C179.732 480.854 179.41 480.639 179.046 480.49C178.682 480.341 178.299 480.266 177.898 480.266C177.282 480.266 176.731 480.42 176.246 480.728C175.77 481.036 175.392 481.461 175.112 482.002C174.841 482.534 174.706 483.15 174.706 483.85C174.706 484.55 174.841 485.171 175.112 485.712C175.392 486.253 175.774 486.678 176.26 486.986C176.754 487.294 177.314 487.448 177.94 487.448C178.35 487.448 178.733 487.369 179.088 487.21C179.452 487.042 179.774 486.813 180.054 486.524C180.343 486.235 180.572 485.899 180.74 485.516L182.224 486.118C181.99 486.669 181.659 487.159 181.23 487.588C180.8 488.008 180.301 488.335 179.732 488.568C179.162 488.801 178.556 488.918 177.912 488.918ZM185.817 488.75V480.434H182.807V478.95H190.451V480.434H187.441V488.75H185.817ZM191.799 488.75V478.95H193.423V488.75H191.799ZM200.104 488.918C199.133 488.918 198.275 488.703 197.528 488.274C196.781 487.845 196.193 487.247 195.764 486.482C195.344 485.717 195.134 484.839 195.134 483.85C195.134 482.861 195.344 481.988 195.764 481.232C196.193 480.467 196.777 479.869 197.514 479.44C198.251 479.001 199.101 478.782 200.062 478.782C201.033 478.782 201.887 479.001 202.624 479.44C203.371 479.869 203.949 480.467 204.36 481.232C204.78 481.988 204.99 482.861 204.99 483.85C204.99 484.839 204.78 485.717 204.36 486.482C203.949 487.247 203.375 487.845 202.638 488.274C201.91 488.703 201.065 488.918 200.104 488.918ZM200.104 487.434C200.739 487.434 201.299 487.28 201.784 486.972C202.269 486.664 202.647 486.244 202.918 485.712C203.198 485.171 203.338 484.55 203.338 483.85C203.338 483.159 203.198 482.543 202.918 482.002C202.638 481.461 202.251 481.041 201.756 480.742C201.271 480.434 200.706 480.28 200.062 480.28C199.427 480.28 198.863 480.434 198.368 480.742C197.883 481.041 197.495 481.461 197.206 482.002C196.926 482.534 196.786 483.15 196.786 483.85C196.786 484.55 196.926 485.171 197.206 485.712C197.495 486.244 197.887 486.664 198.382 486.972C198.886 487.28 199.46 487.434 200.104 487.434ZM206.715 488.75V478.95H208.395L213.603 486.034V478.95H215.227V488.75H213.603L208.339 481.582V488.75H206.715ZM220.777 488.918C220.263 488.918 219.792 488.857 219.363 488.736C218.943 488.615 218.569 488.447 218.243 488.232C217.925 488.017 217.659 487.779 217.445 487.518C217.239 487.247 217.095 486.967 217.011 486.678L218.607 486.188C218.728 486.533 218.966 486.837 219.321 487.098C219.675 487.359 220.114 487.495 220.637 487.504C221.243 487.504 221.724 487.378 222.079 487.126C222.433 486.874 222.611 486.543 222.611 486.132C222.611 485.759 222.461 485.455 222.163 485.222C221.864 484.979 221.463 484.793 220.959 484.662L219.755 484.354C219.297 484.233 218.882 484.055 218.509 483.822C218.145 483.589 217.855 483.295 217.641 482.94C217.435 482.585 217.333 482.165 217.333 481.68C217.333 480.765 217.631 480.056 218.229 479.552C218.826 479.039 219.68 478.782 220.791 478.782C221.416 478.782 221.962 478.88 222.429 479.076C222.905 479.263 223.297 479.524 223.605 479.86C223.913 480.187 224.141 480.56 224.291 480.98L222.723 481.484C222.583 481.111 222.34 480.803 221.995 480.56C221.649 480.317 221.22 480.196 220.707 480.196C220.175 480.196 219.755 480.322 219.447 480.574C219.148 480.826 218.999 481.176 218.999 481.624C218.999 481.988 219.115 482.273 219.349 482.478C219.591 482.674 219.918 482.823 220.329 482.926L221.533 483.22C222.41 483.435 223.091 483.803 223.577 484.326C224.062 484.849 224.305 485.427 224.305 486.062C224.305 486.622 224.169 487.117 223.899 487.546C223.628 487.975 223.227 488.311 222.695 488.554C222.172 488.797 221.533 488.918 220.777 488.918Z" fill="black"/>
</g>
<defs>
<filter id="filter0_n_8305_595" x="-31.25" y="-31.25" width="370" height="294" filterUnits="userSpaceOnUse" color-interpolation-filters="sRGB">
<feFlood flood-opacity="0" result="BackgroundImageFix"/>
<feBlend mode="normal" in="SourceGraphic" in2="BackgroundImageFix" result="shape"/>
<feTurbulence type="fractalNoise" baseFrequency="10 10" stitchTiles="stitch" numOctaves="3" result="noise" seed="3383" />
<feColorMatrix in="noise" type="luminanceToAlpha" result="alphaNoise" />
<feComponentTransfer in="alphaNoise" result="coloredNoise1">
<feFuncA type="discrete" tableValues="0 0 0 0 0 0 0 0 0 0 0 0 0 0 0 0 0 0 0 0 0 1 1 1 1 1 1 1 1 0 0 0 0 0 0 0 0 0 0 0 0 0 0 0 0 0 0 0 0 0 0 0 0 0 0 0 0 0 0 0 0 0 0 0 0 0 0 0 0 0 0 0 0 0 0 0 0 0 0 0 0 0 0 0 0 0 0 0 0 0 0 0 0 0 0 0 0 0 0 0 "/>
</feComponentTransfer>
<feComposite operator="in" in2="shape" in="coloredNoise1" result="noise1Clipped" />
<feFlood flood-color="rgba(0, 0, 0, 0.05)" result="color1Flood" />
<feComposite operator="in" in2="noise1Clipped" in="color1Flood" result="color1" />
<feMerge result="effect1_noise_8305_595">
<feMergeNode in="shape" />
<feMergeNode in="color1" />
</feMerge>
</filter>
<clipPath id="bgblur_0_8305_595_clip_path" transform="translate(31.25 31.25)"><rect x="8.75" y="8.75" width="290" height="214" rx="40"/>
</clipPath><filter id="filter1_n_8305_595" x="-31.25" y="278.75" width="370" height="294" filterUnits="userSpaceOnUse" color-interpolation-filters="sRGB">
<feFlood flood-opacity="0" result="BackgroundImageFix"/>
<feBlend mode="normal" in="SourceGraphic" in2="BackgroundImageFix" result="shape"/>
<feTurbulence type="fractalNoise" baseFrequency="10 10" stitchTiles="stitch" numOctaves="3" result="noise" seed="3383" />
<feColorMatrix in="noise" type="luminanceToAlpha" result="alphaNoise" />
<feComponentTransfer in="alphaNoise" result="coloredNoise1">
<feFuncA type="discrete" tableValues="0 0 0 0 0 0 0 0 0 0 0 0 0 0 0 0 0 0 0 0 0 1 1 1 1 1 1 1 1 0 0 0 0 0 0 0 0 0 0 0 0 0 0 0 0 0 0 0 0 0 0 0 0 0 0 0 0 0 0 0 0 0 0 0 0 0 0 0 0 0 0 0 0 0 0 0 0 0 0 0 0 0 0 0 0 0 0 0 0 0 0 0 0 0 0 0 0 0 0 0 "/>
</feComponentTransfer>
<feComposite operator="in" in2="shape" in="coloredNoise1" result="noise1Clipped" />
<feFlood flood-color="rgba(0, 0, 0, 0.05)" result="color1Flood" />
<feComposite operator="in" in2="noise1Clipped" in="color1Flood" result="color1" />
<feMerge result="effect1_noise_8305_595">
<feMergeNode in="shape" />
<feMergeNode in="color1" />
</feMerge>
</filter>
<clipPath id="bgblur_1_8305_595_clip_path" transform="translate(31.25 -278.75)"><rect x="8.75" y="318.75" width="290" height="214" rx="24"/>
</clipPath></defs>
</svg>
