<svg preserveAspectRatio="none" width="100%" height="100%" overflow="visible" style="display: block;" viewBox="0 0 32 32" fill="none" xmlns="http://www.w3.org/2000/svg">
<g id="bubble-chat">
<path id="Vector" d="M28.6693 15.9997C28.6693 22.9953 22.9982 28.6663 16.0026 28.6663C13.8318 28.6663 11.7885 28.1202 10.0026 27.1579C7.51163 25.8157 5.83543 27.0635 4.35716 27.2874C4.13292 27.3214 3.90959 27.2399 3.74923 27.0797C3.50582 26.8362 3.45948 26.4598 3.59394 26.1429C4.17414 24.7754 4.70687 22.1839 3.98048 19.9997C3.56234 18.7423 3.33594 17.3974 3.33594 15.9997C3.33594 9.00406 9.00699 3.33301 16.0026 3.33301C22.9982 3.33301 28.6693 9.00406 28.6693 15.9997Z" stroke="var(--stroke-0, black)" stroke-width="1.5" stroke-linecap="round" stroke-linejoin="round"/>
<path id="Vector_2" d="M16.1702 16.0003H16.0035M10.8359 16.0003H10.6693M21.5026 16.0003H21.3359M16.3369 16.0003C16.3369 16.1845 16.1877 16.3337 16.0035 16.3337C15.8195 16.3337 15.6702 16.1845 15.6702 16.0003C15.6702 15.8162 15.8195 15.667 16.0035 15.667C16.1877 15.667 16.3369 15.8162 16.3369 16.0003ZM11.0026 16.0003C11.0026 16.1845 10.8534 16.3337 10.6693 16.3337C10.4852 16.3337 10.3359 16.1845 10.3359 16.0003C10.3359 15.8162 10.4852 15.667 10.6693 15.667C10.8534 15.667 11.0026 15.8162 11.0026 16.0003ZM21.6693 16.0003C21.6693 16.1845 21.5201 16.3337 21.3359 16.3337C21.1518 16.3337 21.0026 16.1845 21.0026 16.0003C21.0026 15.8162 21.1518 15.667 21.3359 15.667C21.5201 15.667 21.6693 15.8162 21.6693 16.0003Z" stroke="var(--stroke-0, black)" stroke-width="1.5" stroke-linecap="round" stroke-linejoin="round"/>
</g>
</svg>
