<svg width="20" height="20" viewBox="0 0 20 20" fill="none" xmlns="http://www.w3.org/2000/svg">
<path d="M9.58333 18.3337C6.24422 18.3337 4.57466 18.3337 3.53733 17.1132C2.5 15.8929 2.5 13.9287 2.5 10.0003C2.5 6.07196 2.5 4.10777 3.53733 2.88738C4.57466 1.66699 6.24422 1.66699 9.58333 1.66699C12.9224 1.66699 14.592 1.66699 15.6293 2.88738C16.4643 3.86976 16.6273 5.33411 16.659 7.91699" stroke="black" stroke-linecap="round" stroke-linejoin="round"/>
<path d="M6.66406 6.66699H12.4974M6.66406 10.8337H9.16406" stroke="black" stroke-linecap="round" stroke-linejoin="round"/>
<path d="M16.3384 15.0878C17.0408 14.5765 17.4974 13.7478 17.4974 12.8125C17.4974 11.2592 16.2382 10 14.6849 10H14.4766C12.9232 10 11.6641 11.2592 11.6641 12.8125C11.6641 13.7478 12.1206 14.5765 12.8231 15.0878M16.3384 15.0878C15.8743 15.4257 15.3029 15.625 14.6849 15.625H14.4766C13.8586 15.625 13.2871 15.4257 12.8231 15.0878M16.3384 15.0878L16.8241 16.617C17.0093 17.2002 17.102 17.4919 17.0766 17.6735C17.0239 18.0514 16.7156 18.332 16.3517 18.3333C16.1769 18.334 15.9149 18.1965 15.391 17.9216C15.1663 17.8037 15.054 17.7447 14.9391 17.71C14.7049 17.6394 14.4566 17.6394 14.2224 17.71C14.1075 17.7447 13.9951 17.8037 13.7705 17.9216C13.2466 18.1965 12.9846 18.334 12.8097 18.3333C12.4458 18.332 12.1376 18.0514 12.0848 17.6735C12.0595 17.4919 12.1521 17.2002 12.3374 16.617L12.8231 15.0878" stroke="black"/>
</svg>
