<svg width="20" height="20" viewBox="0 0 20 20" fill="none" xmlns="http://www.w3.org/2000/svg">
<path d="M9.9974 3.75033C9.9974 2.59973 9.06465 1.66699 7.91406 1.66699C6.76347 1.66699 5.83073 2.59973 5.83073 3.75033C4.45002 3.75033 3.33073 4.86962 3.33073 6.25033C3.33073 6.72421 3.46258 7.1673 3.6916 7.54491C2.53679 7.76578 1.66406 8.78118 1.66406 10.0003C1.66406 11.2195 2.53679 12.2348 3.6916 12.4558C3.46258 12.8333 3.33073 13.2764 3.33073 13.7503C3.33073 15.1311 4.45002 16.2503 5.83073 16.2503C5.83073 17.4009 6.76347 18.3337 7.91406 18.3337C9.06465 18.3337 9.9974 17.4009 9.9974 16.2503" stroke="black" stroke-linecap="round" stroke-linejoin="round"/>
<path d="M10 16.2503C10 17.4009 10.9327 18.3337 12.0833 18.3337C13.2339 18.3337 14.1667 17.4009 14.1667 16.2503C15.5474 16.2503 16.6667 15.1311 16.6667 13.7503C16.6667 13.2764 16.5348 12.8333 16.3058 12.4558C17.4606 12.2348 18.3333 11.2195 18.3333 10.0003C18.3333 8.78118 17.4606 7.76578 16.3058 7.54491C16.5348 7.1673 16.6667 6.72421 16.6667 6.25033C16.6667 4.86962 15.5474 3.75033 14.1667 3.75033C14.1667 2.59973 13.2339 1.66699 12.0833 1.66699C10.9327 1.66699 10 2.59973 10 3.75033" stroke="black" stroke-linecap="round" stroke-linejoin="round"/>
<path d="M8.74177 5.83398V7.48317M5.83594 8.75094H7.54592M12.5219 8.75094H14.2318M12.5219 11.2287H14.2318M5.83594 11.2287H7.54592M8.74177 12.5167V14.1659M11.263 12.5167V14.1659M11.254 5.83398V7.48317M8.37927 12.4736H11.6885C12.1487 12.4736 12.5219 12.1005 12.5219 11.6403V8.3165C12.5219 7.85627 12.1487 7.48317 11.6885 7.48317H8.37927C7.91901 7.48317 7.54592 7.85627 7.54592 8.3165V11.6403C7.54592 12.1005 7.91901 12.4736 8.37927 12.4736Z" stroke="black" stroke-linecap="round"/>
</svg>
