<svg preserveAspectRatio="none" width="100%" height="100%" overflow="visible" style="display: block;" viewBox="0 0 82 8" fill="none" xmlns="http://www.w3.org/2000/svg">
<path id="Vector 5736" d="M4.00513 4.75C4.41935 4.75 4.75513 4.41421 4.75513 4C4.75513 3.58579 4.41935 3.25 4.00513 3.25V4V4.75ZM12.2171 3.25C11.8029 3.25 11.4671 3.58579 11.4671 4C11.4671 4.41421 11.8029 4.75 12.2171 4.75V4V3.25ZM12.2274 4.75C12.6416 4.75 12.9774 4.41421 12.9774 4C12.9774 3.58579 12.6416 3.25 12.2274 3.25V4V4.75ZM20.4393 3.25C20.0251 3.25 19.6893 3.58579 19.6893 4C19.6893 4.41421 20.0251 4.75 20.4393 4.75V4V3.25ZM20.4496 4.75C20.8638 4.75 21.1996 4.41421 21.1996 4C21.1996 3.58579 20.8638 3.25 20.4496 3.25V4V4.75ZM28.6615 3.25C28.2473 3.25 27.9115 3.58579 27.9115 4C27.9115 4.41421 28.2473 4.75 28.6615 4.75V4V3.25ZM28.6718 4.75C29.086 4.75 29.4218 4.41421 29.4218 4C29.4218 3.58579 29.086 3.25 28.6718 3.25V4V4.75ZM36.8838 3.25C36.4695 3.25 36.1338 3.58579 36.1338 4C36.1338 4.41421 36.4695 4.75 36.8838 4.75V4V3.25ZM36.894 4.75C37.3082 4.75 37.644 4.41421 37.644 4C37.644 3.58579 37.3082 3.25 36.894 3.25V4V4.75ZM45.106 3.25C44.6918 3.25 44.356 3.58579 44.356 4C44.356 4.41421 44.6918 4.75 45.106 4.75V4V3.25ZM45.1162 4.75C45.5305 4.75 45.8662 4.41421 45.8662 4C45.8662 3.58579 45.5305 3.25 45.1162 3.25V4V4.75ZM53.3282 3.25C52.914 3.25 52.5782 3.58579 52.5782 4C52.5782 4.41421 52.914 4.75 53.3282 4.75V4V3.25ZM53.3385 4.75C53.7527 4.75 54.0885 4.41421 54.0885 4C54.0885 3.58579 53.7527 3.25 53.3385 3.25V4V4.75ZM61.5504 3.25C61.1362 3.25 60.8004 3.58579 60.8004 4C60.8004 4.41421 61.1362 4.75 61.5504 4.75V4V3.25ZM61.5607 4.75C61.9749 4.75 62.3107 4.41421 62.3107 4C62.3107 3.58579 61.9749 3.25 61.5607 3.25V4V4.75ZM69.7726 3.25C69.3584 3.25 69.0226 3.58579 69.0226 4C69.0226 4.41421 69.3584 4.75 69.7726 4.75V4V3.25ZM69.7829 4.75C70.1971 4.75 70.5329 4.41421 70.5329 4C70.5329 3.58579 70.1971 3.25 69.7829 3.25V4V4.75ZM77.9949 3.25C77.5807 3.25 77.2449 3.58579 77.2449 4C77.2449 4.41421 77.5807 4.75 77.9949 4.75V4V3.25ZM4 4V4.75H4.00513V4V3.25H4V4ZM12.2171 4V4.75H12.2274V4V3.25H12.2171V4ZM20.4393 4V4.75H20.4496V4V3.25H20.4393V4ZM28.6615 4V4.75H28.6718V4V3.25H28.6615V4ZM36.8838 4V4.75H36.894V4V3.25H36.8838V4ZM45.106 4V4.75H45.1162V4V3.25H45.106V4ZM53.3282 4V4.75H53.3385V4V3.25H53.3282V4ZM61.5504 4V4.75H61.5607V4V3.25H61.5504V4ZM69.7726 4V4.75H69.7829V4V3.25H69.7726V4ZM77.9949 4V4.75H78V4V3.25H77.9949V4Z" fill="url(#paint0_linear_8307_461)"/>
<defs>
<linearGradient id="paint0_linear_8307_461" x1="4" y1="4.5" x2="78" y2="4.5" gradientUnits="userSpaceOnUse">
<stop/>
<stop offset="1" stop-opacity="0"/>
</linearGradient>
</defs>
</svg>
