<svg preserveAspectRatio="none" width="100%" height="100%" overflow="visible" style="display: block;" viewBox="0 0 120.75 8" fill="none" xmlns="http://www.w3.org/2000/svg">
<path id="Vector 5734" d="M120 4.75C120.414 4.75 120.75 4.41421 120.75 4C120.75 3.58579 120.414 3.25 120 3.25V4V4.75ZM4.00517 4.75C4.41939 4.75 4.75517 4.41421 4.75517 4C4.75517 3.58579 4.41939 3.25 4.00517 3.25V4V4.75ZM12.2805 3.25C11.8663 3.25 11.5305 3.58579 11.5305 4C11.5305 4.41421 11.8663 4.75 12.2805 4.75V4V3.25ZM12.2909 4.75C12.7051 4.75 13.0409 4.41421 13.0409 4C13.0409 3.58579 12.7051 3.25 12.2909 3.25V4V4.75ZM20.5663 3.25C20.152 3.25 19.8163 3.58579 19.8163 4C19.8163 4.41421 20.152 4.75 20.5663 4.75V4V3.25ZM20.5766 4.75C20.9908 4.75 21.3266 4.41421 21.3266 4C21.3266 3.58579 20.9908 3.25 20.5766 3.25V4V4.75ZM28.852 3.25C28.4378 3.25 28.102 3.58579 28.102 4C28.102 4.41421 28.4378 4.75 28.852 4.75V4V3.25ZM28.8623 4.75C29.2765 4.75 29.6123 4.41421 29.6123 4C29.6123 3.58579 29.2765 3.25 28.8623 3.25V4V4.75ZM37.1377 3.25C36.7235 3.25 36.3877 3.58579 36.3877 4C36.3877 4.41421 36.7235 4.75 37.1377 4.75V4V3.25ZM37.148 4.75C37.5622 4.75 37.898 4.41421 37.898 4C37.898 3.58579 37.5622 3.25 37.148 3.25V4V4.75ZM45.4234 3.25C45.0092 3.25 44.6734 3.58579 44.6734 4C44.6734 4.41421 45.0092 4.75 45.4234 4.75V4V3.25ZM45.4337 4.75C45.8479 4.75 46.1837 4.41421 46.1837 4C46.1837 3.58579 45.8479 3.25 45.4337 3.25V4V4.75ZM53.7091 3.25C53.2949 3.25 52.9591 3.58579 52.9591 4C52.9591 4.41421 53.2949 4.75 53.7091 4.75V4V3.25ZM53.7195 4.75C54.1337 4.75 54.4695 4.41421 54.4695 4C54.4695 3.58579 54.1337 3.25 53.7195 3.25V4V4.75ZM61.9948 3.25C61.5806 3.25 61.2448 3.58579 61.2448 4C61.2448 4.41421 61.5806 4.75 61.9948 4.75V4V3.25ZM62.0052 4.75C62.4194 4.75 62.7552 4.41421 62.7552 4C62.7552 3.58579 62.4194 3.25 62.0052 3.25V4V4.75ZM70.2805 3.25C69.8663 3.25 69.5305 3.58579 69.5305 4C69.5305 4.41421 69.8663 4.75 70.2805 4.75V4V3.25ZM70.2909 4.75C70.7051 4.75 71.0409 4.41421 71.0409 4C71.0409 3.58579 70.7051 3.25 70.2909 3.25V4V4.75ZM78.5662 3.25C78.152 3.25 77.8162 3.58579 77.8162 4C77.8162 4.41421 78.152 4.75 78.5662 4.75V4V3.25ZM78.5766 4.75C78.9908 4.75 79.3266 4.41421 79.3266 4C79.3266 3.58579 78.9908 3.25 78.5766 3.25V4V4.75ZM86.852 3.25C86.4377 3.25 86.102 3.58579 86.102 4C86.102 4.41421 86.4377 4.75 86.852 4.75V4V3.25ZM86.8623 4.75C87.2765 4.75 87.6123 4.41421 87.6123 4C87.6123 3.58579 87.2765 3.25 86.8623 3.25V4V4.75ZM95.1377 3.25C94.7235 3.25 94.3877 3.58579 94.3877 4C94.3877 4.41421 94.7235 4.75 95.1377 4.75V4V3.25ZM95.148 4.75C95.5622 4.75 95.898 4.41421 95.898 4C95.898 3.58579 95.5622 3.25 95.148 3.25V4V4.75ZM103.423 3.25C103.009 3.25 102.673 3.58579 102.673 4C102.673 4.41421 103.009 4.75 103.423 4.75V4V3.25ZM103.434 4.75C103.848 4.75 104.184 4.41421 104.184 4C104.184 3.58579 103.848 3.25 103.434 3.25V4V4.75ZM111.709 3.25C111.295 3.25 110.959 3.58579 110.959 4C110.959 4.41421 111.295 4.75 111.709 4.75V4V3.25ZM111.719 4.75C112.134 4.75 112.469 4.41421 112.469 4C112.469 3.58579 112.134 3.25 111.719 3.25V4V4.75ZM119.995 3.25C119.581 3.25 119.245 3.58579 119.245 4C119.245 4.41421 119.581 4.75 119.995 4.75V4V3.25ZM4 4V4.75H4.00517V4V3.25H4V4ZM12.2805 4V4.75H12.2909V4V3.25H12.2805V4ZM20.5663 4V4.75H20.5766V4V3.25H20.5663V4ZM28.852 4V4.75H28.8623V4V3.25H28.852V4ZM37.1377 4V4.75H37.148V4V3.25H37.1377V4ZM45.4234 4V4.75H45.4337V4V3.25H45.4234V4ZM53.7091 4V4.75H53.7195V4V3.25H53.7091V4ZM61.9948 4V4.75H62.0052V4V3.25H61.9948V4ZM70.2805 4V4.75H70.2909V4V3.25H70.2805V4ZM78.5662 4V4.75H78.5766V4V3.25H78.5662V4ZM86.852 4V4.75H86.8623V4V3.25H86.852V4ZM95.1377 4V4.75H95.148V4V3.25H95.1377V4ZM103.423 4V4.75H103.434V4V3.25H103.423V4ZM111.709 4V4.75H111.719V4V3.25H111.709V4ZM119.995 4V4.75H120V4V3.25H119.995V4Z" fill="var(--stroke-0, black)"/>
</svg>
