<svg preserveAspectRatio="none" width="100%" height="100%" overflow="visible" style="display: block;" viewBox="0 0 100 75" fill="none" xmlns="http://www.w3.org/2000/svg">
<g id="Image">
<rect width="100" height="75" rx="24" fill="var(--fill-0, black)"/>
<path id="Vector" fill-rule="evenodd" clip-rule="evenodd" d="M95.5 55.4275V19H5.5V55.4275H95.5Z" fill="var(--fill-0, black)"/>
<path id="Vector_2" fill-rule="evenodd" clip-rule="evenodd" d="M14.3029 22.5114H24.0855L30.0944 42.8447H30.1774L34.2936 22.5114H41.6878L35.4745 51.8335H25.7247L19.5944 31.5443H19.5114L15.4341 51.8335H8.03996L14.3029 22.5114ZM44.5842 22.5114H52.4357L50.1297 33.7294H59.4099L61.7226 22.5114H69.574L63.4832 51.8335H55.6317L58.2352 39.2749H48.9488L46.3448 51.8335H38.4923L44.5842 22.5114ZM90.2392 29.1497C88.727 28.4379 86.6683 27.809 83.7719 27.809C80.6655 27.809 78.144 28.2674 78.144 30.623C78.144 34.7776 89.5274 33.227 89.5274 42.1334C89.5274 50.2389 82.0057 52.3405 75.2025 52.3405C72.1791 52.3405 68.6912 51.6236 66.1317 50.8232L67.9799 44.8593C69.53 45.8697 72.642 46.5415 75.2025 46.5415C77.6421 46.5415 81.4598 46.0786 81.4598 43.0547C81.4598 38.348 70.0764 40.1132 70.0764 31.8423C70.0764 24.2776 76.7147 22.0095 83.1431 22.0095C86.7569 22.0095 90.1562 22.39 92.1319 23.3113L90.2392 29.1497Z" fill="var(--fill-0, white)"/>
</g>
</svg>
