<svg preserveAspectRatio="none" width="100%" height="100%" overflow="visible" style="display: block;" viewBox="0 0 65 26.3086" fill="none" xmlns="http://www.w3.org/2000/svg">
<g id="Group 2117761358">
<path id="Subtract" d="M65 0V26.3086H0V0H65ZM56.0742 2.17578C51.4316 2.17587 46.6377 3.8141 46.6377 9.27734C46.6377 15.2506 54.8592 13.9759 54.8594 17.375C54.8594 19.5589 52.1018 19.8935 50.3398 19.8936C48.4906 19.8936 46.2426 19.4084 45.123 18.6787L43.7891 22.9854C45.6375 23.5634 48.1564 24.082 50.3398 24.082C55.2532 24.082 60.6854 22.5637 60.6855 16.71C60.6855 10.2776 52.4639 11.3971 52.4639 8.39648C52.464 6.69547 54.2851 6.3643 56.5283 6.36426C58.6201 6.36426 60.1071 6.81895 61.1992 7.33301L62.5664 3.11621C61.1395 2.45087 58.6842 2.17578 56.0742 2.17578ZM6.35645 2.53809L1.83301 23.7158H7.17383L10.1182 9.0625H10.1787L14.6055 23.7158H21.6475L26.1348 2.53809H20.7949L17.8213 17.2236H17.7617L13.4219 2.53809H6.35645ZM28.2266 2.53809L23.8271 23.7158H29.498L31.3789 14.6455H38.0859L36.2051 23.7158H41.876L46.2744 2.53809H40.6045L38.9336 10.6406H32.2314L33.8975 2.53809H28.2266Z" fill="var(--fill-0, black)"/>
</g>
</svg>
