<svg width="362.002" height="267.557" viewBox="55.248 155.998 362.002 267.557" fill="none" xmlns="http://www.w3.org/2000/svg">
<defs>
<linearGradient id="paint0_linear_8314_376" x1="153.969" y1="315.5" x2="153.969" y2="366.955" gradientUnits="userSpaceOnUse">
<stop stop-color="#BFC0CC" stop-opacity="0.05"/>
<stop offset="1" stop-color="#CCFF33"/>
</linearGradient>
<linearGradient id="paint1_linear_8314_376" x1="228.016" y1="341.227" x2="228.016" y2="444.133" gradientUnits="userSpaceOnUse">
<stop stop-color="#BFC0CC" stop-opacity="0.05"/>
<stop offset="1" stop-color="#CCFF33"/>
</linearGradient>
<linearGradient id="paint2_linear_8314_376" x1="302.063" y1="366.953" x2="302.063" y2="521.313" gradientUnits="userSpaceOnUse">
<stop stop-color="#BFC0CC" stop-opacity="0.05"/>
<stop offset="1" stop-color="#CCFF33"/>
</linearGradient>
<linearGradient id="paint3_linear_8314_376" x1="376.11" y1="392.68" x2="376.11" y2="598.493" gradientUnits="userSpaceOnUse">
<stop stop-color="#BFC0CC" stop-opacity="0.05"/>
<stop offset="1" stop-color="#CCFF33"/>
</linearGradient>
<linearGradient id="paint4_linear_8314_376" x1="450.157" y1="423.555" x2="450.157" y2="691.112" gradientUnits="userSpaceOnUse">
<stop stop-color="#BFC0CC" stop-opacity="0.05"/>
<stop offset="1" stop-color="#CCFF33"/>
</linearGradient>
</defs>
<rect x="121.062" y="315.5" width="65.814" height="51.455" rx="25.7275" transform="rotate(180 121.062 315.5)" fill="url(#paint0_linear_8314_376)"/>
<rect x="195.109" y="341.227" width="65.814" height="102.907" rx="32.907" transform="rotate(180 195.109 341.227)" fill="url(#paint1_linear_8314_376)"/>
<rect x="269.156" y="366.953" width="65.814" height="154.36" rx="32.907" transform="rotate(180 269.156 366.953)" fill="url(#paint2_linear_8314_376)"/>
<rect x="343.203" y="392.68" width="65.814" height="205.813" rx="32.907" transform="rotate(180 343.203 392.68)" fill="url(#paint3_linear_8314_376)"/>
<rect x="417.25" y="423.555" width="65.814" height="267.557" rx="32.907" transform="rotate(180 417.25 423.555)" fill="url(#paint4_linear_8314_376)"/>
<path d="M385.047 175.03C385.875 175.03 386.547 174.354 386.547 173.519C386.547 172.684 385.875 172.008 385.047 172.008C384.218 172.008 383.547 172.684 383.547 173.519C383.547 174.354 384.218 175.03 385.047 175.03Z" fill="#85889C"/>
<path d="M368.758 191.444C369.586 191.444 370.258 190.768 370.258 189.933C370.258 189.098 369.586 188.422 368.758 188.422C367.929 188.422 367.258 189.098 367.258 189.933C367.258 190.768 367.929 191.444 368.758 191.444Z" fill="#85889C"/>
<path d="M385.047 191.444C385.875 191.444 386.547 190.768 386.547 189.933C386.547 189.098 385.875 188.422 385.047 188.422C384.218 188.422 383.547 189.098 383.547 189.933C383.547 190.768 384.218 191.444 385.047 191.444Z" fill="#85889C"/>
<path d="M401.336 191.444C402.164 191.444 402.836 190.768 402.836 189.933C402.836 189.098 402.164 188.422 401.336 188.422C400.508 188.422 399.836 189.098 399.836 189.933C399.836 190.768 400.508 191.444 401.336 191.444Z" fill="#85889C"/>
<path d="M368.758 207.851C369.586 207.851 370.258 207.174 370.258 206.339C370.258 205.505 369.586 204.828 368.758 204.828C367.929 204.828 367.258 205.505 367.258 206.339C367.258 207.174 367.929 207.851 368.758 207.851Z" fill="#85889C"/>
<path d="M385.047 207.851C385.875 207.851 386.547 207.174 386.547 206.339C386.547 205.505 385.875 204.828 385.047 204.828C384.218 204.828 383.547 205.505 383.547 206.339C383.547 207.174 384.218 207.851 385.047 207.851Z" fill="#85889C"/>
<path d="M401.336 207.851C402.164 207.851 402.836 207.174 402.836 206.339C402.836 205.505 402.164 204.828 401.336 204.828C400.508 204.828 399.836 205.505 399.836 206.339C399.836 207.174 400.508 207.851 401.336 207.851Z" fill="#85889C"/>
<path d="M368.758 224.265C369.586 224.265 370.258 223.588 370.258 222.753C370.258 221.919 369.586 221.242 368.758 221.242C367.929 221.242 367.258 221.919 367.258 222.753C367.258 223.588 367.929 224.265 368.758 224.265Z" fill="#85889C"/>
<path d="M385.047 224.265C385.875 224.265 386.547 223.588 386.547 222.753C386.547 221.919 385.875 221.242 385.047 221.242C384.218 221.242 383.547 221.919 383.547 222.753C383.547 223.588 384.218 224.265 385.047 224.265Z" fill="#85889C"/>
<path d="M401.336 224.265C402.164 224.265 402.836 223.588 402.836 222.753C402.836 221.919 402.164 221.242 401.336 221.242C400.508 221.242 399.836 221.919 399.836 222.753C399.836 223.588 400.508 224.265 401.336 224.265Z" fill="#85889C"/>
<path d="M368.758 240.679C369.586 240.679 370.258 240.002 370.258 239.167C370.258 238.333 369.586 237.656 368.758 237.656C367.929 237.656 367.258 238.333 367.258 239.167C367.258 240.002 367.929 240.679 368.758 240.679Z" fill="#85889C"/>
<path d="M385.047 240.679C385.875 240.679 386.547 240.002 386.547 239.167C386.547 238.333 385.875 237.656 385.047 237.656C384.218 237.656 383.547 238.333 383.547 239.167C383.547 240.002 384.218 240.679 385.047 240.679Z" fill="#85889C"/>
<path d="M401.336 240.679C402.164 240.679 402.836 240.002 402.836 239.167C402.836 238.333 402.164 237.656 401.336 237.656C400.508 237.656 399.836 238.333 399.836 239.167C399.836 240.002 400.508 240.679 401.336 240.679Z" fill="#85889C"/>
<path d="M368.758 257.093C369.586 257.093 370.258 256.416 370.258 255.582C370.258 254.747 369.586 254.07 368.758 254.07C367.929 254.07 367.258 254.747 367.258 255.582C367.258 256.416 367.929 257.093 368.758 257.093Z" fill="#85889C"/>
<path d="M385.047 257.093C385.875 257.093 386.547 256.416 386.547 255.582C386.547 254.747 385.875 254.07 385.047 254.07C384.218 254.07 383.547 254.747 383.547 255.582C383.547 256.416 384.218 257.093 385.047 257.093Z" fill="#85889C"/>
<path d="M401.336 257.093C402.164 257.093 402.836 256.416 402.836 255.582C402.836 254.747 402.164 254.07 401.336 254.07C400.508 254.07 399.836 254.747 399.836 255.582C399.836 256.416 400.508 257.093 401.336 257.093Z" fill="#85889C"/>
<path d="M368.758 273.499C369.586 273.499 370.258 272.822 370.258 271.988C370.258 271.153 369.586 270.477 368.758 270.477C367.929 270.477 367.258 271.153 367.258 271.988C367.258 272.822 367.929 273.499 368.758 273.499Z" fill="#85889C"/>
<path d="M385.047 273.499C385.875 273.499 386.547 272.822 386.547 271.988C386.547 271.153 385.875 270.477 385.047 270.477C384.218 270.477 383.547 271.153 383.547 271.988C383.547 272.822 384.218 273.499 385.047 273.499Z" fill="#85889C"/>
<path d="M401.336 273.499C402.164 273.499 402.836 272.822 402.836 271.988C402.836 271.153 402.164 270.477 401.336 270.477C400.508 270.477 399.836 271.153 399.836 271.988C399.836 272.822 400.508 273.499 401.336 273.499Z" fill="#85889C"/>
<path d="M368.758 289.913C369.586 289.913 370.258 289.236 370.258 288.402C370.258 287.567 369.586 286.891 368.758 286.891C367.929 286.891 367.258 287.567 367.258 288.402C367.258 289.236 367.929 289.913 368.758 289.913Z" fill="#85889C"/>
<path d="M385.047 289.913C385.875 289.913 386.547 289.236 386.547 288.402C386.547 287.567 385.875 286.891 385.047 286.891C384.218 286.891 383.547 287.567 383.547 288.402C383.547 289.236 384.218 289.913 385.047 289.913Z" fill="#85889C"/>
<path d="M401.336 289.913C402.164 289.913 402.836 289.236 402.836 288.402C402.836 287.567 402.164 286.891 401.336 286.891C400.508 286.891 399.836 287.567 399.836 288.402C399.836 289.236 400.508 289.913 401.336 289.913Z" fill="#85889C"/>
<path d="M368.758 306.327C369.586 306.327 370.258 305.65 370.258 304.816C370.258 303.981 369.586 303.305 368.758 303.305C367.929 303.305 367.258 303.981 367.258 304.816C367.258 305.65 367.929 306.327 368.758 306.327Z" fill="#85889C"/>
<path d="M385.047 306.327C385.875 306.327 386.547 305.65 386.547 304.816C386.547 303.981 385.875 303.305 385.047 303.305C384.218 303.305 383.547 303.981 383.547 304.816C383.547 305.65 384.218 306.327 385.047 306.327Z" fill="#85889C"/>
<path d="M401.336 306.327C402.164 306.327 402.836 305.65 402.836 304.816C402.836 303.981 402.164 303.305 401.336 303.305C400.508 303.305 399.836 303.981 399.836 304.816C399.836 305.65 400.508 306.327 401.336 306.327Z" fill="#85889C"/>
<path d="M368.758 322.733C369.586 322.733 370.258 322.057 370.258 321.222C370.258 320.388 369.586 319.711 368.758 319.711C367.929 319.711 367.258 320.388 367.258 321.222C367.258 322.057 367.929 322.733 368.758 322.733Z" fill="#85889C"/>
<path d="M385.047 322.733C385.875 322.733 386.547 322.057 386.547 321.222C386.547 320.388 385.875 319.711 385.047 319.711C384.218 319.711 383.547 320.388 383.547 321.222C383.547 322.057 384.218 322.733 385.047 322.733Z" fill="#85889C"/>
<path d="M401.336 322.733C402.164 322.733 402.836 322.057 402.836 321.222C402.836 320.388 402.164 319.711 401.336 319.711C400.508 319.711 399.836 320.388 399.836 321.222C399.836 322.057 400.508 322.733 401.336 322.733Z" fill="#85889C"/>
<path d="M368.758 339.147C369.586 339.147 370.258 338.471 370.258 337.636C370.258 336.802 369.586 336.125 368.758 336.125C367.929 336.125 367.258 336.802 367.258 337.636C367.258 338.471 367.929 339.147 368.758 339.147Z" fill="#85889C"/>
<path d="M385.047 339.147C385.875 339.147 386.547 338.471 386.547 337.636C386.547 336.802 385.875 336.125 385.047 336.125C384.218 336.125 383.547 336.802 383.547 337.636C383.547 338.471 384.218 339.147 385.047 339.147Z" fill="#85889C"/>
<path d="M401.336 339.147C402.164 339.147 402.836 338.471 402.836 337.636C402.836 336.802 402.164 336.125 401.336 336.125C400.508 336.125 399.836 336.802 399.836 337.636C399.836 338.471 400.508 339.147 401.336 339.147Z" fill="#85889C"/>
<path d="M368.758 355.561C369.586 355.561 370.258 354.885 370.258 354.05C370.258 353.216 369.586 352.539 368.758 352.539C367.929 352.539 367.258 353.216 367.258 354.05C367.258 354.885 367.929 355.561 368.758 355.561Z" fill="#85889C"/>
<path d="M385.047 355.561C385.875 355.561 386.547 354.885 386.547 354.05C386.547 353.216 385.875 352.539 385.047 352.539C384.218 352.539 383.547 353.216 383.547 354.05C383.547 354.885 384.218 355.561 385.047 355.561Z" fill="#85889C"/>
<path d="M401.336 355.561C402.164 355.561 402.836 354.885 402.836 354.05C402.836 353.216 402.164 352.539 401.336 352.539C400.508 352.539 399.836 353.216 399.836 354.05C399.836 354.885 400.508 355.561 401.336 355.561Z" fill="#85889C"/>
<path d="M368.758 371.968C369.586 371.968 370.258 371.291 370.258 370.457C370.258 369.622 369.586 368.945 368.758 368.945C367.929 368.945 367.258 369.622 367.258 370.457C367.258 371.291 367.929 371.968 368.758 371.968Z" fill="#85889C"/>
<path d="M368.758 388.796C369.586 388.796 370.258 388.119 370.258 387.285C370.258 386.45 369.586 385.773 368.758 385.773C367.929 385.773 367.258 386.45 367.258 387.285C367.258 388.119 367.929 388.796 368.758 388.796Z" fill="#85889C"/>
<path d="M385.047 371.968C385.875 371.968 386.547 371.291 386.547 370.457C386.547 369.622 385.875 368.945 385.047 368.945C384.218 368.945 383.547 369.622 383.547 370.457C383.547 371.291 384.218 371.968 385.047 371.968Z" fill="#85889C"/>
<path d="M401.336 371.968C402.164 371.968 402.836 371.291 402.836 370.457C402.836 369.622 402.164 368.945 401.336 368.945C400.508 368.945 399.836 369.622 399.836 370.457C399.836 371.291 400.508 371.968 401.336 371.968Z" fill="#85889C"/>
<path d="M401.336 388.796C402.164 388.796 402.836 388.119 402.836 387.285C402.836 386.45 402.164 385.773 401.336 385.773C400.508 385.773 399.836 386.45 399.836 387.285C399.836 388.119 400.508 388.796 401.336 388.796Z" fill="#85889C"/>
<path d="M385.047 388.796C385.875 388.796 386.547 388.119 386.547 387.285C386.547 386.45 385.875 385.773 385.047 385.773C384.218 385.773 383.547 386.45 383.547 387.285C383.547 388.119 384.218 388.796 385.047 388.796Z" fill="#85889C"/>
<path d="M385.047 406.015C385.875 406.015 386.547 405.338 386.547 404.503C386.547 403.669 385.875 402.992 385.047 402.992C384.218 402.992 383.547 403.669 383.547 404.503C383.547 405.338 384.218 406.015 385.047 406.015Z" fill="#85889C"/>
<path d="M311.031 206.03C311.86 206.03 312.531 205.354 312.531 204.519C312.531 203.684 311.86 203.008 311.031 203.008C310.203 203.008 309.531 203.684 309.531 204.519C309.531 205.354 310.203 206.03 311.031 206.03Z" fill="#85889C"/>
<path d="M294.742 222.444C295.571 222.444 296.242 221.768 296.242 220.933C296.242 220.098 295.571 219.422 294.742 219.422C293.914 219.422 293.242 220.098 293.242 220.933C293.242 221.768 293.914 222.444 294.742 222.444Z" fill="#85889C"/>
<path d="M311.031 222.444C311.86 222.444 312.531 221.768 312.531 220.933C312.531 220.098 311.86 219.422 311.031 219.422C310.203 219.422 309.531 220.098 309.531 220.933C309.531 221.768 310.203 222.444 311.031 222.444Z" fill="#85889C"/>
<path d="M327.32 222.444C328.149 222.444 328.82 221.768 328.82 220.933C328.82 220.098 328.149 219.422 327.32 219.422C326.492 219.422 325.82 220.098 325.82 220.933C325.82 221.768 326.492 222.444 327.32 222.444Z" fill="#85889C"/>
<path d="M294.742 238.851C295.571 238.851 296.242 238.174 296.242 237.339C296.242 236.505 295.571 235.828 294.742 235.828C293.914 235.828 293.242 236.505 293.242 237.339C293.242 238.174 293.914 238.851 294.742 238.851Z" fill="#85889C"/>
<path d="M311.031 238.851C311.86 238.851 312.531 238.174 312.531 237.339C312.531 236.505 311.86 235.828 311.031 235.828C310.203 235.828 309.531 236.505 309.531 237.339C309.531 238.174 310.203 238.851 311.031 238.851Z" fill="#85889C"/>
<path d="M327.32 238.851C328.149 238.851 328.82 238.174 328.82 237.339C328.82 236.505 328.149 235.828 327.32 235.828C326.492 235.828 325.82 236.505 325.82 237.339C325.82 238.174 326.492 238.851 327.32 238.851Z" fill="#85889C"/>
<path d="M294.742 255.265C295.571 255.265 296.242 254.588 296.242 253.753C296.242 252.919 295.571 252.242 294.742 252.242C293.914 252.242 293.242 252.919 293.242 253.753C293.242 254.588 293.914 255.265 294.742 255.265Z" fill="#85889C"/>
<path d="M311.031 255.265C311.86 255.265 312.531 254.588 312.531 253.753C312.531 252.919 311.86 252.242 311.031 252.242C310.203 252.242 309.531 252.919 309.531 253.753C309.531 254.588 310.203 255.265 311.031 255.265Z" fill="#85889C"/>
<path d="M327.32 255.265C328.149 255.265 328.82 254.588 328.82 253.753C328.82 252.919 328.149 252.242 327.32 252.242C326.492 252.242 325.82 252.919 325.82 253.753C325.82 254.588 326.492 255.265 327.32 255.265Z" fill="#85889C"/>
<path d="M294.742 271.679C295.571 271.679 296.242 271.002 296.242 270.167C296.242 269.333 295.571 268.656 294.742 268.656C293.914 268.656 293.242 269.333 293.242 270.167C293.242 271.002 293.914 271.679 294.742 271.679Z" fill="#85889C"/>
<path d="M311.031 271.679C311.86 271.679 312.531 271.002 312.531 270.167C312.531 269.333 311.86 268.656 311.031 268.656C310.203 268.656 309.531 269.333 309.531 270.167C309.531 271.002 310.203 271.679 311.031 271.679Z" fill="#85889C"/>
<path d="M327.32 271.679C328.149 271.679 328.82 271.002 328.82 270.167C328.82 269.333 328.149 268.656 327.32 268.656C326.492 268.656 325.82 269.333 325.82 270.167C325.82 271.002 326.492 271.679 327.32 271.679Z" fill="#85889C"/>
<path d="M294.742 288.093C295.571 288.093 296.242 287.416 296.242 286.582C296.242 285.747 295.571 285.07 294.742 285.07C293.914 285.07 293.242 285.747 293.242 286.582C293.242 287.416 293.914 288.093 294.742 288.093Z" fill="#85889C"/>
<path d="M311.031 288.093C311.86 288.093 312.531 287.416 312.531 286.582C312.531 285.747 311.86 285.07 311.031 285.07C310.203 285.07 309.531 285.747 309.531 286.582C309.531 287.416 310.203 288.093 311.031 288.093Z" fill="#85889C"/>
<path d="M327.32 288.093C328.149 288.093 328.82 287.416 328.82 286.582C328.82 285.747 328.149 285.07 327.32 285.07C326.492 285.07 325.82 285.747 325.82 286.582C325.82 287.416 326.492 288.093 327.32 288.093Z" fill="#85889C"/>
<path d="M294.742 304.499C295.571 304.499 296.242 303.822 296.242 302.988C296.242 302.153 295.571 301.477 294.742 301.477C293.914 301.477 293.242 302.153 293.242 302.988C293.242 303.822 293.914 304.499 294.742 304.499Z" fill="#85889C"/>
<path d="M311.031 304.499C311.86 304.499 312.531 303.822 312.531 302.988C312.531 302.153 311.86 301.477 311.031 301.477C310.203 301.477 309.531 302.153 309.531 302.988C309.531 303.822 310.203 304.499 311.031 304.499Z" fill="#85889C"/>
<path d="M327.32 304.499C328.149 304.499 328.82 303.822 328.82 302.988C328.82 302.153 328.149 301.477 327.32 301.477C326.492 301.477 325.82 302.153 325.82 302.988C325.82 303.822 326.492 304.499 327.32 304.499Z" fill="#85889C"/>
<path d="M294.742 320.913C295.571 320.913 296.242 320.236 296.242 319.402C296.242 318.567 295.571 317.891 294.742 317.891C293.914 317.891 293.242 318.567 293.242 319.402C293.242 320.236 293.914 320.913 294.742 320.913Z" fill="#85889C"/>
<path d="M311.031 320.913C311.86 320.913 312.531 320.236 312.531 319.402C312.531 318.567 311.86 317.891 311.031 317.891C310.203 317.891 309.531 318.567 309.531 319.402C309.531 320.236 310.203 320.913 311.031 320.913Z" fill="#85889C"/>
<path d="M327.32 320.913C328.149 320.913 328.82 320.236 328.82 319.402C328.82 318.567 328.149 317.891 327.32 317.891C326.492 317.891 325.82 318.567 325.82 319.402C325.82 320.236 326.492 320.913 327.32 320.913Z" fill="#85889C"/>
<path d="M294.742 337.327C295.571 337.327 296.242 336.65 296.242 335.816C296.242 334.981 295.571 334.305 294.742 334.305C293.914 334.305 293.242 334.981 293.242 335.816C293.242 336.65 293.914 337.327 294.742 337.327Z" fill="#85889C"/>
<path d="M311.031 337.327C311.86 337.327 312.531 336.65 312.531 335.816C312.531 334.981 311.86 334.305 311.031 334.305C310.203 334.305 309.531 334.981 309.531 335.816C309.531 336.65 310.203 337.327 311.031 337.327Z" fill="#85889C"/>
<path d="M327.32 337.327C328.149 337.327 328.82 336.65 328.82 335.816C328.82 334.981 328.149 334.305 327.32 334.305C326.492 334.305 325.82 334.981 325.82 335.816C325.82 336.65 326.492 337.327 327.32 337.327Z" fill="#85889C"/>
<path d="M294.742 353.733C295.571 353.733 296.242 353.057 296.242 352.222C296.242 351.388 295.571 350.711 294.742 350.711C293.914 350.711 293.242 351.388 293.242 352.222C293.242 353.057 293.914 353.733 294.742 353.733Z" fill="#85889C"/>
<path d="M311.031 353.733C311.86 353.733 312.531 353.057 312.531 352.222C312.531 351.388 311.86 350.711 311.031 350.711C310.203 350.711 309.531 351.388 309.531 352.222C309.531 353.057 310.203 353.733 311.031 353.733Z" fill="#85889C"/>
<path d="M327.32 353.733C328.149 353.733 328.82 353.057 328.82 352.222C328.82 351.388 328.149 350.711 327.32 350.711C326.492 350.711 325.82 351.388 325.82 352.222C325.82 353.057 326.492 353.733 327.32 353.733Z" fill="#85889C"/>
<path d="M311.031 370.147C311.86 370.147 312.531 369.471 312.531 368.636C312.531 367.802 311.86 367.125 311.031 367.125C310.203 367.125 309.531 367.802 309.531 368.636C309.531 369.471 310.203 370.147 311.031 370.147Z" fill="#85889C"/>
<path d="M236.031 231.022C236.86 231.022 237.531 230.346 237.531 229.511C237.531 228.677 236.86 228 236.031 228C235.203 228 234.531 228.677 234.531 229.511C234.531 230.346 235.203 231.022 236.031 231.022Z" fill="#85889C"/>
<path d="M219.742 247.436C220.571 247.436 221.242 246.76 221.242 245.925C221.242 245.091 220.571 244.414 219.742 244.414C218.914 244.414 218.242 245.091 218.242 245.925C218.242 246.76 218.914 247.436 219.742 247.436Z" fill="#85889C"/>
<path d="M236.031 247.436C236.86 247.436 237.531 246.76 237.531 245.925C237.531 245.091 236.86 244.414 236.031 244.414C235.203 244.414 234.531 245.091 234.531 245.925C234.531 246.76 235.203 247.436 236.031 247.436Z" fill="#85889C"/>
<path d="M252.32 247.436C253.149 247.436 253.82 246.76 253.82 245.925C253.82 245.091 253.149 244.414 252.32 244.414C251.492 244.414 250.82 245.091 250.82 245.925C250.82 246.76 251.492 247.436 252.32 247.436Z" fill="#85889C"/>
<path d="M219.742 263.843C220.571 263.843 221.242 263.166 221.242 262.332C221.242 261.497 220.571 260.82 219.742 260.82C218.914 260.82 218.242 261.497 218.242 262.332C218.242 263.166 218.914 263.843 219.742 263.843Z" fill="#85889C"/>
<path d="M236.031 263.843C236.86 263.843 237.531 263.166 237.531 262.332C237.531 261.497 236.86 260.82 236.031 260.82C235.203 260.82 234.531 261.497 234.531 262.332C234.531 263.166 235.203 263.843 236.031 263.843Z" fill="#85889C"/>
<path d="M252.32 263.843C253.149 263.843 253.82 263.166 253.82 262.332C253.82 261.497 253.149 260.82 252.32 260.82C251.492 260.82 250.82 261.497 250.82 262.332C250.82 263.166 251.492 263.843 252.32 263.843Z" fill="#85889C"/>
<path d="M219.742 280.257C220.571 280.257 221.242 279.58 221.242 278.746C221.242 277.911 220.571 277.234 219.742 277.234C218.914 277.234 218.242 277.911 218.242 278.746C218.242 279.58 218.914 280.257 219.742 280.257Z" fill="#85889C"/>
<path d="M236.031 280.257C236.86 280.257 237.531 279.58 237.531 278.746C237.531 277.911 236.86 277.234 236.031 277.234C235.203 277.234 234.531 277.911 234.531 278.746C234.531 279.58 235.203 280.257 236.031 280.257Z" fill="#85889C"/>
<path d="M252.32 280.257C253.149 280.257 253.82 279.58 253.82 278.746C253.82 277.911 253.149 277.234 252.32 277.234C251.492 277.234 250.82 277.911 250.82 278.746C250.82 279.58 251.492 280.257 252.32 280.257Z" fill="#85889C"/>
<path d="M219.742 296.671C220.571 296.671 221.242 295.994 221.242 295.16C221.242 294.325 220.571 293.648 219.742 293.648C218.914 293.648 218.242 294.325 218.242 295.16C218.242 295.994 218.914 296.671 219.742 296.671Z" fill="#85889C"/>
<path d="M236.031 296.671C236.86 296.671 237.531 295.994 237.531 295.16C237.531 294.325 236.86 293.648 236.031 293.648C235.203 293.648 234.531 294.325 234.531 295.16C234.531 295.994 235.203 296.671 236.031 296.671Z" fill="#85889C"/>
<path d="M252.32 296.671C253.149 296.671 253.82 295.994 253.82 295.16C253.82 294.325 253.149 293.648 252.32 293.648C251.492 293.648 250.82 294.325 250.82 295.16C250.82 295.994 251.492 296.671 252.32 296.671Z" fill="#85889C"/>
<path d="M219.742 313.085C220.571 313.085 221.242 312.408 221.242 311.574C221.242 310.739 220.571 310.062 219.742 310.062C218.914 310.062 218.242 310.739 218.242 311.574C218.242 312.408 218.914 313.085 219.742 313.085Z" fill="#85889C"/>
<path d="M236.031 313.085C236.86 313.085 237.531 312.408 237.531 311.574C237.531 310.739 236.86 310.062 236.031 310.062C235.203 310.062 234.531 310.739 234.531 311.574C234.531 312.408 235.203 313.085 236.031 313.085Z" fill="#85889C"/>
<path d="M252.32 313.085C253.149 313.085 253.82 312.408 253.82 311.574C253.82 310.739 253.149 310.062 252.32 310.062C251.492 310.062 250.82 310.739 250.82 311.574C250.82 312.408 251.492 313.085 252.32 313.085Z" fill="#85889C"/>
<path d="M219.742 329.491C220.571 329.491 221.242 328.815 221.242 327.98C221.242 327.145 220.571 326.469 219.742 326.469C218.914 326.469 218.242 327.145 218.242 327.98C218.242 328.815 218.914 329.491 219.742 329.491Z" fill="#85889C"/>
<path d="M236.031 329.491C236.86 329.491 237.531 328.815 237.531 327.98C237.531 327.145 236.86 326.469 236.031 326.469C235.203 326.469 234.531 327.145 234.531 327.98C234.531 328.815 235.203 329.491 236.031 329.491Z" fill="#85889C"/>
<path d="M252.32 329.491C253.149 329.491 253.82 328.815 253.82 327.98C253.82 327.145 253.149 326.469 252.32 326.469C251.492 326.469 250.82 327.145 250.82 327.98C250.82 328.815 251.492 329.491 252.32 329.491Z" fill="#85889C"/>
<path d="M219.742 345.905C220.571 345.905 221.242 345.229 221.242 344.394C221.242 343.559 220.571 342.883 219.742 342.883C218.914 342.883 218.242 343.559 218.242 344.394C218.242 345.229 218.914 345.905 219.742 345.905Z" fill="#85889C"/>
<path d="M236.031 345.905C236.86 345.905 237.531 345.229 237.531 344.394C237.531 343.559 236.86 342.883 236.031 342.883C235.203 342.883 234.531 343.559 234.531 344.394C234.531 345.229 235.203 345.905 236.031 345.905Z" fill="#85889C"/>
<path d="M252.32 345.905C253.149 345.905 253.82 345.229 253.82 344.394C253.82 343.559 253.149 342.883 252.32 342.883C251.492 342.883 250.82 343.559 250.82 344.394C250.82 345.229 251.492 345.905 252.32 345.905Z" fill="#85889C"/>
<path d="M236.031 362.319C236.86 362.319 237.531 361.643 237.531 360.808C237.531 359.973 236.86 359.297 236.031 359.297C235.203 359.297 234.531 359.973 234.531 360.808C234.531 361.643 235.203 362.319 236.031 362.319Z" fill="#85889C"/>
<path d="M162.039 251.046C162.867 251.046 163.539 250.369 163.539 249.535C163.539 248.7 162.867 248.023 162.039 248.023C161.211 248.023 160.539 248.7 160.539 249.535C160.539 250.369 161.211 251.046 162.039 251.046Z" fill="#85889C"/>
<path d="M145.75 267.46C146.578 267.46 147.25 266.783 147.25 265.949C147.25 265.114 146.578 264.438 145.75 264.438C144.922 264.438 144.25 265.114 144.25 265.949C144.25 266.783 144.922 267.46 145.75 267.46Z" fill="#85889C"/>
<path d="M162.039 267.46C162.867 267.46 163.539 266.783 163.539 265.949C163.539 265.114 162.867 264.438 162.039 264.438C161.211 264.438 160.539 265.114 160.539 265.949C160.539 266.783 161.211 267.46 162.039 267.46Z" fill="#85889C"/>
<path d="M178.328 267.46C179.157 267.46 179.828 266.783 179.828 265.949C179.828 265.114 179.157 264.438 178.328 264.438C177.5 264.438 176.828 265.114 176.828 265.949C176.828 266.783 177.5 267.46 178.328 267.46Z" fill="#85889C"/>
<path d="M145.75 283.866C146.578 283.866 147.25 283.19 147.25 282.355C147.25 281.52 146.578 280.844 145.75 280.844C144.922 280.844 144.25 281.52 144.25 282.355C144.25 283.19 144.922 283.866 145.75 283.866Z" fill="#85889C"/>
<path d="M162.039 283.866C162.867 283.866 163.539 283.19 163.539 282.355C163.539 281.52 162.867 280.844 162.039 280.844C161.211 280.844 160.539 281.52 160.539 282.355C160.539 283.19 161.211 283.866 162.039 283.866Z" fill="#85889C"/>
<path d="M178.328 283.866C179.157 283.866 179.828 283.19 179.828 282.355C179.828 281.52 179.157 280.844 178.328 280.844C177.5 280.844 176.828 281.52 176.828 282.355C176.828 283.19 177.5 283.866 178.328 283.866Z" fill="#85889C"/>
<path d="M145.75 300.28C146.578 300.28 147.25 299.604 147.25 298.769C147.25 297.934 146.578 297.258 145.75 297.258C144.922 297.258 144.25 297.934 144.25 298.769C144.25 299.604 144.922 300.28 145.75 300.28Z" fill="#85889C"/>
<path d="M162.039 300.28C162.867 300.28 163.539 299.604 163.539 298.769C163.539 297.934 162.867 297.258 162.039 297.258C161.211 297.258 160.539 297.934 160.539 298.769C160.539 299.604 161.211 300.28 162.039 300.28Z" fill="#85889C"/>
<path d="M178.328 300.28C179.157 300.28 179.828 299.604 179.828 298.769C179.828 297.934 179.157 297.258 178.328 297.258C177.5 297.258 176.828 297.934 176.828 298.769C176.828 299.604 177.5 300.28 178.328 300.28Z" fill="#85889C"/>
<path d="M145.75 316.694C146.578 316.694 147.25 316.018 147.25 315.183C147.25 314.348 146.578 313.672 145.75 313.672C144.922 313.672 144.25 314.348 144.25 315.183C144.25 316.018 144.922 316.694 145.75 316.694Z" fill="#85889C"/>
<path d="M162.039 316.694C162.867 316.694 163.539 316.018 163.539 315.183C163.539 314.348 162.867 313.672 162.039 313.672C161.211 313.672 160.539 314.348 160.539 315.183C160.539 316.018 161.211 316.694 162.039 316.694Z" fill="#85889C"/>
<path d="M178.328 316.694C179.157 316.694 179.828 316.018 179.828 315.183C179.828 314.348 179.157 313.672 178.328 313.672C177.5 313.672 176.828 314.348 176.828 315.183C176.828 316.018 177.5 316.694 178.328 316.694Z" fill="#85889C"/>
<path d="M162.039 333.108C162.867 333.108 163.539 332.432 163.539 331.597C163.539 330.763 162.867 330.086 162.039 330.086C161.211 330.086 160.539 330.763 160.539 331.597C160.539 332.432 161.211 333.108 162.039 333.108Z" fill="#85889C"/>
<path d="M88.0391 275.046C88.8675 275.046 89.5391 274.369 89.5391 273.535C89.5391 272.7 88.8675 272.023 88.0391 272.023C87.2106 272.023 86.5391 272.7 86.5391 273.535C86.5391 274.369 87.2106 275.046 88.0391 275.046Z" fill="#85889C"/>
<path d="M71.75 291.46C72.5784 291.46 73.25 290.783 73.25 289.949C73.25 289.114 72.5784 288.438 71.75 288.438C70.9216 288.438 70.25 289.114 70.25 289.949C70.25 290.783 70.9216 291.46 71.75 291.46Z" fill="#85889C"/>
<path d="M88.0391 291.46C88.8675 291.46 89.5391 290.783 89.5391 289.949C89.5391 289.114 88.8675 288.438 88.0391 288.438C87.2106 288.438 86.5391 289.114 86.5391 289.949C86.5391 290.783 87.2106 291.46 88.0391 291.46Z" fill="#85889C"/>
<path d="M104.328 291.46C105.157 291.46 105.828 290.783 105.828 289.949C105.828 289.114 105.157 288.438 104.328 288.438C103.5 288.438 102.828 289.114 102.828 289.949C102.828 290.783 103.5 291.46 104.328 291.46Z" fill="#85889C"/>
<path d="M88.0391 307.866C88.8675 307.866 89.5391 307.19 89.5391 306.355C89.5391 305.52 88.8675 304.844 88.0391 304.844C87.2106 304.844 86.5391 305.52 86.5391 306.355C86.5391 307.19 87.2106 307.866 88.0391 307.866Z" fill="#85889C"/>
</svg>
