<svg preserveAspectRatio="none" width="100%" height="100%" overflow="visible" style="display: block;" viewBox="0 0 219.239 220" fill="none" xmlns="http://www.w3.org/2000/svg">
<g id="Group 2117761473">
<circle id="Ellipse" cx="110.069" cy="110.07" r="7.21774" fill="var(--fill-0, #CCFF33)"/>
<circle id="Ellipse_2" cx="110.069" cy="83.9059" r="7.21774" fill="var(--fill-0, #4D4F60)" fill-opacity="0.15"/>
<circle id="Ellipse_3" cx="131.725" cy="97.4373" r="7.21774" fill="var(--fill-0, #4D4F60)" fill-opacity="0.15"/>
<circle id="Ellipse_4" cx="131.725" cy="122.703" r="7.21774" fill="var(--fill-0, #4D4F60)" fill-opacity="0.15"/>
<circle id="Ellipse_5" cx="109.162" cy="136.094" r="7.21774" fill="var(--fill-0, #4D4F60)" fill-opacity="0.15"/>
<circle id="Ellipse_6" cx="86.6079" cy="122.703" r="7.21774" fill="var(--fill-0, #4D4F60)" fill-opacity="0.15"/>
<circle id="Ellipse_7" cx="86.6079" cy="97.4375" r="7.21774" fill="var(--fill-0, #4D4F60)" fill-opacity="0.15"/>
<circle id="Ellipse_8" cx="110.069" cy="58.6479" r="7.21774" fill="var(--fill-0, #4D4F60)" fill-opacity="0.15"/>
<circle id="Ellipse_9" cx="135.326" cy="65.7183" r="7.21774" fill="var(--fill-0, #4D4F60)" fill-opacity="0.15"/>
<circle id="Ellipse_10" cx="153.373" cy="83.9059" r="7.21774" fill="var(--fill-0, #4D4F60)" fill-opacity="0.15"/>
<circle id="Ellipse_11" cx="160.592" cy="109.93" r="7.21774" fill="var(--fill-0, #4D4F60)" fill-opacity="0.15"/>
<circle id="Ellipse_12" cx="153.373" cy="136.094" r="7.21774" fill="var(--fill-0, #4D4F60)" fill-opacity="0.15"/>
<circle id="Ellipse_13" cx="134.428" cy="155.18" r="7.21774" fill="var(--fill-0, #4D4F60)" fill-opacity="0.15"/>
<circle id="Ellipse_14" cx="110.069" cy="161.5" r="7.21774" fill="var(--fill-0, #4D4F60)" fill-opacity="0.15"/>
<circle id="Ellipse_15" cx="83.9047" cy="155.18" r="7.21774" fill="var(--fill-0, #4D4F60)" fill-opacity="0.15"/>
<circle id="Ellipse_16" cx="64.9596" cy="136.234" r="7.21774" fill="var(--fill-0, #4D4F60)" fill-opacity="0.15"/>
<circle id="Ellipse_17" cx="57.7409" cy="110.07" r="7.21774" fill="var(--fill-0, #4D4F60)" fill-opacity="0.15"/>
<circle id="Ellipse_18" cx="64.9596" cy="83.9059" r="7.21774" fill="var(--fill-0, #4D4F60)" fill-opacity="0.15"/>
<circle id="Ellipse_19" cx="83.9047" cy="64.9605" r="7.21774" fill="var(--fill-0, #4D4F60)" fill-opacity="0.15"/>
<circle id="Ellipse_20" cx="109.162" cy="33.3818" r="7.21774" fill="var(--fill-0, #4D4F60)" fill-opacity="0.15"/>
<circle id="Ellipse_21" cx="135.326" cy="36.9914" r="7.21774" fill="var(--fill-0, #4D4F60)" fill-opacity="0.15"/>
<circle id="Ellipse_22" cx="158.787" cy="51.4291" r="7.21774" fill="var(--fill-0, #4D4F60)" fill-opacity="0.15"/>
<circle id="Ellipse_23" cx="175.928" cy="71.273" r="7.21774" fill="var(--fill-0, #4D4F60)" fill-opacity="0.15"/>
<circle id="Ellipse_24" cx="185.857" cy="97.4373" r="7.21774" fill="var(--fill-0, #4D4F60)" fill-opacity="0.15"/>
<circle id="Ellipse_25" cx="185.857" cy="122.703" r="7.21774" fill="var(--fill-0, #4D4F60)" fill-opacity="0.15"/>
<circle id="Ellipse_26" cx="175.928" cy="148.867" r="7.21774" fill="var(--fill-0, #4D4F60)" fill-opacity="0.15"/>
<circle id="Ellipse_27" cx="158.787" cy="168.719" r="7.21774" fill="var(--fill-0, #4D4F60)" fill-opacity="0.15"/>
<circle id="Ellipse_28" cx="135.326" cy="183.149" r="7.21774" fill="var(--fill-0, #4D4F60)" fill-opacity="0.15"/>
<circle id="Ellipse_29" cx="110.069" cy="186.758" r="7.21774" fill="var(--fill-0, #4D4F60)" fill-opacity="0.15"/>
<circle id="Ellipse_30" cx="82.9985" cy="183.149" r="7.21774" fill="var(--fill-0, #4D4F60)" fill-opacity="0.15"/>
<circle id="Ellipse_31" cx="59.5455" cy="168.719" r="7.21774" fill="var(--fill-0, #4D4F60)" fill-opacity="0.15"/>
<circle id="Ellipse_32" cx="43.3034" cy="148.867" r="7.21774" fill="var(--fill-0, #4D4F60)" fill-opacity="0.15"/>
<circle id="Ellipse_33" cx="33.3816" cy="122.703" r="7.21774" fill="var(--fill-0, #4D4F60)" fill-opacity="0.15"/>
<circle id="Ellipse_34" cx="33.3816" cy="97.4373" r="7.21774" fill="var(--fill-0, #4D4F60)" fill-opacity="0.15"/>
<circle id="Ellipse_35" cx="42.405" cy="71.273" r="7.21774" fill="var(--fill-0, #4D4F60)" fill-opacity="0.15"/>
<circle id="Ellipse_36" cx="59.5455" cy="51.4291" r="7.21774" fill="var(--fill-0, #4D4F60)" fill-opacity="0.15"/>
<circle id="Ellipse_37" cx="82.9985" cy="36.9914" r="7.21774" fill="var(--fill-0, #4D4F60)" fill-opacity="0.15"/>
<circle id="Ellipse_38" cx="109.162" cy="7.21774" r="7.21774" fill="var(--fill-0, #4D4F60)" fill-opacity="0.15"/>
<circle id="Ellipse_39" cx="135.326" cy="10.6865" r="7.21774" fill="var(--fill-0, #4D4F60)" fill-opacity="0.15"/>
<circle id="Ellipse_40" cx="160.592" cy="20.6085" r="7.21774" fill="var(--fill-0, #4D4F60)" fill-opacity="0.15"/>
<circle id="Ellipse_41" cx="182.248" cy="36.9914" r="7.21774" fill="var(--fill-0, #4D4F60)" fill-opacity="0.15"/>
<circle id="Ellipse_42" cx="198.482" cy="58.6479" r="7.21774" fill="var(--fill-0, #4D4F60)" fill-opacity="0.15"/>
<circle id="Ellipse_43" cx="208.412" cy="82.8669" r="7.21774" fill="var(--fill-0, #4D4F60)" fill-opacity="0.15"/>
<circle id="Ellipse_44" cx="212.021" cy="109.93" r="7.21774" fill="var(--fill-0, #4D4F60)" fill-opacity="0.15"/>
<circle id="Ellipse_45" cx="208.412" cy="137.141" r="7.21774" fill="var(--fill-0, #4D4F60)" fill-opacity="0.15"/>
<circle id="Ellipse_46" cx="198.482" cy="161.5" r="7.21774" fill="var(--fill-0, #4D4F60)" fill-opacity="0.15"/>
<circle id="Ellipse_47" cx="181.342" cy="183.149" r="7.21774" fill="var(--fill-0, #4D4F60)" fill-opacity="0.15"/>
<circle id="Ellipse_48" cx="160.592" cy="198.493" r="7.21774" fill="var(--fill-0, #4D4F60)" fill-opacity="0.15"/>
<circle id="Ellipse_49" cx="136.233" cy="210.079" r="7.21774" fill="var(--fill-0, #4D4F60)" fill-opacity="0.15"/>
<circle id="Ellipse_50" cx="109.162" cy="212.782" r="7.21774" fill="var(--fill-0, #4D4F60)" fill-opacity="0.15"/>
<circle id="Ellipse_51" cx="82.9985" cy="209.407" r="7.21774" fill="var(--fill-0, #4D4F60)" fill-opacity="0.15"/>
<circle id="Ellipse_52" cx="57.7409" cy="198.493" r="7.21774" fill="var(--fill-0, #4D4F60)" fill-opacity="0.15"/>
<circle id="Ellipse_53" cx="36.0847" cy="183.149" r="7.21774" fill="var(--fill-0, #4D4F60)" fill-opacity="0.15"/>
<circle id="Ellipse_54" cx="19.8505" cy="161.5" r="7.21774" fill="var(--fill-0, #4D4F60)" fill-opacity="0.15"/>
<circle id="Ellipse_55" cx="9.92085" cy="137.141" r="7.21774" fill="var(--fill-0, #4D4F60)" fill-opacity="0.15"/>
<circle id="Ellipse_56" cx="7.21774" cy="110.07" r="7.21774" fill="var(--fill-0, #4D4F60)" fill-opacity="0.15"/>
<circle id="Ellipse_57" cx="9.92085" cy="83.0075" r="7.21774" fill="var(--fill-0, #4D4F60)" fill-opacity="0.15"/>
<circle id="Ellipse_58" cx="19.8505" cy="58.6479" r="7.21774" fill="var(--fill-0, #4D4F60)" fill-opacity="0.15"/>
<circle id="Ellipse_59" cx="36.991" cy="36.9914" r="7.21774" fill="var(--fill-0, #4D4F60)" fill-opacity="0.15"/>
<circle id="Ellipse_60" cx="57.7409" cy="21.6554" r="7.21774" fill="var(--fill-0, #4D4F60)" fill-opacity="0.15"/>
<circle id="Ellipse_61" cx="82.9985" cy="10.8271" r="7.21774" fill="var(--fill-0, #4D4F60)" fill-opacity="0.15"/>
</g>
</svg>
