<svg xmlns="http://www.w3.org/2000/svg" xmlns:xlink="http://www.w3.org/1999/xlink" fill="none" viewBox="556.56 100.475 106.393 36.754" width="106.393" height="36.754">
<defs><clipPath id="clip2_8618_527">
<rect width="106.393" height="36.7538" fill="white" transform="translate(556.56 100.475)"/>
</clipPath></defs>
<g clip-path="url(#clip2_8618_527)">
<path d="M590.57 126.243C589.604 128.428 588.277 130.36 586.587 132.037C584.871 133.753 582.881 135.098 580.619 136.07C578.37 137.055 575.967 137.547 573.412 137.547C570.843 137.547 568.428 137.055 566.166 136.07C563.917 135.098 561.934 133.754 560.217 132.037C558.54 130.36 557.213 128.428 556.234 126.243H558.09C558.76 127.603 559.587 128.847 560.569 129.976C561.39 129.372 562.377 128.841 563.531 128.384C564.097 128.155 564.692 127.947 565.317 127.759C565.185 127.285 565.061 126.795 564.948 126.288C564.945 126.273 564.942 126.258 564.939 126.243H566.727C566.813 126.611 566.903 126.971 567 127.322C567.346 127.245 567.7 127.172 568.062 127.106C569.489 126.845 570.993 126.697 572.574 126.658V126.243H574.231V126.657C575.819 126.695 577.329 126.844 578.762 127.106C579.116 127.17 579.463 127.242 579.802 127.317C579.899 126.967 579.99 126.609 580.076 126.243H581.866C581.862 126.258 581.86 126.273 581.856 126.288C581.744 126.793 581.619 127.281 581.487 127.754C582.119 127.943 582.722 128.152 583.293 128.384C584.447 128.841 585.428 129.372 586.238 129.976C587.227 128.847 588.055 127.603 588.719 126.243H590.57ZM581.01 129.272C580.662 130.262 580.267 131.171 579.82 131.997C579.049 133.441 578.174 134.584 577.197 135.429C578.151 135.21 579.079 134.905 579.98 134.513C581.918 133.687 583.634 132.562 585.126 131.137C584.002 130.364 582.631 129.741 581.01 129.272ZM565.787 129.273C564.166 129.743 562.797 130.364 561.684 131.139C563.186 132.563 564.9 133.688 566.825 134.513C567.723 134.904 568.65 135.209 569.605 135.428C568.628 134.583 567.747 133.44 566.965 131.997C566.524 131.171 566.132 130.263 565.787 129.273ZM574.231 135.426C574.93 135.247 575.602 134.837 576.246 134.193C577.151 133.315 577.95 132.103 578.642 130.56C578.888 130.018 579.112 129.448 579.32 128.853C577.783 128.535 576.087 128.354 574.231 128.314V135.426ZM572.574 128.314C570.718 128.355 569.019 128.537 567.475 128.856C567.68 129.45 567.902 130.018 568.142 130.56C568.848 132.103 569.652 133.315 570.557 134.193C571.205 134.832 571.878 135.24 572.574 135.421V128.314ZM573.392 100.157C575.96 100.157 578.37 100.643 580.619 101.614C582.881 102.586 584.871 103.936 586.587 105.666C588.273 107.339 589.596 109.272 590.562 111.462H588.712C588.059 110.119 587.248 108.891 586.281 107.777C585.462 108.395 584.467 108.943 583.293 109.42C582.722 109.652 582.12 109.859 581.488 110.047C581.615 110.504 581.735 110.975 581.843 111.462H580.089C580.011 111.126 579.929 110.798 579.842 110.477C579.49 110.556 579.13 110.63 578.762 110.697C577.329 110.947 575.819 111.09 574.231 111.126V111.462H572.574V111.125C570.993 111.088 569.489 110.946 568.062 110.697C567.687 110.629 567.319 110.553 566.96 110.473C566.874 110.795 566.792 111.125 566.714 111.462H564.961C565.073 110.974 565.193 110.501 565.322 110.044C564.695 109.856 564.098 109.65 563.531 109.42C562.357 108.943 561.356 108.396 560.527 107.778C559.566 108.892 558.757 110.12 558.097 111.462H556.241C557.207 109.272 558.524 107.339 560.197 105.666C561.927 103.936 563.917 102.586 566.166 101.614C568.428 100.643 570.837 100.157 573.392 100.157ZM572.574 102.338C571.878 102.514 571.205 102.912 570.557 103.531C569.652 104.383 568.847 105.573 568.142 107.104C567.88 107.683 567.638 108.299 567.418 108.95C568.977 109.268 570.695 109.448 572.574 109.489V102.338ZM574.231 109.489C576.11 109.449 577.826 109.269 579.378 108.952C579.154 108.301 578.91 107.684 578.642 107.104C577.95 105.573 577.151 104.383 576.246 103.531C575.602 102.906 574.93 102.507 574.231 102.334V109.489ZM569.737 102.225C568.737 102.447 567.766 102.762 566.825 103.172C564.875 104.007 563.142 105.156 561.626 106.618C562.752 107.414 564.139 108.058 565.792 108.547C566.142 107.541 566.54 106.621 566.985 105.786C567.789 104.266 568.708 103.081 569.737 102.225ZM577.069 102.227C578.097 103.083 579.016 104.267 579.82 105.786C580.271 106.62 580.671 107.54 581.021 108.544C582.666 108.057 584.053 107.416 585.186 106.625C583.668 105.16 581.932 104.008 579.98 103.172C579.04 102.763 578.07 102.448 577.069 102.227Z" fill="black"/>
<path d="M557.738 124.395V122.247L558.546 122.045C558.785 121.99 558.913 121.88 558.913 121.659V114.279C558.913 114.059 558.785 113.948 558.546 113.893L557.738 113.691V111.543H564.366V113.691L563.558 113.893C563.32 113.93 563.209 114.059 563.209 114.279V121.659C563.209 121.88 563.32 122.008 563.558 122.045L564.366 122.247V124.395H557.738ZM569.056 120.154C569.075 121.549 569.754 122.284 571.002 122.284C571.939 122.284 572.545 121.843 572.545 121.072C572.545 120.025 571.461 119.676 569.754 119.089C568.285 118.575 565.935 117.767 565.935 115.087C565.935 112.241 568.579 111.25 570.911 111.25C572.508 111.25 573.591 111.855 573.995 111.855C574.252 111.855 574.472 111.653 574.527 111.543H576.235V115.344H573.261C572.985 114.132 572.489 113.618 571.535 113.618C570.764 113.618 570.25 113.967 570.25 114.683C570.25 115.564 571.021 115.839 572.581 116.335C574.803 117.051 577.024 117.675 577.024 120.429C577.024 123.165 574.858 124.689 571.535 124.689C569.864 124.689 569.166 124.12 568.487 124.12C568.267 124.12 568.065 124.211 567.955 124.395H565.825V120.154H569.056ZM585.163 124.689C580.757 124.689 578.223 121.971 578.223 117.969C578.223 113.967 580.757 111.25 585.163 111.25C589.551 111.25 592.084 113.967 592.084 117.969C592.084 121.971 589.551 124.689 585.163 124.689ZM585.163 114.132C583.639 114.132 582.758 115.068 582.758 118.024C582.758 120.962 583.639 121.825 585.163 121.825C586.687 121.825 587.55 120.962 587.55 118.024C587.55 115.068 586.687 114.132 585.163 114.132Z" fill="black"/>
<path d="M650.565 128.474C650.166 128.474 649.808 128.371 649.492 128.166C649.176 127.96 648.927 127.662 648.744 127.271C648.56 126.881 648.469 126.406 648.469 125.847C648.469 125.282 648.561 124.805 648.747 124.417C648.935 124.026 649.187 123.731 649.505 123.532C649.823 123.331 650.178 123.231 650.568 123.231C650.867 123.231 651.112 123.282 651.304 123.383C651.496 123.483 651.648 123.603 651.761 123.744C651.873 123.883 651.961 124.015 652.022 124.138H652.072V121.602H653.274V128.384H652.095V127.583H652.022C651.961 127.706 651.871 127.838 651.754 127.977C651.637 128.114 651.483 128.231 651.29 128.328C651.098 128.425 650.857 128.474 650.565 128.474ZM650.9 127.49C651.154 127.49 651.37 127.422 651.549 127.285C651.728 127.146 651.863 126.952 651.956 126.705C652.049 126.458 652.095 126.17 652.095 125.841C652.095 125.512 652.049 125.226 651.956 124.983C651.866 124.74 651.731 124.551 651.552 124.417C651.375 124.282 651.158 124.215 650.9 124.215C650.632 124.215 650.409 124.284 650.231 124.423C650.052 124.562 649.917 124.754 649.827 124.999C649.736 125.245 649.691 125.525 649.691 125.841C649.691 126.159 649.736 126.442 649.827 126.692C649.919 126.939 650.055 127.135 650.234 127.278C650.415 127.419 650.637 127.49 650.9 127.49Z" fill="black"/>
<path d="M645.216 128.486C644.706 128.486 644.265 128.38 643.894 128.168C643.526 127.954 643.242 127.652 643.043 127.261C642.844 126.868 642.745 126.406 642.745 125.873C642.745 125.35 642.844 124.891 643.043 124.496C643.244 124.098 643.525 123.789 643.884 123.568C644.244 123.345 644.667 123.234 645.153 123.234C645.466 123.234 645.762 123.285 646.04 123.386C646.321 123.486 646.568 123.64 646.782 123.85C646.999 124.06 647.169 124.327 647.292 124.651C647.416 124.974 647.478 125.358 647.478 125.804V126.171H643.308V125.363H646.329C646.326 125.134 646.277 124.93 646.179 124.751C646.082 124.57 645.947 124.427 645.772 124.323C645.6 124.22 645.399 124.168 645.169 124.168C644.924 124.168 644.709 124.227 644.524 124.347C644.338 124.464 644.193 124.618 644.09 124.81C643.988 125 643.936 125.209 643.934 125.436V126.142C643.934 126.438 643.988 126.691 644.096 126.903C644.205 127.113 644.356 127.274 644.55 127.387C644.744 127.497 644.972 127.552 645.232 127.552C645.407 127.552 645.565 127.528 645.706 127.48C645.847 127.429 645.97 127.355 646.074 127.258C646.177 127.161 646.256 127.04 646.309 126.897L647.428 127.023C647.357 127.318 647.223 127.577 647.024 127.798C646.827 128.016 646.576 128.186 646.269 128.308C645.962 128.427 645.611 128.486 645.216 128.486Z" fill="black"/>
<path d="M641.829 123.3V124.228H638.904V123.3H641.829ZM639.626 122.082H640.825V126.857C640.825 127.018 640.849 127.142 640.898 127.228C640.949 127.312 641.015 127.369 641.097 127.4C641.178 127.431 641.269 127.447 641.368 127.447C641.443 127.447 641.512 127.441 641.574 127.43C641.638 127.419 641.686 127.409 641.719 127.4L641.921 128.338C641.857 128.36 641.766 128.384 641.646 128.41C641.529 128.437 641.386 128.452 641.216 128.457C640.916 128.466 640.645 128.42 640.405 128.321C640.164 128.219 639.973 128.063 639.832 127.851C639.693 127.639 639.624 127.374 639.626 127.056V122.082Z" fill="black"/>
<path d="M636.67 128.387V123.3H637.869V128.387H636.67ZM637.273 122.578C637.083 122.578 636.919 122.515 636.782 122.39C636.646 122.262 636.577 122.108 636.577 121.929C636.577 121.748 636.646 121.595 636.782 121.469C636.919 121.341 637.083 121.277 637.273 121.277C637.465 121.277 637.628 121.341 637.763 121.469C637.9 121.595 637.968 121.748 637.968 121.929C637.968 122.108 637.9 122.262 637.763 122.39C637.628 122.515 637.465 122.578 637.273 122.578Z" fill="black"/>
<path d="M632.495 128.474C632.095 128.474 631.738 128.371 631.422 128.166C631.106 127.96 630.857 127.662 630.673 127.271C630.49 126.881 630.398 126.406 630.398 125.847C630.398 125.282 630.491 124.805 630.677 124.417C630.864 124.026 631.117 123.731 631.435 123.532C631.753 123.331 632.107 123.231 632.498 123.231C632.796 123.231 633.041 123.282 633.233 123.383C633.425 123.483 633.578 123.603 633.69 123.744C633.803 123.883 633.89 124.015 633.952 124.138H634.002V121.602H635.204V128.384H634.025V127.583H633.952C633.89 127.706 633.801 127.838 633.684 127.977C633.567 128.114 633.412 128.231 633.22 128.328C633.028 128.425 632.786 128.474 632.495 128.474ZM632.829 127.49C633.083 127.49 633.3 127.422 633.478 127.285C633.657 127.146 633.793 126.952 633.886 126.705C633.979 126.458 634.025 126.17 634.025 125.841C634.025 125.512 633.979 125.226 633.886 124.983C633.795 124.74 633.661 124.551 633.482 124.417C633.305 124.282 633.088 124.215 632.829 124.215C632.562 124.215 632.339 124.284 632.16 124.423C631.981 124.562 631.847 124.754 631.756 124.999C631.666 125.245 631.621 125.525 631.621 125.841C631.621 126.159 631.666 126.442 631.756 126.692C631.849 126.939 631.985 127.135 632.164 127.278C632.345 127.419 632.567 127.49 632.829 127.49Z" fill="black"/>
<path d="M627.146 128.486C626.636 128.486 626.196 128.38 625.825 128.168C625.456 127.954 625.173 127.652 624.974 127.261C624.775 126.868 624.676 126.406 624.676 125.873C624.676 125.35 624.775 124.891 624.974 124.496C625.175 124.098 625.455 123.789 625.815 123.568C626.175 123.345 626.598 123.234 627.083 123.234C627.397 123.234 627.693 123.285 627.971 123.386C628.251 123.486 628.499 123.64 628.713 123.85C628.929 124.06 629.099 124.327 629.223 124.651C629.347 124.974 629.408 125.358 629.408 125.804V126.171H625.239V125.363H628.259C628.257 125.134 628.207 124.93 628.11 124.751C628.013 124.57 627.877 124.427 627.703 124.323C627.531 124.22 627.33 124.168 627.1 124.168C626.855 124.168 626.64 124.227 626.454 124.347C626.269 124.464 626.124 124.618 626.02 124.81C625.919 125 625.867 125.209 625.865 125.436V126.142C625.865 126.438 625.919 126.691 626.027 126.903C626.135 127.113 626.286 127.274 626.481 127.387C626.675 127.497 626.902 127.552 627.163 127.552C627.337 127.552 627.495 127.528 627.637 127.48C627.778 127.429 627.9 127.355 628.004 127.258C628.108 127.161 628.186 127.04 628.239 126.897L629.359 127.023C629.288 127.318 629.153 127.577 628.955 127.798C628.758 128.016 628.506 128.186 628.2 128.308C627.893 128.427 627.542 128.486 627.146 128.486Z" fill="black"/>
<path d="M621.219 128.386V123.299H622.381V124.147H622.434C622.527 123.854 622.686 123.627 622.911 123.468C623.139 123.307 623.398 123.227 623.689 123.227C623.756 123.227 623.83 123.23 623.911 123.236C623.995 123.241 624.065 123.249 624.12 123.26V124.363C624.069 124.345 623.989 124.329 623.878 124.316C623.77 124.301 623.665 124.293 623.564 124.293C623.345 124.293 623.148 124.34 622.974 124.435C622.802 124.528 622.666 124.657 622.567 124.823C622.467 124.988 622.418 125.179 622.418 125.396V128.386H621.219Z" fill="black"/>
<path d="M617.87 128.486C617.362 128.486 616.926 128.375 616.562 128.152C616.2 127.929 615.921 127.621 615.724 127.228C615.53 126.833 615.433 126.378 615.433 125.863C615.433 125.347 615.532 124.891 615.731 124.496C615.929 124.098 616.21 123.789 616.572 123.568C616.936 123.345 617.367 123.234 617.863 123.234C618.276 123.234 618.642 123.31 618.96 123.462C619.28 123.613 619.535 123.826 619.725 124.102C619.915 124.375 620.023 124.696 620.049 125.062H618.903C618.857 124.817 618.747 124.613 618.572 124.449C618.4 124.284 618.169 124.201 617.88 124.201C617.635 124.201 617.42 124.267 617.234 124.4C617.049 124.53 616.904 124.718 616.8 124.963C616.699 125.208 616.648 125.501 616.648 125.844C616.648 126.19 616.699 126.488 616.8 126.738C616.902 126.985 617.044 127.176 617.228 127.311C617.413 127.443 617.631 127.509 617.88 127.509C618.057 127.509 618.215 127.476 618.354 127.41C618.495 127.342 618.613 127.243 618.708 127.115C618.803 126.987 618.868 126.832 618.903 126.648H620.049C620.021 127.008 619.915 127.327 619.731 127.605C619.548 127.881 619.299 128.098 618.983 128.255C618.667 128.409 618.296 128.486 617.87 128.486Z" fill="black"/>
<path d="M612.298 128.486C611.79 128.486 611.354 128.375 610.99 128.152C610.628 127.929 610.348 127.621 610.152 127.228C609.957 126.833 609.86 126.378 609.86 125.863C609.86 125.347 609.96 124.891 610.158 124.496C610.357 124.098 610.638 123.789 611 123.568C611.364 123.345 611.794 123.234 612.291 123.234C612.704 123.234 613.07 123.31 613.387 123.462C613.708 123.613 613.963 123.826 614.152 124.102C614.342 124.375 614.451 124.696 614.477 125.062H613.331C613.285 124.817 613.174 124.613 613 124.449C612.828 124.284 612.597 124.201 612.308 124.201C612.063 124.201 611.847 124.267 611.662 124.4C611.477 124.53 611.332 124.718 611.228 124.963C611.127 125.208 611.076 125.501 611.076 125.844C611.076 126.19 611.127 126.488 611.228 126.738C611.33 126.985 611.472 127.176 611.655 127.311C611.841 127.443 612.058 127.509 612.308 127.509C612.484 127.509 612.642 127.476 612.781 127.41C612.923 127.342 613.041 127.243 613.136 127.115C613.231 126.987 613.296 126.832 613.331 126.648H614.477C614.448 127.008 614.342 127.327 614.159 127.605C613.976 127.881 613.726 128.098 613.411 128.255C613.095 128.409 612.724 128.486 612.298 128.486Z" fill="black"/>
<path d="M604.226 128.384H602.914L605.302 121.602H606.819L609.21 128.384H607.898L606.087 122.993H606.034L604.226 128.384ZM604.269 125.725H607.845V126.712H604.269V125.725Z" fill="black"/>
<path d="M629.178 117.007C628.737 117.007 628.342 116.924 627.993 116.758C627.644 116.59 627.367 116.361 627.161 116.069C626.958 115.778 626.85 115.445 626.837 115.069H628.029C628.051 115.347 628.172 115.575 628.39 115.752C628.609 115.926 628.871 116.013 629.178 116.013C629.419 116.013 629.633 115.958 629.821 115.848C630.009 115.737 630.156 115.584 630.265 115.387C630.373 115.191 630.426 114.967 630.424 114.715C630.426 114.459 630.372 114.231 630.261 114.033C630.151 113.834 630 113.678 629.808 113.566C629.616 113.451 629.395 113.393 629.145 113.393C628.942 113.391 628.742 113.429 628.546 113.506C628.349 113.583 628.194 113.685 628.079 113.811L626.969 113.629L627.324 110.131H631.258V111.158H628.34L628.145 112.956H628.185C628.311 112.808 628.488 112.686 628.718 112.589C628.948 112.489 629.199 112.44 629.473 112.44C629.884 112.44 630.25 112.537 630.573 112.731C630.895 112.923 631.149 113.188 631.334 113.526C631.52 113.864 631.613 114.25 631.613 114.685C631.613 115.133 631.509 115.533 631.301 115.884C631.096 116.233 630.81 116.508 630.443 116.709C630.079 116.907 629.657 117.007 629.178 117.007Z" fill="black"/>
<path d="M637.559 116.652V115.81L639.86 113.619C640.08 113.403 640.264 113.212 640.41 113.044C640.557 112.876 640.667 112.714 640.741 112.557C640.814 112.4 640.85 112.232 640.85 112.054C640.85 111.851 640.803 111.677 640.708 111.532C640.613 111.386 640.483 111.272 640.317 111.193C640.15 111.113 639.962 111.073 639.75 111.073C639.532 111.073 639.341 111.117 639.177 111.205C639.013 111.291 638.886 111.414 638.796 111.573C638.707 111.732 638.663 111.922 638.663 112.142H637.521C637.521 111.733 637.616 111.378 637.808 111.077C638.001 110.775 638.265 110.541 638.601 110.376C638.94 110.21 639.328 110.127 639.766 110.127C640.211 110.127 640.601 110.208 640.938 110.369C641.274 110.531 641.536 110.752 641.721 111.033C641.909 111.313 642.003 111.634 642.003 111.994C642.003 112.235 641.955 112.472 641.86 112.705C641.765 112.937 641.598 113.195 641.359 113.478C641.121 113.761 640.788 114.103 640.359 114.505L639.216 115.634V115.678H642.103V116.652H637.559ZM643.462 116.652L646.281 111.234V111.19H643.009V110.215H647.524V111.212L644.708 116.652H643.462ZM650.875 116.775C650.343 116.775 649.885 116.644 649.503 116.382C649.124 116.118 648.831 115.737 648.626 115.241C648.423 114.742 648.322 114.142 648.322 113.44C648.324 112.738 648.427 112.141 648.63 111.649C648.834 111.154 649.127 110.777 649.507 110.517C649.888 110.257 650.345 110.127 650.875 110.127C651.406 110.127 651.862 110.257 652.244 110.517C652.626 110.777 652.918 111.154 653.121 111.649C653.326 112.143 653.429 112.74 653.429 113.44C653.429 114.144 653.326 114.745 653.121 115.244C652.918 115.74 652.626 116.12 652.244 116.382C651.865 116.644 651.408 116.775 650.875 116.775ZM650.875 115.791C651.29 115.791 651.616 115.593 651.856 115.197C652.098 114.799 652.218 114.213 652.218 113.44C652.218 112.929 652.163 112.499 652.053 112.151C651.943 111.804 651.788 111.542 651.587 111.366C651.387 111.188 651.149 111.099 650.875 111.099C650.463 111.099 650.137 111.298 649.898 111.696C649.659 112.092 649.538 112.673 649.536 113.44C649.533 113.953 649.586 114.385 649.694 114.735C649.804 115.085 649.96 115.349 650.16 115.527C650.361 115.703 650.599 115.791 650.875 115.791ZM656.954 116.775C656.421 116.775 655.964 116.644 655.582 116.382C655.202 116.118 654.91 115.737 654.705 115.241C654.502 114.742 654.4 114.142 654.4 113.44C654.403 112.738 654.505 112.141 654.708 111.649C654.913 111.154 655.205 110.777 655.585 110.517C655.967 110.257 656.423 110.127 656.954 110.127C657.484 110.127 657.941 110.257 658.323 110.517C658.705 110.777 658.997 111.154 659.2 111.649C659.405 112.143 659.507 112.74 659.507 113.44C659.507 114.144 659.405 114.745 659.2 115.244C658.997 115.74 658.705 116.12 658.323 116.382C657.943 116.644 657.487 116.775 656.954 116.775ZM656.954 115.791C657.368 115.791 657.695 115.593 657.934 115.197C658.176 114.799 658.297 114.213 658.297 113.44C658.297 112.929 658.242 112.499 658.132 112.151C658.022 111.804 657.866 111.542 657.666 111.366C657.465 111.188 657.228 111.099 656.954 111.099C656.542 111.099 656.216 111.298 655.976 111.696C655.737 112.092 655.616 112.673 655.614 113.44C655.612 113.953 655.665 114.385 655.773 114.735C655.883 115.085 656.038 115.349 656.239 115.527C656.439 115.703 656.678 115.791 656.954 115.791ZM663.278 110.215V116.652H662.077V111.35H662.039L660.489 112.312V111.243L662.136 110.215H663.278Z" fill="black"/>
<path d="M623.027 117.005C622.534 117.005 622.097 116.922 621.715 116.757C621.335 116.591 621.037 116.365 620.821 116.078C620.607 115.789 620.501 115.461 620.503 115.094C620.501 114.809 620.563 114.548 620.688 114.309C620.814 114.071 620.984 113.872 621.198 113.713C621.415 113.552 621.656 113.449 621.92 113.405V113.359C621.572 113.282 621.289 113.104 621.073 112.826C620.858 112.545 620.752 112.222 620.755 111.855C620.752 111.506 620.85 111.195 621.046 110.921C621.243 110.648 621.512 110.432 621.854 110.276C622.196 110.117 622.587 110.037 623.027 110.037C623.462 110.037 623.849 110.117 624.189 110.276C624.531 110.432 624.801 110.648 624.997 110.921C625.196 111.195 625.295 111.506 625.295 111.855C625.295 112.222 625.186 112.545 624.967 112.826C624.751 113.104 624.472 113.282 624.129 113.359V113.405C624.394 113.449 624.633 113.552 624.845 113.713C625.059 113.872 625.229 114.071 625.355 114.309C625.483 114.548 625.547 114.809 625.547 115.094C625.547 115.461 625.439 115.789 625.222 116.078C625.006 116.365 624.708 116.591 624.328 116.757C623.951 116.922 623.517 117.005 623.027 117.005ZM623.027 116.058C623.281 116.058 623.501 116.015 623.689 115.929C623.877 115.841 624.022 115.717 624.126 115.558C624.23 115.399 624.283 115.216 624.285 115.008C624.283 114.792 624.227 114.601 624.116 114.435C624.008 114.267 623.859 114.136 623.669 114.041C623.481 113.946 623.267 113.899 623.027 113.899C622.784 113.899 622.567 113.946 622.377 114.041C622.188 114.136 622.037 114.267 621.927 114.435C621.819 114.601 621.766 114.792 621.768 115.008C621.766 115.216 621.817 115.399 621.92 115.558C622.024 115.715 622.17 115.837 622.358 115.926C622.547 116.014 622.77 116.058 623.027 116.058ZM623.027 112.968C623.234 112.968 623.417 112.926 623.576 112.842C623.738 112.758 623.864 112.641 623.957 112.491C624.05 112.341 624.097 112.168 624.1 111.971C624.097 111.777 624.051 111.607 623.961 111.461C623.87 111.313 623.744 111.2 623.583 111.12C623.422 111.038 623.236 110.998 623.027 110.998C622.812 110.998 622.624 111.038 622.46 111.12C622.299 111.2 622.173 111.313 622.083 111.461C621.994 111.607 621.951 111.777 621.954 111.971C621.951 112.168 621.996 112.341 622.086 112.491C622.179 112.639 622.306 112.756 622.467 112.842C622.63 112.926 622.817 112.968 623.027 112.968Z" fill="black"/>
<path d="M614.092 115.655V114.678L616.97 110.131H617.784V111.522H617.288L615.35 114.592V114.645H619.368V115.655H614.092ZM617.327 116.914V115.357L617.341 114.92V110.131H618.5V116.914H617.327Z" fill="black"/>
<path d="M610.392 117.005C609.916 117.005 609.492 116.923 609.121 116.76C608.752 116.597 608.461 116.369 608.246 116.078C608.032 115.786 607.919 115.45 607.905 115.068H609.151C609.162 115.251 609.222 115.411 609.333 115.548C609.443 115.683 609.59 115.788 609.773 115.863C609.956 115.938 610.162 115.975 610.389 115.975C610.632 115.975 610.847 115.933 611.035 115.849C611.223 115.763 611.369 115.644 611.475 115.492C611.581 115.339 611.633 115.164 611.631 114.965C611.633 114.76 611.58 114.579 611.472 114.422C611.364 114.265 611.207 114.143 611.002 114.054C610.799 113.966 610.554 113.922 610.267 113.922H609.667V112.975H610.267C610.503 112.975 610.709 112.934 610.886 112.852C611.065 112.77 611.205 112.656 611.307 112.508C611.408 112.358 611.458 112.184 611.456 111.988C611.458 111.796 611.415 111.629 611.326 111.488C611.24 111.344 611.118 111.233 610.959 111.153C610.802 111.074 610.618 111.034 610.406 111.034C610.198 111.034 610.006 111.072 609.829 111.147C609.653 111.222 609.51 111.329 609.402 111.468C609.294 111.605 609.237 111.768 609.23 111.958H608.048C608.057 111.578 608.166 111.245 608.376 110.958C608.588 110.669 608.87 110.443 609.223 110.282C609.577 110.119 609.973 110.037 610.412 110.037C610.865 110.037 611.258 110.122 611.591 110.292C611.927 110.46 612.186 110.686 612.37 110.971C612.553 111.256 612.644 111.57 612.644 111.915C612.647 112.297 612.534 112.617 612.307 112.875C612.081 113.134 611.786 113.303 611.419 113.382V113.435C611.896 113.501 612.261 113.678 612.515 113.965C612.771 114.25 612.898 114.604 612.896 115.028C612.896 115.408 612.788 115.748 612.572 116.048C612.357 116.346 612.062 116.58 611.684 116.75C611.309 116.92 610.878 117.005 610.392 117.005Z" fill="black"/>
<path d="M606.048 110.131V116.914H604.819V111.327H604.78L603.193 112.34V111.214L604.879 110.131H606.048Z" fill="black"/>
<path d="M633.352 117.163L635.645 110.259H636.692L634.415 117.163H633.352Z" fill="black"/>
</g>
</svg>
