<svg preserveAspectRatio="none" width="100%" height="100%" overflow="visible" style="display: block;" viewBox="0 0 47.746 47.746" fill="none" xmlns="http://www.w3.org/2000/svg">
<g id="Icon / Phone Call">
<rect width="47.746" height="47.746" rx="23.873" fill="var(--fill-0, #CCFF33)"/>
<path id="SF Symbol / phone.fill" d="M19.7156 28.1763C22.4427 30.9035 25.7549 33.0078 28.4631 33.0078C29.6804 33.0078 30.7467 32.5832 31.6055 31.6395C32.1056 31.0828 32.417 30.4317 32.417 29.79C32.417 29.3182 32.2377 28.8652 31.7942 28.5444L28.8972 26.4872C28.4537 26.1853 28.0857 26.0343 27.746 26.0343C27.3213 26.0343 26.9344 26.2796 26.5004 26.7043L25.8304 27.3648C25.7266 27.4686 25.5945 27.5158 25.4718 27.5158C25.3302 27.5158 25.1887 27.4592 25.0943 27.412C24.5093 27.1006 23.509 26.2419 22.5748 25.3171C21.65 24.3923 20.7913 23.3921 20.4894 22.807C20.4422 22.7032 20.3856 22.5711 20.3856 22.4296C20.3856 22.3069 20.4233 22.1842 20.5271 22.0804L21.1971 21.3916C21.6123 20.9575 21.8671 20.58 21.8671 20.146C21.8671 19.8063 21.7067 19.4382 21.3953 18.9947L19.3664 16.1355C19.0362 15.6825 18.5738 15.4844 18.0642 15.4844C17.4414 15.4844 16.7997 15.7675 16.243 16.3053C15.3276 17.1829 14.9219 18.2681 14.9219 19.4665C14.9219 22.1748 16.9884 25.4587 19.7156 28.1763Z" fill="var(--fill-0, black)"/>
</g>
</svg>
