<svg width="71" height="29" viewBox="0 0 71 29" fill="none" xmlns="http://www.w3.org/2000/svg">
<g clip-path="url(#clip0_8217_455)">
<path d="M70.39 28.35V0H0V28.35H70.39ZM28.3 2.74L23.44 25.56H15.81L11.02 9.77H10.96L7.77 25.56H1.99L6.88 2.74H14.53L19.23 18.56H19.29L22.51 2.74H28.29H28.3ZM50.11 2.74L45.35 25.56H39.21L41.25 15.79H33.99L31.95 25.56H25.81L30.57 2.74H36.71L34.91 11.47H42.17L43.98 2.74H50.12H50.11ZM67.76 3.36L66.28 7.9C65.1 7.35 63.49 6.86 61.22 6.86C58.79 6.86 56.82 7.22 56.82 9.05C56.82 12.28 65.72 11.08 65.72 18.01C65.72 24.32 59.84 25.95 54.52 25.95C52.15 25.95 49.43 25.39 47.43 24.77L48.88 20.13C50.09 20.92 52.53 21.44 54.53 21.44C56.53 21.44 59.42 21.08 59.42 18.73C59.42 15.07 50.52 16.44 50.52 10.01C50.52 4.12 55.71 2.36 60.74 2.36C63.57 2.36 66.23 2.66 67.77 3.37L67.76 3.36Z" fill="black"/>
</g>
<defs>
<clipPath id="clip0_8217_455">
<rect width="70.39" height="28.35" fill="white"/>
</clipPath>
</defs>
</svg>
