<svg preserveAspectRatio="none" width="100%" height="100%" overflow="visible" style="display: block;" viewBox="0 0 24 24" fill="none" xmlns="http://www.w3.org/2000/svg">
<g id="content-writing">
<path id="Vector" d="M14.4857 22H13V20.5142C13 20.0427 13.1873 19.5905 13.5206 19.2571L18.3875 14.3905C18.9082 13.8698 19.7523 13.8698 20.2729 14.3905L20.6095 14.7271C21.1301 15.2478 21.1301 16.092 20.6095 16.6127L15.7426 21.4793C15.4093 21.8127 14.9571 22 14.4857 22Z" stroke="var(--stroke-0, black)" stroke-width="1.5" stroke-linecap="round" stroke-linejoin="round"/>
<path id="Vector_2" d="M19 10V9C19 5.70017 19 4.05025 17.9749 3.02513C16.9497 2 15.2998 2 12 2H10C6.70017 2 5.05025 2 4.02512 3.02513C3 4.05025 3 5.70017 3 9V16C3 18.3389 3 19.5083 3.53646 20.3621C3.81621 20.8073 4.19267 21.1838 4.63789 21.4635C5.49167 22 6.66111 22 9 22" stroke="var(--stroke-0, black)" stroke-width="1.5" stroke-linecap="round" stroke-linejoin="round"/>
<path id="Vector_3" d="M11 6H15" stroke="var(--stroke-0, black)" stroke-width="1.5" stroke-linecap="round" stroke-linejoin="round"/>
<path id="Vector_4" d="M7 10H15" stroke="var(--stroke-0, black)" stroke-width="1.5" stroke-linecap="round" stroke-linejoin="round"/>
<path id="Vector_5" d="M7 14H13" stroke="var(--stroke-0, black)" stroke-width="1.5" stroke-linecap="round" stroke-linejoin="round"/>
</g>
</svg>
