<svg preserveAspectRatio="none" width="100%" height="100%" overflow="visible" style="display: block;" viewBox="0 0 32 32" fill="none" xmlns="http://www.w3.org/2000/svg">
<g id="calendar-05">
<path id="Vector" d="M21.3385 2.66406V7.9974M10.6719 2.66406V7.9974" stroke="var(--stroke-0, black)" stroke-width="1.5" stroke-linecap="round" stroke-linejoin="round"/>
<path id="Vector_2" d="M17.3333 5.33594H14.6667C9.63835 5.33594 7.1242 5.33594 5.56209 6.89803C4 8.46014 4 10.9743 4 16.0026V18.6693C4 23.6975 4 26.2118 5.56209 27.7738C7.1242 29.3359 9.63835 29.3359 14.6667 29.3359H17.3333C22.3616 29.3359 24.8759 29.3359 26.4379 27.7738C28 26.2118 28 23.6975 28 18.6693V16.0026C28 10.9743 28 8.46014 26.4379 6.89803C24.8759 5.33594 22.3616 5.33594 17.3333 5.33594Z" stroke="var(--stroke-0, black)" stroke-width="1.5" stroke-linecap="round" stroke-linejoin="round"/>
<path id="Vector_3" d="M4 13.3359H28" stroke="var(--stroke-0, black)" stroke-width="1.5" stroke-linecap="round" stroke-linejoin="round"/>
<path id="Vector_4" d="M20.6719 24C21.7764 24 22.6719 23.1045 22.6719 22C22.6719 20.8955 21.7764 20 20.6719 20C19.5673 20 18.6719 20.8955 18.6719 22C18.6719 23.1045 19.5673 24 20.6719 24Z" stroke="var(--stroke-0, black)" stroke-width="1.5" stroke-linecap="round" stroke-linejoin="round"/>
</g>
</svg>
