<svg width="327" height="242" viewBox="0 0 327 242" fill="none" xmlns="http://www.w3.org/2000/svg">
<rect x="0.75" y="0.75" width="325" height="240" rx="40" stroke="black" stroke-width="1.5" stroke-linecap="round" stroke-dasharray="0.01 8"/>
<rect x="8.75" y="8.75" width="309" height="64" rx="32" fill="#EDE7FE"/>
<rect x="16.75" y="16.75" width="48" height="48" rx="24" fill="white"/>
<path d="M40.0833 54.0807C34.7407 54.0807 32.0695 54.0807 30.4097 52.1281C28.75 50.1755 28.75 47.0327 28.75 40.7474C28.75 34.462 28.75 31.3193 30.4097 29.3667C32.0695 27.4141 34.7407 27.4141 40.0833 27.4141C45.4259 27.4141 48.0972 27.4141 49.7569 29.3667C51.0929 30.9385 51.3536 33.2814 51.4044 37.4141" stroke="black" stroke-width="1.5" stroke-linecap="round" stroke-linejoin="round"/>
<path d="M35.4141 35.4141H44.7474M35.4141 42.0807H39.4141" stroke="black" stroke-width="1.5" stroke-linecap="round" stroke-linejoin="round"/>
<path d="M50.893 48.8905C52.0169 48.0724 52.7474 46.7465 52.7474 45.25C52.7474 42.7647 50.7327 40.75 48.2474 40.75H47.9141C45.4287 40.75 43.4141 42.7647 43.4141 45.25C43.4141 46.7465 44.1446 48.0724 45.2685 48.8905M50.893 48.8905C50.1505 49.4311 49.2362 49.75 48.2474 49.75H47.9141C46.9253 49.75 46.011 49.4311 45.2685 48.8905M50.893 48.8905L51.6701 51.3372C51.9665 52.2704 52.1147 52.7371 52.0742 53.0276C51.9898 53.6323 51.4966 54.0812 50.9143 54.0833C50.6346 54.0844 50.2154 53.8644 49.3771 53.4245C49.0177 53.2359 48.8379 53.1415 48.6541 53.086C48.2794 52.9731 47.8821 52.9731 47.5074 53.086C47.3235 53.1415 47.1438 53.2359 46.7843 53.4245C45.9461 53.8644 45.5269 54.0844 45.2471 54.0833C44.6649 54.0812 44.1717 53.6323 44.0873 53.0276C44.0467 52.7371 44.195 52.2704 44.4914 51.3372L45.2685 48.8905" stroke="black" stroke-width="1.5"/>
<path d="M81.912 45.25V35.45H83.648L86.728 39.986L89.78 35.45H91.53V45.25H89.906V38.012L86.714 42.73L83.536 38.04V45.25H81.912ZM93.8475 45.25V35.45H99.8815V36.934H95.4715V39.538H99.3635V40.994H95.4715V43.766H99.9235V45.25H93.8475ZM102.105 45.25V35.45H105.185C106.147 35.45 106.996 35.66 107.733 36.08C108.48 36.4907 109.063 37.0647 109.483 37.802C109.913 38.5393 110.127 39.3887 110.127 40.35C110.127 41.302 109.913 42.1467 109.483 42.884C109.063 43.6213 108.48 44.2 107.733 44.62C106.996 45.04 106.147 45.25 105.185 45.25H102.105ZM103.729 43.738H105.185C105.643 43.738 106.072 43.654 106.473 43.486C106.875 43.3087 107.225 43.066 107.523 42.758C107.822 42.45 108.055 42.0907 108.223 41.68C108.391 41.2693 108.475 40.826 108.475 40.35C108.475 39.874 108.391 39.4307 108.223 39.02C108.055 38.6093 107.822 38.25 107.523 37.942C107.225 37.634 106.875 37.396 106.473 37.228C106.072 37.0507 105.643 36.962 105.185 36.962H103.729V43.738ZM111.84 45.25V35.45H113.464V45.25H111.84ZM120.033 45.418C119.09 45.418 118.25 45.2033 117.513 44.774C116.785 44.3353 116.211 43.738 115.791 42.982C115.38 42.2167 115.175 41.3393 115.175 40.35C115.175 39.3607 115.38 38.488 115.791 37.732C116.211 36.9667 116.785 36.3693 117.513 35.94C118.241 35.5013 119.076 35.282 120.019 35.282C120.654 35.282 121.251 35.3987 121.811 35.632C122.371 35.856 122.866 36.1687 123.295 36.57C123.734 36.9713 124.07 37.438 124.303 37.97L122.819 38.572C122.651 38.2173 122.422 37.9047 122.133 37.634C121.853 37.354 121.531 37.1393 121.167 36.99C120.803 36.8407 120.42 36.766 120.019 36.766C119.403 36.766 118.852 36.92 118.367 37.228C117.891 37.536 117.513 37.9607 117.233 38.502C116.962 39.034 116.827 39.65 116.827 40.35C116.827 41.05 116.962 41.6707 117.233 42.212C117.513 42.7533 117.896 43.178 118.381 43.486C118.876 43.794 119.436 43.948 120.061 43.948C120.472 43.948 120.854 43.8687 121.209 43.71C121.573 43.542 121.895 43.3133 122.175 43.024C122.464 42.7347 122.693 42.3987 122.861 42.016L124.345 42.618C124.112 43.1687 123.78 43.6587 123.351 44.088C122.922 44.508 122.422 44.8347 121.853 45.068C121.284 45.3013 120.677 45.418 120.033 45.418ZM124.872 45.25L128.778 35.45H130.5L134.42 45.25H132.698L131.732 42.842H127.546L126.594 45.25H124.872ZM128.092 41.4H131.186L129.646 37.48L128.092 41.4ZM135.697 45.25V35.45H137.321V43.766H141.759V45.25H135.697ZM150.74 45.418C149.797 45.418 148.957 45.2033 148.22 44.774C147.492 44.3353 146.918 43.738 146.498 42.982C146.087 42.2167 145.882 41.3393 145.882 40.35C145.882 39.3607 146.087 38.488 146.498 37.732C146.918 36.9667 147.492 36.3693 148.22 35.94C148.948 35.5013 149.783 35.282 150.726 35.282C151.361 35.282 151.958 35.3987 152.518 35.632C153.078 35.856 153.573 36.1687 154.002 36.57C154.441 36.9713 154.777 37.438 155.01 37.97L153.526 38.572C153.358 38.2173 153.129 37.9047 152.84 37.634C152.56 37.354 152.238 37.1393 151.874 36.99C151.51 36.8407 151.127 36.766 150.726 36.766C150.11 36.766 149.559 36.92 149.074 37.228C148.598 37.536 148.22 37.9607 147.94 38.502C147.669 39.034 147.534 39.65 147.534 40.35C147.534 41.05 147.669 41.6707 147.94 42.212C148.22 42.7533 148.603 43.178 149.088 43.486C149.583 43.794 150.143 43.948 150.768 43.948C151.179 43.948 151.561 43.8687 151.916 43.71C152.28 43.542 152.602 43.3133 152.882 43.024C153.171 42.7347 153.4 42.3987 153.568 42.016L155.052 42.618C154.819 43.1687 154.487 43.6587 154.058 44.088C153.629 44.508 153.129 44.8347 152.56 45.068C151.991 45.3013 151.384 45.418 150.74 45.418ZM156.615 45.25V35.45H162.649V36.934H158.239V39.538H162.131V40.994H158.239V43.766H162.691V45.25H156.615ZM164.873 45.25V35.45H168.331C169.003 35.45 169.596 35.5807 170.109 35.842C170.622 36.1033 171.024 36.4673 171.313 36.934C171.602 37.3913 171.747 37.9233 171.747 38.53C171.747 39.174 171.57 39.7433 171.215 40.238C170.86 40.7233 170.394 41.0827 169.815 41.316L172.139 45.25H170.305L168.205 41.624C168.149 41.6333 168.088 41.638 168.023 41.638C167.967 41.638 167.906 41.638 167.841 41.638H166.497V45.25H164.873ZM166.497 40.14H168.401C168.718 40.14 168.998 40.07 169.241 39.93C169.493 39.79 169.694 39.5987 169.843 39.356C170.002 39.1133 170.081 38.838 170.081 38.53C170.081 38.0633 169.913 37.6807 169.577 37.382C169.241 37.0833 168.807 36.934 168.275 36.934H166.497V40.14ZM175.694 45.25V36.934H172.684V35.45H180.328V36.934H177.318V45.25H175.694ZM181.676 45.25V35.45H183.3V45.25H181.676ZM185.627 45.25V35.45H191.717V36.934H187.251V39.678H191.073V41.162H187.251V45.25H185.627ZM193.324 45.25V35.45H194.948V45.25H193.324ZM201.517 45.418C200.575 45.418 199.735 45.2033 198.997 44.774C198.269 44.3353 197.695 43.738 197.275 42.982C196.865 42.2167 196.659 41.3393 196.659 40.35C196.659 39.3607 196.865 38.488 197.275 37.732C197.695 36.9667 198.269 36.3693 198.997 35.94C199.725 35.5013 200.561 35.282 201.503 35.282C202.138 35.282 202.735 35.3987 203.295 35.632C203.855 35.856 204.35 36.1687 204.779 36.57C205.218 36.9713 205.554 37.438 205.787 37.97L204.303 38.572C204.135 38.2173 203.907 37.9047 203.617 37.634C203.337 37.354 203.015 37.1393 202.651 36.99C202.287 36.8407 201.905 36.766 201.503 36.766C200.887 36.766 200.337 36.92 199.851 37.228C199.375 37.536 198.997 37.9607 198.717 38.502C198.447 39.034 198.311 39.65 198.311 40.35C198.311 41.05 198.447 41.6707 198.717 42.212C198.997 42.7533 199.38 43.178 199.865 43.486C200.36 43.794 200.92 43.948 201.545 43.948C201.956 43.948 202.339 43.8687 202.693 43.71C203.057 43.542 203.379 43.3133 203.659 43.024C203.949 42.7347 204.177 42.3987 204.345 42.016L205.829 42.618C205.596 43.1687 205.265 43.6587 204.835 44.088C204.406 44.508 203.907 44.8347 203.337 45.068C202.768 45.3013 202.161 45.418 201.517 45.418ZM206.356 45.25L210.262 35.45H211.984L215.904 45.25H214.182L213.216 42.842H209.03L208.078 45.25H206.356ZM209.576 41.4H212.67L211.13 37.48L209.576 41.4ZM218.733 45.25V36.934H215.723V35.45H223.367V36.934H220.357V45.25H218.733ZM224.715 45.25V35.45H226.339V45.25H224.715ZM233.02 45.418C232.049 45.418 231.191 45.2033 230.444 44.774C229.697 44.3447 229.109 43.7473 228.68 42.982C228.26 42.2167 228.05 41.3393 228.05 40.35C228.05 39.3607 228.26 38.488 228.68 37.732C229.109 36.9667 229.693 36.3693 230.43 35.94C231.167 35.5013 232.017 35.282 232.978 35.282C233.949 35.282 234.803 35.5013 235.54 35.94C236.287 36.3693 236.865 36.9667 237.276 37.732C237.696 38.488 237.906 39.3607 237.906 40.35C237.906 41.3393 237.696 42.2167 237.276 42.982C236.865 43.7473 236.291 44.3447 235.554 44.774C234.826 45.2033 233.981 45.418 233.02 45.418ZM233.02 43.934C233.655 43.934 234.215 43.78 234.7 43.472C235.185 43.164 235.563 42.744 235.834 42.212C236.114 41.6707 236.254 41.05 236.254 40.35C236.254 39.6593 236.114 39.0433 235.834 38.502C235.554 37.9607 235.167 37.5407 234.672 37.242C234.187 36.934 233.622 36.78 232.978 36.78C232.343 36.78 231.779 36.934 231.284 37.242C230.799 37.5407 230.411 37.9607 230.122 38.502C229.842 39.034 229.702 39.65 229.702 40.35C229.702 41.05 229.842 41.6707 230.122 42.212C230.411 42.744 230.803 43.164 231.298 43.472C231.802 43.78 232.376 43.934 233.02 43.934ZM239.631 45.25V35.45H241.311L246.519 42.534V35.45H248.143V45.25H246.519L241.255 38.082V45.25H239.631ZM253.693 45.418C253.179 45.418 252.708 45.3573 252.279 45.236C251.859 45.1147 251.485 44.9467 251.159 44.732C250.841 44.5173 250.575 44.2793 250.361 44.018C250.155 43.7473 250.011 43.4673 249.927 43.178L251.523 42.688C251.644 43.0333 251.882 43.3367 252.237 43.598C252.591 43.8593 253.03 43.9947 253.553 44.004C254.159 44.004 254.64 43.878 254.995 43.626C255.349 43.374 255.527 43.0427 255.527 42.632C255.527 42.2587 255.377 41.9553 255.079 41.722C254.78 41.4793 254.379 41.2927 253.875 41.162L252.671 40.854C252.213 40.7327 251.798 40.5553 251.425 40.322C251.061 40.0887 250.771 39.7947 250.557 39.44C250.351 39.0853 250.249 38.6653 250.249 38.18C250.249 37.2653 250.547 36.556 251.145 36.052C251.742 35.5387 252.596 35.282 253.707 35.282C254.332 35.282 254.878 35.38 255.345 35.576C255.821 35.7627 256.213 36.024 256.521 36.36C256.829 36.6867 257.057 37.06 257.207 37.48L255.639 37.984C255.499 37.6107 255.256 37.3027 254.911 37.06C254.565 36.8173 254.136 36.696 253.623 36.696C253.091 36.696 252.671 36.822 252.363 37.074C252.064 37.326 251.915 37.676 251.915 38.124C251.915 38.488 252.031 38.7727 252.265 38.978C252.507 39.174 252.834 39.3233 253.245 39.426L254.449 39.72C255.326 39.9347 256.007 40.3033 256.493 40.826C256.978 41.3487 257.221 41.9273 257.221 42.562C257.221 43.122 257.085 43.6167 256.815 44.046C256.544 44.4753 256.143 44.8113 255.611 45.054C255.088 45.2967 254.449 45.418 253.693 45.418Z" fill="black"/>
<rect x="8.75" y="88.75" width="309" height="64" rx="32" fill="#EDE7FE"/>
<rect x="16.75" y="96.75" width="48" height="48" rx="24" fill="white"/>
<path d="M28.75 110.75C28.75 109.645 29.6454 108.75 30.75 108.75H33.4167C34.5212 108.75 35.4167 109.645 35.4167 110.75V113.417C35.4167 114.521 34.5212 115.417 33.4167 115.417H30.75C29.6454 115.417 28.75 114.521 28.75 113.417V110.75Z" stroke="black" stroke-width="1.5"/>
<path d="M28.75 128.086C28.75 126.981 29.6454 126.086 30.75 126.086H33.4167C34.5212 126.086 35.4167 126.981 35.4167 128.086V130.753C35.4167 131.857 34.5212 132.753 33.4167 132.753H30.75C29.6454 132.753 28.75 131.857 28.75 130.753V128.086Z" stroke="black" stroke-width="1.5"/>
<path d="M35.4138 129.419H52.7471M46.0804 112.086H35.4138M46.5117 114.988L34.9453 126.554" stroke="black" stroke-width="1.5" stroke-linecap="round" stroke-linejoin="round"/>
<path d="M46.0859 110.75C46.0859 109.645 46.9814 108.75 48.0859 108.75H50.7526C51.8571 108.75 52.7526 109.645 52.7526 110.75V113.417C52.7526 114.521 51.8571 115.417 50.7526 115.417H48.0859C46.9814 115.417 46.0859 114.521 46.0859 113.417V110.75Z" stroke="black" stroke-width="1.5"/>
<path d="M48.75 132.753L50.6011 131.491C52.0337 130.514 52.75 130.026 52.75 129.419C52.75 128.812 52.0337 128.324 50.6011 127.348L48.75 126.086" stroke="black" stroke-width="1.5" stroke-linecap="round" stroke-linejoin="round"/>
<path d="M81.912 125.25V115.45H83.536V119.482H88.464V115.45H90.088V125.25H88.464V120.966H83.536V125.25H81.912ZM94.848 125.25V121.134L91.362 115.45H93.224L95.66 119.496L98.096 115.45H99.958L96.472 121.12V125.25H94.848ZM101.23 125.25V115.45H104.464C105.136 115.45 105.715 115.553 106.2 115.758C106.695 115.963 107.078 116.271 107.348 116.682C107.619 117.083 107.754 117.587 107.754 118.194C107.754 118.614 107.652 118.992 107.446 119.328C107.25 119.664 106.97 119.944 106.606 120.168C107.082 120.401 107.446 120.714 107.698 121.106C107.95 121.498 108.076 121.965 108.076 122.506C108.076 123.085 107.946 123.579 107.684 123.99C107.423 124.401 107.054 124.713 106.578 124.928C106.102 125.143 105.538 125.25 104.884 125.25H101.23ZM102.826 123.794H104.758C105.272 123.794 105.678 123.668 105.976 123.416C106.275 123.164 106.424 122.823 106.424 122.394C106.424 121.927 106.256 121.563 105.92 121.302C105.594 121.041 105.132 120.91 104.534 120.91H102.826V123.794ZM102.826 119.566H104.604C105.071 119.566 105.435 119.445 105.696 119.202C105.967 118.95 106.102 118.605 106.102 118.166C106.102 117.718 105.948 117.377 105.64 117.144C105.342 116.901 104.922 116.78 104.38 116.78H102.826V119.566ZM109.803 125.25V115.45H113.261C113.933 115.45 114.525 115.581 115.039 115.842C115.552 116.103 115.953 116.467 116.243 116.934C116.532 117.391 116.677 117.923 116.677 118.53C116.677 119.174 116.499 119.743 116.145 120.238C115.79 120.723 115.323 121.083 114.745 121.316L117.069 125.25H115.235L113.135 121.624C113.079 121.633 113.018 121.638 112.953 121.638C112.897 121.638 112.836 121.638 112.771 121.638H111.427V125.25H109.803ZM111.427 120.14H113.331C113.648 120.14 113.928 120.07 114.171 119.93C114.423 119.79 114.623 119.599 114.773 119.356C114.931 119.113 115.011 118.838 115.011 118.53C115.011 118.063 114.843 117.681 114.507 117.382C114.171 117.083 113.737 116.934 113.205 116.934H111.427V120.14ZM118.717 125.25V115.45H120.341V125.25H118.717ZM122.668 125.25V115.45H125.748C126.709 115.45 127.559 115.66 128.296 116.08C129.043 116.491 129.626 117.065 130.046 117.802C130.475 118.539 130.69 119.389 130.69 120.35C130.69 121.302 130.475 122.147 130.046 122.884C129.626 123.621 129.043 124.2 128.296 124.62C127.559 125.04 126.709 125.25 125.748 125.25H122.668ZM124.292 123.738H125.748C126.205 123.738 126.635 123.654 127.036 123.486C127.437 123.309 127.787 123.066 128.086 122.758C128.385 122.45 128.618 122.091 128.786 121.68C128.954 121.269 129.038 120.826 129.038 120.35C129.038 119.874 128.954 119.431 128.786 119.02C128.618 118.609 128.385 118.25 128.086 117.942C127.787 117.634 127.437 117.396 127.036 117.228C126.635 117.051 126.205 116.962 125.748 116.962H124.292V123.738ZM135.779 125.25V115.45H138.859C139.821 115.45 140.67 115.66 141.407 116.08C142.154 116.491 142.737 117.065 143.157 117.802C143.587 118.539 143.801 119.389 143.801 120.35C143.801 121.302 143.587 122.147 143.157 122.884C142.737 123.621 142.154 124.2 141.407 124.62C140.67 125.04 139.821 125.25 138.859 125.25H135.779ZM137.403 123.738H138.859C139.317 123.738 139.746 123.654 140.147 123.486C140.549 123.309 140.899 123.066 141.197 122.758C141.496 122.45 141.729 122.091 141.897 121.68C142.065 121.269 142.149 120.826 142.149 120.35C142.149 119.874 142.065 119.431 141.897 119.02C141.729 118.609 141.496 118.25 141.197 117.942C140.899 117.634 140.549 117.396 140.147 117.228C139.746 117.051 139.317 116.962 138.859 116.962H137.403V123.738ZM145.514 125.25V115.45H151.548V116.934H147.138V119.538H151.03V120.994H147.138V123.766H151.59V125.25H145.514ZM155.801 125.25V116.934H152.791V115.45H160.435V116.934H157.425V125.25H155.801ZM161.783 125.25V115.45H167.817V116.934H163.407V119.538H167.299V120.994H163.407V123.766H167.859V125.25H161.783ZM170.041 125.25V115.45H173.499C174.171 115.45 174.764 115.581 175.277 115.842C175.79 116.103 176.192 116.467 176.481 116.934C176.77 117.391 176.915 117.923 176.915 118.53C176.915 119.174 176.738 119.743 176.383 120.238C176.028 120.723 175.562 121.083 174.983 121.316L177.307 125.25H175.473L173.373 121.624C173.317 121.633 173.256 121.638 173.191 121.638C173.135 121.638 173.074 121.638 173.009 121.638H171.665V125.25H170.041ZM171.665 120.14H173.569C173.886 120.14 174.166 120.07 174.409 119.93C174.661 119.79 174.862 119.599 175.011 119.356C175.17 119.113 175.249 118.838 175.249 118.53C175.249 118.063 175.081 117.681 174.745 117.382C174.409 117.083 173.975 116.934 173.443 116.934H171.665V120.14ZM178.955 125.25V115.45H180.691L183.771 119.986L186.823 115.45H188.573V125.25H186.949V118.012L183.757 122.73L180.579 118.04V125.25H178.955ZM190.891 125.25V115.45H192.515V125.25H190.891ZM194.842 125.25V115.45H196.522L201.73 122.534V115.45H203.354V125.25H201.73L196.466 118.082V125.25H194.842ZM205.683 125.25V115.45H207.307V125.25H205.683ZM212.855 125.418C212.341 125.418 211.87 125.357 211.441 125.236C211.021 125.115 210.647 124.947 210.321 124.732C210.003 124.517 209.737 124.279 209.523 124.018C209.317 123.747 209.173 123.467 209.089 123.178L210.685 122.688C210.806 123.033 211.044 123.337 211.399 123.598C211.753 123.859 212.192 123.995 212.715 124.004C213.321 124.004 213.802 123.878 214.157 123.626C214.511 123.374 214.689 123.043 214.689 122.632C214.689 122.259 214.539 121.955 214.241 121.722C213.942 121.479 213.541 121.293 213.037 121.162L211.833 120.854C211.375 120.733 210.96 120.555 210.587 120.322C210.223 120.089 209.933 119.795 209.719 119.44C209.513 119.085 209.411 118.665 209.411 118.18C209.411 117.265 209.709 116.556 210.307 116.052C210.904 115.539 211.758 115.282 212.869 115.282C213.494 115.282 214.04 115.38 214.507 115.576C214.983 115.763 215.375 116.024 215.683 116.36C215.991 116.687 216.219 117.06 216.369 117.48L214.801 117.984C214.661 117.611 214.418 117.303 214.073 117.06C213.727 116.817 213.298 116.696 212.785 116.696C212.253 116.696 211.833 116.822 211.525 117.074C211.226 117.326 211.077 117.676 211.077 118.124C211.077 118.488 211.193 118.773 211.427 118.978C211.669 119.174 211.996 119.323 212.407 119.426L213.611 119.72C214.488 119.935 215.169 120.303 215.655 120.826C216.14 121.349 216.383 121.927 216.383 122.562C216.383 123.122 216.247 123.617 215.977 124.046C215.706 124.475 215.305 124.811 214.773 125.054C214.25 125.297 213.611 125.418 212.855 125.418ZM220.21 125.25V116.934H217.2V115.45H224.844V116.934H221.834V125.25H220.21ZM226.191 125.25V115.45H227.815V125.25H226.191ZM234.384 125.418C233.442 125.418 232.602 125.203 231.864 124.774C231.136 124.335 230.562 123.738 230.142 122.982C229.732 122.217 229.526 121.339 229.526 120.35C229.526 119.361 229.732 118.488 230.142 117.732C230.562 116.967 231.136 116.369 231.864 115.94C232.592 115.501 233.428 115.282 234.37 115.282C235.005 115.282 235.602 115.399 236.162 115.632C236.722 115.856 237.217 116.169 237.646 116.57C238.085 116.971 238.421 117.438 238.654 117.97L237.17 118.572C237.002 118.217 236.774 117.905 236.484 117.634C236.204 117.354 235.882 117.139 235.518 116.99C235.154 116.841 234.772 116.766 234.37 116.766C233.754 116.766 233.204 116.92 232.718 117.228C232.242 117.536 231.864 117.961 231.584 118.502C231.314 119.034 231.178 119.65 231.178 120.35C231.178 121.05 231.314 121.671 231.584 122.212C231.864 122.753 232.247 123.178 232.732 123.486C233.227 123.794 233.787 123.948 234.412 123.948C234.823 123.948 235.206 123.869 235.56 123.71C235.924 123.542 236.246 123.313 236.526 123.024C236.816 122.735 237.044 122.399 237.212 122.016L238.696 122.618C238.463 123.169 238.132 123.659 237.702 124.088C237.273 124.508 236.774 124.835 236.204 125.068C235.635 125.301 235.028 125.418 234.384 125.418ZM243.637 125.25V115.45H245.261V123.766H249.699V125.25H243.637ZM255.196 125.418C254.225 125.418 253.366 125.203 252.62 124.774C251.873 124.345 251.285 123.747 250.856 122.982C250.436 122.217 250.226 121.339 250.226 120.35C250.226 119.361 250.436 118.488 250.856 117.732C251.285 116.967 251.868 116.369 252.606 115.94C253.343 115.501 254.192 115.282 255.154 115.282C256.124 115.282 256.978 115.501 257.716 115.94C258.462 116.369 259.041 116.967 259.452 117.732C259.872 118.488 260.082 119.361 260.082 120.35C260.082 121.339 259.872 122.217 259.452 122.982C259.041 123.747 258.467 124.345 257.73 124.774C257.002 125.203 256.157 125.418 255.196 125.418ZM255.196 123.934C255.83 123.934 256.39 123.78 256.876 123.472C257.361 123.164 257.739 122.744 258.01 122.212C258.29 121.671 258.43 121.05 258.43 120.35C258.43 119.659 258.29 119.043 258.01 118.502C257.73 117.961 257.342 117.541 256.848 117.242C256.362 116.934 255.798 116.78 255.154 116.78C254.519 116.78 253.954 116.934 253.46 117.242C252.974 117.541 252.587 117.961 252.298 118.502C252.018 119.034 251.878 119.65 251.878 120.35C251.878 121.05 252.018 121.671 252.298 122.212C252.587 122.744 252.979 123.164 253.474 123.472C253.978 123.78 254.552 123.934 255.196 123.934ZM266.301 125.418C265.311 125.418 264.429 125.203 263.655 124.774C262.889 124.335 262.287 123.738 261.849 122.982C261.41 122.217 261.191 121.344 261.191 120.364C261.191 119.365 261.41 118.488 261.849 117.732C262.287 116.967 262.889 116.369 263.655 115.94C264.429 115.501 265.311 115.282 266.301 115.282C266.87 115.282 267.402 115.371 267.897 115.548C268.401 115.725 268.853 115.968 269.255 116.276C269.656 116.575 269.983 116.925 270.235 117.326L268.919 118.166C268.741 117.895 268.513 117.653 268.233 117.438C267.953 117.223 267.645 117.06 267.309 116.948C266.982 116.827 266.646 116.766 266.301 116.766C265.629 116.766 265.031 116.92 264.509 117.228C263.995 117.536 263.589 117.961 263.291 118.502C262.992 119.034 262.843 119.655 262.843 120.364C262.843 121.055 262.987 121.671 263.277 122.212C263.575 122.753 263.986 123.178 264.509 123.486C265.041 123.794 265.652 123.948 266.343 123.948C266.875 123.948 267.351 123.841 267.771 123.626C268.191 123.411 268.522 123.113 268.765 122.73C269.017 122.347 269.152 121.909 269.171 121.414H266.833V120.098H270.739V121.19C270.72 122.058 270.519 122.809 270.137 123.444C269.763 124.079 269.245 124.569 268.583 124.914C267.92 125.25 267.159 125.418 266.301 125.418ZM272.156 125.25V115.45H273.78V125.25H272.156ZM280.349 125.418C279.407 125.418 278.567 125.203 277.829 124.774C277.101 124.335 276.527 123.738 276.107 122.982C275.697 122.217 275.491 121.339 275.491 120.35C275.491 119.361 275.697 118.488 276.107 117.732C276.527 116.967 277.101 116.369 277.829 115.94C278.557 115.501 279.393 115.282 280.335 115.282C280.97 115.282 281.567 115.399 282.127 115.632C282.687 115.856 283.182 116.169 283.611 116.57C284.05 116.971 284.386 117.438 284.619 117.97L283.135 118.572C282.967 118.217 282.739 117.905 282.449 117.634C282.169 117.354 281.847 117.139 281.483 116.99C281.119 116.841 280.737 116.766 280.335 116.766C279.719 116.766 279.169 116.92 278.683 117.228C278.207 117.536 277.829 117.961 277.549 118.502C277.279 119.034 277.143 119.65 277.143 120.35C277.143 121.05 277.279 121.671 277.549 122.212C277.829 122.753 278.212 123.178 278.697 123.486C279.192 123.794 279.752 123.948 280.377 123.948C280.788 123.948 281.171 123.869 281.525 123.71C281.889 123.542 282.211 123.313 282.491 123.024C282.781 122.735 283.009 122.399 283.177 122.016L284.661 122.618C284.428 123.169 284.097 123.659 283.667 124.088C283.238 124.508 282.739 124.835 282.169 125.068C281.6 125.301 280.993 125.418 280.349 125.418Z" fill="black"/>
<rect x="8.75" y="168.75" width="309" height="64" rx="32" fill="#EDE7FE"/>
<rect x="16.75" y="176.75" width="48" height="48" rx="24" fill="white"/>
<path d="M28.75 203.414V198.081C28.75 193.052 28.75 190.538 30.3121 188.976C31.8742 187.414 34.3883 187.414 39.4167 187.414H42.0833C47.1116 187.414 49.6259 187.414 51.1879 188.976C52.75 190.538 52.75 193.052 52.75 198.081V203.414C52.75 208.442 52.75 210.957 51.1879 212.519C49.6259 214.081 47.1116 214.081 42.0833 214.081H39.4167C34.3883 214.081 31.8742 214.081 30.3121 212.519C28.75 210.957 28.75 208.442 28.75 203.414Z" stroke="black" stroke-width="1.5"/>
<path d="M39.8585 198.972C41.2651 200.379 43.1178 201.808 43.1178 201.808L45.6574 199.269C45.6574 199.269 44.2281 197.416 42.8215 196.009C41.4149 194.603 39.5622 193.173 39.5622 193.173L37.0225 195.713C37.0225 195.713 38.4519 197.566 39.8585 198.972ZM39.8585 198.972L35.4141 203.417M46.0807 198.845L42.6945 202.231M39.9855 192.75L36.5992 196.136" stroke="black" stroke-width="1.5" stroke-linecap="round" stroke-linejoin="round"/>
<path d="M35.4141 208.75H46.0807" stroke="black" stroke-width="1.5" stroke-linecap="round"/>
<path d="M86.154 205.418C85.2113 205.418 84.3713 205.203 83.634 204.774C82.906 204.335 82.332 203.738 81.912 202.982C81.5013 202.217 81.296 201.339 81.296 200.35C81.296 199.361 81.5013 198.488 81.912 197.732C82.332 196.967 82.906 196.369 83.634 195.94C84.362 195.501 85.1973 195.282 86.14 195.282C86.7747 195.282 87.372 195.399 87.932 195.632C88.492 195.856 88.9867 196.169 89.416 196.57C89.8547 196.971 90.1907 197.438 90.424 197.97L88.94 198.572C88.772 198.217 88.5433 197.905 88.254 197.634C87.974 197.354 87.652 197.139 87.288 196.99C86.924 196.841 86.5413 196.766 86.14 196.766C85.524 196.766 84.9733 196.92 84.488 197.228C84.012 197.536 83.634 197.961 83.354 198.502C83.0833 199.034 82.948 199.65 82.948 200.35C82.948 201.05 83.0833 201.671 83.354 202.212C83.634 202.753 84.0167 203.178 84.502 203.486C84.9967 203.794 85.5567 203.948 86.182 203.948C86.5927 203.948 86.9753 203.869 87.33 203.71C87.694 203.542 88.016 203.313 88.296 203.024C88.5853 202.735 88.814 202.399 88.982 202.016L90.466 202.618C90.2327 203.169 89.9013 203.659 89.472 204.088C89.0427 204.508 88.5433 204.835 87.974 205.068C87.4047 205.301 86.798 205.418 86.154 205.418ZM92.0292 205.25V195.45H93.6532V203.766H98.0912V205.25H92.0292ZM99.453 205.25V195.45H101.077V205.25H99.453ZM103.404 205.25V195.45H105.084L110.292 202.534V195.45H111.916V205.25H110.292L105.028 198.082V205.25H103.404ZM114.246 205.25V195.45H115.87V205.25H114.246ZM122.439 205.418C121.496 205.418 120.656 205.203 119.919 204.774C119.191 204.335 118.617 203.738 118.197 202.982C117.786 202.217 117.581 201.339 117.581 200.35C117.581 199.361 117.786 198.488 118.197 197.732C118.617 196.967 119.191 196.369 119.919 195.94C120.647 195.501 121.482 195.282 122.425 195.282C123.06 195.282 123.657 195.399 124.217 195.632C124.777 195.856 125.272 196.169 125.701 196.57C126.14 196.971 126.476 197.438 126.709 197.97L125.225 198.572C125.057 198.217 124.828 197.905 124.539 197.634C124.259 197.354 123.937 197.139 123.573 196.99C123.209 196.841 122.826 196.766 122.425 196.766C121.809 196.766 121.258 196.92 120.773 197.228C120.297 197.536 119.919 197.961 119.639 198.502C119.368 199.034 119.233 199.65 119.233 200.35C119.233 201.05 119.368 201.671 119.639 202.212C119.919 202.753 120.302 203.178 120.787 203.486C121.282 203.794 121.842 203.948 122.467 203.948C122.878 203.948 123.26 203.869 123.615 203.71C123.979 203.542 124.301 203.313 124.581 203.024C124.87 202.735 125.099 202.399 125.267 202.016L126.751 202.618C126.518 203.169 126.186 203.659 125.757 204.088C125.328 204.508 124.828 204.835 124.259 205.068C123.69 205.301 123.083 205.418 122.439 205.418ZM127.278 205.25L131.184 195.45H132.906L136.826 205.25H135.104L134.138 202.842H129.952L129 205.25H127.278ZM130.498 201.4H133.592L132.052 197.48L130.498 201.4ZM138.103 205.25V195.45H139.727V203.766H144.165V205.25H138.103ZM148.904 205.25V195.45H152.362C153.034 195.45 153.627 195.585 154.14 195.856C154.654 196.127 155.055 196.505 155.344 196.99C155.634 197.466 155.778 198.021 155.778 198.656C155.778 199.272 155.643 199.823 155.372 200.308C155.102 200.793 154.724 201.176 154.238 201.456C153.762 201.727 153.207 201.862 152.572 201.862H150.528V205.25H148.904ZM150.528 200.364H152.544C153.011 200.364 153.394 200.205 153.692 199.888C153.991 199.571 154.14 199.16 154.14 198.656C154.14 198.143 153.972 197.727 153.636 197.41C153.3 197.093 152.866 196.934 152.334 196.934H150.528V200.364ZM157.217 205.25V195.45H160.675C161.347 195.45 161.939 195.581 162.453 195.842C162.966 196.103 163.367 196.467 163.657 196.934C163.946 197.391 164.091 197.923 164.091 198.53C164.091 199.174 163.913 199.743 163.559 200.238C163.204 200.723 162.737 201.083 162.159 201.316L164.483 205.25H162.649L160.549 201.624C160.493 201.633 160.432 201.638 160.367 201.638C160.311 201.638 160.25 201.638 160.185 201.638H158.841V205.25H157.217ZM158.841 200.14H160.745C161.062 200.14 161.342 200.07 161.585 199.93C161.837 199.79 162.037 199.599 162.187 199.356C162.345 199.113 162.425 198.838 162.425 198.53C162.425 198.063 162.257 197.681 161.921 197.382C161.585 197.083 161.151 196.934 160.619 196.934H158.841V200.14ZM170.485 205.418C169.514 205.418 168.655 205.203 167.909 204.774C167.162 204.345 166.574 203.747 166.145 202.982C165.725 202.217 165.515 201.339 165.515 200.35C165.515 199.361 165.725 198.488 166.145 197.732C166.574 196.967 167.157 196.369 167.895 195.94C168.632 195.501 169.481 195.282 170.443 195.282C171.413 195.282 172.267 195.501 173.005 195.94C173.751 196.369 174.33 196.967 174.741 197.732C175.161 198.488 175.371 199.361 175.371 200.35C175.371 201.339 175.161 202.217 174.741 202.982C174.33 203.747 173.756 204.345 173.019 204.774C172.291 205.203 171.446 205.418 170.485 205.418ZM170.485 203.934C171.119 203.934 171.679 203.78 172.165 203.472C172.65 203.164 173.028 202.744 173.299 202.212C173.579 201.671 173.719 201.05 173.719 200.35C173.719 199.659 173.579 199.043 173.299 198.502C173.019 197.961 172.631 197.541 172.137 197.242C171.651 196.934 171.087 196.78 170.443 196.78C169.808 196.78 169.243 196.934 168.749 197.242C168.263 197.541 167.876 197.961 167.587 198.502C167.307 199.034 167.167 199.65 167.167 200.35C167.167 201.05 167.307 201.671 167.587 202.212C167.876 202.744 168.268 203.164 168.763 203.472C169.267 203.78 169.841 203.934 170.485 203.934ZM178.907 205.25V196.934H175.897V195.45H183.541V196.934H180.531V205.25H178.907ZM189.243 205.418C188.272 205.418 187.413 205.203 186.667 204.774C185.92 204.345 185.332 203.747 184.903 202.982C184.483 202.217 184.273 201.339 184.273 200.35C184.273 199.361 184.483 198.488 184.903 197.732C185.332 196.967 185.915 196.369 186.653 195.94C187.39 195.501 188.239 195.282 189.201 195.282C190.171 195.282 191.025 195.501 191.763 195.94C192.509 196.369 193.088 196.967 193.499 197.732C193.919 198.488 194.129 199.361 194.129 200.35C194.129 201.339 193.919 202.217 193.499 202.982C193.088 203.747 192.514 204.345 191.777 204.774C191.049 205.203 190.204 205.418 189.243 205.418ZM189.243 203.934C189.877 203.934 190.437 203.78 190.923 203.472C191.408 203.164 191.786 202.744 192.057 202.212C192.337 201.671 192.477 201.05 192.477 200.35C192.477 199.659 192.337 199.043 192.057 198.502C191.777 197.961 191.389 197.541 190.895 197.242C190.409 196.934 189.845 196.78 189.201 196.78C188.566 196.78 188.001 196.934 187.507 197.242C187.021 197.541 186.634 197.961 186.345 198.502C186.065 199.034 185.925 199.65 185.925 200.35C185.925 201.05 186.065 201.671 186.345 202.212C186.634 202.744 187.026 203.164 187.521 203.472C188.025 203.78 188.599 203.934 189.243 203.934ZM200.095 205.418C199.153 205.418 198.313 205.203 197.575 204.774C196.847 204.335 196.273 203.738 195.853 202.982C195.443 202.217 195.237 201.339 195.237 200.35C195.237 199.361 195.443 198.488 195.853 197.732C196.273 196.967 196.847 196.369 197.575 195.94C198.303 195.501 199.139 195.282 200.081 195.282C200.716 195.282 201.313 195.399 201.873 195.632C202.433 195.856 202.928 196.169 203.357 196.57C203.796 196.971 204.132 197.438 204.365 197.97L202.881 198.572C202.713 198.217 202.485 197.905 202.195 197.634C201.915 197.354 201.593 197.139 201.229 196.99C200.865 196.841 200.483 196.766 200.081 196.766C199.465 196.766 198.915 196.92 198.429 197.228C197.953 197.536 197.575 197.961 197.295 198.502C197.025 199.034 196.889 199.65 196.889 200.35C196.889 201.05 197.025 201.671 197.295 202.212C197.575 202.753 197.958 203.178 198.443 203.486C198.938 203.794 199.498 203.948 200.123 203.948C200.534 203.948 200.917 203.869 201.271 203.71C201.635 203.542 201.957 203.313 202.237 203.024C202.527 202.735 202.755 202.399 202.923 202.016L204.407 202.618C204.174 203.169 203.843 203.659 203.413 204.088C202.984 204.508 202.485 204.835 201.915 205.068C201.346 205.301 200.739 205.418 200.095 205.418ZM210.325 205.418C209.354 205.418 208.495 205.203 207.749 204.774C207.002 204.345 206.414 203.747 205.985 202.982C205.565 202.217 205.355 201.339 205.355 200.35C205.355 199.361 205.565 198.488 205.985 197.732C206.414 196.967 206.997 196.369 207.735 195.94C208.472 195.501 209.321 195.282 210.283 195.282C211.253 195.282 212.107 195.501 212.845 195.94C213.591 196.369 214.17 196.967 214.581 197.732C215.001 198.488 215.211 199.361 215.211 200.35C215.211 201.339 215.001 202.217 214.581 202.982C214.17 203.747 213.596 204.345 212.859 204.774C212.131 205.203 211.286 205.418 210.325 205.418ZM210.325 203.934C210.959 203.934 211.519 203.78 212.005 203.472C212.49 203.164 212.868 202.744 213.139 202.212C213.419 201.671 213.559 201.05 213.559 200.35C213.559 199.659 213.419 199.043 213.139 198.502C212.859 197.961 212.471 197.541 211.977 197.242C211.491 196.934 210.927 196.78 210.283 196.78C209.648 196.78 209.083 196.934 208.589 197.242C208.103 197.541 207.716 197.961 207.427 198.502C207.147 199.034 207.007 199.65 207.007 200.35C207.007 201.05 207.147 201.671 207.427 202.212C207.716 202.744 208.108 203.164 208.603 203.472C209.107 203.78 209.681 203.934 210.325 203.934ZM216.935 205.25V195.45H218.559V203.766H222.997V205.25H216.935ZM227.579 205.418C227.066 205.418 226.595 205.357 226.165 205.236C225.745 205.115 225.372 204.947 225.045 204.732C224.728 204.517 224.462 204.279 224.247 204.018C224.042 203.747 223.897 203.467 223.813 203.178L225.409 202.688C225.531 203.033 225.769 203.337 226.123 203.598C226.478 203.859 226.917 203.995 227.439 204.004C228.046 204.004 228.527 203.878 228.881 203.626C229.236 203.374 229.413 203.043 229.413 202.632C229.413 202.259 229.264 201.955 228.965 201.722C228.667 201.479 228.265 201.293 227.761 201.162L226.557 200.854C226.1 200.733 225.685 200.555 225.311 200.322C224.947 200.089 224.658 199.795 224.443 199.44C224.238 199.085 224.135 198.665 224.135 198.18C224.135 197.265 224.434 196.556 225.031 196.052C225.629 195.539 226.483 195.282 227.593 195.282C228.219 195.282 228.765 195.38 229.231 195.576C229.707 195.763 230.099 196.024 230.407 196.36C230.715 196.687 230.944 197.06 231.093 197.48L229.525 197.984C229.385 197.611 229.143 197.303 228.797 197.06C228.452 196.817 228.023 196.696 227.509 196.696C226.977 196.696 226.557 196.822 226.249 197.074C225.951 197.326 225.801 197.676 225.801 198.124C225.801 198.488 225.918 198.773 226.151 198.978C226.394 199.174 226.721 199.323 227.131 199.426L228.335 199.72C229.213 199.935 229.894 200.303 230.379 200.826C230.865 201.349 231.107 201.927 231.107 202.562C231.107 203.122 230.972 203.617 230.701 204.046C230.431 204.475 230.029 204.811 229.497 205.054C228.975 205.297 228.335 205.418 227.579 205.418Z" fill="black"/>
</svg>
