<svg preserveAspectRatio="none" width="100%" height="100%" overflow="visible" style="display: block;" viewBox="0 0 32 32" fill="none" xmlns="http://www.w3.org/2000/svg">
<g id="search-visual">
<path id="Vector" d="M20.6667 19.9997L23.3333 22.6663M22 15.333C22 12.0193 19.3137 9.33301 16 9.33301C12.6863 9.33301 10 12.0193 10 15.333C10 18.6467 12.6863 21.333 16 21.333C19.3137 21.333 22 18.6467 22 15.333Z" stroke="var(--stroke-0, black)" stroke-width="1.5" stroke-linecap="round" stroke-linejoin="round"/>
<path id="Vector_2" d="M20.0026 28.6663C22.4857 28.6663 23.7273 28.6663 24.7214 28.3045C26.3879 27.6979 27.7009 26.385 28.3074 24.7185C28.6693 23.7243 28.6693 22.4827 28.6693 19.9997M12.0026 28.6663C9.51952 28.6663 8.27798 28.6663 7.28382 28.3045C5.61722 27.6979 4.30438 26.385 3.69778 24.7185C3.33594 23.7243 3.33594 22.4827 3.33594 19.9997M12.0026 3.33301C9.51952 3.33301 8.27798 3.33301 7.28382 3.69485C5.61722 4.30143 4.30438 5.61429 3.69778 7.28089C3.33594 8.27505 3.33594 9.51658 3.33594 11.9997M20.0026 3.33301C22.4857 3.33301 23.7273 3.33301 24.7214 3.69485C26.3879 4.30143 27.7009 5.61429 28.3074 7.28089C28.6693 8.27505 28.6693 9.51658 28.6693 11.9997" stroke="var(--stroke-0, black)" stroke-width="1.5" stroke-linecap="round" stroke-linejoin="round"/>
</g>
</svg>
