<svg preserveAspectRatio="none" width="100%" height="100%" overflow="visible" style="display: block;" viewBox="0 0 32 32" fill="none" xmlns="http://www.w3.org/2000/svg">
<g id="mic-01">
<path id="Vector" d="M22.6693 9.33366V14.667C22.6693 18.3489 19.6845 21.3337 16.0026 21.3337C12.3207 21.3337 9.33594 18.3489 9.33594 14.667V9.33366C9.33594 5.65177 12.3207 2.66699 16.0026 2.66699C19.6845 2.66699 22.6693 5.65177 22.6693 9.33366Z" stroke="var(--stroke-0, black)" stroke-width="1.5"/>
<path id="Vector_2" d="M22.6641 9.33301H18.6641M22.6641 14.6663H18.6641" stroke="var(--stroke-0, black)" stroke-width="1.5" stroke-linecap="round"/>
<path id="Vector_3" d="M26.6693 14.667C26.6693 20.5581 21.8937 25.3337 16.0026 25.3337M16.0026 25.3337C10.1116 25.3337 5.33594 20.5581 5.33594 14.667M16.0026 25.3337V29.3337M16.0026 29.3337H20.0026M16.0026 29.3337H12.0026" stroke="var(--stroke-0, black)" stroke-width="1.5" stroke-linecap="round"/>
</g>
</svg>
