<svg width="20" height="20" viewBox="0 0 20 20" fill="none" xmlns="http://www.w3.org/2000/svg">
<path d="M2.5 11.667V8.33366C2.5 5.19096 2.5 3.61962 3.47631 2.6433C4.45262 1.66699 6.02397 1.66699 9.16667 1.66699H10.8333C13.976 1.66699 15.5474 1.66699 16.5237 2.6433C17.5 3.61962 17.5 5.19096 17.5 8.33366V11.667C17.5 14.8097 17.5 16.3811 16.5237 17.3573C15.5474 18.3337 13.976 18.3337 10.8333 18.3337H9.16667C6.02397 18.3337 4.45262 18.3337 3.47631 17.3573C2.5 16.3811 2.5 14.8097 2.5 11.667Z" stroke="black"/>
<path d="M9.44181 8.88892C10.321 9.768 11.4789 10.6614 11.4789 10.6614L13.0661 9.07408C13.0661 9.07408 12.1728 7.91616 11.2937 7.03703C10.4146 6.15792 9.25665 5.26455 9.25665 5.26455L7.66935 6.85185C7.66935 6.85185 8.56273 8.00977 9.44181 8.88892ZM9.44181 8.88892L6.66406 11.6667M13.3307 8.8095L11.2143 10.9259M9.52123 5L7.4048 7.1164" stroke="black" stroke-linecap="round" stroke-linejoin="round"/>
<path d="M6.66406 15H13.3307" stroke="black" stroke-linecap="round"/>
</svg>
