<svg width="20" height="20" viewBox="0 0 20 20" fill="none" xmlns="http://www.w3.org/2000/svg">
<path d="M2.5 3.75C2.5 3.05964 3.05964 2.5 3.75 2.5H5.41667C6.10702 2.5 6.66667 3.05964 6.66667 3.75V5.41667C6.66667 6.10702 6.10702 6.66667 5.41667 6.66667H3.75C3.05964 6.66667 2.5 6.10702 2.5 5.41667V3.75Z" stroke="black"/>
<path d="M2.5 14.583C2.5 13.8927 3.05964 13.333 3.75 13.333H5.41667C6.10702 13.333 6.66667 13.8927 6.66667 14.583V16.2497C6.66667 16.94 6.10702 17.4997 5.41667 17.4997H3.75C3.05964 17.4997 2.5 16.94 2.5 16.2497V14.583Z" stroke="black"/>
<path d="M6.66778 15.4163H17.5011M13.3344 4.58301H6.66778M13.604 6.39675L6.375 13.6258" stroke="black" stroke-linecap="round" stroke-linejoin="round"/>
<path d="M13.3359 3.75C13.3359 3.05964 13.8956 2.5 14.5859 2.5H16.2526C16.9429 2.5 17.5026 3.05964 17.5026 3.75V5.41667C17.5026 6.10702 16.9429 6.66667 16.2526 6.66667H14.5859C13.8956 6.66667 13.3359 6.10702 13.3359 5.41667V3.75Z" stroke="black"/>
<path d="M15 17.4997L16.1569 16.7111C17.0523 16.1008 17.5 15.7956 17.5 15.4163C17.5 15.0371 17.0523 14.7319 16.1569 14.1216L15 13.333" stroke="black" stroke-linecap="round" stroke-linejoin="round"/>
</svg>
