<svg preserveAspectRatio="none" width="100%" height="100%" overflow="visible" style="display: block;" viewBox="0 0 85.75 8" fill="none" xmlns="http://www.w3.org/2000/svg">
<path id="Vector 5735" d="M0.75 3.25C0.335786 3.25 0 3.58579 0 4C0 4.41421 0.335786 4.75 0.75 4.75V4V3.25ZM77.75 4C77.75 6.20914 79.5409 8 81.75 8C83.9591 8 85.75 6.20914 85.75 4C85.75 1.79086 83.9591 0 81.75 0C79.5409 0 77.75 1.79086 77.75 4ZM0.755056 4.75C1.16927 4.75 1.50506 4.41421 1.50506 4C1.50506 3.58579 1.16927 3.25 0.755056 3.25V4V4.75ZM8.84494 3.25C8.43073 3.25 8.09494 3.58579 8.09494 4C8.09494 4.41421 8.43073 4.75 8.84494 4.75V4V3.25ZM8.85506 4.75C9.26927 4.75 9.60506 4.41421 9.60506 4C9.60506 3.58579 9.26927 3.25 8.85506 3.25V4V4.75ZM16.9449 3.25C16.5307 3.25 16.1949 3.58579 16.1949 4C16.1949 4.41421 16.5307 4.75 16.9449 4.75V4V3.25ZM16.9551 4.75C17.3693 4.75 17.7051 4.41421 17.7051 4C17.7051 3.58579 17.3693 3.25 16.9551 3.25V4V4.75ZM25.0449 3.25C24.6307 3.25 24.2949 3.58579 24.2949 4C24.2949 4.41421 24.6307 4.75 25.0449 4.75V4V3.25ZM25.0551 4.75C25.4693 4.75 25.8051 4.41421 25.8051 4C25.8051 3.58579 25.4693 3.25 25.0551 3.25V4V4.75ZM33.1449 3.25C32.7307 3.25 32.3949 3.58579 32.3949 4C32.3949 4.41421 32.7307 4.75 33.1449 4.75V4V3.25ZM33.1551 4.75C33.5693 4.75 33.9051 4.41421 33.9051 4C33.9051 3.58579 33.5693 3.25 33.1551 3.25V4V4.75ZM41.2449 3.25C40.8307 3.25 40.4949 3.58579 40.4949 4C40.4949 4.41421 40.8307 4.75 41.2449 4.75V4V3.25ZM41.2551 4.75C41.6693 4.75 42.0051 4.41421 42.0051 4C42.0051 3.58579 41.6693 3.25 41.2551 3.25V4V4.75ZM49.3449 3.25C48.9307 3.25 48.5949 3.58579 48.5949 4C48.5949 4.41421 48.9307 4.75 49.3449 4.75V4V3.25ZM49.3551 4.75C49.7693 4.75 50.1051 4.41421 50.1051 4C50.1051 3.58579 49.7693 3.25 49.3551 3.25V4V4.75ZM57.4449 3.25C57.0307 3.25 56.6949 3.58579 56.6949 4C56.6949 4.41421 57.0307 4.75 57.4449 4.75V4V3.25ZM57.455 4.75C57.8693 4.75 58.205 4.41421 58.205 4C58.205 3.58579 57.8693 3.25 57.455 3.25V4V4.75ZM65.5449 3.25C65.1307 3.25 64.7949 3.58579 64.7949 4C64.7949 4.41421 65.1307 4.75 65.5449 4.75V4V3.25ZM65.555 4.75C65.9693 4.75 66.305 4.41421 66.305 4C66.305 3.58579 65.9693 3.25 65.555 3.25V4V4.75ZM73.6449 3.25C73.2307 3.25 72.8949 3.58579 72.8949 4C72.8949 4.41421 73.2307 4.75 73.6449 4.75V4V3.25ZM73.655 4.75C74.0693 4.75 74.405 4.41421 74.405 4C74.405 3.58579 74.0693 3.25 73.655 3.25V4V4.75ZM81.7449 3.25C81.3307 3.25 80.9949 3.58579 80.9949 4C80.9949 4.41421 81.3307 4.75 81.7449 4.75V4V3.25ZM0.75 4V4.75H0.755056V4V3.25H0.75V4ZM8.84494 4V4.75H8.85506V4V3.25H8.84494V4ZM16.9449 4V4.75H16.9551V4V3.25H16.9449V4ZM25.0449 4V4.75H25.0551V4V3.25H25.0449V4ZM33.1449 4V4.75H33.1551V4V3.25H33.1449V4ZM41.2449 4V4.75H41.2551V4V3.25H41.2449V4ZM49.3449 4V4.75H49.3551V4V3.25H49.3449V4ZM57.4449 4V4.75H57.455V4V3.25H57.4449V4ZM65.5449 4V4.75H65.555V4V3.25H65.5449V4ZM73.6449 4V4.75H73.655V4V3.25H73.6449V4ZM81.7449 4V4.75H81.75V4V3.25H81.7449V4Z" fill="var(--stroke-0, black)"/>
</svg>
