<svg width="211" height="223" viewBox="0 0 211 223" fill="none" xmlns="http://www.w3.org/2000/svg">
<style>
@keyframes orb-arc-spin { to { transform: rotate(360deg); } }
.orb-arcs { animation: orb-arc-spin 14s linear infinite; transform-origin: 104.466px 111.66px; transform-box: view-box; }
@media (prefers-reduced-motion: reduce) { .orb-arcs { animation: none; } }
</style>
<g id="Home">
<g id="Frame 2147224929">
<g id="Home_Mobile_390px">
<g id="Frame 2147224930">
<g id="Group 2117761565">
<g id="Group 2117761562">
<g id="Group 2117761539">
<g class="orb-arcs">
<path id="Vector" d="M30.0335 59.1163C28.8006 58.2509 28.4987 56.5477 29.3984 55.3395C37.8611 43.9754 48.7922 34.6623 61.3818 28.1103C74.7783 21.1383 89.658 17.498 104.76 17.498C119.862 17.498 134.742 21.1383 148.139 28.1103C160.728 34.6623 171.659 43.9754 180.122 55.3395C181.022 56.5477 180.72 58.2509 179.487 59.1163C178.253 59.9827 176.553 59.681 175.65 58.4734C167.69 47.8308 157.428 39.107 145.618 32.9623C133 26.397 118.985 22.9692 104.76 22.9692C90.5358 22.9692 76.5209 26.397 63.9022 32.9623C52.0919 39.107 41.8303 47.8308 33.8707 58.4734C32.9675 59.681 31.2678 59.9827 30.0335 59.1163Z" fill="url(#paint0_linear_1_40)"/>
<path id="Vector_2" d="M187.614 72.9233C188.872 72.2885 190.408 72.8187 190.968 74.1114C196.623 87.1619 199.247 101.337 198.625 115.569C197.966 130.659 193.679 145.368 186.128 158.449C178.576 171.53 167.982 182.598 155.244 190.714C143.333 198.304 129.876 203.103 115.877 204.772C114.305 204.96 112.945 203.717 112.939 202.133C112.933 200.725 114.008 199.552 115.407 199.39C128.701 197.853 141.486 193.319 152.792 186.119C164.799 178.471 174.785 168.041 181.902 155.712C189.02 143.383 193.059 129.52 193.677 115.298C194.26 101.882 191.783 88.5202 186.447 76.2207C185.91 74.9836 186.41 73.5309 187.614 72.9233Z" fill="url(#paint1_linear_1_40)"/>
<path id="Vector_3" d="M96.5879 202.133C96.5812 203.717 95.2217 204.96 93.6492 204.772C79.6506 203.103 66.1935 198.304 54.283 190.714C41.5446 182.598 30.9507 171.53 23.3989 158.449C15.8472 145.368 11.5603 130.659 10.9014 115.569C10.2801 101.337 12.9032 87.1619 18.5583 74.1114C19.1185 72.8187 20.6551 72.2885 21.9128 72.9233C23.1166 73.5309 23.6165 74.9836 23.0798 76.2207C17.7436 88.5203 15.2666 101.882 15.8497 115.298C16.4679 129.52 20.507 143.383 27.6244 155.712C34.7419 168.041 44.7276 178.471 56.7349 186.119C68.0409 193.319 80.8252 197.853 94.1195 199.39C95.5184 199.552 96.5939 200.725 96.5879 202.133Z" fill="url(#paint2_linear_1_40)"/>
</g>
<g id="Rectangle" filter="url(#filter0_iiii_1_40)">
<rect x="26.9194" y="34.1133" width="155.093" height="155.093" rx="77.5464" fill="white"/>
</g>
<g id="Frame 2117761307">
<rect x="48.7148" y="144.999" width="116" height="44" rx="19.05" fill="#CCFF33"/>
<path id="MDR CLASS IIa COMPLIANT" d="M66.1386 163.999V155.599H67.6266L70.2666 159.487L72.8826 155.599H74.3826V163.999H72.9906V157.795L70.2546 161.839L67.5306 157.819V163.999H66.1386ZM76.369 163.999V155.599H79.009C79.833 155.599 80.561 155.779 81.193 156.139C81.833 156.491 82.333 156.983 82.693 157.615C83.061 158.247 83.245 158.975 83.245 159.799C83.245 160.615 83.061 161.339 82.693 161.971C82.333 162.603 81.833 163.099 81.193 163.459C80.561 163.819 79.833 163.999 79.009 163.999H76.369ZM77.761 162.703H79.009C79.401 162.703 79.769 162.631 80.113 162.487C80.457 162.335 80.757 162.127 81.013 161.863C81.269 161.599 81.469 161.291 81.613 160.939C81.757 160.587 81.829 160.207 81.829 159.799C81.829 159.391 81.757 159.011 81.613 158.659C81.469 158.307 81.269 157.999 81.013 157.735C80.757 157.471 80.457 157.267 80.113 157.123C79.769 156.971 79.401 156.895 79.009 156.895H77.761V162.703ZM84.7128 163.999V155.599H87.6768C88.2528 155.599 88.7608 155.711 89.2008 155.935C89.6408 156.159 89.9848 156.471 90.2328 156.871C90.4808 157.263 90.6048 157.719 90.6048 158.239C90.6048 158.791 90.4528 159.279 90.1488 159.703C89.8448 160.119 89.4448 160.427 88.9488 160.627L90.9408 163.999H89.3688L87.5688 160.891C87.5208 160.899 87.4688 160.903 87.4128 160.903C87.3648 160.903 87.3128 160.903 87.2568 160.903H86.1048V163.999H84.7128ZM86.1048 159.619H87.7368C88.0088 159.619 88.2488 159.559 88.4568 159.439C88.6728 159.319 88.8448 159.155 88.9728 158.947C89.1088 158.739 89.1768 158.503 89.1768 158.239C89.1768 157.839 89.0328 157.511 88.7448 157.255C88.4568 156.999 88.0848 156.871 87.6288 156.871H86.1048V159.619ZM98.884 164.143C98.076 164.143 97.356 163.959 96.724 163.591C96.1 163.215 95.608 162.703 95.248 162.055C94.896 161.399 94.72 160.647 94.72 159.799C94.72 158.951 94.896 158.203 95.248 157.555C95.608 156.899 96.1 156.387 96.724 156.019C97.348 155.643 98.064 155.455 98.872 155.455C99.416 155.455 99.928 155.555 100.408 155.755C100.888 155.947 101.312 156.215 101.68 156.559C102.056 156.903 102.344 157.303 102.544 157.759L101.272 158.275C101.128 157.971 100.932 157.703 100.684 157.471C100.444 157.231 100.168 157.047 99.856 156.919C99.544 156.791 99.216 156.727 98.872 156.727C98.344 156.727 97.872 156.859 97.456 157.123C97.048 157.387 96.724 157.751 96.484 158.215C96.252 158.671 96.136 159.199 96.136 159.799C96.136 160.399 96.252 160.931 96.484 161.395C96.724 161.859 97.052 162.223 97.468 162.487C97.892 162.751 98.372 162.883 98.908 162.883C99.26 162.883 99.588 162.815 99.892 162.679C100.204 162.535 100.48 162.339 100.72 162.091C100.968 161.843 101.164 161.555 101.308 161.227L102.58 161.743C102.38 162.215 102.096 162.635 101.728 163.003C101.36 163.363 100.932 163.643 100.444 163.843C99.956 164.043 99.436 164.143 98.884 164.143ZM103.92 163.999V155.599H105.312V162.727H109.116V163.999H103.92ZM109.395 163.999L112.743 155.599H114.219L117.579 163.999H116.103L115.275 161.935H111.687L110.871 163.999H109.395ZM112.155 160.699H114.807L113.487 157.339L112.155 160.699ZM121.434 164.143C120.994 164.143 120.59 164.091 120.222 163.987C119.862 163.883 119.542 163.739 119.262 163.555C118.99 163.371 118.762 163.167 118.578 162.943C118.402 162.711 118.278 162.471 118.206 162.223L119.574 161.803C119.678 162.099 119.882 162.359 120.186 162.583C120.49 162.807 120.866 162.923 121.314 162.931C121.834 162.931 122.246 162.823 122.55 162.607C122.854 162.391 123.006 162.107 123.006 161.755C123.006 161.435 122.878 161.175 122.622 160.975C122.366 160.767 122.022 160.607 121.59 160.495L120.558 160.231C120.166 160.127 119.81 159.975 119.49 159.775C119.178 159.575 118.93 159.323 118.746 159.019C118.57 158.715 118.482 158.355 118.482 157.939C118.482 157.155 118.738 156.547 119.25 156.115C119.762 155.675 120.494 155.455 121.446 155.455C121.982 155.455 122.45 155.539 122.85 155.707C123.258 155.867 123.594 156.091 123.858 156.379C124.122 156.659 124.318 156.979 124.446 157.339L123.102 157.771C122.982 157.451 122.774 157.187 122.478 156.979C122.182 156.771 121.814 156.667 121.374 156.667C120.918 156.667 120.558 156.775 120.294 156.991C120.038 157.207 119.91 157.507 119.91 157.891C119.91 158.203 120.01 158.447 120.21 158.623C120.418 158.791 120.698 158.919 121.05 159.007L122.082 159.259C122.834 159.443 123.418 159.759 123.834 160.207C124.25 160.655 124.458 161.151 124.458 161.695C124.458 162.175 124.342 162.599 124.11 162.967C123.878 163.335 123.534 163.623 123.078 163.831C122.63 164.039 122.082 164.143 121.434 164.143ZM128.758 164.143C128.318 164.143 127.914 164.091 127.546 163.987C127.186 163.883 126.866 163.739 126.586 163.555C126.314 163.371 126.086 163.167 125.902 162.943C125.726 162.711 125.602 162.471 125.53 162.223L126.898 161.803C127.002 162.099 127.206 162.359 127.51 162.583C127.814 162.807 128.19 162.923 128.638 162.931C129.158 162.931 129.57 162.823 129.874 162.607C130.178 162.391 130.33 162.107 130.33 161.755C130.33 161.435 130.202 161.175 129.946 160.975C129.69 160.767 129.346 160.607 128.914 160.495L127.882 160.231C127.49 160.127 127.134 159.975 126.814 159.775C126.502 159.575 126.254 159.323 126.07 159.019C125.894 158.715 125.806 158.355 125.806 157.939C125.806 157.155 126.062 156.547 126.574 156.115C127.086 155.675 127.818 155.455 128.77 155.455C129.306 155.455 129.774 155.539 130.174 155.707C130.582 155.867 130.918 156.091 131.182 156.379C131.446 156.659 131.642 156.979 131.77 157.339L130.426 157.771C130.306 157.451 130.098 157.187 129.802 156.979C129.506 156.771 129.138 156.667 128.698 156.667C128.242 156.667 127.882 156.775 127.618 156.991C127.362 157.207 127.234 157.507 127.234 157.891C127.234 158.203 127.334 158.447 127.534 158.623C127.742 158.791 128.022 158.919 128.374 159.007L129.406 159.259C130.158 159.443 130.742 159.759 131.158 160.207C131.574 160.655 131.782 161.151 131.782 161.695C131.782 162.175 131.666 162.599 131.434 162.967C131.202 163.335 130.858 163.623 130.402 163.831C129.954 164.039 129.406 164.143 128.758 164.143ZM136.217 163.999V155.599H137.609V163.999H136.217ZM139.603 163.999V155.599H140.995V163.999H139.603ZM144.67 164.143C143.95 164.143 143.39 163.983 142.99 163.663C142.598 163.343 142.402 162.891 142.402 162.307C142.402 161.683 142.61 161.207 143.026 160.879C143.45 160.551 144.038 160.387 144.79 160.387H146.314C146.266 159.947 146.142 159.611 145.942 159.379C145.742 159.147 145.446 159.031 145.054 159.031C144.766 159.031 144.514 159.091 144.298 159.211C144.082 159.331 143.898 159.519 143.746 159.775L142.57 159.343C142.698 159.079 142.866 158.835 143.074 158.611C143.29 158.379 143.558 158.195 143.878 158.059C144.206 157.923 144.598 157.855 145.054 157.855C145.638 157.855 146.126 157.971 146.518 158.203C146.91 158.427 147.198 158.751 147.382 159.175C147.574 159.599 147.67 160.111 147.67 160.711L147.634 163.999H146.398L146.362 163.267C146.202 163.547 145.978 163.763 145.69 163.915C145.41 164.067 145.07 164.143 144.67 164.143ZM144.838 163.015C145.134 163.015 145.394 162.951 145.618 162.823C145.85 162.687 146.026 162.507 146.146 162.283C146.274 162.059 146.338 161.811 146.338 161.539V161.419H145.222C144.686 161.419 144.31 161.495 144.094 161.647C143.878 161.791 143.77 161.999 143.77 162.271C143.77 162.503 143.862 162.687 144.046 162.823C144.238 162.951 144.502 163.015 144.838 163.015ZM76.4836 178.143C75.6756 178.143 74.9556 177.959 74.3236 177.591C73.6996 177.215 73.2076 176.703 72.8476 176.055C72.4956 175.399 72.3196 174.647 72.3196 173.799C72.3196 172.951 72.4956 172.203 72.8476 171.555C73.2076 170.899 73.6996 170.387 74.3236 170.019C74.9476 169.643 75.6636 169.455 76.4716 169.455C77.0156 169.455 77.5276 169.555 78.0076 169.755C78.4876 169.947 78.9116 170.215 79.2796 170.559C79.6556 170.903 79.9436 171.303 80.1436 171.759L78.8716 172.275C78.7276 171.971 78.5316 171.703 78.2836 171.471C78.0436 171.231 77.7676 171.047 77.4556 170.919C77.1436 170.791 76.8156 170.727 76.4716 170.727C75.9436 170.727 75.4716 170.859 75.0556 171.123C74.6476 171.387 74.3236 171.751 74.0836 172.215C73.8516 172.671 73.7356 173.199 73.7356 173.799C73.7356 174.399 73.8516 174.931 74.0836 175.395C74.3236 175.859 74.6516 176.223 75.0676 176.487C75.4916 176.751 75.9716 176.883 76.5076 176.883C76.8596 176.883 77.1876 176.815 77.4916 176.679C77.8036 176.535 78.0796 176.339 78.3196 176.091C78.5676 175.843 78.7636 175.555 78.9076 175.227L80.1796 175.743C79.9796 176.215 79.6956 176.635 79.3276 177.003C78.9596 177.363 78.5316 177.643 78.0436 177.843C77.5556 178.043 77.0356 178.143 76.4836 178.143ZM85.2514 178.143C84.4194 178.143 83.6834 177.959 83.0434 177.591C82.4034 177.223 81.8994 176.711 81.5314 176.055C81.1714 175.399 80.9914 174.647 80.9914 173.799C80.9914 172.951 81.1714 172.203 81.5314 171.555C81.8994 170.899 82.3994 170.387 83.0314 170.019C83.6634 169.643 84.3914 169.455 85.2154 169.455C86.0474 169.455 86.7794 169.643 87.4114 170.019C88.0514 170.387 88.5474 170.899 88.8994 171.555C89.2594 172.203 89.4394 172.951 89.4394 173.799C89.4394 174.647 89.2594 175.399 88.8994 176.055C88.5474 176.711 88.0554 177.223 87.4234 177.591C86.7994 177.959 86.0754 178.143 85.2514 178.143ZM85.2514 176.871C85.7954 176.871 86.2754 176.739 86.6914 176.475C87.1074 176.211 87.4314 175.851 87.6634 175.395C87.9034 174.931 88.0234 174.399 88.0234 173.799C88.0234 173.207 87.9034 172.679 87.6634 172.215C87.4234 171.751 87.0914 171.391 86.6674 171.135C86.2514 170.871 85.7674 170.739 85.2154 170.739C84.6714 170.739 84.1874 170.871 83.7634 171.135C83.3474 171.391 83.0154 171.751 82.7674 172.215C82.5274 172.671 82.4074 173.199 82.4074 173.799C82.4074 174.399 82.5274 174.931 82.7674 175.395C83.0154 175.851 83.3514 176.211 83.7754 176.475C84.2074 176.739 84.6994 176.871 85.2514 176.871ZM90.9179 177.999V169.599H92.4059L95.0459 173.487L97.6619 169.599H99.1619V177.999H97.7699V171.795L95.0339 175.839L92.3099 171.819V177.999H90.9179ZM101.148 177.999V169.599H104.112C104.688 169.599 105.196 169.715 105.636 169.947C106.076 170.179 106.42 170.503 106.668 170.919C106.916 171.327 107.04 171.803 107.04 172.347C107.04 172.875 106.924 173.347 106.692 173.763C106.46 174.179 106.136 174.507 105.72 174.747C105.312 174.979 104.836 175.095 104.292 175.095H102.54V177.999H101.148ZM102.54 173.811H104.268C104.668 173.811 104.996 173.675 105.252 173.403C105.508 173.131 105.636 172.779 105.636 172.347C105.636 171.907 105.492 171.551 105.204 171.279C104.916 171.007 104.544 170.871 104.088 170.871H102.54V173.811ZM108.273 177.999V169.599H109.665V176.727H113.469V177.999H108.273ZM114.637 177.999V169.599H116.029V177.999H114.637ZM117.135 177.999L120.483 169.599H121.959L125.319 177.999H123.843L123.015 175.935H119.427L118.611 177.999H117.135ZM119.895 174.699H122.547L121.227 171.339L119.895 174.699ZM126.414 177.999V169.599H127.854L132.318 175.671V169.599H133.71V177.999H132.318L127.806 171.855V177.999H126.414ZM137.447 177.999V170.871H134.867V169.599H141.419V170.871H138.839V177.999H137.447Z" fill="black"/>
</g>
<path id="Clinical Intelligence" d="M82.6712 78.505C82.5245 77.1264 82.0405 76.0557 81.2192 75.293C80.4125 74.5304 79.3712 74.149 78.0952 74.149C77.3178 74.149 76.5845 74.3177 75.8952 74.655C75.2205 74.9777 74.6265 75.447 74.1132 76.063C73.5998 76.679 73.1965 77.4197 72.9032 78.285C72.6098 79.1504 72.4632 80.1257 72.4632 81.211C72.4632 82.5897 72.7272 83.807 73.2552 84.863C73.7832 85.919 74.4945 86.7404 75.3892 87.327C76.2838 87.9137 77.2738 88.207 78.3592 88.207C79.3125 88.207 80.2512 87.9944 81.1752 87.569C82.0992 87.129 82.8545 86.4984 83.4412 85.677L84.0132 86.139C83.3825 87.0044 82.7005 87.6717 81.9672 88.141C81.2338 88.6104 80.5005 88.9257 79.7672 89.087C79.0485 89.263 78.3885 89.351 77.7872 89.351C76.6872 89.351 75.6752 89.153 74.7512 88.757C73.8418 88.361 73.0498 87.811 72.3752 87.107C71.7152 86.3884 71.2018 85.5597 70.8352 84.621C70.4832 83.6677 70.3072 82.641 70.3072 81.541C70.3072 80.4997 70.4612 79.4877 70.7692 78.505C71.0918 77.5224 71.5685 76.635 72.1992 75.843C72.8298 75.051 73.6218 74.4204 74.5752 73.951C75.5432 73.4817 76.6652 73.247 77.9412 73.247C78.7625 73.247 79.5398 73.357 80.2732 73.577C81.0065 73.797 81.7105 74.1344 82.3852 74.589L82.2752 73.401H83.4632V78.505H82.6712ZM84.986 88.339C85.4406 88.339 85.756 88.229 85.932 88.009C86.108 87.7744 86.2106 87.459 86.24 87.063C86.2693 86.6524 86.284 86.183 86.284 85.655V75.249C86.284 75.0144 86.284 74.7944 86.284 74.589C86.2986 74.369 86.3206 74.1124 86.35 73.819C86.086 73.8337 85.822 73.8484 85.558 73.863C85.3086 73.8777 85.052 73.8924 84.788 73.907V72.983C85.4333 72.983 85.932 72.9537 86.284 72.895C86.6506 72.8364 86.922 72.763 87.098 72.675C87.2886 72.587 87.4353 72.4917 87.538 72.389H88.176L88.198 86.667C88.198 86.9604 88.1906 87.2244 88.176 87.459C88.1613 87.679 88.132 87.9137 88.088 88.163C88.3226 88.1484 88.55 88.141 88.77 88.141C89.0046 88.1264 89.2393 88.1117 89.474 88.097V88.999H84.986V88.339ZM90.7601 88.339C91.2148 88.339 91.5301 88.229 91.7061 88.009C91.8821 87.7744 91.9848 87.459 92.0141 87.063C92.0434 86.6524 92.0581 86.183 92.0581 85.655V80.639C92.0581 80.4044 92.0654 80.1844 92.0801 79.979C92.0948 79.759 92.1168 79.5024 92.1461 79.209C91.8821 79.2237 91.6181 79.2384 91.3541 79.253C91.1048 79.2677 90.8481 79.2824 90.5841 79.297V78.373C91.2294 78.373 91.7281 78.3437 92.0801 78.285C92.4321 78.2264 92.6961 78.153 92.8721 78.065C93.0628 77.977 93.2094 77.8817 93.3121 77.779H93.9501V86.667C93.9501 86.9604 93.9428 87.2244 93.9281 87.459C93.9281 87.679 93.9061 87.9137 93.8621 88.163C94.0968 88.1484 94.3241 88.141 94.5441 88.141C94.7788 88.1264 95.0134 88.1117 95.2481 88.097V88.999H90.7601V88.339ZM92.8721 75.601C92.5641 75.601 92.2928 75.4764 92.0581 75.227C91.8234 74.9777 91.7061 74.6697 91.7061 74.303C91.7061 73.9364 91.8234 73.6284 92.0581 73.379C92.3074 73.115 92.5861 72.983 92.8941 72.983C93.2314 72.983 93.5101 73.115 93.7301 73.379C93.9648 73.6284 94.0821 73.9364 94.0821 74.303C94.0821 74.6697 93.9574 74.9777 93.7081 75.227C93.4734 75.4764 93.1948 75.601 92.8721 75.601ZM96.5076 88.999V88.339C96.9623 88.339 97.2776 88.229 97.4536 88.009C97.6296 87.7744 97.7323 87.459 97.7616 87.063C97.7909 86.6524 97.8056 86.183 97.8056 85.655L97.8276 80.639C97.8276 80.4044 97.8276 80.1697 97.8276 79.935C97.8423 79.7004 97.8716 79.4584 97.9156 79.209C97.6516 79.2237 97.3876 79.2384 97.1236 79.253C96.8743 79.2677 96.6176 79.2824 96.3536 79.297V78.373C96.9989 78.373 97.4829 78.3437 97.8056 78.285C98.1429 78.2264 98.3923 78.153 98.5536 78.065C98.7149 77.977 98.8469 77.8817 98.9496 77.779H99.5876C99.6023 77.8817 99.6096 77.999 99.6096 78.131C99.6243 78.263 99.6389 78.4097 99.6536 78.571C99.6683 78.7324 99.6756 78.9157 99.6756 79.121C99.9983 78.8424 100.35 78.593 100.732 78.373C101.128 78.153 101.538 77.977 101.964 77.845C102.404 77.713 102.836 77.647 103.262 77.647C104.538 77.647 105.469 78.0504 106.056 78.857C106.642 79.649 106.936 80.8884 106.936 82.575V86.667C106.936 86.9604 106.928 87.2244 106.914 87.459C106.914 87.679 106.892 87.9137 106.848 88.163C107.082 88.1484 107.31 88.141 107.53 88.141C107.764 88.1264 107.999 88.1117 108.234 88.097V88.999H103.746V88.339C104.2 88.339 104.516 88.229 104.692 88.009C104.868 87.7744 104.97 87.459 105 87.063C105.029 86.6524 105.044 86.183 105.044 85.655V82.575C105.029 81.3137 104.816 80.3604 104.406 79.715C104.01 79.0697 103.379 78.7544 102.514 78.769C101.986 78.7837 101.465 78.923 100.952 79.187C100.453 79.451 100.035 79.7884 99.6976 80.199C99.7123 80.3164 99.7196 80.4484 99.7196 80.595C99.7196 80.7417 99.7196 80.8957 99.7196 81.057L99.6976 86.667C99.6976 86.9604 99.6903 87.2244 99.6756 87.459C99.6756 87.679 99.6536 87.9137 99.6096 88.163C99.8443 88.1484 100.072 88.141 100.292 88.141C100.526 88.1264 100.761 88.1117 100.996 88.097V88.999H96.5076ZM109.431 88.339C109.886 88.339 110.201 88.229 110.377 88.009C110.553 87.7744 110.656 87.459 110.685 87.063C110.714 86.6524 110.729 86.183 110.729 85.655V80.639C110.729 80.4044 110.736 80.1844 110.751 79.979C110.766 79.759 110.788 79.5024 110.817 79.209C110.553 79.2237 110.289 79.2384 110.025 79.253C109.776 79.2677 109.519 79.2824 109.255 79.297V78.373C109.9 78.373 110.399 78.3437 110.751 78.285C111.103 78.2264 111.367 78.153 111.543 78.065C111.734 77.977 111.88 77.8817 111.983 77.779H112.621V86.667C112.621 86.9604 112.614 87.2244 112.599 87.459C112.599 87.679 112.577 87.9137 112.533 88.163C112.768 88.1484 112.995 88.141 113.215 88.141C113.45 88.1264 113.684 88.1117 113.919 88.097V88.999H109.431V88.339ZM111.543 75.601C111.235 75.601 110.964 75.4764 110.729 75.227C110.494 74.9777 110.377 74.6697 110.377 74.303C110.377 73.9364 110.494 73.6284 110.729 73.379C110.978 73.115 111.257 72.983 111.565 72.983C111.902 72.983 112.181 73.115 112.401 73.379C112.636 73.6284 112.753 73.9364 112.753 74.303C112.753 74.6697 112.628 74.9777 112.379 75.227C112.144 75.4764 111.866 75.601 111.543 75.601ZM120.546 89.351C119.564 89.351 118.654 89.131 117.818 88.691C116.997 88.2364 116.337 87.591 115.838 86.755C115.354 85.9044 115.112 84.885 115.112 83.697C115.112 82.9344 115.252 82.1937 115.53 81.475C115.809 80.7564 116.198 80.111 116.696 79.539C117.21 78.9524 117.818 78.4904 118.522 78.153C119.226 77.8157 120.004 77.647 120.854 77.647C121.676 77.647 122.387 77.7717 122.988 78.021C123.604 78.2704 124.081 78.6004 124.418 79.011C124.756 79.4217 124.924 79.869 124.924 80.353C124.924 80.6757 124.836 80.9544 124.66 81.189C124.484 81.409 124.228 81.519 123.89 81.519C123.524 81.5337 123.26 81.4237 123.098 81.189C122.952 80.9397 122.878 80.7197 122.878 80.529C122.878 80.3824 122.9 80.2357 122.944 80.089C122.988 79.9277 123.076 79.781 123.208 79.649C123.091 79.297 122.886 79.0404 122.592 78.879C122.299 78.703 121.991 78.593 121.668 78.549C121.36 78.4904 121.104 78.461 120.898 78.461C119.901 78.461 119.058 78.8644 118.368 79.671C117.694 80.463 117.356 81.6217 117.356 83.147C117.356 84.1297 117.51 85.0024 117.818 85.765C118.141 86.5277 118.588 87.129 119.16 87.569C119.732 87.9944 120.392 88.207 121.14 88.207C121.83 88.207 122.49 88.0237 123.12 87.657C123.751 87.2904 124.242 86.843 124.594 86.315L125.166 86.755C124.785 87.371 124.323 87.8697 123.78 88.251C123.252 88.6324 122.702 88.911 122.13 89.087C121.573 89.263 121.045 89.351 120.546 89.351ZM133.092 88.999C133.048 88.7497 133.019 88.5297 133.004 88.339C132.99 88.1484 132.968 87.9504 132.938 87.745C132.44 88.2437 131.897 88.6397 131.31 88.933C130.738 89.2117 130.13 89.351 129.484 89.351C128.37 89.351 127.541 89.1017 126.998 88.603C126.456 88.0897 126.184 87.4664 126.184 86.733C126.184 86.0584 126.39 85.479 126.8 84.995C127.226 84.4964 127.768 84.093 128.428 83.785C129.103 83.4624 129.829 83.2277 130.606 83.081C131.398 82.9197 132.161 82.8464 132.894 82.861V81.497C132.894 80.9837 132.85 80.4997 132.762 80.045C132.674 79.5904 132.484 79.2164 132.19 78.923C131.897 78.6297 131.428 78.4757 130.782 78.461C130.357 78.4464 129.917 78.527 129.462 78.703C129.022 78.879 128.7 79.1797 128.494 79.605C128.612 79.7224 128.685 79.8617 128.714 80.023C128.758 80.1697 128.78 80.309 128.78 80.441C128.78 80.617 128.707 80.8224 128.56 81.057C128.414 81.277 128.157 81.3797 127.79 81.365C127.482 81.365 127.248 81.2624 127.086 81.057C126.925 80.837 126.844 80.5804 126.844 80.287C126.844 79.7884 127.028 79.341 127.394 78.945C127.776 78.549 128.296 78.2337 128.956 77.999C129.616 77.7644 130.364 77.647 131.2 77.647C132.432 77.647 133.342 77.977 133.928 78.637C134.515 79.2824 134.801 80.309 134.786 81.717C134.786 82.2597 134.786 82.8097 134.786 83.367C134.786 83.9097 134.779 84.4597 134.764 85.017C134.764 85.5597 134.764 86.1097 134.764 86.667C134.764 86.9017 134.757 87.1364 134.742 87.371C134.728 87.6057 134.706 87.8697 134.676 88.163C134.94 88.1484 135.197 88.1337 135.446 88.119C135.71 88.1044 135.974 88.0897 136.238 88.075V88.999H133.092ZM132.894 83.609C132.396 83.6237 131.868 83.6897 131.31 83.807C130.768 83.9097 130.262 84.071 129.792 84.291C129.338 84.511 128.964 84.8044 128.67 85.171C128.392 85.523 128.26 85.9557 128.274 86.469C128.304 87.0117 128.48 87.4224 128.802 87.701C129.14 87.965 129.536 88.097 129.99 88.097C130.592 88.097 131.112 87.987 131.552 87.767C132.007 87.5324 132.454 87.2097 132.894 86.799C132.88 86.6377 132.872 86.4617 132.872 86.271C132.872 86.0804 132.872 85.8824 132.872 85.677C132.872 85.6037 132.872 85.369 132.872 84.973C132.887 84.577 132.894 84.1224 132.894 83.609ZM137.088 88.339C137.543 88.339 137.858 88.229 138.034 88.009C138.21 87.7744 138.313 87.459 138.342 87.063C138.371 86.6524 138.386 86.183 138.386 85.655V75.249C138.386 75.0144 138.386 74.7944 138.386 74.589C138.401 74.369 138.423 74.1124 138.452 73.819C138.188 73.8337 137.924 73.8484 137.66 73.863C137.411 73.8777 137.154 73.8924 136.89 73.907V72.983C137.535 72.983 138.034 72.9537 138.386 72.895C138.753 72.8364 139.024 72.763 139.2 72.675C139.391 72.587 139.537 72.4917 139.64 72.389H140.278L140.3 86.667C140.3 86.9604 140.293 87.2244 140.278 87.459C140.263 87.679 140.234 87.9137 140.19 88.163C140.425 88.1484 140.652 88.141 140.872 88.141C141.107 88.1264 141.341 88.1117 141.576 88.097V88.999H137.088V88.339ZM54.2548 100.325C53.7121 100.34 53.3308 100.464 53.1108 100.699C52.9055 100.934 52.7881 101.249 52.7588 101.645C52.7441 102.041 52.7368 102.503 52.7368 103.031V112.381C52.7368 112.777 52.7295 113.122 52.7148 113.415C52.7148 113.694 52.7001 113.928 52.6708 114.119C52.9348 114.104 53.1988 114.09 53.4628 114.075C53.7268 114.06 53.9908 114.046 54.2548 114.031V114.999H49.3048V114.273C49.8621 114.244 50.2435 114.119 50.4488 113.899C50.6541 113.664 50.7641 113.349 50.7788 112.953C50.8081 112.542 50.8228 112.08 50.8228 111.567V102.063C50.8228 101.77 50.8301 101.491 50.8448 101.227C50.8595 100.948 50.8741 100.699 50.8888 100.479C50.6248 100.494 50.3608 100.508 50.0968 100.523C49.8328 100.538 49.5688 100.552 49.3048 100.567V99.599H54.2548V100.325ZM55.8201 114.999V114.339C56.2747 114.339 56.5901 114.229 56.7661 114.009C56.9421 113.774 57.0447 113.459 57.0741 113.063C57.1034 112.652 57.1181 112.183 57.1181 111.655L57.1401 106.639C57.1401 106.404 57.1401 106.17 57.1401 105.935C57.1547 105.7 57.1841 105.458 57.2281 105.209C56.9641 105.224 56.7001 105.238 56.4361 105.253C56.1867 105.268 55.9301 105.282 55.6661 105.297V104.373C56.3114 104.373 56.7954 104.344 57.1181 104.285C57.4554 104.226 57.7047 104.153 57.8661 104.065C58.0274 103.977 58.1594 103.882 58.2621 103.779H58.9001C58.9147 103.882 58.9221 103.999 58.9221 104.131C58.9367 104.263 58.9514 104.41 58.9661 104.571C58.9807 104.732 58.9881 104.916 58.9881 105.121C59.3107 104.842 59.6627 104.593 60.0441 104.373C60.4401 104.153 60.8507 103.977 61.2761 103.845C61.7161 103.713 62.1487 103.647 62.5741 103.647C63.8501 103.647 64.7814 104.05 65.3681 104.857C65.9547 105.649 66.2481 106.888 66.2481 108.575V112.667C66.2481 112.96 66.2407 113.224 66.2261 113.459C66.2261 113.679 66.2041 113.914 66.1601 114.163C66.3947 114.148 66.6221 114.141 66.8421 114.141C67.0767 114.126 67.3114 114.112 67.5461 114.097V114.999H63.0581V114.339C63.5127 114.339 63.8281 114.229 64.0041 114.009C64.1801 113.774 64.2827 113.459 64.3121 113.063C64.3414 112.652 64.3561 112.183 64.3561 111.655V108.575C64.3414 107.314 64.1287 106.36 63.7181 105.715C63.3221 105.07 62.6914 104.754 61.8261 104.769C61.2981 104.784 60.7774 104.923 60.2641 105.187C59.7654 105.451 59.3474 105.788 59.0101 106.199C59.0247 106.316 59.0321 106.448 59.0321 106.595C59.0321 106.742 59.0321 106.896 59.0321 107.057L59.0101 112.667C59.0101 112.96 59.0027 113.224 58.9881 113.459C58.9881 113.679 58.9661 113.914 58.9221 114.163C59.1567 114.148 59.3841 114.141 59.6041 114.141C59.8387 114.126 60.0734 114.112 60.3081 114.097V114.999H55.8201ZM72.686 115.351C72.3487 115.351 72.004 115.3 71.652 115.197C71.3 115.109 70.97 114.926 70.662 114.647C70.3687 114.368 70.134 113.965 69.958 113.437C69.782 112.894 69.694 112.183 69.694 111.303L69.738 104.923L68.044 104.945V103.999C68.4253 103.984 68.814 103.845 69.21 103.581C69.606 103.302 69.958 102.928 70.266 102.459C70.5887 101.99 70.8087 101.476 70.926 100.919H71.674V103.999H75.37V104.857L71.674 104.901L71.63 111.017C71.63 111.677 71.6813 112.242 71.784 112.711C71.9013 113.166 72.0847 113.51 72.334 113.745C72.5833 113.98 72.906 114.097 73.302 114.097C73.7127 114.097 74.094 113.98 74.446 113.745C74.8127 113.51 75.1353 113.188 75.414 112.777L76.008 113.261C75.6853 113.745 75.3627 114.126 75.04 114.405C74.732 114.684 74.4313 114.889 74.138 115.021C73.8447 115.168 73.5733 115.256 73.324 115.285C73.0747 115.329 72.862 115.351 72.686 115.351ZM81.9418 115.351C80.9298 115.351 80.0131 115.116 79.1918 114.647C78.3851 114.163 77.7471 113.488 77.2778 112.623C76.8085 111.743 76.5738 110.709 76.5738 109.521C76.5738 108.494 76.8011 107.534 77.2558 106.639C77.7251 105.744 78.3778 105.026 79.2138 104.483C80.0498 103.926 81.0178 103.647 82.1178 103.647C82.7338 103.647 83.3058 103.75 83.8338 103.955C84.3765 104.146 84.8531 104.446 85.2638 104.857C85.6745 105.253 85.9971 105.759 86.2318 106.375C86.4665 106.976 86.5838 107.688 86.5838 108.509L78.8398 108.641C78.8398 109.756 78.9571 110.738 79.1918 111.589C79.4411 112.425 79.8371 113.078 80.3798 113.547C80.9225 114.002 81.6191 114.229 82.4698 114.229C82.9245 114.229 83.3865 114.148 83.8558 113.987C84.3398 113.826 84.7871 113.606 85.1978 113.327C85.6085 113.048 85.9385 112.74 86.1878 112.403L86.7158 112.843C86.3198 113.459 85.8431 113.95 85.2858 114.317C84.7285 114.684 84.1565 114.948 83.5698 115.109C82.9831 115.27 82.4405 115.351 81.9418 115.351ZM78.9058 107.717H84.5158C84.5158 107.189 84.4351 106.683 84.2738 106.199C84.1271 105.7 83.8778 105.297 83.5258 104.989C83.1738 104.666 82.7118 104.505 82.1398 104.505C81.2891 104.505 80.5778 104.762 80.0058 105.275C79.4485 105.774 79.0818 106.588 78.9058 107.717ZM87.8816 114.339C88.3363 114.339 88.6516 114.229 88.8276 114.009C89.0036 113.774 89.1063 113.459 89.1356 113.063C89.165 112.652 89.1796 112.183 89.1796 111.655V101.249C89.1796 101.014 89.1796 100.794 89.1796 100.589C89.1943 100.369 89.2163 100.112 89.2456 99.819C88.9816 99.8337 88.7176 99.8484 88.4536 99.863C88.2043 99.8777 87.9476 99.8924 87.6836 99.907V98.983C88.329 98.983 88.8276 98.9537 89.1796 98.895C89.5463 98.8364 89.8176 98.763 89.9936 98.675C90.1843 98.587 90.331 98.4917 90.4336 98.389H91.0716L91.0936 112.667C91.0936 112.96 91.0863 113.224 91.0716 113.459C91.057 113.679 91.0276 113.914 90.9836 114.163C91.2183 114.148 91.4456 114.141 91.6656 114.141C91.9003 114.126 92.135 114.112 92.3696 114.097V114.999H87.8816V114.339ZM93.4358 114.339C93.8904 114.339 94.2058 114.229 94.3818 114.009C94.5578 113.774 94.6604 113.459 94.6898 113.063C94.7191 112.652 94.7338 112.183 94.7338 111.655V101.249C94.7338 101.014 94.7338 100.794 94.7338 100.589C94.7484 100.369 94.7704 100.112 94.7998 99.819C94.5358 99.8337 94.2718 99.8484 94.0078 99.863C93.7584 99.8777 93.5018 99.8924 93.2378 99.907V98.983C93.8831 98.983 94.3818 98.9537 94.7338 98.895C95.1004 98.8364 95.3718 98.763 95.5478 98.675C95.7384 98.587 95.8851 98.4917 95.9878 98.389H96.6258L96.6478 112.667C96.6478 112.96 96.6404 113.224 96.6258 113.459C96.6111 113.679 96.5818 113.914 96.5378 114.163C96.7724 114.148 96.9998 114.141 97.2198 114.141C97.4544 114.126 97.6891 114.112 97.9238 114.097V114.999H93.4358V114.339ZM99.2099 114.339C99.6646 114.339 99.9799 114.229 100.156 114.009C100.332 113.774 100.435 113.459 100.464 113.063C100.493 112.652 100.508 112.183 100.508 111.655V106.639C100.508 106.404 100.515 106.184 100.53 105.979C100.545 105.759 100.567 105.502 100.596 105.209C100.332 105.224 100.068 105.238 99.8039 105.253C99.5546 105.268 99.2979 105.282 99.0339 105.297V104.373C99.6792 104.373 100.178 104.344 100.53 104.285C100.882 104.226 101.146 104.153 101.322 104.065C101.513 103.977 101.659 103.882 101.762 103.779H102.4V112.667C102.4 112.96 102.393 113.224 102.378 113.459C102.378 113.679 102.356 113.914 102.312 114.163C102.547 114.148 102.774 114.141 102.994 114.141C103.229 114.126 103.463 114.112 103.698 114.097V114.999H99.2099V114.339ZM101.322 101.601C101.014 101.601 100.743 101.476 100.508 101.227C100.273 100.978 100.156 100.67 100.156 100.303C100.156 99.9364 100.273 99.6284 100.508 99.379C100.757 99.115 101.036 98.983 101.344 98.983C101.681 98.983 101.96 99.115 102.18 99.379C102.415 99.6284 102.532 99.9364 102.532 100.303C102.532 100.67 102.407 100.978 102.158 101.227C101.923 101.476 101.645 101.601 101.322 101.601ZM110.259 120.961C108.939 120.961 107.876 120.814 107.069 120.521C106.263 120.228 105.676 119.854 105.309 119.399C104.943 118.944 104.759 118.475 104.759 117.991C104.759 117.536 104.862 117.133 105.067 116.781C105.287 116.444 105.551 116.15 105.859 115.901C106.182 115.652 106.49 115.468 106.783 115.351C106.314 115.19 105.94 114.977 105.661 114.713C105.397 114.434 105.265 114.068 105.265 113.613C105.265 113.1 105.471 112.623 105.881 112.183C106.292 111.728 106.82 111.45 107.465 111.347C106.791 111.024 106.248 110.577 105.837 110.005C105.441 109.433 105.243 108.766 105.243 108.003C105.243 107.123 105.471 106.36 105.925 105.715C106.38 105.055 106.959 104.549 107.663 104.197C108.382 103.83 109.123 103.647 109.885 103.647C110.369 103.647 110.853 103.72 111.337 103.867C111.821 103.999 112.269 104.197 112.679 104.461C112.826 104.05 113.031 103.684 113.295 103.361C113.574 103.038 113.889 102.789 114.241 102.613C114.593 102.422 114.96 102.327 115.341 102.327C115.723 102.327 116.009 102.43 116.199 102.635C116.405 102.826 116.507 103.09 116.507 103.427C116.507 103.53 116.478 103.654 116.419 103.801C116.361 103.948 116.258 104.072 116.111 104.175C115.979 104.278 115.796 104.329 115.561 104.329C115.312 104.329 115.107 104.256 114.945 104.109C114.784 103.962 114.681 103.779 114.637 103.559C114.271 103.618 113.985 103.794 113.779 104.087C113.574 104.366 113.435 104.674 113.361 105.011C113.713 105.334 113.992 105.722 114.197 106.177C114.417 106.632 114.527 107.116 114.527 107.629C114.527 108.45 114.307 109.184 113.867 109.829C113.442 110.474 112.877 110.98 112.173 111.347C111.469 111.699 110.707 111.875 109.885 111.875C109.607 111.875 109.365 111.86 109.159 111.831C108.954 111.787 108.705 111.765 108.411 111.765C107.869 111.765 107.429 111.897 107.091 112.161C106.754 112.425 106.637 112.74 106.739 113.107C106.857 113.459 107.216 113.686 107.817 113.789C108.419 113.877 109.225 113.943 110.237 113.987C111.367 114.031 112.335 114.163 113.141 114.383C113.948 114.603 114.564 114.94 114.989 115.395C115.429 115.864 115.649 116.495 115.649 117.287C115.649 117.874 115.488 118.394 115.165 118.849C114.857 119.318 114.439 119.707 113.911 120.015C113.398 120.323 112.819 120.558 112.173 120.719C111.543 120.88 110.905 120.961 110.259 120.961ZM110.237 120.103C111.499 120.103 112.481 119.868 113.185 119.399C113.889 118.93 114.241 118.38 114.241 117.749C114.241 117.206 114.058 116.788 113.691 116.495C113.325 116.216 112.826 116.018 112.195 115.901C111.565 115.798 110.839 115.74 110.017 115.725C109.621 115.71 109.233 115.688 108.851 115.659C108.47 115.644 108.103 115.608 107.751 115.549C107.355 115.813 107.047 116.136 106.827 116.517C106.607 116.898 106.497 117.302 106.497 117.727C106.497 118.446 106.835 119.018 107.509 119.443C108.199 119.883 109.108 120.103 110.237 120.103ZM109.951 111.083C110.494 111.083 110.941 110.951 111.293 110.687C111.66 110.423 111.931 110.064 112.107 109.609C112.298 109.154 112.393 108.641 112.393 108.069C112.393 107.424 112.298 106.822 112.107 106.265C111.917 105.708 111.631 105.26 111.249 104.923C110.883 104.586 110.413 104.417 109.841 104.417C109.049 104.417 108.433 104.718 107.993 105.319C107.568 105.906 107.355 106.639 107.355 107.519C107.355 108.223 107.458 108.846 107.663 109.389C107.869 109.917 108.162 110.335 108.543 110.643C108.939 110.936 109.409 111.083 109.951 111.083ZM121.894 115.351C120.882 115.351 119.965 115.116 119.144 114.647C118.337 114.163 117.699 113.488 117.23 112.623C116.761 111.743 116.526 110.709 116.526 109.521C116.526 108.494 116.753 107.534 117.208 106.639C117.677 105.744 118.33 105.026 119.166 104.483C120.002 103.926 120.97 103.647 122.07 103.647C122.686 103.647 123.258 103.75 123.786 103.955C124.329 104.146 124.805 104.446 125.216 104.857C125.627 105.253 125.949 105.759 126.184 106.375C126.419 106.976 126.536 107.688 126.536 108.509L118.792 108.641C118.792 109.756 118.909 110.738 119.144 111.589C119.393 112.425 119.789 113.078 120.332 113.547C120.875 114.002 121.571 114.229 122.422 114.229C122.877 114.229 123.339 114.148 123.808 113.987C124.292 113.826 124.739 113.606 125.15 113.327C125.561 113.048 125.891 112.74 126.14 112.403L126.668 112.843C126.272 113.459 125.795 113.95 125.238 114.317C124.681 114.684 124.109 114.948 123.522 115.109C122.935 115.27 122.393 115.351 121.894 115.351ZM118.858 107.717H124.468C124.468 107.189 124.387 106.683 124.226 106.199C124.079 105.7 123.83 105.297 123.478 104.989C123.126 104.666 122.664 104.505 122.092 104.505C121.241 104.505 120.53 104.762 119.958 105.275C119.401 105.774 119.034 106.588 118.858 107.717ZM128.054 114.999V114.339C128.509 114.339 128.824 114.229 129 114.009C129.176 113.774 129.279 113.459 129.308 113.063C129.337 112.652 129.352 112.183 129.352 111.655L129.374 106.639C129.374 106.404 129.374 106.17 129.374 105.935C129.389 105.7 129.418 105.458 129.462 105.209C129.198 105.224 128.934 105.238 128.67 105.253C128.421 105.268 128.164 105.282 127.9 105.297V104.373C128.545 104.373 129.029 104.344 129.352 104.285C129.689 104.226 129.939 104.153 130.1 104.065C130.261 103.977 130.393 103.882 130.496 103.779H131.134C131.149 103.882 131.156 103.999 131.156 104.131C131.171 104.263 131.185 104.41 131.2 104.571C131.215 104.732 131.222 104.916 131.222 105.121C131.545 104.842 131.897 104.593 132.278 104.373C132.674 104.153 133.085 103.977 133.51 103.845C133.95 103.713 134.383 103.647 134.808 103.647C136.084 103.647 137.015 104.05 137.602 104.857C138.189 105.649 138.482 106.888 138.482 108.575V112.667C138.482 112.96 138.475 113.224 138.46 113.459C138.46 113.679 138.438 113.914 138.394 114.163C138.629 114.148 138.856 114.141 139.076 114.141C139.311 114.126 139.545 114.112 139.78 114.097V114.999H135.292V114.339C135.747 114.339 136.062 114.229 136.238 114.009C136.414 113.774 136.517 113.459 136.546 113.063C136.575 112.652 136.59 112.183 136.59 111.655V108.575C136.575 107.314 136.363 106.36 135.952 105.715C135.556 105.07 134.925 104.754 134.06 104.769C133.532 104.784 133.011 104.923 132.498 105.187C131.999 105.451 131.581 105.788 131.244 106.199C131.259 106.316 131.266 106.448 131.266 106.595C131.266 106.742 131.266 106.896 131.266 107.057L131.244 112.667C131.244 112.96 131.237 113.224 131.222 113.459C131.222 113.679 131.2 113.914 131.156 114.163C131.391 114.148 131.618 114.141 131.838 114.141C132.073 114.126 132.307 114.112 132.542 114.097V114.999H128.054ZM146.345 115.351C145.363 115.351 144.453 115.131 143.617 114.691C142.796 114.236 142.136 113.591 141.637 112.755C141.153 111.904 140.911 110.885 140.911 109.697C140.911 108.934 141.051 108.194 141.329 107.475C141.608 106.756 141.997 106.111 142.495 105.539C143.009 104.952 143.617 104.49 144.321 104.153C145.025 103.816 145.803 103.647 146.653 103.647C147.475 103.647 148.186 103.772 148.787 104.021C149.403 104.27 149.88 104.6 150.217 105.011C150.555 105.422 150.723 105.869 150.723 106.353C150.723 106.676 150.635 106.954 150.459 107.189C150.283 107.409 150.027 107.519 149.689 107.519C149.323 107.534 149.059 107.424 148.897 107.189C148.751 106.94 148.677 106.72 148.677 106.529C148.677 106.382 148.699 106.236 148.743 106.089C148.787 105.928 148.875 105.781 149.007 105.649C148.89 105.297 148.685 105.04 148.391 104.879C148.098 104.703 147.79 104.593 147.467 104.549C147.159 104.49 146.903 104.461 146.697 104.461C145.7 104.461 144.857 104.864 144.167 105.671C143.493 106.463 143.155 107.622 143.155 109.147C143.155 110.13 143.309 111.002 143.617 111.765C143.94 112.528 144.387 113.129 144.959 113.569C145.531 113.994 146.191 114.207 146.939 114.207C147.629 114.207 148.289 114.024 148.919 113.657C149.55 113.29 150.041 112.843 150.393 112.315L150.965 112.755C150.584 113.371 150.122 113.87 149.579 114.251C149.051 114.632 148.501 114.911 147.929 115.087C147.372 115.263 146.844 115.351 146.345 115.351ZM157.463 115.351C156.451 115.351 155.534 115.116 154.713 114.647C153.906 114.163 153.268 113.488 152.799 112.623C152.329 111.743 152.095 110.709 152.095 109.521C152.095 108.494 152.322 107.534 152.777 106.639C153.246 105.744 153.899 105.026 154.735 104.483C155.571 103.926 156.539 103.647 157.639 103.647C158.255 103.647 158.827 103.75 159.355 103.955C159.897 104.146 160.374 104.446 160.785 104.857C161.195 105.253 161.518 105.759 161.753 106.375C161.987 106.976 162.105 107.688 162.105 108.509L154.361 108.641C154.361 109.756 154.478 110.738 154.713 111.589C154.962 112.425 155.358 113.078 155.901 113.547C156.443 114.002 157.14 114.229 157.991 114.229C158.445 114.229 158.907 114.148 159.377 113.987C159.861 113.826 160.308 113.606 160.719 113.327C161.129 113.048 161.459 112.74 161.709 112.403L162.237 112.843C161.841 113.459 161.364 113.95 160.807 114.317C160.249 114.684 159.677 114.948 159.091 115.109C158.504 115.27 157.961 115.351 157.463 115.351ZM154.427 107.717H160.037C160.037 107.189 159.956 106.683 159.795 106.199C159.648 105.7 159.399 105.297 159.047 104.989C158.695 104.666 158.233 104.505 157.661 104.505C156.81 104.505 156.099 104.762 155.527 105.275C154.969 105.774 154.603 106.588 154.427 107.717Z" fill="black"/>
</g>
<g id="Group 2117761563">
<path id="Ellipse 7133" d="M117.418 7.62109C169.363 13.7024 209.669 57.866 209.669 111.444C209.669 165.07 169.289 209.265 117.276 215.283M92.5114 7.66078C40.7285 13.8921 0.595118 57.981 0.595115 111.444C0.595113 164.824 40.6055 208.86 92.2733 215.198" stroke="#A684FF" stroke-width="1.19063"/>
<g id="Frame 2117761337">
<rect x="112.99" y="207.645" width="15.24" height="15.24" rx="7.62" transform="rotate(90 112.99 207.645)" fill="#7700EE"/>
</g>
<g id="Frame 2147224880">
<rect x="112.99" width="15.24" height="15.24" rx="7.62" transform="rotate(90 112.99 0)" fill="#7700EE"/>
</g>
</g>
</g>
</g>
</g>
</g>
</g>
</g>
<defs>
<filter id="filter0_iiii_1_40" x="26.9194" y="34.1133" width="155.093" height="159.746" filterUnits="userSpaceOnUse" color-interpolation-filters="sRGB">
<feFlood flood-opacity="0" result="BackgroundImageFix"/>
<feBlend mode="normal" in="SourceGraphic" in2="BackgroundImageFix" result="shape"/>
<feColorMatrix in="SourceAlpha" type="matrix" values="0 0 0 0 0 0 0 0 0 0 0 0 0 0 0 0 0 0 127 0" result="hardAlpha"/>
<feMorphology radius="31.0186" operator="erode" in="SourceAlpha" result="effect1_innerShadow_1_40"/>
<feOffset dy="0.620371"/>
<feGaussianBlur stdDeviation="20.1621"/>
<feComposite in2="hardAlpha" operator="arithmetic" k2="-1" k3="1"/>
<feColorMatrix type="matrix" values="0 0 0 0 0.290196 0 0 0 0 0.537255 0 0 0 0 0.909804 0 0 0 1 0"/>
<feBlend mode="lighten" in2="shape" result="effect1_innerShadow_1_40"/>
<feColorMatrix in="SourceAlpha" type="matrix" values="0 0 0 0 0 0 0 0 0 0 0 0 0 0 0 0 0 0 127 0" result="hardAlpha"/>
<feMorphology radius="21.713" operator="erode" in="SourceAlpha" result="effect2_innerShadow_1_40"/>
<feOffset/>
<feGaussianBlur stdDeviation="15.5093"/>
<feComposite in2="hardAlpha" operator="arithmetic" k2="-1" k3="1"/>
<feColorMatrix type="matrix" values="0 0 0 0 0.290196 0 0 0 0 0.537255 0 0 0 0 0.909804 0 0 0 1 0"/>
<feBlend mode="screen" in2="effect1_innerShadow_1_40" result="effect2_innerShadow_1_40"/>
<feColorMatrix in="SourceAlpha" type="matrix" values="0 0 0 0 0 0 0 0 0 0 0 0 0 0 0 0 0 0 127 0" result="hardAlpha"/>
<feMorphology radius="7.44446" operator="erode" in="SourceAlpha" result="effect3_innerShadow_1_40"/>
<feOffset dy="4.65279"/>
<feGaussianBlur stdDeviation="11.632"/>
<feComposite in2="hardAlpha" operator="arithmetic" k2="-1" k3="1"/>
<feColorMatrix type="matrix" values="0 0 0 0 0.54902 0 0 0 0 0.290196 0 0 0 0 1 0 0 0 1 0"/>
<feBlend mode="normal" in2="effect2_innerShadow_1_40" result="effect3_innerShadow_1_40"/>
<feColorMatrix in="SourceAlpha" type="matrix" values="0 0 0 0 0 0 0 0 0 0 0 0 0 0 0 0 0 0 127 0" result="hardAlpha"/>
<feMorphology radius="4.96297" operator="erode" in="SourceAlpha" result="effect4_innerShadow_1_40"/>
<feOffset dy="0.620371"/>
<feGaussianBlur stdDeviation="10.081"/>
<feComposite in2="hardAlpha" operator="arithmetic" k2="-1" k3="1"/>
<feColorMatrix type="matrix" values="0 0 0 0 0.65098 0 0 0 0 0.517647 0 0 0 0 1 0 0 0 1 0"/>
<feBlend mode="screen" in2="effect3_innerShadow_1_40" result="effect4_innerShadow_1_40"/>
</filter>
<linearGradient id="paint0_linear_1_40" x1="27.8591" y1="94.1609" x2="181.661" y2="94.1609" gradientUnits="userSpaceOnUse">
<stop stop-color="white" stop-opacity="0"/>
<stop offset="0.206731" stop-color="#C8B8FF"/>
<stop offset="0.461538" stop-color="#A684FF"/>
<stop offset="0.725962" stop-color="#8C4AFF"/>
<stop offset="1" stop-color="white" stop-opacity="0"/>
</linearGradient>
<linearGradient id="paint1_linear_1_40" x1="112.884" y1="200.635" x2="186.696" y2="71.8327" gradientUnits="userSpaceOnUse">
<stop stop-color="white" stop-opacity="0"/>
<stop offset="0.206731" stop-color="#C8B8FF"/>
<stop offset="0.461538" stop-color="#A684FF"/>
<stop offset="0.725962" stop-color="#8C4AFF"/>
<stop offset="1" stop-color="white" stop-opacity="0"/>
</linearGradient>
<linearGradient id="paint2_linear_1_40" x1="18.9558" y1="71.8327" x2="96.643" y2="203.587" gradientUnits="userSpaceOnUse">
<stop stop-color="white" stop-opacity="0"/>
<stop offset="0.206731" stop-color="#C8B8FF"/>
<stop offset="0.461538" stop-color="#A684FF"/>
<stop offset="0.725962" stop-color="#8C4AFF"/>
<stop offset="1" stop-color="white" stop-opacity="0"/>
</linearGradient>
</defs>
</svg>
