<svg width="439" height="442" viewBox="0 0 439 442" fill="none" xmlns="http://www.w3.org/2000/svg">
<path d="M61.5533 110.88C58.9645 109.062 58.3306 105.486 60.2197 102.949C77.9891 79.0877 100.942 59.5326 127.376 45.775C155.506 31.1357 186.749 23.4922 218.46 23.4922C250.17 23.4922 281.414 31.1357 309.543 45.775C335.978 59.5326 358.93 79.0877 376.7 102.949C378.589 105.486 377.955 109.062 375.366 110.88C372.774 112.699 369.205 112.065 367.309 109.53C350.596 87.183 329.049 68.8654 304.251 55.963C277.755 42.1776 248.327 34.9801 218.46 34.9801C188.592 34.9801 159.164 42.1776 132.669 55.963C107.87 68.8654 86.3235 87.183 69.6105 109.53C67.7139 112.065 64.1451 112.699 61.5533 110.88Z" fill="url(#paint0_linear_8307_545)"/>
<path d="M392.43 139.866C395.07 138.533 398.297 139.646 399.473 142.36C411.347 169.763 416.855 199.527 415.55 229.411C414.167 261.096 405.166 291.98 389.309 319.447C373.452 346.914 351.208 370.154 324.461 387.196C299.452 403.131 271.195 413.209 241.802 416.714C238.5 417.108 235.646 414.498 235.632 411.172C235.619 408.215 237.877 405.752 240.815 405.413C268.729 402.185 295.573 392.666 319.312 377.546C344.524 361.488 365.492 339.587 380.437 313.7C395.381 287.813 403.862 258.704 405.16 228.84C406.385 200.671 401.184 172.615 389.979 146.789C388.852 144.192 389.902 141.142 392.43 139.866Z" fill="url(#paint1_linear_8307_545)"/>
<path d="M201.302 411.172C201.288 414.498 198.434 417.108 195.132 416.714C165.738 413.209 137.482 403.131 112.473 387.196C85.7257 370.154 63.4812 346.914 47.6245 319.447C31.7679 291.98 22.7665 261.096 21.3831 229.411C20.0784 199.527 25.5863 169.763 37.4605 142.36C38.6366 139.646 41.8632 138.533 44.504 139.866C47.0317 141.142 48.0814 144.192 46.9544 146.789C35.7498 172.615 30.5488 200.671 31.7732 228.84C33.0713 258.704 41.5523 287.813 56.497 313.7C71.4417 339.587 92.4092 361.488 117.621 377.546C141.361 392.666 168.205 402.185 196.119 405.413C199.056 405.752 201.315 408.215 201.302 411.172Z" fill="url(#paint2_linear_8307_545)"/>
<g filter="url(#filter0_iiii_8307_545)">
<rect x="55.0156" y="58.375" width="325.654" height="325.654" rx="162.827" fill="white"/>
</g>
<path d="M270.575 297.817V298.985H266.891V297.817H270.575ZM267.8 296.281H269.311V302.298C269.311 302.501 269.341 302.657 269.402 302.765C269.466 302.871 269.55 302.943 269.653 302.982C269.756 303.021 269.87 303.04 269.995 303.04C270.089 303.04 270.176 303.033 270.254 303.02C270.334 303.006 270.395 302.993 270.437 302.982L270.692 304.163C270.611 304.191 270.496 304.221 270.345 304.255C270.198 304.288 270.017 304.307 269.803 304.313C269.425 304.324 269.084 304.267 268.781 304.142C268.478 304.014 268.237 303.816 268.059 303.549C267.884 303.282 267.797 302.949 267.8 302.548V296.281Z" fill="black"/>
<path d="M261.487 300.471V304.226H259.977V297.818H261.42V298.907H261.495C261.643 298.548 261.878 298.263 262.2 298.051C262.526 297.84 262.928 297.734 263.406 297.734C263.849 297.734 264.234 297.829 264.562 298.018C264.893 298.207 265.149 298.481 265.33 298.84C265.513 299.199 265.604 299.634 265.601 300.146V304.226H264.091V300.38C264.091 299.951 263.979 299.616 263.757 299.374C263.537 299.132 263.232 299.011 262.843 299.011C262.579 299.011 262.344 299.07 262.138 299.186C261.935 299.3 261.775 299.466 261.658 299.683C261.544 299.9 261.487 300.163 261.487 300.471Z" fill="black"/>
<path d="M254.84 304.356C254.434 304.356 254.068 304.284 253.743 304.139C253.42 303.991 253.164 303.774 252.975 303.488C252.788 303.201 252.695 302.848 252.695 302.428C252.695 302.067 252.762 301.768 252.896 301.531C253.029 301.295 253.211 301.106 253.442 300.964C253.673 300.822 253.933 300.715 254.222 300.642C254.514 300.567 254.816 300.513 255.128 300.48C255.503 300.441 255.808 300.406 256.042 300.375C256.275 300.342 256.445 300.292 256.551 300.225C256.659 300.156 256.713 300.049 256.713 299.904V299.879C256.713 299.565 256.62 299.321 256.434 299.149C256.247 298.976 255.979 298.89 255.628 298.89C255.259 298.89 254.965 298.971 254.748 299.132C254.534 299.293 254.389 299.484 254.314 299.704L252.904 299.503C253.015 299.114 253.199 298.789 253.455 298.527C253.711 298.263 254.024 298.065 254.393 297.935C254.763 297.801 255.172 297.734 255.62 297.734C255.929 297.734 256.236 297.771 256.542 297.843C256.848 297.915 257.128 298.035 257.381 298.202C257.634 298.366 257.837 298.59 257.99 298.873C258.146 299.157 258.224 299.512 258.224 299.937V304.226H256.772V303.346H256.722C256.63 303.524 256.501 303.691 256.334 303.847C256.17 304 255.962 304.124 255.712 304.218C255.464 304.31 255.174 304.356 254.84 304.356ZM255.232 303.246C255.535 303.246 255.798 303.186 256.021 303.067C256.243 302.944 256.414 302.783 256.534 302.583C256.656 302.382 256.717 302.164 256.717 301.928V301.172C256.67 301.211 256.59 301.247 256.475 301.281C256.364 301.314 256.239 301.343 256.1 301.368C255.961 301.393 255.823 301.416 255.687 301.435C255.551 301.455 255.432 301.471 255.332 301.485C255.107 301.516 254.905 301.566 254.727 301.635C254.549 301.705 254.409 301.802 254.306 301.928C254.203 302.05 254.151 302.208 254.151 302.403C254.151 302.681 254.253 302.891 254.456 303.033C254.659 303.175 254.918 303.246 255.232 303.246Z" fill="black"/>
<path d="M249.695 304.224V297.815H251.205V304.224H249.695ZM250.454 296.905C250.215 296.905 250.009 296.826 249.837 296.668C249.664 296.506 249.578 296.313 249.578 296.088C249.578 295.859 249.664 295.666 249.837 295.508C250.009 295.346 250.215 295.266 250.454 295.266C250.696 295.266 250.902 295.346 251.072 295.508C251.244 295.666 251.331 295.859 251.331 296.088C251.331 296.313 251.244 296.506 251.072 296.668C250.902 296.826 250.696 296.905 250.454 296.905Z" fill="black"/>
<path d="M247.901 295.68V304.225H246.391V295.68H247.901Z" fill="black"/>
<path d="M238.812 306.63V297.818H240.298V298.878H240.385C240.463 298.722 240.573 298.556 240.715 298.381C240.857 298.203 241.049 298.051 241.291 297.926C241.533 297.798 241.842 297.734 242.217 297.734C242.712 297.734 243.159 297.861 243.556 298.114C243.957 298.364 244.274 298.736 244.508 299.228C244.744 299.718 244.862 300.318 244.862 301.031C244.862 301.734 244.747 302.332 244.516 302.825C244.285 303.317 243.971 303.692 243.573 303.951C243.175 304.21 242.725 304.339 242.221 304.339C241.854 304.339 241.55 304.278 241.308 304.156C241.066 304.033 240.871 303.886 240.723 303.713C240.579 303.538 240.466 303.373 240.385 303.217H240.323V306.63H238.812ZM240.294 301.022C240.294 301.437 240.352 301.8 240.469 302.111C240.589 302.423 240.76 302.666 240.982 302.841C241.207 303.014 241.48 303.1 241.8 303.1C242.134 303.1 242.413 303.011 242.639 302.833C242.864 302.652 243.034 302.406 243.148 302.094C243.264 301.78 243.323 301.423 243.323 301.022C243.323 300.624 243.266 300.271 243.152 299.962C243.038 299.654 242.868 299.412 242.643 299.236C242.417 299.061 242.137 298.974 241.8 298.974C241.477 298.974 241.203 299.058 240.978 299.228C240.753 299.398 240.582 299.636 240.465 299.942C240.351 300.247 240.294 300.608 240.294 301.022Z" fill="black"/>
<path d="M228.031 304.226V297.818H229.475V298.907H229.55C229.684 298.54 229.905 298.253 230.213 298.047C230.522 297.839 230.891 297.734 231.319 297.734C231.753 297.734 232.119 297.84 232.416 298.051C232.717 298.26 232.928 298.545 233.051 298.907H233.117C233.259 298.551 233.498 298.267 233.835 298.056C234.174 297.841 234.576 297.734 235.041 297.734C235.631 297.734 236.112 297.921 236.484 298.293C236.857 298.666 237.044 299.21 237.044 299.925V304.226H235.529V300.158C235.529 299.761 235.423 299.47 235.212 299.286C235.001 299.1 234.742 299.007 234.436 299.007C234.071 299.007 233.786 299.121 233.581 299.349C233.377 299.574 233.276 299.868 233.276 300.229V304.226H231.795V300.096C231.795 299.765 231.695 299.501 231.494 299.303C231.297 299.106 231.038 299.007 230.718 299.007C230.501 299.007 230.304 299.063 230.126 299.174C229.948 299.282 229.806 299.437 229.7 299.637C229.595 299.834 229.542 300.065 229.542 300.33V304.226H228.031Z" fill="black"/>
<path d="M223.454 304.352C222.828 304.352 222.285 304.214 221.826 303.939C221.367 303.663 221.011 303.278 220.758 302.783C220.508 302.288 220.383 301.709 220.383 301.047C220.383 300.385 220.508 299.805 220.758 299.307C221.011 298.809 221.367 298.423 221.826 298.147C222.285 297.872 222.828 297.734 223.454 297.734C224.08 297.734 224.622 297.872 225.081 298.147C225.54 298.423 225.895 298.809 226.145 299.307C226.398 299.805 226.525 300.385 226.525 301.047C226.525 301.709 226.398 302.288 226.145 302.783C225.895 303.278 225.54 303.663 225.081 303.939C224.622 304.214 224.08 304.352 223.454 304.352ZM223.462 303.142C223.801 303.142 224.085 303.049 224.313 302.862C224.541 302.673 224.711 302.42 224.822 302.103C224.936 301.786 224.993 301.432 224.993 301.043C224.993 300.651 224.936 300.296 224.822 299.979C224.711 299.659 224.541 299.405 224.313 299.216C224.085 299.026 223.801 298.932 223.462 298.932C223.114 298.932 222.825 299.026 222.594 299.216C222.366 299.405 222.195 299.659 222.081 299.979C221.97 300.296 221.914 300.651 221.914 301.043C221.914 301.432 221.97 301.786 222.081 302.103C222.195 302.42 222.366 302.673 222.594 302.862C222.825 303.049 223.114 303.142 223.462 303.142Z" fill="black"/>
<path d="M219.062 298.562H217.502C217.457 298.306 217.375 298.08 217.256 297.882C217.136 297.682 216.987 297.512 216.809 297.373C216.631 297.234 216.428 297.13 216.2 297.06C215.975 296.988 215.731 296.952 215.47 296.952C215.005 296.952 214.594 297.069 214.235 297.302C213.876 297.533 213.595 297.873 213.392 298.32C213.189 298.765 213.088 299.309 213.088 299.952C213.088 300.605 213.189 301.156 213.392 301.604C213.598 302.049 213.879 302.386 214.235 302.614C214.594 302.839 215.004 302.952 215.466 302.952C215.722 302.952 215.961 302.918 216.183 302.852C216.409 302.782 216.61 302.68 216.788 302.547C216.969 302.413 217.121 302.249 217.243 302.055C217.368 301.86 217.455 301.637 217.502 301.387L219.062 301.395C219.004 301.801 218.877 302.183 218.683 302.539C218.491 302.895 218.239 303.209 217.928 303.482C217.616 303.751 217.252 303.963 216.834 304.116C216.417 304.266 215.954 304.341 215.445 304.341C214.694 304.341 214.024 304.167 213.434 303.819C212.844 303.472 212.38 302.97 212.04 302.313C211.701 301.657 211.531 300.87 211.531 299.952C211.531 299.031 211.702 298.244 212.044 297.59C212.387 296.934 212.853 296.432 213.442 296.084C214.032 295.736 214.699 295.562 215.445 295.562C215.921 295.562 216.363 295.629 216.772 295.763C217.181 295.896 217.545 296.092 217.865 296.351C218.185 296.607 218.448 296.921 218.654 297.294C218.862 297.664 218.998 298.087 219.062 298.562Z" fill="black"/>
<path d="M286.863 289.903C286.457 289.903 286.091 289.83 285.766 289.686C285.443 289.538 285.187 289.321 284.998 289.035C284.812 288.748 284.719 288.395 284.719 287.975C284.719 287.613 284.786 287.314 284.919 287.078C285.053 286.842 285.235 286.652 285.466 286.511C285.696 286.369 285.957 286.262 286.246 286.189C286.538 286.114 286.84 286.06 287.151 286.027C287.527 285.988 287.831 285.953 288.065 285.922C288.299 285.889 288.468 285.839 288.574 285.772C288.683 285.703 288.737 285.595 288.737 285.451V285.426C288.737 285.112 288.644 284.868 288.457 284.696C288.271 284.523 288.002 284.437 287.652 284.437C287.282 284.437 286.989 284.518 286.772 284.679C286.557 284.84 286.413 285.031 286.338 285.251L284.927 285.05C285.039 284.661 285.222 284.335 285.478 284.074C285.734 283.81 286.047 283.612 286.417 283.482C286.787 283.348 287.196 283.281 287.644 283.281C287.952 283.281 288.26 283.317 288.566 283.39C288.872 283.462 289.151 283.582 289.404 283.749C289.657 283.913 289.861 284.137 290.014 284.42C290.169 284.704 290.247 285.059 290.247 285.484V289.773H288.795V288.893H288.745C288.653 289.071 288.524 289.238 288.357 289.394C288.193 289.547 287.986 289.67 287.735 289.765C287.488 289.857 287.197 289.903 286.863 289.903ZM287.256 288.793C287.559 288.793 287.822 288.733 288.044 288.613C288.267 288.491 288.438 288.33 288.557 288.129C288.68 287.929 288.741 287.711 288.741 287.474V286.719C288.694 286.758 288.613 286.794 288.499 286.828C288.388 286.861 288.262 286.89 288.123 286.915C287.984 286.94 287.847 286.963 287.71 286.982C287.574 287.002 287.456 287.018 287.356 287.032C287.13 287.063 286.929 287.113 286.751 287.182C286.573 287.252 286.432 287.349 286.329 287.474C286.226 287.597 286.175 287.755 286.175 287.95C286.175 288.228 286.276 288.438 286.479 288.58C286.683 288.722 286.941 288.793 287.256 288.793Z" fill="black"/>
<path d="M283.173 281.227V289.771H281.625V281.227H283.173Z" fill="black"/>
<path d="M279.735 281.227V289.771H278.188V281.227H279.735Z" fill="black"/>
<path d="M273.341 285.059L271.964 285.209C271.925 285.07 271.857 284.939 271.76 284.817C271.665 284.694 271.537 284.596 271.376 284.52C271.215 284.445 271.017 284.408 270.784 284.408C270.469 284.408 270.205 284.476 269.991 284.612C269.779 284.749 269.675 284.925 269.678 285.142C269.675 285.328 269.743 285.48 269.882 285.597C270.024 285.714 270.258 285.81 270.583 285.885L271.676 286.118C272.283 286.249 272.733 286.456 273.028 286.74C273.326 287.024 273.476 287.395 273.479 287.854C273.476 288.257 273.358 288.613 273.124 288.922C272.893 289.228 272.572 289.467 272.16 289.64C271.749 289.812 271.276 289.899 270.742 289.899C269.957 289.899 269.326 289.734 268.848 289.406C268.369 289.075 268.084 288.615 267.992 288.025L269.465 287.883C269.532 288.173 269.674 288.391 269.891 288.538C270.108 288.686 270.39 288.759 270.738 288.759C271.096 288.759 271.384 288.686 271.601 288.538C271.821 288.391 271.931 288.209 271.931 287.992C271.931 287.808 271.86 287.657 271.718 287.537C271.579 287.417 271.362 287.326 271.067 287.262L269.974 287.032C269.359 286.904 268.905 286.689 268.61 286.385C268.315 286.079 268.169 285.693 268.172 285.226C268.169 284.831 268.276 284.488 268.493 284.199C268.713 283.907 269.017 283.682 269.407 283.523C269.799 283.362 270.251 283.281 270.763 283.281C271.514 283.281 272.105 283.441 272.536 283.761C272.97 284.081 273.238 284.513 273.341 285.059Z" fill="black"/>
<path d="M266.669 285.059L265.292 285.209C265.253 285.07 265.185 284.939 265.088 284.817C264.993 284.694 264.865 284.596 264.704 284.52C264.543 284.445 264.345 284.408 264.112 284.408C263.797 284.408 263.533 284.476 263.319 284.612C263.107 284.749 263.003 284.925 263.006 285.142C263.003 285.328 263.071 285.48 263.21 285.597C263.352 285.714 263.586 285.81 263.911 285.885L265.005 286.118C265.611 286.249 266.062 286.456 266.356 286.74C266.654 287.024 266.804 287.395 266.807 287.854C266.804 288.257 266.686 288.613 266.452 288.922C266.221 289.228 265.9 289.467 265.489 289.64C265.077 289.812 264.604 289.899 264.07 289.899C263.286 289.899 262.654 289.734 262.176 289.406C261.697 289.075 261.412 288.615 261.32 288.025L262.793 287.883C262.86 288.173 263.002 288.391 263.219 288.538C263.436 288.686 263.718 288.759 264.066 288.759C264.425 288.759 264.712 288.686 264.929 288.538C265.149 288.391 265.259 288.209 265.259 287.992C265.259 287.808 265.188 287.657 265.046 287.537C264.907 287.417 264.69 287.326 264.395 287.262L263.302 287.032C262.687 286.904 262.233 286.689 261.938 286.385C261.643 286.079 261.497 285.693 261.5 285.226C261.497 284.831 261.604 284.488 261.821 284.199C262.041 283.907 262.345 283.682 262.735 283.523C263.127 283.362 263.579 283.281 264.091 283.281C264.842 283.281 265.433 283.441 265.864 283.761C266.298 284.081 266.566 284.513 266.669 285.059Z" fill="black"/>
<path d="M256.449 289.903C256.043 289.903 255.677 289.83 255.352 289.686C255.029 289.538 254.773 289.321 254.584 289.035C254.398 288.748 254.305 288.395 254.305 287.975C254.305 287.613 254.371 287.314 254.505 287.078C254.638 286.842 254.821 286.652 255.052 286.511C255.282 286.369 255.542 286.262 255.832 286.189C256.124 286.114 256.426 286.06 256.737 286.027C257.113 285.988 257.417 285.953 257.651 285.922C257.885 285.889 258.054 285.839 258.16 285.772C258.268 285.703 258.323 285.595 258.323 285.451V285.426C258.323 285.112 258.23 284.868 258.043 284.696C257.857 284.523 257.588 284.437 257.238 284.437C256.868 284.437 256.574 284.518 256.357 284.679C256.143 284.84 255.999 285.031 255.924 285.251L254.513 285.05C254.625 284.661 254.808 284.335 255.064 284.074C255.32 283.81 255.633 283.612 256.003 283.482C256.373 283.348 256.782 283.281 257.23 283.281C257.538 283.281 257.846 283.317 258.152 283.39C258.458 283.462 258.737 283.582 258.99 283.749C259.243 283.913 259.446 284.137 259.599 284.42C259.755 284.704 259.833 285.059 259.833 285.484V289.773H258.381V288.893H258.331C258.239 289.071 258.11 289.238 257.943 289.394C257.779 289.547 257.572 289.67 257.321 289.765C257.074 289.857 256.783 289.903 256.449 289.903ZM256.841 288.793C257.145 288.793 257.408 288.733 257.63 288.613C257.853 288.491 258.024 288.33 258.143 288.129C258.266 287.929 258.327 287.711 258.327 287.474V286.719C258.28 286.758 258.199 286.794 258.085 286.828C257.974 286.861 257.848 286.89 257.709 286.915C257.57 286.94 257.433 286.963 257.296 286.982C257.16 287.002 257.042 287.018 256.942 287.032C256.716 287.063 256.515 287.113 256.337 287.182C256.159 287.252 256.018 287.349 255.915 287.474C255.812 287.597 255.761 287.755 255.761 287.95C255.761 288.228 255.862 288.438 256.065 288.58C256.268 288.722 256.527 288.793 256.841 288.793Z" fill="black"/>
<path d="M252.815 281.227V289.771H251.305V281.227H252.815Z" fill="black"/>
<path d="M249.719 284.109H248.158C248.114 283.853 248.032 283.627 247.912 283.429C247.792 283.229 247.644 283.059 247.466 282.92C247.288 282.781 247.084 282.677 246.856 282.607C246.631 282.535 246.388 282.499 246.126 282.499C245.662 282.499 245.25 282.616 244.891 282.849C244.532 283.08 244.251 283.419 244.048 283.867C243.845 284.312 243.744 284.856 243.744 285.499C243.744 286.152 243.845 286.703 244.048 287.151C244.254 287.596 244.535 287.932 244.891 288.161C245.25 288.386 245.66 288.499 246.122 288.499C246.378 288.499 246.617 288.465 246.84 288.398C247.065 288.329 247.267 288.227 247.445 288.094C247.626 287.96 247.777 287.796 247.899 287.601C248.025 287.407 248.111 287.184 248.158 286.934L249.719 286.942C249.66 287.348 249.534 287.729 249.339 288.085C249.147 288.442 248.895 288.756 248.584 289.028C248.272 289.298 247.908 289.51 247.491 289.663C247.073 289.813 246.61 289.888 246.101 289.888C245.35 289.888 244.68 289.714 244.09 289.366C243.5 289.019 243.036 288.517 242.697 287.86C242.357 287.204 242.188 286.417 242.188 285.499C242.188 284.578 242.359 283.791 242.701 283.137C243.043 282.481 243.509 281.979 244.098 281.631C244.688 281.283 245.356 281.109 246.101 281.109C246.577 281.109 247.019 281.176 247.428 281.31C247.837 281.443 248.201 281.639 248.521 281.898C248.841 282.154 249.104 282.468 249.31 282.841C249.518 283.211 249.655 283.634 249.719 284.109Z" fill="black"/>
<path d="M231.383 289.771V281.227H234.587C235.244 281.227 235.794 281.341 236.239 281.569C236.687 281.797 237.025 282.117 237.253 282.528C237.484 282.937 237.6 283.414 237.6 283.959C237.6 284.507 237.483 284.983 237.249 285.386C237.018 285.787 236.678 286.097 236.227 286.317C235.776 286.534 235.223 286.642 234.566 286.642H232.284V285.357H234.358C234.742 285.357 235.056 285.304 235.301 285.199C235.545 285.09 235.726 284.933 235.843 284.727C235.963 284.519 236.023 284.263 236.023 283.959C236.023 283.656 235.963 283.398 235.843 283.183C235.723 282.966 235.541 282.802 235.297 282.691C235.052 282.577 234.736 282.52 234.349 282.52H232.931V289.771H231.383ZM235.797 285.9L237.913 289.771H236.185L234.107 285.9H235.797Z" fill="black"/>
<path d="M225.528 289.771H222.633V281.227H225.587C226.435 281.227 227.164 281.398 227.773 281.74C228.385 282.079 228.855 282.567 229.183 283.204C229.512 283.841 229.676 284.603 229.676 285.491C229.676 286.381 229.51 287.146 229.179 287.785C228.851 288.425 228.377 288.916 227.756 289.258C227.139 289.6 226.396 289.771 225.528 289.771ZM224.181 288.432H225.453C226.049 288.432 226.545 288.324 226.943 288.107C227.341 287.887 227.64 287.56 227.84 287.126C228.04 286.69 228.14 286.144 228.14 285.491C228.14 284.837 228.04 284.295 227.84 283.863C227.64 283.43 227.343 283.105 226.951 282.891C226.562 282.674 226.078 282.566 225.499 282.566H224.181V288.432Z" fill="black"/>
<path d="M211.742 281.227H213.636L216.173 287.418H216.273L218.81 281.227H220.704V289.771H219.219V283.901H219.14L216.778 289.746H215.668L213.307 283.888H213.228V289.771H211.742V281.227Z" fill="black"/>
<path d="M170.069 296.469C169.331 296.469 168.775 296.273 168.402 295.88C168.03 295.495 167.844 294.903 167.844 294.106V287.293C167.844 286.502 168.03 285.914 168.402 285.528C168.775 285.136 169.331 284.94 170.069 284.94H179.029C179.768 284.94 180.323 285.136 180.696 285.528C181.068 285.914 181.255 286.502 181.255 287.293V294.106C181.255 294.903 181.068 295.495 180.696 295.88C180.323 296.273 179.768 296.469 179.029 296.469H170.069ZM169.638 285.803L169.647 282.813C169.647 281.708 169.87 280.771 170.314 279.999C170.759 279.222 171.353 278.63 172.098 278.225C172.843 277.82 173.66 277.617 174.549 277.617C175.438 277.617 176.255 277.82 177 278.225C177.745 278.63 178.34 279.222 178.784 279.999C179.235 280.771 179.461 281.708 179.461 282.813V285.803H177.363L177.373 282.695C177.373 282.048 177.242 281.496 176.98 281.038C176.726 280.581 176.386 280.235 175.961 279.999C175.536 279.757 175.066 279.637 174.549 279.637C174.033 279.637 173.559 279.757 173.128 279.999C172.703 280.235 172.363 280.581 172.108 281.038C171.86 281.496 171.736 282.048 171.736 282.695V285.803H169.638Z" fill="black"/>
<path d="M172.078 273.328C171.954 273.233 171.877 273.107 171.847 272.95C171.821 272.795 171.842 272.618 171.911 272.419L172.845 269.646L170.466 267.94C170.289 267.812 170.164 267.678 170.092 267.537C170.02 267.396 170.012 267.25 170.068 267.099C170.117 266.949 170.21 266.837 170.348 266.765C170.489 266.693 170.666 266.659 170.879 266.662L173.804 266.681L174.689 263.889C174.758 263.683 174.846 263.525 174.954 263.417C175.066 263.306 175.2 263.25 175.358 263.25C175.518 263.25 175.654 263.306 175.766 263.417C175.877 263.525 175.965 263.683 176.031 263.889L176.921 266.681L179.841 266.662C180.054 266.659 180.23 266.695 180.367 266.77C180.508 266.842 180.603 266.952 180.652 267.099C180.705 267.25 180.695 267.396 180.623 267.537C180.554 267.678 180.431 267.812 180.254 267.94L177.875 269.646L178.809 272.419C178.878 272.618 178.899 272.795 178.873 272.95C178.846 273.107 178.769 273.233 178.642 273.328C178.517 273.426 178.376 273.462 178.219 273.436C178.061 273.41 177.896 273.333 177.722 273.205L175.358 271.47L172.998 273.205C172.824 273.333 172.659 273.41 172.501 273.436C172.347 273.462 172.206 273.426 172.078 273.328Z" fill="black"/>
<path d="M159.914 277.305C159.79 277.21 159.713 277.083 159.683 276.926C159.657 276.772 159.678 276.595 159.747 276.395L160.681 273.622L158.302 271.917C158.125 271.789 158 271.654 157.928 271.513C157.856 271.372 157.848 271.227 157.904 271.076C157.953 270.925 158.046 270.814 158.184 270.742C158.325 270.67 158.502 270.635 158.715 270.638L161.64 270.658L162.525 267.866C162.594 267.659 162.682 267.502 162.79 267.394C162.902 267.282 163.036 267.227 163.193 267.227C163.354 267.227 163.49 267.282 163.601 267.394C163.713 267.502 163.801 267.659 163.867 267.866L164.757 270.658L167.677 270.638C167.89 270.635 168.065 270.671 168.203 270.746C168.344 270.819 168.439 270.928 168.488 271.076C168.541 271.227 168.531 271.372 168.459 271.513C168.39 271.654 168.267 271.789 168.09 271.917L165.711 273.622L166.645 276.395C166.714 276.595 166.735 276.772 166.709 276.926C166.682 277.083 166.605 277.21 166.477 277.305C166.353 277.403 166.212 277.439 166.055 277.413C165.897 277.387 165.732 277.31 165.558 277.182L163.193 275.446L160.834 277.182C160.66 277.31 160.494 277.387 160.337 277.413C160.183 277.439 160.042 277.403 159.914 277.305Z" fill="black"/>
<path d="M183.836 277.305C183.712 277.21 183.635 277.083 183.605 276.926C183.579 276.772 183.6 276.595 183.669 276.395L184.603 273.622L182.224 271.917C182.047 271.789 181.922 271.654 181.85 271.513C181.778 271.372 181.77 271.227 181.825 271.076C181.875 270.925 181.968 270.814 182.106 270.742C182.247 270.67 182.424 270.635 182.637 270.638L185.562 270.658L186.447 267.866C186.516 267.659 186.604 267.502 186.712 267.394C186.824 267.282 186.958 267.227 187.115 267.227C187.276 267.227 187.412 267.282 187.523 267.394C187.635 267.502 187.723 267.659 187.789 267.866L188.679 270.658L191.599 270.638C191.812 270.635 191.987 270.671 192.125 270.746C192.266 270.819 192.361 270.928 192.41 271.076C192.463 271.227 192.453 271.372 192.381 271.513C192.312 271.654 192.189 271.789 192.012 271.917L189.632 273.622L190.567 276.395C190.635 276.595 190.657 276.772 190.631 276.926C190.604 277.083 190.527 277.21 190.399 277.305C190.275 277.403 190.134 277.439 189.977 277.413C189.819 277.387 189.654 277.31 189.48 277.182L187.115 275.446L184.756 277.182C184.582 277.31 184.416 277.387 184.259 277.413C184.105 277.439 183.964 277.403 183.836 277.305Z" fill="black"/>
<path d="M190.485 286.383C190.36 286.288 190.283 286.161 190.254 286.004C190.227 285.85 190.249 285.673 190.318 285.473L191.252 282.701L188.872 280.995C188.695 280.867 188.571 280.733 188.499 280.592C188.426 280.451 188.418 280.305 188.474 280.154C188.523 280.003 188.617 279.892 188.754 279.82C188.895 279.748 189.072 279.713 189.285 279.717L192.21 279.736L193.095 276.944C193.164 276.737 193.252 276.58 193.361 276.472C193.472 276.36 193.607 276.305 193.764 276.305C193.924 276.305 194.06 276.36 194.172 276.472C194.283 276.58 194.372 276.737 194.437 276.944L195.327 279.736L198.247 279.717C198.46 279.713 198.636 279.749 198.773 279.825C198.914 279.897 199.009 280.007 199.059 280.154C199.111 280.305 199.101 280.451 199.029 280.592C198.96 280.733 198.837 280.867 198.66 280.995L196.281 282.701L197.215 285.473C197.284 285.673 197.305 285.85 197.279 286.004C197.253 286.161 197.176 286.288 197.048 286.383C196.923 286.481 196.782 286.517 196.625 286.491C196.468 286.465 196.302 286.388 196.128 286.26L193.764 284.525L191.404 286.26C191.23 286.388 191.065 286.465 190.907 286.491C190.753 286.517 190.613 286.481 190.485 286.383Z" fill="black"/>
<path d="M153.289 286.383C153.165 286.288 153.088 286.161 153.058 286.004C153.032 285.85 153.053 285.673 153.122 285.473L154.056 282.701L151.677 280.995C151.5 280.867 151.375 280.733 151.303 280.592C151.231 280.451 151.223 280.305 151.279 280.154C151.328 280.003 151.421 279.892 151.559 279.82C151.7 279.748 151.877 279.713 152.09 279.717L155.015 279.736L155.9 276.944C155.969 276.737 156.057 276.58 156.165 276.472C156.277 276.36 156.411 276.305 156.569 276.305C156.729 276.305 156.865 276.36 156.977 276.472C157.088 276.58 157.177 276.737 157.242 276.944L158.132 279.736L161.052 279.717C161.265 279.713 161.44 279.749 161.578 279.825C161.719 279.897 161.814 280.007 161.863 280.154C161.916 280.305 161.906 280.451 161.834 280.592C161.765 280.733 161.642 280.867 161.465 280.995L159.086 282.701L160.02 285.473C160.088 285.673 160.11 285.85 160.084 286.004C160.057 286.161 159.98 286.288 159.853 286.383C159.728 286.481 159.587 286.517 159.43 286.491C159.272 286.465 159.107 286.388 158.933 286.26L156.569 284.525L154.209 286.26C154.035 286.388 153.87 286.465 153.712 286.491C153.558 286.517 153.417 286.481 153.289 286.383Z" fill="black"/>
<path d="M159.914 306.773C159.79 306.678 159.713 306.552 159.683 306.395C159.657 306.241 159.678 306.064 159.747 305.864L160.681 303.091L158.302 301.385C158.125 301.257 158 301.123 157.928 300.982C157.856 300.841 157.848 300.695 157.904 300.545C157.953 300.394 158.046 300.282 158.184 300.21C158.325 300.138 158.502 300.104 158.715 300.107L161.64 300.127L162.525 297.334C162.594 297.128 162.682 296.971 162.79 296.863C162.902 296.751 163.036 296.695 163.194 296.695C163.354 296.695 163.49 296.751 163.602 296.863C163.713 296.971 163.802 297.128 163.867 297.334L164.757 300.127L167.677 300.107C167.89 300.104 168.066 300.14 168.203 300.215C168.344 300.287 168.439 300.397 168.488 300.545C168.541 300.695 168.531 300.841 168.459 300.982C168.39 301.123 168.267 301.257 168.09 301.385L165.711 303.091L166.645 305.864C166.713 306.064 166.735 306.241 166.709 306.395C166.682 306.552 166.605 306.678 166.478 306.773C166.353 306.872 166.212 306.908 166.055 306.881C165.897 306.855 165.732 306.778 165.558 306.65L163.194 304.915L160.834 306.65C160.66 306.778 160.495 306.855 160.337 306.881C160.183 306.908 160.042 306.872 159.914 306.773Z" fill="black"/>
<path d="M183.836 306.773C183.712 306.678 183.635 306.552 183.605 306.395C183.579 306.241 183.6 306.064 183.669 305.864L184.603 303.091L182.224 301.385C182.047 301.257 181.922 301.123 181.85 300.982C181.778 300.841 181.77 300.695 181.826 300.545C181.875 300.394 181.968 300.282 182.106 300.21C182.247 300.138 182.424 300.104 182.637 300.107L185.562 300.127L186.447 297.334C186.515 297.128 186.604 296.971 186.712 296.863C186.824 296.751 186.958 296.695 187.115 296.695C187.276 296.695 187.412 296.751 187.523 296.863C187.635 296.971 187.723 297.128 187.789 297.334L188.679 300.127L191.599 300.107C191.812 300.104 191.987 300.14 192.125 300.215C192.266 300.287 192.361 300.397 192.41 300.545C192.463 300.695 192.453 300.841 192.381 300.982C192.312 301.123 192.189 301.257 192.012 301.385L189.632 303.091L190.567 305.864C190.635 306.064 190.657 306.241 190.63 306.395C190.604 306.552 190.527 306.678 190.399 306.773C190.275 306.872 190.134 306.908 189.977 306.881C189.819 306.855 189.654 306.778 189.48 306.65L187.115 304.915L184.756 306.65C184.582 306.778 184.416 306.855 184.259 306.881C184.105 306.908 183.964 306.872 183.836 306.773Z" fill="black"/>
<path d="M172.078 311.976C171.954 311.881 171.877 311.755 171.847 311.598C171.821 311.444 171.842 311.267 171.911 311.067L172.845 308.294L170.466 306.588C170.289 306.461 170.164 306.326 170.092 306.185C170.02 306.044 170.012 305.899 170.068 305.748C170.117 305.597 170.21 305.486 170.348 305.413C170.489 305.341 170.666 305.307 170.879 305.31L173.804 305.33L174.689 302.538C174.758 302.331 174.846 302.174 174.954 302.066C175.066 301.954 175.2 301.898 175.358 301.898C175.518 301.898 175.654 301.954 175.766 302.066C175.877 302.174 175.965 302.331 176.031 302.538L176.921 305.33L179.841 305.31C180.054 305.307 180.23 305.343 180.367 305.418C180.508 305.491 180.603 305.6 180.652 305.748C180.705 305.899 180.695 306.044 180.623 306.185C180.554 306.326 180.431 306.461 180.254 306.588L177.875 308.294L178.809 311.067C178.878 311.267 178.899 311.444 178.873 311.598C178.846 311.755 178.769 311.881 178.642 311.976C178.517 312.075 178.376 312.111 178.219 312.085C178.061 312.058 177.896 311.981 177.722 311.854L175.358 310.118L172.998 311.854C172.824 311.981 172.659 312.058 172.501 312.085C172.347 312.111 172.206 312.075 172.078 311.976Z" fill="black"/>
<path d="M190.485 297.68C190.36 297.585 190.283 297.459 190.254 297.301C190.227 297.147 190.249 296.97 190.318 296.77L191.252 293.998L188.872 292.292C188.695 292.164 188.571 292.029 188.499 291.888C188.426 291.748 188.418 291.602 188.474 291.451C188.523 291.3 188.617 291.189 188.754 291.117C188.895 291.044 189.072 291.01 189.285 291.013L192.21 291.033L193.095 288.241C193.164 288.034 193.252 287.877 193.361 287.769C193.472 287.657 193.607 287.602 193.764 287.602C193.924 287.602 194.06 287.657 194.172 287.769C194.283 287.877 194.372 288.034 194.437 288.241L195.327 291.033L198.247 291.013C198.46 291.01 198.636 291.046 198.773 291.122C198.914 291.194 199.009 291.303 199.059 291.451C199.111 291.602 199.101 291.748 199.029 291.888C198.96 292.029 198.837 292.164 198.66 292.292L196.281 293.998L197.215 296.77C197.284 296.97 197.305 297.147 197.279 297.301C197.253 297.459 197.176 297.585 197.048 297.68C196.923 297.778 196.782 297.814 196.625 297.788C196.468 297.762 196.302 297.685 196.128 297.557L193.764 295.821L191.404 297.557C191.23 297.685 191.065 297.762 190.907 297.788C190.753 297.814 190.613 297.778 190.485 297.68Z" fill="black"/>
<path d="M153.289 297.68C153.165 297.585 153.088 297.459 153.058 297.301C153.032 297.147 153.053 296.97 153.122 296.77L154.056 293.998L151.677 292.292C151.5 292.164 151.375 292.029 151.303 291.888C151.231 291.748 151.223 291.602 151.279 291.451C151.328 291.3 151.421 291.189 151.559 291.117C151.7 291.044 151.877 291.01 152.09 291.013L155.015 291.033L155.9 288.241C155.969 288.034 156.057 287.877 156.165 287.769C156.277 287.657 156.411 287.602 156.569 287.602C156.729 287.602 156.865 287.657 156.977 287.769C157.088 287.877 157.177 288.034 157.242 288.241L158.132 291.033L161.052 291.013C161.265 291.01 161.44 291.046 161.578 291.122C161.719 291.194 161.814 291.303 161.863 291.451C161.916 291.602 161.906 291.748 161.834 291.888C161.765 292.029 161.642 292.164 161.465 292.292L159.086 293.998L160.02 296.77C160.088 296.97 160.11 297.147 160.084 297.301C160.057 297.459 159.98 297.585 159.853 297.68C159.728 297.778 159.587 297.814 159.43 297.788C159.272 297.762 159.107 297.685 158.933 297.557L156.569 295.821L154.209 297.557C154.035 297.685 153.87 297.762 153.712 297.788C153.558 297.814 153.417 297.778 153.289 297.68Z" fill="black"/>
<path d="M178.314 150.151C178.061 147.774 177.226 145.927 175.809 144.612C174.418 143.296 172.622 142.639 170.421 142.639C169.081 142.639 167.816 142.929 166.627 143.511C165.464 144.068 164.439 144.877 163.554 145.94C162.669 147.002 161.973 148.279 161.467 149.772C160.961 151.264 160.708 152.946 160.708 154.818C160.708 157.196 161.163 159.295 162.074 161.117C162.985 162.938 164.212 164.355 165.755 165.366C167.298 166.378 169.005 166.884 170.877 166.884C172.521 166.884 174.14 166.517 175.733 165.784C177.327 165.025 178.63 163.937 179.642 162.521L180.628 163.317C179.54 164.81 178.364 165.961 177.099 166.77C175.835 167.58 174.57 168.124 173.305 168.402C172.066 168.705 170.927 168.857 169.89 168.857C167.993 168.857 166.248 168.516 164.654 167.833C163.086 167.15 161.72 166.201 160.556 164.987C159.418 163.747 158.533 162.318 157.9 160.699C157.293 159.055 156.99 157.285 156.99 155.387C156.99 153.591 157.255 151.846 157.787 150.151C158.343 148.456 159.165 146.926 160.253 145.56C161.341 144.194 162.706 143.107 164.351 142.297C166.02 141.488 167.955 141.083 170.156 141.083C171.572 141.083 172.913 141.273 174.178 141.652C175.443 142.031 176.657 142.613 177.82 143.397L177.631 141.349H179.68V150.151H178.314ZM182.306 167.112C183.09 167.112 183.634 166.922 183.937 166.543C184.241 166.138 184.418 165.594 184.469 164.911C184.519 164.203 184.545 163.393 184.545 162.483V144.536C184.545 144.131 184.545 143.752 184.545 143.397C184.57 143.018 184.608 142.575 184.658 142.069C184.203 142.095 183.748 142.12 183.292 142.145C182.862 142.171 182.42 142.196 181.964 142.221V140.628C183.077 140.628 183.937 140.577 184.545 140.476C185.177 140.375 185.645 140.248 185.948 140.096C186.277 139.945 186.53 139.78 186.707 139.603H187.808L187.846 164.228C187.846 164.734 187.833 165.189 187.808 165.594C187.782 165.973 187.732 166.378 187.656 166.808C188.061 166.783 188.453 166.77 188.832 166.77C189.237 166.745 189.642 166.72 190.046 166.694V168.25H182.306V167.112ZM192.264 167.112C193.049 167.112 193.592 166.922 193.896 166.543C194.2 166.138 194.377 165.594 194.427 164.911C194.478 164.203 194.503 163.393 194.503 162.483V153.832C194.503 153.427 194.516 153.048 194.541 152.693C194.566 152.314 194.604 151.871 194.655 151.365C194.2 151.391 193.744 151.416 193.289 151.441C192.859 151.467 192.416 151.492 191.961 151.517V149.924C193.074 149.924 193.934 149.873 194.541 149.772C195.148 149.671 195.603 149.544 195.907 149.392C196.236 149.241 196.489 149.076 196.666 148.899H197.766V164.228C197.766 164.734 197.753 165.189 197.728 165.594C197.728 165.973 197.69 166.378 197.614 166.808C198.019 166.783 198.411 166.77 198.791 166.77C199.195 166.745 199.6 166.72 200.005 166.694V168.25H192.264V167.112ZM195.907 145.143C195.376 145.143 194.908 144.928 194.503 144.498C194.098 144.068 193.896 143.537 193.896 142.904C193.896 142.272 194.098 141.741 194.503 141.311C194.933 140.855 195.414 140.628 195.945 140.628C196.527 140.628 197.007 140.855 197.387 141.311C197.791 141.741 197.994 142.272 197.994 142.904C197.994 143.537 197.779 144.068 197.349 144.498C196.944 144.928 196.463 145.143 195.907 145.143ZM202.177 168.25V167.112C202.961 167.112 203.505 166.922 203.809 166.543C204.112 166.138 204.289 165.594 204.34 164.911C204.39 164.203 204.416 163.393 204.416 162.483L204.454 153.832C204.454 153.427 204.454 153.022 204.454 152.618C204.479 152.213 204.529 151.795 204.605 151.365C204.15 151.391 203.695 151.416 203.239 151.441C202.809 151.467 202.367 151.492 201.911 151.517V149.924C203.024 149.924 203.859 149.873 204.416 149.772C204.997 149.671 205.427 149.544 205.706 149.392C205.984 149.241 206.212 149.076 206.389 148.899H207.489C207.514 149.076 207.527 149.279 207.527 149.506C207.552 149.734 207.578 149.987 207.603 150.265C207.628 150.543 207.641 150.86 207.641 151.214C208.197 150.733 208.804 150.303 209.462 149.924C210.145 149.544 210.853 149.241 211.587 149.013C212.346 148.785 213.092 148.671 213.825 148.671C216.026 148.671 217.632 149.367 218.644 150.758C219.656 152.124 220.162 154.262 220.162 157.171V164.228C220.162 164.734 220.149 165.189 220.124 165.594C220.124 165.973 220.086 166.378 220.01 166.808C220.415 166.783 220.807 166.77 221.186 166.77C221.591 166.745 221.996 166.72 222.401 166.694V168.25H214.66V167.112C215.444 167.112 215.988 166.922 216.292 166.543C216.595 166.138 216.772 165.594 216.823 164.911C216.874 164.203 216.899 163.393 216.899 162.483V157.171C216.874 154.995 216.507 153.351 215.798 152.238C215.116 151.125 214.028 150.581 212.535 150.607C211.625 150.632 210.727 150.872 209.841 151.327C208.981 151.783 208.26 152.365 207.679 153.073C207.704 153.275 207.717 153.503 207.717 153.756C207.717 154.009 207.717 154.274 207.717 154.553L207.679 164.228C207.679 164.734 207.666 165.189 207.641 165.594C207.641 165.973 207.603 166.378 207.527 166.808C207.932 166.783 208.324 166.77 208.703 166.77C209.108 166.745 209.513 166.72 209.917 166.694V168.25H202.177ZM224.465 167.112C225.25 167.112 225.793 166.922 226.097 166.543C226.401 166.138 226.578 165.594 226.628 164.911C226.679 164.203 226.704 163.393 226.704 162.483V153.832C226.704 153.427 226.717 153.048 226.742 152.693C226.767 152.314 226.805 151.871 226.856 151.365C226.401 151.391 225.945 151.416 225.49 151.441C225.06 151.467 224.617 151.492 224.162 151.517V149.924C225.275 149.924 226.135 149.873 226.742 149.772C227.349 149.671 227.804 149.544 228.108 149.392C228.437 149.241 228.69 149.076 228.867 148.899H229.967V164.228C229.967 164.734 229.955 165.189 229.929 165.594C229.929 165.973 229.891 166.378 229.815 166.808C230.22 166.783 230.612 166.77 230.992 166.77C231.396 166.745 231.801 166.72 232.206 166.694V168.25H224.465V167.112ZM228.108 145.143C227.577 145.143 227.109 144.928 226.704 144.498C226.299 144.068 226.097 143.537 226.097 142.904C226.097 142.272 226.299 141.741 226.704 141.311C227.134 140.855 227.615 140.628 228.146 140.628C228.728 140.628 229.208 140.855 229.588 141.311C229.992 141.741 230.195 142.272 230.195 142.904C230.195 143.537 229.98 144.068 229.55 144.498C229.145 144.928 228.664 145.143 228.108 145.143ZM243.636 168.857C241.941 168.857 240.373 168.478 238.931 167.719C237.515 166.935 236.376 165.822 235.516 164.38C234.682 162.913 234.264 161.155 234.264 159.106C234.264 157.79 234.505 156.513 234.985 155.274C235.466 154.034 236.136 152.921 236.996 151.935C237.881 150.923 238.931 150.126 240.145 149.544C241.36 148.962 242.7 148.671 244.167 148.671C245.584 148.671 246.811 148.886 247.848 149.317C248.91 149.747 249.732 150.316 250.314 151.024C250.896 151.732 251.187 152.504 251.187 153.338C251.187 153.895 251.035 154.376 250.731 154.78C250.428 155.16 249.985 155.349 249.403 155.349C248.771 155.375 248.316 155.185 248.037 154.78C247.785 154.35 247.658 153.971 247.658 153.642C247.658 153.389 247.696 153.136 247.772 152.883C247.848 152.605 248 152.352 248.227 152.124C248.025 151.517 247.671 151.075 247.165 150.796C246.659 150.493 246.128 150.303 245.571 150.227C245.04 150.126 244.597 150.075 244.243 150.075C242.523 150.075 241.069 150.771 239.88 152.162C238.716 153.528 238.134 155.526 238.134 158.157C238.134 159.852 238.4 161.357 238.931 162.672C239.488 163.988 240.259 165.025 241.246 165.784C242.232 166.517 243.37 166.884 244.661 166.884C245.849 166.884 246.988 166.568 248.075 165.935C249.163 165.303 250.011 164.532 250.618 163.621L251.604 164.38C250.946 165.442 250.15 166.302 249.214 166.96C248.303 167.618 247.355 168.098 246.368 168.402C245.407 168.705 244.496 168.857 243.636 168.857ZM265.274 168.25C265.198 167.82 265.147 167.441 265.122 167.112C265.097 166.783 265.059 166.441 265.008 166.087C264.148 166.947 263.212 167.63 262.201 168.136C261.214 168.617 260.164 168.857 259.051 168.857C257.129 168.857 255.7 168.427 254.764 167.567C253.828 166.682 253.36 165.607 253.36 164.342C253.36 163.178 253.714 162.179 254.422 161.344C255.156 160.484 256.092 159.789 257.23 159.258C258.394 158.701 259.646 158.296 260.986 158.043C262.352 157.765 263.668 157.639 264.932 157.664V155.311C264.932 154.426 264.857 153.591 264.705 152.807C264.553 152.023 264.224 151.378 263.718 150.872C263.212 150.366 262.403 150.101 261.29 150.075C260.556 150.05 259.797 150.189 259.013 150.493C258.254 150.796 257.698 151.315 257.344 152.048C257.546 152.251 257.673 152.491 257.723 152.769C257.799 153.022 257.837 153.263 257.837 153.49C257.837 153.794 257.711 154.148 257.458 154.553C257.205 154.932 256.762 155.109 256.13 155.084C255.598 155.084 255.194 154.907 254.915 154.553C254.637 154.173 254.498 153.731 254.498 153.225C254.498 152.365 254.814 151.593 255.447 150.91C256.104 150.227 257.002 149.683 258.141 149.279C259.279 148.874 260.569 148.671 262.011 148.671C264.136 148.671 265.704 149.241 266.716 150.379C267.728 151.492 268.221 153.263 268.195 155.691C268.195 156.627 268.195 157.575 268.195 158.537C268.195 159.473 268.183 160.421 268.158 161.382C268.158 162.318 268.158 163.267 268.158 164.228C268.158 164.633 268.145 165.038 268.12 165.442C268.094 165.847 268.056 166.302 268.006 166.808C268.461 166.783 268.904 166.758 269.334 166.732C269.789 166.707 270.244 166.682 270.7 166.656V168.25H265.274ZM264.932 158.954C264.072 158.979 263.162 159.093 262.201 159.295C261.265 159.473 260.392 159.751 259.582 160.13C258.798 160.51 258.153 161.016 257.647 161.648C257.167 162.255 256.939 163.001 256.964 163.887C257.015 164.822 257.319 165.531 257.875 166.011C258.457 166.467 259.14 166.694 259.924 166.694C260.961 166.694 261.859 166.505 262.618 166.125C263.402 165.72 264.174 165.164 264.932 164.456C264.907 164.177 264.894 163.874 264.894 163.545C264.894 163.216 264.894 162.875 264.894 162.521C264.894 162.394 264.894 161.989 264.894 161.306C264.92 160.623 264.932 159.839 264.932 158.954ZM272.165 167.112C272.949 167.112 273.493 166.922 273.797 166.543C274.1 166.138 274.277 165.594 274.328 164.911C274.379 164.203 274.404 163.393 274.404 162.483V144.536C274.404 144.131 274.404 143.752 274.404 143.397C274.429 143.018 274.467 142.575 274.518 142.069C274.062 142.095 273.607 142.12 273.152 142.145C272.722 142.171 272.279 142.196 271.824 142.221V140.628C272.937 140.628 273.797 140.577 274.404 140.476C275.036 140.375 275.504 140.248 275.808 140.096C276.137 139.945 276.39 139.78 276.567 139.603H277.667L277.705 164.228C277.705 164.734 277.692 165.189 277.667 165.594C277.642 165.973 277.591 166.378 277.515 166.808C277.92 166.783 278.312 166.77 278.691 166.77C279.096 166.745 279.501 166.72 279.906 166.694V168.25H272.165V167.112ZM129.305 184.942C128.369 184.967 127.711 185.182 127.332 185.587C126.977 185.992 126.775 186.536 126.725 187.219C126.699 187.902 126.687 188.698 126.687 189.609V205.735C126.687 206.418 126.674 207.012 126.649 207.518C126.649 207.999 126.623 208.403 126.573 208.732C127.028 208.707 127.483 208.682 127.939 208.656C128.394 208.631 128.849 208.606 129.305 208.581V210.25H120.767V208.998C121.729 208.947 122.386 208.732 122.741 208.353C123.095 207.948 123.284 207.404 123.31 206.721C123.36 206.013 123.386 205.216 123.386 204.331V187.94C123.386 187.434 123.398 186.953 123.423 186.498C123.449 186.017 123.474 185.587 123.499 185.208C123.044 185.233 122.589 185.258 122.133 185.284C121.678 185.309 121.223 185.334 120.767 185.359V183.69H129.305V184.942ZM132.004 210.25V209.112C132.788 209.112 133.332 208.922 133.636 208.543C133.939 208.138 134.116 207.594 134.167 206.911C134.218 206.203 134.243 205.393 134.243 204.483L134.281 195.832C134.281 195.427 134.281 195.022 134.281 194.618C134.306 194.213 134.357 193.795 134.433 193.365C133.977 193.391 133.522 193.416 133.067 193.441C132.637 193.467 132.194 193.492 131.739 193.517V191.924C132.852 191.924 133.686 191.873 134.243 191.772C134.825 191.671 135.255 191.544 135.533 191.392C135.811 191.241 136.039 191.076 136.216 190.899H137.316C137.342 191.076 137.354 191.279 137.354 191.506C137.379 191.734 137.405 191.987 137.43 192.265C137.455 192.543 137.468 192.86 137.468 193.214C138.024 192.733 138.632 192.303 139.289 191.924C139.972 191.544 140.68 191.241 141.414 191.013C142.173 190.785 142.919 190.671 143.653 190.671C145.853 190.671 147.46 191.367 148.471 192.758C149.483 194.124 149.989 196.262 149.989 199.171V206.228C149.989 206.734 149.976 207.189 149.951 207.594C149.951 207.973 149.913 208.378 149.837 208.808C150.242 208.783 150.634 208.77 151.014 208.77C151.418 208.745 151.823 208.72 152.228 208.694V210.25H144.487V209.112C145.272 209.112 145.815 208.922 146.119 208.543C146.422 208.138 146.6 207.594 146.65 206.911C146.701 206.203 146.726 205.393 146.726 204.483V199.171C146.701 196.995 146.334 195.351 145.626 194.238C144.943 193.125 143.855 192.581 142.363 192.607C141.452 192.632 140.554 192.872 139.669 193.327C138.809 193.783 138.088 194.365 137.506 195.073C137.531 195.275 137.544 195.503 137.544 195.756C137.544 196.009 137.544 196.274 137.544 196.553L137.506 206.228C137.506 206.734 137.493 207.189 137.468 207.594C137.468 207.973 137.43 208.378 137.354 208.808C137.759 208.783 138.151 208.77 138.53 208.77C138.935 208.745 139.34 208.72 139.745 208.694V210.25H132.004ZM161.092 210.857C160.511 210.857 159.916 210.769 159.309 210.591C158.702 210.44 158.133 210.124 157.602 209.643C157.096 209.162 156.691 208.467 156.388 207.556C156.084 206.62 155.932 205.393 155.932 203.876L156.008 192.872L153.087 192.91V191.279C153.744 191.253 154.415 191.013 155.097 190.558C155.78 190.077 156.388 189.432 156.919 188.623C157.475 187.813 157.855 186.928 158.057 185.967H159.347V191.279H165.721V192.758L159.347 192.834L159.271 203.382C159.271 204.521 159.36 205.494 159.537 206.304C159.739 207.088 160.055 207.683 160.485 208.087C160.915 208.492 161.472 208.694 162.155 208.694C162.863 208.694 163.521 208.492 164.128 208.087C164.76 207.683 165.317 207.126 165.797 206.418L166.822 207.253C166.265 208.087 165.709 208.745 165.152 209.226C164.621 209.706 164.103 210.06 163.597 210.288C163.091 210.541 162.623 210.693 162.193 210.743C161.763 210.819 161.396 210.857 161.092 210.857ZM177.056 210.857C175.31 210.857 173.729 210.452 172.313 209.643C170.922 208.808 169.821 207.645 169.012 206.152C168.202 204.634 167.798 202.851 167.798 200.802C167.798 199.032 168.19 197.375 168.974 195.832C169.783 194.289 170.909 193.049 172.351 192.113C173.793 191.152 175.462 190.671 177.359 190.671C178.422 190.671 179.408 190.849 180.319 191.203C181.255 191.532 182.077 192.05 182.785 192.758C183.493 193.441 184.05 194.314 184.455 195.376C184.859 196.414 185.062 197.64 185.062 199.057L171.706 199.285C171.706 201.207 171.908 202.902 172.313 204.369C172.743 205.811 173.426 206.936 174.362 207.746C175.298 208.53 176.499 208.922 177.966 208.922C178.75 208.922 179.547 208.783 180.357 208.505C181.191 208.226 181.963 207.847 182.671 207.366C183.38 206.886 183.949 206.355 184.379 205.773L185.289 206.532C184.606 207.594 183.784 208.441 182.823 209.074C181.862 209.706 180.875 210.161 179.863 210.44C178.852 210.718 177.916 210.857 177.056 210.857ZM171.82 197.691H181.495C181.495 196.78 181.356 195.908 181.078 195.073C180.825 194.213 180.395 193.517 179.788 192.986C179.181 192.43 178.384 192.151 177.397 192.151C175.93 192.151 174.703 192.594 173.717 193.479C172.756 194.339 172.123 195.743 171.82 197.691ZM187.3 209.112C188.084 209.112 188.628 208.922 188.932 208.543C189.235 208.138 189.412 207.594 189.463 206.911C189.513 206.203 189.539 205.393 189.539 204.483V186.536C189.539 186.131 189.539 185.752 189.539 185.397C189.564 185.018 189.602 184.575 189.652 184.069C189.197 184.095 188.742 184.12 188.287 184.145C187.856 184.171 187.414 184.196 186.959 184.221V182.628C188.071 182.628 188.932 182.577 189.539 182.476C190.171 182.375 190.639 182.248 190.943 182.096C191.271 181.945 191.524 181.78 191.701 181.603H192.802L192.84 206.228C192.84 206.734 192.827 207.189 192.802 207.594C192.776 207.973 192.726 208.378 192.65 208.808C193.055 208.783 193.447 208.77 193.826 208.77C194.231 208.745 194.636 208.72 195.04 208.694V210.25H187.3V209.112ZM196.879 209.112C197.663 209.112 198.207 208.922 198.511 208.543C198.814 208.138 198.991 207.594 199.042 206.911C199.092 206.203 199.118 205.393 199.118 204.483V186.536C199.118 186.131 199.118 185.752 199.118 185.397C199.143 185.018 199.181 184.575 199.232 184.069C198.776 184.095 198.321 184.12 197.866 184.145C197.436 184.171 196.993 184.196 196.538 184.221V182.628C197.651 182.628 198.511 182.577 199.118 182.476C199.75 182.375 200.218 182.248 200.522 182.096C200.85 181.945 201.103 181.78 201.28 181.603H202.381L202.419 206.228C202.419 206.734 202.406 207.189 202.381 207.594C202.356 207.973 202.305 208.378 202.229 208.808C202.634 208.783 203.026 208.77 203.405 208.77C203.81 208.745 204.215 208.72 204.619 208.694V210.25H196.879V209.112ZM206.838 209.112C207.622 209.112 208.166 208.922 208.469 208.543C208.773 208.138 208.95 207.594 209 206.911C209.051 206.203 209.076 205.393 209.076 204.483V195.832C209.076 195.427 209.089 195.048 209.114 194.693C209.139 194.314 209.177 193.871 209.228 193.365C208.773 193.391 208.317 193.416 207.862 193.441C207.432 193.467 206.989 193.492 206.534 193.517V191.924C207.647 191.924 208.507 191.873 209.114 191.772C209.721 191.671 210.177 191.544 210.48 191.392C210.809 191.241 211.062 191.076 211.239 190.899H212.339V206.228C212.339 206.734 212.327 207.189 212.301 207.594C212.301 207.973 212.263 208.378 212.188 208.808C212.592 208.783 212.984 208.77 213.364 208.77C213.768 208.745 214.173 208.72 214.578 208.694V210.25H206.838V209.112ZM210.48 187.143C209.949 187.143 209.481 186.928 209.076 186.498C208.672 186.068 208.469 185.537 208.469 184.904C208.469 184.272 208.672 183.741 209.076 183.311C209.506 182.855 209.987 182.628 210.518 182.628C211.1 182.628 211.58 182.855 211.96 183.311C212.365 183.741 212.567 184.272 212.567 184.904C212.567 185.537 212.352 186.068 211.922 186.498C211.517 186.928 211.037 187.143 210.48 187.143ZM225.894 220.533C223.618 220.533 221.784 220.28 220.393 219.774C219.001 219.268 217.99 218.623 217.357 217.839C216.725 217.054 216.409 216.245 216.409 215.41C216.409 214.626 216.586 213.93 216.94 213.323C217.319 212.742 217.775 212.236 218.306 211.806C218.862 211.376 219.394 211.059 219.899 210.857C219.09 210.579 218.445 210.212 217.964 209.757C217.509 209.276 217.281 208.644 217.281 207.86C217.281 206.974 217.635 206.152 218.344 205.393C219.052 204.609 219.963 204.129 221.076 203.951C219.912 203.395 218.976 202.623 218.268 201.637C217.585 200.65 217.243 199.5 217.243 198.184C217.243 196.666 217.635 195.351 218.42 194.238C219.204 193.1 220.203 192.227 221.417 191.62C222.657 190.988 223.934 190.671 225.249 190.671C226.084 190.671 226.919 190.798 227.754 191.051C228.588 191.279 229.36 191.62 230.068 192.075C230.321 191.367 230.675 190.735 231.131 190.178C231.611 189.622 232.155 189.192 232.762 188.888C233.369 188.559 234.002 188.395 234.659 188.395C235.317 188.395 235.81 188.572 236.139 188.926C236.493 189.255 236.67 189.71 236.67 190.292C236.67 190.469 236.62 190.684 236.518 190.937C236.417 191.19 236.24 191.405 235.987 191.582C235.76 191.759 235.443 191.848 235.039 191.848C234.609 191.848 234.254 191.721 233.976 191.468C233.698 191.215 233.521 190.899 233.445 190.52C232.813 190.621 232.319 190.924 231.965 191.43C231.611 191.911 231.371 192.442 231.244 193.024C231.851 193.58 232.332 194.251 232.686 195.035C233.066 195.819 233.255 196.654 233.255 197.539C233.255 198.956 232.876 200.22 232.117 201.333C231.383 202.446 230.41 203.319 229.195 203.951C227.981 204.559 226.666 204.862 225.249 204.862C224.769 204.862 224.351 204.837 223.997 204.786C223.643 204.71 223.213 204.672 222.707 204.672C221.771 204.672 221.012 204.9 220.431 205.355C219.849 205.811 219.646 206.355 219.824 206.987C220.026 207.594 220.646 207.986 221.683 208.163C222.72 208.315 224.111 208.429 225.856 208.505C227.804 208.581 229.474 208.808 230.865 209.188C232.256 209.567 233.319 210.149 234.052 210.933C234.811 211.742 235.19 212.83 235.19 214.196C235.19 215.208 234.912 216.106 234.356 216.89C233.824 217.699 233.104 218.37 232.193 218.901C231.308 219.432 230.308 219.837 229.195 220.115C228.108 220.393 227.007 220.533 225.894 220.533ZM225.856 219.053C228.032 219.053 229.727 218.648 230.941 217.839C232.155 217.029 232.762 216.081 232.762 214.993C232.762 214.057 232.446 213.336 231.813 212.83C231.181 212.35 230.321 212.008 229.233 211.806C228.146 211.629 226.894 211.527 225.477 211.502C224.794 211.477 224.124 211.439 223.466 211.388C222.808 211.363 222.176 211.3 221.569 211.199C220.886 211.654 220.355 212.21 219.975 212.868C219.596 213.526 219.406 214.221 219.406 214.955C219.406 216.194 219.988 217.181 221.152 217.914C222.34 218.673 223.909 219.053 225.856 219.053ZM225.363 203.496C226.299 203.496 227.071 203.269 227.678 202.813C228.31 202.358 228.778 201.738 229.082 200.954C229.41 200.17 229.575 199.285 229.575 198.298C229.575 197.185 229.41 196.148 229.082 195.187C228.753 194.225 228.259 193.454 227.602 192.872C226.969 192.29 226.16 191.999 225.173 191.999C223.808 191.999 222.745 192.518 221.986 193.555C221.253 194.567 220.886 195.832 220.886 197.349C220.886 198.564 221.063 199.639 221.417 200.575C221.771 201.485 222.277 202.206 222.935 202.737C223.618 203.243 224.427 203.496 225.363 203.496ZM245.961 210.857C244.215 210.857 242.634 210.452 241.218 209.643C239.826 208.808 238.726 207.645 237.917 206.152C237.107 204.634 236.702 202.851 236.702 200.802C236.702 199.032 237.095 197.375 237.879 195.832C238.688 194.289 239.814 193.049 241.256 192.113C242.697 191.152 244.367 190.671 246.264 190.671C247.326 190.671 248.313 190.849 249.224 191.203C250.16 191.532 250.982 192.05 251.69 192.758C252.398 193.441 252.955 194.314 253.359 195.376C253.764 196.414 253.966 197.64 253.966 199.057L240.611 199.285C240.611 201.207 240.813 202.902 241.218 204.369C241.648 205.811 242.331 206.936 243.267 207.746C244.203 208.53 245.404 208.922 246.871 208.922C247.655 208.922 248.452 208.783 249.262 208.505C250.096 208.226 250.868 207.847 251.576 207.366C252.284 206.886 252.853 206.355 253.284 205.773L254.194 206.532C253.511 207.594 252.689 208.441 251.728 209.074C250.767 209.706 249.78 210.161 248.768 210.44C247.757 210.718 246.821 210.857 245.961 210.857ZM240.724 197.691H250.4C250.4 196.78 250.261 195.908 249.982 195.073C249.73 194.213 249.3 193.517 248.692 192.986C248.085 192.43 247.289 192.151 246.302 192.151C244.835 192.151 243.608 192.594 242.622 193.479C241.66 194.339 241.028 195.743 240.724 197.691ZM256.584 210.25V209.112C257.368 209.112 257.912 208.922 258.216 208.543C258.519 208.138 258.696 207.594 258.747 206.911C258.798 206.203 258.823 205.393 258.823 204.483L258.861 195.832C258.861 195.427 258.861 195.022 258.861 194.618C258.886 194.213 258.937 193.795 259.013 193.365C258.557 193.391 258.102 193.416 257.647 193.441C257.217 193.467 256.774 193.492 256.319 193.517V191.924C257.432 191.924 258.266 191.873 258.823 191.772C259.405 191.671 259.835 191.544 260.113 191.392C260.391 191.241 260.619 191.076 260.796 190.899H261.896C261.922 191.076 261.934 191.279 261.934 191.506C261.959 191.734 261.985 191.987 262.01 192.265C262.035 192.543 262.048 192.86 262.048 193.214C262.605 192.733 263.212 192.303 263.869 191.924C264.552 191.544 265.261 191.241 265.994 191.013C266.753 190.785 267.499 190.671 268.233 190.671C270.433 190.671 272.04 191.367 273.051 192.758C274.063 194.124 274.569 196.262 274.569 199.171V206.228C274.569 206.734 274.557 207.189 274.531 207.594C274.531 207.973 274.493 208.378 274.417 208.808C274.822 208.783 275.214 208.77 275.594 208.77C275.998 208.745 276.403 208.72 276.808 208.694V210.25H269.067V209.112C269.852 209.112 270.395 208.922 270.699 208.543C271.003 208.138 271.18 207.594 271.23 206.911C271.281 206.203 271.306 205.393 271.306 204.483V199.171C271.281 196.995 270.914 195.351 270.206 194.238C269.523 193.125 268.435 192.581 266.943 192.607C266.032 192.632 265.134 192.872 264.249 193.327C263.389 193.783 262.668 194.365 262.086 195.073C262.111 195.275 262.124 195.503 262.124 195.756C262.124 196.009 262.124 196.274 262.124 196.553L262.086 206.228C262.086 206.734 262.073 207.189 262.048 207.594C262.048 207.973 262.01 208.378 261.934 208.808C262.339 208.783 262.731 208.77 263.11 208.77C263.515 208.745 263.92 208.72 264.325 208.694V210.25H256.584ZM288.131 210.857C286.436 210.857 284.868 210.478 283.426 209.719C282.009 208.935 280.871 207.822 280.011 206.38C279.176 204.913 278.759 203.155 278.759 201.106C278.759 199.79 278.999 198.513 279.48 197.274C279.96 196.034 280.631 194.921 281.491 193.935C282.376 192.923 283.426 192.126 284.64 191.544C285.854 190.962 287.195 190.671 288.662 190.671C290.078 190.671 291.305 190.886 292.342 191.317C293.405 191.747 294.227 192.316 294.809 193.024C295.39 193.732 295.681 194.504 295.681 195.338C295.681 195.895 295.53 196.376 295.226 196.78C294.923 197.16 294.48 197.349 293.898 197.349C293.266 197.375 292.81 197.185 292.532 196.78C292.279 196.35 292.153 195.971 292.153 195.642C292.153 195.389 292.191 195.136 292.267 194.883C292.342 194.605 292.494 194.352 292.722 194.124C292.519 193.517 292.165 193.075 291.659 192.796C291.154 192.493 290.622 192.303 290.066 192.227C289.535 192.126 289.092 192.075 288.738 192.075C287.018 192.075 285.563 192.771 284.374 194.162C283.211 195.528 282.629 197.526 282.629 200.157C282.629 201.852 282.895 203.357 283.426 204.672C283.982 205.988 284.754 207.025 285.74 207.784C286.727 208.517 287.865 208.884 289.155 208.884C290.344 208.884 291.482 208.568 292.57 207.935C293.658 207.303 294.505 206.532 295.112 205.621L296.099 206.38C295.441 207.442 294.644 208.302 293.708 208.96C292.798 209.618 291.849 210.098 290.863 210.402C289.901 210.705 288.991 210.857 288.131 210.857ZM307.305 210.857C305.56 210.857 303.979 210.452 302.562 209.643C301.171 208.808 300.071 207.645 299.261 206.152C298.452 204.634 298.047 202.851 298.047 200.802C298.047 199.032 298.439 197.375 299.223 195.832C300.033 194.289 301.158 193.049 302.6 192.113C304.042 191.152 305.711 190.671 307.608 190.671C308.671 190.671 309.657 190.849 310.568 191.203C311.504 191.532 312.326 192.05 313.034 192.758C313.743 193.441 314.299 194.314 314.704 195.376C315.109 196.414 315.311 197.64 315.311 199.057L301.955 199.285C301.955 201.207 302.157 202.902 302.562 204.369C302.992 205.811 303.675 206.936 304.611 207.746C305.547 208.53 306.748 208.922 308.216 208.922C309 208.922 309.797 208.783 310.606 208.505C311.441 208.226 312.212 207.847 312.92 207.366C313.629 206.886 314.198 206.355 314.628 205.773L315.539 206.532C314.856 207.594 314.033 208.441 313.072 209.074C312.111 209.706 311.125 210.161 310.113 210.44C309.101 210.718 308.165 210.857 307.305 210.857ZM302.069 197.691H311.744C311.744 196.78 311.605 195.908 311.327 195.073C311.074 194.213 310.644 193.517 310.037 192.986C309.43 192.43 308.633 192.151 307.646 192.151C306.179 192.151 304.952 192.594 303.966 193.479C303.005 194.339 302.372 195.743 302.069 197.691Z" fill="black"/>
<path d="M1.24219 194.952C14.0114 85.8826 106.743 1.25 219.242 1.25C331.843 1.25 424.642 86.0367 437.277 195.25M1.32554 247.25C14.4097 355.98 106.985 440.25 219.242 440.25C331.327 440.25 423.791 356.239 437.098 247.75" stroke="#A684FF" stroke-width="2.5"/>
<defs>
<filter id="filter0_iiii_8307_545" x="55.0156" y="58.375" width="325.656" height="335.426" filterUnits="userSpaceOnUse" color-interpolation-filters="sRGB">
<feFlood flood-opacity="0" result="BackgroundImageFix"/>
<feBlend mode="normal" in="SourceGraphic" in2="BackgroundImageFix" result="shape"/>
<feColorMatrix in="SourceAlpha" type="matrix" values="0 0 0 0 0 0 0 0 0 0 0 0 0 0 0 0 0 0 127 0" result="hardAlpha"/>
<feMorphology radius="65.1308" operator="erode" in="SourceAlpha" result="effect1_innerShadow_8307_545"/>
<feOffset dy="1.30262"/>
<feGaussianBlur stdDeviation="42.335"/>
<feComposite in2="hardAlpha" operator="arithmetic" k2="-1" k3="1"/>
<feColorMatrix type="matrix" values="0 0 0 0 0.290196 0 0 0 0 0.537255 0 0 0 0 0.909804 0 0 0 1 0"/>
<feBlend mode="lighten" in2="shape" result="effect1_innerShadow_8307_545"/>
<feColorMatrix in="SourceAlpha" type="matrix" values="0 0 0 0 0 0 0 0 0 0 0 0 0 0 0 0 0 0 127 0" result="hardAlpha"/>
<feMorphology radius="45.5916" operator="erode" in="SourceAlpha" result="effect2_innerShadow_8307_545"/>
<feOffset/>
<feGaussianBlur stdDeviation="32.5654"/>
<feComposite in2="hardAlpha" operator="arithmetic" k2="-1" k3="1"/>
<feColorMatrix type="matrix" values="0 0 0 0 0.290196 0 0 0 0 0.537255 0 0 0 0 0.909804 0 0 0 1 0"/>
<feBlend mode="screen" in2="effect1_innerShadow_8307_545" result="effect2_innerShadow_8307_545"/>
<feColorMatrix in="SourceAlpha" type="matrix" values="0 0 0 0 0 0 0 0 0 0 0 0 0 0 0 0 0 0 127 0" result="hardAlpha"/>
<feMorphology radius="15.6314" operator="erode" in="SourceAlpha" result="effect3_innerShadow_8307_545"/>
<feOffset dy="9.76962"/>
<feGaussianBlur stdDeviation="24.4241"/>
<feComposite in2="hardAlpha" operator="arithmetic" k2="-1" k3="1"/>
<feColorMatrix type="matrix" values="0 0 0 0 0.54902 0 0 0 0 0.290196 0 0 0 0 1 0 0 0 1 0"/>
<feBlend mode="normal" in2="effect2_innerShadow_8307_545" result="effect3_innerShadow_8307_545"/>
<feColorMatrix in="SourceAlpha" type="matrix" values="0 0 0 0 0 0 0 0 0 0 0 0 0 0 0 0 0 0 127 0" result="hardAlpha"/>
<feMorphology radius="10.4209" operator="erode" in="SourceAlpha" result="effect4_innerShadow_8307_545"/>
<feOffset dy="1.30262"/>
<feGaussianBlur stdDeviation="21.1675"/>
<feComposite in2="hardAlpha" operator="arithmetic" k2="-1" k3="1"/>
<feColorMatrix type="matrix" values="0 0 0 0 0.65098 0 0 0 0 0.517647 0 0 0 0 1 0 0 0 1 0"/>
<feBlend mode="screen" in2="effect3_innerShadow_8307_545" result="effect4_innerShadow_8307_545"/>
</filter>
<linearGradient id="paint0_linear_8307_545" x1="56.9876" y1="184.464" x2="379.932" y2="184.464" gradientUnits="userSpaceOnUse">
<stop stop-color="white" stop-opacity="0"/>
<stop offset="0.206731" stop-color="#C8B8FF"/>
<stop offset="0.461538" stop-color="#A684FF"/>
<stop offset="0.725962" stop-color="#8C4AFF"/>
<stop offset="1" stop-color="white" stop-opacity="0"/>
</linearGradient>
<linearGradient id="paint1_linear_8307_545" x1="235.516" y1="408.026" x2="390.501" y2="137.576" gradientUnits="userSpaceOnUse">
<stop stop-color="white" stop-opacity="0"/>
<stop offset="0.206731" stop-color="#C8B8FF"/>
<stop offset="0.461538" stop-color="#A684FF"/>
<stop offset="0.725962" stop-color="#8C4AFF"/>
<stop offset="1" stop-color="white" stop-opacity="0"/>
</linearGradient>
<linearGradient id="paint2_linear_8307_545" x1="38.2952" y1="137.576" x2="201.418" y2="414.226" gradientUnits="userSpaceOnUse">
<stop stop-color="white" stop-opacity="0"/>
<stop offset="0.206731" stop-color="#C8B8FF"/>
<stop offset="0.461538" stop-color="#A684FF"/>
<stop offset="0.725962" stop-color="#8C4AFF"/>
<stop offset="1" stop-color="white" stop-opacity="0"/>
</linearGradient>
</defs>
</svg>
