<svg width="439" height="442" viewBox="0 0 439 442" fill="none" xmlns="http://www.w3.org/2000/svg">
<style>
@keyframes orb-arc-spin { to { transform: rotate(360deg); } }
.orb-arcs {
  animation: orb-arc-spin 14s linear infinite;
  transform-origin: 219.24px 220.75px;
  transform-box: view-box;
}
@media (prefers-reduced-motion: reduce) { .orb-arcs { animation: none; } }
</style>
<g class="orb-arcs">
<path d="M61.5533 110.877C58.9645 109.06 58.3306 105.483 60.2197 102.946C77.9891 79.0848 100.942 59.5297 127.376 45.7721C155.506 31.1327 186.749 23.4893 218.46 23.4893C250.17 23.4893 281.414 31.1327 309.543 45.7721C335.978 59.5297 358.93 79.0848 376.7 102.946C378.589 105.483 377.955 109.06 375.366 110.877C372.774 112.696 369.205 112.062 367.309 109.527C350.596 87.18 329.049 68.8624 304.251 55.9601C277.755 42.1746 248.327 34.9772 218.46 34.9772C188.592 34.9772 159.164 42.1746 132.669 55.9601C107.87 68.8624 86.3235 87.18 69.6105 109.527C67.7139 112.062 64.1451 112.696 61.5533 110.877Z" fill="url(#paint0_linear_8380_9826)"/>
<path d="M392.43 139.867C395.07 138.534 398.297 139.647 399.473 142.361C411.347 169.764 416.855 199.528 415.55 229.412C414.167 261.097 405.166 291.981 389.309 319.448C373.452 346.915 351.208 370.155 324.461 387.197C299.452 403.132 271.195 413.21 241.802 416.715C238.5 417.109 235.646 414.499 235.632 411.173C235.619 408.216 237.877 405.753 240.815 405.414C268.729 402.186 295.573 392.667 319.312 377.547C344.524 361.489 365.492 339.588 380.437 313.701C395.381 287.814 403.862 258.704 405.16 228.841C406.385 200.672 401.184 172.616 389.979 146.79C388.852 144.193 389.902 141.142 392.43 139.867Z" fill="url(#paint1_linear_8380_9826)"/>
<path d="M201.302 411.173C201.288 414.499 198.434 417.109 195.132 416.715C165.738 413.21 137.482 403.132 112.473 387.197C85.7257 370.155 63.4812 346.915 47.6245 319.448C31.7679 291.981 22.7665 261.097 21.3831 229.412C20.0784 199.528 25.5863 169.764 37.4605 142.361C38.6366 139.647 41.8632 138.534 44.504 139.867C47.0317 141.142 48.0814 144.193 46.9544 146.79C35.7498 172.616 30.5488 200.672 31.7732 228.841C33.0713 258.704 41.5523 287.814 56.497 313.701C71.4417 339.588 92.4092 361.489 117.621 377.547C141.361 392.667 168.205 402.186 196.119 405.414C199.056 405.753 201.315 408.216 201.302 411.173Z" fill="url(#paint2_linear_8380_9826)"/>
</g>
<circle cx="217.8426" cy="221.2049" r="162.827" fill="white"/>
<g filter="url(#filter0_iiii_8380_9826)" mask="url(#discMask_8380_9826)">
<rect x="55.0156" y="58.3779" width="325.654" height="325.654" rx="162.827" fill="white"/>
</g>
<rect x="112.523" y="259.25" width="214" height="33" rx="16.5" fill="#CCFF33"/>
<path d="M129.685 280.25V270.45H131.421L134.501 274.986L137.553 270.45H139.303V280.25H137.679V273.012L134.487 277.73L131.309 273.04V280.25H129.685ZM141.621 280.25V270.45H144.701C145.662 270.45 146.512 270.66 147.249 271.08C147.996 271.491 148.579 272.065 148.999 272.802C149.428 273.539 149.643 274.389 149.643 275.35C149.643 276.302 149.428 277.147 148.999 277.884C148.579 278.621 147.996 279.2 147.249 279.62C146.512 280.04 145.662 280.25 144.701 280.25H141.621ZM143.245 278.738H144.701C145.158 278.738 145.588 278.654 145.989 278.486C146.39 278.309 146.74 278.066 147.039 277.758C147.338 277.45 147.571 277.091 147.739 276.68C147.907 276.269 147.991 275.826 147.991 275.35C147.991 274.874 147.907 274.431 147.739 274.02C147.571 273.609 147.338 273.25 147.039 272.942C146.74 272.634 146.39 272.396 145.989 272.228C145.588 272.051 145.158 271.962 144.701 271.962H143.245V278.738ZM151.355 280.25V270.45H154.813C155.485 270.45 156.078 270.581 156.591 270.842C157.105 271.103 157.506 271.467 157.795 271.934C158.085 272.391 158.229 272.923 158.229 273.53C158.229 274.174 158.052 274.743 157.697 275.238C157.343 275.723 156.876 276.083 156.297 276.316L158.621 280.25H156.787L154.687 276.624C154.631 276.633 154.571 276.638 154.505 276.638C154.449 276.638 154.389 276.638 154.323 276.638H152.979V280.25H151.355ZM152.979 275.14H154.883C155.201 275.14 155.481 275.07 155.723 274.93C155.975 274.79 156.176 274.599 156.325 274.356C156.484 274.113 156.563 273.838 156.563 273.53C156.563 273.063 156.395 272.681 156.059 272.382C155.723 272.083 155.289 271.934 154.757 271.934H152.979V275.14ZM167.888 280.418C166.946 280.418 166.106 280.203 165.368 279.774C164.64 279.335 164.066 278.738 163.646 277.982C163.236 277.217 163.03 276.339 163.03 275.35C163.03 274.361 163.236 273.488 163.646 272.732C164.066 271.967 164.64 271.369 165.368 270.94C166.096 270.501 166.932 270.282 167.874 270.282C168.509 270.282 169.106 270.399 169.666 270.632C170.226 270.856 170.721 271.169 171.15 271.57C171.589 271.971 171.925 272.438 172.158 272.97L170.674 273.572C170.506 273.217 170.278 272.905 169.988 272.634C169.708 272.354 169.386 272.139 169.022 271.99C168.658 271.841 168.276 271.766 167.874 271.766C167.258 271.766 166.708 271.92 166.222 272.228C165.746 272.536 165.368 272.961 165.088 273.502C164.818 274.034 164.682 274.65 164.682 275.35C164.682 276.05 164.818 276.671 165.088 277.212C165.368 277.753 165.751 278.178 166.236 278.486C166.731 278.794 167.291 278.948 167.916 278.948C168.327 278.948 168.71 278.869 169.064 278.71C169.428 278.542 169.75 278.313 170.03 278.024C170.32 277.735 170.548 277.399 170.716 277.016L172.2 277.618C171.967 278.169 171.636 278.659 171.206 279.088C170.777 279.508 170.278 279.835 169.708 280.068C169.139 280.301 168.532 280.418 167.888 280.418ZM173.764 280.25V270.45H175.388V278.766H179.826V280.25H173.764ZM180.151 280.25L184.057 270.45H185.779L189.699 280.25H187.977L187.011 277.842H182.825L181.873 280.25H180.151ZM183.371 276.4H186.465L184.925 272.48L183.371 276.4ZM194.196 280.418C193.683 280.418 193.212 280.357 192.782 280.236C192.362 280.115 191.989 279.947 191.662 279.732C191.345 279.517 191.079 279.279 190.864 279.018C190.659 278.747 190.514 278.467 190.43 278.178L192.026 277.688C192.148 278.033 192.386 278.337 192.74 278.598C193.095 278.859 193.534 278.995 194.056 279.004C194.663 279.004 195.144 278.878 195.498 278.626C195.853 278.374 196.03 278.043 196.03 277.632C196.03 277.259 195.881 276.955 195.582 276.722C195.284 276.479 194.882 276.293 194.378 276.162L193.174 275.854C192.717 275.733 192.302 275.555 191.928 275.322C191.564 275.089 191.275 274.795 191.06 274.44C190.855 274.085 190.752 273.665 190.752 273.18C190.752 272.265 191.051 271.556 191.648 271.052C192.246 270.539 193.1 270.282 194.21 270.282C194.836 270.282 195.382 270.38 195.848 270.576C196.324 270.763 196.716 271.024 197.024 271.36C197.332 271.687 197.561 272.06 197.71 272.48L196.142 272.984C196.002 272.611 195.76 272.303 195.414 272.06C195.069 271.817 194.64 271.696 194.126 271.696C193.594 271.696 193.174 271.822 192.866 272.074C192.568 272.326 192.418 272.676 192.418 273.124C192.418 273.488 192.535 273.773 192.768 273.978C193.011 274.174 193.338 274.323 193.748 274.426L194.952 274.72C195.83 274.935 196.511 275.303 196.996 275.826C197.482 276.349 197.724 276.927 197.724 277.562C197.724 278.122 197.589 278.617 197.318 279.046C197.048 279.475 196.646 279.811 196.114 280.054C195.592 280.297 194.952 280.418 194.196 280.418ZM202.741 280.418C202.228 280.418 201.757 280.357 201.327 280.236C200.907 280.115 200.534 279.947 200.207 279.732C199.89 279.517 199.624 279.279 199.409 279.018C199.204 278.747 199.059 278.467 198.975 278.178L200.571 277.688C200.693 278.033 200.931 278.337 201.285 278.598C201.64 278.859 202.079 278.995 202.601 279.004C203.208 279.004 203.689 278.878 204.043 278.626C204.398 278.374 204.575 278.043 204.575 277.632C204.575 277.259 204.426 276.955 204.127 276.722C203.829 276.479 203.427 276.293 202.923 276.162L201.719 275.854C201.262 275.733 200.847 275.555 200.473 275.322C200.109 275.089 199.82 274.795 199.605 274.44C199.4 274.085 199.297 273.665 199.297 273.18C199.297 272.265 199.596 271.556 200.193 271.052C200.791 270.539 201.645 270.282 202.755 270.282C203.381 270.282 203.927 270.38 204.393 270.576C204.869 270.763 205.261 271.024 205.569 271.36C205.877 271.687 206.106 272.06 206.255 272.48L204.687 272.984C204.547 272.611 204.305 272.303 203.959 272.06C203.614 271.817 203.185 271.696 202.671 271.696C202.139 271.696 201.719 271.822 201.411 272.074C201.113 272.326 200.963 272.676 200.963 273.124C200.963 273.488 201.08 273.773 201.313 273.978C201.556 274.174 201.883 274.323 202.293 274.426L203.497 274.72C204.375 274.935 205.056 275.303 205.541 275.826C206.027 276.349 206.269 276.927 206.269 277.562C206.269 278.122 206.134 278.617 205.863 279.046C205.593 279.475 205.191 279.811 204.659 280.054C204.137 280.297 203.497 280.418 202.741 280.418ZM211.443 280.25V270.45H213.067V280.25H211.443ZM215.394 280.25V270.45H217.018V280.25H215.394ZM221.306 280.418C220.466 280.418 219.812 280.231 219.346 279.858C218.888 279.485 218.66 278.957 218.66 278.276C218.66 277.548 218.902 276.993 219.388 276.61C219.882 276.227 220.568 276.036 221.446 276.036H223.224C223.168 275.523 223.023 275.131 222.79 274.86C222.556 274.589 222.211 274.454 221.754 274.454C221.418 274.454 221.124 274.524 220.872 274.664C220.62 274.804 220.405 275.023 220.228 275.322L218.856 274.818C219.005 274.51 219.201 274.225 219.444 273.964C219.696 273.693 220.008 273.479 220.382 273.32C220.764 273.161 221.222 273.082 221.754 273.082C222.435 273.082 223.004 273.217 223.462 273.488C223.919 273.749 224.255 274.127 224.47 274.622C224.694 275.117 224.806 275.714 224.806 276.414L224.764 280.25H223.322L223.28 279.396C223.093 279.723 222.832 279.975 222.496 280.152C222.169 280.329 221.772 280.418 221.306 280.418ZM221.502 279.102C221.847 279.102 222.15 279.027 222.412 278.878C222.682 278.719 222.888 278.509 223.028 278.248C223.177 277.987 223.252 277.697 223.252 277.38V277.24H221.95C221.324 277.24 220.886 277.329 220.634 277.506C220.382 277.674 220.256 277.917 220.256 278.234C220.256 278.505 220.363 278.719 220.578 278.878C220.802 279.027 221.11 279.102 221.502 279.102ZM234.306 280.418C233.364 280.418 232.524 280.203 231.786 279.774C231.058 279.335 230.484 278.738 230.064 277.982C229.654 277.217 229.448 276.339 229.448 275.35C229.448 274.361 229.654 273.488 230.064 272.732C230.484 271.967 231.058 271.369 231.786 270.94C232.514 270.501 233.35 270.282 234.292 270.282C234.927 270.282 235.524 270.399 236.084 270.632C236.644 270.856 237.139 271.169 237.568 271.57C238.007 271.971 238.343 272.438 238.576 272.97L237.092 273.572C236.924 273.217 236.696 272.905 236.406 272.634C236.126 272.354 235.804 272.139 235.44 271.99C235.076 271.841 234.694 271.766 234.292 271.766C233.676 271.766 233.126 271.92 232.64 272.228C232.164 272.536 231.786 272.961 231.506 273.502C231.236 274.034 231.1 274.65 231.1 275.35C231.1 276.05 231.236 276.671 231.506 277.212C231.786 277.753 232.169 278.178 232.654 278.486C233.149 278.794 233.709 278.948 234.334 278.948C234.745 278.948 235.128 278.869 235.482 278.71C235.846 278.542 236.168 278.313 236.448 278.024C236.738 277.735 236.966 277.399 237.134 277.016L238.618 277.618C238.385 278.169 238.054 278.659 237.624 279.088C237.195 279.508 236.696 279.835 236.126 280.068C235.557 280.301 234.95 280.418 234.306 280.418ZM244.536 280.418C243.565 280.418 242.706 280.203 241.96 279.774C241.213 279.345 240.625 278.747 240.196 277.982C239.776 277.217 239.566 276.339 239.566 275.35C239.566 274.361 239.776 273.488 240.196 272.732C240.625 271.967 241.208 271.369 241.946 270.94C242.683 270.501 243.532 270.282 244.494 270.282C245.464 270.282 246.318 270.501 247.056 270.94C247.802 271.369 248.381 271.967 248.792 272.732C249.212 273.488 249.422 274.361 249.422 275.35C249.422 276.339 249.212 277.217 248.792 277.982C248.381 278.747 247.807 279.345 247.07 279.774C246.342 280.203 245.497 280.418 244.536 280.418ZM244.536 278.934C245.17 278.934 245.73 278.78 246.216 278.472C246.701 278.164 247.079 277.744 247.35 277.212C247.63 276.671 247.77 276.05 247.77 275.35C247.77 274.659 247.63 274.043 247.35 273.502C247.07 272.961 246.682 272.541 246.188 272.242C245.702 271.934 245.138 271.78 244.494 271.78C243.859 271.78 243.294 271.934 242.8 272.242C242.314 272.541 241.927 272.961 241.638 273.502C241.358 274.034 241.218 274.65 241.218 275.35C241.218 276.05 241.358 276.671 241.638 277.212C241.927 277.744 242.319 278.164 242.814 278.472C243.318 278.78 243.892 278.934 244.536 278.934ZM251.146 280.25V270.45H252.882L255.962 274.986L259.014 270.45H260.764V280.25H259.14V273.012L255.948 277.73L252.77 273.04V280.25H251.146ZM263.082 280.25V270.45H266.54C267.212 270.45 267.805 270.585 268.318 270.856C268.831 271.127 269.233 271.505 269.522 271.99C269.811 272.466 269.956 273.021 269.956 273.656C269.956 274.272 269.821 274.823 269.55 275.308C269.279 275.793 268.901 276.176 268.416 276.456C267.94 276.727 267.385 276.862 266.75 276.862H264.706V280.25H263.082ZM264.706 275.364H266.722C267.189 275.364 267.571 275.205 267.87 274.888C268.169 274.571 268.318 274.16 268.318 273.656C268.318 273.143 268.15 272.727 267.814 272.41C267.478 272.093 267.044 271.934 266.512 271.934H264.706V275.364ZM271.394 280.25V270.45H273.018V278.766H277.456V280.25H271.394ZM278.818 280.25V270.45H280.442V280.25H278.818ZM281.733 280.25L285.639 270.45H287.361L291.281 280.25H289.559L288.593 277.842H284.407L283.455 280.25H281.733ZM284.953 276.4H288.047L286.507 272.48L284.953 276.4ZM292.558 280.25V270.45H294.238L299.446 277.534V270.45H301.07V280.25H299.446L294.182 273.082V280.25H292.558ZM305.43 280.25V271.934H302.42V270.45H310.064V271.934H307.054V280.25H305.43Z" fill="black"/>
<path d="M178.314 150.151C178.061 147.774 177.226 145.927 175.809 144.612C174.418 143.296 172.622 142.639 170.421 142.639C169.081 142.639 167.816 142.929 166.627 143.511C165.464 144.068 164.439 144.877 163.554 145.94C162.669 147.002 161.973 148.279 161.467 149.772C160.961 151.264 160.708 152.946 160.708 154.818C160.708 157.196 161.163 159.295 162.074 161.117C162.985 162.938 164.212 164.355 165.755 165.366C167.298 166.378 169.005 166.884 170.877 166.884C172.521 166.884 174.14 166.517 175.733 165.784C177.327 165.025 178.63 163.937 179.642 162.521L180.628 163.317C179.54 164.81 178.364 165.961 177.099 166.77C175.835 167.58 174.57 168.124 173.305 168.402C172.066 168.705 170.927 168.857 169.89 168.857C167.993 168.857 166.248 168.516 164.654 167.833C163.086 167.15 161.72 166.201 160.556 164.987C159.418 163.747 158.533 162.318 157.9 160.699C157.293 159.055 156.99 157.285 156.99 155.387C156.99 153.591 157.255 151.846 157.787 150.151C158.343 148.456 159.165 146.926 160.253 145.56C161.341 144.194 162.706 143.107 164.351 142.297C166.02 141.488 167.955 141.083 170.156 141.083C171.572 141.083 172.913 141.273 174.178 141.652C175.443 142.031 176.657 142.613 177.82 143.397L177.631 141.349H179.68V150.151H178.314ZM182.306 167.112C183.09 167.112 183.634 166.922 183.937 166.543C184.241 166.138 184.418 165.594 184.469 164.911C184.519 164.203 184.545 163.393 184.545 162.483V144.536C184.545 144.131 184.545 143.752 184.545 143.397C184.57 143.018 184.608 142.575 184.658 142.069C184.203 142.095 183.748 142.12 183.292 142.145C182.862 142.171 182.42 142.196 181.964 142.221V140.628C183.077 140.628 183.937 140.577 184.545 140.476C185.177 140.375 185.645 140.248 185.948 140.096C186.277 139.945 186.53 139.78 186.707 139.603H187.808L187.846 164.228C187.846 164.734 187.833 165.189 187.808 165.594C187.782 165.973 187.732 166.378 187.656 166.808C188.061 166.783 188.453 166.77 188.832 166.77C189.237 166.745 189.642 166.72 190.046 166.694V168.25H182.306V167.112ZM192.264 167.112C193.049 167.112 193.592 166.922 193.896 166.543C194.2 166.138 194.377 165.594 194.427 164.911C194.478 164.203 194.503 163.393 194.503 162.483V153.832C194.503 153.427 194.516 153.048 194.541 152.693C194.566 152.314 194.604 151.871 194.655 151.365C194.2 151.391 193.744 151.416 193.289 151.441C192.859 151.467 192.416 151.492 191.961 151.517V149.924C193.074 149.924 193.934 149.873 194.541 149.772C195.148 149.671 195.603 149.544 195.907 149.392C196.236 149.241 196.489 149.076 196.666 148.899H197.766V164.228C197.766 164.734 197.753 165.189 197.728 165.594C197.728 165.973 197.69 166.378 197.614 166.808C198.019 166.783 198.411 166.77 198.791 166.77C199.195 166.745 199.6 166.72 200.005 166.694V168.25H192.264V167.112ZM195.907 145.143C195.376 145.143 194.908 144.928 194.503 144.498C194.098 144.068 193.896 143.537 193.896 142.904C193.896 142.272 194.098 141.741 194.503 141.311C194.933 140.855 195.414 140.628 195.945 140.628C196.527 140.628 197.007 140.855 197.387 141.311C197.791 141.741 197.994 142.272 197.994 142.904C197.994 143.537 197.779 144.068 197.349 144.498C196.944 144.928 196.463 145.143 195.907 145.143ZM202.177 168.25V167.112C202.961 167.112 203.505 166.922 203.809 166.543C204.112 166.138 204.289 165.594 204.34 164.911C204.39 164.203 204.416 163.393 204.416 162.483L204.454 153.832C204.454 153.427 204.454 153.022 204.454 152.618C204.479 152.213 204.529 151.795 204.605 151.365C204.15 151.391 203.695 151.416 203.239 151.441C202.809 151.467 202.367 151.492 201.911 151.517V149.924C203.024 149.924 203.859 149.873 204.416 149.772C204.997 149.671 205.427 149.544 205.706 149.392C205.984 149.241 206.212 149.076 206.389 148.899H207.489C207.514 149.076 207.527 149.279 207.527 149.506C207.552 149.734 207.578 149.987 207.603 150.265C207.628 150.543 207.641 150.86 207.641 151.214C208.197 150.733 208.804 150.303 209.462 149.924C210.145 149.544 210.853 149.241 211.587 149.013C212.346 148.785 213.092 148.671 213.825 148.671C216.026 148.671 217.632 149.367 218.644 150.758C219.656 152.124 220.162 154.262 220.162 157.171V164.228C220.162 164.734 220.149 165.189 220.124 165.594C220.124 165.973 220.086 166.378 220.01 166.808C220.415 166.783 220.807 166.77 221.186 166.77C221.591 166.745 221.996 166.72 222.401 166.694V168.25H214.66V167.112C215.444 167.112 215.988 166.922 216.292 166.543C216.595 166.138 216.772 165.594 216.823 164.911C216.874 164.203 216.899 163.393 216.899 162.483V157.171C216.874 154.995 216.507 153.351 215.798 152.238C215.116 151.125 214.028 150.581 212.535 150.607C211.625 150.632 210.727 150.872 209.841 151.327C208.981 151.783 208.26 152.365 207.679 153.073C207.704 153.275 207.717 153.503 207.717 153.756C207.717 154.009 207.717 154.274 207.717 154.553L207.679 164.228C207.679 164.734 207.666 165.189 207.641 165.594C207.641 165.973 207.603 166.378 207.527 166.808C207.932 166.783 208.324 166.77 208.703 166.77C209.108 166.745 209.513 166.72 209.917 166.694V168.25H202.177ZM224.465 167.112C225.25 167.112 225.793 166.922 226.097 166.543C226.401 166.138 226.578 165.594 226.628 164.911C226.679 164.203 226.704 163.393 226.704 162.483V153.832C226.704 153.427 226.717 153.048 226.742 152.693C226.767 152.314 226.805 151.871 226.856 151.365C226.401 151.391 225.945 151.416 225.49 151.441C225.06 151.467 224.617 151.492 224.162 151.517V149.924C225.275 149.924 226.135 149.873 226.742 149.772C227.349 149.671 227.804 149.544 228.108 149.392C228.437 149.241 228.69 149.076 228.867 148.899H229.967V164.228C229.967 164.734 229.955 165.189 229.929 165.594C229.929 165.973 229.891 166.378 229.815 166.808C230.22 166.783 230.612 166.77 230.992 166.77C231.396 166.745 231.801 166.72 232.206 166.694V168.25H224.465V167.112ZM228.108 145.143C227.577 145.143 227.109 144.928 226.704 144.498C226.299 144.068 226.097 143.537 226.097 142.904C226.097 142.272 226.299 141.741 226.704 141.311C227.134 140.855 227.615 140.628 228.146 140.628C228.728 140.628 229.208 140.855 229.588 141.311C229.992 141.741 230.195 142.272 230.195 142.904C230.195 143.537 229.98 144.068 229.55 144.498C229.145 144.928 228.664 145.143 228.108 145.143ZM243.636 168.857C241.941 168.857 240.373 168.478 238.931 167.719C237.515 166.935 236.376 165.822 235.516 164.38C234.682 162.913 234.264 161.155 234.264 159.106C234.264 157.79 234.505 156.513 234.985 155.274C235.466 154.034 236.136 152.921 236.996 151.935C237.881 150.923 238.931 150.126 240.145 149.544C241.36 148.962 242.7 148.671 244.167 148.671C245.584 148.671 246.811 148.886 247.848 149.317C248.91 149.747 249.732 150.316 250.314 151.024C250.896 151.732 251.187 152.504 251.187 153.338C251.187 153.895 251.035 154.376 250.731 154.78C250.428 155.16 249.985 155.349 249.403 155.349C248.771 155.375 248.316 155.185 248.037 154.78C247.785 154.35 247.658 153.971 247.658 153.642C247.658 153.389 247.696 153.136 247.772 152.883C247.848 152.605 248 152.352 248.227 152.124C248.025 151.517 247.671 151.075 247.165 150.796C246.659 150.493 246.128 150.303 245.571 150.227C245.04 150.126 244.597 150.075 244.243 150.075C242.523 150.075 241.069 150.771 239.88 152.162C238.716 153.528 238.134 155.526 238.134 158.157C238.134 159.852 238.4 161.357 238.931 162.672C239.488 163.988 240.259 165.025 241.246 165.784C242.232 166.517 243.37 166.884 244.661 166.884C245.849 166.884 246.988 166.568 248.075 165.935C249.163 165.303 250.011 164.532 250.618 163.621L251.604 164.38C250.946 165.442 250.15 166.302 249.214 166.96C248.303 167.618 247.355 168.098 246.368 168.402C245.407 168.705 244.496 168.857 243.636 168.857ZM265.274 168.25C265.198 167.82 265.147 167.441 265.122 167.112C265.097 166.783 265.059 166.441 265.008 166.087C264.148 166.947 263.212 167.63 262.201 168.136C261.214 168.617 260.164 168.857 259.051 168.857C257.129 168.857 255.7 168.427 254.764 167.567C253.828 166.682 253.36 165.607 253.36 164.342C253.36 163.178 253.714 162.179 254.422 161.344C255.156 160.484 256.092 159.789 257.23 159.258C258.394 158.701 259.646 158.296 260.986 158.043C262.352 157.765 263.668 157.639 264.932 157.664V155.311C264.932 154.426 264.857 153.591 264.705 152.807C264.553 152.023 264.224 151.378 263.718 150.872C263.212 150.366 262.403 150.101 261.29 150.075C260.556 150.05 259.797 150.189 259.013 150.493C258.254 150.796 257.698 151.315 257.344 152.048C257.546 152.251 257.673 152.491 257.723 152.769C257.799 153.022 257.837 153.263 257.837 153.49C257.837 153.794 257.711 154.148 257.458 154.553C257.205 154.932 256.762 155.109 256.13 155.084C255.598 155.084 255.194 154.907 254.915 154.553C254.637 154.173 254.498 153.731 254.498 153.225C254.498 152.365 254.814 151.593 255.447 150.91C256.104 150.227 257.002 149.683 258.141 149.279C259.279 148.874 260.569 148.671 262.011 148.671C264.136 148.671 265.704 149.241 266.716 150.379C267.728 151.492 268.221 153.263 268.195 155.691C268.195 156.627 268.195 157.575 268.195 158.537C268.195 159.473 268.183 160.421 268.158 161.382C268.158 162.318 268.158 163.267 268.158 164.228C268.158 164.633 268.145 165.038 268.12 165.442C268.094 165.847 268.056 166.302 268.006 166.808C268.461 166.783 268.904 166.758 269.334 166.732C269.789 166.707 270.244 166.682 270.7 166.656V168.25H265.274ZM264.932 158.954C264.072 158.979 263.162 159.093 262.201 159.295C261.265 159.473 260.392 159.751 259.582 160.13C258.798 160.51 258.153 161.016 257.647 161.648C257.167 162.255 256.939 163.001 256.964 163.887C257.015 164.822 257.319 165.531 257.875 166.011C258.457 166.467 259.14 166.694 259.924 166.694C260.961 166.694 261.859 166.505 262.618 166.125C263.402 165.72 264.174 165.164 264.932 164.456C264.907 164.177 264.894 163.874 264.894 163.545C264.894 163.216 264.894 162.875 264.894 162.521C264.894 162.394 264.894 161.989 264.894 161.306C264.92 160.623 264.932 159.839 264.932 158.954ZM272.165 167.112C272.949 167.112 273.493 166.922 273.797 166.543C274.1 166.138 274.277 165.594 274.328 164.911C274.379 164.203 274.404 163.393 274.404 162.483V144.536C274.404 144.131 274.404 143.752 274.404 143.397C274.429 143.018 274.467 142.575 274.518 142.069C274.062 142.095 273.607 142.12 273.152 142.145C272.722 142.171 272.279 142.196 271.824 142.221V140.628C272.937 140.628 273.797 140.577 274.404 140.476C275.036 140.375 275.504 140.248 275.808 140.096C276.137 139.945 276.39 139.78 276.567 139.603H277.667L277.705 164.228C277.705 164.734 277.692 165.189 277.667 165.594C277.642 165.973 277.591 166.378 277.515 166.808C277.92 166.783 278.312 166.77 278.691 166.77C279.096 166.745 279.501 166.72 279.906 166.694V168.25H272.165V167.112ZM129.305 184.942C128.369 184.967 127.711 185.182 127.332 185.587C126.977 185.992 126.775 186.536 126.725 187.219C126.699 187.902 126.687 188.698 126.687 189.609V205.735C126.687 206.418 126.674 207.012 126.649 207.518C126.649 207.999 126.623 208.403 126.573 208.732C127.028 208.707 127.483 208.682 127.939 208.656C128.394 208.631 128.849 208.606 129.305 208.581V210.25H120.767V208.998C121.729 208.947 122.386 208.732 122.741 208.353C123.095 207.948 123.284 207.404 123.31 206.721C123.36 206.013 123.386 205.216 123.386 204.331V187.94C123.386 187.434 123.398 186.953 123.423 186.498C123.449 186.017 123.474 185.587 123.499 185.208C123.044 185.233 122.589 185.258 122.133 185.284C121.678 185.309 121.223 185.334 120.767 185.359V183.69H129.305V184.942ZM132.004 210.25V209.112C132.788 209.112 133.332 208.922 133.636 208.543C133.939 208.138 134.116 207.594 134.167 206.911C134.218 206.203 134.243 205.393 134.243 204.483L134.281 195.832C134.281 195.427 134.281 195.022 134.281 194.618C134.306 194.213 134.357 193.795 134.433 193.365C133.977 193.391 133.522 193.416 133.067 193.441C132.637 193.467 132.194 193.492 131.739 193.517V191.924C132.852 191.924 133.686 191.873 134.243 191.772C134.825 191.671 135.255 191.544 135.533 191.392C135.811 191.241 136.039 191.076 136.216 190.899H137.316C137.342 191.076 137.354 191.279 137.354 191.506C137.379 191.734 137.405 191.987 137.43 192.265C137.455 192.543 137.468 192.86 137.468 193.214C138.024 192.733 138.632 192.303 139.289 191.924C139.972 191.544 140.68 191.241 141.414 191.013C142.173 190.785 142.919 190.671 143.653 190.671C145.853 190.671 147.46 191.367 148.471 192.758C149.483 194.124 149.989 196.262 149.989 199.171V206.228C149.989 206.734 149.976 207.189 149.951 207.594C149.951 207.973 149.913 208.378 149.837 208.808C150.242 208.783 150.634 208.77 151.014 208.77C151.418 208.745 151.823 208.72 152.228 208.694V210.25H144.487V209.112C145.272 209.112 145.815 208.922 146.119 208.543C146.422 208.138 146.6 207.594 146.65 206.911C146.701 206.203 146.726 205.393 146.726 204.483V199.171C146.701 196.995 146.334 195.351 145.626 194.238C144.943 193.125 143.855 192.581 142.363 192.607C141.452 192.632 140.554 192.872 139.669 193.327C138.809 193.783 138.088 194.365 137.506 195.073C137.531 195.275 137.544 195.503 137.544 195.756C137.544 196.009 137.544 196.274 137.544 196.553L137.506 206.228C137.506 206.734 137.493 207.189 137.468 207.594C137.468 207.973 137.43 208.378 137.354 208.808C137.759 208.783 138.151 208.77 138.53 208.77C138.935 208.745 139.34 208.72 139.745 208.694V210.25H132.004ZM161.092 210.857C160.511 210.857 159.916 210.769 159.309 210.591C158.702 210.44 158.133 210.124 157.602 209.643C157.096 209.162 156.691 208.467 156.388 207.556C156.084 206.62 155.932 205.393 155.932 203.876L156.008 192.872L153.087 192.91V191.279C153.744 191.253 154.415 191.013 155.097 190.558C155.78 190.077 156.388 189.432 156.919 188.623C157.475 187.813 157.855 186.928 158.057 185.967H159.347V191.279H165.721V192.758L159.347 192.834L159.271 203.382C159.271 204.521 159.36 205.494 159.537 206.304C159.739 207.088 160.055 207.683 160.485 208.087C160.915 208.492 161.472 208.694 162.155 208.694C162.863 208.694 163.521 208.492 164.128 208.087C164.76 207.683 165.317 207.126 165.797 206.418L166.822 207.253C166.265 208.087 165.709 208.745 165.152 209.226C164.621 209.706 164.103 210.06 163.597 210.288C163.091 210.541 162.623 210.693 162.193 210.743C161.763 210.819 161.396 210.857 161.092 210.857ZM177.056 210.857C175.31 210.857 173.729 210.452 172.313 209.643C170.922 208.808 169.821 207.645 169.012 206.152C168.202 204.634 167.798 202.851 167.798 200.802C167.798 199.032 168.19 197.375 168.974 195.832C169.783 194.289 170.909 193.049 172.351 192.113C173.793 191.152 175.462 190.671 177.359 190.671C178.422 190.671 179.408 190.849 180.319 191.203C181.255 191.532 182.077 192.05 182.785 192.758C183.493 193.441 184.05 194.314 184.455 195.376C184.859 196.414 185.062 197.64 185.062 199.057L171.706 199.285C171.706 201.207 171.908 202.902 172.313 204.369C172.743 205.811 173.426 206.936 174.362 207.746C175.298 208.53 176.499 208.922 177.966 208.922C178.75 208.922 179.547 208.783 180.357 208.505C181.191 208.226 181.963 207.847 182.671 207.366C183.38 206.886 183.949 206.355 184.379 205.773L185.289 206.532C184.606 207.594 183.784 208.441 182.823 209.074C181.862 209.706 180.875 210.161 179.863 210.44C178.852 210.718 177.916 210.857 177.056 210.857ZM171.82 197.691H181.495C181.495 196.78 181.356 195.908 181.078 195.073C180.825 194.213 180.395 193.517 179.788 192.986C179.181 192.43 178.384 192.151 177.397 192.151C175.93 192.151 174.703 192.594 173.717 193.479C172.756 194.339 172.123 195.743 171.82 197.691ZM187.3 209.112C188.084 209.112 188.628 208.922 188.932 208.543C189.235 208.138 189.412 207.594 189.463 206.911C189.513 206.203 189.539 205.393 189.539 204.483V186.536C189.539 186.131 189.539 185.752 189.539 185.397C189.564 185.018 189.602 184.575 189.652 184.069C189.197 184.095 188.742 184.12 188.287 184.145C187.856 184.171 187.414 184.196 186.959 184.221V182.628C188.071 182.628 188.932 182.577 189.539 182.476C190.171 182.375 190.639 182.248 190.943 182.096C191.271 181.945 191.524 181.78 191.701 181.603H192.802L192.84 206.228C192.84 206.734 192.827 207.189 192.802 207.594C192.776 207.973 192.726 208.378 192.65 208.808C193.055 208.783 193.447 208.77 193.826 208.77C194.231 208.745 194.636 208.72 195.04 208.694V210.25H187.3V209.112ZM196.879 209.112C197.663 209.112 198.207 208.922 198.511 208.543C198.814 208.138 198.991 207.594 199.042 206.911C199.092 206.203 199.118 205.393 199.118 204.483V186.536C199.118 186.131 199.118 185.752 199.118 185.397C199.143 185.018 199.181 184.575 199.232 184.069C198.776 184.095 198.321 184.12 197.866 184.145C197.436 184.171 196.993 184.196 196.538 184.221V182.628C197.651 182.628 198.511 182.577 199.118 182.476C199.75 182.375 200.218 182.248 200.522 182.096C200.85 181.945 201.103 181.78 201.28 181.603H202.381L202.419 206.228C202.419 206.734 202.406 207.189 202.381 207.594C202.356 207.973 202.305 208.378 202.229 208.808C202.634 208.783 203.026 208.77 203.405 208.77C203.81 208.745 204.215 208.72 204.619 208.694V210.25H196.879V209.112ZM206.838 209.112C207.622 209.112 208.166 208.922 208.469 208.543C208.773 208.138 208.95 207.594 209 206.911C209.051 206.203 209.076 205.393 209.076 204.483V195.832C209.076 195.427 209.089 195.048 209.114 194.693C209.139 194.314 209.177 193.871 209.228 193.365C208.773 193.391 208.317 193.416 207.862 193.441C207.432 193.467 206.989 193.492 206.534 193.517V191.924C207.647 191.924 208.507 191.873 209.114 191.772C209.721 191.671 210.177 191.544 210.48 191.392C210.809 191.241 211.062 191.076 211.239 190.899H212.339V206.228C212.339 206.734 212.327 207.189 212.301 207.594C212.301 207.973 212.263 208.378 212.188 208.808C212.592 208.783 212.984 208.77 213.364 208.77C213.768 208.745 214.173 208.72 214.578 208.694V210.25H206.838V209.112ZM210.48 187.143C209.949 187.143 209.481 186.928 209.076 186.498C208.672 186.068 208.469 185.537 208.469 184.904C208.469 184.272 208.672 183.741 209.076 183.311C209.506 182.855 209.987 182.628 210.518 182.628C211.1 182.628 211.58 182.855 211.96 183.311C212.365 183.741 212.567 184.272 212.567 184.904C212.567 185.537 212.352 186.068 211.922 186.498C211.517 186.928 211.037 187.143 210.48 187.143ZM225.894 220.533C223.618 220.533 221.784 220.28 220.393 219.774C219.001 219.268 217.99 218.623 217.357 217.839C216.725 217.054 216.409 216.245 216.409 215.41C216.409 214.626 216.586 213.93 216.94 213.323C217.319 212.742 217.775 212.236 218.306 211.806C218.862 211.376 219.394 211.059 219.899 210.857C219.09 210.579 218.445 210.212 217.964 209.757C217.509 209.276 217.281 208.644 217.281 207.86C217.281 206.974 217.635 206.152 218.344 205.393C219.052 204.609 219.963 204.129 221.076 203.951C219.912 203.395 218.976 202.623 218.268 201.637C217.585 200.65 217.243 199.5 217.243 198.184C217.243 196.666 217.635 195.351 218.42 194.238C219.204 193.1 220.203 192.227 221.417 191.62C222.657 190.988 223.934 190.671 225.249 190.671C226.084 190.671 226.919 190.798 227.754 191.051C228.588 191.279 229.36 191.62 230.068 192.075C230.321 191.367 230.675 190.735 231.131 190.178C231.611 189.622 232.155 189.192 232.762 188.888C233.369 188.559 234.002 188.395 234.659 188.395C235.317 188.395 235.81 188.572 236.139 188.926C236.493 189.255 236.67 189.71 236.67 190.292C236.67 190.469 236.62 190.684 236.518 190.937C236.417 191.19 236.24 191.405 235.987 191.582C235.76 191.759 235.443 191.848 235.039 191.848C234.609 191.848 234.254 191.721 233.976 191.468C233.698 191.215 233.521 190.899 233.445 190.52C232.813 190.621 232.319 190.924 231.965 191.43C231.611 191.911 231.371 192.442 231.244 193.024C231.851 193.58 232.332 194.251 232.686 195.035C233.066 195.819 233.255 196.654 233.255 197.539C233.255 198.956 232.876 200.22 232.117 201.333C231.383 202.446 230.41 203.319 229.195 203.951C227.981 204.559 226.666 204.862 225.249 204.862C224.769 204.862 224.351 204.837 223.997 204.786C223.643 204.71 223.213 204.672 222.707 204.672C221.771 204.672 221.012 204.9 220.431 205.355C219.849 205.811 219.646 206.355 219.824 206.987C220.026 207.594 220.646 207.986 221.683 208.163C222.72 208.315 224.111 208.429 225.856 208.505C227.804 208.581 229.474 208.808 230.865 209.188C232.256 209.567 233.319 210.149 234.052 210.933C234.811 211.742 235.19 212.83 235.19 214.196C235.19 215.208 234.912 216.106 234.356 216.89C233.824 217.699 233.104 218.37 232.193 218.901C231.308 219.432 230.308 219.837 229.195 220.115C228.108 220.393 227.007 220.533 225.894 220.533ZM225.856 219.053C228.032 219.053 229.727 218.648 230.941 217.839C232.155 217.029 232.762 216.081 232.762 214.993C232.762 214.057 232.446 213.336 231.813 212.83C231.181 212.35 230.321 212.008 229.233 211.806C228.146 211.629 226.894 211.527 225.477 211.502C224.794 211.477 224.124 211.439 223.466 211.388C222.808 211.363 222.176 211.3 221.569 211.199C220.886 211.654 220.355 212.21 219.975 212.868C219.596 213.526 219.406 214.221 219.406 214.955C219.406 216.194 219.988 217.181 221.152 217.914C222.34 218.673 223.909 219.053 225.856 219.053ZM225.363 203.496C226.299 203.496 227.071 203.269 227.678 202.813C228.31 202.358 228.778 201.738 229.082 200.954C229.41 200.17 229.575 199.285 229.575 198.298C229.575 197.185 229.41 196.148 229.082 195.187C228.753 194.225 228.259 193.454 227.602 192.872C226.969 192.29 226.16 191.999 225.173 191.999C223.808 191.999 222.745 192.518 221.986 193.555C221.253 194.567 220.886 195.832 220.886 197.349C220.886 198.564 221.063 199.639 221.417 200.575C221.771 201.485 222.277 202.206 222.935 202.737C223.618 203.243 224.427 203.496 225.363 203.496ZM245.961 210.857C244.215 210.857 242.634 210.452 241.218 209.643C239.826 208.808 238.726 207.645 237.917 206.152C237.107 204.634 236.702 202.851 236.702 200.802C236.702 199.032 237.095 197.375 237.879 195.832C238.688 194.289 239.814 193.049 241.256 192.113C242.697 191.152 244.367 190.671 246.264 190.671C247.326 190.671 248.313 190.849 249.224 191.203C250.16 191.532 250.982 192.05 251.69 192.758C252.398 193.441 252.955 194.314 253.359 195.376C253.764 196.414 253.966 197.64 253.966 199.057L240.611 199.285C240.611 201.207 240.813 202.902 241.218 204.369C241.648 205.811 242.331 206.936 243.267 207.746C244.203 208.53 245.404 208.922 246.871 208.922C247.655 208.922 248.452 208.783 249.262 208.505C250.096 208.226 250.868 207.847 251.576 207.366C252.284 206.886 252.853 206.355 253.284 205.773L254.194 206.532C253.511 207.594 252.689 208.441 251.728 209.074C250.767 209.706 249.78 210.161 248.768 210.44C247.757 210.718 246.821 210.857 245.961 210.857ZM240.724 197.691H250.4C250.4 196.78 250.261 195.908 249.982 195.073C249.73 194.213 249.3 193.517 248.692 192.986C248.085 192.43 247.289 192.151 246.302 192.151C244.835 192.151 243.608 192.594 242.622 193.479C241.66 194.339 241.028 195.743 240.724 197.691ZM256.584 210.25V209.112C257.368 209.112 257.912 208.922 258.216 208.543C258.519 208.138 258.696 207.594 258.747 206.911C258.798 206.203 258.823 205.393 258.823 204.483L258.861 195.832C258.861 195.427 258.861 195.022 258.861 194.618C258.886 194.213 258.937 193.795 259.013 193.365C258.557 193.391 258.102 193.416 257.647 193.441C257.217 193.467 256.774 193.492 256.319 193.517V191.924C257.432 191.924 258.266 191.873 258.823 191.772C259.405 191.671 259.835 191.544 260.113 191.392C260.391 191.241 260.619 191.076 260.796 190.899H261.896C261.922 191.076 261.934 191.279 261.934 191.506C261.959 191.734 261.985 191.987 262.01 192.265C262.035 192.543 262.048 192.86 262.048 193.214C262.605 192.733 263.212 192.303 263.869 191.924C264.552 191.544 265.261 191.241 265.994 191.013C266.753 190.785 267.499 190.671 268.233 190.671C270.433 190.671 272.04 191.367 273.051 192.758C274.063 194.124 274.569 196.262 274.569 199.171V206.228C274.569 206.734 274.557 207.189 274.531 207.594C274.531 207.973 274.493 208.378 274.417 208.808C274.822 208.783 275.214 208.77 275.594 208.77C275.998 208.745 276.403 208.72 276.808 208.694V210.25H269.067V209.112C269.852 209.112 270.395 208.922 270.699 208.543C271.003 208.138 271.18 207.594 271.23 206.911C271.281 206.203 271.306 205.393 271.306 204.483V199.171C271.281 196.995 270.914 195.351 270.206 194.238C269.523 193.125 268.435 192.581 266.943 192.607C266.032 192.632 265.134 192.872 264.249 193.327C263.389 193.783 262.668 194.365 262.086 195.073C262.111 195.275 262.124 195.503 262.124 195.756C262.124 196.009 262.124 196.274 262.124 196.553L262.086 206.228C262.086 206.734 262.073 207.189 262.048 207.594C262.048 207.973 262.01 208.378 261.934 208.808C262.339 208.783 262.731 208.77 263.11 208.77C263.515 208.745 263.92 208.72 264.325 208.694V210.25H256.584ZM288.131 210.857C286.436 210.857 284.868 210.478 283.426 209.719C282.009 208.935 280.871 207.822 280.011 206.38C279.176 204.913 278.759 203.155 278.759 201.106C278.759 199.79 278.999 198.513 279.48 197.274C279.96 196.034 280.631 194.921 281.491 193.935C282.376 192.923 283.426 192.126 284.64 191.544C285.854 190.962 287.195 190.671 288.662 190.671C290.078 190.671 291.305 190.886 292.342 191.317C293.405 191.747 294.227 192.316 294.809 193.024C295.39 193.732 295.681 194.504 295.681 195.338C295.681 195.895 295.53 196.376 295.226 196.78C294.923 197.16 294.48 197.349 293.898 197.349C293.266 197.375 292.81 197.185 292.532 196.78C292.279 196.35 292.153 195.971 292.153 195.642C292.153 195.389 292.191 195.136 292.267 194.883C292.342 194.605 292.494 194.352 292.722 194.124C292.519 193.517 292.165 193.075 291.659 192.796C291.154 192.493 290.622 192.303 290.066 192.227C289.535 192.126 289.092 192.075 288.738 192.075C287.018 192.075 285.563 192.771 284.374 194.162C283.211 195.528 282.629 197.526 282.629 200.157C282.629 201.852 282.895 203.357 283.426 204.672C283.982 205.988 284.754 207.025 285.74 207.784C286.727 208.517 287.865 208.884 289.155 208.884C290.344 208.884 291.482 208.568 292.57 207.935C293.658 207.303 294.505 206.532 295.112 205.621L296.099 206.38C295.441 207.442 294.644 208.302 293.708 208.96C292.798 209.618 291.849 210.098 290.863 210.402C289.901 210.705 288.991 210.857 288.131 210.857ZM307.305 210.857C305.56 210.857 303.979 210.452 302.562 209.643C301.171 208.808 300.071 207.645 299.261 206.152C298.452 204.634 298.047 202.851 298.047 200.802C298.047 199.032 298.439 197.375 299.223 195.832C300.033 194.289 301.158 193.049 302.6 192.113C304.042 191.152 305.711 190.671 307.608 190.671C308.671 190.671 309.657 190.849 310.568 191.203C311.504 191.532 312.326 192.05 313.034 192.758C313.743 193.441 314.299 194.314 314.704 195.376C315.109 196.414 315.311 197.64 315.311 199.057L301.955 199.285C301.955 201.207 302.157 202.902 302.562 204.369C302.992 205.811 303.675 206.936 304.611 207.746C305.547 208.53 306.748 208.922 308.216 208.922C309 208.922 309.797 208.783 310.606 208.505C311.441 208.226 312.212 207.847 312.92 207.366C313.629 206.886 314.198 206.355 314.628 205.773L315.539 206.532C314.856 207.594 314.033 208.441 313.072 209.074C312.111 209.706 311.125 210.161 310.113 210.44C309.101 210.718 308.165 210.857 307.305 210.857ZM302.069 197.691H311.744C311.744 196.78 311.605 195.908 311.327 195.073C311.074 194.213 310.644 193.517 310.037 192.986C309.43 192.43 308.633 192.151 307.646 192.151C306.179 192.151 304.952 192.594 303.966 193.479C303.005 194.339 302.372 195.743 302.069 197.691Z" fill="black"/>
<path d="M1.24219 194.952C14.0114 85.8826 106.743 1.25 219.242 1.25C331.843 1.25 424.642 86.0367 437.277 195.25M1.32554 247.25C14.4097 355.98 106.985 440.25 219.242 440.25C331.327 440.25 423.791 356.239 437.098 247.75" stroke="#A684FF" stroke-width="2.5"/>
<defs>
<mask id="discMask_8380_9826" maskUnits="userSpaceOnUse" x="55.0156" y="58.3779" width="325.654" height="325.654">
<circle cx="217.8426" cy="221.2049" r="162.827" fill="white"/>
</mask>
<filter id="filter0_iiii_8380_9826" x="55.0156" y="58.3779" width="325.656" height="335.424" filterUnits="userSpaceOnUse" color-interpolation-filters="sRGB">
<feFlood flood-opacity="0" result="BackgroundImageFix"/>
<feBlend mode="normal" in="SourceGraphic" in2="BackgroundImageFix" result="shape"/>
<feColorMatrix in="SourceAlpha" type="matrix" values="0 0 0 0 0 0 0 0 0 0 0 0 0 0 0 0 0 0 127 0" result="hardAlpha"/>
<feMorphology radius="65.1308" operator="erode" in="SourceAlpha" result="effect1_innerShadow_8380_9826"/>
<feOffset dy="1.30262"/>
<feGaussianBlur stdDeviation="42.335"/>
<feComposite in2="hardAlpha" operator="arithmetic" k2="-1" k3="1"/>
<feColorMatrix type="matrix" values="0 0 0 0 0.290196 0 0 0 0 0.537255 0 0 0 0 0.909804 0 0 0 1 0"/>
<feBlend mode="lighten" in2="shape" result="effect1_innerShadow_8380_9826"/>
<feColorMatrix in="SourceAlpha" type="matrix" values="0 0 0 0 0 0 0 0 0 0 0 0 0 0 0 0 0 0 127 0" result="hardAlpha"/>
<feMorphology radius="45.5916" operator="erode" in="SourceAlpha" result="effect2_innerShadow_8380_9826"/>
<feOffset/>
<feGaussianBlur stdDeviation="32.5654"/>
<feComposite in2="hardAlpha" operator="arithmetic" k2="-1" k3="1"/>
<feColorMatrix type="matrix" values="0 0 0 0 0.290196 0 0 0 0 0.537255 0 0 0 0 0.909804 0 0 0 1 0"/>
<feBlend mode="screen" in2="effect1_innerShadow_8380_9826" result="effect2_innerShadow_8380_9826"/>
<feColorMatrix in="SourceAlpha" type="matrix" values="0 0 0 0 0 0 0 0 0 0 0 0 0 0 0 0 0 0 127 0" result="hardAlpha"/>
<feMorphology radius="15.6314" operator="erode" in="SourceAlpha" result="effect3_innerShadow_8380_9826"/>
<feOffset dy="9.76962"/>
<feGaussianBlur stdDeviation="24.4241"/>
<feComposite in2="hardAlpha" operator="arithmetic" k2="-1" k3="1"/>
<feColorMatrix type="matrix" values="0 0 0 0 0.54902 0 0 0 0 0.290196 0 0 0 0 1 0 0 0 1 0"/>
<feBlend mode="normal" in2="effect2_innerShadow_8380_9826" result="effect3_innerShadow_8380_9826"/>
<feColorMatrix in="SourceAlpha" type="matrix" values="0 0 0 0 0 0 0 0 0 0 0 0 0 0 0 0 0 0 127 0" result="hardAlpha"/>
<feMorphology radius="10.4209" operator="erode" in="SourceAlpha" result="effect4_innerShadow_8380_9826"/>
<feOffset dy="1.30262"/>
<feGaussianBlur stdDeviation="21.1675"/>
<feComposite in2="hardAlpha" operator="arithmetic" k2="-1" k3="1"/>
<feColorMatrix type="matrix" values="0 0 0 0 0.65098 0 0 0 0 0.517647 0 0 0 0 1 0 0 0 1 0"/>
<feBlend mode="screen" in2="effect3_innerShadow_8380_9826" result="effect4_innerShadow_8380_9826"/>
</filter>
<linearGradient id="paint0_linear_8380_9826" x1="56.9876" y1="184.461" x2="379.932" y2="184.461" gradientUnits="userSpaceOnUse">
<stop stop-color="white" stop-opacity="0"/>
<stop offset="0.206731" stop-color="#C8B8FF"/>
<stop offset="0.461538" stop-color="#A684FF"/>
<stop offset="0.725962" stop-color="#8C4AFF"/>
<stop offset="1" stop-color="white" stop-opacity="0"/>
</linearGradient>
<linearGradient id="paint1_linear_8380_9826" x1="235.516" y1="408.027" x2="390.501" y2="137.577" gradientUnits="userSpaceOnUse">
<stop stop-color="white" stop-opacity="0"/>
<stop offset="0.206731" stop-color="#C8B8FF"/>
<stop offset="0.461538" stop-color="#A684FF"/>
<stop offset="0.725962" stop-color="#8C4AFF"/>
<stop offset="1" stop-color="white" stop-opacity="0"/>
</linearGradient>
<linearGradient id="paint2_linear_8380_9826" x1="38.2952" y1="137.577" x2="201.418" y2="414.226" gradientUnits="userSpaceOnUse">
<stop stop-color="white" stop-opacity="0"/>
<stop offset="0.206731" stop-color="#C8B8FF"/>
<stop offset="0.461538" stop-color="#A684FF"/>
<stop offset="0.725962" stop-color="#8C4AFF"/>
<stop offset="1" stop-color="white" stop-opacity="0"/>
</linearGradient>
</defs>
</svg>
