<svg xmlns="http://www.w3.org/2000/svg" xmlns:xlink="http://www.w3.org/1999/xlink" fill="none" viewBox="674.645 100.157 132.942 37.39" width="132.942" height="37.39">
<defs><clipPath id="clip5_8618_527">
<rect width="132.942" height="37.39" fill="white" transform="translate(674.645 100.157)"/>
</clipPath></defs>
<g clip-path="url(#clip5_8618_527)">
<path d="M779.252 126.622V127.516H776.432V126.622H779.252ZM777.128 125.446H778.284V130.052C778.284 130.207 778.308 130.327 778.354 130.41C778.403 130.491 778.467 130.546 778.546 130.576C778.625 130.606 778.712 130.621 778.808 130.621C778.88 130.621 778.946 130.615 779.006 130.605C779.068 130.594 779.115 130.584 779.147 130.576L779.341 131.48C779.28 131.501 779.191 131.524 779.076 131.55C778.963 131.576 778.825 131.59 778.661 131.595C778.371 131.603 778.111 131.56 777.879 131.464C777.646 131.366 777.462 131.215 777.326 131.01C777.192 130.806 777.126 130.55 777.128 130.244V125.446Z" fill="black"/>
<path d="M772.296 128.652V131.527H771.14V126.621H772.245V127.455H772.302C772.415 127.18 772.595 126.962 772.842 126.8C773.091 126.638 773.399 126.557 773.765 126.557C774.104 126.557 774.399 126.63 774.65 126.774C774.903 126.919 775.099 127.129 775.238 127.404C775.378 127.678 775.447 128.011 775.445 128.403V131.527H774.289V128.582C774.289 128.254 774.204 127.998 774.033 127.812C773.865 127.627 773.632 127.534 773.334 127.534C773.132 127.534 772.952 127.579 772.794 127.669C772.639 127.756 772.516 127.883 772.427 128.049C772.34 128.215 772.296 128.416 772.296 128.652Z" fill="black"/>
<path d="M767.209 131.626C766.898 131.626 766.618 131.571 766.369 131.46C766.122 131.347 765.926 131.181 765.781 130.962C765.639 130.742 765.567 130.472 765.567 130.15C765.567 129.874 765.618 129.645 765.721 129.464C765.823 129.283 765.962 129.138 766.139 129.029C766.316 128.921 766.515 128.839 766.736 128.783C766.96 128.726 767.191 128.684 767.429 128.659C767.717 128.629 767.95 128.602 768.129 128.579C768.308 128.553 768.438 128.515 768.519 128.464C768.602 128.411 768.643 128.329 768.643 128.218V128.199C768.643 127.958 768.572 127.772 768.429 127.64C768.287 127.508 768.081 127.442 767.813 127.442C767.53 127.442 767.305 127.504 767.139 127.627C766.975 127.751 766.864 127.896 766.807 128.065L765.727 127.911C765.812 127.613 765.953 127.364 766.149 127.164C766.345 126.962 766.584 126.811 766.867 126.71C767.151 126.608 767.464 126.557 767.806 126.557C768.043 126.557 768.278 126.585 768.512 126.64C768.746 126.696 768.96 126.787 769.154 126.915C769.348 127.04 769.503 127.212 769.621 127.429C769.74 127.646 769.799 127.918 769.799 128.244V131.527H768.688V130.853H768.65C768.579 130.989 768.48 131.117 768.353 131.236C768.227 131.353 768.068 131.448 767.877 131.521C767.687 131.591 767.465 131.626 767.209 131.626ZM767.509 130.776C767.741 130.776 767.943 130.731 768.113 130.639C768.283 130.545 768.414 130.422 768.506 130.269C768.6 130.115 768.646 129.948 768.646 129.767V129.189C768.61 129.219 768.548 129.246 768.461 129.272C768.376 129.298 768.28 129.32 768.174 129.339C768.067 129.358 767.962 129.375 767.857 129.39C767.753 129.405 767.663 129.418 767.586 129.429C767.413 129.452 767.259 129.49 767.123 129.543C766.987 129.597 766.879 129.671 766.8 129.767C766.721 129.861 766.682 129.982 766.682 130.131C766.682 130.344 766.76 130.505 766.915 130.613C767.071 130.722 767.269 130.776 767.509 130.776Z" fill="black"/>
<path d="M763.273 131.525V126.619H764.429V131.525H763.273ZM763.854 125.923C763.671 125.923 763.514 125.863 763.382 125.741C763.25 125.618 763.184 125.47 763.184 125.297C763.184 125.123 763.25 124.975 763.382 124.853C763.514 124.73 763.671 124.668 763.854 124.668C764.04 124.668 764.197 124.73 764.327 124.853C764.459 124.975 764.525 125.123 764.525 125.297C764.525 125.47 764.459 125.618 764.327 125.741C764.197 125.863 764.04 125.923 763.854 125.923Z" fill="black"/>
<path d="M761.902 124.985V131.527H760.746V124.985H761.902Z" fill="black"/>
<path d="M754.943 133.367V126.621H756.08V127.432H756.147C756.207 127.313 756.291 127.186 756.4 127.052C756.508 126.916 756.655 126.8 756.841 126.704C757.026 126.606 757.262 126.557 757.55 126.557C757.929 126.557 758.27 126.654 758.575 126.848C758.882 127.039 759.124 127.324 759.303 127.701C759.484 128.075 759.575 128.535 759.575 129.08C759.575 129.619 759.486 130.077 759.31 130.454C759.133 130.831 758.892 131.118 758.588 131.316C758.283 131.514 757.938 131.613 757.553 131.613C757.272 131.613 757.039 131.566 756.853 131.473C756.668 131.379 756.519 131.266 756.406 131.134C756.295 131 756.209 130.873 756.147 130.754H756.1V133.367H754.943ZM756.077 129.074C756.077 129.391 756.122 129.669 756.211 129.908C756.303 130.146 756.434 130.332 756.604 130.467C756.777 130.599 756.985 130.665 757.23 130.665C757.486 130.665 757.7 130.596 757.872 130.46C758.045 130.322 758.175 130.133 758.262 129.895C758.351 129.654 758.396 129.381 758.396 129.074C758.396 128.769 758.352 128.499 758.265 128.263C758.178 128.026 758.048 127.841 757.875 127.707C757.703 127.573 757.488 127.506 757.23 127.506C756.983 127.506 756.773 127.571 756.601 127.701C756.429 127.83 756.298 128.013 756.208 128.247C756.121 128.481 756.077 128.757 756.077 129.074Z" fill="black"/>
<path d="M746.693 131.527V126.621H747.798V127.455H747.856C747.958 127.174 748.127 126.954 748.364 126.797C748.6 126.637 748.882 126.557 749.21 126.557C749.542 126.557 749.822 126.638 750.05 126.8C750.28 126.96 750.442 127.178 750.536 127.455H750.587C750.695 127.182 750.879 126.965 751.136 126.803C751.396 126.639 751.704 126.557 752.059 126.557C752.511 126.557 752.879 126.7 753.164 126.985C753.45 127.27 753.592 127.687 753.592 128.234V131.527H752.433V128.413C752.433 128.108 752.352 127.886 752.19 127.745C752.028 127.603 751.83 127.531 751.596 127.531C751.317 127.531 751.099 127.619 750.941 127.793C750.786 127.966 750.708 128.19 750.708 128.467V131.527H749.574V128.365C749.574 128.112 749.498 127.909 749.344 127.758C749.193 127.607 748.995 127.531 748.75 127.531C748.584 127.531 748.433 127.574 748.297 127.659C748.16 127.742 748.052 127.86 747.971 128.014C747.89 128.165 747.85 128.341 747.85 128.544V131.527H746.693Z" fill="black"/>
<path d="M743.182 131.623C742.703 131.623 742.288 131.517 741.936 131.307C741.585 131.096 741.312 130.801 741.119 130.422C740.927 130.043 740.831 129.6 740.831 129.093C740.831 128.586 740.927 128.142 741.119 127.761C741.312 127.38 741.585 127.084 741.936 126.873C742.288 126.663 742.703 126.557 743.182 126.557C743.661 126.557 744.076 126.663 744.427 126.873C744.779 127.084 745.05 127.38 745.242 127.761C745.436 128.142 745.533 128.586 745.533 129.093C745.533 129.6 745.436 130.043 745.242 130.422C745.05 130.801 744.779 131.096 744.427 131.307C744.076 131.517 743.661 131.623 743.182 131.623ZM743.188 130.697C743.448 130.697 743.665 130.625 743.84 130.483C744.014 130.338 744.144 130.144 744.229 129.901C744.317 129.658 744.36 129.388 744.36 129.09C744.36 128.79 744.317 128.518 744.229 128.275C744.144 128.031 744.014 127.836 743.84 127.691C743.665 127.546 743.448 127.474 743.188 127.474C742.922 127.474 742.701 127.546 742.524 127.691C742.349 127.836 742.218 128.031 742.131 128.275C742.046 128.518 742.003 128.79 742.003 129.09C742.003 129.388 742.046 129.658 742.131 129.901C742.218 130.144 742.349 130.338 742.524 130.483C742.701 130.625 742.922 130.697 743.188 130.697Z" fill="black"/>
<path d="M739.828 127.191H738.633C738.599 126.996 738.536 126.822 738.445 126.671C738.353 126.518 738.239 126.388 738.103 126.281C737.967 126.175 737.811 126.095 737.637 126.042C737.464 125.986 737.278 125.959 737.078 125.959C736.722 125.959 736.407 126.048 736.132 126.227C735.858 126.404 735.642 126.663 735.487 127.006C735.332 127.347 735.254 127.763 735.254 128.255C735.254 128.755 735.332 129.177 735.487 129.52C735.645 129.861 735.86 130.118 736.132 130.293C736.407 130.465 736.721 130.552 737.074 130.552C737.27 130.552 737.453 130.526 737.624 130.475C737.796 130.422 737.951 130.344 738.087 130.242C738.225 130.14 738.341 130.014 738.435 129.865C738.531 129.716 738.597 129.545 738.633 129.354L739.828 129.36C739.783 129.671 739.686 129.963 739.537 130.235C739.39 130.508 739.197 130.749 738.959 130.957C738.72 131.164 738.441 131.326 738.122 131.443C737.803 131.558 737.448 131.615 737.058 131.615C736.484 131.615 735.97 131.482 735.519 131.216C735.068 130.95 734.712 130.565 734.452 130.063C734.192 129.56 734.062 128.958 734.062 128.255C734.062 127.55 734.193 126.948 734.455 126.447C734.717 125.945 735.074 125.56 735.525 125.294C735.977 125.028 736.488 124.895 737.058 124.895C737.423 124.895 737.761 124.946 738.074 125.048C738.387 125.151 738.666 125.301 738.911 125.499C739.156 125.695 739.357 125.935 739.515 126.221C739.674 126.504 739.779 126.827 739.828 127.191Z" fill="black"/>
<path d="M791.732 120.56C791.421 120.56 791.141 120.505 790.892 120.394C790.645 120.281 790.449 120.115 790.304 119.896C790.161 119.676 790.09 119.406 790.09 119.084C790.09 118.808 790.141 118.579 790.243 118.398C790.345 118.217 790.485 118.072 790.662 117.963C790.838 117.855 791.037 117.773 791.259 117.717C791.482 117.66 791.713 117.618 791.952 117.593C792.239 117.563 792.473 117.536 792.651 117.513C792.83 117.487 792.96 117.449 793.041 117.398C793.124 117.345 793.166 117.263 793.166 117.152V117.133C793.166 116.892 793.094 116.706 792.952 116.574C792.809 116.442 792.603 116.376 792.335 116.376C792.052 116.376 791.827 116.438 791.661 116.561C791.497 116.685 791.387 116.831 791.329 116.999L790.25 116.845C790.335 116.547 790.475 116.298 790.671 116.098C790.867 115.896 791.107 115.745 791.39 115.645C791.673 115.542 791.986 115.491 792.329 115.491C792.565 115.491 792.8 115.519 793.035 115.574C793.269 115.63 793.483 115.721 793.677 115.849C793.87 115.975 794.026 116.146 794.143 116.363C794.262 116.58 794.322 116.852 794.322 117.178V120.461H793.21V119.787H793.172C793.102 119.923 793.003 120.051 792.875 120.17C792.749 120.287 792.591 120.382 792.399 120.455C792.21 120.525 791.987 120.56 791.732 120.56ZM792.032 119.71C792.264 119.71 792.465 119.665 792.635 119.573C792.806 119.479 792.937 119.356 793.028 119.203C793.122 119.049 793.169 118.882 793.169 118.701V118.123C793.133 118.153 793.071 118.181 792.984 118.206C792.898 118.232 792.803 118.254 792.696 118.273C792.59 118.292 792.484 118.309 792.38 118.324C792.276 118.339 792.185 118.352 792.108 118.363C791.936 118.386 791.782 118.424 791.645 118.478C791.509 118.531 791.401 118.605 791.323 118.701C791.244 118.795 791.205 118.916 791.205 119.065C791.205 119.278 791.282 119.439 791.438 119.548C791.593 119.656 791.791 119.71 792.032 119.71Z" fill="black"/>
<path d="M788.904 113.919V120.461H787.719V113.919H788.904Z" fill="black"/>
<path d="M786.259 113.919V120.461H785.074V113.919H786.259Z" fill="black"/>
<path d="M781.372 116.852L780.318 116.967C780.288 116.86 780.236 116.76 780.161 116.667C780.089 116.573 779.991 116.497 779.868 116.44C779.744 116.382 779.593 116.354 779.414 116.354C779.173 116.354 778.971 116.406 778.807 116.51C778.645 116.614 778.566 116.75 778.568 116.916C778.566 117.058 778.618 117.174 778.724 117.264C778.833 117.353 779.012 117.427 779.261 117.484L780.098 117.663C780.562 117.763 780.907 117.922 781.132 118.139C781.36 118.356 781.475 118.64 781.477 118.992C781.475 119.301 781.385 119.573 781.206 119.809C781.029 120.044 780.783 120.227 780.468 120.359C780.153 120.491 779.791 120.557 779.382 120.557C778.782 120.557 778.298 120.431 777.932 120.18C777.566 119.927 777.348 119.574 777.277 119.123L778.405 119.014C778.456 119.236 778.565 119.403 778.731 119.516C778.897 119.628 779.113 119.685 779.379 119.685C779.654 119.685 779.874 119.628 780.04 119.516C780.208 119.403 780.292 119.263 780.292 119.097C780.292 118.957 780.238 118.841 780.13 118.749C780.023 118.658 779.857 118.587 779.631 118.538L778.794 118.363C778.324 118.265 777.976 118.1 777.75 117.868C777.524 117.633 777.413 117.337 777.415 116.98C777.413 116.677 777.495 116.415 777.661 116.194C777.829 115.97 778.062 115.798 778.36 115.676C778.66 115.553 779.006 115.491 779.398 115.491C779.973 115.491 780.426 115.614 780.756 115.859C781.088 116.103 781.293 116.434 781.372 116.852Z" fill="black"/>
<path d="M776.257 116.852L775.203 116.967C775.173 116.86 775.121 116.76 775.046 116.667C774.974 116.573 774.876 116.497 774.752 116.44C774.629 116.382 774.478 116.354 774.299 116.354C774.058 116.354 773.856 116.406 773.692 116.51C773.53 116.614 773.45 116.75 773.452 116.916C773.45 117.058 773.503 117.174 773.609 117.264C773.718 117.353 773.896 117.427 774.146 117.484L774.982 117.663C775.447 117.763 775.792 117.922 776.017 118.139C776.245 118.356 776.36 118.64 776.362 118.992C776.36 119.301 776.27 119.573 776.091 119.809C775.914 120.044 775.668 120.227 775.353 120.359C775.038 120.491 774.676 120.557 774.267 120.557C773.666 120.557 773.183 120.431 772.817 120.18C772.451 119.927 772.232 119.574 772.162 119.123L773.29 119.014C773.341 119.236 773.449 119.403 773.615 119.516C773.781 119.628 773.998 119.685 774.264 119.685C774.538 119.685 774.759 119.628 774.925 119.516C775.093 119.403 775.177 119.263 775.177 119.097C775.177 118.957 775.123 118.841 775.014 118.749C774.908 118.658 774.742 118.587 774.516 118.538L773.679 118.363C773.209 118.265 772.861 118.1 772.635 117.868C772.409 117.633 772.297 117.337 772.299 116.98C772.297 116.677 772.379 116.415 772.545 116.194C772.714 115.97 772.947 115.798 773.245 115.676C773.545 115.553 773.891 115.491 774.283 115.491C774.858 115.491 775.31 115.614 775.64 115.859C775.973 116.103 776.178 116.434 776.257 116.852Z" fill="black"/>
<path d="M768.446 120.56C768.136 120.56 767.855 120.505 767.606 120.394C767.359 120.281 767.163 120.115 767.019 119.896C766.876 119.676 766.805 119.406 766.805 119.084C766.805 118.808 766.856 118.579 766.958 118.398C767.06 118.217 767.2 118.072 767.376 117.963C767.553 117.855 767.752 117.773 767.974 117.717C768.197 117.66 768.428 117.618 768.667 117.593C768.954 117.563 769.187 117.536 769.366 117.513C769.545 117.487 769.675 117.449 769.756 117.398C769.839 117.345 769.88 117.263 769.88 117.152V117.133C769.88 116.892 769.809 116.706 769.666 116.574C769.524 116.442 769.318 116.376 769.05 116.376C768.767 116.376 768.542 116.438 768.376 116.561C768.212 116.685 768.101 116.831 768.044 116.999L766.964 116.845C767.05 116.547 767.19 116.298 767.386 116.098C767.582 115.896 767.821 115.745 768.105 115.645C768.388 115.542 768.701 115.491 769.044 115.491C769.28 115.491 769.515 115.519 769.75 115.574C769.984 115.63 770.198 115.721 770.392 115.849C770.585 115.975 770.741 116.146 770.858 116.363C770.977 116.58 771.037 116.852 771.037 117.178V120.461H769.925V119.787H769.887C769.817 119.923 769.718 120.051 769.59 120.17C769.464 120.287 769.306 120.382 769.114 120.455C768.924 120.525 768.702 120.56 768.446 120.56ZM768.747 119.71C768.979 119.71 769.18 119.665 769.35 119.573C769.521 119.479 769.652 119.356 769.743 119.203C769.837 119.049 769.884 118.882 769.884 118.701V118.123C769.847 118.153 769.786 118.181 769.698 118.206C769.613 118.232 769.517 118.254 769.411 118.273C769.304 118.292 769.199 118.309 769.095 118.324C768.99 118.339 768.9 118.352 768.823 118.363C768.651 118.386 768.496 118.424 768.36 118.478C768.224 118.531 768.116 118.605 768.038 118.701C767.959 118.795 767.919 118.916 767.919 119.065C767.919 119.278 767.997 119.439 768.153 119.548C768.308 119.656 768.506 119.71 768.747 119.71Z" fill="black"/>
<path d="M765.667 113.919V120.461H764.511V113.919H765.667Z" fill="black"/>
<path d="M763.296 116.125H762.102C762.068 115.929 762.005 115.756 761.913 115.604C761.822 115.451 761.708 115.321 761.572 115.215C761.435 115.108 761.28 115.028 761.105 114.975C760.933 114.92 760.747 114.892 760.546 114.892C760.191 114.892 759.876 114.982 759.601 115.16C759.326 115.337 759.111 115.597 758.956 115.94C758.8 116.281 758.723 116.697 758.723 117.189C758.723 117.689 758.8 118.111 758.956 118.453C759.113 118.794 759.328 119.052 759.601 119.226C759.876 119.399 760.19 119.485 760.543 119.485C760.739 119.485 760.922 119.46 761.093 119.408C761.265 119.355 761.419 119.278 761.556 119.175C761.694 119.073 761.81 118.947 761.904 118.798C762 118.649 762.066 118.479 762.102 118.287L763.296 118.294C763.252 118.605 763.155 118.896 763.006 119.169C762.859 119.441 762.666 119.682 762.428 119.891C762.189 120.097 761.91 120.259 761.591 120.376C761.271 120.491 760.917 120.549 760.527 120.549C759.952 120.549 759.439 120.416 758.988 120.149C758.536 119.883 758.181 119.499 757.921 118.996C757.661 118.494 757.531 117.891 757.531 117.189C757.531 116.484 757.662 115.881 757.924 115.381C758.186 114.878 758.543 114.494 758.994 114.228C759.445 113.962 759.957 113.829 760.527 113.829C760.891 113.829 761.23 113.88 761.543 113.982C761.856 114.084 762.135 114.234 762.38 114.432C762.625 114.628 762.826 114.869 762.983 115.154C763.143 115.437 763.247 115.761 763.296 116.125Z" fill="black"/>
<path d="M749.259 120.461V113.919H751.712C752.214 113.919 752.636 114.007 752.977 114.181C753.319 114.356 753.578 114.601 753.753 114.916C753.929 115.229 754.018 115.594 754.018 116.011C754.018 116.431 753.928 116.795 753.749 117.104C753.573 117.41 753.312 117.648 752.967 117.816C752.622 117.982 752.198 118.065 751.696 118.065H749.949V117.081H751.536C751.83 117.081 752.071 117.041 752.258 116.96C752.445 116.877 752.584 116.757 752.673 116.599C752.765 116.439 752.81 116.244 752.81 116.011C752.81 115.779 752.765 115.581 752.673 115.417C752.582 115.251 752.442 115.126 752.255 115.041C752.067 114.953 751.826 114.91 751.53 114.91H750.444V120.461H749.259ZM752.638 117.497L754.257 120.461H752.935L751.344 117.497H752.638Z" fill="black"/>
<path d="M744.775 120.461H742.559V113.919H744.82C745.469 113.919 746.027 114.05 746.494 114.312C746.962 114.572 747.322 114.946 747.573 115.433C747.824 115.921 747.95 116.504 747.95 117.184C747.95 117.865 747.823 118.451 747.57 118.94C747.319 119.43 746.956 119.806 746.481 120.068C746.008 120.33 745.44 120.461 744.775 120.461ZM743.744 119.435H744.718C745.173 119.435 745.553 119.352 745.858 119.186C746.162 119.018 746.391 118.768 746.545 118.436C746.698 118.101 746.775 117.684 746.775 117.184C746.775 116.683 746.698 116.268 746.545 115.938C746.391 115.606 746.165 115.358 745.864 115.194C745.566 115.028 745.196 114.945 744.753 114.945H743.744V119.435Z" fill="black"/>
<path d="M734.229 113.919H735.68L737.621 118.659H737.698L739.64 113.919H741.09V120.461H739.953V115.967H739.892L738.085 120.442H737.235L735.427 115.957H735.367V120.461H734.229V113.919Z" fill="black"/>
<path d="M702.311 125.59C701.746 125.59 701.32 125.44 701.035 125.14C700.75 124.844 700.607 124.392 700.607 123.781V118.566C700.607 117.96 700.75 117.51 701.035 117.215C701.32 116.915 701.746 116.765 702.311 116.765H709.17C709.735 116.765 710.161 116.915 710.446 117.215C710.731 117.51 710.874 117.96 710.874 118.566V123.781C710.874 124.392 710.731 124.844 710.446 125.14C710.161 125.44 709.735 125.59 709.17 125.59H702.311ZM701.981 117.425L701.988 115.136C701.988 114.291 702.158 113.573 702.499 112.982C702.839 112.387 703.294 111.934 703.864 111.624C704.435 111.314 705.06 111.159 705.74 111.159C706.421 111.159 707.046 111.314 707.617 111.624C708.187 111.934 708.642 112.387 708.982 112.982C709.328 113.573 709.5 114.291 709.5 115.136V117.425H707.894L707.902 115.046C707.902 114.551 707.802 114.128 707.602 113.778C707.406 113.428 707.146 113.162 706.821 112.982C706.496 112.797 706.136 112.705 705.74 112.705C705.345 112.705 704.982 112.797 704.652 112.982C704.327 113.162 704.067 113.428 703.872 113.778C703.682 114.128 703.587 114.551 703.587 115.046V117.425H701.981Z" fill="black"/>
<path d="M703.859 107.872C703.764 107.799 703.705 107.702 703.682 107.582C703.662 107.464 703.678 107.328 703.731 107.175L704.446 105.053L702.625 103.747C702.489 103.649 702.394 103.546 702.339 103.438C702.283 103.331 702.277 103.219 702.32 103.103C702.357 102.988 702.429 102.903 702.534 102.848C702.642 102.792 702.778 102.766 702.941 102.769L705.18 102.784L705.857 100.646C705.91 100.488 705.978 100.367 706.061 100.285C706.146 100.199 706.249 100.157 706.369 100.157C706.492 100.157 706.596 100.199 706.682 100.285C706.767 100.367 706.835 100.488 706.885 100.646L707.566 102.784L709.801 102.769C709.965 102.766 710.099 102.794 710.204 102.851C710.312 102.907 710.385 102.991 710.422 103.103C710.463 103.219 710.455 103.331 710.4 103.438C710.347 103.546 710.253 103.649 710.118 103.747L708.296 105.053L709.011 107.175C709.064 107.328 709.08 107.464 709.06 107.582C709.04 107.702 708.981 107.799 708.883 107.872C708.788 107.947 708.68 107.975 708.56 107.954C708.439 107.934 708.312 107.875 708.179 107.778L706.369 106.449L704.563 107.778C704.43 107.875 704.303 107.934 704.183 107.954C704.065 107.975 703.957 107.947 703.859 107.872Z" fill="black"/>
<path d="M694.553 110.913C694.458 110.84 694.399 110.744 694.377 110.623C694.356 110.506 694.373 110.37 694.425 110.217L695.14 108.094L693.319 106.788C693.184 106.691 693.088 106.588 693.033 106.48C692.978 106.372 692.972 106.26 693.014 106.145C693.052 106.03 693.123 105.944 693.229 105.889C693.337 105.834 693.472 105.808 693.635 105.81L695.874 105.825L696.552 103.687C696.605 103.529 696.672 103.409 696.755 103.326C696.84 103.241 696.943 103.198 697.064 103.198C697.187 103.198 697.291 103.241 697.376 103.326C697.461 103.409 697.529 103.529 697.579 103.687L698.26 105.825L700.496 105.81C700.659 105.808 700.793 105.835 700.899 105.893C701.006 105.948 701.079 106.032 701.117 106.145C701.157 106.26 701.149 106.372 701.094 106.48C701.042 106.588 700.947 106.691 700.812 106.788L698.99 108.094L699.706 110.217C699.758 110.37 699.774 110.506 699.754 110.623C699.734 110.744 699.675 110.84 699.578 110.913C699.482 110.988 699.374 111.016 699.254 110.996C699.133 110.976 699.007 110.917 698.874 110.819L697.064 109.491L695.257 110.819C695.124 110.917 694.998 110.976 694.877 110.996C694.759 111.016 694.651 110.988 694.553 110.913Z" fill="black"/>
<path d="M712.863 110.913C712.768 110.84 712.709 110.744 712.686 110.623C712.666 110.506 712.682 110.37 712.735 110.217L713.45 108.094L711.629 106.788C711.493 106.691 711.398 106.588 711.343 106.48C711.287 106.372 711.281 106.26 711.324 106.145C711.361 106.03 711.433 105.944 711.538 105.889C711.646 105.834 711.782 105.808 711.945 105.81L714.184 105.825L714.861 103.687C714.914 103.529 714.982 103.409 715.065 103.326C715.15 103.241 715.253 103.198 715.373 103.198C715.496 103.198 715.6 103.241 715.686 103.326C715.771 103.409 715.839 103.529 715.889 103.687L716.57 105.825L718.805 105.81C718.969 105.808 719.103 105.835 719.208 105.893C719.316 105.948 719.389 106.032 719.426 106.145C719.466 106.26 719.459 106.372 719.404 106.48C719.351 106.588 719.257 106.691 719.122 106.788L717.3 108.094L718.015 110.217C718.068 110.37 718.084 110.506 718.064 110.623C718.044 110.744 717.985 110.84 717.887 110.913C717.792 110.988 717.684 111.016 717.564 110.996C717.443 110.976 717.316 110.917 717.183 110.819L715.373 109.491L713.567 110.819C713.434 110.917 713.307 110.976 713.187 110.996C713.069 111.016 712.961 110.988 712.863 110.913Z" fill="black"/>
<path d="M717.941 117.865C717.846 117.792 717.787 117.695 717.764 117.575C717.744 117.457 717.761 117.322 717.813 117.169L718.528 115.046L716.707 113.74C716.571 113.642 716.476 113.539 716.421 113.432C716.365 113.324 716.359 113.212 716.402 113.097C716.44 112.981 716.511 112.896 716.616 112.841C716.724 112.786 716.86 112.759 717.023 112.762L719.262 112.777L719.94 110.639C719.992 110.481 720.06 110.361 720.143 110.278C720.228 110.193 720.331 110.15 720.451 110.15C720.574 110.15 720.678 110.193 720.764 110.278C720.849 110.361 720.917 110.481 720.967 110.639L721.648 112.777L723.883 112.762C724.047 112.759 724.181 112.787 724.286 112.845C724.394 112.9 724.467 112.984 724.504 113.097C724.545 113.212 724.537 113.324 724.482 113.432C724.429 113.539 724.335 113.642 724.2 113.74L722.378 115.046L723.093 117.169C723.146 117.322 723.162 117.457 723.142 117.575C723.122 117.695 723.063 117.792 722.965 117.865C722.87 117.94 722.762 117.968 722.642 117.948C722.521 117.928 722.394 117.869 722.261 117.771L720.451 116.442L718.645 117.771C718.512 117.869 718.385 117.928 718.265 117.948C718.147 117.968 718.039 117.94 717.941 117.865Z" fill="black"/>
<path d="M689.476 117.865C689.381 117.792 689.322 117.695 689.299 117.575C689.279 117.457 689.296 117.322 689.348 117.169L690.063 115.046L688.242 113.74C688.106 113.642 688.011 113.539 687.956 113.432C687.901 113.324 687.894 113.212 687.937 113.097C687.975 112.981 688.046 112.896 688.152 112.841C688.259 112.786 688.395 112.759 688.558 112.762L690.797 112.777L691.475 110.639C691.527 110.481 691.595 110.361 691.678 110.278C691.763 110.193 691.866 110.15 691.987 110.15C692.109 110.15 692.213 110.193 692.299 110.278C692.384 110.361 692.452 110.481 692.502 110.639L693.183 112.777L695.419 112.762C695.582 112.759 695.716 112.787 695.821 112.845C695.929 112.9 696.002 112.984 696.04 113.097C696.08 113.212 696.072 113.324 696.017 113.432C695.964 113.539 695.87 113.642 695.735 113.74L693.913 115.046L694.628 117.169C694.681 117.322 694.697 117.457 694.677 117.575C694.657 117.695 694.598 117.792 694.5 117.865C694.405 117.94 694.297 117.968 694.177 117.948C694.056 117.928 693.93 117.869 693.797 117.771L691.987 116.442L690.18 117.771C690.047 117.869 689.92 117.928 689.8 117.948C689.682 117.968 689.574 117.94 689.476 117.865Z" fill="black"/>
<path d="M694.553 133.476C694.458 133.403 694.399 133.307 694.377 133.186C694.356 133.068 694.373 132.933 694.425 132.78L695.141 130.657L693.319 129.352C693.184 129.254 693.088 129.151 693.033 129.043C692.978 128.935 692.972 128.823 693.014 128.708C693.052 128.593 693.123 128.507 693.229 128.452C693.337 128.397 693.472 128.37 693.635 128.373L695.874 128.388L696.552 126.251C696.604 126.092 696.672 125.972 696.755 125.889C696.84 125.804 696.943 125.761 697.064 125.761C697.187 125.761 697.291 125.804 697.376 125.889C697.461 125.972 697.529 126.092 697.579 126.251L698.26 128.388L700.496 128.373C700.659 128.37 700.793 128.398 700.898 128.456C701.006 128.511 701.079 128.595 701.117 128.708C701.157 128.823 701.149 128.935 701.094 129.043C701.041 129.151 700.947 129.254 700.812 129.352L698.99 130.657L699.706 132.78C699.758 132.933 699.775 133.068 699.754 133.186C699.734 133.307 699.675 133.403 699.578 133.476C699.482 133.551 699.374 133.579 699.254 133.559C699.133 133.539 699.007 133.48 698.874 133.382L697.064 132.054L695.257 133.382C695.124 133.48 694.998 133.539 694.877 133.559C694.759 133.579 694.651 133.551 694.553 133.476Z" fill="black"/>
<path d="M712.863 133.476C712.768 133.403 712.709 133.307 712.686 133.186C712.666 133.068 712.682 132.933 712.735 132.78L713.45 130.657L711.629 129.352C711.493 129.254 711.398 129.151 711.343 129.043C711.287 128.935 711.281 128.823 711.324 128.708C711.361 128.593 711.433 128.507 711.538 128.452C711.646 128.397 711.782 128.37 711.945 128.373L714.184 128.388L714.861 126.251C714.914 126.092 714.982 125.972 715.065 125.889C715.15 125.804 715.253 125.761 715.373 125.761C715.496 125.761 715.6 125.804 715.686 125.889C715.771 125.972 715.839 126.092 715.889 126.251L716.57 128.388L718.805 128.373C718.969 128.37 719.103 128.398 719.208 128.456C719.316 128.511 719.389 128.595 719.426 128.708C719.466 128.823 719.459 128.935 719.404 129.043C719.351 129.151 719.257 129.254 719.121 129.352L717.3 130.657L718.015 132.78C718.068 132.933 718.084 133.068 718.064 133.186C718.044 133.307 717.985 133.403 717.887 133.476C717.792 133.551 717.684 133.579 717.563 133.559C717.443 133.539 717.316 133.48 717.183 133.382L715.373 132.054L713.567 133.382C713.434 133.48 713.307 133.539 713.187 133.559C713.069 133.579 712.961 133.551 712.863 133.476Z" fill="black"/>
<path d="M703.859 137.458C703.764 137.385 703.705 137.289 703.682 137.168C703.662 137.05 703.678 136.915 703.731 136.762L704.446 134.639L702.625 133.333C702.489 133.236 702.394 133.133 702.339 133.025C702.283 132.917 702.277 132.805 702.32 132.69C702.357 132.574 702.429 132.489 702.534 132.434C702.642 132.379 702.778 132.352 702.941 132.355L705.18 132.37L705.857 130.232C705.91 130.074 705.978 129.954 706.061 129.871C706.146 129.786 706.249 129.743 706.369 129.743C706.492 129.743 706.596 129.786 706.682 129.871C706.767 129.954 706.835 130.074 706.885 130.232L707.566 132.37L709.801 132.355C709.965 132.352 710.099 132.38 710.204 132.438C710.312 132.493 710.385 132.577 710.422 132.69C710.463 132.805 710.455 132.917 710.4 133.025C710.347 133.133 710.253 133.236 710.118 133.333L708.296 134.639L709.011 136.762C709.064 136.915 709.08 137.05 709.06 137.168C709.04 137.289 708.981 137.385 708.883 137.458C708.788 137.533 708.68 137.561 708.56 137.541C708.439 137.521 708.312 137.462 708.179 137.364L706.369 136.035L704.563 137.364C704.43 137.462 704.303 137.521 704.183 137.541C704.065 137.561 703.957 137.533 703.859 137.458Z" fill="black"/>
<path d="M717.941 126.517C717.846 126.444 717.787 126.347 717.764 126.227C717.744 126.109 717.761 125.974 717.813 125.821L718.528 123.698L716.707 122.392C716.571 122.294 716.476 122.191 716.421 122.083C716.365 121.976 716.359 121.864 716.402 121.749C716.44 121.633 716.511 121.548 716.616 121.493C716.724 121.437 716.86 121.411 717.023 121.414L719.262 121.429L719.94 119.291C719.992 119.133 720.06 119.013 720.143 118.93C720.228 118.845 720.331 118.802 720.451 118.802C720.574 118.802 720.678 118.845 720.764 118.93C720.849 119.013 720.917 119.133 720.967 119.291L721.648 121.429L723.883 121.414C724.047 121.411 724.181 121.439 724.286 121.496C724.394 121.552 724.467 121.636 724.504 121.749C724.545 121.864 724.537 121.976 724.482 122.083C724.429 122.191 724.335 122.294 724.2 122.392L722.378 123.698L723.093 125.821C723.146 125.974 723.162 126.109 723.142 126.227C723.122 126.347 723.063 126.444 722.965 126.517C722.87 126.592 722.762 126.62 722.642 126.6C722.521 126.579 722.394 126.521 722.261 126.423L720.451 125.094L718.645 126.423C718.512 126.521 718.385 126.579 718.265 126.6C718.147 126.62 718.039 126.592 717.941 126.517Z" fill="black"/>
<path d="M689.476 126.517C689.381 126.444 689.322 126.347 689.299 126.227C689.279 126.109 689.296 125.974 689.348 125.821L690.063 123.698L688.242 122.392C688.106 122.294 688.011 122.191 687.956 122.083C687.901 121.976 687.894 121.864 687.937 121.749C687.975 121.633 688.046 121.548 688.152 121.493C688.259 121.437 688.395 121.411 688.558 121.414L690.797 121.429L691.475 119.291C691.527 119.133 691.595 119.013 691.678 118.93C691.763 118.845 691.866 118.802 691.987 118.802C692.109 118.802 692.213 118.845 692.299 118.93C692.384 119.013 692.452 119.133 692.502 119.291L693.183 121.429L695.419 121.414C695.582 121.411 695.716 121.439 695.821 121.496C695.929 121.552 696.002 121.636 696.04 121.749C696.08 121.864 696.072 121.976 696.017 122.083C695.964 122.191 695.87 122.294 695.735 122.392L693.913 123.698L694.628 125.821C694.681 125.974 694.697 126.109 694.677 126.227C694.657 126.347 694.598 126.444 694.5 126.517C694.405 126.592 694.297 126.62 694.177 126.6C694.056 126.579 693.93 126.521 693.797 126.423L691.987 125.094L690.18 126.423C690.047 126.521 689.92 126.579 689.8 126.6C689.682 126.62 689.574 126.592 689.476 126.517Z" fill="black"/>
</g>
</svg>
