<svg xmlns="http://www.w3.org/2000/svg" xmlns:xlink="http://www.w3.org/1999/xlink" fill="none" viewBox="819.279 100.475 96.721 36.754" width="96.721" height="36.754">
<defs><clipPath id="clip6_8618_527">
<rect width="96.7206" height="36.7538" fill="white" transform="translate(819.279 100.475)"/>
</clipPath></defs>
<g clip-path="url(#clip6_8618_527)">
<path d="M913.745 129.397C913.439 129.397 913.163 129.343 912.917 129.233C912.674 129.122 912.481 128.959 912.338 128.742C912.197 128.526 912.127 128.26 912.127 127.943C912.127 127.67 912.177 127.445 912.278 127.266C912.379 127.088 912.516 126.945 912.69 126.838C912.865 126.731 913.061 126.65 913.279 126.596C913.499 126.539 913.727 126.498 913.962 126.473C914.245 126.444 914.475 126.417 914.651 126.394C914.828 126.369 914.956 126.331 915.035 126.281C915.117 126.229 915.158 126.148 915.158 126.039V126.02C915.158 125.783 915.088 125.599 914.947 125.469C914.807 125.339 914.604 125.274 914.34 125.274C914.061 125.274 913.839 125.335 913.676 125.456C913.514 125.578 913.405 125.722 913.348 125.888L912.284 125.736C912.368 125.443 912.507 125.197 912.7 125C912.893 124.801 913.129 124.652 913.408 124.553C913.687 124.452 913.996 124.402 914.334 124.402C914.566 124.402 914.798 124.429 915.029 124.484C915.26 124.538 915.471 124.628 915.662 124.754C915.853 124.878 916.006 125.047 916.121 125.261C916.239 125.475 916.298 125.743 916.298 126.064V129.3H915.202V128.635H915.165C915.095 128.77 914.998 128.896 914.872 129.013C914.748 129.129 914.592 129.222 914.403 129.293C914.216 129.363 913.997 129.397 913.745 129.397ZM914.041 128.56C914.27 128.56 914.468 128.515 914.636 128.425C914.804 128.332 914.933 128.21 915.023 128.059C915.115 127.908 915.161 127.744 915.161 127.565V126.995C915.126 127.025 915.065 127.052 914.979 127.077C914.895 127.103 914.8 127.125 914.696 127.143C914.591 127.162 914.487 127.179 914.384 127.194C914.281 127.208 914.192 127.221 914.116 127.232C913.946 127.255 913.794 127.292 913.66 127.345C913.526 127.397 913.42 127.471 913.342 127.565C913.264 127.658 913.226 127.777 913.226 127.924C913.226 128.134 913.302 128.292 913.455 128.399C913.608 128.506 913.804 128.56 914.041 128.56Z" fill="black"/>
<path d="M910.962 122.853V129.299H909.794V122.853H910.962Z" fill="black"/>
<path d="M908.352 122.853V129.299H907.185V122.853H908.352Z" fill="black"/>
<path d="M900.629 129.393C900.188 129.393 899.809 129.313 899.492 129.154C899.175 128.994 898.931 128.779 898.759 128.508C898.589 128.236 898.504 127.928 898.504 127.586C898.504 127.328 898.556 127.099 898.661 126.9C898.768 126.701 898.915 126.516 899.102 126.346C899.291 126.176 899.509 126.007 899.757 125.839L900.899 125.062C901.067 124.953 901.194 124.837 901.28 124.716C901.368 124.594 901.412 124.451 901.412 124.287C901.412 124.149 901.354 124.018 901.236 123.894C901.121 123.77 900.961 123.708 900.758 123.708C900.621 123.708 900.501 123.741 900.396 123.806C900.293 123.869 900.212 123.952 900.153 124.055C900.097 124.157 900.068 124.266 900.068 124.382C900.068 124.522 900.107 124.665 900.185 124.81C900.265 124.955 900.367 125.105 900.493 125.26C900.621 125.415 900.758 125.58 900.902 125.754L903.927 129.298H902.694L900.182 126.422C899.995 126.203 899.814 125.988 899.64 125.776C899.468 125.564 899.327 125.344 899.215 125.115C899.106 124.884 899.052 124.635 899.052 124.366C899.052 124.062 899.122 123.79 899.263 123.551C899.403 123.31 899.599 123.12 899.851 122.981C900.105 122.843 900.402 122.773 900.742 122.773C901.082 122.773 901.374 122.841 901.617 122.975C901.86 123.109 902.048 123.288 902.18 123.51C902.313 123.732 902.379 123.975 902.379 124.237C902.379 124.541 902.303 124.814 902.152 125.055C902.001 125.295 901.791 125.512 901.523 125.707L900.219 126.661C900.005 126.816 899.852 126.973 899.76 127.133C899.668 127.29 899.621 127.425 899.621 127.536C899.621 127.706 899.664 127.86 899.75 127.998C899.836 128.137 899.957 128.248 900.112 128.332C900.27 128.414 900.453 128.455 900.663 128.455C900.894 128.455 901.122 128.403 901.346 128.301C901.571 128.196 901.775 128.047 901.96 127.854C902.145 127.661 902.292 127.43 902.401 127.161C902.51 126.891 902.564 126.59 902.564 126.261H903.543C903.543 126.668 903.498 127.023 903.408 127.325C903.318 127.625 903.201 127.879 903.059 128.087C902.916 128.292 902.765 128.457 902.605 128.581C902.555 128.616 902.507 128.652 902.461 128.688C902.414 128.723 902.366 128.759 902.316 128.795C902.089 129 901.824 129.152 901.519 129.248C901.217 129.345 900.92 129.393 900.629 129.393Z" fill="black"/>
<path d="M894.932 122.853V129.299H893.765V122.853H894.932Z" fill="black"/>
<path d="M890.121 125.743L889.083 125.856C889.053 125.751 889.002 125.653 888.928 125.56C888.857 125.468 888.76 125.393 888.639 125.337C888.517 125.28 888.368 125.252 888.192 125.252C887.955 125.252 887.755 125.303 887.594 125.406C887.434 125.509 887.356 125.642 887.358 125.806C887.356 125.946 887.407 126.061 887.512 126.149C887.619 126.237 887.795 126.309 888.041 126.366L888.865 126.542C889.323 126.641 889.663 126.797 889.885 127.011C890.11 127.225 890.223 127.505 890.225 127.852C890.223 128.156 890.134 128.425 889.958 128.657C889.783 128.888 889.541 129.069 889.231 129.199C888.92 129.329 888.563 129.394 888.16 129.394C887.569 129.394 887.092 129.27 886.731 129.023C886.37 128.773 886.155 128.426 886.086 127.981L887.197 127.874C887.247 128.092 887.354 128.257 887.518 128.368C887.682 128.479 887.895 128.535 888.157 128.535C888.428 128.535 888.645 128.479 888.809 128.368C888.975 128.257 889.057 128.119 889.057 127.956C889.057 127.817 889.004 127.703 888.897 127.612C888.792 127.522 888.628 127.453 888.406 127.405L887.581 127.232C887.117 127.135 886.774 126.972 886.552 126.744C886.329 126.513 886.219 126.221 886.221 125.869C886.219 125.571 886.3 125.313 886.464 125.094C886.629 124.874 886.859 124.704 887.153 124.584C887.449 124.463 887.79 124.402 888.176 124.402C888.743 124.402 889.189 124.523 889.514 124.764C889.841 125.005 890.044 125.331 890.121 125.743Z" fill="black"/>
<path d="M885.077 125.743L884.039 125.856C884.009 125.751 883.958 125.653 883.884 125.56C883.813 125.468 883.717 125.393 883.595 125.337C883.473 125.28 883.324 125.252 883.148 125.252C882.911 125.252 882.711 125.303 882.55 125.406C882.39 125.509 882.312 125.642 882.314 125.806C882.312 125.946 882.363 126.061 882.468 126.149C882.575 126.237 882.751 126.309 882.997 126.366L883.821 126.542C884.279 126.641 884.619 126.797 884.841 127.011C885.066 127.225 885.179 127.505 885.181 127.852C885.179 128.156 885.09 128.425 884.914 128.657C884.74 128.888 884.497 129.069 884.187 129.199C883.876 129.329 883.519 129.394 883.116 129.394C882.525 129.394 882.048 129.27 881.687 129.023C881.326 128.773 881.111 128.426 881.042 127.981L882.153 127.874C882.204 128.092 882.311 128.257 882.474 128.368C882.638 128.479 882.851 128.535 883.113 128.535C883.384 128.535 883.601 128.479 883.765 128.368C883.931 128.257 884.013 128.119 884.013 127.956C884.013 127.817 883.96 127.703 883.853 127.612C883.748 127.522 883.584 127.453 883.362 127.405L882.537 127.232C882.073 127.135 881.73 126.972 881.508 126.744C881.285 126.513 881.175 126.221 881.177 125.869C881.175 125.571 881.256 125.313 881.42 125.094C881.586 124.874 881.815 124.704 882.109 124.584C882.405 124.463 882.746 124.402 883.132 124.402C883.699 124.402 884.145 124.523 884.47 124.764C884.797 125.005 885 125.331 885.077 125.743Z" fill="black"/>
<path d="M877.382 129.397C877.075 129.397 876.799 129.343 876.554 129.233C876.31 129.122 876.117 128.959 875.975 128.742C875.834 128.526 875.764 128.26 875.764 127.943C875.764 127.67 875.814 127.445 875.915 127.266C876.015 127.088 876.153 126.945 876.327 126.838C876.501 126.731 876.698 126.65 876.916 126.596C877.136 126.539 877.364 126.498 877.599 126.473C877.882 126.444 878.112 126.417 878.288 126.394C878.464 126.369 878.592 126.331 878.672 126.281C878.754 126.229 878.795 126.148 878.795 126.039V126.02C878.795 125.783 878.725 125.599 878.584 125.469C878.443 125.339 878.241 125.274 877.977 125.274C877.697 125.274 877.476 125.335 877.312 125.456C877.151 125.578 877.042 125.722 876.985 125.888L875.921 125.736C876.005 125.443 876.143 125.197 876.337 125C876.53 124.801 876.766 124.652 877.045 124.553C877.324 124.452 877.632 124.402 877.97 124.402C878.203 124.402 878.435 124.429 878.666 124.484C878.897 124.538 879.108 124.628 879.299 124.754C879.49 124.878 879.643 125.047 879.758 125.261C879.876 125.475 879.934 125.743 879.934 126.064V129.3H878.839V128.635H878.801C878.732 128.77 878.634 128.896 878.509 129.013C878.385 129.129 878.228 129.222 878.039 129.293C877.853 129.363 877.633 129.397 877.382 129.397ZM877.677 128.56C877.906 128.56 878.105 128.515 878.272 128.425C878.44 128.332 878.569 128.21 878.66 128.059C878.752 127.908 878.798 127.744 878.798 127.565V126.995C878.762 127.025 878.702 127.052 878.616 127.077C878.532 127.103 878.437 127.125 878.332 127.143C878.227 127.162 878.123 127.179 878.021 127.194C877.918 127.208 877.829 127.221 877.753 127.232C877.583 127.255 877.431 127.292 877.297 127.345C877.162 127.397 877.056 127.471 876.979 127.565C876.901 127.658 876.862 127.777 876.862 127.924C876.862 128.134 876.939 128.292 877.092 128.399C877.245 128.506 877.44 128.56 877.677 128.56Z" fill="black"/>
<path d="M874.638 122.853V129.299H873.498V122.853H874.638Z" fill="black"/>
<path d="M872.304 125.029H871.126C871.093 124.836 871.031 124.665 870.941 124.516C870.851 124.365 870.738 124.237 870.604 124.132C870.47 124.027 870.316 123.949 870.144 123.896C869.974 123.842 869.791 123.814 869.594 123.814C869.243 123.814 868.933 123.902 868.662 124.079C868.391 124.253 868.179 124.509 868.026 124.847C867.873 125.182 867.796 125.593 867.796 126.077C867.796 126.571 867.873 126.986 868.026 127.324C868.181 127.66 868.393 127.914 868.662 128.086C868.933 128.256 869.242 128.341 869.59 128.341C869.783 128.341 869.964 128.315 870.132 128.265C870.302 128.213 870.454 128.136 870.588 128.035C870.725 127.935 870.839 127.811 870.931 127.664C871.026 127.517 871.091 127.349 871.126 127.16L872.304 127.166C872.26 127.473 872.164 127.76 872.017 128.029C871.873 128.298 871.683 128.535 871.448 128.74C871.213 128.944 870.938 129.103 870.623 129.219C870.308 129.332 869.959 129.389 869.575 129.389C869.008 129.389 868.502 129.258 868.057 128.995C867.613 128.733 867.262 128.354 867.006 127.859C866.75 127.364 866.622 126.77 866.622 126.077C866.622 125.383 866.751 124.789 867.009 124.296C867.267 123.801 867.619 123.422 868.064 123.16C868.509 122.897 869.012 122.766 869.575 122.766C869.933 122.766 870.267 122.816 870.576 122.917C870.884 123.018 871.159 123.166 871.4 123.361C871.642 123.554 871.84 123.791 871.995 124.072C872.153 124.351 872.255 124.67 872.304 125.029Z" fill="black"/>
<path d="M888.541 118.396H887.295L889.564 111.949H891.006L893.279 118.396H892.032L890.31 113.271H890.26L888.541 118.396ZM888.582 115.868H891.982V116.806H888.582V115.868Z" fill="black"/>
<path d="M881.772 118.396V111.949H884.19C884.685 111.949 885.101 112.035 885.436 112.207C885.774 112.379 886.029 112.621 886.201 112.931C886.376 113.24 886.463 113.6 886.463 114.011C886.463 114.424 886.374 114.783 886.198 115.087C886.024 115.39 885.767 115.624 885.427 115.789C885.087 115.953 884.669 116.035 884.174 116.035H882.452V115.065H884.017C884.306 115.065 884.544 115.025 884.728 114.946C884.913 114.864 885.049 114.745 885.137 114.59C885.228 114.433 885.273 114.24 885.273 114.011C885.273 113.782 885.228 113.587 885.137 113.425C885.047 113.262 884.91 113.138 884.725 113.054C884.54 112.968 884.302 112.925 884.011 112.925H882.94V118.396H881.772ZM885.103 115.475L886.699 118.396H885.396L883.828 115.475H885.103Z" fill="black"/>
<path d="M874.995 118.396V111.949H876.163V114.678H879.15V111.949H880.321V118.396H879.15V115.657H876.163V118.396H874.995Z" fill="black"/>
<path d="M866.786 111.949H868.215L870.129 116.62H870.205L872.118 111.949H873.547V118.396H872.427V113.967H872.367L870.585 118.377H869.748L867.967 113.957H867.907V118.396H866.786V111.949Z" fill="black"/>
<path d="M837.275 116.938C838.436 116.68 839.585 117.415 839.836 118.577C840.087 119.739 839.345 120.883 838.182 121.128C837.028 121.37 835.896 120.635 835.647 119.483C835.397 118.332 836.125 117.195 837.275 116.938Z" fill="black"/>
<path d="M854.113 115.071C854.795 114.924 855.504 115.155 855.969 115.677C856.433 116.198 856.581 116.928 856.356 117.589C856.131 118.25 855.568 118.739 854.882 118.869C853.84 119.066 852.834 118.389 852.623 117.35C852.413 116.311 853.077 115.295 854.113 115.071Z" fill="black"/>
<path d="M829.593 102.123C830.643 102.022 831.582 102.779 831.704 103.827C831.826 104.875 831.087 105.828 830.041 105.971C829.347 106.065 828.655 105.777 828.233 105.217C827.811 104.658 827.724 103.914 828.006 103.272C828.288 102.63 828.895 102.191 829.593 102.123Z" fill="black"/>
<path d="M833.593 133.702C834.634 133.52 835.629 134.207 835.828 135.245C836.028 136.282 835.358 137.289 834.324 137.506C833.639 137.649 832.93 137.412 832.469 136.886C832.008 136.359 831.867 135.625 832.1 134.965C832.333 134.305 832.904 133.822 833.593 133.702Z" fill="black"/>
<path d="M848.571 129.789C849.607 129.526 850.659 130.15 850.924 131.185C851.189 132.219 850.566 133.273 849.532 133.54C848.496 133.808 847.438 133.183 847.172 132.146C846.907 131.108 847.534 130.052 848.571 129.789Z" fill="black"/>
<path d="M851.458 107.365C852.512 107.302 853.422 108.096 853.503 109.149C853.583 110.202 852.804 111.125 851.752 111.222C851.057 111.287 850.381 110.971 849.983 110.397C849.586 109.822 849.529 109.078 849.835 108.45C850.14 107.822 850.761 107.407 851.458 107.365Z" fill="black"/>
<path d="M820.74 115.323C821.803 115.226 822.743 116.009 822.841 117.071C822.939 118.134 822.158 119.075 821.095 119.174C820.031 119.274 819.088 118.491 818.99 117.426C818.892 116.362 819.676 115.42 820.74 115.323Z" fill="black"/>
<path d="M823.524 107.618C824.59 107.53 825.524 108.322 825.611 109.388C825.698 110.453 824.904 111.386 823.839 111.472C822.775 111.557 821.844 110.765 821.757 109.702C821.671 108.639 822.461 107.706 823.524 107.618Z" fill="black"/>
<path d="M821.713 123.195C822.759 123.086 823.7 123.831 823.832 124.874C823.965 125.917 823.239 126.874 822.2 127.029C821.507 127.132 820.813 126.852 820.385 126.298C819.957 125.743 819.863 125 820.138 124.357C820.414 123.713 821.017 123.268 821.713 123.195Z" fill="black"/>
<path d="M837.424 100.183C838.471 100.012 839.46 100.717 839.639 101.762C839.819 102.807 839.122 103.802 838.078 103.99C837.022 104.18 836.013 103.473 835.832 102.416C835.65 101.359 836.365 100.356 837.424 100.183Z" fill="black"/>
<path d="M826.359 129.94C827.411 129.793 828.385 130.523 828.538 131.574C828.692 132.626 827.967 133.604 826.917 133.763C825.858 133.923 824.87 133.192 824.716 132.132C824.561 131.072 825.298 130.089 826.359 129.94Z" fill="black"/>
<path d="M853.239 122.965C854.284 122.748 855.308 123.421 855.522 124.467C855.736 125.514 855.06 126.535 854.013 126.747C852.97 126.958 851.953 126.285 851.74 125.242C851.526 124.2 852.197 123.181 853.239 122.965Z" fill="black"/>
<path d="M841.412 133.64C842.453 133.417 843.478 134.082 843.7 135.123C843.922 136.164 843.257 137.188 842.215 137.41C841.175 137.63 840.152 136.966 839.93 135.926C839.709 134.886 840.372 133.863 841.412 133.64Z" fill="black"/>
<path d="M844.927 102.072C845.597 101.901 846.308 102.104 846.786 102.603C847.265 103.102 847.438 103.82 847.24 104.483C847.041 105.146 846.501 105.65 845.827 105.804C844.803 106.037 843.781 105.404 843.534 104.382C843.288 103.361 843.908 102.331 844.927 102.072Z" fill="black"/>
<path d="M840.154 128.316C840.777 128.206 841.411 128.442 841.81 128.934C842.209 129.425 842.31 130.094 842.075 130.681C841.839 131.269 841.304 131.682 840.676 131.762C839.737 131.881 838.875 131.229 838.733 130.294C838.591 129.358 839.222 128.48 840.154 128.316Z" fill="black"/>
<path d="M826.816 121.394C827.747 121.197 828.663 121.782 828.875 122.709C829.086 123.637 828.514 124.562 827.59 124.787C826.98 124.935 826.338 124.744 825.909 124.286C825.479 123.828 825.33 123.174 825.518 122.575C825.706 121.976 826.203 121.525 826.816 121.394Z" fill="black"/>
<path d="M837.517 105.977C838.462 105.86 839.325 106.525 839.452 107.469C839.579 108.413 838.922 109.283 837.98 109.419C837.361 109.509 836.743 109.26 836.36 108.766C835.976 108.273 835.887 107.612 836.127 107.035C836.366 106.458 836.897 106.054 837.517 105.977Z" fill="black"/>
<path d="M842.409 107.269C843.332 107.025 844.278 107.572 844.527 108.494C844.775 109.415 844.233 110.364 843.313 110.618C842.386 110.873 841.428 110.326 841.178 109.398C840.927 108.47 841.479 107.515 842.409 107.269Z" fill="black"/>
<path d="M832.199 107.304C833.142 107.169 834.018 107.82 834.16 108.763C834.302 109.705 833.657 110.586 832.715 110.734C831.765 110.884 830.874 110.231 830.731 109.279C830.587 108.327 831.246 107.441 832.199 107.304Z" fill="black"/>
<path d="M826.18 116.137C827.115 115.955 828.021 116.561 828.21 117.494C828.4 118.427 827.801 119.338 826.869 119.535C825.927 119.733 825.003 119.126 824.812 118.183C824.621 117.239 825.235 116.321 826.18 116.137Z" fill="black"/>
<path d="M848.023 121.202C848.587 121.101 849.164 121.285 849.566 121.694C849.967 122.103 850.14 122.684 850.028 123.245C849.895 123.918 849.377 124.448 848.708 124.598C848.095 124.736 847.456 124.531 847.037 124.063C846.618 123.595 846.485 122.937 846.691 122.343C846.895 121.749 847.405 121.313 848.023 121.202Z" fill="black"/>
<path d="M846.861 110.804C847.805 110.746 848.62 111.456 848.693 112.399C848.766 113.342 848.068 114.169 847.126 114.256C846.504 114.314 845.898 114.032 845.543 113.518C845.186 113.004 845.135 112.338 845.408 111.775C845.682 111.213 846.237 110.842 846.861 110.804Z" fill="black"/>
<path d="M845.038 125.745C845.972 125.612 846.84 126.252 846.989 127.183C847.138 128.114 846.512 128.993 845.583 129.157C844.969 129.266 844.343 129.035 843.947 128.552C843.551 128.07 843.446 127.411 843.672 126.83C843.898 126.248 844.42 125.833 845.038 125.745Z" fill="black"/>
<path d="M834.972 128.371C835.905 128.237 836.773 128.874 836.924 129.804C837.075 130.734 836.453 131.613 835.526 131.781C834.912 131.892 834.285 131.663 833.887 131.181C833.489 130.7 833.382 130.041 833.607 129.458C833.832 128.876 834.354 128.46 834.972 128.371Z" fill="black"/>
<path d="M848.649 115.932C849.577 115.777 850.459 116.392 850.632 117.317C850.806 118.241 850.207 119.134 849.286 119.326C848.675 119.453 848.042 119.24 847.632 118.768C847.222 118.296 847.098 117.64 847.31 117.052C847.52 116.464 848.033 116.036 848.649 115.932Z" fill="black"/>
<path d="M827.949 111.005C828.872 110.769 829.812 111.327 830.046 112.251C830.28 113.175 829.719 114.113 828.795 114.345C827.874 114.576 826.94 114.017 826.706 113.097C826.473 112.176 827.029 111.241 827.949 111.005Z" fill="black"/>
<path d="M830.117 125.883C831.058 125.774 831.909 126.446 832.02 127.386C832.132 128.326 831.462 129.179 830.523 129.294C829.579 129.409 828.721 128.736 828.609 127.792C828.497 126.847 829.173 125.992 830.117 125.883Z" fill="black"/>
<path d="M841.99 113.861C842.827 113.714 843.624 114.275 843.767 115.113C843.91 115.951 843.344 116.745 842.505 116.883C841.673 117.021 840.887 116.46 840.745 115.629C840.603 114.798 841.159 114.008 841.99 113.861Z" fill="black"/>
<path d="M837.362 111.694C837.898 111.563 838.463 111.732 838.841 112.135C839.218 112.538 839.349 113.113 839.183 113.64C839.018 114.166 838.582 114.563 838.042 114.678C837.223 114.852 836.417 114.337 836.231 113.521C836.045 112.705 836.549 111.891 837.362 111.694Z" fill="black"/>
<path d="M840.003 122.826C840.543 122.724 841.097 122.921 841.452 123.341C841.807 123.761 841.909 124.34 841.719 124.856C841.529 125.372 841.076 125.746 840.533 125.836C839.707 125.972 838.925 125.418 838.779 124.593C838.634 123.768 839.179 122.98 840.003 122.826Z" fill="black"/>
<path d="M832.677 113.983C833.481 113.725 834.342 114.17 834.598 114.975C834.854 115.78 834.407 116.64 833.601 116.893C832.798 117.146 831.942 116.701 831.687 115.899C831.432 115.097 831.875 114.24 832.677 113.983Z" fill="black"/>
<path d="M831.65 118.882C832.463 118.654 833.306 119.13 833.53 119.944C833.754 120.758 833.273 121.598 832.457 121.818C831.649 122.035 830.816 121.559 830.594 120.751C830.372 119.943 830.844 119.108 831.65 118.882Z" fill="black"/>
<path d="M843.184 118.745C844.013 118.615 844.791 119.179 844.924 120.007C845.057 120.835 844.495 121.615 843.667 121.75C842.836 121.886 842.053 121.322 841.919 120.49C841.785 119.659 842.352 118.877 843.184 118.745Z" fill="black"/>
<path d="M834.942 122.869C835.759 122.69 836.568 123.206 836.75 124.022C836.931 124.839 836.419 125.649 835.603 125.834C834.783 126.019 833.968 125.504 833.785 124.683C833.602 123.862 834.121 123.049 834.942 122.869Z" fill="black"/>
</g>
</svg>
