<svg width="199.55" height="40.64" xmlns="http://www.w3.org/2000/svg" viewBox="0 5.18 199.55 40.64" fill="none">
<g transform="translate(0,5.18)"><g id="Group">
<path id="Vector" d="M44.3843 12.8014C44.3767 12.7938 38.6507 5.48778 31.417 8.91425C30.2178 9.48152 29.1974 10.1592 28.3104 10.9244C31.1505 13.3534 33.2864 15.969 34.5541 18.6492L35.03 19.8599C37.1354 16.1517 39.6215 13.8484 48.458 13.0146C58.3872 12.078 63.1119 13.7418 63.3479 13.5704C60.9723 11.9486 49.722 11.7773 44.3843 12.8014Z" fill="var(--fill-0, black)"/>
<path id="Vector_2" d="M15.4649 36.2353C15.7618 35.847 16.0017 35.4434 16.0778 35.036C16.1616 34.6287 16.1235 34.2137 15.9446 33.7797C15.7695 33.3494 15.4611 32.9307 15.1108 32.5347C15.0575 32.4776 14.9928 32.4243 14.9357 32.3672C12.4496 36.6769 8.84417 40.2024 8.39111 40.6402C8.41776 40.6326 8.44822 40.6212 8.47487 40.6136C9.01549 40.3775 9.5485 40.1377 10.0777 39.8902C11.1094 39.4029 12.1069 38.8661 13.0435 38.2759C13.9686 37.6782 14.8671 37.0158 15.4649 36.2353Z" fill="var(--fill-0, black)"/>
<path id="Vector_3" d="M0 0C0.0761439 0.0266503 0.182745 0.0685295 0.31219 0.118023C0.209396 0.079951 0.114216 0.0418791 0.0114216 0.00380719C4.37066 2.95057 7.59154 8.03698 8.70324 14.0828C10.7211 14.7909 13.2643 15.9103 15.9255 17.7034C16.211 17.8672 16.5004 18.0271 16.7821 18.1984C17.8062 18.8342 18.7999 19.5233 19.7631 20.2657C20.7149 21.0233 21.6287 21.8381 22.4815 22.7327C23.3267 23.6351 24.111 24.6135 24.7658 25.7062C25.3559 26.7113 25.847 27.8192 26.1059 29.0146C26.2811 29.7228 26.3458 30.4347 26.262 31.139C26.2125 31.9043 26.0526 32.6619 25.7519 33.351C25.2455 34.6112 24.4193 35.6429 23.5246 36.5262C22.333 37.6608 21.0043 38.5516 19.6185 39.294C20.0068 39.176 20.4104 39.0466 20.8253 38.9019C20.3837 39.0618 19.9573 39.2027 19.5461 39.3321C19.4928 39.3626 19.4395 39.3892 19.3862 39.4159C27.5336 37.1582 33.1797 32.8294 34.2495 27.0615C36.2902 16.0664 20.9776 3.98232 0 0ZM24.1376 37.3981C24.111 37.4133 24.0881 37.4285 24.0615 37.4437C24.0881 37.4285 24.1148 37.4133 24.1376 37.3981ZM24.7962 37.0059C24.7011 37.0668 24.6059 37.1239 24.5069 37.181C24.6021 37.1239 24.6973 37.0668 24.7962 37.0059Z" fill="var(--fill-0, black)"/>
<path id="Vector_4" d="M24.0998 31.4419C24.6594 26.5687 17.8712 21.7869 15.7697 20.3097C13.3292 18.5888 10.9536 17.5457 9.05377 16.8984C9.09565 17.5038 9.1223 18.1129 9.1223 18.7297C9.1223 21.0102 8.82534 23.207 8.2771 25.2705C14.6389 28.5028 19.1124 32.1767 18.5679 35.0892C17.8941 38.706 11.2467 40.5716 11.2734 40.6249C11.3076 40.6896 23.3878 37.5981 24.0998 31.4419Z" fill="var(--fill-0, black)"/>
</g></g>
<g transform="translate(38.41,25.36)"><g id="Group">
<path id="Vector" d="M14.1056 15.2121H4.35543L2.65361 19.4799H0L7.7286 0.242188H10.6982L18.4573 19.4799H15.8037L14.1056 15.2121ZM5.05215 13.08H13.3861L9.23244 2.37802L5.05215 13.08Z" fill="var(--fill-0, black)"/>
<path id="Vector_2" d="M29.8257 17.405C28.7863 18.8175 27.0845 19.8264 25.1238 19.8264C21.4879 19.8264 18.9219 17.0586 18.9219 12.528C18.9219 8.085 21.4613 5.20296 25.1238 5.20296C26.9969 5.20296 28.6987 6.1243 29.8257 7.65479V0.242188H31.9882V19.4799H29.8257V17.405ZM29.8257 9.38706C29.0452 8.17638 27.3738 7.13701 25.6416 7.13701C22.8433 7.13701 21.1719 9.44417 21.1719 12.5318C21.1719 15.6194 22.8433 17.8961 25.6416 17.8961C27.3738 17.8961 29.0452 16.9139 29.8257 15.7032V9.38706Z" fill="var(--fill-0, black)"/>
<path id="Vector_3" d="M33.6594 5.54688H35.997L40.6418 16.9685L45.2561 5.54688H47.6204L41.822 19.4774H39.4578L33.6594 5.54688Z" fill="var(--fill-0, black)"/>
<path id="Vector_4" d="M57.424 17.8925C56.2705 19.1603 54.6829 19.8266 52.8097 19.8266C50.4455 19.8266 47.9365 18.239 47.9365 15.2122C47.9365 12.098 50.4455 10.6246 52.8097 10.6246C54.7133 10.6246 56.3009 11.2299 57.424 12.5282V10.0192C57.424 8.14608 55.924 7.07626 53.9062 7.07626C52.2348 7.07626 50.8795 7.68161 49.6383 9.01032L48.6294 7.51028C50.1295 5.95314 51.9188 5.20312 54.1955 5.20312C57.1385 5.20312 59.5903 6.52803 59.5903 9.90501V19.4801H57.4279V17.8925H57.424ZM57.424 13.9102C56.5865 12.7566 55.1169 12.1779 53.5864 12.1779C51.5686 12.1779 50.1523 13.4457 50.1523 15.2351C50.1523 16.994 51.5648 18.2618 53.5864 18.2618C55.1169 18.2618 56.5865 17.6869 57.424 16.5295V13.9102Z" fill="var(--fill-0, black)"/>
<path id="Vector_5" d="M71.0081 10.3695C71.0081 7.91765 69.767 7.13718 67.8938 7.13718C66.192 7.13718 64.5778 8.17654 63.7706 9.29966V19.4801H61.6082V5.54958H63.7706V7.56739C64.7529 6.41381 66.6565 5.20312 68.7314 5.20312C71.6439 5.20312 73.1744 6.6727 73.1744 9.70323V19.4801H71.0119V10.3695H71.0081Z" fill="var(--fill-0, black)"/>
<path id="Vector_6" d="M81.9117 5.20312C84.4511 5.20312 85.9511 6.24249 87.0171 7.6245L85.5742 8.9494C84.6528 7.68161 83.4688 7.13337 82.0259 7.13337C79.0563 7.13337 77.2098 9.41007 77.2098 12.4977C77.2098 15.5853 79.0563 17.8925 82.0259 17.8925C83.4688 17.8925 84.649 17.3176 85.5742 16.0765L87.0171 17.4014C85.9511 18.7872 84.4511 19.8227 81.9117 19.8227C77.758 19.8227 74.9597 16.6514 74.9597 12.4977C74.9597 8.37452 77.758 5.20312 81.9117 5.20312Z" fill="var(--fill-0, black)"/>
<path id="Vector_7" d="M94.369 5.20312C98.5798 5.20312 101.062 8.49254 101.062 12.6728V13.2211H89.7851C89.9565 15.8442 91.803 18.0372 94.803 18.0372C96.3906 18.0372 98.0049 17.4014 99.1013 16.2782L100.141 17.6907C98.7549 19.0765 96.8817 19.8266 94.6012 19.8266C90.4781 19.8266 87.5046 16.8569 87.5046 12.5015C87.5046 8.46208 90.3905 5.20312 94.369 5.20312ZM89.7851 11.6335H98.93C98.8996 9.55855 97.5176 6.9887 94.3424 6.9887C91.3727 6.9887 89.8994 9.49764 89.7851 11.6335Z" fill="var(--fill-0, black)"/>
<path id="Vector_8" d="M113.492 17.405C112.453 18.8175 110.751 19.8264 108.791 19.8264C105.155 19.8264 102.589 17.0586 102.589 12.528C102.589 8.085 105.128 5.20296 108.791 5.20296C110.664 5.20296 112.365 6.1243 113.492 7.65479V0.242188H115.655V19.4799H113.492V17.405ZM113.492 9.38706C112.712 8.17638 111.041 7.13701 109.308 7.13701C106.51 7.13701 104.839 9.44417 104.839 12.5318C104.839 15.6194 106.51 17.8961 109.308 17.8961C111.041 17.8961 112.712 16.9139 113.492 15.7032V9.38706Z" fill="var(--fill-0, black)"/>
<path id="Vector_9" d="M127.819 19.4821L124.111 7.45519L122.466 19.4821H117.726L120.338 0.328125H126.079L130.077 13.2916L133.85 0.328125H139.621L142.233 19.4821H137.459L135.784 7.45519L132.075 19.4821H127.819Z" fill="var(--fill-0, black)"/>
<path id="Vector_10" d="M143.977 0.483514C145.397 0.258889 148.039 0 150.392 0C156.776 0 161.128 3.28941 161.128 9.70453C161.128 16.7022 156.582 19.7327 150.262 19.7327C147.974 19.7327 145.458 19.6032 143.973 19.2796V0.483514H143.977ZM148.781 15.4458C149.36 15.5105 150.167 15.541 150.845 15.541C154.035 15.541 156.198 13.7021 156.198 9.70453C156.198 6.02679 153.78 4.41634 150.75 4.41634C150.137 4.41634 149.364 4.4468 148.781 4.51152V15.4458Z" fill="var(--fill-0, black)"/>
</g></g>
</svg>