<svg preserveAspectRatio="none" width="105.073" height="39.5016" overflow="visible" style="display: block;" viewBox="0 0 105.073 39.5016" fill="none" xmlns="http://www.w3.org/2000/svg">
<g id="layer1">
<path id="path24" d="M28.7414 39.4106C28.7022 39.3473 28.7224 39.0234 28.7862 38.6908C28.9743 37.7098 29.6948 34.2997 30.0038 32.928C30.1612 32.2295 30.2491 31.6172 30.1993 31.5674C30.1495 31.5175 23.3342 31.4636 15.0543 31.4476L0 31.4184L0.00590882 30.8436C0.00916751 30.5275 0.28032 28.9756 0.60849 27.3949C1.8606 21.3638 2.13702 20.0217 2.23028 19.5202C2.28319 19.2356 2.59136 17.7096 2.91512 16.1289C3.84224 11.6023 5.0918 5.48365 5.47281 3.6048C5.66441 2.65996 5.87118 1.79345 5.93231 1.67924C6.03862 1.48059 6.70483 1.47157 21.2647 1.47157C31.8302 1.47157 36.5089 1.50871 36.561 1.59301C36.6023 1.65981 36.5565 2.06073 36.4593 2.48395C36.362 2.90717 36.0929 4.15874 35.8612 5.26522C35.6296 6.37171 35.392 7.47073 35.3333 7.70749L35.2265 8.13797L24.9802 8.16734L14.7339 8.19671L14.6493 8.48411C14.6028 8.64218 14.4541 9.39229 14.319 10.151C14.1838 10.9098 13.9964 11.8826 13.9026 12.3129C13.8087 12.7432 13.7622 13.1441 13.7991 13.2038C13.8402 13.2704 17.3049 13.3124 22.7619 13.3124C28.0129 13.3124 31.6843 13.3555 31.7227 13.4175C31.7584 13.4753 31.6079 14.3677 31.3883 15.4006C31.1686 16.4334 30.9047 17.6923 30.8017 18.1982C30.6987 18.704 30.5689 19.2342 30.5131 19.3765L30.4116 19.6352H21.4399C16.8969 19.702 21.4399 19.6352 12.4291 19.6825L11.4739 24.8914C21.6276 24.8953 18.1173 24.9049 21.6276 24.8953L31.7086 24.866L31.8532 24.1762C31.9327 23.7969 32.161 22.7364 32.3606 21.8195C32.5601 20.9028 32.896 19.3249 33.107 18.3133C33.5905 15.9948 34.389 12.2234 34.6039 11.2433C34.694 10.8323 34.8833 9.96583 35.0245 9.31774L35.2812 8.13941L39.5403 8.14115C41.8829 8.14201 43.8631 8.18338 43.941 8.23282C44.0502 8.30218 44.0138 8.63105 43.782 9.67189C43.6167 10.4139 43.5117 11.0513 43.5487 11.0883C43.5857 11.1253 43.7405 11.0589 43.8927 10.9408C45.0889 10.0123 45.6182 9.65485 46.4306 9.22695C49.0024 7.87233 52.1332 7.34295 55.3187 7.72406C58.4972 8.10434 60.3412 8.89166 62.0804 10.611C63.3188 11.8353 64.108 13.4071 64.3823 15.1956C64.4199 15.441 64.4918 15.5961 64.542 15.5405C64.6257 15.4477 64.872 14.4112 65.3036 12.3354C65.8982 9.47519 66.1828 8.31043 66.3059 8.23218C66.4991 8.10944 74.9153 8.11875 75.1097 8.24192C75.2376 8.323 75.2414 8.45274 75.1307 8.95865C75.0562 9.2984 74.893 10.042 74.7678 10.611C74.6426 11.1801 74.3669 12.4733 74.1551 13.485C73.9433 14.4966 73.7332 15.4666 73.6882 15.6405C73.5438 16.1987 73.8242 15.9875 74.2585 15.2109C75.1653 13.5894 76.9484 11.7038 78.6523 10.5647C82.335 8.10257 87.7593 6.9315 93.6543 7.32587C96.9623 7.54717 98.721 7.93795 100.725 8.89701C102.803 9.89125 104.022 11.2061 104.709 13.1925C104.99 14.0075 105.05 14.3705 105.06 15.3243L105.073 16.4739H100.426H95.7802L95.5523 15.7903C95.0681 14.3378 93.7261 13.5156 91.5277 13.3247C88.531 13.0645 86.265 13.7485 84.4171 15.4712C82.3213 17.4249 81.2883 21.5341 82.3297 23.7738C83.1518 25.5416 84.8963 26.4179 87.5937 26.4179C90.5896 26.4179 92.8605 25.3212 94.2585 23.1992L94.7887 22.3943H99.4996C103.774 22.3943 104.21 22.4117 104.21 22.5813C104.21 22.6842 103.995 23.1627 103.731 23.6447C100.894 28.8244 96.7911 31.4071 90.0898 32.2317C88.1879 32.4657 83.1544 32.4056 81.5027 32.1291C79.4262 31.7816 78.0953 31.3621 76.5628 30.5723C75.1333 29.8356 73.6262 28.3557 73.0344 27.1077C72.6098 26.2123 72.3265 25.2665 72.1952 24.306C72.104 23.6388 71.9563 23.7203 71.7984 24.5251C71.7367 24.839 71.5053 25.9494 71.2839 26.9927C71.0626 28.0359 70.7994 29.2775 70.6991 29.7517C70.5987 30.2259 70.4653 30.8079 70.4026 31.045L70.2887 31.4761H65.8636C62.1859 31.4761 61.4281 31.449 61.377 31.3159C61.3192 31.1652 61.5855 29.7298 62.1364 27.2226C62.2684 26.6219 62.4285 25.846 62.4922 25.4982C62.5559 25.1505 62.6346 24.7754 62.6669 24.6648C62.7644 24.3312 62.5445 24.4383 62.313 24.8372C61.5301 26.186 59.8505 28.0247 58.4211 29.0976C55.4431 31.333 52.1025 32.3933 48.0326 32.395C44.5813 32.3963 42.2558 31.6708 40.554 30.0613C40.2195 29.7449 39.9117 29.5201 39.87 29.5618C39.8283 29.6035 39.7256 29.9607 39.6417 30.3557C39.5578 30.7506 39.31 31.9273 39.0911 32.9706C38.8721 34.0138 38.5859 35.3589 38.4551 35.9595C38.3243 36.5602 38.1342 37.4396 38.0327 37.9138C37.9311 38.388 37.8141 38.9312 37.7726 39.1209L37.6972 39.4658L33.2549 39.4958C30.3807 39.5153 28.7874 39.4851 28.7414 39.4106ZM49.7442 25.5095C52.3409 24.7603 53.9196 23.1354 54.714 20.3939C55.1043 19.0472 55.1226 17.5359 54.7604 16.5678C54.4191 15.6558 53.5814 14.8334 52.5908 14.4381C51.1024 13.844 48.5709 13.7871 46.9034 14.3102C43.7749 15.2916 41.7969 17.9976 41.7507 21.3595C41.7357 22.4576 41.7631 22.6288 42.0545 23.2563C42.7014 24.649 43.8535 25.4464 45.6388 25.737C46.5692 25.8885 48.8731 25.7607 49.7442 25.5095ZM66.8911 4.95869C66.9692 4.38827 67.7278 0.809763 67.8739 0.32196L67.96 0.0345605L72.3692 0.00443461C74.7943 -0.0121326 76.8233 0.0191799 76.8782 0.0740244C76.9736 0.169397 76.8137 1.08913 76.2757 3.54082C76.1439 4.14148 75.997 4.81399 75.9494 5.03529L75.8628 5.43765L71.34 5.46771L66.8171 5.49782L66.8911 4.95869Z" fill="var(--fill-0, black)"/>
</g>
</svg>
