<svg preserveAspectRatio="none" width="266.861" height="37.1543" overflow="visible" style="display: block;" viewBox="0 0 266.861 37.1543" fill="none" xmlns="http://www.w3.org/2000/svg">
<g id="Layer_1-2">
<path id="Vector" d="M21.3766 3.19903L18.4224 6.67486C16.6233 5.1951 14.7443 4.5191 12.6311 4.5191C10.9917 4.5191 9.5971 4.99816 8.63367 5.91901C6.7547 7.71814 6.27564 10.7149 6.27564 14.8667C6.27564 19.0186 6.95697 21.3766 8.35156 22.7765C9.38951 23.7772 10.9065 24.3308 12.7056 24.3308C13.9459 24.3308 14.9412 24.1338 15.8621 23.6548V17.3419H11.6251L10.9065 12.7855H21.6534V26.05C18.8163 27.7267 15.7024 28.5252 12.4235 28.5252C8.26639 28.5252 5.1951 27.1678 2.95418 24.2935C0.915531 21.6959 0 18.7418 0 14.5846C0 8.71351 1.91623 4.55636 5.79126 1.95881C7.82992 0.601482 9.90583 0 12.5406 0C15.8994 0.00532285 18.9387 1.08054 21.3766 3.19903Z" fill="var(--fill-0, black)"/>
<path id="Vector_2" d="M24.1445 8.55092L28.9404 7.27344C29.4195 8.11445 29.6963 9.02998 29.7761 10.1904C30.5373 9.1524 31.8148 8.07187 32.8101 7.59281C33.2466 7.39054 33.9705 7.27344 34.5667 7.27344C35.3651 7.27344 35.7271 7.35328 36.5627 7.70991L35.083 12.426C34.5667 12.1438 34.1249 12.0267 33.5234 12.0267C32.3258 12.0267 31.2452 12.5856 30.2498 13.746V28.2082H24.9057V14.5445C24.9057 11.7872 24.5863 9.7113 24.1445 8.55092Z" fill="var(--fill-0, black)"/>
<path id="Vector_3" d="M41.8855 15.7776H48.076V15.5381C48.076 14.0211 47.9163 13.2227 47.4372 12.4615C46.9209 11.6631 46.1598 11.2639 45.0792 11.2639C43.0406 11.2639 41.8855 12.8607 41.8855 15.6978V15.7776ZM51.3176 22.7719L53.3935 25.9656C51.0355 27.8871 48.5604 28.8027 45.6807 28.8027C39.8096 28.8027 36.0144 24.6508 36.0144 18.2155C36.0144 14.5427 36.7756 12.1049 38.5694 10.1088C40.2461 8.22983 42.2847 7.35156 45.0047 7.35156C47.3627 7.35156 49.5983 8.14999 50.9184 9.50732C52.7974 11.4235 53.633 14.1808 53.633 18.455V19.6953H41.811V19.8549C41.811 23.0114 43.3706 24.8105 46.1278 24.8105C47.9589 24.8052 49.6782 24.1292 51.3176 22.7719Z" fill="var(--fill-0, black)"/>
<path id="Vector_4" d="M61.8728 15.7776H68.0632V15.5381C68.0632 14.0211 67.9036 13.2227 67.4245 12.4615C66.9082 11.6631 66.147 11.2639 65.0665 11.2639C63.0278 11.2639 61.8728 12.8607 61.8728 15.6978V15.7776ZM71.2995 22.7719L73.3755 25.9656C71.0174 27.8871 68.5423 28.8027 65.6626 28.8027C59.7915 28.8027 55.9963 24.6508 55.9963 18.2155C55.9963 14.5427 56.7575 12.1049 58.5513 10.1088C60.228 8.22983 62.2667 7.35156 64.9866 7.35156C67.3447 7.35156 69.5803 8.14999 70.9003 9.50732C72.7793 11.4235 73.615 14.1808 73.615 18.455V19.6953H61.7929V19.8549C61.7929 23.0114 63.3525 24.8105 66.1098 24.8105C67.9461 24.8052 69.6654 24.1292 71.2995 22.7719Z" fill="var(--fill-0, black)"/>
<path id="Vector_5" d="M75.824 8.5917L80.5773 7.23438C81.0563 8.07006 81.3384 8.95366 81.3384 9.78934C82.5787 8.91107 82.8129 8.75139 83.6965 8.27233C84.777 7.71343 86.1716 7.39406 87.3692 7.39406C89.6474 7.39406 91.6435 8.5917 92.2822 10.3482C92.5643 11.1041 92.6814 11.9877 92.6814 13.2652V28.2064H87.4065V14.8993C87.4065 12.5838 87.0073 11.9025 85.6074 11.9025C84.5268 11.9025 83.1323 12.6211 81.892 13.7389V28.2011H76.5372V13.3823C76.5426 11.6257 76.3084 9.94903 75.824 8.5917Z" fill="var(--fill-0, black)"/>
<path id="Vector_6" d="M94.6507 8.18985L99.9629 7.5937L101.64 15.381C102.156 17.7391 102.8 21.7312 102.8 21.7312C102.8 21.7312 103.279 18.0957 104.28 14.6199L106.196 7.8279H111.226L112.866 14.4974C113.781 18.2926 114.383 21.7259 114.383 21.7259C114.505 20.8476 114.941 17.6539 115.5 15.0563L117.06 7.8279H122.569L116.735 28.2038H111.822L109.986 21.1723C109.587 19.5329 109.108 17.574 108.825 16.2167C108.666 15.2586 108.623 14.9765 108.506 14.1781C108.389 15.0563 108.346 15.3384 108.027 16.8129C107.266 20.2089 106.308 23.8444 106.271 24.004L105.233 28.1985H100.24L94.6507 8.18985Z" fill="var(--fill-0, black)"/>
<path id="Vector_7" d="M134.136 19.2595H133.896C130.181 19.2595 128.903 19.9408 128.903 22.3733C128.903 23.9702 129.904 25.0507 131.261 25.0507C132.262 25.0507 133.257 24.5291 134.056 23.6508L134.136 19.2595ZM123.628 10.1947C124.948 9.35364 125.507 9.07685 126.945 8.51795C128.941 7.67694 130.66 7.32031 132.539 7.32031C135.972 7.32031 138.33 8.5978 139.129 10.876C139.411 11.717 139.49 12.3557 139.49 14.5541L139.373 21.4259V21.7878C139.373 23.9862 139.735 24.8219 141.29 25.9822L138.453 29.2611C137.212 28.7395 136.094 27.8239 135.578 26.786C134.822 27.5046 134.742 27.5844 134.338 27.8665C133.337 28.5851 131.9 28.9843 130.223 28.9843C125.667 28.9843 123.192 26.6689 123.192 22.5916C123.192 17.7957 126.508 15.5601 133.018 15.5601C133.417 15.5601 133.657 15.5601 134.216 15.5973V14.7563C134.216 12.4782 133.774 11.7223 131.82 11.7223C130.101 11.7223 128.105 12.5633 125.907 14.0378L123.628 10.1947Z" fill="var(--fill-0, black)"/>
<path id="Vector_8" d="M141.939 8.10749L147.411 7.46875L150.967 19.376C151.329 20.6162 152.047 23.6076 152.047 23.6076C152.047 23.6076 152.447 21.3295 152.686 20.3341C153.005 19.0566 153.085 18.8543 153.484 17.497L156.561 7.78812H162.193L154.762 28.5206C153.362 32.4755 152.324 34.1948 150.85 35.2753C149.492 36.276 147.736 36.9148 145.894 37.1543L144.058 33.6359C145.218 33.3165 146.575 32.8375 147.374 32.2786C147.97 31.8421 148.454 31.2779 148.891 30.6019C149.412 29.7609 149.572 29.4042 150.051 28.2066H148.694C148.375 27.2485 148.215 26.8493 147.853 25.8113C147.454 24.5711 146.815 22.5377 146.772 22.4579L141.939 8.10749Z" fill="var(--fill-0, black)"/>
<path id="Vector_9" d="M179.082 28.3764V17.0068H171.747V28.3764H166.648V2.89062H171.747V12.7911H179.082V2.89062H184.288V28.3764H179.082Z" fill="var(--fill-0, black)"/>
<path id="Vector_10" d="M197.201 16.719C197.201 15.3244 197.052 14.5899 196.615 13.8926C196.142 13.158 195.444 12.7907 194.454 12.7907C192.586 12.7907 191.521 14.2598 191.521 16.8627V16.9372H197.206V16.719H197.201ZM191.447 20.5355V20.6845C191.447 23.5801 192.879 25.2302 195.407 25.2302C197.094 25.2302 198.67 24.6075 200.171 23.3566L202.077 26.2895C199.916 28.0513 197.637 28.8924 194.997 28.8924C189.605 28.8924 186.124 25.0812 186.124 19.1728C186.124 15.7981 186.821 13.5625 188.471 11.7315C190.015 10.0069 191.883 9.20312 194.374 9.20312C196.536 9.20312 198.59 9.93768 199.804 11.1832C201.528 12.9451 202.295 15.4734 202.295 19.3964V20.5355H191.447Z" fill="var(--fill-0, black)"/>
<path id="Vector_11" d="M212.866 20.1735C209.454 20.1735 208.283 20.7963 208.283 23.0319C208.283 24.501 209.199 25.4911 210.45 25.4911C211.365 25.4911 212.281 25.012 213.015 24.2082L213.09 20.1735H212.866ZM217.045 29.3395C215.906 28.8657 214.884 28.0194 214.405 27.0666C214.037 27.4339 213.633 27.8012 213.271 28.0567C212.355 28.7167 211.035 29.084 209.492 29.084C205.313 29.084 203.04 26.9548 203.04 23.2182C203.04 18.8162 206.085 16.7616 212.063 16.7616C212.43 16.7616 212.76 16.7616 213.164 16.7988V16.027C213.164 13.9351 212.76 13.2378 210.966 13.2378C209.39 13.2378 207.554 14.0097 205.537 15.367L203.445 11.8486C204.435 11.2258 205.169 10.8585 206.489 10.305C208.321 9.53314 209.896 9.20312 211.626 9.20312C214.777 9.20312 216.944 10.3795 217.673 12.466C217.928 13.2378 218.04 13.8234 218.003 15.8407L217.891 22.1483C217.854 24.2029 218.003 25.0812 219.653 26.3267L217.045 29.3395Z" fill="var(--fill-0, black)"/>
<path id="Vector_12" d="M225.78 28.8277C223.688 28.8277 222 27.8376 221.415 26.2621C221.048 25.3093 220.973 24.7185 220.973 22.0464V8.03664C220.973 5.57748 220.899 4.07643 220.718 2.38909L225.742 1.25C225.923 2.27731 225.998 3.4856 225.998 6.12573V20.7583C225.998 23.9839 226.035 24.4257 226.328 24.9367C226.509 25.2667 226.913 25.453 227.318 25.453C227.499 25.453 227.611 25.453 227.866 25.3785L228.712 28.3114C227.866 28.6414 226.844 28.8277 225.78 28.8277Z" fill="var(--fill-0, black)"/>
<path id="Vector_13" d="M236.154 28.8144C233.663 28.8144 231.677 27.7125 231.092 26.0625C230.799 25.2587 230.762 24.8914 230.762 23.1668V12.9736H228.888V9.59887H230.762C230.762 7.76781 230.762 6.5542 230.943 5.15961L235.93 3.91406C235.749 5.63867 235.637 7.69329 235.637 9.59887H240.039L238.794 12.9736H235.637V22.395C235.637 24.7796 236.079 25.4024 237.766 25.4024C238.208 25.4024 238.645 25.2906 239.528 25.0351L240.151 27.968C238.725 28.5535 237.442 28.8144 236.154 28.8144Z" fill="var(--fill-0, black)"/>
<path id="Vector_14" d="M252.585 28.3788V15.7636C252.585 13.8953 252.069 13.198 250.679 13.198C249.471 13.198 247.89 13.9326 246.794 14.9226V28.3788H241.806V6.67218C241.806 4.91032 241.657 3.14846 241.439 2.38196L246.464 1.21094C246.682 2.23825 246.794 3.99479 246.794 5.79391V9.53588C246.794 10.1214 246.719 10.8932 246.719 11.1114C248.002 9.90315 250.126 9.09408 252.037 9.09408C254.421 9.09408 256.327 10.1214 256.912 11.7715C257.28 12.836 257.392 13.4588 257.392 15.2526V28.3788H252.585Z" fill="var(--fill-0, black)"/>
<path id="Vector_15" d="M259.718 24.6276C259.718 23.9516 259.872 23.3235 260.186 22.7433C260.5 22.1631 260.931 21.7054 261.49 21.3753C262.049 21.0453 262.645 20.875 263.289 20.875C263.933 20.875 264.53 21.04 265.089 21.3753C265.647 21.7107 266.079 22.1631 266.393 22.7433C266.707 23.3235 266.861 23.9516 266.861 24.6276C266.861 25.3036 266.701 25.9424 266.382 26.5225C266.063 27.1027 265.631 27.5605 265.078 27.8905C264.524 28.2205 263.933 28.3855 263.289 28.3855C262.645 28.3855 262.044 28.2205 261.49 27.8852C260.937 27.5499 260.506 27.0921 260.192 26.5119C259.877 25.9317 259.718 25.3036 259.718 24.6223V24.6276ZM260.33 24.6276C260.33 25.1812 260.452 25.6975 260.703 26.1766C260.953 26.6556 261.304 27.0389 261.767 27.3316C262.23 27.6244 262.731 27.7681 263.284 27.7681C263.838 27.7681 264.338 27.6244 264.796 27.3369C265.254 27.0495 265.61 26.6663 265.86 26.1872C266.111 25.7081 266.238 25.1918 266.238 24.6329C266.238 24.074 266.111 23.5577 265.86 23.084C265.61 22.6102 265.254 22.227 264.796 21.9396C264.338 21.6521 263.832 21.5084 263.289 21.5084C262.746 21.5084 262.262 21.6468 261.804 21.9183C261.347 22.1897 260.99 22.573 260.724 23.052C260.458 23.5311 260.33 24.0581 260.33 24.6329V24.6276ZM262.566 25.0055V26.6982H261.804V22.4239H263.215C263.731 22.4239 264.13 22.5411 264.418 22.7753C264.705 23.0095 264.849 23.3342 264.849 23.7493C264.849 24.1166 264.668 24.4041 264.311 24.6063C264.508 24.7128 264.641 24.8618 264.716 25.0481C264.79 25.2344 264.833 25.4686 264.833 25.7454C264.833 26.0222 264.838 26.2191 264.849 26.3309C264.86 26.4427 264.881 26.5385 264.918 26.6184V26.6982H264.141C264.098 26.5864 264.077 26.2617 264.077 25.7241C264.077 25.4686 264.024 25.2876 263.912 25.1759C263.8 25.0641 263.619 25.0055 263.359 25.0055H262.566ZM262.566 24.3349H263.21C263.465 24.3349 263.678 24.2816 263.843 24.1752C264.008 24.0687 264.098 23.9303 264.098 23.7493C264.098 23.5151 264.04 23.3501 263.918 23.249C263.795 23.1479 263.582 23.1 263.273 23.0946H262.566V24.3295V24.3349Z" fill="var(--fill-0, black)"/>
</g>
</svg>
