<svg preserveAspectRatio="none" width="250.555" height="50.5905" overflow="visible" style="display: block;" viewBox="0 0 250.555 50.5905" fill="none" xmlns="http://www.w3.org/2000/svg">
<g id="Layer_5">
<path id="Vector" d="M1.62195 38.7817H14.1376V40.2826H1.62195V48.7071H15.1059V50.3048H0V28.9531H14.7428V30.5025H1.62195V38.7817Z" fill="var(--fill-0, black)"/>
<path id="Vector_2" d="M79.6454 42.8979V50.2814H77.9993V28.9297C81.1221 28.9297 84.245 28.9297 87.3679 28.9297C96.6396 28.9297 96.6396 42.8979 87.3679 42.8979H79.6454ZM79.6454 30.4548V41.3969H87.3679C94.4851 41.3969 94.4851 30.4548 87.3679 30.4548H79.6454Z" fill="var(--fill-0, black)"/>
<path id="Vector_3" d="M133.218 50.2814L130.87 45.0282H118.112L115.788 50.2814H114.021L123.607 28.9297H125.399L134.985 50.2814H133.218ZM130.216 43.5031L124.479 30.5032L118.742 43.5031H130.216Z" fill="var(--fill-0, black)"/>
<path id="Vector_4" d="M158.443 28.9297L172.799 46.6017V28.9297H174.42V50.2814H173.791L159.387 32.6578V50.2814H157.741V28.9297H158.443Z" fill="var(--fill-0, black)"/>
<path id="Vector_5" d="M211.556 33.0395C210.006 30.546 207.489 30.1829 205.092 30.1345C202.599 30.1345 198.629 31.0544 198.629 34.4678C198.629 37.1791 201.558 37.8327 205.165 38.4863C209.28 39.2852 213.565 40.0115 213.565 44.611C213.541 49.4285 208.675 50.5905 205.116 50.5905C201.8 50.5905 197.999 49.2106 196.353 45.9425L197.83 45.2162C199.137 47.8065 202.502 49.0896 205.116 49.0896C207.731 49.0896 211.919 48.3633 211.919 44.5868C211.943 41.3913 208.409 40.6893 204.899 40.0115C201.001 39.2368 197.007 38.4621 197.007 34.5162C196.91 30.0135 201.606 28.6094 205.116 28.6094C208.167 28.6094 210.83 29.0935 212.911 32.2406L211.556 33.0395Z" fill="var(--fill-0, black)"/>
<path id="Vector_6" d="M237.071 38.7817H249.587V40.2826H237.071V48.7071H250.555V50.3048H235.449V28.9531H250.192V30.5025H237.071V38.7817Z" fill="var(--fill-0, black)"/>
<g id="Group">
<path id="Vector_7" d="M76.8855 4.70046L71.7292 11.5756H71.1482L66.1129 4.67625V16.1994H63.1353V0.367188H66.5728L71.5113 7.16971L76.474 0.367188H79.8874V16.1994H76.9097V4.70046H76.8855Z" fill="var(--fill-0, black)"/>
<path id="Vector_8" d="M95.4531 16.1681H83.5911C83.5911 10.8907 83.5911 5.61334 83.5911 0.335938H95.4531V3.24093H86.5687V6.87217H95.1384V9.65611H86.5687V13.2147H95.4531V16.1681Z" fill="var(--fill-0, black)"/>
<path id="Vector_9" d="M113.319 8.10679C113.392 12.1011 110.947 16.1681 105.403 16.1681C103.466 16.1681 101.118 16.1681 99.1814 16.1681V0.335938C101.118 0.335938 103.466 0.335938 105.403 0.335938C110.826 0.335938 113.246 4.18505 113.319 8.10679ZM102.159 13.2874H105.427C109.034 13.2874 110.438 10.6729 110.39 8.08258C110.317 5.61334 108.865 3.1441 105.427 3.1441H102.159V13.2874Z" fill="var(--fill-0, black)"/>
<path id="Vector_10" d="M116.902 16.1681V0.335938H119.855V16.1681H116.902Z" fill="var(--fill-0, black)"/>
<path id="Vector_11" d="M128.619 3.04726H123.607V0.335938C128.183 0.335938 132.032 0.335938 136.631 0.335938V3.04726H131.62V16.1681H128.643V3.04726H128.619Z" fill="var(--fill-0, black)"/>
<path id="Vector_12" d="M152.124 16.1681H140.262C140.262 10.8907 140.262 5.61334 140.262 0.335938H152.124V3.24093H143.24V6.87217H151.81V9.65611H143.24V13.2147H152.124V16.1681Z" fill="var(--fill-0, black)"/>
<path id="Vector_13" d="M169.966 14.1618C168.344 15.7596 166.238 16.51 163.963 16.51C158.08 16.51 155.587 12.4672 155.562 8.35185C155.538 4.21224 158.225 0 163.963 0C166.117 0 168.151 0.823081 169.773 2.42083L167.788 4.33328C166.747 3.31653 165.343 2.83236 163.963 2.83236C160.138 2.83236 158.492 5.68894 158.516 8.32764C158.54 10.9421 160.041 13.6777 163.963 13.6777C165.343 13.6777 166.916 13.1209 167.933 12.0799L169.966 14.1618Z" fill="var(--fill-0, black)"/>
<path id="Vector_14" d="M184.467 16.1994V9.7842H176.696V16.1752H173.718V0.367188H176.696V7.04866H184.467V0.367188H187.42V16.1994H184.467Z" fill="var(--fill-0, black)"/>
</g>
<path id="Vector_15" d="M36.603 28.9531H34.7874L42.1467 37.6439L43.0424 36.5787L36.603 28.9531Z" fill="var(--fill-0, black)"/>
<path id="Vector_16" d="M46.4075 42.6511L52.7984 50.2767H54.6141L47.3032 41.5859L46.4075 42.6511Z" fill="var(--fill-0, black)"/>
<path id="Vector_17" d="M34.7874 50.2837H36.603L43.0182 42.6823L42.1225 41.6172L34.7874 50.2837Z" fill="var(--fill-0, black)"/>
<path id="Vector_18" d="M54.6141 28.9531H52.7984L46.4075 36.5545L47.3274 37.6439L54.6141 28.9531Z" fill="var(--fill-0, black)"/>
</g>
</svg>
