<svg preserveAspectRatio="none" width="267.593" height="41.9439" overflow="visible" style="display: block;" viewBox="0 0 267.593 41.9439" fill="none" xmlns="http://www.w3.org/2000/svg">
<g id="Layer">
<path id="Layer_2" d="M90.9303 6.5388V31.3411H83.3742V6.5388H74.5446V0.101562H99.7599V6.5388H90.9303Z" fill="var(--fill-0, black)"/>
<path id="Layer_3" d="M125.32 31.3467V28.3002C125.32 28.3002 124.115 30.0731 122.686 30.8648C122.101 31.1918 121.481 31.45 120.793 31.6566C120.087 31.8631 119.364 31.9664 118.607 31.9664C117.127 31.9664 115.887 31.7082 114.872 31.1746C113.851 30.6468 113.025 29.9641 112.393 29.1264C111.757 28.283 111.309 27.3364 111.034 26.252C110.747 25.1849 110.603 24.0891 110.603 22.9646V9.36719H117.901V21.295C117.901 21.9146 117.941 22.4998 118.022 23.0506C118.114 23.6129 118.286 24.1178 118.538 24.5653C118.779 24.9956 119.106 25.3398 119.536 25.598C119.949 25.8389 120.483 25.9766 121.154 25.9766C122.428 25.9766 123.392 25.5062 124.046 24.5653C124.711 23.6129 125.044 22.5056 125.044 21.2434V9.36719H132.29V31.3467H125.32Z" fill="var(--fill-0, black)"/>
<path id="Layer_4" fill-rule="evenodd" clip-rule="evenodd" d="M159.692 22.254C159.692 23.9637 159.353 25.398 158.676 26.557C157.999 27.7159 157.104 28.6511 155.991 29.3625C154.867 30.0624 153.593 30.5673 152.17 30.8771C150.724 31.2042 149.279 31.3419 147.764 31.3419H135.302V0.102311H147.764C148.969 0.0908363 150.208 0.211319 151.482 0.46376C152.744 0.716201 153.891 1.1465 154.924 1.75465C155.957 2.35707 156.783 3.16602 157.437 4.19874C158.091 5.23145 158.418 6.53955 158.418 8.12304C158.418 9.8557 157.948 11.29 157.007 12.426C156.06 13.562 154.821 14.3882 153.289 14.8701V14.9562C154.167 15.1111 155.01 15.3865 155.785 15.7823C156.559 16.161 157.248 16.6773 157.816 17.297C158.389 17.9166 158.843 18.6395 159.175 19.4657C159.52 20.2918 159.692 21.2213 159.692 22.2368V22.254ZM151.12 9.15575C151.12 8.08862 150.713 7.31408 149.898 6.83215C149.089 6.35022 147.884 6.10925 146.301 6.10925H142.583V12.5637H146.645C148.068 12.5522 149.164 12.2596 149.933 11.6859C150.724 11.1179 151.103 10.2745 151.103 9.15575H151.12ZM152.136 21.5655C152.136 20.2689 151.654 19.3681 150.69 18.8633C149.715 18.3698 148.418 18.1231 146.8 18.1231H142.6V25.2661H146.834C147.431 25.2661 148.045 25.2144 148.676 25.1112C149.296 25.0079 149.881 24.8186 150.397 24.5604C150.914 24.2965 151.332 23.9235 151.654 23.4416C151.975 22.9482 152.136 22.3228 152.136 21.5655Z" fill="var(--fill-0, black)"/>
<path id="Layer_5" d="M178.435 9.36719H185.682V31.3467H178.435V9.36719Z" fill="var(--fill-0, black)"/>
<path id="Layer_6" fill-rule="evenodd" clip-rule="evenodd" d="M205.579 31.3428V28.4856H205.493C204.793 29.5987 203.783 30.4593 202.463 31.0674C201.155 31.6698 199.761 31.9797 198.281 31.9797C196.646 31.9797 195.166 31.6526 193.875 30.9986C192.578 30.356 191.476 29.4954 190.57 28.4168C189.675 27.3382 188.992 26.0932 188.522 24.6818C188.057 23.2704 187.816 21.8074 187.816 20.2756C187.816 18.7437 188.057 17.2807 188.539 15.8866C189.038 14.4752 189.727 13.2531 190.622 12.186C191.517 11.1361 192.618 10.2927 193.892 9.67307C195.177 9.05344 196.611 8.74363 198.195 8.74363C203.083 8.74363 204.993 11.05 204.993 11.05V0H212.24V31.3428H205.579ZM205.321 20.31C205.321 19.6043 205.183 18.9158 204.942 18.2446C204.689 17.5676 204.334 16.9652 203.875 16.4373C203.416 15.898 202.865 15.4677 202.222 15.1464C201.568 14.8194 200.828 14.6645 200.002 14.6645C199.193 14.6645 198.401 14.8194 197.765 15.1464C197.11 15.4735 196.56 15.8866 196.129 16.4029C195.682 16.9193 195.349 17.5159 195.131 18.1929C194.907 18.8642 194.787 19.5527 194.787 20.2756C194.787 20.987 194.902 21.687 195.131 22.3754C195.349 23.0639 195.682 23.6721 196.129 24.1999C196.565 24.7277 197.11 25.1523 197.765 25.4736C198.401 25.8006 199.159 25.9555 200.002 25.9555C200.863 25.9555 201.568 25.8006 202.222 25.4736C202.859 25.1465 203.41 24.7335 203.875 24.1999C204.339 23.6663 204.684 23.0639 204.942 22.3926C205.183 21.7214 205.321 21.0329 205.321 20.31Z" fill="var(--fill-0, black)"/>
<path id="Layer_7" fill-rule="evenodd" clip-rule="evenodd" d="M263.892 20.6185V21.4963C263.892 21.8061 263.875 22.0815 263.841 22.3397H247.903C247.96 22.9593 248.144 23.5216 248.453 24.0264C248.763 24.5256 249.159 24.9559 249.641 25.3173C250.123 25.696 250.674 25.9714 251.276 26.1779C251.879 26.3845 252.498 26.505 253.152 26.505C254.3 26.505 255.269 26.2927 256.061 25.8681C256.853 25.4378 257.507 24.887 258.006 24.1986L263.049 27.3828C262.016 28.8859 260.657 30.0391 258.97 30.8424C257.266 31.6513 255.304 32.0644 253.066 32.0644C251.414 32.0644 249.848 31.8062 248.384 31.2899C246.904 30.7735 245.631 30.0334 244.512 29.0351C243.41 28.0483 242.544 26.8377 241.913 25.4034C241.282 23.9576 240.966 22.3053 240.966 20.4464C240.966 18.6047 241.276 17.0384 241.896 15.5754C242.515 14.1182 243.353 12.8789 244.409 11.8577C245.476 10.8422 246.715 10.0676 248.161 9.49963C249.607 8.93738 251.173 8.65625 252.86 8.65625C254.529 8.65625 255.958 8.93164 257.317 9.48242C258.66 10.016 259.83 10.8077 260.794 11.8404C261.775 12.8559 262.533 14.1124 263.066 15.5926C263.617 17.0614 263.892 18.7367 263.892 20.6185ZM257.214 17.8302C257.214 16.6942 256.853 15.6959 256.13 14.8869C255.418 14.0608 254.34 13.6477 252.894 13.6477C252.188 13.6477 251.534 13.751 250.949 13.9747C250.352 14.2042 249.836 14.5083 249.4 14.8869C248.952 15.2828 248.608 15.7303 248.333 16.2295C248.069 16.7458 247.92 17.2851 247.885 17.8474H257.214V17.8302Z" fill="var(--fill-0, black)"/>
<path id="Layer_8" d="M106.989 9.38281C102.548 9.38281 101.017 13.0662 101.017 13.0662V9.38281H94.0458V31.3452H101.292V20.691C101.292 20.2435 101.378 19.7444 101.55 19.1592C101.722 18.5625 102.009 18.0174 102.411 17.524C102.807 17.0249 103.34 16.6118 104.011 16.2503C104.665 15.9061 105.492 15.7168 106.456 15.7168H108.177V9.38281H106.989Z" fill="var(--fill-0, black)"/>
<path id="Layer_9" d="M186.198 3.97594C186.21 4.5382 186.101 5.06029 185.871 5.54222C185.647 6.02415 185.355 6.45445 184.993 6.79869C184.615 7.16014 184.184 7.43553 183.668 7.64207C183.152 7.84861 182.601 7.95188 182.05 7.95188C180.868 7.95188 179.881 7.56175 179.09 6.78148C178.298 6.00694 177.902 5.06029 177.902 3.97594C177.902 3.44811 178.005 2.94323 178.212 2.4613C178.418 1.96789 178.717 1.54907 179.107 1.20483C179.485 0.843382 179.916 0.567992 180.415 0.327026C180.931 0.120483 181.465 0 182.05 0C182.612 0 183.152 0.103271 183.668 0.309814C184.184 0.516356 184.626 0.797483 184.993 1.1532C185.355 1.51464 185.647 1.92773 185.871 2.40966C186.101 2.89159 186.215 3.41369 186.215 3.97594H186.198Z" fill="var(--fill-0, black)"/>
<path id="Layer_10" fill-rule="evenodd" clip-rule="evenodd" d="M238.815 9.36182V29.2932C238.815 31.4389 238.505 33.3035 237.885 34.887C237.266 36.4877 236.388 37.7958 235.269 38.8457C234.15 39.8785 232.79 40.6702 231.19 41.1866C229.589 41.6857 227.816 41.9439 225.871 41.9439C223.909 41.9439 221.93 41.6513 219.882 41.0661C218.849 40.7677 217.891 40.4063 217.007 39.9817L219.658 34.4395C220.295 34.8354 220.983 35.1796 221.689 35.4378C222.98 35.8853 224.236 36.1263 225.475 36.1263C227.598 36.1263 229.165 35.564 230.174 34.4395C231.196 33.3265 231.706 31.8405 231.706 29.9816V28.6563H231.568C230.891 29.5399 229.979 30.2513 228.832 30.7906C227.684 31.3184 226.376 31.5766 224.907 31.5651C223.221 31.5651 221.74 31.2725 220.45 30.6701C219.153 30.062 218.057 29.2473 217.162 28.226C216.25 27.1933 215.561 25.9885 215.097 24.6115C214.632 23.2518 214.391 21.806 214.391 20.2741C214.391 18.7423 214.632 17.2793 215.097 15.9023C215.561 14.5082 216.25 13.2861 217.162 12.2362C218.057 11.1691 219.153 10.3199 220.45 9.68884C221.74 9.052 223.221 8.74219 224.856 8.74219C226.233 8.74219 227.575 9.01758 228.832 9.58557C230.105 10.1478 231.121 11.0142 231.878 12.1846H231.964V9.36182H238.815ZM231.947 20.2225C231.947 19.4996 231.809 18.7767 231.568 18.1054C231.31 17.4342 230.949 16.8318 230.484 16.3154C230.019 15.7991 229.451 15.4032 228.797 15.1106C228.155 14.8122 227.42 14.6631 226.594 14.6631C225.768 14.6631 225.045 14.818 224.408 15.1106C223.777 15.3974 223.238 15.7933 222.79 16.2982C222.354 16.8031 222.016 17.394 221.775 18.071C221.534 18.7423 221.431 19.4996 221.431 20.2225C221.431 20.9626 221.551 21.6683 221.775 22.3396C222.016 23.028 222.36 23.6132 222.79 24.1296C223.238 24.646 223.771 25.059 224.408 25.3689C225.045 25.6787 225.768 25.8336 226.594 25.8336C227.42 25.8336 228.16 25.6787 228.832 25.3689C229.486 25.059 230.042 24.6517 230.501 24.1468C230.96 23.6534 231.316 23.0682 231.568 22.3912C231.827 21.7199 231.947 20.9626 231.947 20.2225Z" fill="var(--fill-0, black)"/>
<path id="Layer_11" d="M174.787 9.38281C170.329 9.38281 168.814 13.0662 168.814 13.0662V9.38281H161.826V31.3452H169.072V20.691C169.072 20.2435 169.158 19.7444 169.33 19.1592C169.514 18.5625 169.807 18.0174 170.208 17.524C170.604 17.0249 171.138 16.6118 171.792 16.2503C172.446 15.9061 173.272 15.7168 174.253 15.7168H175.974V9.38281H174.787Z" fill="var(--fill-0, black)"/>
<path id="Layer_12" fill-rule="evenodd" clip-rule="evenodd" d="M267.593 7.62475C267.593 8.06078 267.507 8.46813 267.335 8.84679C267.174 9.22545 266.95 9.55248 266.663 9.82787C266.388 10.1033 266.061 10.3098 265.682 10.4819C265.292 10.6426 264.879 10.7229 264.443 10.7229C264.013 10.7229 263.6 10.6368 263.204 10.4819C262.825 10.327 262.481 10.1033 262.206 9.82787C261.913 9.55248 261.689 9.22545 261.534 8.84679C261.362 8.46813 261.276 8.06078 261.276 7.62475C261.276 7.19445 261.362 6.78137 261.534 6.40271C261.689 6.00683 261.913 5.67981 262.206 5.40442C262.481 5.11182 262.825 4.88806 263.204 4.73315C263.594 4.57251 264.007 4.49219 264.443 4.49219C264.879 4.49219 265.292 4.57251 265.682 4.73315C266.061 4.90527 266.388 5.12903 266.663 5.40442C266.956 5.67981 267.18 6.02404 267.335 6.40271C267.507 6.78137 267.593 7.19445 267.593 7.62475ZM266.99 7.62475C266.99 7.26904 266.922 6.93054 266.784 6.60925C266.658 6.29943 266.48 6.02978 266.25 5.80029C266.009 5.55932 265.734 5.36999 265.441 5.24951C265.132 5.11181 264.805 5.04297 264.443 5.04297C264.087 5.04297 263.755 5.11181 263.445 5.24951C263.118 5.36999 262.842 5.55932 262.619 5.80029C262.378 6.02404 262.188 6.29943 262.068 6.60925C261.93 6.91906 261.861 7.2633 261.861 7.62475C261.861 7.96899 261.93 8.29601 262.068 8.60582C262.188 8.91564 262.378 9.19103 262.619 9.41478C262.848 9.64427 263.124 9.82787 263.445 9.96556C263.755 10.086 264.082 10.1721 264.443 10.1721C264.799 10.1721 265.132 10.1033 265.441 9.96556C265.74 9.82787 266.009 9.64427 266.25 9.41478C266.48 9.18529 266.658 8.91564 266.784 8.60582C266.922 8.29601 266.99 7.96899 266.99 7.62475Z" fill="var(--fill-0, black)"/>
<path id="Layer_13" fill-rule="evenodd" clip-rule="evenodd" d="M265.269 7.82922L266.095 9.15453H265.063L264.443 7.96691H264.099V9.15453H263.221V5.95312H264.598C264.753 5.95312 264.908 5.97034 265.063 5.98755C265.218 6.03918 265.355 6.09082 265.493 6.15967C265.608 6.23999 265.705 6.34326 265.786 6.46948C265.866 6.60718 265.906 6.76782 265.906 6.95141C265.906 7.15796 265.837 7.34729 265.717 7.50219C265.602 7.65136 265.453 7.76037 265.269 7.82922ZM264.822 7.20959C264.908 7.15796 264.959 7.05468 264.959 6.95141C264.959 6.84814 264.908 6.77929 264.822 6.72766C264.718 6.67602 264.632 6.6416 264.529 6.6416H264.064V7.31286H264.529C264.644 7.31286 264.747 7.27844 264.839 7.20959H264.822Z" fill="var(--fill-0, black)"/>
<path id="Layer_14" d="M66.0592 0.101562H0V31.3411H7.69371C9.79355 19.2584 20.3272 10.0672 33.0296 10.0672C45.7147 10.0672 56.2656 19.2584 58.3655 31.3411H66.0592V0.101562Z" fill="var(--fill-0, black)"/>
</g>
</svg>
