<svg xmlns="http://www.w3.org/2000/svg" width="141.95" height="21.9555" viewBox="702.531 115.522 141.95 21.9555" fill="none">
<g clip-path="url(#clip7_8579_21485)">
<g clip-path="url(#clip8_8579_21485)">
<g clip-path="url(#clip9_8579_21485)">
<path d="M783.971 127.814C783.657 126.043 782.981 124.569 780.822 124.569C779.7 124.569 778.748 125.096 778.748 126.293C778.748 127.069 779.051 127.521 779.689 127.878C780.008 128.058 780.386 128.207 780.785 128.351C781.184 128.495 781.604 128.643 782.04 128.782C783.434 129.223 785.449 130.271 785.449 132.835C785.449 135.398 783.093 136.632 780.87 136.632C779.386 136.632 778.189 136.377 776.79 135.882V131.813H777.535C777.711 133.712 778.498 135.994 780.918 136.01C782.189 136.02 783.641 135.26 783.641 133.813C783.641 132.515 782.54 131.946 781.524 131.526C779.609 130.739 776.95 130.218 776.95 127.516C776.95 125.096 778.801 123.798 780.95 123.798C782.242 123.798 783.359 124.176 784.572 124.575V127.819H783.971V127.814ZM726.003 131.585V130.053C723.731 130.08 721.487 130.787 721.487 133.175C721.487 134.6 722.391 135.212 723.322 135.212C724.136 135.212 724.689 134.776 724.955 134.542C725.886 133.638 725.944 133.063 726.003 131.579V131.585ZM719.875 117.325L720.168 122.282H719.418C718.833 119.437 716.588 116.74 713.19 116.74H713.041C709.079 116.735 706.105 120.65 706.105 126.809C706.105 130.005 707.568 135.558 713.477 135.584C715.769 135.595 717.636 134.67 718.764 133.398C718.881 131.691 720.2 130.755 722.024 130.175C723.311 129.798 724.758 129.564 726.003 129.526V127.096C725.944 126.25 725.886 124.883 723.955 124.883C722.636 124.883 721.556 125.67 721.556 126.106C721.556 126.458 722.168 126.835 722.168 127.505C722.168 128.175 721.615 128.761 720.827 128.761C720.04 128.761 719.546 128.117 719.546 127.394C719.546 125.968 721.391 124.181 724.343 124.181C725.747 124.181 727.157 124.772 727.88 125.468C728.694 126.314 728.694 127.271 728.694 128.383V134.026C728.694 135.015 728.694 135.717 729.364 135.717C729.497 135.717 729.55 135.717 729.598 135.712C729.641 135.701 729.683 135.68 729.789 135.632V136.201C729.444 136.414 729.247 136.504 728.438 136.504C727.8 136.504 727.194 136.302 726.758 135.957C726.093 135.409 726.003 134.733 725.944 134.148C725.3 135.43 724.019 136.558 722.04 136.558C720.439 136.558 719.147 135.765 718.828 134.366C717.695 135.616 715.711 136.723 712.254 136.723C706.222 136.712 702.531 132.223 702.531 126.426C702.531 121.91 705.792 116.171 712.722 116.171C717.072 116.24 717.854 117.464 718.588 117.464C719.094 117.464 719.29 116.985 719.684 116.985C719.742 116.985 719.881 117.043 719.881 117.32L719.875 117.325ZM750.027 127.362C750.048 127.42 750.054 127.426 750.075 127.58C746.82 129.197 744.873 130.484 742.448 132.159C742.905 133.893 743.996 135.271 746.006 135.271C747.447 135.271 749.325 133.813 749.873 132.776L749.91 132.712C750.011 132.691 750.282 132.744 750.282 132.824C750.282 133.106 749.724 133.994 749.543 134.239C748.399 135.792 746.99 136.515 744.863 136.515C741.634 136.515 739.485 133.547 739.485 130.25C739.485 126.952 742.171 124.107 745.378 124.107C747.16 124.107 748.883 124.883 749.75 126.617C749.889 126.904 749.968 127.08 750.032 127.362H750.027ZM742.288 131.351C743.565 130.308 745.453 128.872 747.591 127.622C747.479 125.979 746.783 124.873 745.251 124.873C743.719 124.873 742.884 126.091 742.427 127.888C742.389 128.064 742.315 128.436 742.246 128.941C742.198 129.282 742.198 129.67 742.198 130.021C742.198 130.468 742.23 130.915 742.294 131.345L742.288 131.351ZM764.164 135.733H765.813V136.345H759.638V135.733H761.404V125.564C761.404 125.564 763.377 125 764.169 124.899V135.728H764.164V135.733ZM734.81 127.351C734.954 126.942 735.129 126.479 735.539 125.862C736.209 124.904 737.113 124.261 738.251 124.261C739.39 124.261 740.145 124.958 740.145 125.974C740.145 126.819 739.533 127.484 738.629 127.484C737.842 127.484 737.347 126.989 737.257 126.192C737.198 125.58 737.198 125.431 736.906 125.431C736.847 125.431 736.294 125.458 735.683 126.92C734.869 128.872 734.837 130.314 734.81 132.218V135.712H736.443V136.318H730.321V135.712H732.039V125.569L730.385 125.734V124.963C730.385 124.963 732.284 124.527 734.842 124.303L734.81 127.346V127.351ZM771.147 127.08C771.296 126.67 771.472 126.197 771.881 125.575C772.557 124.607 773.472 123.958 774.62 123.958C775.711 123.958 776.535 124.665 776.535 125.692C776.535 126.543 775.918 127.218 775.003 127.218C774.206 127.218 773.706 126.718 773.621 125.915C773.562 125.293 773.562 125.149 773.27 125.149C773.211 125.149 772.653 125.181 772.036 126.654C771.211 128.628 771.185 130.085 771.153 132.005V135.728H772.801V136.34H766.621V135.728H768.355V125.287L766.685 125.452V124.676C766.685 124.676 768.472 124.266 771.185 124.011L771.153 127.08H771.147ZM755.144 135.728H757.654V136.34H749.367V135.728H751.883V116.171H749.367V115.56H763.473L763.824 120.208H763.137C762.845 118.448 762.116 117.469 761.478 116.948C760.553 116.192 759.345 116.171 757.202 116.171H755.149V124.474C768.004 119.729 779.226 119.309 786.811 119.926C787.082 119.692 787.433 119.453 787.667 119.16C788.811 117.777 788.933 116.99 789.082 116.373H789.523V120.208C794.289 120.804 797.049 121.713 797.049 121.713V123.091C794.459 122.506 791.949 122.07 789.523 121.761V133.579C789.523 134.489 789.497 135.723 790.965 135.723C792.433 135.723 792.64 134.521 792.731 134.047H793.379C793.23 134.749 792.821 136.675 790.082 136.675C788.646 136.675 787.476 136.111 787.034 134.93C786.8 134.372 786.8 133.728 786.8 132.228V121.469C774.046 120.32 763.632 122.703 755.149 125.74V135.723L755.144 135.728Z" fill="black"/>
<path d="M835.683 137.478C839.81 135.196 842.31 131.569 843.597 127.591C844.932 123.458 844.714 118.57 843.161 115.522C840.805 116.709 838.438 117.304 835.683 117.315C832.928 117.325 830.561 116.714 828.205 115.522C826.657 118.57 826.434 123.458 827.769 127.591C829.056 131.574 831.556 135.202 835.678 137.478H835.683Z" fill="black"/>
<path d="M817.927 137.249V131.276H823.9V121.729H817.927V115.756H808.412V121.729H802.444V131.276H808.412V137.249H817.927Z" fill="black"/>
<path d="M807.67 124.442L811.627 124.825C812.372 124.926 812.457 125.649 812.26 126.08L809.548 131.17C808.17 130.085 807.287 128.404 807.287 126.521C807.287 125.788 807.42 125.085 807.665 124.442H807.67Z" fill="#EEE8FF"/>
<path d="M813.209 121.368C812.512 121.368 812.294 122.16 812.603 122.564C812.879 122.926 812.932 123.032 812.922 123.373C812.911 123.66 812.645 124.011 812.044 124.022H807.848C808.789 122.011 810.826 120.618 813.193 120.618" fill="#EEE8FF"/>
<path d="M808.254 125.309L811.254 125.585C811.472 125.601 811.488 125.692 811.435 125.819L809.334 129.829C808.568 128.941 808.11 127.782 808.11 126.521C808.11 126.106 808.158 125.702 808.254 125.314V125.309Z" fill="black"/>
<path d="M811.779 121.639C811.481 122.139 811.721 122.788 812.002 123.096C812.056 123.149 812.029 123.202 811.981 123.218H809.327C809.96 122.474 810.811 121.915 811.779 121.639Z" fill="black"/>
<path d="M818.715 124.442L814.752 124.825C814.013 124.926 813.922 125.649 814.119 126.08L816.832 131.17C818.209 130.085 819.092 128.404 819.092 126.521C819.092 125.788 818.959 125.085 818.715 124.442Z" fill="#EEE8FF"/>
<path d="M813.171 121.368C813.873 121.368 814.086 122.16 813.777 122.564C813.501 122.926 813.447 123.032 813.458 123.373C813.469 123.66 813.735 124.011 814.336 124.022H818.532C817.591 122.011 815.554 120.618 813.187 120.618" fill="#EEE8FF"/>
<path d="M818.125 125.309L815.125 125.585C814.912 125.601 814.896 125.692 814.944 125.819L817.045 129.829C817.806 128.941 818.268 127.782 818.268 126.521C818.268 126.106 818.22 125.702 818.125 125.314V125.309Z" fill="black"/>
<path d="M814.596 121.639C814.894 122.139 814.655 122.788 814.373 123.096C814.32 123.149 814.346 123.202 814.394 123.218H817.048C816.41 122.474 815.564 121.915 814.596 121.639Z" fill="black"/>
<path d="M813.193 132.415C814.389 132.415 815.506 132.058 816.437 131.441L813.56 127.149C813.358 126.873 813.033 126.851 812.826 127.149L809.948 131.447C810.879 132.058 811.991 132.415 813.193 132.415Z" fill="#EEE8FF"/>
<path d="M835.685 135.632C839.078 133.531 840.887 130.515 842.046 127.117C843.073 124.096 843.323 120.564 842.195 117.809C840.498 118.394 839.504 118.57 838.584 118.713C837.722 118.852 836.956 118.931 835.696 118.947H835.685C834.424 118.931 833.659 118.852 832.797 118.713C831.877 118.57 830.882 118.389 829.186 117.809C828.053 120.564 828.303 124.101 829.334 127.117C830.494 130.521 832.302 133.531 835.696 135.632H835.685Z" fill="#EEE8FF"/>
<path d="M835.673 134.797C837.97 133.356 840.571 130.074 841.614 125.766C842.162 123.479 842.321 120.91 841.598 118.868C840.571 119.139 839.609 119.368 838.619 119.501C837.625 119.634 836.646 119.729 835.678 119.74H835.667C834.699 119.735 833.721 119.634 832.726 119.501C831.737 119.368 830.774 119.139 829.748 118.868C829.03 120.905 829.184 123.474 829.732 125.766C830.774 130.079 833.375 133.356 835.667 134.797H835.673Z" fill="black"/>
<path d="M833.341 121.271C832.564 121.676 832.298 122.622 832.644 123.388C832.947 124.053 833.543 124.489 834.234 124.697C834.58 124.798 834.931 124.824 835.293 124.846C835.734 124.867 836.133 124.877 836.553 124.989C836.644 125.01 836.739 125.064 836.787 125.154C836.899 125.367 836.798 125.595 836.575 125.659C836.575 126.032 836.537 126.776 836.537 126.776C836.537 126.776 838.34 126.606 838.037 124.984C837.963 124.596 837.66 124.202 837.309 124.021C836.404 123.553 835.41 123.755 834.484 123.457C834.176 123.356 833.74 123.202 833.655 122.851C833.623 122.713 833.655 122.431 833.793 122.383C834.027 122.309 834.282 122.505 834.623 122.585C834.835 122.633 835.053 122.633 835.218 122.585C835.293 122.564 835.399 122.532 835.41 122.489C835.399 122.452 835.319 122.415 835.271 122.394C835.17 122.34 835.059 122.314 834.947 122.271C834.761 122.202 834.575 122.112 834.389 122.005C834.564 121.968 834.862 121.958 835.043 121.979C835.186 121.995 835.622 121.989 835.75 121.958C835.777 121.952 835.841 121.926 835.814 121.878C835.761 121.793 835.676 121.761 835.617 121.681C835.49 121.505 835.378 121.33 835.17 121.25C834.58 121.021 833.915 120.963 833.33 121.271H833.341Z" fill="#EEE8FF"/>
<path d="M836.349 127.053L836.36 125.165C836.36 125.165 836.115 125.112 835.78 125.091C835.338 125.064 835.136 125.069 835.136 125.069V125.229C835.136 125.229 834.924 125.319 834.892 125.378C834.876 125.404 834.823 125.474 834.849 125.543C835.025 126.011 835.264 126.463 835.333 126.963C835.663 127.011 835.955 127 836.354 127.053H836.349Z" fill="#EEE8FF"/>
<path d="M834.089 126.766C834.009 127.505 834.493 127.904 835.03 128.032C835.456 128.133 835.865 128.154 836.307 128.208C836.36 128.213 836.482 128.218 836.567 128.255C836.647 128.293 836.684 128.335 836.7 128.383C836.721 128.452 836.711 128.505 836.663 128.564C836.615 128.622 836.487 128.654 836.487 128.654L836.461 129.548C836.461 129.548 836.823 129.532 837.11 129.356C837.386 129.191 837.557 128.979 837.615 128.713C837.684 128.404 837.636 128.106 837.424 127.809C837.28 127.612 837.025 127.468 836.775 127.378C836.248 127.192 835.679 127.218 835.137 127.144C835.051 127.133 834.977 127.069 834.972 126.99C834.956 126.851 835.089 126.787 835.089 126.787C835.089 126.787 835.025 126.575 834.956 126.367C834.892 126.213 834.807 125.995 834.743 125.878C834.371 126.037 834.131 126.378 834.094 126.761L834.089 126.766Z" fill="#EEE8FF"/>
<path d="M836.308 128.409L836.292 130.01L835.893 129.829L835.5 129.665L835.489 128.33C835.846 128.372 836.005 128.377 836.308 128.415V128.409Z" fill="#EEE8FF"/>
<path d="M834.515 129.292C834.297 129.808 834.569 130.319 835.005 130.532C835.233 130.643 835.531 130.744 835.776 130.84C836.015 130.936 836.441 131.196 836.473 131.324C836.494 131.404 836.404 131.478 836.404 131.478L836.393 132.106C836.393 132.106 836.654 132.053 836.845 131.893C837.026 131.744 837.159 131.547 837.159 131.239C837.159 130.899 836.999 130.633 836.51 130.345C836.132 130.122 835.675 129.947 835.319 129.787C835.265 129.766 835.217 129.665 835.239 129.601C835.26 129.537 835.303 129.51 835.303 129.51L835.292 128.787C835.292 128.787 835.021 128.84 834.888 128.92C834.765 128.989 834.59 129.112 834.51 129.298L834.515 129.292Z" fill="#EEE8FF"/>
<path d="M836.242 131.42C836.242 131.367 836.226 131.362 836.205 131.325C836.099 131.213 835.944 131.138 835.907 131.117C835.795 131.053 835.551 130.958 835.551 130.958C835.551 130.958 835.567 132.596 835.599 133.441C835.599 133.633 835.716 133.681 835.896 133.691C836.125 133.702 836.189 133.564 836.189 133.479C836.2 133.207 836.232 132.032 836.242 131.415V131.42Z" fill="#EEE8FF"/>
<path d="M836.415 120.889C836.494 120.947 836.494 120.953 836.521 121.075C836.574 121.335 836.521 121.745 836.569 121.926C836.595 121.984 836.654 121.979 836.696 121.958C837.058 121.761 837.303 121.426 837.67 121.272C837.84 121.197 838.319 121.437 838.207 121.798C838.154 121.968 838.079 121.99 837.973 122.101C837.76 122.325 837.457 122.532 837.191 122.819C837.016 123.016 836.797 123.154 836.659 123.378C836.617 123.447 836.542 123.543 836.542 123.543C836.032 123.436 835.521 123.458 835.122 123.378V122.787C835.122 122.787 835.526 122.718 835.601 122.522C835.606 122.506 835.595 122.436 835.537 122.394C835.468 122.341 835.351 122.288 835.314 122.277C835.718 122.341 835.973 122.41 836.367 122.58C836.393 122.537 836.377 122.442 836.351 122.41C836.298 122.346 836.266 122.33 836.133 122.298C835.888 122.234 835.239 122.155 835.239 122.155C835.239 122.155 835.542 122.155 835.792 122.112C835.915 122.091 836.016 122.069 836.042 122.027C836.074 121.963 836.021 121.867 835.936 121.777C835.877 121.713 835.814 121.649 835.766 121.585C835.707 121.506 835.611 121.357 835.505 121.261C835.415 121.181 835.181 121.059 835.181 121.059C835.181 121.059 835.138 120.74 835.202 120.612C835.25 120.516 835.372 120.463 835.441 120.495C835.734 120.66 836.021 120.825 836.409 120.894L836.415 120.889Z" fill="#EEE8FF"/>
<path d="M835.126 121.501C835.052 121.554 834.999 121.607 834.913 121.623C834.743 121.65 834.77 121.506 834.658 121.426C834.589 121.378 834.52 121.442 834.456 121.325C834.695 121.331 835.015 121.309 835.195 121.495C835.174 121.485 835.132 121.495 835.121 121.506L835.126 121.501Z" fill="black"/>
<path d="M813.109 128.122C813.157 128.058 813.221 128.058 813.28 128.122L815.263 131.159C814.631 131.441 813.934 131.595 813.2 131.595C812.466 131.595 811.764 131.441 811.131 131.159L813.115 128.122C813.168 128.058 813.237 128.058 813.285 128.122" fill="black"/>
<path d="M835.149 132.026C835.048 132.127 834.888 132.34 834.856 132.669C834.83 132.967 834.899 133.052 834.979 133.212C835.037 133.345 835.181 133.334 835.234 133.212C835.277 133.111 835.213 133.02 835.255 132.797C835.282 132.637 835.41 132.552 835.41 132.552L835.399 131.824C835.399 131.824 835.282 131.882 835.154 132.021L835.149 132.026Z" fill="#EEE8FF"/>
<path d="M839.542 136.26C839.542 135.749 839.925 135.361 840.425 135.361C840.925 135.361 841.303 135.749 841.303 136.26C841.303 136.771 840.915 137.169 840.425 137.169C839.936 137.169 839.542 136.787 839.542 136.26ZM840.42 137.35C841.01 137.35 841.516 136.893 841.516 136.265C841.516 135.638 841.016 135.191 840.42 135.191C839.824 135.191 839.324 135.648 839.324 136.265C839.324 136.882 839.824 137.35 840.42 137.35ZM840.191 136.35H840.409L840.739 136.893H840.952L840.595 136.34C840.782 136.318 840.92 136.217 840.92 135.999C840.92 135.755 840.771 135.648 840.478 135.648H840V136.898H840.191V136.356V136.35ZM840.191 136.186V135.803H840.452C840.585 135.803 840.723 135.829 840.723 135.983C840.723 136.175 840.579 136.186 840.42 136.186H840.196H840.191Z" fill="black"/>
<path d="M819.124 136.26C819.124 135.749 819.507 135.361 820.007 135.361C820.507 135.361 820.885 135.749 820.885 136.26C820.885 136.771 820.497 137.169 820.007 137.169C819.518 137.169 819.124 136.787 819.124 136.26ZM820.002 137.35C820.592 137.35 821.098 136.893 821.098 136.265C821.098 135.638 820.592 135.191 820.002 135.191C819.412 135.191 818.906 135.648 818.906 136.265C818.906 136.882 819.406 137.35 820.002 137.35ZM819.773 136.35H819.991L820.321 136.893H820.534L820.177 136.34C820.358 136.318 820.502 136.217 820.502 135.999C820.502 135.755 820.353 135.648 820.06 135.648H819.582V136.898H819.773V136.356V136.35ZM819.773 136.186V135.803H820.028C820.161 135.803 820.3 135.829 820.3 135.983C820.3 136.175 820.156 136.186 819.997 136.186H819.773Z" fill="black"/>
<path d="M794.074 136.271C794.074 135.76 794.456 135.372 794.956 135.372C795.456 135.372 795.834 135.76 795.834 136.271C795.834 136.781 795.446 137.18 794.956 137.18C794.467 137.18 794.074 136.797 794.074 136.271ZM794.951 137.356C795.541 137.356 796.047 136.898 796.047 136.271C796.047 135.643 795.547 135.196 794.951 135.196C794.355 135.196 793.855 135.654 793.855 136.271C793.855 136.888 794.355 137.356 794.951 137.356ZM794.722 136.356H794.94L795.27 136.898H795.483L795.127 136.345C795.313 136.324 795.451 136.223 795.451 136.005C795.451 135.76 795.307 135.648 795.01 135.648H794.531V136.898H794.722V136.356ZM794.722 136.196V135.813H794.983C795.116 135.813 795.254 135.84 795.254 135.994C795.254 136.186 795.111 136.196 794.951 136.196H794.722Z" fill="black"/>
<path d="M797.936 134.191L797.548 136.015H796.841L797.229 134.191H797.936Z" fill="black"/>
</g>
</g>
</g>
<defs>
<clipPath id="clip0_8579_21485">
<rect width="92.3351" height="83" fill="white" transform="translate(99.5859 85)"/>
</clipPath>
<clipPath id="clip1_8579_21485">
<rect width="92.3351" height="39.0527" fill="white" transform="translate(99.5859 106.974)"/>
</clipPath>
<clipPath id="clip2_8579_21485">
<rect width="92.3351" height="39.2364" fill="white" transform="translate(99.5859 106.882)"/>
</clipPath>
<clipPath id="clip3_8579_21485">
<rect width="186.045" height="83" fill="white" transform="translate(255.921 85)"/>
</clipPath>
<clipPath id="clip4_8579_21485">
<rect width="132.564" height="83" fill="white" transform="translate(505.967 85)"/>
</clipPath>
<clipPath id="clip5_8579_21485">
<rect width="132.564" height="37.2837" fill="white" transform="translate(505.967 107.858)"/>
</clipPath>
<clipPath id="clip6_8579_21485">
<rect width="131.855" height="37.7841" fill="white" transform="translate(506.321 107.608)"/>
</clipPath>
<clipPath id="clip7_8579_21485">
<rect width="141.95" height="83" fill="white" transform="translate(702.531 85)"/>
</clipPath>
<clipPath id="clip8_8579_21485">
<rect width="141.95" height="24.8315" fill="white" transform="translate(702.531 114.084)"/>
</clipPath>
<clipPath id="clip9_8579_21485">
<rect width="141.95" height="21.9555" fill="white" transform="translate(702.531 115.522)"/>
</clipPath>
<clipPath id="clip10_8579_21485">
<rect width="150.934" height="83" fill="white" transform="translate(908.48 85)"/>
</clipPath>
<clipPath id="clip11_8579_21485">
<rect width="150.934" height="42.4502" fill="white" transform="translate(908.48 105.275)"/>
</clipPath>
<clipPath id="clip12_8579_21485">
<rect width="150.934" height="31.1051" fill="white" transform="translate(908.48 110.947)"/>
</clipPath>
<clipPath id="clip13_8579_21485">
<rect width="65" height="83" fill="white" transform="translate(1123.42 85)"/>
</clipPath>
<clipPath id="clip14_8579_21485">
<rect width="65" height="52.4208" fill="white" transform="translate(1123.42 100.29)"/>
</clipPath>
<clipPath id="clip15_8579_21485">
<rect width="65" height="52.546" fill="white" transform="translate(1123.42 100.227)"/>
</clipPath>
</defs>
</svg>
