<svg xmlns="http://www.w3.org/2000/svg" width="181.345" height="22.892" viewBox="258.271 115.054 181.345 22.892" fill="none">
<g clip-path="url(#clip3_8579_21485)">
<path fill-rule="evenodd" clip-rule="evenodd" d="M435.341 136.908C435.341 137.542 435.803 137.946 436.379 137.946C436.898 137.946 437.36 137.542 437.36 136.908C437.36 136.331 436.898 135.928 436.379 135.928C435.803 135.928 435.341 136.331 435.341 136.908ZM436.379 137.773C435.917 137.773 435.572 137.369 435.572 136.908C435.572 136.447 435.917 136.101 436.379 136.043C436.84 136.043 437.187 136.447 437.187 136.908C437.187 137.203 437.075 137.442 436.894 137.593L436.552 137.081C436.725 137.023 436.84 136.966 436.84 136.735C436.84 136.504 436.725 136.389 436.437 136.389H435.976V137.542H436.148V137.081H436.437L436.725 137.6H436.885C436.749 137.711 436.575 137.773 436.379 137.773ZM436.885 137.6H436.898L436.894 137.593C436.891 137.595 436.888 137.598 436.885 137.6ZM436.379 136.85H436.206V136.504H436.437C436.552 136.504 436.667 136.562 436.667 136.677C436.667 136.85 436.552 136.85 436.379 136.85Z" fill="black"/>
<path d="M424.165 129.989C423.358 129.066 422.838 127.797 422.838 126.471C422.838 126.067 422.896 125.606 423.069 125.203L426.241 125.491C426.472 125.491 426.472 125.606 426.414 125.721L424.165 129.989Z" fill="black"/>
<path d="M430.284 125.491L433.455 125.203C433.558 125.562 433.615 125.967 433.668 126.336C433.673 126.382 433.68 126.427 433.686 126.471C433.686 127.797 433.167 129.066 432.36 129.989L430.111 125.721C430.053 125.606 430.053 125.491 430.284 125.491Z" fill="black"/>
<path d="M426.016 131.43L428.149 128.201H428.322L430.398 131.43C429.706 131.719 429.014 131.892 428.207 131.892C427.456 131.892 426.707 131.719 426.016 131.43Z" fill="black"/>
<path d="M429.465 123.012H432.291C431.656 122.204 430.733 121.628 429.696 121.339C430.042 121.858 429.753 122.55 429.465 122.896C429.407 122.954 429.407 123.012 429.465 123.012Z" fill="black"/>
<path d="M426.932 122.839C426.645 122.493 426.356 121.801 426.702 121.282C425.721 121.628 424.799 122.204 424.107 122.954H426.932C426.932 122.954 426.991 122.896 426.932 122.839Z" fill="black"/>
<path fill-rule="evenodd" clip-rule="evenodd" d="M433.273 131.545V137.888H423.183V131.545H416.84V121.397H423.183V115.054H433.273V121.397H439.616V131.545H433.273ZM426.584 124.683L422.375 124.28C422.086 124.972 421.971 125.721 421.971 126.471C421.971 128.489 422.952 130.277 424.393 131.43L427.276 126.01C427.449 125.548 427.392 124.799 426.584 124.683ZM434.484 126.471C434.484 125.721 434.368 124.972 434.081 124.28L429.871 124.683C429.064 124.799 428.949 125.548 429.179 126.01L432.062 131.43C433.562 130.277 434.484 128.489 434.484 126.471ZM424.74 131.718C425.719 132.352 426.93 132.756 428.2 132.756C429.468 132.756 430.679 132.352 431.658 131.718L428.602 127.163C428.372 126.874 428.025 126.817 427.796 127.163L424.74 131.718ZM422.548 123.876C423.528 121.743 425.662 120.243 428.2 120.243C430.736 120.243 432.869 121.685 433.85 123.876H429.409C428.776 123.876 428.487 123.472 428.487 123.184C428.487 122.838 428.545 122.723 428.833 122.319C429.179 121.916 428.949 121.051 428.2 121.051C427.449 121.051 427.219 121.916 427.565 122.319C427.852 122.723 427.911 122.838 427.911 123.184C427.911 123.472 427.623 123.876 426.988 123.876H422.548Z" fill="black"/>
<path d="M261.903 116.381H258.271V133.161H261.903V116.381Z" fill="black"/>
<path d="M267.721 120.243H264.435V133.044H267.952V124.049C268.702 123.126 269.624 122.549 270.72 122.549C271.931 122.549 272.392 123.357 272.392 124.51V133.102H275.909V124.625C275.909 121.742 274.698 119.955 271.815 119.955C270.201 119.955 268.817 120.762 267.894 121.742L267.721 120.243Z" fill="black"/>
<path fill-rule="evenodd" clip-rule="evenodd" d="M282.655 119.955C279.657 119.955 277.639 122.204 277.639 126.528C277.639 131.084 279.657 133.39 282.598 133.39C284.27 133.39 285.538 132.641 286.519 131.603L286.749 133.102H289.863V115.054H286.346V121.685C285.365 120.647 284.039 119.955 282.655 119.955ZM286.346 123.991V129.469C285.538 130.334 284.731 130.738 283.693 130.738C281.963 130.738 281.156 129.123 281.156 126.586C281.156 124.049 282.021 122.665 283.693 122.665C284.731 122.665 285.596 123.127 286.346 123.991Z" fill="black"/>
<path fill-rule="evenodd" clip-rule="evenodd" d="M303.71 125.836C303.71 122.376 301.691 119.955 298.001 119.955C294.426 119.955 291.601 122.492 291.543 126.643C291.543 130.91 294.195 133.448 298.001 133.448C299.904 133.448 301.749 132.871 303.306 131.775L301.864 129.526C300.769 130.218 299.558 130.622 298.29 130.622C296.329 130.622 295.291 129.584 295.118 127.393H303.594C303.652 126.989 303.71 126.355 303.71 125.836ZM300.423 125.375H295.233C295.579 123.53 296.675 122.492 298.117 122.492C299.789 122.492 300.423 123.76 300.423 125.375Z" fill="black"/>
<path fill-rule="evenodd" clip-rule="evenodd" d="M305.553 137.888H309.013V131.718C309.993 132.698 311.204 133.39 312.818 133.39C315.701 133.39 317.719 131.026 317.719 126.528C317.719 122.203 315.701 119.955 312.76 119.955C311.261 119.955 309.993 120.704 309.013 121.8L308.724 120.243H305.553V137.888ZM314.202 126.586C314.202 129.065 313.337 130.737 311.665 130.737C310.627 130.737 309.82 130.334 309.013 129.469V123.991C309.762 123.126 310.627 122.665 311.665 122.665C313.337 122.665 314.202 124.049 314.202 126.586Z" fill="black"/>
<path fill-rule="evenodd" clip-rule="evenodd" d="M331.037 125.836C331.037 122.376 329.019 119.955 325.328 119.955C321.753 119.955 318.87 122.492 318.87 126.643C318.87 130.91 321.523 133.448 325.328 133.448C327.231 133.448 329.076 132.871 330.633 131.775L329.192 129.526C328.096 130.218 326.885 130.622 325.617 130.622C323.656 130.622 322.618 129.584 322.445 127.393H330.922C330.979 126.989 331.037 126.355 331.037 125.836ZM327.692 125.375H322.503C322.849 123.53 324.002 122.492 325.386 122.492C327.058 122.492 327.692 123.76 327.692 125.375Z" fill="black"/>
<path d="M336.114 120.243H332.827V133.044H336.345V124.049C337.094 123.126 338.017 122.549 339.112 122.549C340.323 122.549 340.784 123.357 340.784 124.51V133.102H344.302V124.625C344.302 121.742 343.091 119.955 340.208 119.955C338.593 119.955 337.209 120.762 336.287 121.742L336.114 120.243Z" fill="black"/>
<path fill-rule="evenodd" clip-rule="evenodd" d="M351.048 119.955C348.049 119.955 346.031 122.204 346.031 126.528C346.031 131.084 348.049 133.39 350.99 133.39C352.662 133.39 353.931 132.641 354.911 131.603L355.142 133.102H358.256V115.054H354.738V121.685C353.758 120.647 352.432 119.955 351.048 119.955ZM354.738 123.991V129.469C353.931 130.334 353.124 130.738 352.086 130.738C350.356 130.738 349.549 129.123 349.549 126.586C349.549 124.049 350.413 122.665 352.086 122.665C353.124 122.665 353.989 123.127 354.738 123.991Z" fill="black"/>
<path fill-rule="evenodd" clip-rule="evenodd" d="M372.154 125.836C372.154 122.376 370.136 119.955 366.445 119.955C362.87 119.955 359.987 122.492 359.987 126.643C359.987 130.91 362.64 133.448 366.445 133.448C368.348 133.448 370.193 132.871 371.75 131.775L370.309 129.526C369.213 130.218 368.002 130.622 366.734 130.622C364.773 130.622 363.735 129.584 363.562 127.393H372.039C372.096 126.989 372.154 126.355 372.154 125.836ZM368.81 125.375H363.62C363.966 123.53 365.061 122.492 366.503 122.492C368.175 122.492 368.81 123.76 368.81 125.375Z" fill="black"/>
<path d="M377.222 120.243H373.936V133.044H377.453V124.049C378.203 123.126 379.125 122.549 380.221 122.549C381.432 122.549 381.893 123.357 381.893 124.51V133.102H385.41V124.625C385.41 121.742 384.2 119.955 381.316 119.955C379.702 119.955 378.318 120.762 377.395 121.742L377.222 120.243Z" fill="black"/>
<path d="M398.105 121.57C396.664 120.474 395.107 120.013 393.55 120.013C389.802 120.013 387.034 122.493 387.034 126.644C387.034 130.911 389.802 133.448 393.55 133.448C395.395 133.448 396.895 132.872 398.278 131.603L396.376 129.585C395.568 130.219 394.819 130.623 393.665 130.623C391.936 130.623 390.552 129.181 390.552 126.644C390.552 124.165 391.993 122.839 393.665 122.839C394.703 122.839 395.568 123.242 396.318 123.819L398.105 121.57Z" fill="black"/>
<path fill-rule="evenodd" clip-rule="evenodd" d="M410.497 125.836C410.497 122.376 408.478 119.955 404.788 119.955C401.213 119.955 398.33 122.492 398.33 126.643C398.33 130.91 400.982 133.448 404.788 133.448C406.692 133.448 408.536 132.871 410.093 131.775L408.651 129.526C407.556 130.218 406.345 130.622 405.077 130.622C403.116 130.622 402.079 129.584 401.906 127.393H410.381C410.439 126.989 410.497 126.355 410.497 125.836ZM407.152 125.375H401.963C402.308 123.53 403.462 122.492 404.846 122.492C406.517 122.492 407.152 123.76 407.152 125.375Z" fill="black"/>
</g>
<defs>
<clipPath id="clip0_8579_21485">
<rect width="92.3351" height="83" fill="white" transform="translate(99.5859 85)"/>
</clipPath>
<clipPath id="clip1_8579_21485">
<rect width="92.3351" height="39.0527" fill="white" transform="translate(99.5859 106.974)"/>
</clipPath>
<clipPath id="clip2_8579_21485">
<rect width="92.3351" height="39.2364" fill="white" transform="translate(99.5859 106.882)"/>
</clipPath>
<clipPath id="clip3_8579_21485">
<rect width="186.045" height="83" fill="white" transform="translate(255.921 85)"/>
</clipPath>
<clipPath id="clip4_8579_21485">
<rect width="132.564" height="83" fill="white" transform="translate(505.967 85)"/>
</clipPath>
<clipPath id="clip5_8579_21485">
<rect width="132.564" height="37.2837" fill="white" transform="translate(505.967 107.858)"/>
</clipPath>
<clipPath id="clip6_8579_21485">
<rect width="131.855" height="37.7841" fill="white" transform="translate(506.321 107.608)"/>
</clipPath>
<clipPath id="clip7_8579_21485">
<rect width="141.95" height="83" fill="white" transform="translate(702.531 85)"/>
</clipPath>
<clipPath id="clip8_8579_21485">
<rect width="141.95" height="24.8315" fill="white" transform="translate(702.531 114.084)"/>
</clipPath>
<clipPath id="clip9_8579_21485">
<rect width="141.95" height="21.9555" fill="white" transform="translate(702.531 115.522)"/>
</clipPath>
<clipPath id="clip10_8579_21485">
<rect width="150.934" height="83" fill="white" transform="translate(908.48 85)"/>
</clipPath>
<clipPath id="clip11_8579_21485">
<rect width="150.934" height="42.4502" fill="white" transform="translate(908.48 105.275)"/>
</clipPath>
<clipPath id="clip12_8579_21485">
<rect width="150.934" height="31.1051" fill="white" transform="translate(908.48 110.947)"/>
</clipPath>
<clipPath id="clip13_8579_21485">
<rect width="65" height="83" fill="white" transform="translate(1123.42 85)"/>
</clipPath>
<clipPath id="clip14_8579_21485">
<rect width="65" height="52.4208" fill="white" transform="translate(1123.42 100.29)"/>
</clipPath>
<clipPath id="clip15_8579_21485">
<rect width="65" height="52.546" fill="white" transform="translate(1123.42 100.227)"/>
</clipPath>
</defs>
</svg>
