<svg width="467" height="832" viewBox="0 0 467 832" fill="none" xmlns="http://www.w3.org/2000/svg">
<path d="M233.352 9.61826e-06C187.21 -0.0132702 142.1 13.7252 103.728 39.4791C65.3554 65.233 35.444 101.845 17.777 144.684C0.109878 187.524 -4.5193 234.666 4.47453 280.15C13.4684 325.634 35.6814 367.416 68.3043 400.211C100.927 433.007 142.495 455.342 187.749 464.394C233.004 473.446 279.914 468.807 322.545 451.064C365.176 433.321 401.614 403.271 427.251 364.714C452.888 326.157 466.571 280.825 466.571 234.452C466.58 203.666 460.554 173.181 448.838 144.736C437.122 116.291 419.944 90.4451 398.287 68.6733C376.629 46.9015 350.917 29.6311 322.617 17.848C294.317 6.0648 263.985 8.35522e-06 233.352 9.61826e-06ZM233.352 384.241C203.858 384.241 175.027 375.45 150.504 358.981C125.982 342.512 106.87 319.103 95.586 291.717C84.3022 264.33 81.3533 234.196 87.1122 205.125C92.8711 176.054 107.079 149.352 127.939 128.397C148.799 107.442 175.375 93.1745 204.304 87.3998C233.233 81.6252 263.216 84.6028 290.461 95.9554C317.706 107.308 340.989 126.525 357.366 151.178C373.742 175.83 382.476 204.81 382.463 234.452C382.445 274.184 366.728 312.284 338.766 340.373C310.804 368.462 272.887 384.241 233.352 384.241Z" fill="black"/>
<path d="M388.134 677.831C388.134 592.273 318.776 522.503 233.219 521.994C147.663 521.485 78.3057 590.432 78.3057 675.99C78.3058 761.548 147.663 831.319 233.219 831.827C318.776 832.336 388.134 763.39 388.134 677.831Z" fill="black"/>
</svg>
