<svg preserveAspectRatio="none" width="100%" height="100%" overflow="visible" style="display: block;" viewBox="0 0 16.3449 29.2347" fill="none" xmlns="http://www.w3.org/2000/svg">
<g id="Group">
<path id="Vector" d="M7.45353 0.0255064C0.866873 0.527182 -2.31299 8.66955 1.9168 13.8526C6.10831 18.9877 14.289 17.1783 16.0279 10.6903C17.581 4.89852 13.2199 -0.414164 7.45353 0.0255064ZM12.6348 9.44179C11.779 13.7709 5.58882 14.2133 4.09868 10.2028C3.04876 7.3759 4.48694 4.06146 7.5711 3.73734C10.9369 3.38222 13.3156 5.98925 12.6321 9.44179H12.6348Z" fill="var(--fill-0, black)"/>
<path id="Vector_2" d="M2.85672 24.086C3.08913 28.0289 7.31618 30.4669 10.712 28.5898C13.8318 26.8621 14.4333 22.457 11.9288 19.8753C8.47548 16.3157 2.55596 19.0382 2.85399 24.086H2.85672Z" fill="var(--fill-0, black)"/>
</g>
</svg>
