<svg preserveAspectRatio="none" width="100%" height="100%" overflow="visible" style="display: block;" viewBox="0 0 32 32" fill="none" xmlns="http://www.w3.org/2000/svg">
<g id="award-05">
<path id="Vector" d="M6 12.6641C6 18.1869 10.4771 22.6641 16 22.6641C21.5228 22.6641 26 18.1869 26 12.6641C26 7.14121 21.5228 2.66406 16 2.66406C10.4771 2.66406 6 7.14121 6 12.6641Z" stroke="var(--stroke-0, black)" stroke-width="1.5" stroke-linecap="round" stroke-linejoin="round"/>
<path id="Vector_2" d="M12 13.5556C12 13.5556 13 13.5556 14 15.3333C14 15.3333 17.1765 10.8889 20 10" stroke="var(--stroke-0, black)" stroke-width="1.5" stroke-linecap="round" stroke-linejoin="round"/>
<path id="Vector_3" d="M22.51 20L23.4036 24.2799C23.9777 27.0297 24.2648 28.4047 23.6751 29.0564C23.0855 29.708 22.0613 29.1475 20.0132 28.0264L16.9819 26.3671C16.4979 26.1021 16.2559 25.9697 16 25.9697C15.7441 25.9697 15.5021 26.1021 15.0181 26.3671L11.9868 28.0264C9.93863 29.1475 8.91456 29.708 8.32487 29.0564C7.73519 28.4047 8.02225 27.0297 8.59641 24.2799L9.49003 20" stroke="var(--stroke-0, black)" stroke-width="1.5" stroke-linejoin="round"/>
</g>
</svg>
