<svg preserveAspectRatio="none" width="100%" height="100%" overflow="visible" style="display: block;" viewBox="0 0 32 32" fill="none" xmlns="http://www.w3.org/2000/svg">
<g id="globe">
<path id="Vector" d="M16.6641 25.3335V29.3335" stroke="var(--stroke-0, black)" stroke-width="1.5" stroke-linecap="round" stroke-linejoin="round"/>
<path id="Vector_2" d="M14 29.3333H19.3333" stroke="var(--stroke-0, black)" stroke-width="1.5" stroke-linecap="round" stroke-linejoin="round"/>
<path id="Vector_3" d="M18.0026 21.3332C12.8479 21.3332 8.66927 17.1545 8.66927 11.9998C8.66927 6.84518 12.8479 2.6665 18.0026 2.6665C23.1573 2.6665 27.3359 6.84518 27.3359 11.9998C27.3359 17.1545 23.1573 21.3332 18.0026 21.3332Z" stroke="var(--stroke-0, black)" stroke-width="1.5" stroke-linecap="round"/>
<path id="Vector_4" d="M11.3359 5.33317C12.2084 5.3845 12.6591 5.81182 13.4339 6.63052C14.8334 8.10925 16.2329 8.23264 17.1658 7.73973C18.5653 7.00037 17.3893 5.80278 19.0318 5.15196C20.1023 4.72777 20.2517 3.57352 19.6558 2.6665" stroke="var(--stroke-0, black)" stroke-width="1.5" stroke-linejoin="round"/>
<path id="Vector_5" d="M26.6693 13.3335C24.6693 13.3335 24.3143 14.9959 22.6693 14.6668C19.3359 14.0002 18.3914 14.7454 18.3914 16.335C18.3914 17.9244 18.3914 17.9244 17.6982 19.1166C17.2473 19.892 17.0897 20.6674 17.9885 21.3335" stroke="var(--stroke-0, black)" stroke-width="1.5" stroke-linejoin="round"/>
<path id="Vector_6" d="M8.66406 2.6665C6.19558 5.06644 4.66406 8.41077 4.66406 12.1099C4.66406 19.4129 10.6336 25.3332 17.9974 25.3332C21.6314 25.3332 24.9257 23.8914 27.3307 21.5532" stroke="var(--stroke-0, black)" stroke-width="1.5" stroke-linecap="round"/>
</g>
</svg>
