<svg preserveAspectRatio="none" width="100%" height="100%" overflow="visible" style="display: block;" viewBox="0 0 18 18" fill="none" xmlns="http://www.w3.org/2000/svg">
<g id="Frame">
<path id="Vector" d="M14.3984 2.3999H3.59844C2.93544 2.3999 2.39844 2.9369 2.39844 3.5999V14.3999C2.39844 15.0629 2.93544 15.5999 3.59844 15.5999H14.3984C15.0614 15.5999 15.5984 15.0629 15.5984 14.3999V3.5999C15.5984 2.9369 15.0614 2.3999 14.3984 2.3999ZM6.57084 13.1999H4.80084V7.5047H6.57084V13.1999ZM5.66784 6.6905C5.09724 6.6905 4.63584 6.2279 4.63584 5.6585C4.63584 5.0891 5.09784 4.6271 5.66784 4.6271C6.23664 4.6271 6.69924 5.0897 6.69924 5.6585C6.69924 6.2279 6.23664 6.6905 5.66784 6.6905ZM13.2008 13.1999H11.432V10.4303C11.432 9.7697 11.42 8.9201 10.5122 8.9201C9.59124 8.9201 9.44964 9.6395 9.44964 10.3823V13.1999H7.68084V7.5047H9.37884V8.2829H9.40284C9.63924 7.8353 10.2164 7.3631 11.0774 7.3631C12.8696 7.3631 13.2008 8.5427 13.2008 10.0763V13.1999Z" fill="var(--fill-0, black)"/>
</g>
</svg>
