<svg preserveAspectRatio="none" width="100%" height="100%" overflow="visible" style="display: block;" viewBox="0 0 32 32" fill="none" xmlns="http://www.w3.org/2000/svg">
<g id="money-send-01">
<path id="Vector" d="M2.6875 23.3327C5.62026 23.3327 7.99774 25.7101 7.99774 28.6428" stroke="var(--stroke-0, black)" stroke-width="1.5" stroke-linecap="round" stroke-linejoin="round"/>
<path id="Vector_2" d="M24 28.6428V28.5203C24 25.6552 26.3227 23.3327 29.1877 23.3327" stroke="var(--stroke-0, black)" stroke-width="1.5" stroke-linecap="round" stroke-linejoin="round"/>
<path id="Vector_3" d="M7.99774 10.0221C7.99774 12.9549 5.62026 15.3324 2.6875 15.3324" stroke="var(--stroke-0, black)" stroke-width="1.5" stroke-linecap="round" stroke-linejoin="round"/>
<path id="Vector_4" d="M24 10.0221C24 12.9292 26.3587 15.2907 29.2564 15.3319" stroke="var(--stroke-0, black)" stroke-width="1.5" stroke-linecap="round" stroke-linejoin="round"/>
<path id="Vector_5" d="M22.6641 10.0015C25.5641 10.0176 27.1346 10.1462 28.1591 11.1707C29.3307 12.3423 29.3307 14.2279 29.3307 17.9991V20.6658C29.3307 24.4371 29.3307 26.3227 28.1591 27.4943C26.9875 28.6658 25.1019 28.6658 21.3307 28.6658H10.6641C6.89282 28.6658 5.00721 28.6658 3.83564 27.4943C2.66406 26.3227 2.66406 24.4371 2.66406 20.6658V17.9991C2.66406 14.2279 2.66406 12.3423 3.83564 11.1707C4.86014 10.1462 6.43069 10.0176 9.33073 10.0015" stroke="var(--stroke-0, black)" stroke-width="1.5" stroke-linecap="round" stroke-linejoin="round"/>
<path id="Vector_6" d="M20 19.3327C20 21.5417 18.2092 23.3327 16 23.3327C13.7908 23.3327 12 21.5417 12 19.3327C12 17.1235 13.7908 15.3327 16 15.3327C18.2092 15.3327 20 17.1235 20 19.3327Z" stroke="var(--stroke-0, black)" stroke-width="1.5" stroke-linecap="round" stroke-linejoin="round"/>
<path id="Vector_7" d="M12.6641 6.66781C12.6641 6.66781 15.0638 3.33447 15.9974 3.33447C16.931 3.33447 19.3307 6.66781 19.3307 6.66781M15.9974 10.6678V4.00114" stroke="var(--stroke-0, black)" stroke-width="1.5" stroke-linecap="round" stroke-linejoin="round"/>
</g>
</svg>
