<svg xmlns="http://www.w3.org/2000/svg" width="92.3351" height="39.2364" viewBox="99.5859 106.882 92.3351 39.2364" fill="none">
<g clip-path="url(#clip0_8579_21485)">
<g clip-path="url(#clip1_8579_21485)">
<g clip-path="url(#clip2_8579_21485)">
<path d="M118.042 115.483L113.147 110.588L108.251 115.483L106.398 113.63L113.147 106.882L119.895 113.63L118.042 115.483Z" fill="black"/>
<path d="M99.5861 117.203L109.479 117.203L109.479 119.992L102.566 119.992L102.566 123.377L108.525 123.377L108.525 126.19L102.566 126.19L102.566 129.67L109.479 129.67L109.479 132.483L99.5859 132.483L99.5861 117.203ZM111.688 116.083L114.597 116.083L114.596 130.307L114.596 132.483L111.688 132.483L111.688 116.083ZM116.374 126.786C116.374 123.449 118.854 120.731 122.144 120.731C125.409 120.731 127.888 123.258 127.888 126.548C127.888 126.905 127.864 127.31 127.816 127.502L119.354 127.501C119.64 129.098 120.856 130.243 122.62 130.243C123.764 130.243 124.741 129.742 125.409 129.051L126.911 131.029C126.052 132.031 124.432 132.817 122.501 132.817C118.949 132.817 116.374 130.099 116.374 126.786ZM119.402 125.666L124.909 125.666C124.575 124.045 123.55 123.21 122.191 123.21C120.737 123.21 119.736 124.212 119.402 125.666ZM140.267 121.065L136.143 132.483L132.376 132.483L128.228 121.065L131.423 121.065L134.331 129.885L137.287 121.065L140.267 121.065ZM149.452 131.244C148.618 132.221 147.45 132.817 145.972 132.817C142.945 132.817 140.489 130.338 140.489 126.786C140.489 123.33 142.801 120.731 145.972 120.731C147.474 120.731 148.642 121.28 149.452 122.209L149.452 121.065L152.384 121.065L152.384 132.484L149.452 132.484L149.452 131.244ZM149.452 126.762C149.452 124.927 148.189 123.473 146.449 123.473C144.685 123.473 143.397 124.927 143.397 126.762C143.397 128.598 144.685 130.076 146.449 130.076C148.189 130.076 149.452 128.598 149.452 126.762ZM157.585 132.484L154.676 132.484L154.677 121.065L157.585 121.065L157.585 122.185C158.3 121.256 159.397 120.731 160.803 120.731C163.449 120.731 165.141 122.591 165.141 125.571L165.141 132.484L162.234 132.484L162.234 126C162.234 124.451 161.327 123.473 159.921 123.473C158.467 123.473 157.585 124.45 157.585 126L157.585 132.484ZM172.832 123.473C170.925 123.473 169.638 124.927 169.638 126.762C169.638 128.598 170.949 130.076 172.808 130.076C173.977 130.076 174.906 129.671 175.621 128.956L177.099 131.101C176.193 132.103 174.549 132.818 172.737 132.818C169.352 132.818 166.73 130.1 166.73 126.786C166.73 123.449 169.352 120.732 172.689 120.732C174.644 120.732 176.194 121.399 177.195 122.448L175.526 124.522C174.811 123.831 173.953 123.473 172.832 123.473ZM177.887 126.786C177.887 123.45 180.366 120.732 183.656 120.732C186.922 120.732 189.401 123.258 189.401 126.548C189.401 126.906 189.377 127.311 189.329 127.502L180.867 127.502C181.153 129.099 182.369 130.243 184.133 130.243C185.277 130.243 186.254 129.743 186.922 129.051L188.424 131.03C187.565 132.031 185.945 132.818 184.013 132.818C180.461 132.818 177.887 130.1 177.887 126.786ZM180.914 125.666L186.421 125.666C186.087 124.045 185.062 123.211 183.703 123.211C182.249 123.211 181.248 124.212 180.914 125.666ZM150.374 141.601L146.161 141.601L146.161 145.894L144.166 145.894L144.166 135.664L146.161 135.664L146.161 139.734L150.374 139.734L150.375 135.665L152.386 135.665L152.385 145.894L150.374 145.894L150.374 141.601ZM153.653 142.08C153.653 139.846 155.313 138.026 157.515 138.027C159.702 138.027 161.361 139.718 161.361 141.92C161.361 142.16 161.345 142.431 161.313 142.559L155.648 142.559C155.839 143.628 156.654 144.394 157.834 144.394C158.6 144.394 159.255 144.059 159.702 143.596L160.707 144.921C160.132 145.591 159.047 146.118 157.754 146.118C155.377 146.118 153.653 144.298 153.653 142.08ZM155.68 141.33L159.367 141.33C159.143 140.245 158.457 139.686 157.547 139.686C156.574 139.686 155.903 140.357 155.68 141.33ZM168.347 145.065C167.788 145.719 167.007 146.118 166.017 146.118C163.99 146.118 162.346 144.458 162.347 142.08C162.347 139.766 163.895 138.027 166.017 138.027C167.023 138.027 167.805 138.394 168.347 139.016L168.347 138.25L170.31 138.25L170.31 145.895L168.347 145.894L168.347 145.065ZM168.347 142.064C168.347 140.836 167.501 139.862 166.336 139.862C165.156 139.862 164.294 140.836 164.294 142.064C164.294 143.293 165.155 144.282 166.336 144.282C167.501 144.282 168.347 143.293 168.347 142.064ZM171.964 134.915L173.912 134.915L173.911 144.805L173.911 145.895L171.964 145.895L171.964 134.915ZM175.216 138.25L176.572 138.25L176.572 136.272L178.519 136.272L178.519 138.251L180.593 138.251L180.593 139.974L178.535 139.974L178.535 143.214C178.535 143.932 178.838 144.283 179.412 144.283C179.763 144.283 180.115 144.123 180.306 143.9L181.184 145.352C180.753 145.767 180.035 146.118 179.093 146.118C177.545 146.118 176.556 145.144 176.556 143.277L176.556 139.974L175.215 139.974L175.216 138.25ZM184.334 145.895L182.387 145.895L182.387 134.915L184.334 134.915L184.334 139C184.813 138.378 185.547 138.027 186.488 138.027C188.26 138.027 189.393 139.272 189.393 141.267L189.393 145.895L187.446 145.895L187.446 141.554C187.446 140.517 186.839 139.862 185.898 139.862C184.924 139.862 184.334 140.517 184.334 141.554L184.334 145.895ZM190.171 131.448C190.11 131.361 189.981 131.287 189.836 131.287C189.674 131.287 189.573 131.359 189.573 131.469C189.573 131.766 190.326 131.631 190.326 132.111C190.326 132.349 190.133 132.509 189.832 132.509C189.579 132.509 189.415 132.41 189.322 132.279L189.459 132.151C189.55 132.269 189.68 132.33 189.834 132.33C190.019 132.33 190.124 132.25 190.124 132.123C190.124 131.795 189.371 131.94 189.371 131.475C189.371 131.258 189.562 131.109 189.842 131.109C190.053 131.109 190.223 131.201 190.305 131.317L190.171 131.448ZM190.727 131.437V132.483H190.538V131.134H190.757L191.243 131.907L191.727 131.134H191.921V132.483H191.732V131.437L191.231 132.218L190.727 131.437Z" fill="black"/>
</g>
</g>
</g>
<defs>
<clipPath id="clip0_8579_21485">
<rect width="92.3351" height="83" fill="white" transform="translate(99.5859 85)"/>
</clipPath>
<clipPath id="clip1_8579_21485">
<rect width="92.3351" height="39.0527" fill="white" transform="translate(99.5859 106.974)"/>
</clipPath>
<clipPath id="clip2_8579_21485">
<rect width="92.3351" height="39.2364" fill="white" transform="translate(99.5859 106.882)"/>
</clipPath>
<clipPath id="clip3_8579_21485">
<rect width="186.045" height="83" fill="white" transform="translate(255.921 85)"/>
</clipPath>
<clipPath id="clip4_8579_21485">
<rect width="132.564" height="83" fill="white" transform="translate(505.967 85)"/>
</clipPath>
<clipPath id="clip5_8579_21485">
<rect width="132.564" height="37.2837" fill="white" transform="translate(505.967 107.858)"/>
</clipPath>
<clipPath id="clip6_8579_21485">
<rect width="131.855" height="37.7841" fill="white" transform="translate(506.321 107.608)"/>
</clipPath>
<clipPath id="clip7_8579_21485">
<rect width="141.95" height="83" fill="white" transform="translate(702.531 85)"/>
</clipPath>
<clipPath id="clip8_8579_21485">
<rect width="141.95" height="24.8315" fill="white" transform="translate(702.531 114.084)"/>
</clipPath>
<clipPath id="clip9_8579_21485">
<rect width="141.95" height="21.9555" fill="white" transform="translate(702.531 115.522)"/>
</clipPath>
<clipPath id="clip10_8579_21485">
<rect width="150.934" height="83" fill="white" transform="translate(908.48 85)"/>
</clipPath>
<clipPath id="clip11_8579_21485">
<rect width="150.934" height="42.4502" fill="white" transform="translate(908.48 105.275)"/>
</clipPath>
<clipPath id="clip12_8579_21485">
<rect width="150.934" height="31.1051" fill="white" transform="translate(908.48 110.947)"/>
</clipPath>
<clipPath id="clip13_8579_21485">
<rect width="65" height="83" fill="white" transform="translate(1123.42 85)"/>
</clipPath>
<clipPath id="clip14_8579_21485">
<rect width="65" height="52.4208" fill="white" transform="translate(1123.42 100.29)"/>
</clipPath>
<clipPath id="clip15_8579_21485">
<rect width="65" height="52.546" fill="white" transform="translate(1123.42 100.227)"/>
</clipPath>
</defs>
</svg>
