<svg xmlns="http://www.w3.org/2000/svg" width="150.934" height="31.1051" viewBox="908.48 110.947 150.934 31.1051" fill="none">
<g clip-path="url(#clip10_8579_21485)">
<g clip-path="url(#clip11_8579_21485)">
<g clip-path="url(#clip12_8579_21485)">
<path d="M961.339 120.623H958.273V119.09H963.346V116.936H955.754V126.537H958.273V122.74H961.339V120.623Z" fill="black"/>
<path d="M970.143 126.537H972.99L971.056 122.85L971.129 122.813C972.26 122.302 972.844 121.353 972.844 120.039C972.844 117.958 971.64 116.936 969.121 116.936H964.851V126.537H967.333V123.251H968.574L970.143 126.537ZM967.333 118.98H969.048C969.888 118.98 970.326 119.382 970.326 120.112C970.326 120.915 969.888 121.28 969.012 121.28H967.333V118.98Z" fill="black"/>
<path d="M980.095 122.594V120.513H977.174V119.053H981.993V116.936H974.692V126.537H982.102V124.456H977.174V122.594H980.095Z" fill="black"/>
<path d="M991.273 123.653C991.273 121.973 990.397 121.17 987.806 120.549C986.565 120.257 986.127 120.075 986.127 119.637C986.127 119.162 986.455 118.943 987.222 118.943C988.134 118.943 989.01 119.235 989.923 119.819L991.164 117.848C990.105 117.118 988.901 116.789 987.368 116.789C985.068 116.789 983.608 117.957 983.608 119.783C983.608 121.718 984.703 122.302 987.039 122.849C988.353 123.142 988.755 123.397 988.755 123.835C988.755 124.419 988.244 124.565 987.404 124.565C986.492 124.565 985.287 124.091 984.557 123.616L983.353 125.588C984.448 126.281 985.944 126.719 987.368 126.719C988.791 126.719 991.273 126.318 991.273 123.653Z" fill="black"/>
<path d="M998.421 122.594V120.513H995.501V119.053H1000.32V116.936H993.019V126.537H1000.43V124.456H995.501V122.594H998.421Z" fill="black"/>
<path d="M1006.2 123.361L1008.5 126.537H1010.58V116.936H1008.17V119.528C1008.17 120.002 1008.17 121.572 1008.25 122.047L1008.32 122.594L1008.06 122.12C1007.85 121.718 1007.01 120.44 1006.53 119.82L1004.41 116.972H1002.15V126.574H1004.56V123.653C1004.56 123.032 1004.56 121.609 1004.49 121.134L1004.41 120.659L1004.63 121.061C1004.93 121.499 1005.77 122.74 1006.2 123.361Z" fill="black"/>
<path d="M1015.18 116.936H1012.59V126.537H1015.18V116.936Z" fill="black"/>
<path d="M1021.31 126.72C1024.05 126.72 1025.55 125.223 1025.55 122.485V116.936H1022.95V122.448C1022.95 124.128 1022.08 124.493 1021.35 124.493C1020.29 124.493 1019.74 123.799 1019.74 122.448V116.936H1017.15V122.448C1017.15 125.953 1019.41 126.72 1021.31 126.72Z" fill="black"/>
<path d="M1035.1 123.653C1035.1 121.973 1034.22 121.17 1031.63 120.549C1030.39 120.257 1029.95 120.075 1029.95 119.637C1029.95 119.162 1030.28 118.943 1031.04 118.943C1031.96 118.943 1032.83 119.235 1033.75 119.819L1034.99 117.848C1033.93 117.118 1032.72 116.789 1031.19 116.789C1028.89 116.789 1027.43 117.957 1027.43 119.783C1027.43 121.718 1028.53 122.302 1030.86 122.849C1032.18 123.142 1032.58 123.397 1032.58 123.835C1032.58 124.419 1032.07 124.565 1031.23 124.565C1030.31 124.565 1029.11 124.091 1028.38 123.616L1027.18 125.588C1028.27 126.281 1029.77 126.719 1031.19 126.719C1032.61 126.719 1035.1 126.318 1035.1 123.653Z" fill="black"/>
<path d="M963.02 138.694V140.958H965.393V131.319H963.093L961.925 133.875C961.305 135.226 960.867 136.284 960.684 136.796L960.611 137.088L960.538 136.796C960.392 136.211 959.845 135.007 959.297 133.875L958.129 131.319H955.793V140.921H958.166V138.694C958.166 137.599 958.166 136.796 958.093 136.102L958.056 135.591L958.239 136.065C958.531 136.759 959.005 137.891 959.37 138.621L960.575 141.177L961.779 138.621C962.144 137.891 962.619 136.759 962.911 136.065L963.093 135.591L963.057 136.102C963.057 136.796 963.02 137.599 963.02 138.694Z" fill="black"/>
<path d="M972.84 136.978V134.897H969.92V133.437H974.738V131.319H967.438V140.921H974.847V138.84H969.92V136.978H972.84Z" fill="black"/>
<path d="M979.927 131.319H976.605V140.921H979.708C983.358 140.921 984.891 139.461 984.891 136.065C984.891 132.78 983.358 131.319 979.927 131.319ZM979.854 138.804H979.197V133.473H979.964C981.643 133.473 982.3 134.203 982.3 136.102C982.3 138.073 981.606 138.804 979.854 138.804Z" fill="black"/>
<path d="M988.986 131.319H986.395V140.921H988.986V131.319Z" fill="black"/>
<path d="M994.872 131.174C992.208 131.174 990.492 133.109 990.492 136.139C990.492 139.206 992.171 141.104 994.872 141.104C997.245 141.104 998.267 139.753 998.815 138.695L996.661 137.563C996.186 138.402 995.785 138.914 994.872 138.914C993.777 138.914 993.12 137.891 993.12 136.139C993.12 134.387 993.741 133.364 994.836 133.364C995.785 133.364 996.15 134.021 996.478 134.825L998.778 133.912C998.158 132.233 997.281 131.174 994.872 131.174Z" fill="black"/>
<path d="M1005.84 139.205L1006.39 140.921H1009.13L1005.63 131.319H1003L999.493 140.921H1002.19L1002.74 139.205H1005.84ZM1003.58 136.467C1003.91 135.262 1004.09 134.715 1004.2 134.057L1004.27 133.619L1004.35 134.057C1004.46 134.642 1004.6 135.153 1004.9 136.175L1005.19 137.27H1003.33L1003.58 136.467Z" fill="black"/>
<path d="M1010.47 131.319V140.921H1017.37V138.731H1013.06V131.319H1010.47Z" fill="black"/>
<path d="M1027.34 131.174C1024.67 131.174 1022.96 133.109 1022.96 136.139C1022.96 139.206 1024.64 141.104 1027.34 141.104C1029.71 141.104 1030.73 139.753 1031.28 138.695L1029.13 137.563C1028.65 138.402 1028.25 138.914 1027.34 138.914C1026.24 138.914 1025.59 137.891 1025.59 136.139C1025.59 134.387 1026.21 133.364 1027.3 133.364C1028.25 133.364 1028.62 134.021 1028.95 134.825L1031.24 133.912C1030.59 132.233 1029.71 131.174 1027.34 131.174Z" fill="black"/>
<path d="M1038 139.205L1038.54 140.921H1041.28L1037.78 131.319H1035.15L1031.64 140.921H1034.35L1034.89 139.205H1038ZM1035.77 136.431C1036.1 135.226 1036.24 134.678 1036.39 134.057L1036.46 133.619L1036.54 134.057C1036.65 134.642 1036.79 135.153 1037.08 136.175L1037.38 137.27H1035.51L1035.77 136.431Z" fill="black"/>
<path d="M1047.74 140.921H1050.59L1048.62 137.234L1048.69 137.197C1049.82 136.686 1050.41 135.737 1050.41 134.423C1050.41 132.342 1049.2 131.319 1046.69 131.319H1042.42V140.921H1044.9V137.635H1046.14L1047.74 140.921ZM1044.9 133.364H1046.61C1047.45 133.364 1047.89 133.765 1047.89 134.496C1047.89 135.299 1047.45 135.664 1046.58 135.664H1044.9V133.364Z" fill="black"/>
<path d="M1057.4 136.978V134.897H1054.48V133.437H1059.3V131.319H1052V140.921H1059.41V138.84H1054.48V136.978H1057.4Z" fill="black"/>
<path d="M928.41 114.379L908.48 110.947L912.788 117.665L928.41 121.097L944.033 117.665L948.34 110.947L928.41 114.379Z" fill="black"/>
<path d="M928.427 126.318L916.746 123.835L920.725 130.041L928.427 132.013L936.128 130.005L940.107 123.835L928.427 126.318Z" fill="black"/>
<path d="M928.403 142.053L932.783 135.189L928.403 136.394L924.022 135.189L928.403 142.053Z" fill="black"/>
</g>
</g>
</g>
<defs>
<clipPath id="clip0_8579_21485">
<rect width="92.3351" height="83" fill="white" transform="translate(99.5859 85)"/>
</clipPath>
<clipPath id="clip1_8579_21485">
<rect width="92.3351" height="39.0527" fill="white" transform="translate(99.5859 106.974)"/>
</clipPath>
<clipPath id="clip2_8579_21485">
<rect width="92.3351" height="39.2364" fill="white" transform="translate(99.5859 106.882)"/>
</clipPath>
<clipPath id="clip3_8579_21485">
<rect width="186.045" height="83" fill="white" transform="translate(255.921 85)"/>
</clipPath>
<clipPath id="clip4_8579_21485">
<rect width="132.564" height="83" fill="white" transform="translate(505.967 85)"/>
</clipPath>
<clipPath id="clip5_8579_21485">
<rect width="132.564" height="37.2837" fill="white" transform="translate(505.967 107.858)"/>
</clipPath>
<clipPath id="clip6_8579_21485">
<rect width="131.855" height="37.7841" fill="white" transform="translate(506.321 107.608)"/>
</clipPath>
<clipPath id="clip7_8579_21485">
<rect width="141.95" height="83" fill="white" transform="translate(702.531 85)"/>
</clipPath>
<clipPath id="clip8_8579_21485">
<rect width="141.95" height="24.8315" fill="white" transform="translate(702.531 114.084)"/>
</clipPath>
<clipPath id="clip9_8579_21485">
<rect width="141.95" height="21.9555" fill="white" transform="translate(702.531 115.522)"/>
</clipPath>
<clipPath id="clip10_8579_21485">
<rect width="150.934" height="83" fill="white" transform="translate(908.48 85)"/>
</clipPath>
<clipPath id="clip11_8579_21485">
<rect width="150.934" height="42.4502" fill="white" transform="translate(908.48 105.275)"/>
</clipPath>
<clipPath id="clip12_8579_21485">
<rect width="150.934" height="31.1051" fill="white" transform="translate(908.48 110.947)"/>
</clipPath>
<clipPath id="clip13_8579_21485">
<rect width="65" height="83" fill="white" transform="translate(1123.42 85)"/>
</clipPath>
<clipPath id="clip14_8579_21485">
<rect width="65" height="52.4208" fill="white" transform="translate(1123.42 100.29)"/>
</clipPath>
<clipPath id="clip15_8579_21485">
<rect width="65" height="52.546" fill="white" transform="translate(1123.42 100.227)"/>
</clipPath>
</defs>
</svg>
