<svg xmlns="http://www.w3.org/2000/svg" width="65" height="52.546" viewBox="1123.42 100.227 65 52.546" fill="none">
<g clip-path="url(#clip13_8579_21485)">
<g clip-path="url(#clip14_8579_21485)">
<g clip-path="url(#clip15_8579_21485)">
<path d="M1135.99 146.902V142.481C1138.74 142.481 1139.76 142.336 1140.26 145.743H1140.55V141.974H1132.94V142.481H1134.25V152.266H1132.8V152.773H1140.62V148.787H1140.26C1139.9 151.831 1139.1 152.266 1136.93 152.266H1135.91V147.555H1136.49C1137.44 147.555 1138.02 148.135 1138.23 149.802H1138.6V144.873H1138.23C1138.23 144.873 1138.16 146.975 1136.49 146.975H1135.99V146.902ZM1132.87 147.047H1128.59V147.555H1130.04V151.034C1129.83 151.903 1128.45 152.266 1128.09 152.266C1125.33 152.266 1125.55 148.28 1125.55 147.192C1125.55 146.25 1125.48 142.119 1128.09 142.119C1129.97 142.119 1130.91 143.931 1131.28 145.598H1131.57V141.684C1131.57 141.684 1130.26 142.626 1130.26 142.554C1130.26 142.554 1129.68 141.684 1128.01 141.684C1124.82 141.684 1123.59 144.873 1123.59 147.12C1123.59 149.149 1124.53 152.701 1128.01 152.701C1129.1 152.701 1129.83 152.121 1130.26 151.541L1131.64 152.628V147.482H1132.8V147.047H1132.87ZM1182.81 148.714C1182.44 151.758 1181.65 152.193 1179.47 152.193H1179.33V142.481H1180.7V141.974H1176.21V142.481H1177.59V152.266H1176.5L1172.51 141.684H1171.94C1171.94 141.684 1168.6 151.251 1168.6 151.324C1168.6 151.324 1168.38 152.121 1167.8 152.266C1167.3 152.266 1167.37 152.048 1167.37 151.903V150.019C1167.37 149.512 1167.3 148.425 1166.86 147.917C1166.28 147.337 1165.34 147.337 1165.34 147.265C1165.34 147.265 1167.8 146.758 1167.8 144.438C1167.8 142.771 1166.64 141.974 1164.76 141.902H1159.4V142.409H1160.77V152.193H1159.4V152.701H1163.82V152.193H1162.44V147.482H1164.25C1167.44 147.772 1163.67 152.701 1167.88 152.701H1170.49V152.193C1170.34 152.193 1169.4 152.193 1169.33 151.541C1169.25 151.034 1169.98 149.294 1169.98 149.294H1173.6C1173.6 149.294 1174.69 152.193 1174.76 152.193H1173.53V152.701H1183.31V148.714H1182.81ZM1164.18 146.975H1162.44V142.481H1164.69C1165.99 142.699 1166.06 144.221 1166.06 144.656C1166.06 145.815 1165.56 146.975 1164.18 146.975ZM1170.27 148.859L1171.86 144.221L1173.53 148.859H1170.27ZM1154.03 142.409C1156.79 142.409 1157.87 142.264 1158.31 145.67H1158.6V141.902H1147.58V142.409H1147.87C1148.24 142.409 1149.18 142.409 1149.25 143.279V149.512L1144.1 141.902H1141.28V142.409H1141.71C1142.29 142.409 1143.02 142.409 1143.09 143.279V151.251C1143.09 152.048 1141.93 152.338 1141.42 152.338V152.701H1145.26V152.338C1144.76 152.338 1143.6 152.048 1143.6 151.251V144.221C1145.63 147.12 1149.47 152.701 1149.54 152.701H1149.76V143.279C1149.83 142.481 1150.7 142.409 1151.13 142.409H1152.37V152.193H1150.92V152.701H1158.74V148.714H1158.38C1158.02 151.758 1157.22 152.193 1155.05 152.193H1154.03V147.482H1154.61C1155.56 147.482 1156.14 148.062 1156.35 149.729H1156.71V144.801H1156.35C1156.35 144.801 1156.28 146.902 1154.61 146.902H1154.11V142.409H1154.03ZM1183.75 141.902V142.481H1185.13V152.193H1183.75V152.701H1188.17V152.193H1186.72V142.481H1188.17V141.902H1183.75ZM1176.5 135.234L1177.88 134.726C1179.84 133.929 1180.13 133.422 1179.98 132.117V126.899C1181.43 130.668 1182.88 133.277 1185.71 133.277C1186.07 133.277 1186.5 133.204 1186.94 133.132L1188.03 132.914L1187.23 132.045C1186.72 131.537 1186.5 131.102 1186.21 130.595C1186.07 130.378 1186 130.16 1185.85 129.943C1185.2 128.856 1183.6 128.493 1182.3 129.073C1181.72 127.913 1181.14 126.391 1180.41 124.507L1180.27 124.145C1180.13 123.855 1180.05 123.565 1179.91 123.275V123.202C1179.47 122.188 1178.97 121.246 1178.46 120.303C1177.95 119.434 1177.44 118.709 1176.86 118.057C1175.34 116.317 1173.38 115.23 1170.99 114.795C1169.33 114.505 1168.17 114.433 1166.64 114.36C1166.35 114.36 1165.99 114.36 1165.7 114.288C1165.05 114.215 1163.67 114.143 1162.3 113.998C1161.35 113.925 1160.48 113.853 1159.76 113.78C1159.83 113.563 1159.83 113.346 1159.83 113.128C1159.83 112.838 1159.83 112.548 1159.76 112.331H1169.33C1171.79 112.331 1173.6 111.244 1174.62 109.069C1177.08 109.069 1178.82 107.91 1179.91 105.808H1180.27C1182.81 105.808 1184.62 104.648 1185.71 102.329L1186.07 101.677H1153.74C1151.64 101.677 1149.83 103.054 1149.1 105.228V105.301C1148.52 103.779 1147.58 102.474 1146.28 101.677C1144.47 100.59 1142.44 100.227 1140.84 100.734C1140.34 100.879 1139.76 101.097 1139.32 101.387C1138.96 101.677 1138.38 102.039 1138.02 102.546C1137.58 103.054 1137.22 103.706 1136.93 104.286C1136.71 104.431 1136.57 104.576 1136.49 104.721L1136.13 105.446V105.518C1135.7 106.533 1135.12 107.257 1134.68 107.837C1134.25 108.345 1134.25 108.852 1134.25 109.142C1134.32 109.504 1134.46 109.794 1134.68 110.012C1134.54 110.229 1134.46 110.519 1134.46 110.736C1134.46 111.606 1135.19 112.258 1136.13 112.258C1136.78 112.258 1137.36 111.968 1137.94 111.534C1138.16 111.389 1138.81 110.954 1139.03 110.954C1139.32 110.954 1139.54 111.171 1139.54 111.461C1139.54 112.186 1138.67 112.548 1138.02 112.548L1136.71 112.693C1135.77 112.766 1135.33 113.273 1135.33 113.708C1135.33 114.143 1135.55 114.433 1135.7 114.578L1135.77 114.65L1136.13 114.94L1134.61 117.259C1133.59 116.317 1132.43 115.81 1131.42 115.737C1130.77 115.737 1130.19 115.882 1129.75 116.317C1129.61 116.462 1129.54 116.535 1129.46 116.679C1128.38 116.679 1127.51 117.259 1127.07 117.912C1126.56 118.636 1126.78 119.868 1127.36 120.811L1123.74 121.825V138.64H1188.24V135.306H1176.5V135.234ZM1184.84 130.668C1184.98 130.885 1185.05 131.102 1185.2 131.247C1185.34 131.465 1185.49 131.682 1185.63 131.972C1184.62 131.9 1183.82 131.32 1183.17 130.305C1183.75 130.015 1184.55 130.233 1184.84 130.668ZM1170.85 116.317C1172.95 116.679 1174.62 117.622 1175.92 119.071C1176.21 119.361 1176.43 119.724 1176.72 120.086C1173.24 119.651 1172.01 119.144 1170.05 116.172C1170.34 116.172 1170.56 116.245 1170.85 116.317ZM1169.33 111.244H1162.73C1163.31 110.736 1163.75 110.084 1164.11 109.359H1173.02C1172.3 110.664 1171.07 111.244 1169.33 111.244ZM1174.54 108.055H1167.95C1168.53 107.547 1169.04 106.895 1169.4 106.098H1178.31C1177.59 107.402 1176.36 108.055 1174.54 108.055ZM1175.05 103.054H1183.89C1183.02 104.213 1181.86 104.793 1180.2 104.793H1173.6C1174.18 104.286 1174.69 103.706 1175.05 103.054ZM1139.1 103.344C1139.32 103.054 1139.68 102.764 1140.05 102.474C1140.34 102.257 1140.77 102.039 1141.2 101.967C1141.86 101.822 1142.58 101.822 1143.31 101.967L1140.91 103.416C1140.62 103.416 1140.34 103.344 1140.05 103.344C1139.61 103.344 1139.25 103.344 1138.96 103.416C1139.03 103.416 1139.03 103.416 1139.1 103.344ZM1136.35 113.78C1136.35 113.708 1136.42 113.635 1136.49 113.635L1137.65 113.708C1139.03 113.635 1140.48 113.056 1140.62 111.606C1140.62 110.591 1139.9 109.649 1138.96 109.649C1138.45 109.649 1137.8 110.012 1137.15 110.446C1136.71 110.736 1136.35 110.954 1136.13 110.954C1135.99 110.954 1135.84 110.809 1135.84 110.736V110.664L1136.57 109.649L1135.91 109.214C1135.77 109.142 1135.55 108.924 1135.55 108.852C1135.55 108.779 1135.62 108.707 1135.62 108.635C1135.91 108.345 1136.2 107.982 1136.49 107.475C1136.71 107.185 1136.78 107.04 1137.07 107.04C1137.36 107.04 1137.65 107.257 1137.65 107.62C1137.65 107.837 1137.87 107.982 1138.16 107.982C1138.45 107.982 1138.6 107.765 1138.74 107.62C1138.74 107.62 1139.39 107.04 1139.03 106.75C1138.67 106.46 1137.07 107.112 1137.51 105.663L1137.65 105.446C1137.8 105.228 1138.6 104.648 1140.12 104.648C1140.41 104.648 1140.7 104.648 1141.06 104.721H1141.28L1144.61 102.691C1144.61 102.764 1144.68 102.836 1144.68 102.836C1144.83 103.851 1144.25 105.011 1143.23 105.59L1142.8 105.808L1143.09 107.33C1142.22 107.62 1141.64 108.272 1141.64 109.069C1141.64 109.359 1141.71 109.722 1141.78 110.084C1141.86 110.591 1142 111.099 1142 111.606C1142 113.201 1139.83 114.215 1138.02 114.143H1137.94C1137.87 114.143 1136.71 114.07 1136.42 113.853C1136.35 113.925 1136.35 113.853 1136.35 113.78ZM1128.09 118.709C1128.38 118.274 1128.96 117.984 1129.68 118.057L1130.26 118.129L1130.48 117.622C1130.55 117.477 1130.62 117.332 1130.7 117.259C1130.84 117.114 1131.13 117.042 1131.42 117.042C1132.22 117.042 1133.23 117.622 1134.03 118.491C1134.32 118.781 1134.61 119.216 1134.83 119.579C1134.9 119.651 1134.9 119.724 1134.97 119.796C1135.04 119.868 1135.12 120.013 1135.12 120.013C1135.12 120.086 1135.55 120.666 1135.55 120.738C1135.84 120.376 1136.13 119.941 1136.35 119.579V119.506C1136.28 119.361 1136.13 119.144 1136.06 118.999L1135.99 118.926C1135.99 118.926 1135.91 118.854 1135.91 118.781C1135.84 118.636 1135.7 118.419 1135.62 118.346L1137.36 115.592C1137.8 115.665 1138.16 115.665 1138.38 115.665H1138.45C1140.91 115.665 1143.45 114.215 1143.45 111.896V111.824C1143.45 111.171 1143.31 110.591 1143.23 110.084C1143.16 109.722 1143.09 109.432 1143.09 109.287C1143.09 108.997 1143.45 108.707 1143.96 108.707H1144.76L1144.39 106.678C1145.48 105.88 1146.21 104.503 1146.13 103.271C1147.37 104.213 1148.16 105.808 1148.31 107.475C1148.38 107.982 1148.24 108.635 1148.09 109.359L1148.02 109.649C1147.73 110.809 1147.29 112.041 1147.08 112.621L1146.86 113.128L1147.37 113.418C1148.24 113.925 1148.81 114.288 1148.81 115.447C1148.81 116.824 1147.58 117.839 1146.42 118.057L1144.76 118.346L1146.13 119.289C1146.57 119.579 1146.86 120.086 1146.86 120.593C1146.86 121.463 1146.13 122.115 1145.26 122.115H1144.76L1144.61 122.55C1144.1 124.145 1143.6 124.942 1141.86 125.159V123.492V122.768L1141.78 121.246L1140.7 122.333C1140.34 122.695 1139.68 122.985 1138.96 123.13V121.825L1131.35 119.796L1128.67 120.521C1128.09 119.941 1127.94 118.926 1128.09 118.709ZM1125.91 135.234L1131.42 133.784L1136.93 135.234H1125.91ZM1137.65 134.074L1131.35 132.407L1125.04 134.074V122.84L1131.35 121.173L1137.65 122.84V134.074ZM1140.62 131.9C1140.05 132.697 1139.97 133.857 1140.41 135.234H1139.03V124.507C1139.54 124.435 1140.05 124.29 1140.55 124.072C1140.55 124.507 1140.48 124.942 1140.41 125.377C1140.41 125.522 1140.34 125.594 1140.34 125.739L1140.19 126.536H1140.99C1142.15 126.536 1143.02 126.319 1143.74 126.029V130.523C1143.74 130.668 1143.67 130.74 1143.52 130.74H1143.31C1142.15 130.668 1141.13 131.102 1140.62 131.9ZM1155.12 132.19C1154.61 132.769 1154.18 133.712 1154.47 135.234H1146.28C1147.15 135.161 1147.8 134.944 1148.24 134.509C1148.74 133.929 1148.81 133.204 1148.81 132.624C1148.81 132.552 1148.89 132.407 1149.32 132.19L1150.05 131.9L1149.61 131.247C1148.89 130.16 1149.25 127.841 1149.47 126.536H1149.54C1152.29 126.536 1154.11 125.957 1155.99 125.377C1156.5 125.232 1157 125.087 1157.51 124.869C1158.02 124.652 1158.09 124.724 1158.82 124.507L1161.5 128.928V129.001C1161.79 129.363 1161.79 129.653 1161.28 130.16L1159.98 131.61L1157.8 131.175C1156.86 131.03 1155.77 131.465 1155.12 132.19ZM1155.85 135.234C1155.63 134.291 1155.7 133.567 1156.14 133.059C1156.57 132.552 1157.15 132.48 1157.66 132.48L1160.19 132.914H1160.63L1162.44 130.957C1162.73 130.595 1163.67 129.508 1162.73 128.131L1160.34 124.217C1160.7 124.145 1161.14 124.145 1161.5 124.145C1161.86 124.145 1162.73 124.145 1164.04 124.869C1164.18 125.232 1164.47 125.739 1164.69 126.319C1165.19 127.334 1165.85 128.638 1165.99 129.146C1166.06 129.291 1166.21 129.798 1165.63 130.45L1161.06 135.306H1155.85V135.234ZM1171.5 135.234H1162.8L1166.5 131.32C1167.22 130.523 1167.51 129.58 1167.15 128.711C1167.01 128.203 1166.5 127.189 1165.99 126.102C1167.44 126.754 1169.69 127.406 1174.25 127.768C1174.83 127.841 1174.98 127.986 1175.05 128.493L1175.27 130.45L1172.88 130.957C1172.08 131.102 1171.43 131.61 1171.14 132.407C1170.85 133.277 1170.99 134.291 1171.5 135.234ZM1172.44 132.914C1172.59 132.552 1172.8 132.335 1173.17 132.262L1176.72 131.465L1176.43 128.276V128.203C1176.36 127.768 1176.07 126.536 1174.4 126.391C1168.02 125.884 1166.57 124.942 1164.98 123.927L1164.9 123.855C1163.24 122.768 1161.57 122.768 1161.43 122.768C1159.61 122.768 1157.37 123.492 1157.15 123.565C1156.57 123.71 1156.06 123.927 1155.56 124.072C1153.53 124.724 1151.86 125.304 1148.96 125.159H1148.45L1148.31 125.667C1148.24 126.029 1147.37 129.291 1148.16 131.32C1147.44 131.9 1147.44 132.48 1147.44 132.624C1147.44 133.349 1147.29 133.494 1147.22 133.567C1146.86 133.929 1145.77 133.929 1144.83 133.929H1144.47L1144.25 134.219C1143.67 135.016 1142.44 135.234 1141.64 135.016C1141.28 133.929 1141.28 133.132 1141.64 132.624C1142.07 132.045 1142.87 131.972 1143.23 131.972H1143.45C1144.32 131.972 1144.97 131.247 1144.97 130.45V124.724C1145.26 124.362 1145.41 123.855 1145.63 123.347C1147 123.13 1148.09 121.97 1148.09 120.521C1148.09 119.941 1147.95 119.434 1147.66 118.999C1148.96 118.346 1150.05 117.114 1150.05 115.447C1150.05 113.78 1149.18 112.983 1148.38 112.548C1148.6 111.896 1148.96 110.809 1149.25 109.649L1150.34 105.663C1150.84 104.068 1152.15 103.054 1153.67 103.054H1173.38C1172.51 104.213 1171.36 104.793 1169.69 104.793H1157.87L1157.22 106.098H1167.95C1167.08 107.402 1165.85 108.055 1164.11 108.055H1156.35L1155.7 109.359H1162.59C1161.72 110.664 1160.56 111.244 1158.82 111.244H1154.61L1153.96 112.548H1158.38C1158.45 112.621 1158.53 112.838 1158.53 113.346C1158.53 114.215 1157.8 114.868 1156.93 114.868C1156.64 114.868 1156.35 114.795 1155.92 114.578C1155.7 114.505 1155.56 114.433 1155.34 114.36L1154.32 115.302C1154.54 115.375 1154.69 115.447 1154.9 115.52C1155.77 115.882 1156.28 116.1 1156.93 116.1C1157.73 116.1 1158.45 115.737 1159.03 115.23C1159.76 115.302 1160.99 115.375 1162.22 115.447C1163.67 115.592 1164.98 115.665 1165.7 115.737C1166.06 115.737 1166.35 115.737 1166.72 115.81C1167.3 115.81 1167.88 115.882 1168.38 115.882C1171.07 120.231 1172.44 120.811 1177.66 121.463C1178.02 122.115 1178.39 122.84 1178.68 123.565V132.697C1178.46 132.914 1177.66 133.277 1177.44 133.349L1173.02 135.161C1172.44 134.364 1172.23 133.567 1172.44 132.914Z" fill="black"/>
<path d="M1132.06 124.869L1136.27 125.956V124.579L1132.06 123.492V124.869ZM1130.69 123.492L1126.48 124.579V125.956L1130.69 124.869V123.492ZM1130.69 126.246L1126.48 127.333V128.71L1130.69 127.623V126.246ZM1132.06 127.623L1136.27 128.71V127.333L1132.06 126.246V127.623ZM1132.06 130.377L1136.27 131.464V130.087L1132.06 129V130.377ZM1130.69 129L1126.48 130.087V131.464L1130.69 130.377V129Z" fill="black"/>
</g>
</g>
</g>
<defs>
<clipPath id="clip0_8579_21485">
<rect width="92.3351" height="83" fill="white" transform="translate(99.5859 85)"/>
</clipPath>
<clipPath id="clip1_8579_21485">
<rect width="92.3351" height="39.0527" fill="white" transform="translate(99.5859 106.974)"/>
</clipPath>
<clipPath id="clip2_8579_21485">
<rect width="92.3351" height="39.2364" fill="white" transform="translate(99.5859 106.882)"/>
</clipPath>
<clipPath id="clip3_8579_21485">
<rect width="186.045" height="83" fill="white" transform="translate(255.921 85)"/>
</clipPath>
<clipPath id="clip4_8579_21485">
<rect width="132.564" height="83" fill="white" transform="translate(505.967 85)"/>
</clipPath>
<clipPath id="clip5_8579_21485">
<rect width="132.564" height="37.2837" fill="white" transform="translate(505.967 107.858)"/>
</clipPath>
<clipPath id="clip6_8579_21485">
<rect width="131.855" height="37.7841" fill="white" transform="translate(506.321 107.608)"/>
</clipPath>
<clipPath id="clip7_8579_21485">
<rect width="141.95" height="83" fill="white" transform="translate(702.531 85)"/>
</clipPath>
<clipPath id="clip8_8579_21485">
<rect width="141.95" height="24.8315" fill="white" transform="translate(702.531 114.084)"/>
</clipPath>
<clipPath id="clip9_8579_21485">
<rect width="141.95" height="21.9555" fill="white" transform="translate(702.531 115.522)"/>
</clipPath>
<clipPath id="clip10_8579_21485">
<rect width="150.934" height="83" fill="white" transform="translate(908.48 85)"/>
</clipPath>
<clipPath id="clip11_8579_21485">
<rect width="150.934" height="42.4502" fill="white" transform="translate(908.48 105.275)"/>
</clipPath>
<clipPath id="clip12_8579_21485">
<rect width="150.934" height="31.1051" fill="white" transform="translate(908.48 110.947)"/>
</clipPath>
<clipPath id="clip13_8579_21485">
<rect width="65" height="83" fill="white" transform="translate(1123.42 85)"/>
</clipPath>
<clipPath id="clip14_8579_21485">
<rect width="65" height="52.4208" fill="white" transform="translate(1123.42 100.29)"/>
</clipPath>
<clipPath id="clip15_8579_21485">
<rect width="65" height="52.546" fill="white" transform="translate(1123.42 100.227)"/>
</clipPath>
</defs>
</svg>
