<svg xmlns="http://www.w3.org/2000/svg" width="131.855" height="37.7841" viewBox="506.321 107.608 131.855 37.7841" fill="none">
<g clip-path="url(#clip4_8579_21485)">
<g clip-path="url(#clip5_8579_21485)">
<g clip-path="url(#clip6_8579_21485)">
<path d="M594.08 139.792V140.757C594.08 141.692 594.07 142.524 594.048 143.251C594.028 143.979 593.996 144.694 593.953 145.392C594.132 145.369 594.324 145.359 594.532 145.359H595.938C596.146 145.359 596.338 145.369 596.516 145.392C596.474 144.694 596.442 143.979 596.422 143.251C596.403 142.524 596.39 141.692 596.39 140.757V138.457C596.39 137.521 596.399 136.69 596.422 135.962C596.442 135.235 596.474 134.504 596.516 133.77C596.338 133.792 596.146 133.812 595.938 133.828C595.73 133.844 595.496 133.854 595.233 133.854C594.97 133.854 594.74 133.844 594.528 133.828C594.32 133.812 594.129 133.792 593.95 133.77C593.992 134.504 594.022 135.228 594.044 135.943C594.064 136.661 594.077 137.486 594.077 138.421V139.792H594.08Z" fill="black"/>
<path d="M589.329 139.792V140.757C589.329 141.692 589.339 142.524 589.361 143.251C589.381 143.979 589.413 144.694 589.455 145.392C589.28 145.369 589.085 145.359 588.877 145.359H587.471C587.263 145.359 587.068 145.369 586.893 145.392C586.935 144.694 586.964 143.979 586.987 143.251C587.006 142.524 587.019 141.692 587.019 140.757V138.457C587.019 137.521 587.01 136.69 586.987 135.962C586.964 135.235 586.935 134.504 586.893 133.77C587.068 133.792 587.263 133.812 587.471 133.828C587.679 133.844 587.913 133.854 588.172 133.854C588.432 133.854 588.666 133.844 588.877 133.828C589.088 133.812 589.28 133.792 589.455 133.77C589.404 134.504 589.371 135.228 589.355 135.943C589.339 136.661 589.332 137.486 589.332 138.421V139.792H589.329Z" fill="black"/>
<path d="M535.357 116.264H538.027C537.82 117.658 537.82 120.912 537.82 122.813C537.82 125.616 537.859 127.649 538.008 129.173H535.338C535.546 126.935 535.546 123.829 535.546 120.614C535.546 119.428 535.546 118.093 535.357 116.267" fill="black"/>
<path d="M547.568 116.114C549.111 116.114 550.465 116.377 551.969 117.056L551.404 118.901H551.216C550.988 118.45 550.332 117.134 547.623 117.134C544.482 117.134 542.806 119.203 542.806 122.76C542.806 124.19 543.069 125.544 543.953 126.694C544.628 127.577 545.645 128.406 547.357 128.406C548.24 128.406 549.277 128.217 550.03 127.727C550.085 126.411 550.085 126.259 550.085 126.015C550.085 125.093 550.03 124.17 549.972 123.251H552.492C552.379 123.926 552.343 125.905 552.343 126.411C552.343 127.126 552.362 127.597 552.398 128.123C550.8 128.971 548.747 129.442 546.941 129.442C543.274 129.442 540.224 127.165 540.224 122.932C540.224 119.151 542.536 116.121 547.562 116.121" fill="black"/>
<path d="M563.813 122.832C562.796 122.793 561.78 122.758 560.766 122.758C559.694 122.758 558.622 122.797 557.55 122.832V124.713C557.55 127.14 557.625 127.987 557.719 129.173H555.085C555.234 126.315 555.254 123.472 555.254 120.614C555.254 119.146 555.199 117.716 555.065 116.268H557.719C557.625 117.304 557.55 118.113 557.55 121.631C558.492 121.669 559.451 121.705 560.393 121.705C561.539 121.705 562.67 121.666 563.816 121.631C563.816 121.14 563.797 118.866 563.777 118.395C563.777 117.811 563.758 117.661 563.683 116.268H566.373C566.129 118.223 566.11 122.777 566.11 124.733C566.11 126.22 566.11 127.818 566.298 129.173H563.644C563.664 128.835 563.794 126.558 563.794 125.863L563.813 122.832Z" fill="black"/>
<path d="M571.842 117.45C573.083 119.99 573.609 120.987 575.399 124.187L576.415 125.993L577.111 124.768C578.878 121.663 579.706 120.104 581.626 116.264H582.435L582.584 117.827C582.792 120.045 583.035 122.118 583.338 124.375C583.487 125.506 583.883 128.231 584.091 129.173H581.457L581.402 128.478C581.363 128.101 581.268 126.428 581.233 126.087C581.138 125.223 580.687 121.422 580.632 120.63C579.371 122.774 577.263 126.613 576.152 129.173H575.418C574.704 127.744 574.233 126.954 572.823 124.226C572.54 123.68 571.205 121.309 570.942 120.822C570.604 123.456 570.283 126.353 570.153 129.176H568.496L568.61 128.591C569.061 126.259 570.192 118.45 570.416 116.267H571.26L571.845 117.453L571.842 117.45Z" fill="black"/>
<path d="M590.394 119.296L588.475 123.925C589.134 123.944 589.774 123.999 590.43 123.999C591.011 123.999 591.577 123.96 592.161 123.925L590.394 119.296ZM593.5 127.085L592.71 125.091C591.902 125.052 591.112 125.016 590.303 125.016C589.55 125.016 588.799 125.052 588.046 125.091C587.445 126.54 586.841 128.102 586.542 129.174H584.791L586.974 124.321C588.874 120.069 589.966 117.623 590.417 116.08H591.642C592.545 118.659 593.675 121.29 594.351 122.872C595.065 124.509 596.306 127.348 597.154 129.174H594.296L593.506 127.085H593.5Z" fill="black"/>
<path d="M600.795 122.153C601.153 122.173 601.604 122.209 602.095 122.209C603.976 122.209 604.671 120.835 604.671 119.613C604.671 118.824 604.538 118.145 603.881 117.658C603.375 117.281 602.751 117.187 602.131 117.187C601.773 117.187 601.078 117.262 600.795 117.281V122.153ZM604.408 123.528C604.69 123.924 605.103 124.544 605.385 124.937C606.87 127.026 607.38 127.685 608.565 129.17H605.366C605.083 128.738 604.671 128.039 604.388 127.607C603.43 126.12 602.26 124.466 601.247 123.037H600.795V125.71C600.795 126.256 600.87 128.683 600.87 129.173H598.311C598.46 125.467 598.479 125.054 598.479 121.423C598.479 118.957 598.479 118.694 598.35 116.268H603.336C604.557 116.268 605.48 116.417 606.288 117.19C606.854 117.736 607.152 118.506 607.152 119.298C607.152 121.387 605.59 122.459 603.878 122.777L604.404 123.531L604.408 123.528Z" fill="black"/>
<path d="M610.055 116.264H612.689C612.559 117.187 612.559 118.561 612.54 119.236C612.52 120.178 612.52 121.25 612.52 122.228C613.914 121.003 614.664 120.214 615.736 119.048C616.565 118.145 617.581 117.053 618.143 116.264H620.287C619.329 117.073 618.01 118.333 617.221 119.106C616.279 120.029 615.98 120.312 614.606 121.815L615.603 123.131C616.561 124.391 619.27 127.964 620.589 129.17H617.315C615.98 127.289 614.512 125.22 612.517 123.017C612.517 125.087 612.517 127.175 612.686 129.17H610.052C610.221 125.99 610.221 125.782 610.221 120.61C610.221 118.467 610.201 118.145 610.052 116.264" fill="black"/>
<path d="M622.61 127.28C622.061 127.28 621.609 127.728 621.609 128.274C621.609 128.819 622.058 129.271 622.61 129.271C623.162 129.271 623.604 128.823 623.604 128.274C623.604 127.725 623.159 127.28 622.61 127.28ZM622.61 129.112C622.123 129.112 621.769 128.764 621.769 128.274C621.769 127.783 622.119 127.439 622.61 127.439C623.1 127.439 623.445 127.79 623.445 128.274C623.445 128.758 623.097 129.112 622.61 129.112Z" fill="black"/>
<path d="M623.127 128.014C623.127 127.81 623.026 127.699 622.731 127.699H622.24V128.839H622.383V128.333H622.63L622.952 128.839H623.117L622.779 128.333C622.978 128.316 623.13 128.232 623.13 128.014M622.588 128.199H622.386V127.832H622.701C622.838 127.832 622.971 127.852 622.971 128.011C622.971 128.225 622.747 128.199 622.588 128.199Z" fill="black"/>
<path d="M547.12 139.75C546.724 139.733 546.327 139.724 545.931 139.724C545.535 139.724 545.139 139.73 544.742 139.74C544.346 139.75 543.95 139.769 543.553 139.792V140.757C543.553 141.692 543.563 142.524 543.586 143.251C543.605 143.979 543.638 144.694 543.68 145.392C543.505 145.369 543.31 145.359 543.102 145.359H541.695C541.487 145.359 541.293 145.369 541.117 145.392C541.159 144.694 541.189 143.979 541.211 143.251C541.231 142.524 541.244 141.692 541.244 140.757V138.457C541.244 137.521 541.234 136.69 541.211 135.962C541.189 135.235 541.159 134.504 541.117 133.77C541.293 133.792 541.487 133.812 541.695 133.828C541.903 133.844 542.137 133.854 542.397 133.854C542.657 133.854 542.891 133.844 543.102 133.828C543.313 133.812 543.505 133.792 543.68 133.77C543.628 134.504 543.596 135.228 543.579 135.943C543.563 136.661 543.557 137.486 543.557 138.421C543.826 138.434 544.154 138.441 544.534 138.447C544.914 138.454 545.385 138.457 545.947 138.457C546.509 138.457 546.967 138.457 547.321 138.447C547.675 138.441 548.004 138.434 548.306 138.421C548.306 137.486 548.296 136.661 548.273 135.943C548.254 135.225 548.221 134.5 548.179 133.77C548.358 133.792 548.549 133.812 548.757 133.828C548.965 133.844 549.199 133.854 549.462 133.854C549.725 133.854 549.956 133.844 550.167 133.828C550.375 133.812 550.566 133.792 550.745 133.77C550.703 134.504 550.67 135.235 550.651 135.962C550.631 136.69 550.618 137.521 550.618 138.457V140.757C550.618 141.692 550.628 142.524 550.651 143.251C550.67 143.979 550.703 144.694 550.745 145.392C550.566 145.369 550.375 145.359 550.167 145.359H548.76C548.553 145.359 548.361 145.369 548.182 145.392C548.224 144.694 548.254 143.979 548.276 143.251C548.296 142.524 548.309 141.692 548.309 140.757V139.792C547.913 139.782 547.516 139.766 547.12 139.75Z" fill="black"/>
<path d="M553.29 135.959C553.271 135.231 553.245 134.5 553.209 133.77C553.677 133.783 554.135 133.799 554.593 133.822C555.048 133.844 555.509 133.854 555.977 133.854C556.743 133.854 557.425 133.844 558.023 133.828C558.617 133.812 559.02 133.792 559.228 133.77C559.186 133.951 559.166 134.189 559.166 134.481C559.166 134.663 559.173 134.802 559.183 134.903C559.192 135.004 559.209 135.118 559.228 135.241C558.926 135.218 558.598 135.196 558.241 135.173C557.883 135.15 557.536 135.127 557.198 135.105C556.86 135.082 556.558 135.066 556.288 135.053C556.019 135.043 555.827 135.036 555.713 135.036C555.671 135.657 555.648 136.271 555.645 136.881C555.642 137.492 555.639 138.106 555.639 138.726C556.311 138.717 556.922 138.697 557.464 138.674C558.01 138.652 558.575 138.622 559.166 138.59C559.134 138.782 559.114 138.928 559.105 139.029C559.095 139.129 559.088 139.236 559.088 139.35C559.088 139.441 559.095 139.535 559.111 139.629C559.127 139.727 559.144 139.863 559.166 140.045C557.984 139.945 556.808 139.893 555.635 139.893C555.635 140.253 555.635 140.614 555.629 140.974C555.622 141.335 555.622 141.695 555.622 142.056C555.622 142.79 555.639 143.495 555.668 144.171C556.259 144.171 556.85 144.154 557.442 144.119C558.033 144.086 558.627 144.028 559.231 143.95C559.209 144.073 559.196 144.187 559.186 144.287C559.176 144.388 559.17 144.531 559.17 144.71C559.17 144.888 559.176 145.031 559.186 145.132C559.196 145.233 559.212 145.317 559.231 145.385C558.952 145.376 558.608 145.366 558.198 145.359C557.789 145.353 557.227 145.35 556.512 145.35H554.047C553.813 145.35 553.638 145.35 553.518 145.359C553.397 145.366 553.297 145.372 553.215 145.385C553.251 144.687 553.277 143.972 553.297 143.245C553.313 142.517 553.323 141.686 553.323 140.75V138.45C553.323 137.515 553.313 136.683 553.297 135.956" fill="black"/>
<path d="M569.144 142.988C568.78 142.039 568.407 141.039 568.02 139.986C567.637 138.934 567.253 137.859 566.873 136.764C566.493 135.669 566.139 134.643 565.805 133.685C565.701 133.707 565.603 133.727 565.509 133.743C565.415 133.759 565.318 133.769 565.214 133.769C565.11 133.769 565.012 133.759 564.918 133.743C564.824 133.727 564.726 133.707 564.622 133.685C564.395 134.328 564.142 135.02 563.866 135.763C563.589 136.507 563.31 137.264 563.024 138.031C562.738 138.797 562.453 139.557 562.167 140.305C561.881 141.055 561.614 141.757 561.364 142.409C561.114 143.062 560.887 143.65 560.679 144.167C560.471 144.687 560.305 145.093 560.179 145.385C560.325 145.362 560.458 145.352 560.585 145.352H561.325C561.446 145.352 561.566 145.362 561.692 145.385C561.839 144.833 561.998 144.267 562.176 143.693C562.352 143.118 562.547 142.543 562.755 141.968C563.024 141.958 563.294 141.948 563.567 141.942C563.836 141.935 564.106 141.932 564.376 141.932C564.707 141.932 565.041 141.932 565.373 141.942C565.704 141.948 566.039 141.955 566.37 141.968C566.568 142.543 566.753 143.118 566.932 143.693C567.107 144.267 567.279 144.833 567.445 145.385C567.663 145.362 567.884 145.352 568.108 145.352H569.433C569.657 145.352 569.894 145.362 570.141 145.385C569.839 144.732 569.508 143.93 569.144 142.981M565.334 138.953C565.558 139.613 565.782 140.288 566.013 140.974H563.161C563.388 140.285 563.622 139.613 563.862 138.953C564.103 138.294 564.356 137.625 564.626 136.949C564.876 137.625 565.113 138.294 565.334 138.953Z" fill="black"/>
<path d="M571.807 135.959C571.788 135.231 571.755 134.5 571.713 133.77C571.889 133.792 572.08 133.812 572.288 133.828C572.496 133.844 572.73 133.854 572.987 133.854C573.243 133.854 573.48 133.844 573.685 133.828C573.893 133.812 574.084 133.792 574.26 133.77C574.218 134.504 574.188 135.235 574.166 135.959C574.146 136.686 574.133 137.518 574.133 138.454V140.753C574.133 141.397 574.133 142.017 574.14 142.615C574.146 143.212 574.153 143.732 574.162 144.171C574.754 144.171 575.345 144.154 575.936 144.119C576.527 144.086 577.122 144.028 577.726 143.95C577.706 144.073 577.69 144.187 577.68 144.287C577.671 144.388 577.664 144.531 577.664 144.71C577.664 144.888 577.667 145.031 577.68 145.132C577.69 145.233 577.706 145.317 577.726 145.385C577.446 145.376 577.102 145.366 576.693 145.359C576.284 145.353 575.722 145.35 575.007 145.35H572.542C572.308 145.35 572.132 145.35 572.012 145.359C571.892 145.366 571.791 145.372 571.71 145.385C571.752 144.687 571.781 143.972 571.804 143.245C571.824 142.517 571.837 141.686 571.837 140.75V138.45C571.837 137.515 571.827 136.683 571.804 135.956" fill="black"/>
<path d="M580.086 135.628C580.079 135.358 580.066 135.16 580.047 135.037C579.891 135.037 579.699 135.043 579.468 135.053C579.241 135.062 578.994 135.079 578.734 135.095C578.474 135.111 578.208 135.134 577.939 135.163C577.669 135.192 577.419 135.222 577.191 135.257C577.211 135.134 577.23 135.011 577.247 134.884C577.263 134.76 577.269 134.637 577.269 134.51C577.269 134.384 577.263 134.263 577.247 134.137C577.23 134.013 577.214 133.89 577.191 133.763C577.545 133.776 577.864 133.786 578.15 133.796C578.436 133.809 578.728 133.815 579.023 133.822C579.319 133.828 579.641 133.835 579.991 133.838C580.339 133.844 580.758 133.848 581.245 133.848C581.733 133.848 582.152 133.848 582.499 133.838C582.847 133.831 583.168 133.828 583.457 133.822C583.75 133.815 584.032 133.809 584.308 133.796C584.585 133.786 584.883 133.773 585.205 133.763C585.182 133.887 585.166 134.01 585.15 134.137C585.133 134.26 585.127 134.384 585.127 134.51C585.127 134.637 585.133 134.76 585.15 134.884C585.166 135.007 585.182 135.134 585.205 135.257C584.997 135.225 584.763 135.192 584.503 135.163C584.243 135.134 583.987 135.111 583.73 135.095C583.477 135.079 583.233 135.062 583.006 135.053C582.778 135.043 582.584 135.037 582.428 135.037C582.418 135.092 582.408 135.173 582.405 135.274C582.398 135.374 582.398 135.495 582.398 135.628V140.757C582.398 141.692 582.408 142.527 582.431 143.255C582.45 143.982 582.483 144.697 582.525 145.395C582.35 145.373 582.155 145.363 581.947 145.363H580.544C580.336 145.363 580.144 145.373 579.965 145.395C580.008 144.697 580.037 143.982 580.06 143.255C580.079 142.527 580.092 141.696 580.092 140.757V136.527C580.092 136.199 580.092 135.901 580.086 135.631" fill="black"/>
<path d="M529.72 122.832L529.7 125.863C529.7 126.558 529.57 128.835 529.551 129.173H532.205C532.016 127.818 532.016 126.22 532.016 124.733C532.016 122.777 532.036 118.223 532.279 116.268H529.59C529.664 117.661 529.684 117.811 529.684 118.395C529.703 118.866 529.723 121.143 529.723 121.631V122.836L529.72 122.832Z" fill="black"/>
<path d="M523.446 122.832V124.713C523.446 127.14 523.521 127.987 523.615 129.173H520.98C521.13 126.315 521.149 123.472 521.149 120.614C521.149 119.146 521.094 117.716 520.961 116.268H523.615C523.521 117.304 523.446 118.113 523.446 121.631V122.836V122.832Z" fill="black"/>
<path d="M577.407 107.686C577.212 107.686 571.804 107.608 569.228 107.608C534.484 107.608 506.321 111.532 506.321 116.589C506.321 119.74 515.634 122.138 532.019 123.528C532.019 123.372 532.019 123.209 532.019 123.041C519.409 121.605 511.255 119.467 511.255 117.168C511.255 112.929 535.293 108.693 571.742 109.011C572.437 109.018 573.145 109.014 573.866 109.011C611.933 108.992 633.368 115.297 633.368 124.307C633.368 131.236 611.988 138.022 587.022 138.905V139.594C616.013 138.496 638.169 132.175 638.169 124.233C638.169 116.291 619.125 108.358 577.407 107.686Z" fill="black"/>
</g>
</g>
</g>
<defs>
<clipPath id="clip0_8579_21485">
<rect width="92.3351" height="83" fill="white" transform="translate(99.5859 85)"/>
</clipPath>
<clipPath id="clip1_8579_21485">
<rect width="92.3351" height="39.0527" fill="white" transform="translate(99.5859 106.974)"/>
</clipPath>
<clipPath id="clip2_8579_21485">
<rect width="92.3351" height="39.2364" fill="white" transform="translate(99.5859 106.882)"/>
</clipPath>
<clipPath id="clip3_8579_21485">
<rect width="186.045" height="83" fill="white" transform="translate(255.921 85)"/>
</clipPath>
<clipPath id="clip4_8579_21485">
<rect width="132.564" height="83" fill="white" transform="translate(505.967 85)"/>
</clipPath>
<clipPath id="clip5_8579_21485">
<rect width="132.564" height="37.2837" fill="white" transform="translate(505.967 107.858)"/>
</clipPath>
<clipPath id="clip6_8579_21485">
<rect width="131.855" height="37.7841" fill="white" transform="translate(506.321 107.608)"/>
</clipPath>
<clipPath id="clip7_8579_21485">
<rect width="141.95" height="83" fill="white" transform="translate(702.531 85)"/>
</clipPath>
<clipPath id="clip8_8579_21485">
<rect width="141.95" height="24.8315" fill="white" transform="translate(702.531 114.084)"/>
</clipPath>
<clipPath id="clip9_8579_21485">
<rect width="141.95" height="21.9555" fill="white" transform="translate(702.531 115.522)"/>
</clipPath>
<clipPath id="clip10_8579_21485">
<rect width="150.934" height="83" fill="white" transform="translate(908.48 85)"/>
</clipPath>
<clipPath id="clip11_8579_21485">
<rect width="150.934" height="42.4502" fill="white" transform="translate(908.48 105.275)"/>
</clipPath>
<clipPath id="clip12_8579_21485">
<rect width="150.934" height="31.1051" fill="white" transform="translate(908.48 110.947)"/>
</clipPath>
<clipPath id="clip13_8579_21485">
<rect width="65" height="83" fill="white" transform="translate(1123.42 85)"/>
</clipPath>
<clipPath id="clip14_8579_21485">
<rect width="65" height="52.4208" fill="white" transform="translate(1123.42 100.29)"/>
</clipPath>
<clipPath id="clip15_8579_21485">
<rect width="65" height="52.546" fill="white" transform="translate(1123.42 100.227)"/>
</clipPath>
</defs>
</svg>
