<svg width="48" height="48" viewBox="0 0 48 48" fill="none" xmlns="http://www.w3.org/2000/svg">
<rect width="48" height="48" rx="24" fill="#D3C2FF"/>
<path d="M26.6562 20.9505L33.0957 19.1992" stroke="black" stroke-width="1.5" stroke-linecap="round" stroke-linejoin="round"/>
<path d="M25.7693 17.6211C25.4526 16.4213 25.2942 15.8214 25.4338 15.3054C25.5248 14.9698 25.7014 14.6637 25.9466 14.4172C26.3237 14.0382 26.9224 13.8754 28.1198 13.5498C29.3334 13.2197 29.9402 13.0547 30.4617 13.1944C30.8008 13.2853 31.11 13.4638 31.3581 13.7119C31.74 14.0937 31.9005 14.7017 32.2216 15.9178L36.0396 30.3808C36.3564 31.5805 36.5148 32.1804 36.375 32.6965C36.2842 33.0321 36.1076 33.3381 35.8624 33.5846C35.4853 33.9636 34.8865 34.1264 33.6892 34.4521C32.4756 34.7821 31.8688 34.9472 31.3472 34.8074C31.0082 34.7165 30.699 34.5381 30.4508 34.2898C30.069 33.9081 29.9085 33.3001 29.5874 32.0841L25.7693 17.6211Z" stroke="black" stroke-width="1.5" stroke-linejoin="round"/>
<path d="M11.5547 16.5091C11.5547 15.263 11.5547 14.6399 11.8226 14.1758C11.9982 13.8718 12.2506 13.6193 12.5547 13.4437C13.0188 13.1758 13.6419 13.1758 14.888 13.1758C16.1342 13.1758 16.7572 13.1758 17.2214 13.4437C17.5254 13.6193 17.7779 13.8718 17.9534 14.1758C18.2214 14.6399 18.2214 15.263 18.2214 16.5091V31.4956C18.2214 32.7418 18.2214 33.3648 17.9534 33.829C17.7779 34.133 17.5254 34.3855 17.2214 34.561C16.7572 34.829 16.1342 34.829 14.888 34.829C13.6419 34.829 13.0188 34.829 12.5547 34.561C12.2506 34.3855 11.9982 34.133 11.8226 33.829C11.5547 33.3648 11.5547 32.7418 11.5547 31.4956V16.5091Z" stroke="black" stroke-width="1.5" stroke-linejoin="round"/>
<path d="M11.5547 19.9375H18.2214" stroke="black" stroke-width="1.5" stroke-linecap="round" stroke-linejoin="round"/>
<path d="M18.2188 19.9375H24.8855" stroke="black" stroke-width="1.5" stroke-linecap="round" stroke-linejoin="round"/>
<path d="M18.2188 16.5091C18.2188 15.263 18.2188 14.6399 18.4867 14.1758C18.6622 13.8718 18.9147 13.6193 19.2188 13.4437C19.6828 13.1758 20.3059 13.1758 21.5521 13.1758C22.7983 13.1758 23.4213 13.1758 23.8855 13.4437C24.1895 13.6193 24.4419 13.8718 24.6175 14.1758C24.8855 14.6399 24.8855 15.263 24.8855 16.5091V31.4956C24.8855 32.7418 24.8855 33.3648 24.6175 33.829C24.4419 34.133 24.1895 34.3855 23.8855 34.561C23.4213 34.829 22.7983 34.829 21.5521 34.829C20.3059 34.829 19.6828 34.829 19.2188 34.561C18.9147 34.3855 18.6622 34.133 18.4867 33.829C18.2188 33.3648 18.2188 32.7418 18.2188 31.4956V16.5091Z" stroke="black" stroke-width="1.5" stroke-linejoin="round"/>
</svg>
