<svg preserveAspectRatio="none" width="100%" height="100%" overflow="visible" style="display: block;" viewBox="0 0 32 32" fill="none" xmlns="http://www.w3.org/2000/svg">
<g id="library-big">
<path id="Vector" d="M18.6562 12.9492L25.0957 11.1979" stroke="var(--stroke-0, black)" stroke-width="1.5" stroke-linecap="round" stroke-linejoin="round"/>
<path id="Vector_2" d="M17.7693 9.62255C17.4526 8.42277 17.2942 7.82288 17.4338 7.30684C17.5248 6.97125 17.7014 6.66513 17.9466 6.41868C18.3237 6.03969 18.9224 5.87687 20.1198 5.55123C21.3334 5.22116 21.9402 5.05613 22.4617 5.19589C22.8008 5.28675 23.11 5.46523 23.3581 5.71341C23.74 6.09517 23.9005 6.7032 24.2216 7.91923L28.0396 22.3822C28.3564 23.582 28.5148 24.1818 28.375 24.698C28.2842 25.0336 28.1076 25.3396 27.8624 25.5861C27.4853 25.965 26.8865 26.1278 25.6892 26.4536C24.4756 26.7836 23.8688 26.9486 23.3472 26.8089C23.0082 26.718 22.699 26.5396 22.4508 26.2913C22.069 25.9096 21.9085 25.3016 21.5874 24.0856L17.7693 9.62255Z" stroke="var(--stroke-0, black)" stroke-width="1.5" stroke-linejoin="round"/>
<path id="Vector_3" d="M3.55469 8.51058C3.55469 7.26443 3.55469 6.64135 3.82263 6.17725C3.99817 5.87322 4.25065 5.62074 4.55469 5.44521C5.01878 5.17725 5.64186 5.17725 6.88802 5.17725C8.13417 5.17725 8.75725 5.17725 9.22135 5.44521C9.52539 5.62074 9.77786 5.87322 9.95341 6.17725C10.2214 6.64135 10.2214 7.26443 10.2214 8.51058V23.4971C10.2214 24.7432 10.2214 25.3663 9.95341 25.8304C9.77786 26.1344 9.52539 26.387 9.22135 26.5624C8.75725 26.8304 8.13417 26.8304 6.88802 26.8304C5.64186 26.8304 5.01878 26.8304 4.55469 26.5624C4.25065 26.387 3.99817 26.1344 3.82263 25.8304C3.55469 25.3663 3.55469 24.7432 3.55469 23.4971V8.51058Z" stroke="var(--stroke-0, black)" stroke-width="2" stroke-linejoin="round"/>
<path id="Vector_4" d="M3.55469 11.9375H10.2214" stroke="var(--stroke-0, black)" stroke-width="1.5" stroke-linecap="round" stroke-linejoin="round"/>
<path id="Vector_5" d="M10.2188 11.9375H16.8855" stroke="var(--stroke-0, black)" stroke-width="1.5" stroke-linecap="round" stroke-linejoin="round"/>
<path id="Vector_6" d="M10.2188 8.51042C10.2188 7.26427 10.2188 6.64119 10.4867 6.17708C10.6622 5.87306 10.9147 5.62058 11.2188 5.44504C11.6828 5.17708 12.3059 5.17708 13.5521 5.17708C14.7983 5.17708 15.4213 5.17708 15.8855 5.44504C16.1895 5.62058 16.4419 5.87306 16.6175 6.17708C16.8855 6.64119 16.8855 7.26427 16.8855 8.51042V23.497C16.8855 24.7431 16.8855 25.3662 16.6175 25.8303C16.4419 26.1343 16.1895 26.3868 15.8855 26.5623C15.4213 26.8303 14.7983 26.8303 13.5521 26.8303C12.3059 26.8303 11.6828 26.8303 11.2188 26.5623C10.9147 26.3868 10.6622 26.1343 10.4867 25.8303C10.2188 25.3662 10.2188 24.7431 10.2188 23.497V8.51042Z" stroke="var(--stroke-0, black)" stroke-width="1.5" stroke-linejoin="round"/>
</g>
</svg>
