<svg preserveAspectRatio="none" width="100%" height="100%" overflow="visible" style="display: block;" viewBox="0 0 32 32" fill="none" xmlns="http://www.w3.org/2000/svg">
<g id="healtcare">
<path id="Vector" d="M11.1967 3.40292C13.1633 2.18445 14.8797 2.67548 15.9107 3.45762C16.3335 3.77832 16.5449 3.93868 16.6693 3.93868C16.7937 3.93868 17.005 3.77832 17.4278 3.45762C18.4589 2.67548 20.1753 2.18445 22.1418 3.40292C24.7227 5.00201 25.3067 10.2775 19.3537 14.7283C18.2198 15.576 17.6529 15.9998 16.6693 15.9998C15.6857 15.9998 15.1187 15.576 13.9849 14.7283C8.03187 10.2775 8.61586 5.00201 11.1967 3.40292Z" stroke="var(--stroke-0, black)" stroke-width="1.5" stroke-linecap="round"/>
<path id="Vector_2" d="M5.33594 18.6665H8.52903C8.92123 18.6665 9.30804 18.7549 9.65883 18.9246L12.3815 20.242C12.7323 20.4117 13.1191 20.5 13.5113 20.5H14.9014C16.2459 20.5 17.3359 21.5548 17.3359 22.8558C17.3359 22.9084 17.2999 22.9546 17.2477 22.969L13.8598 23.9058C13.252 24.0738 12.6013 24.0153 12.0359 23.7417L9.12542 22.3336" stroke="var(--stroke-0, black)" stroke-width="1.5" stroke-linecap="round" stroke-linejoin="round"/>
<path id="Vector_3" d="M17.3359 22L23.4597 20.1186C24.5453 19.7803 25.7187 20.1814 26.3987 21.1231C26.8905 21.8039 26.6902 22.779 25.9739 23.1923L15.9531 28.974C15.3158 29.3418 14.5638 29.4315 13.8629 29.2235L5.33594 26.6932" stroke="var(--stroke-0, black)" stroke-width="1.5" stroke-linecap="round" stroke-linejoin="round"/>
</g>
</svg>
