<svg preserveAspectRatio="none" width="100%" height="100%" overflow="visible" style="display: block;" viewBox="0 0 25 25" fill="none" xmlns="http://www.w3.org/2000/svg">
<g id="ai-chat-02">
<path id="Vector" d="M14.7558 21.7583C19.1131 21.4688 22.584 17.9486 22.8696 13.5296C22.9254 12.6648 22.9254 11.7692 22.8696 10.9044C22.584 6.48529 19.1131 2.96524 14.7558 2.67559C13.2693 2.57678 11.7173 2.57699 10.2337 2.67559C5.87645 2.96524 2.40563 6.48529 2.12004 10.9044C2.06415 11.7692 2.06415 12.6648 2.12004 13.5296C2.22406 15.1391 2.93586 16.6293 3.77386 17.8876C4.26042 18.7685 3.93931 19.868 3.43251 20.8284C3.06709 21.5209 2.88438 21.8672 3.03108 22.1173C3.17779 22.3674 3.50548 22.3754 4.16086 22.3914C5.45695 22.4229 6.33091 22.0554 7.02466 21.5439C7.41812 21.2538 7.61486 21.1086 7.75046 21.092C7.88604 21.0753 8.15288 21.1852 8.68647 21.405C9.16604 21.6025 9.72287 21.7244 10.2337 21.7583C11.7173 21.857 13.2693 21.8572 14.7558 21.7583Z" stroke="var(--stroke-0, black)" stroke-width="1.5" stroke-linejoin="round"/>
<path id="Vector_2" d="M7.8125 15.625L9.73114 9.8691C9.82949 9.57403 10.1056 9.375 10.4167 9.375C10.7277 9.375 11.0039 9.57403 11.1022 9.8691L13.0208 15.625M16.1458 9.375V15.625M8.85417 13.5417H11.9792" stroke="var(--stroke-0, black)" stroke-width="1.5" stroke-linecap="round" stroke-linejoin="round"/>
</g>
</svg>
