<svg preserveAspectRatio="none" width="100%" height="100%" overflow="visible" style="display: block;" viewBox="0 0 25 25" fill="none" xmlns="http://www.w3.org/2000/svg">
<g id="eye">
<path id="Vector" d="M2.07812 8.33333C2.07812 8.33333 6.74182 3.125 12.4948 3.125C18.2477 3.125 22.9115 8.33333 22.9115 8.33333" stroke="var(--stroke-0, black)" stroke-width="1.5" stroke-linecap="round"/>
<path id="Vector_2" d="M22.4365 13.5859C22.7531 14.03 22.9115 14.2521 22.9115 14.5807C22.9115 14.9094 22.7531 15.1315 22.4365 15.5755C21.0134 17.5709 17.3794 21.8724 12.4948 21.8724C7.61019 21.8724 3.97615 17.5709 2.55317 15.5755C2.23647 15.1315 2.07812 14.9094 2.07812 14.5807C2.07812 14.2521 2.23647 14.03 2.55317 13.5859C3.97615 11.5905 7.61019 7.28906 12.4948 7.28906C17.3794 7.28906 21.0134 11.5905 22.4365 13.5859Z" stroke="var(--stroke-0, black)" stroke-width="1.5"/>
<path id="Vector_3" d="M15.625 14.5859C15.625 12.86 14.2259 11.4609 12.5 11.4609C10.7741 11.4609 9.375 12.86 9.375 14.5859C9.375 16.3119 10.7741 17.7109 12.5 17.7109C14.2259 17.7109 15.625 16.3119 15.625 14.5859Z" stroke="var(--stroke-0, black)" stroke-width="1.5"/>
</g>
</svg>
